<?xml version="1.0" encoding="utf-8"?>
<!-- Generator: Adobe Illustrator 17.0.2, SVG Export Plug-In . SVG Version: 6.00 Build 0)  -->
<!DOCTYPE svg PUBLIC "-//W3C//DTD SVG 1.1//EN" "http://www.w3.org/Graphics/SVG/1.1/DTD/svg11.dtd">
<svg version="1.1" id="Layer_1" xmlns="http://www.w3.org/2000/svg" xmlns:xlink="http://www.w3.org/1999/xlink" x="0px" y="0px"
	 width="746.14px" height="394.935px" viewBox="44.86 59.065 746.14 394.935" enable-background="new 44.86 59.065 746.14 394.935"
	 xml:space="preserve">
<symbol  id="Simple_Arrow_2_" viewBox="-29.55 -12.01 59.1 24.02">
	<g>
		
			<polygon fill="none" stroke="#FFFFFF" stroke-width="3" stroke-linecap="round" stroke-linejoin="round" stroke-miterlimit="10" points="
			19.254,7.683 17.89,6.218 24.035,0.506 -28.05,0.506 -28.05,-1.494 24.04,-1.494 17.89,-7.209 19.254,-8.674 28.05,-0.497 		"/>
		<polygon fill="#221F1F" points="19.254,7.683 17.89,6.218 24.035,0.506 -28.05,0.506 -28.05,-1.494 24.04,-1.494 17.89,-7.209 
			19.254,-8.674 28.05,-0.497 		"/>
	</g>
	<path fill="#221F1F" d="M-27.05-0.494c0-0.552-0.448-1-1-1s-1,0.448-1,1s0.448,1,1,1S-27.05,0.058-27.05-0.494z"/>
	<path fill="#221F1F" d="M19.254,7.683c0.391-0.391,0.391-1.024,0-1.414s-1.024-0.391-1.414,0s-0.391,1.024,0,1.414
		C18.23,8.074,18.863,8.074,19.254,7.683z"/>
	<path fill="#221F1F" d="M19.304-7.209c0.391-0.391,0.391-1.024,0-1.414c-0.391-0.391-1.024-0.391-1.414,0
		c-0.391,0.391-0.391,1.024,0,1.414S18.913-6.819,19.304-7.209z"/>
	<line display="none" fill="none" stroke="#ED358C" stroke-miterlimit="10" x1="-18.518" y1="12.01" x2="-18.518" y2="-12.01"/>
	<line display="none" fill="none" stroke="#ED358C" stroke-miterlimit="10" x1="10.232" y1="12.01" x2="10.232" y2="-12.01"/>
</symbol>
<g id="Simple_Arrow_1_">
	<line display="none" fill="none" stroke="#ED358C" stroke-miterlimit="10" x1="446.315" y1="400.7" x2="446.315" y2="424.719"/>
	<line display="none" fill="none" stroke="#ED358C" stroke-miterlimit="10" x1="475.065" y1="400.7" x2="475.065" y2="424.719"/>
</g>
<g id="Simple_Arrow" opacity="0.2">
	<path display="none" fill="none" stroke="#ED358C" stroke-miterlimit="10" d="M393.988,469.545c0,0,0.942,1.486,2.316,3.655
		c2.513,3.966,6.472,10.214,8.755,13.817c1.08,1.704,1.785,2.817,1.785,2.817"/>
	<path display="none" fill="none" stroke="#ED358C" stroke-miterlimit="10" d="M675.911,290.896c0,0,0.942,1.486,2.316,3.655
		c2.513,3.966,6.472,10.214,8.755,13.817c1.08,1.704,1.785,2.817,1.785,2.817"/>
</g>
<g display="none">
	
		<text transform="matrix(1 0 0 1 108.9283 408.8759)" display="inline" fill="#221F1F" font-family="'ApexNew-Book'" font-size="12.9916">placeholder</text>
	
		<circle display="inline" fill="#B93226" stroke="#FFFFFF" stroke-width="2" stroke-miterlimit="10" cx="100.905" cy="404.662" r="3.75"/>
</g>
<g display="none">
	
		<text transform="matrix(1 0 0 1 108.9283 408.8759)" display="inline" fill="#221F1F" font-family="'ApexNew-Book'" font-size="12.9916">placeholder</text>
	
		<circle display="inline" fill="#B93226" stroke="#FFFFFF" stroke-width="2" stroke-miterlimit="10" cx="100.905" cy="404.662" r="3.75"/>
</g>
<g>
	<g>
		<g>
			<path fill="none" stroke="#FFFFFF" stroke-width="3" d="M408.609,114.255c0-0.192-0.448-0.347-1-0.347s-1,0.155-1,0.347v147.036
				c0.667,0,1.333,0,2,0V114.255z"/>
			<path fill="#231F20" d="M408.609,114.255c0-0.192-0.448-0.347-1-0.347s-1,0.155-1,0.347v147.036c0.667,0,1.333,0,2,0V114.255z"/>
		</g>
		<g>
			<path fill="#231F20" d="M472.437,311.267l-8.796-8.18c-0.391-0.391-1.024-0.391-1.414,0c-0.391,0.391-0.391,1.024,0,1.414
				c0.018,0.018,0.041,0.024,0.06,0.04l-0.01,0.011l6.145,5.713h-10.868c0,0.667,0,1.333,0,2h10.872l-6.15,5.715
				c-0.391,0.391-0.391,1.024,0,1.414c0.373,0.373,0.961,0.379,1.354,0.04l0.01,0.011L472.437,311.267z"/>
			<g>
				<path fill="none" stroke="#FFFFFF" stroke-width="5" stroke-miterlimit="10" d="M457.555,311.238
					c-27.584,0-49.946-22.362-49.946-49.946"/>
				<path fill="none" stroke="#231F20" stroke-width="2" stroke-miterlimit="10" d="M457.555,311.238
					c-27.584,0-49.946-22.362-49.946-49.946"/>
			</g>
		</g>
		<g>
			<path fill="none" stroke="#FFFFFF" stroke-width="5" stroke-miterlimit="10" d="M382.636,89.936
				c13.792,0,24.973,11.181,24.973,24.973"/>
			<path fill="none" stroke="#231F20" stroke-width="2" stroke-miterlimit="10" d="M382.636,89.936
				c13.792,0,24.973,11.181,24.973,24.973"/>
		</g>
	</g>
	
		<use xlink:href="#Simple_Arrow_2_"  width="59.1" height="24.02" id="XMLID_2_" x="-29.55" y="-12.01" transform="matrix(1.4045 0 0 -1 220.9928 89.4424)" overflow="visible"/>
	
		<use xlink:href="#Simple_Arrow_2_"  width="59.1" height="24.02" id="XMLID_8_" x="-29.55" y="-12.01" transform="matrix(1.3892 0 0 -1 412.5919 89.4424)" overflow="visible"/>
	
		<use xlink:href="#Simple_Arrow_2_"  width="59.1" height="24.02" id="XMLID_9_" x="-29.55" y="-12.01" transform="matrix(1.3707 0 0 -1 600.9927 89.4424)" overflow="visible"/>
	<g>
		<g id="XMLID_6_">
			<g id="Template_14_">
				<g>
					<rect x="52.643" y="110.302" fill="#E6E6E6" width="137.802" height="1.373"/>
				</g>
			</g>
			<g id="Template_13_">
				<g>
					<rect x="52.643" y="148.757" fill="#E6E6E6" width="137.802" height="1.373"/>
				</g>
			</g>
			<g id="border_7_">
				<path fill="#414141" d="M179.515,63.583c6.065,0,11,6.778,11,15.107v197.548c0,8.33-4.935,15.107-11,15.107H64.256
					c-6.065,0-11-6.778-11-15.107V78.69c0-8.33,4.935-15.107,11-15.107H179.515 M179.515,62.209H64.256c-6.6,0-12,7.416-12,16.481
					v197.548c0,9.064,5.4,16.481,12,16.481h115.259c6.6,0,12-7.416,12-16.481V78.69C191.515,69.626,186.115,62.209,179.515,62.209
					L179.515,62.209z"/>
			</g>
		</g>
		<text transform="matrix(1 0 0 1 89.4899 100.451)" fill="#221F1F" font-family="'HelveticaNeue-Light'" font-size="27.7481">477B</text>
		<text transform="matrix(1 0 0 1 62.4007 169.6768)" fill="#221F1F" font-family="'ApexNew-Bold'" font-size="12.9916">tree</text>
		<text transform="matrix(1 0 0 1 85.4997 169.6768)" fill="#221F1F" font-family="'ApexNew-Book'" font-size="12.9916">: C671</text>
		<text transform="matrix(1 0 0 1 62.4007 185.2668)" fill="#221F1F" font-family="'ApexNew-Bold'" font-size="12.9916">parent</text>
		<text transform="matrix(1 0 0 1 99.6337 185.2668)" fill="#221F1F" font-family="'ApexNew-Book'" font-size="12.9916">: nil</text>
		<text transform="matrix(1 0 0 1 62.4007 200.8568)" fill="#221F1F" font-family="'ApexNew-Bold'" font-size="12.9916">author</text>
		<text transform="matrix(1 0 0 1 99.7897 200.8568)" fill="#221F1F" font-family="'ApexNew-Book'" font-size="12.9916">: Tim</text>
		<text transform="matrix(1 0 0 1 62.4007 216.4468)" fill="#221F1F" font-family="'ApexNew-Bold'" font-size="12.9916">committer</text>
		<text transform="matrix(1 0 0 1 120.4727 216.4468)" fill="#221F1F" font-family="'ApexNew-Book'" font-size="12.9916">: Brent</text>
		<text transform="matrix(1 0 0 1 62.4007 232.0368)" fill="#221F1F" font-family="'ApexNew-Bold'" font-size="12.9916">message</text>
		<text transform="matrix(1 0 0 1 111.7547 232.0368)" fill="#221F1F" font-family="'ApexNew-Book'" font-size="12.9916">: </text>
		<text transform="matrix(1 0 0 1 62.4007 257.2168)" fill="#221F1F" font-family="'ApexNew-Book'" font-size="12.9916">Add initial project</text>
		<text transform="matrix(1 0 0 1 62.4007 272.8058)" fill="#221F1F" font-family="'ApexNew-Book'" font-size="12.9916">HTML and JavaScript</text>
		<text transform="matrix(1 0 0 1 90.8984 136.0493)" fill="#221F1F" font-family="'ApexNew-Bold'" font-size="19.1817">commit</text>
	</g>
	<g>
		<g>
			<g id="Template_12_">
				<line fill="none" stroke="#E6E6E6" stroke-miterlimit="10" x1="380.635" y1="115.954" x2="242.833" y2="115.954"/>
			</g>
			<g id="Template_11_">
				<line fill="none" stroke="#E6E6E6" stroke-miterlimit="10" x1="380.635" y1="143.954" x2="242.833" y2="143.954"/>
			</g>
			<g id="border_6_">
				<path fill="#414141" d="M369.705,63.211c6.065,0,11,4.935,11,11V218.05c0,6.065-4.935,11-11,11H254.446c-6.065,0-11-4.935-11-11
					V74.211c0-6.065,4.935-11,11-11H369.705 M369.705,62.211H254.446c-6.6,0-12,5.4-12,12V218.05c0,6.6,5.4,12,12,12h115.259
					c6.6,0,12-5.4,12-12V74.211C381.705,67.611,376.305,62.211,369.705,62.211L369.705,62.211z"/>
			</g>
		</g>
		<text transform="matrix(1 0 0 1 279.1672 100.451)" fill="#221F1F" font-family="'HelveticaNeue-Light'" font-size="27.7481">C671</text>
		<text transform="matrix(1 0 0 1 252.5912 163.6768)" fill="#221F1F" font-family="'ApexNew-Bold'" font-size="12.9916">tree</text>
		<text transform="matrix(1 0 0 1 275.6902 163.6768)" fill="#221F1F" font-family="'ApexNew-Book'" font-size="12.9916">: 8D33   javascript</text>
		<text transform="matrix(1 0 0 1 252.5912 179.2668)" fill="#221F1F" font-family="'ApexNew-Bold'" font-size="12.9916">blob</text>
		<text transform="matrix(1 0 0 1 277.1842 179.2668)" fill="#221F1F" font-family="'ApexNew-Book'" font-size="12.9916">: 9E3A index.html</text>
		<text transform="matrix(1 0 0 1 295.0244 136.0493)" fill="#221F1F" font-family="'ApexNew-Bold'" font-size="19.1817">tree</text>
	</g>
	<g>
		<g>
			<g id="Template_10_">
				<line fill="none" stroke="#E6E6E6" stroke-miterlimit="10" x1="570.826" y1="115.954" x2="433.024" y2="115.954"/>
			</g>
			<g id="Template_9_">
				<line fill="none" stroke="#E6E6E6" stroke-miterlimit="10" x1="570.826" y1="143.954" x2="433.024" y2="143.954"/>
			</g>
			<g id="border_5_">
				<path fill="#414141" d="M559.896,63.211c6.065,0,11,4.935,11,11V218.05c0,6.065-4.935,11-11,11H444.637c-6.065,0-11-4.935-11-11
					V74.211c0-6.065,4.935-11,11-11H559.896 M559.896,62.211H444.637c-6.6,0-12,5.4-12,12V218.05c0,6.6,5.4,12,12,12h115.259
					c6.6,0,12-5.4,12-12V74.211C571.896,67.611,566.496,62.211,559.896,62.211L559.896,62.211z"/>
			</g>
		</g>
		<text transform="matrix(1 0 0 1 469.6214 100.451)" fill="#221F1F" font-family="'HelveticaNeue-Light'" font-size="27.7481">8D33</text>
		<text transform="matrix(1 0 0 1 442.7817 163.6768)" fill="#221F1F" font-family="'ApexNew-Bold'" font-size="12.9916">blob</text>
		<text transform="matrix(1 0 0 1 467.3747 163.6768)" fill="#221F1F" font-family="'ApexNew-Book'" font-size="12.9916">: 7FB1  app.js</text>
		<text transform="matrix(1 0 0 1 442.7817 179.2668)" fill="#221F1F" font-family="'ApexNew-Bold'" font-size="12.9916">blob</text>
		<text transform="matrix(1 0 0 1 467.3747 179.2668)" fill="#221F1F" font-family="'ApexNew-Book'" font-size="12.9916">: 512D logo.png</text>
		<text transform="matrix(1 0 0 1 485.2149 136.0493)" fill="#221F1F" font-family="'ApexNew-Bold'" font-size="19.1817">tree</text>
	</g>
	<g>
		<path fill="none" stroke="#221F1F" stroke-miterlimit="10" d="M564.938,389.875"/>
		<path fill="none" stroke="#221F1F" stroke-miterlimit="10" d="M564.938,389.875"/>
		<g id="XMLID_4_">
			<g id="Template_8_">
				<line fill="none" stroke="#E6E6E6" stroke-miterlimit="10" x1="591.714" y1="334.581" x2="453.911" y2="334.581"/>
			</g>
			<g id="Template_7_">
				<line fill="none" stroke="#E6E6E6" stroke-miterlimit="10" x1="591.714" y1="362.581" x2="453.911" y2="362.581"/>
			</g>
			<g id="border_4_">
				<path fill="#414141" d="M580.784,281.838c6.065,0,11,4.935,11,11v143.839c0,6.065-4.935,11-11,11h-115.26
					c-6.065,0-11-4.935-11-11V292.838c0-6.065,4.935-11,11-11H580.784 M580.784,280.838h-115.26c-6.6,0-12,5.4-12,12v143.839
					c0,6.6,5.4,12,12,12h115.259c6.6,0,12-5.4,12-12V292.838C592.783,286.238,587.383,280.838,580.784,280.838L580.784,280.838z"/>
			</g>
		</g>
		<text transform="matrix(1 0 0 1 490.7594 319.0772)" fill="#221F1F" font-family="'HelveticaNeue-Light'" font-size="27.7481">9E3A</text>
		<text transform="matrix(1 0 0 1 463.6697 382.303)" fill="#221F1F" font-family="'AndaleMono'" font-size="12.9916">&lt;html&gt;</text>
		
			<text transform="matrix(1 0 0 1 463.6697 397.893)" fill="#221F1F" font-family="'AndaleMono'" font-size="12.9916" letter-spacing="28"> </text>
		<text transform="matrix(1 0 0 1 502.6447 397.893)" fill="#221F1F" font-family="'AndaleMono'" font-size="12.9916">&lt;head&gt;...</text>
		
			<text transform="matrix(1 0 0 1 463.6697 413.483)" fill="#221F1F" font-family="'AndaleMono'" font-size="12.9916" letter-spacing="28"> </text>
		<text transform="matrix(1 0 0 1 502.6447 413.483)" fill="#221F1F" font-family="'AndaleMono'" font-size="12.9916">&lt;body&gt;...</text>
		<text transform="matrix(1 0 0 1 463.6697 429.073)" fill="#221F1F" font-family="'AndaleMono'" font-size="12.9916">&lt;/html&gt;</text>
		<text transform="matrix(1 0 0 1 504.9998 354.6754)" fill="#221F1F" font-family="'ApexNew-Bold'" font-size="19.1817">blob</text>
	</g>
	<path fill="none" stroke="#221F1F" stroke-miterlimit="10" d="M606.037,370.329"/>
	<path fill="none" stroke="#221F1F" stroke-miterlimit="10" d="M606.037,370.329"/>
	<g>
		<g>
			<g id="Template_6_">
				<line fill="none" stroke="#E6E6E6" stroke-miterlimit="10" x1="780.189" y1="334.581" x2="642.387" y2="334.581"/>
			</g>
			<g id="Template_5_">
				<line fill="none" stroke="#E6E6E6" stroke-miterlimit="10" x1="780.189" y1="362.581" x2="642.387" y2="362.581"/>
			</g>
			<g id="border_3_">
				<path fill="#414141" d="M769.259,281.838c6.065,0,11,4.935,11,11v143.839c0,6.065-4.935,11-11,11H654c-6.065,0-11-4.935-11-11
					V292.838c0-6.065,4.935-11,11-11H769.259 M769.259,280.838H654c-6.6,0-12,5.4-12,12v143.839c0,6.6,5.4,12,12,12h115.259
					c6.6,0,12-5.4,12-12V292.838C781.259,286.238,775.859,280.838,769.259,280.838L769.259,280.838z"/>
			</g>
		</g>
		<text transform="matrix(1 0 0 1 678.9844 319.0772)" fill="#221F1F" font-family="'HelveticaNeue-Light'" font-size="27.7481">512D</text>
		<text transform="matrix(1 0 0 1 652.1447 382.303)" fill="#221F1F" font-family="'AndaleMono'" font-size="12.9916">4342 2a00</text>
		<text transform="matrix(1 0 0 1 652.1447 397.893)" fill="#221F1F" font-family="'AndaleMono'" font-size="12.9916">0800 0000</text>
		<text transform="matrix(1 0 0 1 652.1447 413.483)" fill="#221F1F" font-family="'AndaleMono'" font-size="12.9916">3c00 ab00</text>
		<text transform="matrix(1 0 0 1 652.1447 429.073)" fill="#221F1F" font-family="'AndaleMono'" font-size="12.9916">4342 2a03</text>
		<text transform="matrix(1 0 0 1 693.4748 354.6754)" fill="#221F1F" font-family="'ApexNew-Bold'" font-size="19.1817">blob</text>
	</g>
	<path fill="none" stroke="#221F1F" stroke-miterlimit="10" d="M744.923,164.152"/>
	<path fill="none" stroke="#221F1F" stroke-miterlimit="10" d="M744.923,164.152"/>
	<g>
		<g>
			<g id="Template_2_">
				<line fill="none" stroke="#E6E6E6" stroke-miterlimit="10" x1="761.016" y1="115.954" x2="623.214" y2="115.954"/>
			</g>
			<g id="Template_1_">
				<line fill="none" stroke="#E6E6E6" stroke-miterlimit="10" x1="761.016" y1="143.954" x2="623.214" y2="143.954"/>
			</g>
			<g id="border_1_">
				<path fill="#414141" d="M750.086,63.211c6.065,0,11,4.935,11,11V218.05c0,6.065-4.935,11-11,11H634.827c-6.065,0-11-4.935-11-11
					V74.211c0-6.065,4.935-11,11-11H750.086 M750.086,62.211H634.827c-6.6,0-12,5.4-12,12V218.05c0,6.6,5.4,12,12,12h115.259
					c6.6,0,12-5.4,12-12V74.211C762.086,67.611,756.686,62.211,750.086,62.211L750.086,62.211z"/>
			</g>
		</g>
		<text transform="matrix(1 0 0 1 660.3256 100.451)" fill="#221F1F" font-family="'HelveticaNeue-Light'" font-size="27.7481">7FB1</text>
		<text transform="matrix(1 0 0 1 632.9722 163.6768)" fill="#221F1F" font-family="'AndaleMono'" font-size="12.9916">// JavaScript</text>
		<text transform="matrix(1 0 0 1 632.9722 179.2668)" fill="#221F1F" font-family="'AndaleMono'" font-size="12.9916">var itemCount;</text>
		<text transform="matrix(1 0 0 1 632.9722 194.8568)" fill="#221F1F" font-family="'AndaleMono'" font-size="12.9916">function(){...</text>
		<text transform="matrix(1 0 0 1 632.9722 210.4468)" fill="#221F1F" font-family="'AndaleMono'" font-size="12.9916">itemCount +=...</text>
		<text transform="matrix(1 0 0 1 674.3024 136.0493)" fill="#221F1F" font-family="'ApexNew-Bold'" font-size="19.1817">blob</text>
	</g>
	<g>
		<g>
			<path fill="none" stroke="#FFFFFF" stroke-width="3" d="M599.625,113.761c0-0.192-0.448-0.347-1-0.347s-1,0.155-1,0.347v147.036
				c0.667,0,1.333,0,2,0V113.761z"/>
			<path fill="#231F20" d="M599.625,113.761c0-0.192-0.448-0.347-1-0.347s-1,0.155-1,0.347v147.036c0.667,0,1.333,0,2,0V113.761z"/>
		</g>
		<g>
			<path fill="#231F20" d="M663.454,310.773l-8.796-8.18c-0.391-0.391-1.024-0.391-1.414,0c-0.391,0.391-0.391,1.024,0,1.414
				c0.018,0.018,0.041,0.024,0.06,0.04l-0.01,0.011l6.145,5.713h-10.868c0,0.667,0,1.333,0,2h10.872l-6.15,5.715
				c-0.391,0.391-0.391,1.024,0,1.414c0.373,0.373,0.961,0.379,1.354,0.04l0.01,0.011L663.454,310.773z"/>
			<g>
				<path fill="none" stroke="#FFFFFF" stroke-width="5" stroke-miterlimit="10" d="M648.571,310.743
					c-27.584,0-49.946-22.362-49.946-49.946"/>
				<path fill="none" stroke="#231F20" stroke-width="2" stroke-miterlimit="10" d="M648.571,310.743
					c-27.584,0-49.946-22.362-49.946-49.946"/>
			</g>
		</g>
		<g>
			<path fill="none" stroke="#FFFFFF" stroke-width="5" stroke-miterlimit="10" d="M573.652,89.441
				c13.792,0,24.973,11.181,24.973,24.973"/>
			<path fill="none" stroke="#231F20" stroke-width="2" stroke-miterlimit="10" d="M573.652,89.441
				c13.792,0,24.973,11.181,24.973,24.973"/>
		</g>
	</g>
</g>
<g id="boundary">
	<path fill="none" stroke="#FC0048" stroke-miterlimit="10" d="M44.86,59.065V454H791V59.065H44.86z"/>
</g>
</svg>
