<?xml version="1.0" encoding="utf-8"?>
<!-- Generator: Adobe Illustrator 17.1.0, SVG Export Plug-In . SVG Version: 6.00 Build 0)  -->
<!DOCTYPE svg PUBLIC "-//W3C//DTD SVG 1.1//EN" "http://www.w3.org/Graphics/SVG/1.1/DTD/svg11.dtd">
<svg version="1.1" id="Layer_1" xmlns="http://www.w3.org/2000/svg" xmlns:xlink="http://www.w3.org/1999/xlink" x="0px" y="0px"
	 viewBox="38 334.3 500 192.7" enable-background="new 38 334.3 500 192.7" xml:space="preserve">
<g id="boundary">
	<path fill="none" stroke="#E88F24" stroke-width="4" stroke-miterlimit="10" d="M38,334.3v192.7h500V334.3H38z"/>
</g>
<g id="base">
	<g id="border_4_">
		<path d="M506.4,344.5c12,0,21.8,9.8,21.8,21.8v88.5c0,12-9.8,21.8-21.8,21.8h-93.9c-12,0-21.8-9.8-21.8-21.8v-88.5
			c0-12,9.8-21.8,21.8-21.8H506.4 M506.4,343.5h-93.9c-12.5,0-22.7,10.3-22.7,22.7v88.5c0,12.5,10.3,22.7,22.7,22.7h93.9
			c12.5,0,22.7-10.3,22.7-22.7v-88.5C529,353.8,518.8,343.5,506.4,343.5L506.4,343.5z"/>
	</g>
	<path d="M483.4,404.2c-2.9-10.7-12.5-18.7-24-18.7c-11.6,0-21.3,8-24,18.7h-19.6v12.5h19.6c2.9,10.8,12.5,18.7,24,18.7
		c11.7,0,21.3-8,24-18.7h19.7v-12.5H483.4L483.4,404.2z M459.4,422.9c-6.9,0-12.5-5.6-12.5-12.5s5.6-12.5,12.5-12.5
		c6.9,0,12.5,5.6,12.5,12.5S466.2,422.9,459.4,422.9z"/>
</g>
<path d="M117.2,433.1H97.6v4h19.7V433.1z M125.2,421.3H89.7v55.2h47.3v-43.4L125.2,421.3z M133.1,472.5H93.6v-47.3h27.7l11.8,11.8
	V472.5z M97.6,464.7h31.5v-4H97.6V464.7z M97.6,456.8h31.5v-4H97.6V456.8z M97.6,448.8h31.5v-4H97.6V448.8z"/>
<path d="M197.9,381.4h-35.5v55.2h47.3v-43.4L197.9,381.4z M205.7,432.8h-39.5v-47.3h27.7l11.8,11.8V432.8z M170.2,393.3v31.5h7.8
	c0-4.4,3.5-7.8,7.8-7.8c-4.4,0-7.8-3.5-7.8-7.8c0-4.4,3.5-7.8,7.8-7.8s7.8,3.5,7.8,7.8c0,4.4-3.5,7.8-7.8,7.8c4.4,0,7.8,3.5,7.8,7.8
	h7.8v-23.7l-7.8-7.8H170.2z"/>
<path d="M72.8,360.9l-9.8,9.8l9.8,9.8l4-4l-6-6l6-6L72.8,360.9z M80.7,364.9l6,6l-6,6l4,4l9.8-9.8l-9.8-9.8L80.7,364.9z M90.6,341.2
	H55.1v55.2h47.3V353L90.6,341.2z M98.4,392.4H58.9V345h27.7l11.8,11.8V392.4z"/>
<g id="New_Symbol" enable-background="new    ">
	<g>
		<path fill="#221F1F" d="M379.7,401.4c0.5,0,1,0.2,1.4,0.5l11.3,10.6l-11.8,11.1l-0.1-0.1c-0.2,0.1-0.5,0.1-0.7,0.1
			c-1,0-1.8-0.9-1.8-1.9c0-0.5,0.2-1,0.5-1.4l6.4-6.1H214.6c-1,0-1.8-0.9-1.8-1.9c0-1,0.9-1.9,1.8-1.9h170.2l-6.9-6.5l0.1-0.1
			c-0.1-0.2-0.2-0.6-0.2-0.9C377.9,402.3,378.8,401.4,379.7,401.4z"/>
		<path fill="#FFFFFF" d="M379.7,423.1c-0.7,0-1.2-0.5-1.2-1.2c0-0.4,0.1-0.6,0.4-0.9l7.5-7.1H214.8c-0.7,0-1.2-0.5-1.2-1.2
			s0.5-1.2,1.2-1.2h171.8l-7.5-7.1l0,0c-0.2-0.2-0.5-0.5-0.5-0.9c0-0.7,0.5-1.2,1.2-1.2c0.4,0,0.6,0.1,0.9,0.4l0,0l10.9,10.2
			L380.6,423l0,0C380.4,423,380.1,423.1,379.7,423.1 M380.5,424.6l0.9-0.9l10.9-10.2l1-0.9l-1-0.9l-10.9-10.2
			c-0.5-0.5-1.1-0.7-1.7-0.7c-1.4,0-2.5,1.1-2.5,2.5c0,0.2,0,0.5,0.1,0.7l-0.2,0.2l0.9,0.9l5.3,5H214.6c-1.4,0-2.5,1.1-2.5,2.5
			s1.1,2.5,2.5,2.5h168.7l-5.3,5c-0.5,0.5-0.7,1.1-0.7,1.7c0,1.4,1.1,2.5,2.5,2.5c0.1,0,0.4,0,0.5,0L380.5,424.6L380.5,424.6z"/>
	</g>
	<g>
		<path fill="#221F1F" d="M379.7,443.5c0.5,0,1,0.2,1.4,0.5l11.3,10.6l-11.8,11.1l-0.1-0.1c-0.2,0.1-0.5,0.1-0.7,0.1
			c-1,0-1.8-0.9-1.8-1.9c0-0.5,0.2-1,0.5-1.4l6.4-6.1H142.5c-1,0-1.8-0.9-1.8-1.9s0.9-1.9,1.8-1.9h242.3l-6.9-6.5l0.1-0.1
			c-0.1-0.2-0.2-0.6-0.2-0.9C377.9,444.4,378.8,443.5,379.7,443.5z"/>
		<path fill="#FFFFFF" d="M379.7,465.2c-0.7,0-1.2-0.5-1.2-1.2c0-0.4,0.1-0.6,0.4-0.9l7.5-7.1H142.6c-0.7,0-1.2-0.5-1.2-1.2
			c0-0.7,0.5-1.2,1.2-1.2h243.9l-7.5-7.1l0,0c-0.2-0.2-0.5-0.5-0.5-0.9c0-0.7,0.5-1.2,1.2-1.2c0.4,0,0.6,0.1,0.9,0.4l0,0l10.9,10.2
			l-10.9,10.2l0,0C380.4,465.1,380.1,465.2,379.7,465.2 M380.5,466.7l0.9-0.9l10.9-10.2l1-0.9l-1-0.9l-10.9-10.2
			c-0.5-0.5-1.1-0.7-1.7-0.7c-1.4,0-2.5,1.1-2.5,2.5c0,0.2,0,0.5,0.1,0.7l-0.2,0.2l0.9,0.9l5.3,5H142.5c-1.4,0-2.5,1.1-2.5,2.5
			s1.1,2.5,2.5,2.5h240.8l-5.3,5c-0.5,0.5-0.7,1.1-0.7,1.7c0,1.4,1.1,2.5,2.5,2.5c0.1,0,0.4,0,0.5,0L380.5,466.7L380.5,466.7z"/>
	</g>
	<g>
		<path fill="#221F1F" d="M379.7,358.2c0.5,0,1,0.2,1.4,0.5l11.3,10.6l-11.8,11.1l-0.1-0.1c-0.2,0.1-0.5,0.1-0.7,0.1
			c-1,0-1.8-0.9-1.8-1.9c0-0.5,0.2-1,0.5-1.4l6.4-6.1H107.5c-1,0-1.8-0.9-1.8-1.9s0.9-1.9,1.8-1.9h277.3l-6.9-6.5l0.1-0.1
			c-0.1-0.2-0.2-0.6-0.2-0.9C377.9,359.1,378.8,358.2,379.7,358.2z"/>
		<path fill="#FFFFFF" d="M379.7,379.9c-0.7,0-1.2-0.5-1.2-1.2c0-0.4,0.1-0.6,0.4-0.9l7.5-7.1H107.6c-0.7,0-1.2-0.5-1.2-1.2
			c0-0.7,0.5-1.2,1.2-1.2h278.9l-7.5-7.1l0,0c-0.2-0.2-0.5-0.5-0.5-0.9c0-0.7,0.5-1.2,1.2-1.2c0.4,0,0.6,0.1,0.9,0.4l0,0l10.9,10.2
			l-10.9,10.2l0,0C380.4,379.8,380.1,379.9,379.7,379.9 M380.5,381.4l0.9-0.9l10.9-10.2l1-0.9l-1-0.9l-10.9-10.2
			c-0.5-0.5-1.1-0.7-1.7-0.7c-1.4,0-2.5,1.1-2.5,2.5c0,0.2,0,0.5,0.1,0.7l-0.2,0.2l0.9,0.9l5.3,5H107.5c-1.4,0-2.5,1.1-2.5,2.5
			s1.1,2.5,2.5,2.5h275.9l-5.3,5c-0.5,0.5-0.7,1.1-0.7,1.7c0,1.4,1.1,2.5,2.5,2.5c0.1,0,0.4,0,0.5,0L380.5,381.4L380.5,381.4z"/>
	</g>
</g>
</svg>
