<?xml version="1.0" encoding="utf-8"?>
<!-- Generator: Adobe Illustrator 17.1.0, SVG Export Plug-In . SVG Version: 6.00 Build 0)  -->
<!DOCTYPE svg PUBLIC "-//W3C//DTD SVG 1.1//EN" "http://www.w3.org/Graphics/SVG/1.1/DTD/svg11.dtd">
<svg version="1.1" id="Layer_1" xmlns="http://www.w3.org/2000/svg" xmlns:xlink="http://www.w3.org/1999/xlink" x="0px" y="0px"
	 viewBox="0 0 494.5 176.6" enable-background="new 0 0 494.5 176.6" xml:space="preserve">
<g id="base">
	<path id="border_17_" fill="#424242" d="M104.1,42.8c4.4,0,7.9,3.5,7.9,7.9v25.9c0,4.4-3.5,7.9-7.9,7.9H12.2
		c-4.4,0-7.9-3.5-7.9-7.9V50.7c0-4.4,3.5-7.9,7.9-7.9L104.1,42.8 M104.1,42H12.2c-4.7,0-8.6,3.9-8.6,8.6v25.9c0,4.7,3.9,8.6,8.6,8.6
		h91.9c4.7,0,8.6-3.9,8.6-8.6V50.7C112.7,45.9,108.8,42,104.1,42L104.1,42z"/>
	<path id="border_6_" fill="#424242" d="M292.9,42.8c4.4,0,7.9,3.5,7.9,7.9v25.9c0,4.4-3.5,7.9-7.9,7.9h-91.9
		c-4.4,0-7.9-3.5-7.9-7.9V50.7c0-4.4,3.5-7.9,7.9-7.9L292.9,42.8 M292.9,42h-91.9c-4.7,0-8.6,3.9-8.6,8.6v25.9
		c0,4.7,3.9,8.6,8.6,8.6h91.9c4.7,0,8.6-3.9,8.6-8.6V50.7C301.6,45.9,297.7,42,292.9,42L292.9,42z"/>
	<path id="border_1_" fill="#424242" d="M482.2,42.8c4.4,0,7.9,3.5,7.9,7.9v25.9c0,4.4-3.5,7.9-7.9,7.9h-91.9
		c-4.4,0-7.9-3.5-7.9-7.9V50.7c0-4.4,3.5-7.9,7.9-7.9L482.2,42.8 M482.2,42h-91.9c-4.7,0-8.6,3.9-8.6,8.6v25.9
		c0,4.7,3.9,8.6,8.6,8.6h91.9c4.7,0,8.6-3.9,8.6-8.6V50.7C490.9,45.9,487,42,482.2,42L482.2,42z"/>
	<text transform="matrix(1 0 0 1 24.3306 68.9293)" fill="#221F1F" font-family="'HelveticaNeue-Light'" font-size="19.9495">working</text>
	<text transform="matrix(1 0 0 1 215.7676 68.9293)" fill="#221F1F" font-family="'HelveticaNeue-Light'" font-size="19.9495">staging</text>
	<text transform="matrix(1 0 0 1 408.0538 68.9293)" fill="#221F1F" font-family="'HelveticaNeue-Light'" font-size="19.9495">history</text>
	<path opacity="0.5" fill="#595A5C" enable-background="new    " d="M70.4,2.4l-3.5,3.5l5.3,5.3l3.5-3.5L70.4,2.4z M51,21.7l0,5.3
		l5.2,0l14-14l-5.3-5.3L51,21.7z M56.3,25.2h-3.5v-3.5h1.8v1.8h1.8V25.2z"/>
	<path opacity="0.5" fill="#595A5C" enable-background="new    " d="M248.1,11.3c-2.5,0-4.5,2-4.5,4.5s2,4.5,4.5,4.5
		c0.2,0,0.4,0,0.6,0c-1.6-0.2-2.9-1.6-2.9-3.3c0-1.9,1.5-3.4,3.4-3.4c1.7,0,3.1,1.2,3.3,2.9c0-0.2,0-0.4,0-0.6
		C252.6,13.3,250.6,11.3,248.1,11.3z M261.5,6.9h-4.5l-4.5-4.5h-8.9l-4.5,4.5h-4.5c-1.2,0-2.2,1-2.2,2.2v15.7c0,1.2,1,2.2,2.2,2.2
		h26.8c1.2,0,2.2-1,2.2-2.2V9.1C263.8,7.9,262.8,6.9,261.5,6.9z M244.8,4.6h6.7l2.2,2.2h-11.2L244.8,4.6z M235.8,24.7
		c-0.6,0-1.1-0.5-1.1-1.1V13.6h2.2v-2.2h-2.2v-1.1c0-0.6,0.5-1.1,1.1-1.1h6.4c-0.1,0.1-0.3,0.3-0.4,0.4c-3.5,3.5-3.5,9.2,0,12.6
		l2.6,2.6L235.8,24.7L235.8,24.7z M248.1,22.5c-3.7,0-6.7-3-6.7-6.7s3-6.7,6.7-6.7s6.7,3,6.7,6.7S251.8,22.5,248.1,22.5z
		 M259.3,14.7L254,9.1h5.3V14.7z"/>
	<path opacity="0.5" fill="#595A5C" enable-background="new    " d="M438.5,0c-2.5,0-4.8,0.8-6.8,2l-2-2v7h7l-2.4-2.4
		c1.2-0.7,2.7-1.1,4.2-1.1c4.9,0,8.8,3.9,8.8,8.8s-3.9,8.8-8.8,8.8c-4.9,0-8.8-3.9-8.8-8.8c0-1.3,0.3-2.4,0.7-3.5h-2.5V6.1
		c-1.1,1.8-1.8,4-1.8,6.2c0,6.8,5.5,12.3,12.3,12.3s12.3-5.5,12.3-12.3S445.3,0,438.5,0z M438.4,21.1l1.8-1.7v-5.3h3.5l1.8-1.8
		l-1.8-1.8h-3.5l-1.8-1.8l-3.5,3.5l1.8,1.8v5.3L438.4,21.1z"/>
</g>
<g id="boundary">
	<rect y="0" fill="none" stroke="#C04141" stroke-width="4" stroke-miterlimit="10" width="494.5" height="128"/>
</g>
<g id="step-1-in-out">
	<path id="border_15_" fill="#4081C3" d="M104.1,42c4.7,0,8.6,3.9,8.6,8.6v25.9c0,4.7-3.9,8.6-8.6,8.6H12.2c-4.7,0-8.6-3.9-8.6-8.6
		V50.7c0-4.7,3.9-8.6,8.6-8.6L104.1,42 M104.1,38.4H12.2C5.5,38.4,0,43.9,0,50.7v25.9c0,6.7,5.5,12.2,12.2,12.2h91.9
		c6.7,0,12.2-5.5,12.2-12.2V50.7C116.3,43.9,110.8,38.4,104.1,38.4L104.1,38.4z"/>
	<line fill="none" stroke="#231F20" stroke-width="3" stroke-miterlimit="10" x1="112" y1="64.3" x2="190.7" y2="64.3"/>
	<polygon fill="#231F20" points="183.3,73.5 181.7,71.9 189.9,64.3 181.7,56.8 183.3,55.1 193.2,64.3 	"/>
</g>
<g id="step-2-in-out">
	<path id="border_2_" fill="#4081C3" d="M292.9,42c4.7,0,8.6,3.9,8.6,8.6v25.9c0,4.7-3.9,8.6-8.6,8.6h-91.9c-4.7,0-8.6-3.9-8.6-8.6
		V50.7c0-4.7,3.9-8.6,8.6-8.6L292.9,42 M292.9,38.4h-91.9c-6.7,0-12.2,5.5-12.2,12.2v25.9c0,6.7,5.5,12.2,12.2,12.2h91.9
		c6.7,0,12.2-5.5,12.2-12.2V50.7C305.1,43.9,299.7,38.4,292.9,38.4L292.9,38.4z"/>
	<line fill="none" stroke="#231F20" stroke-width="3" stroke-miterlimit="10" x1="301.6" y1="64.3" x2="380.3" y2="64.3"/>
	<polygon fill="#231F20" points="372.8,73.5 371.3,71.9 379.4,64.3 371.3,56.8 372.8,55.1 382.7,64.3 	"/>
</g>
<g id="step-3-in-out">
	<path id="border_3_" fill="#4081C3" d="M104.1,42c4.7,0,8.6,3.9,8.6,8.6v25.9c0,4.7-3.9,8.6-8.6,8.6H12.2c-4.7,0-8.6-3.9-8.6-8.6
		V50.7c0-4.7,3.9-8.6,8.6-8.6L104.1,42 M104.1,38.4H12.2C5.5,38.4,0,43.9,0,50.7v25.9c0,6.7,5.5,12.2,12.2,12.2h91.9
		c6.7,0,12.2-5.5,12.2-12.2V50.7C116.3,43.9,110.8,38.4,104.1,38.4L104.1,38.4z"/>
	<path fill="none" stroke="#231F20" stroke-width="3" stroke-miterlimit="10" d="M58.1,84.4v30.5c0,5.5,4.5,10,10,10h360.3
		c5.5,0,10-4.5,10-10v-28"/>
	<polygon fill="#231F20" points="447.7,94.3 446,95.9 438.5,87.8 430.9,95.9 429.3,94.3 438.5,84.4 	"/>
</g>
</svg>
