<?xml version="1.0" encoding="utf-8"?>
<!-- Generator: Adobe Illustrator 17.1.0, SVG Export Plug-In . SVG Version: 6.00 Build 0)  -->
<!DOCTYPE svg PUBLIC "-//W3C//DTD SVG 1.1//EN" "http://www.w3.org/Graphics/SVG/1.1/DTD/svg11.dtd">
<svg version="1.1" id="Layer_1" xmlns="http://www.w3.org/2000/svg" xmlns:xlink="http://www.w3.org/1999/xlink" x="0px" y="0px"
	 viewBox="-218 14 703 429" enable-background="new -218 14 703 429" xml:space="preserve">
<symbol  id="New_Symbol" viewBox="-73.4 -9.6 146.8 19.1">
	
		<use xlink:href="#arrow"  width="146.8" height="19.1" x="-73.4" y="-9.6" transform="matrix(1 0 0 1 1.955004e-04 -1.818989e-12)" overflow="visible"/>
</symbol>
<symbol  id="arrow" viewBox="-73.4 -9.6 146.8 19.1">
	<g>
		<path fill="#221F1F" d="M62.5,9c0.4,0,0.8-0.2,1.1-0.4l9.2-8.5l-9.6-8.9l-0.1,0.1c-0.2-0.1-0.4-0.1-0.6-0.1
			c-0.8,0-1.5,0.7-1.5,1.5c0,0.4,0.2,0.8,0.4,1.1l5.2,4.9h-138c-0.8,0-1.5,0.7-1.5,1.5s0.7,1.5,1.5,1.5h138L61,6.9L61.1,7
			c-0.1,0.2-0.2,0.5-0.2,0.7C61,8.3,61.7,9,62.5,9z"/>
		<path fill="#FFFFFF" d="M62.5-8.4c-0.6,0-1,0.4-1,1c0,0.3,0.1,0.5,0.3,0.7L67.9-1H-71.3c-0.6,0-1,0.4-1,1s0.4,1,1,1H68l-6.1,5.7
			l0,0c-0.2,0.2-0.4,0.4-0.4,0.7c0,0.6,0.4,1,1,1c0.3,0,0.5-0.1,0.7-0.3l0,0L72-0.1l-8.8-8.2l0,0C63-8.3,62.8-8.4,62.5-8.4
			 M63.1-9.6l0.7,0.7l8.8,8.2L73.4,0l-0.8,0.7l-8.8,8.2c-0.4,0.4-0.9,0.6-1.4,0.6c-1.1,0-2-0.9-2-2c0-0.2,0-0.4,0.1-0.6l-0.2-0.2
			L61,6l4.3-4H-71.4c-1.1,0-2-0.9-2-2s0.9-2,2-2H65.4l-4.3-4c-0.4-0.4-0.6-0.9-0.6-1.4c0-1.1,0.9-2,2-2c0.1,0,0.3,0,0.4,0L63.1-9.6
			L63.1-9.6z"/>
	</g>
</symbol>
<g id="boundary">
	<path fill="none" stroke="#E88F24" stroke-width="4" stroke-miterlimit="10" d="M-218,14v429h703V14H-218z"/>
</g>
<g id="base">
	<path d="M647.6,264.1H644v3.6h3.6V264.1z M647.6,257H644v3.6h3.6V257z M669,249.9h-35.7c0,0-3.6,0-3.6,3.6v42.8
		c0,3.6,3.6,3.6,3.6,3.6h7.1v7.1l5.4-5.4l5.4,5.4v-7.1H669c0,0,3.6-0.1,3.6-3.6v-42.8C672.6,249.9,669,249.9,669,249.9z M669,292.7
		c0,3.4-3.6,3.6-3.6,3.6h-14.3v-3.6h-10.7v3.6h-3.6c-3.6,0-3.6-3.6-3.6-3.6v-3.6H669V292.7z M669,285.5h-28.5v-32.1H669V285.5z
		 M647.6,278.4H644v3.6h3.6V278.4z M647.6,271.3H644v3.6h3.6V271.3z"/>
	<text transform="matrix(1 0 0 1 625.6602 354.5335)" fill="#221F1F" font-family="'HelveticaNeue-Light'" font-size="22.0153">Repo</text>
	<g id="border_4_">
		<path d="M688.9,224.5c9.6,0,17.5,7.9,17.5,17.5v71c0,9.6-7.9,17.5-17.5,17.5h-75.4c-9.6,0-17.5-7.9-17.5-17.5v-71
			c0-9.6,7.9-17.5,17.5-17.5H688.9 M688.9,223.7h-75.4c-10,0-18.2,8.3-18.2,18.2v71c0,10,8.3,18.2,18.2,18.2h75.4
			c10,0,18.2-8.3,18.2-18.2v-71C707.1,231.9,698.9,223.7,688.9,223.7L688.9,223.7z"/>
	</g>
</g>
<text transform="matrix(1.0483 0 0 1 602.9092 198.0791)" fill="#231F20" font-family="'ApexNew-Book'" font-size="11.7093">Clone</text>
<use xlink:href="#arrow"  width="146.8" height="19.1" x="-73.4" y="-9.6" transform="matrix(4.489659e-11 1 1 -4.489659e-11 137.6634 228.6665)" overflow="visible"/>
<use xlink:href="#arrow"  width="146.8" height="19.1" x="-73.4" y="-9.6" transform="matrix(-1.346898e-10 -1 -1 1.346898e-10 124.6634 228.6665)" overflow="visible"/>
<g>
	<path d="M130.1,57.1c-19.3,0-34.9,15.6-34.9,34.9c0,15.5,10,28.5,23.8,33.2c1.7,0.3,2.3-0.8,2.3-1.6c0-0.8,0-3.6,0-6.5
		c-9.7,2.1-11.7-4.1-11.7-4.1c-1.6-4.1-3.8-5.1-3.8-5.1c-3.1-2.2,0.2-2.1,0.2-2.1c3.5,0.2,5.4,3.6,5.4,3.6c3.1,5.4,8.1,3.8,10.1,2.9
		c0.3-2.2,1.2-3.8,2.2-4.7c-7.8-0.9-15.9-3.8-15.9-17.2c0-3.8,1.4-7,3.6-9.4c-0.3-0.9-1.5-4.4,0.3-9.2c0,0,2.9-0.9,9.7,3.6
		c2.8-0.8,5.8-1.2,8.7-1.2c2.9,0,5.9,0.3,8.7,1.2c6.6-4.5,9.5-3.6,9.5-3.6c1.9,4.8,0.7,8.4,0.3,9.2c2.2,2.4,3.6,5.6,3.6,9.4
		c0,13.4-8.1,16.4-15.9,17.2c1.3,1,2.3,3.3,2.3,6.5c0,4.7,0,8.4,0,9.5c0,0.9,0.6,2,2.4,1.6c13.8-4.7,23.8-17.7,23.8-33.2
		C165,72.8,149.4,57.1,130.1,57.1z"/>
	<g id="border_1_">
		<path d="M172.8,32.3c11.2,0,20.4,9.2,20.4,20.4v82.6c0,11.2-9.2,20.4-20.4,20.4H85.1c-11.2,0-20.4-9.2-20.4-20.4V52.7
			c0-11.2,9.2-20.4,20.4-20.4L172.8,32.3 M172.8,31.4H85.1c-11.6,0-21.2,9.7-21.2,21.2v82.6c0,11.6,9.7,21.2,21.2,21.2h87.7
			c11.6,0,21.2-9.7,21.2-21.2V52.6C194.1,40.9,184.4,31.4,172.8,31.4L172.8,31.4z"/>
	</g>
</g>
<g>
	<g>
		<g id="border_3_">
			<path d="M172.5,301.5c11.2,0,20.4,9.2,20.4,20.4v82.6c0,11.2-9.2,20.4-20.4,20.4H84.8c-11.2,0-20.4-9.2-20.4-20.4v-82.6
				c0-11.2,9.2-20.4,20.4-20.4H172.5 M172.5,300.6H84.8c-11.6,0-21.2,9.7-21.2,21.2v82.6c0,11.6,9.7,21.2,21.2,21.2h87.7
				c11.6,0,21.2-9.7,21.2-21.2v-82.6C193.7,310.1,184.2,300.6,172.5,300.6L172.5,300.6z"/>
		</g>
		<path d="M159.1,332.6c-4.4,0-61.1,0-61.1,0c-4.4,0-4.4,4.4-4.4,4.4v39.3c0,0,0,4.4,4.4,4.4h21.9c0,0-13.1,4.4-13.1,8.7
			c0,4.4,4.4,4.4,4.4,4.4h34.9c0,0,4.4,0,4.4-4.4s-13.1-8.7-13.1-8.7h21.9c4.4,0,4.4-4.4,4.4-4.4V337
			C163.6,337,163.6,332.6,159.1,332.6z M159.1,376.2H98.1v-39.3h61.1V376.2z M154.8,341.3h-13.1c-26.2,4.4-39.3,26.2-39.3,26.2v4.4
			h52.3v-30.6H154.8z"/>
	</g>
	<g>
		<circle cx="128.7" cy="419.3" r="19"/>
		<path fill="#FFFFFF" d="M127.2,414.3h-1.4v1.4h1.4V414.3z M127.2,411.5h-1.4v1.4h1.4V411.5z M135.8,408.7h-14.3c0,0-1.4,0-1.4,1.4
			v17.1c0,1.4,1.4,1.4,1.4,1.4h2.8v2.8l2.2-2.2l2.2,2.2v-2.8h7.1c0,0,1.4,0,1.4-1.4v-17.1C137.2,408.7,135.8,408.7,135.8,408.7z
			 M135.8,425.8c0,1.4-1.4,1.4-1.4,1.4h-5.7v-1.4h-4.3v1.4h-1.4c-1.4,0-1.4-1.4-1.4-1.4v-1.4h14.3V425.8z M135.8,422.9h-11.4v-12.8
			h11.4V422.9z M127.2,420.1h-1.4v1.4h1.4V420.1z M127.2,417.2h-1.4v1.4h1.4V417.2z"/>
	</g>
</g>
<g>
	<g>
		<g id="border_6_">
			<path d="M-102.2,25.9c11.2,0,20.4,9.2,20.4,20.4v82.6c0,11.2-9.2,20.4-20.4,20.4h-87.7c-11.2,0-20.4-9.2-20.4-20.4V46.3
				c0-11.2,9.2-20.4,20.4-20.4L-102.2,25.9 M-102.2,25h-87.7c-11.6,0-21.2,9.7-21.2,21.2v82.6c0,11.6,9.7,21.2,21.2,21.2h87.7
				c11.6,0,21.2-9.7,21.2-21.2V46.2C-81,34.6-90.5,25-102.2,25L-102.2,25z"/>
		</g>
		<path d="M-115.6,57c-4.4,0-61.1,0-61.1,0c-4.4,0-4.4,4.4-4.4,4.4v39.3c0,0,0,4.4,4.4,4.4h21.9c0,0-13.1,4.4-13.1,8.7
			c0,4.4,4.4,4.4,4.4,4.4h34.9c0,0,4.4,0,4.4-4.4s-13.1-8.7-13.1-8.7h21.9c4.4,0,4.4-4.4,4.4-4.4V61.4
			C-111.1,61.4-111.1,57-115.6,57z M-115.6,100.6h-61.1V61.3h61.1V100.6z M-119.9,65.7H-133c-26.2,4.4-39.3,26.2-39.3,26.2v4.4h52.3
			V65.7H-119.9z"/>
	</g>
	<g>
		<circle cx="-146" cy="143.7" r="19"/>
		<path fill="#FFFFFF" d="M-147.5,138.8h-1.4v1.4h1.4V138.8z M-147.5,135.9h-1.4v1.4h1.4V135.9z M-138.9,133.1h-14.3
			c0,0-1.4,0-1.4,1.4v17.1c0,1.4,1.4,1.4,1.4,1.4h2.8v2.8l2.2-2.2l2.2,2.2v-2.8h7.1c0,0,1.4,0,1.4-1.4v-17.1
			C-137.4,133.1-138.9,133.1-138.9,133.1z M-138.9,150.2c0,1.4-1.4,1.4-1.4,1.4h-5.7v-1.4h-4.3v1.4h-1.4c-1.4,0-1.4-1.4-1.4-1.4
			v-1.4h14.3V150.2z M-138.9,147.3h-11.4v-12.8h11.4V147.3z M-147.5,144.5h-1.4v1.4h1.4V144.5z M-147.5,141.7h-1.4v1.4h1.4V141.7z"
			/>
	</g>
</g>
<g>
	<g>
		<g id="border_5_">
			<path d="M447.4,25.9c11.2,0,20.4,9.2,20.4,20.4v82.6c0,11.2-9.2,20.4-20.4,20.4h-87.7c-11.2,0-20.4-9.2-20.4-20.4V46.3
				c0-11.2,9.2-20.4,20.4-20.4L447.4,25.9 M447.4,25h-87.7c-11.6,0-21.2,9.7-21.2,21.2v82.6c0,11.6,9.7,21.2,21.2,21.2h87.7
				c11.6,0,21.2-9.7,21.2-21.2V46.2C468.5,34.6,459,25,447.4,25L447.4,25z"/>
		</g>
		<path d="M434,57c-4.4,0-61.1,0-61.1,0c-4.4,0-4.4,4.4-4.4,4.4v39.3c0,0,0,4.4,4.4,4.4h21.9c0,0-13.1,4.4-13.1,8.7
			c0,4.4,4.4,4.4,4.4,4.4h34.9c0,0,4.4,0,4.4-4.4s-13.1-8.7-13.1-8.7h21.9c4.4,0,4.4-4.4,4.4-4.4V61.4C438.4,61.4,438.4,57,434,57z
			 M434,100.6h-61.1V61.3H434V100.6z M429.7,65.7h-13.1c-26.2,4.4-39.3,26.2-39.3,26.2v4.4h52.3V65.7H429.7z"/>
	</g>
	<g>
		<circle cx="403.5" cy="143.7" r="19"/>
		<path fill="#FFFFFF" d="M402.1,138.8h-1.4v1.4h1.4V138.8z M402.1,135.9h-1.4v1.4h1.4V135.9z M410.6,133.1h-14.3c0,0-1.4,0-1.4,1.4
			v17.1c0,1.4,1.4,1.4,1.4,1.4h2.8v2.8l2.2-2.2l2.2,2.2v-2.8h7.1c0,0,1.4,0,1.4-1.4v-17.1C412.1,133.1,410.6,133.1,410.6,133.1z
			 M410.6,150.2c0,1.4-1.4,1.4-1.4,1.4h-5.7v-1.4h-4.3v1.4h-1.4c-1.4,0-1.4-1.4-1.4-1.4v-1.4h14.3V150.2z M410.6,147.3h-11.4v-12.8
			h11.4V147.3z M402.1,144.5h-1.4v1.4h1.4V144.5z M402.1,141.7h-1.4v1.4h1.4V141.7z"/>
	</g>
</g>
<use xlink:href="#arrow"  width="146.8" height="19.1" x="-73.4" y="-9.6" transform="matrix(1 0 0 -1 681.3 132.5117)" overflow="visible"/>
<use xlink:href="#arrow"  width="146.8" height="19.1" x="-73.4" y="-9.6" transform="matrix(1 0 0 -1 267.37 98.8575)" overflow="visible"/>
<use xlink:href="#arrow"  width="146.8" height="19.1" x="-73.4" y="-9.6" transform="matrix(-1 0 0 1 267.37 84.8575)" overflow="visible"/>
<use xlink:href="#arrow"  width="146.8" height="19.1" x="-73.4" y="-9.6" transform="matrix(1 0 0 1 -7.6002 84.8575)" overflow="visible"/>
<use xlink:href="#arrow"  width="146.8" height="19.1" x="-73.4" y="-9.6" transform="matrix(-1 0 0 -1 -7.6002 98.8575)" overflow="visible"/>
<use xlink:href="#New_Symbol"  width="146.8" height="19.1" x="-73.4" y="-9.6" transform="matrix(1.1089 -1.1089 -0.7071 -0.7071 260.7939 221.3111)" overflow="visible"/>
<use xlink:href="#New_Symbol"  width="146.8" height="19.1" x="-73.4" y="-9.6" transform="matrix(-1.1089 1.1089 0.7071 0.7071 272.1901 231.2219)" overflow="visible"/>
<use xlink:href="#New_Symbol"  width="146.8" height="19.1" x="-73.4" y="-9.6" transform="matrix(-1.1089 -1.1089 0.7071 -0.7071 -6.1081 221.3111)" overflow="visible"/>
<use xlink:href="#New_Symbol"  width="146.8" height="19.1" x="-73.4" y="-9.6" transform="matrix(1.1089 1.1089 -0.7071 0.7071 -17.5043 231.2219)" overflow="visible"/>
</svg>
