<?xml version="1.0" encoding="utf-8"?>
<!-- Generator: Adobe Illustrator 17.0.2, SVG Export Plug-In . SVG Version: 6.00 Build 0)  -->
<!DOCTYPE svg PUBLIC "-//W3C//DTD SVG 1.1//EN" "http://www.w3.org/Graphics/SVG/1.1/DTD/svg11.dtd">
<svg version="1.1" id="Layer_1" xmlns="http://www.w3.org/2000/svg" xmlns:xlink="http://www.w3.org/1999/xlink" x="0px" y="0px"
	 width="304.073px" height="224.665px" viewBox="0 0 304.073 224.665" enable-background="new 0 0 304.073 224.665"
	 xml:space="preserve">
<symbol  id="Simple_Arrow_2_" viewBox="-29.55 -12.01 59.1 24.02">
	<g>
		
			<polygon fill="none" stroke="#FFFFFF" stroke-width="3" stroke-linecap="round" stroke-linejoin="round" stroke-miterlimit="10" points="
			19.254,7.683 17.89,6.218 24.035,0.506 -28.05,0.506 -28.05,-1.494 24.04,-1.494 17.89,-7.209 19.254,-8.674 28.05,-0.497 		"/>
		<polygon fill="#221F1F" points="19.254,7.683 17.89,6.218 24.035,0.506 -28.05,0.506 -28.05,-1.494 24.04,-1.494 17.89,-7.209 
			19.254,-8.674 28.05,-0.497 		"/>
	</g>
	<path fill="#221F1F" d="M-27.05-0.494c0-0.552-0.448-1-1-1s-1,0.448-1,1s0.448,1,1,1S-27.05,0.058-27.05-0.494z"/>
	<path fill="#221F1F" d="M19.254,7.683c0.391-0.391,0.391-1.024,0-1.414s-1.024-0.391-1.414,0s-0.391,1.024,0,1.414
		C18.23,8.074,18.863,8.074,19.254,7.683z"/>
	<path fill="#221F1F" d="M19.304-7.209c0.391-0.391,0.391-1.024,0-1.414c-0.391-0.391-1.024-0.391-1.414,0
		c-0.391,0.391-0.391,1.024,0,1.414S18.913-6.819,19.304-7.209z"/>
	<line display="none" fill="none" stroke="#EC388C" stroke-miterlimit="10" x1="-18.518" y1="12.01" x2="-18.518" y2="-12.01"/>
	<line display="none" fill="none" stroke="#EC388C" stroke-miterlimit="10" x1="10.232" y1="12.01" x2="10.232" y2="-12.01"/>
</symbol>
<g id="boundary">
	<rect x="0" y="0" fill="none" stroke="#F40000" stroke-miterlimit="10" width="304.073" height="224.665"/>
</g>
<g id="base">
	<g id="repo">
		<text transform="matrix(1 0 0 1 17.5866 52.1789)" font-family="'github-octicons'" font-size="30"></text>
		<path opacity="0.4" d="M48.486,17.183h-39.3c-3.724,0-6.753,3.029-6.753,6.753v36.648c0,3.724,3.029,6.753,6.753,6.753h39.3
			c3.724,0,6.753-3.03,6.753-6.753V23.936C55.238,20.212,52.209,17.183,48.486,17.183z M54.457,23.936v36.648
			c0,3.292-2.678,5.97-5.97,5.97h-39.3c-3.292,0-5.97-2.678-5.97-5.97V23.936c0-3.292,2.678-5.97,5.97-5.97h39.3
			C51.778,17.966,54.457,20.644,54.457,23.936z"/>
		<text transform="matrix(1.0483 0 0 1 6.8523 8.2232)" fill="#231F20" font-family="'ApexNew-Book'" font-size="7.3636">Blessed Repo</text>
	</g>
	<g id="owner">
		<text transform="matrix(1 0 0 1 153.953 50.707)" font-family="'github-octicons'" font-size="30"></text>
		<path opacity="0.4" d="M181.103,17.183h-39.3c-3.724,0-6.753,3.029-6.753,6.753v36.648c0,3.724,3.029,6.753,6.753,6.753h39.3
			c3.724,0,6.753-3.03,6.753-6.753V23.936C187.855,20.212,184.826,17.183,181.103,17.183z M187.073,23.936v36.648
			c0,3.292-2.678,5.97-5.97,5.97h-39.3c-3.292,0-5.97-2.678-5.97-5.97V23.936c0-3.292,2.678-5.97,5.97-5.97h39.3
			C184.395,17.966,187.073,20.644,187.073,23.936z"/>
		<text transform="matrix(1.0483 0 0 1 150.8277 8.223)" fill="#231F20" font-family="'ApexNew-Book'" font-size="7.3636">Owner</text>
	</g>
	<g>
		
			<use xlink:href="#Simple_Arrow_2_"  width="59.1" height="24.02" id="XMLID_2_" x="-29.55" y="-12.01" transform="matrix(1.4045 0 0 -1 96.5472 34.6631)" overflow="visible"/>
		
			<use xlink:href="#Simple_Arrow_2_"  width="59.1" height="24.02" id="XMLID_1_" x="-29.55" y="-12.01" transform="matrix(-1.4045 0 0 1 93.5472 49.8564)" overflow="visible" enable-background="new    "/>
	</g>
</g>
<g id="step-1">
	<g>
		<g>
			<g>
				<path fill="#FFFFFF" d="M81.739,180.425c0,0.564-0.161,1.127-0.478,1.542l-1.465,1.916c-0.291,0.381-0.679,0.584-1.076,0.563
					c-0.398-0.02-0.774-0.262-1.045-0.671l-3.116-4.71v12.798c0,1.164-0.672,2.107-1.5,2.107h-2c-0.828,0-1.5-0.943-1.5-2.107
					v-12.793l-3.113,4.704c-0.271,0.409-0.647,0.651-1.045,0.671c-0.398,0.02-0.785-0.183-1.076-0.563l-1.465-1.916
					c-0.606-0.793-0.64-2.125-0.076-2.977l8.18-12.354c0.284-0.429,0.682-0.672,1.099-0.672c0.417,0,0.815,0.244,1.098,0.672
					l8.177,12.354C81.606,179.397,81.739,179.911,81.739,180.425z M72.056,172.137c0.119-0.15,0.255-0.274,0.406-0.366l-0.401-0.605
					l-0.406,0.613C71.805,171.868,71.939,171.99,72.056,172.137z"/>
			</g>
			<polygon fill="#221F1F" points="63.882,180.425 65.347,182.341 71.059,173.71 71.059,191.864 73.059,191.864 73.059,173.703 
				78.774,182.341 80.239,180.425 72.062,168.071 			"/>
		</g>
		<g>
			<path fill="none" stroke="#221F1F" stroke-width="2" stroke-miterlimit="10" d="M25.861,67.554v127.661c0,5.5,4.5,10,10,10
				h26.199c5.5,0,10-4.5,10-10v-10.5"/>
		</g>
	</g>
	<g id="fork_1_">
		<g>
			<text transform="matrix(1 0 0 1 61.4439 154.0703)" font-family="'github-octicons'" font-size="30"></text>
		</g>
		<text transform="matrix(1.0483 0 0 1 64.5616 112.967)" fill="#231F20" font-family="'ApexNew-Book'" font-size="7.3636">Fork</text>
		<path opacity="0.4" d="M91.711,119.594h-39.3c-3.724,0-6.753,3.029-6.753,6.753v36.648c0,3.724,3.029,6.753,6.753,6.753h39.3
			c3.724,0,6.753-3.03,6.753-6.753v-36.648C98.463,122.623,95.433,119.594,91.711,119.594z M97.681,126.346v36.648
			c0,3.292-2.678,5.97-5.97,5.97h-39.3c-3.292,0-5.97-2.678-5.97-5.97v-36.648c0-3.292,2.678-5.97,5.97-5.97h39.3
			C95.003,120.377,97.681,123.055,97.681,126.346z"/>
		<g>
			<path opacity="0.4" d="M116.605,158.456H91.301c-2.397,0-4.348,1.95-4.348,4.348V186.4c0,2.397,1.95,4.348,4.348,4.348h25.303
				c2.397,0,4.348-1.951,4.348-4.348v-23.596C120.952,160.406,119.001,158.456,116.605,158.456z M120.449,162.804V186.4
				c0,2.12-1.724,3.844-3.844,3.844H91.301c-2.12,0-3.844-1.724-3.844-3.844v-23.596c0-2.119,1.724-3.844,3.844-3.844h25.303
				C118.724,158.96,120.449,160.685,120.449,162.804z"/>
			<path fill="#FFFFFF" d="M120.449,162.804V186.4c0,2.12-1.724,3.844-3.844,3.844H91.301c-2.12,0-3.844-1.724-3.844-3.844v-23.596
				c0-2.119,1.724-3.844,3.844-3.844h25.303C118.724,158.96,120.449,160.685,120.449,162.804z"/>
			<text transform="matrix(1 0 0 1 99.124 180.041)" font-family="'github-octicons'" font-size="19.3155"></text>
		</g>
	</g>
</g>
<g id="step-2">
	<g id="fork">
		<g>
			<text transform="matrix(1 0 0 1 241.4439 154.0703)" font-family="'github-octicons'" font-size="30"></text>
		</g>
		<text transform="matrix(1.0483 0 0 1 244.5616 112.967)" fill="#231F20" font-family="'ApexNew-Book'" font-size="7.3636">Fork</text>
		<path opacity="0.4" d="M271.711,119.594h-39.3c-3.724,0-6.753,3.029-6.753,6.753v36.648c0,3.724,3.029,6.753,6.753,6.753h39.3
			c3.724,0,6.753-3.03,6.753-6.753v-36.648C278.463,122.623,275.433,119.594,271.711,119.594z M277.681,126.346v36.648
			c0,3.292-2.678,5.97-5.97,5.97h-39.3c-3.292,0-5.97-2.678-5.97-5.97v-36.648c0-3.292,2.678-5.97,5.97-5.97h39.3
			C275.003,120.377,277.681,123.055,277.681,126.346z"/>
		<g>
			<path opacity="0.4" d="M296.605,158.456h-25.303c-2.397,0-4.348,1.95-4.348,4.348V186.4c0,2.397,1.95,4.348,4.348,4.348h25.303
				c2.397,0,4.348-1.951,4.348-4.348v-23.596C300.952,160.406,299.001,158.456,296.605,158.456z M300.449,162.804V186.4
				c0,2.12-1.724,3.844-3.844,3.844h-25.303c-2.12,0-3.844-1.724-3.844-3.844v-23.596c0-2.119,1.724-3.844,3.844-3.844h25.303
				C298.724,158.96,300.449,160.685,300.449,162.804z"/>
			<path fill="#FFFFFF" d="M300.449,162.804V186.4c0,2.12-1.724,3.844-3.844,3.844h-25.303c-2.12,0-3.844-1.724-3.844-3.844v-23.596
				c0-2.119,1.724-3.844,3.844-3.844h25.303C298.724,158.96,300.449,160.685,300.449,162.804z"/>
			<text transform="matrix(1 0 0 1 279.124 180.041)" font-family="'github-octicons'" font-size="19.3155"></text>
		</g>
	</g>
	<g>
		<g>
			<path fill="#FFFFFF" d="M261.739,181.208c0,0.564-0.161,1.127-0.478,1.542l-1.465,1.916c-0.291,0.381-0.679,0.584-1.076,0.563
				c-0.398-0.02-0.774-0.262-1.045-0.671l-3.116-4.71v22.798c0,1.164-0.672,2.107-1.5,2.107h-2c-0.828,0-1.5-0.943-1.5-2.107
				v-22.793l-3.113,4.704c-0.271,0.409-0.647,0.651-1.045,0.671c-0.398,0.02-0.785-0.183-1.076-0.563l-1.465-1.916
				c-0.606-0.793-0.64-2.125-0.076-2.977l8.18-12.354c0.284-0.429,0.682-0.672,1.099-0.672c0.417,0,0.815,0.244,1.098,0.672
				l8.177,12.354C261.606,180.18,261.739,180.695,261.739,181.208z M252.056,172.92c0.119-0.15,0.255-0.274,0.406-0.366
				l-0.401-0.605l-0.406,0.613C251.805,172.652,251.939,172.773,252.056,172.92z"/>
			<polygon fill="#221F1F" points="243.882,181.209 245.347,183.124 251.059,174.494 251.059,202.647 253.059,202.647 
				253.059,174.487 258.774,183.124 260.239,181.209 252.062,168.855 			"/>
			<path fill="#221F1F" d="M243.882,181.209c0.391-0.549,1.024-0.549,1.414,0c0.39,0.549,0.391,1.438,0,1.986
				c-0.391,0.548-1.024,0.549-1.414,0C243.491,182.647,243.491,181.758,243.882,181.209z"/>
			<path fill="#221F1F" d="M258.774,181.138c0.391-0.549,1.024-0.549,1.414,0c0.391,0.549,0.391,1.438,0,1.986
				c-0.391,0.549-1.024,0.549-1.414,0S258.384,181.688,258.774,181.138z"/>
			<g>
				<path fill="none" stroke="#221F1F" stroke-width="2" stroke-miterlimit="10" d="M11.861,67.337v140.661c0,5.5,4.5,10,10,10
					h220.199c5.5,0,10-4.5,10-10v-22.5"/>
			</g>
		</g>
	</g>
</g>
<g id="step-3_1_">
	
		<use xlink:href="#Simple_Arrow_2_"  width="59.1" height="24.02" id="XMLID_4_" x="-29.55" y="-12.01" transform="matrix(0.9931 -0.9931 0.7071 0.7071 124.7836 93.9955)" overflow="visible"/>
</g>
<g id="step-4_1_">
	
		<use xlink:href="#Simple_Arrow_2_"  width="59.1" height="24.02" id="arrow" x="-29.55" y="-12.01" transform="matrix(-0.9931 -0.9931 -0.7071 0.7071 198.4535 93.9955)" overflow="visible"/>
</g>
</svg>
