<?xml version="1.0" encoding="utf-8"?>
<!-- Generator: Adobe Illustrator 17.0.2, SVG Export Plug-In . SVG Version: 6.00 Build 0)  -->
<!DOCTYPE svg PUBLIC "-//W3C//DTD SVG 1.1//EN" "http://www.w3.org/Graphics/SVG/1.1/DTD/svg11.dtd">
<svg version="1.1" id="Layer_1" xmlns="http://www.w3.org/2000/svg" xmlns:xlink="http://www.w3.org/1999/xlink" x="0px" y="0px"
	 width="525.417px" height="273px" viewBox="0 0 525.417 273" enable-background="new 0 0 525.417 273" xml:space="preserve">
<g id="boundary">
	<path fill="none" d="M0,0v273h525.417V0H0z"/>
</g>
<g id="base">
	<g id="border_1_">
		<path fill="#414141" d="M158.051,67.341c6.065,0,11,4.935,11,11v36c0,6.065-4.935,11-11,11H30.283c-6.065,0-11-4.935-11-11v-36
			c0-6.065,4.935-11,11-11H158.051 M158.051,66.341H30.283c-6.6,0-12,5.4-12,12v36c0,6.6,5.4,12,12,12h127.768c6.6,0,12-5.4,12-12
			v-36C170.051,71.741,164.651,66.341,158.051,66.341L158.051,66.341z"/>
	</g>
	<text transform="matrix(1 0 0 1 66.9089 103.7521)" fill="#221F1F" font-family="'HelveticaNeue-Light'" font-size="27.7481">local</text>
	<path fill="#58595B" fill-opacity="0.5" d="M114.167,1.508c-2.857,0-40,0-40,0c-2.857,0-2.857,2.857-2.857,2.857v25.714
		c0,0,0,2.857,2.857,2.857h14.286c0,0-8.571,2.857-8.571,5.714s2.857,2.857,2.857,2.857h22.857c0,0,2.857,0,2.857-2.857
		s-8.571-5.714-8.571-5.714h14.286c2.857,0,2.857-2.857,2.857-2.857V4.365C117.024,4.365,117.024,1.508,114.167,1.508z
		 M114.167,30.079h-40V4.365h40V30.079z M111.31,7.222h-8.571c-17.143,2.857-25.714,17.143-25.714,17.143v2.857h34.286L111.31,7.222
		L111.31,7.222z"/>
	<g id="border_4_" opacity="0.3">
		<path fill="#414141" d="M164,51.508c12.131,0,22,9.869,22,22V245.75c0,12.131-9.869,22-22,22H25c-12.131,0-22-9.869-22-22V73.508
			c0-12.131,9.869-22,22-22L164,51.508 M164,50.508H25c-12.65,0-23,10.35-23,23V245.75c0,12.65,10.35,23,23,23h139
			c12.65,0,23-10.35,23-23V73.508C187,60.858,176.65,50.508,164,50.508L164,50.508z"/>
	</g>
</g>
<g id="step-1">
	<g id="border_6_">
		<path fill="#414141" d="M508.591,67.341c6.065,0,11,4.935,11,11v36c0,6.065-4.935,11-11,11H365.516c-6.065,0-11-4.935-11-11v-36
			c0-6.065,4.935-11,11-11H508.591 M508.591,66.341H365.516c-6.6,0-12,5.4-12,12v36c0,6.6,5.4,12,12,12h143.075c6.6,0,12-5.4,12-12
			v-36C520.591,71.741,515.191,66.341,508.591,66.341L508.591,66.341z"/>
	</g>
	<text transform="matrix(1 0 0 1 380.5223 103.7521)" fill="#221F1F" font-family="'HelveticaNeue-Light'" font-size="27.7481">upstream</text>
	<path fill="#58595B" fill-opacity="0.5" d="M437.772,1.508c-11.442,0-20.718,9.181-20.718,20.506
		c0,9.061,5.936,16.746,14.169,19.457c1.036,0.188,1.414-0.446,1.414-0.986c0-0.488-0.019-2.105-0.029-3.817
		c-5.761,1.239-6.979-2.418-6.979-2.418c-0.943-2.368-2.3-2.999-2.3-2.999c-1.883-1.272,0.143-1.247,0.143-1.247
		c2.08,0.143,3.175,2.113,3.175,2.113c1.849,3.134,4.851,2.228,6.029,1.702c0.188-1.322,0.724-2.228,1.315-2.738
		c-4.599-0.518-9.437-2.278-9.437-10.135c0-2.24,0.808-4.068,2.131-5.503c-0.211-0.521-0.924-2.607,0.205-5.429
		c0,0,1.737-0.551,5.698,2.103c1.651-0.457,3.423-0.682,5.185-0.69c1.76,0.008,3.533,0.235,5.187,0.692
		c3.953-2.656,5.693-2.103,5.693-2.103c1.133,2.825,0.42,4.909,0.207,5.427c1.328,1.436,2.129,3.263,2.129,5.503
		c0,7.877-4.846,9.612-9.461,10.12c0.746,0.636,1.406,1.882,1.406,3.795c0,2.741-0.028,4.951-0.028,5.627
		c0,0.546,0.377,1.184,1.426,0.984c8.227-2.716,14.158-10.4,14.158-19.457C458.49,10.689,449.214,1.508,437.772,1.508z"/>
</g>
<g id="step-2_1_">
	<g id="XMLID_5_">
		<g>
			<path fill="none" stroke="#FFFFFF" stroke-width="3" stroke-linecap="round" stroke-linejoin="round" stroke-miterlimit="10" d="
				M363.485,88.657L363.485,88.657l-1.364,1.465l6.145,5.713c0,0-6.46,0-14.829,0c-58.361,0-130.091,0-183.221,0
				c-6.368,0-10.879,0-10.879,0v2c0,0,4.512,0,10.879,0c53.128,0,124.856,0,183.221,0c8.372,0,14.834,0,14.834,0l-6.15,5.715
				l1.364,1.465l8.796-8.178C372.281,96.837,363.485,88.657,363.485,88.657L363.485,88.657z"/>
			<path fill="#221F1F" d="M363.485,88.657L363.485,88.657l-1.364,1.465l6.145,5.713c0,0-6.46,0-14.829,0
				c-58.361,0-130.091,0-183.221,0c-6.368,0-10.879,0-10.879,0v2c0,0,4.512,0,10.879,0c53.128,0,124.856,0,183.221,0
				c8.372,0,14.834,0,14.834,0l-6.15,5.715l1.364,1.465l8.796-8.178C372.281,96.837,363.485,88.657,363.485,88.657L363.485,88.657z"
				/>
		</g>
		<circle fill="#221F1F" cx="159.337" cy="96.835" r="1"/>
		<path fill="#221F1F" d="M363.485,88.657L363.485,88.657c0.391,0.391,0.391,1.024,0,1.414c-0.391,0.391-1.024,0.391-1.414,0
			c-0.391-0.391-0.391-1.024,0-1.414l0,0C362.461,88.267,363.094,88.267,363.485,88.657z"/>
		<path fill="#221F1F" d="M363.535,103.55c0.391,0.391,0.391,1.024,0,1.414c-0.018,0.018-0.036,0.035-0.054,0.051
			c-0.374,0.323-0.931,0.323-1.305,0c-0.019-0.016-0.037-0.033-0.054-0.051c-0.391-0.391-0.391-1.024,0-1.414
			C362.511,103.159,363.144,103.159,363.535,103.55z"/>
		<path display="none" fill="none" stroke="#ED358C" stroke-miterlimit="10" d="M168.869,84.331c0,0,0,1.76,0,4.327
			c0,4.695,0,12.092,0,16.357c0,2.018,0,3.335,0,3.335"/>
		<path display="none" fill="none" stroke="#ED358C" stroke-miterlimit="10" d="M354.463,84.331c0,0,0,1.76,0,4.327
			c0,4.695,0,12.092,0,16.357c0,2.018,0,3.335,0,3.335"/>
	</g>
	<text transform="matrix(1.0483 0 0 1 250.4707 86.3652)" fill="#231F20" font-family="'ApexNew-Book'" font-size="14">push</text>
	<g>
		<g opacity="0.4">
			<polygon fill="#FFFFFF" points="263.091,135.764 245.292,135.764 245.292,114.438 258.557,114.438 259.733,115.782 
				263.091,118.972 			"/>
			<path d="M255.921,118.399h-8.406v1.681h8.406V118.399z M259.283,113.355h-15.131v23.537h20.175v-18.494L259.283,113.355z
				 M262.645,135.211h-16.812v-20.175h11.769l5.044,5.044v15.131H262.645z M247.514,131.848h13.45v-1.681h-13.45L247.514,131.848
				L247.514,131.848z M247.514,128.486h13.45v-1.681h-13.45L247.514,128.486L247.514,128.486z M247.514,125.123h13.45v-1.681h-13.45
				L247.514,125.123L247.514,125.123z"/>
		</g>
		<g opacity="0.4">
			<polygon fill="#FFFFFF" points="284.901,125.689 267.102,125.689 267.102,104.363 280.367,104.363 281.542,105.707 
				284.901,108.897 			"/>
			<path d="M265.914,126.795v-23.537h15.131l5.044,5.044v18.494L265.914,126.795L265.914,126.795z M284.407,109.982l-5.044-5.044
				h-11.769v20.175h16.812v-15.131H284.407z M274.32,115.026h-5.044v-6.725h5.044V115.026z M272.639,109.982h-1.681v3.362h1.681
				V109.982z M272.639,121.751h1.681v1.681h-5.044v-1.681h1.681v-3.362h-1.681v-1.681h3.362v5.043H272.639z M279.364,113.345h1.681
				v1.681h-5.044v-1.681h1.681v-3.362h-1.681v-1.681h3.362v5.043H279.364z M281.045,123.432h-5.044v-6.725h5.044V123.432z
				 M279.364,118.388h-1.681v3.362h1.681V118.388z"/>
		</g>
	</g>
</g>
<g id="step-3">
	<g>
		<g>
			<g>
				<path fill="#FFFFFF" d="M390.303,225.588H167.43v-5h222.874c1.153,0,2.022,1.075,2.022,2.5S391.457,225.588,390.303,225.588z
					 M389.348,223.088c0.009,0.015,0.019,0.031,0.029,0.047l1.393-0.498l-1.358,0.359
					C389.385,223.028,389.364,223.06,389.348,223.088z"/>
			</g>
			<g>
				<path fill="#231F20" d="M390.304,222.088c0.288,0,0.522,0.448,0.522,1s-0.234,1-0.522,1H168.93c0-0.667,0-1.333,0-2H390.304z"/>
			</g>
		</g>
		<g>
			<g>
				<path fill="#FFFFFF" d="M442.272,174.642h-5v-61.371c0-1.642,1.882-1.642,2.5-1.642s2.5,0,2.5,1.642V174.642z"/>
			</g>
			<g>
				<path fill="#231F20" d="M440.772,113.271c0-0.078-0.448-0.141-1-0.141s-1,0.063-1,0.141v59.871c0.667,0,1.333,0,2,0V113.271z"/>
			</g>
		</g>
		<g>
			<g>
				<path fill="#FFFFFF" d="M389.826,225.588v-5c26.162,0,47.446-21.284,47.446-47.446h5
					C442.272,202.061,418.745,225.588,389.826,225.588z"/>
			</g>
			<g>
				<path fill="#231F20" d="M389.826,224.088v-2c26.989,0,48.946-21.957,48.946-48.946h2
					C440.772,201.233,417.918,224.088,389.826,224.088z"/>
			</g>
		</g>
		<g>
			<path fill="#231F20" d="M154.047,223.118l8.796-8.18c0.391-0.391,1.024-0.391,1.414,0c0.391,0.391,0.391,1.024,0,1.414
				c-0.018,0.018-0.041,0.024-0.06,0.04l0.01,0.011l-6.145,5.713h10.868c0,0.667,0,1.333,0,2h-10.873l6.15,5.715
				c0.391,0.391,0.391,1.024,0,1.414c-0.373,0.373-0.961,0.379-1.354,0.04l-0.01,0.011L154.047,223.118z"/>
		</g>
	</g>
	<g>
		<g opacity="0.4">
			<polygon fill="#FFFFFF" points="432.945,248.962 415.146,248.962 415.146,227.637 428.411,227.637 429.586,228.98 
				432.945,232.171 			"/>
			<path d="M425.774,231.597h-8.406v1.681h8.406V231.597z M429.136,226.553h-15.131v23.537h20.175v-18.494L429.136,226.553z
				 M432.499,248.41h-16.812v-20.175h11.769l5.044,5.044v15.131H432.499z M417.368,245.047h13.45v-1.681h-13.45V245.047z
				 M417.368,241.685h13.45v-1.681h-13.45V241.685z M417.368,238.322h13.45v-1.681h-13.45V238.322z"/>
		</g>
		<g opacity="0.4">
			<polygon fill="#FFFFFF" points="454.754,238.887 436.955,238.887 436.955,217.562 450.22,217.562 451.396,218.905 
				454.754,222.096 			"/>
			<path d="M435.767,239.993v-23.537h15.131l5.044,5.044v18.494h-20.175V239.993z M454.261,223.181l-5.044-5.044h-11.769v20.175
				h16.812v-15.131H454.261z M444.173,228.225h-5.044V221.5h5.044V228.225z M442.492,223.181h-1.681v3.362h1.681V223.181z
				 M442.492,234.949h1.681v1.681h-5.044v-1.681h1.681v-3.362h-1.681v-1.681h3.362v5.043H442.492z M449.217,226.543h1.681v1.681
				h-5.044v-1.681h1.681v-3.362h-1.681V221.5h3.362v5.043H449.217z M450.898,236.631h-5.044v-6.725h5.044V236.631z M449.217,231.587
				h-1.681v3.362h1.681V231.587z"/>
		</g>
	</g>
	<g id="remote">
		<g id="border_2_">
			<path fill="#414141" d="M158.051,194.674c6.065,0,11,4.935,11,11v36c0,6.065-4.935,11-11,11H30.283c-6.065,0-11-4.935-11-11v-36
				c0-6.065,4.935-11,11-11H158.051 M158.051,193.674H30.283c-6.6,0-12,5.4-12,12v36c0,6.6,5.4,12,12,12h127.768c6.6,0,12-5.4,12-12
				v-36C170.051,199.074,164.651,193.674,158.051,193.674L158.051,193.674z"/>
		</g>
		<text transform="matrix(1 0 0 1 45.3352 231.0855)" fill="#221F1F" font-family="'HelveticaNeue-Light'" font-size="27.7481">remotes</text>
	</g>
</g>
<g id="step-4-in-out">
	<text transform="matrix(1.0483 0 0 1 290.9092 212.645)" fill="#231F20" font-family="'ApexNew-Book'" font-size="14">pull</text>
	<g id="XMLID_1_">
		<g>
			<path fill="none" stroke="#FFFFFF" stroke-width="3" stroke-linecap="round" stroke-linejoin="round" stroke-miterlimit="10" d="
				M86.484,117.304L86.484,117.304l1.465,1.364l5.713-6.145c0,0,0,6.46,0,14.829c0,20.323,0,45.302,0,63.804
				c0,6.368,0,10.879,0,10.879h2c0,0,0-4.512,0-10.879c0-18.501,0-43.479,0-63.804c0-8.372,0-14.834,0-14.834l5.715,6.15
				l1.465-1.364l-8.178-8.796C94.664,108.508,86.484,117.304,86.484,117.304L86.484,117.304z"/>
			<path fill="#221F1F" d="M86.484,117.304L86.484,117.304l1.465,1.364l5.713-6.145c0,0,0,6.46,0,14.829c0,20.323,0,45.302,0,63.804
				c0,6.368,0,10.879,0,10.879h2c0,0,0-4.512,0-10.879c0-18.501,0-43.479,0-63.804c0-8.372,0-14.834,0-14.834l5.715,6.15
				l1.465-1.364l-8.178-8.796C94.664,108.508,86.484,117.304,86.484,117.304L86.484,117.304z"/>
		</g>
		<circle fill="#221F1F" cx="94.661" cy="202.035" r="1"/>
		<path fill="#221F1F" d="M86.484,117.304L86.484,117.304c0.391-0.391,1.024-0.391,1.414,0c0.391,0.391,0.391,1.024,0,1.414
			c-0.391,0.391-1.024,0.391-1.414,0l0,0C86.094,118.328,86.094,117.694,86.484,117.304z"/>
		<path fill="#221F1F" d="M101.377,117.254c0.391-0.391,1.024-0.391,1.414,0c0.018,0.018,0.035,0.036,0.051,0.054
			c0.323,0.374,0.323,0.931,0,1.305c-0.016,0.019-0.033,0.037-0.051,0.054c-0.391,0.391-1.024,0.391-1.414,0
			S100.986,117.644,101.377,117.254z"/>
		<path display="none" fill="none" stroke="#ED358C" stroke-miterlimit="10" d="M82.157,192.503c0,0,1.76,0,4.327,0
			c4.695,0,12.092,0,16.357,0c2.018,0,3.335,0,3.335,0"/>
		<path display="none" fill="none" stroke="#ED358C" stroke-miterlimit="10" d="M82.157,126.326c0,0,1.76,0,4.327,0
			c4.695,0,12.092,0,16.357,0c2.018,0,3.335,0,3.335,0"/>
	</g>
	<text transform="matrix(1.0483 0 0 1 105.0415 166.9785)" fill="#231F20" font-family="'ApexNew-Book'" font-size="14">merge</text>
</g>
<g id="step-5">
	<text transform="matrix(1.0483 0 0 1 290.9092 212.645)" fill="#231F20" font-family="'ApexNew-Book'" font-size="14">fetch</text>
</g>
</svg>
