<?xml version="1.0" encoding="utf-8"?>
<!-- Generator: Adobe Illustrator 17.1.0, SVG Export Plug-In . SVG Version: 6.00 Build 0)  -->
<!DOCTYPE svg PUBLIC "-//W3C//DTD SVG 1.1//EN" "http://www.w3.org/Graphics/SVG/1.1/DTD/svg11.dtd">
<svg version="1.1" id="Layer_2" xmlns="http://www.w3.org/2000/svg" xmlns:xlink="http://www.w3.org/1999/xlink" x="0px" y="0px"
	 viewBox="0 0 746.1 267.2" enable-background="new 0 0 746.1 267.2" xml:space="preserve">
<g id="boundary">
	<path id="shape" fill="none" stroke="#BE1E2D" stroke-width="4" stroke-miterlimit="10" d="M0,0v267.2h746.1V0H0z"/>
</g>
<g id="base">
	<g id="Template_1_">
		<line fill="none" stroke="#E6E6E6" stroke-miterlimit="10" x1="191.2" y1="194.1" x2="71.2" y2="194.1"/>
	</g>
	<path id="border_1_" fill="#414141" d="M178.8,141.4c6.1,0,11,4.9,11,11v96c0,6.1-4.9,11-11,11h-96c-6.1,0-11-4.9-11-11v-96
		c0-6.1,4.9-11,11-11L178.8,141.4 M178.8,140.4h-96c-6.6,0-12,5.4-12,12v96c0,6.6,5.4,12,12,12h96c6.6,0,12-5.4,12-12v-96
		C190.8,145.8,185.4,140.4,178.8,140.4L178.8,140.4z"/>
	<text transform="matrix(1 0 0 1 106.2428 178.6422)" fill="#221F1F" font-family="'HelveticaNeue-Light'" font-size="27.7481">3D5</text>
	<text transform="matrix(1 0 0 1 91.5437 216.8682)" fill="#221F1F" font-family="'ApexNew-Book'" font-size="12.9916">js/app.js</text>
	<circle fill="#73BD46" stroke="#FFFFFF" stroke-width="2" stroke-miterlimit="10" cx="83.5" cy="212.7" r="3.8"/>
	<text transform="matrix(1 0 0 1 91.5437 236.1182)" fill="#221F1F" font-family="'ApexNew-Book'" font-size="12.9916">placeholder</text>
	<circle fill="#B93226" stroke="#FFFFFF" stroke-width="2" stroke-miterlimit="10" cx="83.5" cy="231.9" r="3.8"/>
</g>
<g id="step-1">
	<text transform="matrix(1.0483 0 0 1 349.4434 173.1567)" fill="#BABCBE" font-family="'ApexNew-Book'" font-size="14">master</text>
	<g>
		<g id="Template_10_">
			<line fill="none" stroke="#E6E6E6" stroke-miterlimit="10" x1="339" y1="194.6" x2="219" y2="194.6"/>
		</g>
		<g id="border_19_">
			<path fill="#414141" d="M326.6,141.8c6.1,0,11,4.9,11,11v96c0,6.1-4.9,11-11,11h-96c-6.1,0-11-4.9-11-11v-96c0-6.1,4.9-11,11-11
				L326.6,141.8 M326.6,140.8h-96c-6.6,0-12,5.4-12,12v96c0,6.6,5.4,12,12,12h96c6.6,0,12-5.4,12-12v-96
				C338.6,146.2,333.2,140.8,326.6,140.8L326.6,140.8z"/>
		</g>
	</g>
	<text transform="matrix(1 0 0 1 255.8935 179.078)" fill="#221F1F" font-family="'HelveticaNeue-Light'" font-size="27.7481">671</text>
	<text transform="matrix(1 0 0 1 239.4048 217.304)" fill="#221F1F" font-family="'ApexNew-Book'" font-size="12.9916">js/app.js</text>
	<circle fill="#73BD46" stroke="#FFFFFF" stroke-width="2" stroke-miterlimit="10" cx="231.4" cy="213.1" r="3.8"/>
	<g>
		<g>
			
				<polygon fill="none" stroke="#FFFFFF" stroke-width="3" stroke-linecap="round" stroke-linejoin="round" stroke-miterlimit="10" points="
				227.8,161 226.4,162.4 232.6,168.2 180.5,168.2 180.5,170.2 232.6,170.2 226.4,175.9 227.8,177.3 236.6,169.2 			"/>
			<polygon fill="#221F1F" points="227.8,161 226.4,162.4 232.6,168.2 180.5,168.2 180.5,170.2 232.6,170.2 226.4,175.9 
				227.8,177.3 236.6,169.2 			"/>
		</g>
		<circle fill="#221F1F" cx="180.5" cy="169.2" r="1"/>
		<circle fill="#221F1F" cx="227.1" cy="161.7" r="1"/>
		<circle fill="#221F1F" cx="227.1" cy="176.6" r="1"/>
		<line display="none" fill="none" stroke="#ED358C" stroke-miterlimit="10" x1="190" y1="156.7" x2="190" y2="180.7"/>
		<line display="none" fill="none" stroke="#ED358C" stroke-miterlimit="10" x1="218.8" y1="156.7" x2="218.8" y2="180.7"/>
	</g>
	<circle fill="#73BD46" stroke="#FFFFFF" stroke-width="2" stroke-miterlimit="10" cx="231.4" cy="232.3" r="3.8"/>
	<text transform="matrix(1 0 0 1 239.4048 236.554)" fill="#221F1F" font-family="'ApexNew-Book'" font-size="12.9916">index.html</text>
</g>
<g id="step-1-in-out">
	<text transform="matrix(1.0483 0 0 1 485.0527 41.7051)" fill="#BABCBE" font-family="'ApexNew-Book'" font-size="14">feature</text>
	<g>
		<g id="Template_8_">
			<line fill="none" stroke="#E6E6E6" stroke-miterlimit="10" x1="325.9" y1="62" x2="205.9" y2="62"/>
		</g>
		<g id="border_16_">
			<path fill="#414141" d="M313.5,9.2c6.1,0,11,4.9,11,11v96c0,6.1-4.9,11-11,11h-96c-6.1,0-11-4.9-11-11v-96c0-6.1,4.9-11,11-11
				L313.5,9.2 M313.5,8.2h-96c-6.6,0-12,5.4-12,12v96c0,6.6,5.4,12,12,12h96c6.6,0,12-5.4,12-12v-96C325.5,13.6,320.1,8.2,313.5,8.2
				L313.5,8.2z"/>
		</g>
	</g>
	<text transform="matrix(1 0 0 1 241.7606 46.4603)" fill="#221F1F" font-family="'HelveticaNeue-Light'" font-size="27.7481">A92</text>
	<text transform="matrix(1 0 0 1 226.2983 84.6863)" fill="#221F1F" font-family="'ApexNew-Book'" font-size="12.9916">js/view/user.js</text>
	<circle fill="#73BD46" stroke="#FFFFFF" stroke-width="2" stroke-miterlimit="10" cx="218.3" cy="80.5" r="3.8"/>
	<text transform="matrix(1 0 0 1 226.2983 103.9363)" fill="#221F1F" font-family="'ApexNew-Book'" font-size="12.9916">team.jpg</text>
	<circle fill="#73BD46" stroke="#FFFFFF" stroke-width="2" stroke-miterlimit="10" cx="218.3" cy="99.7" r="3.8"/>
	<g>
		<g id="Template_6_">
			<line fill="none" stroke="#E6E6E6" stroke-miterlimit="10" x1="474.1" y1="61.8" x2="354.1" y2="61.8"/>
		</g>
		<g id="border_14_">
			<path fill="#414141" d="M461.7,9.1c6.1,0,11,4.9,11,11v96c0,6.1-4.9,11-11,11h-96c-6.1,0-11-4.9-11-11v-96c0-6.1,4.9-11,11-11
				L461.7,9.1 M461.7,8.1h-96c-6.6,0-12,5.4-12,12v96c0,6.6,5.4,12,12,12h96c6.6,0,12-5.4,12-12v-96C473.7,13.5,468.3,8.1,461.7,8.1
				L461.7,8.1z"/>
		</g>
	</g>
	<text transform="matrix(1 0 0 1 390.3972 46.332)" fill="#221F1F" font-family="'HelveticaNeue-Light'" font-size="27.7481">48E</text>
	<text transform="matrix(1 0 0 1 374.4217 84.5579)" fill="#221F1F" font-family="'ApexNew-Book'" font-size="12.9916">js/model/user.js</text>
	<circle fill="#73BD46" stroke="#FFFFFF" stroke-width="2" stroke-miterlimit="10" cx="366.4" cy="80.3" r="3.8"/>
	<text transform="matrix(1 0 0 1 374.4217 103.8079)" fill="#221F1F" font-family="'ApexNew-Book'" font-size="12.9916">about.html</text>
	<circle fill="#73BD46" stroke="#FFFFFF" stroke-width="2" stroke-miterlimit="10" cx="366.4" cy="99.6" r="3.8"/>
	<g id="XMLID_9_">
		<g>
			
				<polygon fill="none" stroke="#FFFFFF" stroke-width="3" stroke-linecap="round" stroke-linejoin="round" stroke-miterlimit="10" points="
				210.3,112.2 210.4,114.2 218.8,113.9 181.9,150.7 183.3,152.2 220.2,115.3 219.9,123.7 221.9,123.8 222.3,111.8 			"/>
			<polygon fill="#221F1F" points="210.3,112.2 210.4,114.2 218.8,113.9 181.9,150.7 183.3,152.2 220.2,115.3 219.9,123.7 
				221.9,123.8 222.3,111.8 			"/>
		</g>
		<circle fill="#221F1F" cx="182.6" cy="151.4" r="1"/>
		<circle fill="#221F1F" cx="210.3" cy="113.2" r="1"/>
		<circle fill="#221F1F" cx="220.9" cy="123.7" r="1"/>
		<line display="none" fill="none" stroke="#ED358C" stroke-miterlimit="10" x1="180.5" y1="135.9" x2="197.5" y2="152.8"/>
		<line display="none" fill="none" stroke="#ED358C" stroke-miterlimit="10" x1="200.9" y1="115.5" x2="217.8" y2="132.5"/>
	</g>
	<g>
		<g>
			
				<polygon fill="none" stroke="#FFFFFF" stroke-width="3" stroke-linecap="round" stroke-linejoin="round" stroke-miterlimit="10" points="
				363.1,29.1 361.8,30.6 367.9,36.3 315.8,36.3 315.8,38.3 367.9,38.3 361.8,44 363.1,45.5 371.9,37.3 			"/>
			<polygon fill="#221F1F" points="363.1,29.1 361.8,30.6 367.9,36.3 315.8,36.3 315.8,38.3 367.9,38.3 361.8,44 363.1,45.5 
				371.9,37.3 			"/>
		</g>
		<circle fill="#221F1F" cx="315.8" cy="37.3" r="1"/>
		<circle fill="#221F1F" cx="362.4" cy="29.8" r="1"/>
		<circle fill="#221F1F" cx="362.5" cy="44.7" r="1"/>
		<line display="none" fill="none" stroke="#ED358C" stroke-miterlimit="10" x1="325.4" y1="24.8" x2="325.4" y2="48.8"/>
		<line display="none" fill="none" stroke="#ED358C" stroke-miterlimit="10" x1="354.1" y1="24.8" x2="354.1" y2="48.8"/>
	</g>
</g>
<g id="step-3">
	<text transform="matrix(1.0483 0 0 1 630.8096 41.7051)" fill="#BABCBE" font-family="'ApexNew-Book'" font-size="14">feature</text>
	<g>
		<g id="Template_5_">
			<line fill="none" stroke="#E6E6E6" stroke-miterlimit="10" x1="471.7" y1="62" x2="351.7" y2="62"/>
		</g>
		<g id="border_12_">
			<path fill="#414141" d="M459.3,9.2c6.1,0,11,4.9,11,11v96c0,6.1-4.9,11-11,11h-96c-6.1,0-11-4.9-11-11v-96c0-6.1,4.9-11,11-11
				L459.3,9.2 M459.3,8.2h-96c-6.6,0-12,5.4-12,12v96c0,6.6,5.4,12,12,12h96c6.6,0,12-5.4,12-12v-96C471.3,13.6,465.9,8.2,459.3,8.2
				L459.3,8.2z"/>
		</g>
	</g>
	<text transform="matrix(1 0 0 1 387.5179 46.4603)" fill="#221F1F" font-family="'HelveticaNeue-Light'" font-size="27.7481">A92</text>
	<text transform="matrix(1 0 0 1 372.0557 84.6863)" fill="#221F1F" font-family="'ApexNew-Book'" font-size="12.9916">js/view/user.js</text>
	<circle fill="#73BD46" stroke="#FFFFFF" stroke-width="2" stroke-miterlimit="10" cx="364" cy="80.5" r="3.8"/>
	<text transform="matrix(1 0 0 1 372.0557 103.9363)" fill="#221F1F" font-family="'ApexNew-Book'" font-size="12.9916">team.jpg</text>
	<circle fill="#73BD46" stroke="#FFFFFF" stroke-width="2" stroke-miterlimit="10" cx="364" cy="99.7" r="3.8"/>
	<text transform="matrix(1 0 0 1 436.218 46.4603)" fill="#221F1F" font-family="'HelveticaNeue-Light'" font-size="27.7481">´</text>
	<text transform="matrix(1 0 0 1 585.718 45.332)" fill="#221F1F" font-family="'HelveticaNeue-Light'" font-size="27.7481">´</text>
	<g>
		<g id="Template_2_">
			<line fill="none" stroke="#E6E6E6" stroke-miterlimit="10" x1="619.8" y1="61.8" x2="499.8" y2="61.8"/>
		</g>
		<g id="border_10_">
			<path fill="#414141" d="M607.4,9.1c6.1,0,11,4.9,11,11v96c0,6.1-4.9,11-11,11h-96c-6.1,0-11-4.9-11-11v-96c0-6.1,4.9-11,11-11
				L607.4,9.1 M607.4,8.1h-96c-6.6,0-12,5.4-12,12v96c0,6.6,5.4,12,12,12h96c6.6,0,12-5.4,12-12v-96C619.4,13.5,614,8.1,607.4,8.1
				L607.4,8.1z"/>
		</g>
	</g>
	<text transform="matrix(1 0 0 1 536.1545 46.332)" fill="#221F1F" font-family="'HelveticaNeue-Light'" font-size="27.7481">48E</text>
	<text transform="matrix(1 0 0 1 520.179 84.5579)" fill="#221F1F" font-family="'ApexNew-Book'" font-size="12.9916">js/model/user.js</text>
	<circle fill="#73BD46" stroke="#FFFFFF" stroke-width="2" stroke-miterlimit="10" cx="512.2" cy="80.3" r="3.8"/>
	<text transform="matrix(1 0 0 1 520.179 103.8079)" fill="#221F1F" font-family="'ApexNew-Book'" font-size="12.9916">about.html</text>
	<circle fill="#73BD46" stroke="#FFFFFF" stroke-width="2" stroke-miterlimit="10" cx="512.2" cy="99.6" r="3.8"/>
	<g id="XMLID_1_">
		<g>
			
				<polygon fill="none" stroke="#FFFFFF" stroke-width="3" stroke-linecap="round" stroke-linejoin="round" stroke-miterlimit="10" points="
				356.1,112.2 356.1,114.2 364.5,113.9 327.7,150.7 329.1,152.2 365.9,115.3 365.6,123.7 367.6,123.8 368.1,111.8 			"/>
			<polygon fill="#221F1F" points="356.1,112.2 356.1,114.2 364.5,113.9 327.7,150.7 329.1,152.2 365.9,115.3 365.6,123.7 
				367.6,123.8 368.1,111.8 			"/>
		</g>
		<circle fill="#221F1F" cx="328.4" cy="151.4" r="1"/>
		<circle fill="#221F1F" cx="356.1" cy="113.2" r="1"/>
		<circle fill="#221F1F" cx="366.6" cy="123.7" r="1"/>
		<line display="none" fill="none" stroke="#ED358C" stroke-miterlimit="10" x1="326.3" y1="135.9" x2="343.3" y2="152.8"/>
		<line display="none" fill="none" stroke="#ED358C" stroke-miterlimit="10" x1="346.6" y1="115.5" x2="363.6" y2="132.5"/>
	</g>
	<g>
		<g>
			
				<polygon fill="none" stroke="#FFFFFF" stroke-width="3" stroke-linecap="round" stroke-linejoin="round" stroke-miterlimit="10" points="
				508.9,29.1 507.5,30.6 513.7,36.3 461.6,36.3 461.6,38.3 513.7,38.3 507.5,44 508.9,45.5 517.7,37.3 			"/>
			<polygon fill="#221F1F" points="508.9,29.1 507.5,30.6 513.7,36.3 461.6,36.3 461.6,38.3 513.7,38.3 507.5,44 508.9,45.5 
				517.7,37.3 			"/>
		</g>
		<circle fill="#221F1F" cx="461.6" cy="37.3" r="1"/>
		<circle fill="#221F1F" cx="508.2" cy="29.8" r="1"/>
		<circle fill="#221F1F" cx="508.2" cy="44.7" r="1"/>
		<line display="none" fill="none" stroke="#ED358C" stroke-miterlimit="10" x1="471.1" y1="24.8" x2="471.1" y2="48.8"/>
		<line display="none" fill="none" stroke="#ED358C" stroke-miterlimit="10" x1="499.9" y1="24.8" x2="499.9" y2="48.8"/>
	</g>
</g>
</svg>
