<?xml version="1.0" encoding="utf-8"?>
<!-- Generator: Adobe Illustrator 17.0.2, SVG Export Plug-In . SVG Version: 6.00 Build 0)  -->
<!DOCTYPE svg PUBLIC "-//W3C//DTD SVG 1.1//EN" "http://www.w3.org/Graphics/SVG/1.1/DTD/svg11.dtd">
<svg version="1.1" id="Layer_2" xmlns="http://www.w3.org/2000/svg" xmlns:xlink="http://www.w3.org/1999/xlink" x="0px" y="0px"
	 width="746.141px" height="267.242px" viewBox="0 0 746.141 267.242" enable-background="new 0 0 746.141 267.242"
	 xml:space="preserve">
<g id="boundary">
	<path fill="none" stroke="#008CFF" stroke-width="6" stroke-miterlimit="10" d="M0,0v267.242h746.14V0H0z"/>
</g>
<g id="base">
	<g id="XMLID_5_">
		<g id="Template_9_">
			<line fill="none" stroke="#E6E6E6" stroke-miterlimit="10" x1="137.833" y1="131.24" x2="17.833" y2="131.24"/>
		</g>
		<g id="border_18_">
			<path fill="#414141" d="M125.446,78.497c6.065,0,11,4.935,11,11v96c0,6.065-4.935,11-11,11h-96c-6.065,0-11-4.935-11-11v-96
				c0-6.065,4.935-11,11-11L125.446,78.497 M125.446,77.497h-96c-6.6,0-12,5.4-12,12v96c0,6.6,5.4,12,12,12h96c6.6,0,12-5.4,12-12
				v-96C137.446,82.896,132.047,77.497,125.446,77.497L125.446,77.497z"/>
		</g>
	</g>
	<g>
		<text transform="matrix(1 0 0 1 53.4149 115.7354)" fill="#221F1F" font-family="'HelveticaNeue-Light'" font-size="27.7481">F3B</text>
		<g>
			<text transform="matrix(1 0 0 1 38.2021 153.9613)" fill="#221F1F" font-family="'ApexNew-Book'" font-size="12.9916">README.md</text>
			<circle fill="#73BD46" stroke="#FFFFFF" stroke-width="2" stroke-miterlimit="10" cx="30.178" cy="149.747" r="3.75"/>
		</g>
		<g display="none">
			
				<text transform="matrix(1 0 0 1 38.2021 173.2113)" display="inline" fill="#221F1F" font-family="'ApexNew-Book'" font-size="12.9916">placeholder</text>
			
				<circle display="inline" fill="#B93226" stroke="#FFFFFF" stroke-width="2" stroke-miterlimit="10" cx="30.178" cy="168.997" r="3.75"/>
		</g>
	</g>
</g>
<g id="step-1-in-out_1_">
	<g id="XMLID_3_">
		<g>
			
				<polygon fill="none" stroke="#FFFFFF" stroke-width="3" stroke-linecap="round" stroke-linejoin="round" stroke-miterlimit="10" points="
				617.767,98.073 616.403,99.538 622.549,105.25 570.464,105.25 570.464,107.25 622.553,107.25 616.403,112.965 617.767,114.43 
				626.563,106.253 			"/>
			<polygon fill="#221F1F" points="617.767,98.073 616.403,99.538 622.549,105.25 570.464,105.25 570.464,107.25 622.553,107.25 
				616.403,112.965 617.767,114.43 626.563,106.253 			"/>
		</g>
		<circle fill="#221F1F" cx="570.464" cy="106.25" r="1"/>
		<circle fill="#221F1F" cx="617.06" cy="98.78" r="1"/>
		<circle fill="#221F1F" cx="617.11" cy="113.673" r="1"/>
		<line display="none" fill="none" stroke="#ED358C" stroke-miterlimit="10" x1="579.996" y1="93.746" x2="579.996" y2="117.766"/>
		<line display="none" fill="none" stroke="#ED358C" stroke-miterlimit="10" x1="608.746" y1="93.746" x2="608.746" y2="117.766"/>
	</g>
	<path fill="none" stroke="#221F1F" stroke-miterlimit="10" d="M430.67,207.118"/>
	<g>
		<g>
			<g id="Template_8_">
				<line fill="none" stroke="#E6E6E6" stroke-miterlimit="10" x1="285.694" y1="131.675" x2="165.694" y2="131.675"/>
			</g>
			<g id="border_16_">
				<path fill="#414141" d="M273.307,78.932c6.065,0,11,4.935,11,11v96c0,6.065-4.935,11-11,11h-96c-6.065,0-11-4.935-11-11v-96
					c0-6.065,4.935-11,11-11L273.307,78.932 M273.307,77.932h-96c-6.6,0-12,5.4-12,12v96c0,6.6,5.4,12,12,12h96c6.6,0,12-5.4,12-12
					v-96C285.307,83.332,279.907,77.932,273.307,77.932L273.307,77.932z"/>
			</g>
		</g>
		<g>
			<text transform="matrix(1 0 0 1 202.0388 116.1711)" fill="#221F1F" font-family="'HelveticaNeue-Light'" font-size="27.7481">48E</text>
			<g>
				<text transform="matrix(1 0 0 1 186.0633 154.3971)" fill="#221F1F" font-family="'ApexNew-Book'" font-size="12.9916">README.md</text>
				<circle fill="#BD2C00" stroke="#FFFFFF" stroke-width="2" stroke-miterlimit="10" cx="178.04" cy="150.183" r="3.75"/>
			</g>
			<g display="none">
				
					<text transform="matrix(1 0 0 1 186.0633 173.647)" display="inline" fill="#221F1F" font-family="'ApexNew-Book'" font-size="12.9916">index.html</text>
				
					<circle display="inline" fill="#73BD46" stroke="#FFFFFF" stroke-width="2" stroke-miterlimit="10" cx="178.04" cy="169.433" r="3.75"/>
			</g>
		</g>
	</g>
	<g>
		<g>
			<g id="Template_6_">
				<line fill="none" stroke="#E6E6E6" stroke-miterlimit="10" x1="433.003" y1="131.368" x2="313.003" y2="131.368"/>
			</g>
			<g id="border_14_">
				<path fill="#414141" d="M420.616,78.625c6.065,0,11,4.935,11,11v96c0,6.065-4.935,11-11,11h-96c-6.065,0-11-4.935-11-11v-96
					c0-6.065,4.935-11,11-11H420.616 M420.616,77.625h-96c-6.6,0-12,5.4-12,12v96c0,6.6,5.4,12,12,12h96c6.6,0,12-5.4,12-12v-96
					C432.616,83.024,427.216,77.625,420.616,77.625L420.616,77.625z"/>
			</g>
		</g>
		<g>
			<text transform="matrix(1 0 0 1 348.0713 115.8637)" fill="#221F1F" font-family="'HelveticaNeue-Light'" font-size="27.7481">62D</text>
			<text transform="matrix(1 0 0 1 333.3722 154.0896)" fill="#221F1F" font-family="'ApexNew-Book'" font-size="12.9916">script/setup</text>
			<circle fill="#73BD46" stroke="#FFFFFF" stroke-width="2" stroke-miterlimit="10" cx="325.349" cy="149.876" r="3.75"/>
			<g display="none">
				
					<text transform="matrix(1 0 0 1 333.3722 173.3396)" display="inline" fill="#221F1F" font-family="'ApexNew-Book'" font-size="12.9916">team.jpg</text>
				
					<circle display="inline" fill="#73BD46" stroke="#FFFFFF" stroke-width="2" stroke-miterlimit="10" cx="325.349" cy="169.126" r="3.75"/>
			</g>
		</g>
	</g>
	<g>
		<g>
			<g id="Template_5_">
				<line fill="none" stroke="#E6E6E6" stroke-miterlimit="10" x1="581.126" y1="131.24" x2="461.126" y2="131.24"/>
			</g>
			<g id="border_12_">
				<path fill="#414141" d="M568.739,78.497c6.065,0,11,4.935,11,11v96c0,6.065-4.935,11-11,11h-96c-6.065,0-11-4.935-11-11v-96
					c0-6.065,4.935-11,11-11L568.739,78.497 M568.739,77.497h-96c-6.6,0-12,5.4-12,12v96c0,6.6,5.4,12,12,12h96c6.6,0,12-5.4,12-12
					v-96C580.739,82.896,575.34,77.497,568.739,77.497L568.739,77.497z"/>
			</g>
		</g>
		<g>
			<text transform="matrix(1 0 0 1 496.9578 115.7353)" fill="#221F1F" font-family="'HelveticaNeue-Light'" font-size="27.7481">A11</text>
			<text transform="matrix(1 0 0 1 481.4955 153.9613)" fill="#221F1F" font-family="'ApexNew-Book'" font-size="12.9916">script/update</text>
			<circle fill="#73BD46" stroke="#FFFFFF" stroke-width="2" stroke-miterlimit="10" cx="473.472" cy="149.747" r="3.75"/>
			<g display="none">
				
					<text transform="matrix(1 0 0 1 481.4955 173.2113)" display="inline" fill="#221F1F" font-family="'ApexNew-Book'" font-size="12.9916">script/update</text>
				
					<circle display="inline" fill="#73BD46" stroke="#FFFFFF" stroke-width="2" stroke-miterlimit="10" cx="473.472" cy="168.997" r="3.75"/>
			</g>
		</g>
	</g>
	<g>
		<g>
			
				<polygon fill="none" stroke="#FFFFFF" stroke-width="3" stroke-linecap="round" stroke-linejoin="round" stroke-miterlimit="10" points="
				470.199,98.509 468.835,99.974 474.98,105.686 422.895,105.686 422.895,107.686 474.985,107.686 468.835,113.401 
				470.199,114.866 478.995,106.689 			"/>
			<polygon fill="#221F1F" points="470.199,98.509 468.835,99.974 474.98,105.686 422.895,105.686 422.895,107.686 474.985,107.686 
				468.835,113.401 470.199,114.866 478.995,106.689 			"/>
		</g>
		<circle fill="#221F1F" cx="422.895" cy="106.686" r="1"/>
		<circle fill="#221F1F" cx="469.492" cy="99.216" r="1"/>
		<circle fill="#221F1F" cx="469.542" cy="114.109" r="1"/>
		<line display="none" fill="none" stroke="#ED358C" stroke-miterlimit="10" x1="432.427" y1="94.182" x2="432.427" y2="118.202"/>
		<line display="none" fill="none" stroke="#ED358C" stroke-miterlimit="10" x1="461.177" y1="94.182" x2="461.177" y2="118.202"/>
	</g>
	<g id="XMLID_2_">
		<g>
			
				<polygon fill="none" stroke="#FFFFFF" stroke-width="3" stroke-linecap="round" stroke-linejoin="round" stroke-miterlimit="10" points="
				322.639,98.073 321.274,99.538 327.42,105.25 275.335,105.25 275.335,107.25 327.424,107.25 321.274,112.965 322.639,114.43 
				331.435,106.253 			"/>
			<polygon fill="#221F1F" points="322.639,98.073 321.274,99.538 327.42,105.25 275.335,105.25 275.335,107.25 327.424,107.25 
				321.274,112.965 322.639,114.43 331.435,106.253 			"/>
		</g>
		<circle fill="#221F1F" cx="275.335" cy="106.25" r="1"/>
		<circle fill="#221F1F" cx="321.931" cy="98.78" r="1"/>
		<circle fill="#221F1F" cx="321.981" cy="113.673" r="1"/>
		<line display="none" fill="none" stroke="#ED358C" stroke-miterlimit="10" x1="284.867" y1="93.746" x2="284.867" y2="117.766"/>
		<line display="none" fill="none" stroke="#ED358C" stroke-miterlimit="10" x1="313.617" y1="93.746" x2="313.617" y2="117.766"/>
	</g>
	<g id="XMLID_1_">
		<g>
			
				<polygon fill="none" stroke="#FFFFFF" stroke-width="3" stroke-linecap="round" stroke-linejoin="round" stroke-miterlimit="10" points="
				174.767,98.073 173.403,99.538 179.549,105.25 127.464,105.25 127.464,107.25 179.553,107.25 173.403,112.965 174.767,114.43 
				183.563,106.253 			"/>
			<polygon fill="#221F1F" points="174.767,98.073 173.403,99.538 179.549,105.25 127.464,105.25 127.464,107.25 179.553,107.25 
				173.403,112.965 174.767,114.43 183.563,106.253 			"/>
		</g>
		<circle fill="#221F1F" cx="127.464" cy="106.25" r="1"/>
		<circle fill="#221F1F" cx="174.06" cy="98.78" r="1"/>
		<circle fill="#221F1F" cx="174.11" cy="113.673" r="1"/>
		<line display="none" fill="none" stroke="#ED358C" stroke-miterlimit="10" x1="136.996" y1="93.746" x2="136.996" y2="117.766"/>
		<line display="none" fill="none" stroke="#ED358C" stroke-miterlimit="10" x1="165.746" y1="93.746" x2="165.746" y2="117.766"/>
	</g>
	<g>
		<g>
			<g id="Template_4_">
				<line fill="none" stroke="#E6E6E6" stroke-miterlimit="10" x1="728.695" y1="131.675" x2="608.695" y2="131.675"/>
			</g>
			<g id="border_8_">
				<path fill="#414141" d="M716.308,78.932c6.065,0,11,4.935,11,11v96c0,6.065-4.935,11-11,11h-96c-6.065,0-11-4.935-11-11v-96
					c0-6.065,4.935-11,11-11L716.308,78.932 M716.308,77.932h-96c-6.6,0-12,5.4-12,12v96c0,6.6,5.4,12,12,12h96c6.6,0,12-5.4,12-12
					v-96C728.308,83.332,722.908,77.932,716.308,77.932L716.308,77.932z"/>
			</g>
		</g>
		<g>
			<text transform="matrix(1 0 0 1 644.0125 116.1711)" fill="#221F1F" font-family="'HelveticaNeue-Light'" font-size="27.7481">B97</text>
			<g>
				<text transform="matrix(1 0 0 1 629.0633 154.3971)" fill="#221F1F" font-family="'ApexNew-Book'" font-size="12.9916">script/server</text>
				<circle fill="#73BD46" stroke="#FFFFFF" stroke-width="2" stroke-miterlimit="10" cx="621.04" cy="150.183" r="3.75"/>
			</g>
			<g display="none">
				
					<text transform="matrix(1 0 0 1 629.0633 173.647)" display="inline" fill="#221F1F" font-family="'ApexNew-Book'" font-size="12.9916">index.html</text>
				
					<circle display="inline" fill="#73BD46" stroke="#FFFFFF" stroke-width="2" stroke-miterlimit="10" cx="621.04" cy="169.433" r="3.75"/>
			</g>
		</g>
	</g>
</g>
<g id="step-2">
	<path fill="none" stroke="#221F1F" stroke-miterlimit="10" d="M430.67,207.118"/>
	
		<line fill="none" stroke="#E6E6E6" stroke-width="0.6" stroke-miterlimit="10" x1="261.617" y1="59.742" x2="189.617" y2="59.742"/>
	<path fill="#414141" d="M254.185,28.096c3.639,0,6.6,2.961,6.6,6.6v57.6c0,3.639-2.961,6.6-6.6,6.6h-57.6
		c-3.639,0-6.6-2.961-6.6-6.6v-57.6c0-3.639,2.961-6.6,6.6-6.6L254.185,28.096 M254.185,27.496h-57.6c-3.96,0-7.2,3.24-7.2,7.2v57.6
		c0,3.96,3.24,7.2,7.2,7.2h57.6c3.96,0,7.2-3.24,7.2-7.2v-57.6C261.385,30.736,258.145,27.496,254.185,27.496L254.185,27.496z"/>
	<text transform="matrix(1 0 0 1 211.4238 50.4397)" fill="#221F1F" font-family="'HelveticaNeue-Light'" font-size="16.6489">48E</text>
	<text transform="matrix(1 0 0 1 201.8383 73.3755)" fill="#221F1F" font-family="'ApexNew-Book'" font-size="7.795">README.md</text>
	<circle fill="#BD2C00" stroke="#FFFFFF" stroke-width="2" stroke-miterlimit="10" cx="197.024" cy="70.847" r="2.25"/>
	<text transform="matrix(1 0 0 1 201.8383 84.9253)" fill="#221F1F" font-family="'ApexNew-Book'" font-size="7.795">index.html</text>
	<circle fill="#73BD46" stroke="#FFFFFF" stroke-width="2" stroke-miterlimit="10" cx="197.024" cy="82.397" r="2.25"/>
	<line fill="none" stroke="#E6E6E6" stroke-miterlimit="10" x1="433.003" y1="131.368" x2="313.003" y2="131.368"/>
	<path fill="#414141" d="M420.616,78.625c6.065,0,11,4.935,11,11v96c0,6.065-4.935,11-11,11h-96c-6.065,0-11-4.935-11-11v-96
		c0-6.065,4.935-11,11-11H420.616 M420.616,77.625h-96c-6.6,0-12,5.4-12,12v96c0,6.6,5.4,12,12,12h96c6.6,0,12-5.4,12-12v-96
		C432.616,83.024,427.216,77.625,420.616,77.625L420.616,77.625z"/>
	<text transform="matrix(1 0 0 1 348.0713 115.8637)" fill="#221F1F" font-family="'HelveticaNeue-Light'" font-size="27.7481">62D</text>
	<text transform="matrix(1 0 0 1 333.3722 154.0896)" fill="#221F1F" font-family="'ApexNew-Book'" font-size="12.9916">script/setup</text>
	<circle fill="#73BD46" stroke="#FFFFFF" stroke-width="2" stroke-miterlimit="10" cx="325.349" cy="149.876" r="3.75"/>
	<text transform="matrix(1 0 0 1 333.3722 173.3396)" fill="#221F1F" font-family="'ApexNew-Book'" font-size="12.9916">script/update</text>
	<circle fill="#73BD46" stroke="#FFFFFF" stroke-width="2" stroke-miterlimit="10" cx="325.349" cy="169.126" r="3.75"/>
	
		<text id="Prime_2_" transform="matrix(1 0 0 1 399.5345 115.466)" fill="#221F1F" font-family="'HelveticaNeue-Light'" font-size="27.7481">´</text>
	
		<text id="Prime_1_" transform="matrix(1 0 0 1 696.2011 115.466)" fill="#221F1F" font-family="'HelveticaNeue-Light'" font-size="27.7481">´</text>
	<path fill="none" stroke="#FFFFFF" stroke-width="3" stroke-linecap="round" stroke-linejoin="round" stroke-miterlimit="10" d="
		M322.768,98.073L322.768,98.073l-1.364,1.465l6.145,5.713c0,0-6.46,0-14.829,0c-55.544,0-123.812,0-174.377,0
		c-6.368,0-10.879,0-10.879,0v2c0,0,4.512,0,10.879,0c50.563,0,118.829,0,174.377,0c8.372,0,14.834,0,14.834,0l-6.15,5.715
		l1.364,1.465l8.796-8.178C331.564,106.253,322.768,98.073,322.768,98.073L322.768,98.073z"/>
	<path fill="#221F1F" d="M322.768,98.073L322.768,98.073l-1.364,1.465l6.145,5.713c0,0-6.46,0-14.829,0
		c-55.544,0-123.812,0-174.377,0c-6.368,0-10.879,0-10.879,0v2c0,0,4.512,0,10.879,0c50.563,0,118.829,0,174.377,0
		c8.372,0,14.834,0,14.834,0l-6.15,5.715l1.364,1.465l8.796-8.178C331.564,106.253,322.768,98.073,322.768,98.073L322.768,98.073z"
		/>
	<path fill="none" stroke="#FFFFFF" stroke-width="3" stroke-linecap="round" stroke-linejoin="round" stroke-miterlimit="10" d="
		M617.768,98.509L617.768,98.509l-1.364,1.465l6.145,5.713c0,0-6.46,0-14.829,0c-55.406,0-123.505,0-173.944,0
		c-6.368,0-10.879,0-10.879,0v2c0,0,4.512,0,10.879,0c50.438,0,118.534,0,173.944,0c8.372,0,14.834,0,14.834,0l-6.15,5.715
		l1.364,1.465l8.796-8.178C626.564,106.689,617.768,98.509,617.768,98.509L617.768,98.509z"/>
	<path fill="#221F1F" d="M617.768,98.509L617.768,98.509l-1.364,1.465l6.145,5.713c0,0-6.46,0-14.829,0
		c-55.406,0-123.505,0-173.944,0c-6.368,0-10.879,0-10.879,0v2c0,0,4.512,0,10.879,0c50.438,0,118.534,0,173.944,0
		c8.372,0,14.834,0,14.834,0l-6.15,5.715l1.364,1.465l8.796-8.178C626.564,106.689,617.768,98.509,617.768,98.509L617.768,98.509z"
		/>
	<circle fill="#221F1F" cx="422.896" cy="106.686" r="1"/>
	<path fill="#221F1F" d="M617.768,98.509L617.768,98.509c0.391,0.391,0.391,1.024,0,1.414c-0.391,0.391-1.024,0.391-1.414,0
		c-0.391-0.391-0.391-1.024,0-1.414l0,0C616.744,98.118,617.377,98.118,617.768,98.509z"/>
	<path fill="#221F1F" d="M617.818,113.401c0.391,0.391,0.391,1.024,0,1.414c-0.018,0.018-0.036,0.035-0.054,0.051
		c-0.374,0.323-0.931,0.323-1.305,0c-0.019-0.016-0.037-0.033-0.054-0.051c-0.391-0.391-0.391-1.024,0-1.414
		C616.794,113.011,617.427,113.011,617.818,113.401z"/>
	<line fill="none" stroke="#E6E6E6" stroke-miterlimit="10" x1="728.695" y1="131.675" x2="608.695" y2="131.675"/>
	<path fill="#414141" d="M716.308,78.932c6.065,0,11,4.935,11,11v96c0,6.065-4.935,11-11,11h-96c-6.065,0-11-4.935-11-11v-96
		c0-6.065,4.935-11,11-11L716.308,78.932 M716.308,77.932h-96c-6.6,0-12,5.4-12,12v96c0,6.6,5.4,12,12,12h96c6.6,0,12-5.4,12-12v-96
		C728.308,83.332,722.908,77.932,716.308,77.932L716.308,77.932z"/>
	<text transform="matrix(1 0 0 1 644.0125 116.1711)" fill="#221F1F" font-family="'HelveticaNeue-Light'" font-size="27.7481">B97</text>
	<text transform="matrix(1 0 0 1 629.0633 154.3971)" fill="#221F1F" font-family="'ApexNew-Book'" font-size="12.9916">script/server</text>
	<circle fill="#73BD46" stroke="#FFFFFF" stroke-width="2" stroke-miterlimit="10" cx="621.04" cy="150.183" r="3.75"/>
</g>
</svg>
