<?xml version="1.0" encoding="utf-8"?>
<!-- Generator: Adobe Illustrator 17.0.2, SVG Export Plug-In . SVG Version: 6.00 Build 0)  -->
<!DOCTYPE svg PUBLIC "-//W3C//DTD SVG 1.1//EN" "http://www.w3.org/Graphics/SVG/1.1/DTD/svg11.dtd">
<svg version="1.1" id="Layer_2" xmlns="http://www.w3.org/2000/svg" xmlns:xlink="http://www.w3.org/1999/xlink" x="0px" y="0px"
	 width="746.14px" height="267.242px" viewBox="0 0 746.14 267.242" enable-background="new 0 0 746.14 267.242"
	 xml:space="preserve">
<g id="boundary">
	<path id="shape" fill="none" stroke="#BE1E2D" stroke-width="4" stroke-miterlimit="10" d="M0,0l0,267.242l746.14,0L746.14,0L0,0z"
		/>
</g>
<g id="base">
	<g id="Template_1_">
		<line fill="none" stroke="#E6E6E6" stroke-miterlimit="10" x1="191.174" y1="194.146" x2="71.174" y2="194.146"/>
	</g>
	<path id="border_1_" fill="#414141" d="M178.788,141.403c6.065,0,11,4.935,11,11v96c0,6.065-4.935,11-11,11h-96
		c-6.065,0-11-4.935-11-11v-96c0-6.065,4.935-11,11-11H178.788 M178.788,140.403h-96c-6.6,0-12,5.4-12,12v96c0,6.6,5.4,12,12,12h96
		c6.6,0,12-5.4,12-12v-96C190.788,145.803,185.388,140.403,178.788,140.403L178.788,140.403z"/>
	<text transform="matrix(1 0 0 1 106.2428 178.6422)" fill="#221F1F" font-family="'HelveticaNeue-Light'" font-size="27.7481">3D5</text>
	<text transform="matrix(1 0 0 1 91.5437 216.8682)" fill="#221F1F" font-family="'ApexNew-Book'" font-size="12.9916">js/app.js</text>
	<circle fill="#73BD46" stroke="#FFFFFF" stroke-width="2" stroke-miterlimit="10" cx="83.52" cy="212.654" r="3.75"/>
	<text transform="matrix(1 0 0 1 91.5437 236.1182)" fill="#221F1F" font-family="'ApexNew-Book'" font-size="12.9916">placeholder</text>
	<circle fill="#B93226" stroke="#FFFFFF" stroke-width="2" stroke-miterlimit="10" cx="83.52" cy="231.904" r="3.75"/>
</g>
<g id="step-1-in-out">
	<text transform="matrix(1.0483 0 0 1 485.0527 41.7051)" fill="#BABCBE" font-family="'ApexNew-Book'" font-size="14">feature</text>
	<g>
		<g id="Template_8_">
			<line fill="none" stroke="#E6E6E6" stroke-miterlimit="10" x1="325.929" y1="61.964" x2="205.929" y2="61.964"/>
		</g>
		<g id="border_16_">
			<path fill="#414141" d="M313.542,9.221c6.065,0,11,4.935,11,11v96c0,6.065-4.935,11-11,11h-96c-6.065,0-11-4.935-11-11v-96
				c0-6.065,4.935-11,11-11H313.542 M313.542,8.221h-96c-6.6,0-12,5.4-12,12v96c0,6.6,5.4,12,12,12h96c6.6,0,12-5.4,12-12v-96
				C325.542,13.621,320.143,8.221,313.542,8.221L313.542,8.221z"/>
		</g>
	</g>
	<text transform="matrix(1 0 0 1 241.7606 46.4603)" fill="#221F1F" font-family="'HelveticaNeue-Light'" font-size="27.7481">A92</text>
	<text transform="matrix(1 0 0 1 226.2983 84.6863)" fill="#221F1F" font-family="'ApexNew-Book'" font-size="12.9916">js/view/user.js</text>
	<circle fill="#73BD46" stroke="#FFFFFF" stroke-width="2" stroke-miterlimit="10" cx="218.275" cy="80.472" r="3.75"/>
	<text transform="matrix(1 0 0 1 226.2983 103.9363)" fill="#221F1F" font-family="'ApexNew-Book'" font-size="12.9916">team.jpg</text>
	<circle fill="#73BD46" stroke="#FFFFFF" stroke-width="2" stroke-miterlimit="10" cx="218.275" cy="99.722" r="3.75"/>
	<text transform="matrix(1 0 0 1 290.4606 46.4603)" fill="#221F1F" font-family="'HelveticaNeue-Light'" font-size="27.7481">´</text>
	<text transform="matrix(1 0 0 1 439.9606 45.332)" fill="#221F1F" font-family="'HelveticaNeue-Light'" font-size="27.7481">´</text>
	<g>
		<g id="Template_6_">
			<line fill="none" stroke="#E6E6E6" stroke-miterlimit="10" x1="474.053" y1="61.836" x2="354.053" y2="61.836"/>
		</g>
		<g id="border_14_">
			<path fill="#414141" d="M461.666,9.093c6.065,0,11,4.935,11,11v96c0,6.065-4.935,11-11,11h-96c-6.065,0-11-4.935-11-11v-96
				c0-6.065,4.935-11,11-11H461.666 M461.666,8.093h-96c-6.6,0-12,5.4-12,12v96c0,6.6,5.4,12,12,12h96c6.6,0,12-5.4,12-12v-96
				C473.666,13.493,468.266,8.093,461.666,8.093L461.666,8.093z"/>
		</g>
	</g>
	<text transform="matrix(1 0 0 1 390.3972 46.332)" fill="#221F1F" font-family="'HelveticaNeue-Light'" font-size="27.7481">48E</text>
	<text transform="matrix(1 0 0 1 374.4217 84.5579)" fill="#221F1F" font-family="'ApexNew-Book'" font-size="12.9916">js/model/user.js</text>
	<circle fill="#73BD46" stroke="#FFFFFF" stroke-width="2" stroke-miterlimit="10" cx="366.398" cy="80.344" r="3.75"/>
	<text transform="matrix(1 0 0 1 374.4217 103.8079)" fill="#221F1F" font-family="'ApexNew-Book'" font-size="12.9916">about.html</text>
	<circle fill="#73BD46" stroke="#FFFFFF" stroke-width="2" stroke-miterlimit="10" cx="366.398" cy="99.594" r="3.75"/>
	<g id="XMLID_9_">
		<g>
			
				<polygon fill="none" stroke="#FFFFFF" stroke-width="3" stroke-linecap="round" stroke-linejoin="round" stroke-miterlimit="10" points="
				210.294,112.215 210.365,114.216 218.75,113.91 181.92,150.739 183.334,152.153 220.167,115.32 219.86,123.71 221.86,123.782 
				222.297,111.779 			"/>
			<polygon fill="#221F1F" points="210.294,112.215 210.365,114.216 218.75,113.91 181.92,150.739 183.334,152.153 220.167,115.32 
				219.86,123.71 221.86,123.782 222.297,111.779 			"/>
		</g>
		<circle fill="#221F1F" cx="182.627" cy="151.446" r="1"/>
		<circle fill="#221F1F" cx="210.294" cy="113.215" r="1"/>
		<circle fill="#221F1F" cx="220.86" cy="123.71" r="1"/>
		<line display="none" fill="none" stroke="#ED358C" stroke-miterlimit="10" x1="180.526" y1="135.864" x2="197.51" y2="152.849"/>
		<line display="none" fill="none" stroke="#ED358C" stroke-miterlimit="10" x1="200.855" y1="115.535" x2="217.839" y2="132.519"/>
	</g>
	<g>
		<g>
			
				<polygon fill="none" stroke="#FFFFFF" stroke-width="3" stroke-linecap="round" stroke-linejoin="round" stroke-miterlimit="10" points="
				363.126,29.105 361.761,30.57 367.907,36.283 315.822,36.283 315.822,38.283 367.911,38.283 361.761,43.998 363.126,45.463 
				371.922,37.285 			"/>
			<polygon fill="#221F1F" points="363.126,29.105 361.761,30.57 367.907,36.283 315.822,36.283 315.822,38.283 367.911,38.283 
				361.761,43.998 363.126,45.463 371.922,37.285 			"/>
		</g>
		<circle fill="#221F1F" cx="315.822" cy="37.283" r="1"/>
		<circle fill="#221F1F" cx="362.418" cy="29.812" r="1"/>
		<circle fill="#221F1F" cx="362.468" cy="44.705" r="1"/>
		<line display="none" fill="none" stroke="#ED358C" stroke-miterlimit="10" x1="325.354" y1="24.779" x2="325.354" y2="48.798"/>
		<line display="none" fill="none" stroke="#ED358C" stroke-miterlimit="10" x1="354.104" y1="24.779" x2="354.104" y2="48.798"/>
	</g>
	<g id="master">
		<text transform="matrix(1.0483 0 0 1 349.4433 173.1569)" fill="#BABCBE" font-family="'ApexNew-Book'" font-size="14">master</text>
		<g>
			<g id="Template_9_">
				<line fill="none" stroke="#E6E6E6" stroke-miterlimit="10" x1="339.036" y1="194.582" x2="219.036" y2="194.582"/>
			</g>
			<g id="border_18_">
				<path fill="#414141" d="M326.649,141.838c6.065,0,11,4.935,11,11v96c0,6.065-4.935,11-11,11h-96c-6.065,0-11-4.935-11-11v-96
					c0-6.065,4.935-11,11-11H326.649 M326.649,140.838h-96c-6.6,0-12,5.4-12,12v96c0,6.6,5.4,12,12,12h96c6.6,0,12-5.4,12-12v-96
					C338.649,146.238,333.249,140.838,326.649,140.838L326.649,140.838z"/>
			</g>
		</g>
		<text transform="matrix(1 0 0 1 255.8935 179.078)" fill="#221F1F" font-family="'HelveticaNeue-Light'" font-size="27.7481">671</text>
		<text transform="matrix(1 0 0 1 239.4048 217.304)" fill="#221F1F" font-family="'ApexNew-Book'" font-size="12.9916">js/app.js</text>
		<circle fill="#73BD46" stroke="#FFFFFF" stroke-width="2" stroke-miterlimit="10" cx="231.381" cy="213.09" r="3.75"/>
		<g>
			<g>
				
					<polygon fill="none" stroke="#FFFFFF" stroke-width="3" stroke-linecap="round" stroke-linejoin="round" stroke-miterlimit="10" points="
					227.786,160.979 226.421,162.444 232.567,168.157 180.482,168.157 180.482,170.157 232.572,170.157 226.421,175.872 
					227.786,177.337 236.582,169.159 				"/>
				<polygon fill="#221F1F" points="227.786,160.979 226.421,162.444 232.567,168.157 180.482,168.157 180.482,170.157 
					232.572,170.157 226.421,175.872 227.786,177.337 236.582,169.159 				"/>
			</g>
			<circle fill="#221F1F" cx="180.482" cy="169.157" r="1"/>
			<circle fill="#221F1F" cx="227.079" cy="161.686" r="1"/>
			<circle fill="#221F1F" cx="227.129" cy="176.579" r="1"/>
			
				<line display="none" fill="none" stroke="#ED358C" stroke-miterlimit="10" x1="190.014" y1="156.653" x2="190.014" y2="180.672"/>
			
				<line display="none" fill="none" stroke="#ED358C" stroke-miterlimit="10" x1="218.764" y1="156.653" x2="218.764" y2="180.672"/>
		</g>
		<circle fill="#73BD46" stroke="#FFFFFF" stroke-width="2" stroke-miterlimit="10" cx="231.381" cy="232.34" r="3.75"/>
		<text transform="matrix(1 0 0 1 239.4048 236.554)" fill="#221F1F" font-family="'ApexNew-Book'" font-size="12.9916">index.html</text>
	</g>
</g>
<g id="step-3">
	<text transform="matrix(1.0483 0 0 1 630.8101 41.7051)" fill="#BABCBE" font-family="'ApexNew-Book'" font-size="14">feature</text>
	<g>
		<g id="Template_5_">
			<line fill="none" stroke="#E6E6E6" stroke-miterlimit="10" x1="471.687" y1="61.964" x2="351.687" y2="61.964"/>
		</g>
		<g id="border_12_">
			<path fill="#414141" d="M459.3,9.221c6.065,0,11,4.935,11,11v96c0,6.065-4.935,11-11,11h-96c-6.065,0-11-4.935-11-11v-96
				c0-6.065,4.935-11,11-11H459.3 M459.3,8.221h-96c-6.6,0-12,5.4-12,12v96c0,6.6,5.4,12,12,12h96c6.6,0,12-5.4,12-12v-96
				C471.3,13.621,465.9,8.221,459.3,8.221L459.3,8.221z"/>
		</g>
	</g>
	<text transform="matrix(1 0 0 1 387.5179 46.4603)" fill="#221F1F" font-family="'HelveticaNeue-Light'" font-size="27.7481">A92</text>
	<text transform="matrix(1 0 0 1 372.0557 84.6863)" fill="#221F1F" font-family="'ApexNew-Book'" font-size="12.9916">js/view/user.js</text>
	<circle fill="#73BD46" stroke="#FFFFFF" stroke-width="2" stroke-miterlimit="10" cx="364.032" cy="80.472" r="3.75"/>
	<text transform="matrix(1 0 0 1 372.0557 103.9363)" fill="#221F1F" font-family="'ApexNew-Book'" font-size="12.9916">team.jpg</text>
	<circle fill="#73BD46" stroke="#FFFFFF" stroke-width="2" stroke-miterlimit="10" cx="364.032" cy="99.722" r="3.75"/>
	<text transform="matrix(1 0 0 1 436.218 46.4603)" fill="#221F1F" font-family="'HelveticaNeue-Light'" font-size="27.7481">´</text>
	<text transform="matrix(1 0 0 1 585.718 45.332)" fill="#221F1F" font-family="'HelveticaNeue-Light'" font-size="27.7481">´</text>
	<g>
		<g id="Template_2_">
			<line fill="none" stroke="#E6E6E6" stroke-miterlimit="10" x1="619.81" y1="61.836" x2="499.81" y2="61.836"/>
		</g>
		<g id="border_10_">
			<path fill="#414141" d="M607.423,9.093c6.065,0,11,4.935,11,11v96c0,6.065-4.935,11-11,11h-96c-6.065,0-11-4.935-11-11v-96
				c0-6.065,4.935-11,11-11H607.423 M607.423,8.093h-96c-6.6,0-12,5.4-12,12v96c0,6.6,5.4,12,12,12h96c6.6,0,12-5.4,12-12v-96
				C619.423,13.493,614.023,8.093,607.423,8.093L607.423,8.093z"/>
		</g>
	</g>
	<text transform="matrix(1 0 0 1 536.1545 46.332)" fill="#221F1F" font-family="'HelveticaNeue-Light'" font-size="27.7481">48E</text>
	<text transform="matrix(1 0 0 1 520.179 84.5579)" fill="#221F1F" font-family="'ApexNew-Book'" font-size="12.9916">js/model/user.js</text>
	<circle fill="#73BD46" stroke="#FFFFFF" stroke-width="2" stroke-miterlimit="10" cx="512.155" cy="80.344" r="3.75"/>
	<text transform="matrix(1 0 0 1 520.179 103.8079)" fill="#221F1F" font-family="'ApexNew-Book'" font-size="12.9916">about.html</text>
	<circle fill="#73BD46" stroke="#FFFFFF" stroke-width="2" stroke-miterlimit="10" cx="512.155" cy="99.594" r="3.75"/>
	<g id="XMLID_1_">
		<g>
			
				<polygon fill="none" stroke="#FFFFFF" stroke-width="3" stroke-linecap="round" stroke-linejoin="round" stroke-miterlimit="10" points="
				356.051,112.215 356.122,114.216 364.507,113.91 327.677,150.739 329.091,152.153 365.924,115.32 365.617,123.71 
				367.617,123.782 368.055,111.779 			"/>
			<polygon fill="#221F1F" points="356.051,112.215 356.122,114.216 364.507,113.91 327.677,150.739 329.091,152.153 
				365.924,115.32 365.617,123.71 367.617,123.782 368.055,111.779 			"/>
		</g>
		<circle fill="#221F1F" cx="328.384" cy="151.446" r="1"/>
		<circle fill="#221F1F" cx="356.051" cy="113.215" r="1"/>
		<circle fill="#221F1F" cx="366.617" cy="123.71" r="1"/>
		<line display="none" fill="none" stroke="#ED358C" stroke-miterlimit="10" x1="326.283" y1="135.864" x2="343.267" y2="152.849"/>
		<line display="none" fill="none" stroke="#ED358C" stroke-miterlimit="10" x1="346.612" y1="115.535" x2="363.596" y2="132.519"/>
	</g>
	<g>
		<g>
			
				<polygon fill="none" stroke="#FFFFFF" stroke-width="3" stroke-linecap="round" stroke-linejoin="round" stroke-miterlimit="10" points="
				508.882,29.105 507.518,30.57 513.663,36.283 461.578,36.283 461.578,38.283 513.668,38.283 507.518,43.998 508.882,45.463 
				517.678,37.285 			"/>
			<polygon fill="#221F1F" points="508.882,29.105 507.518,30.57 513.663,36.283 461.578,36.283 461.578,38.283 513.668,38.283 
				507.518,43.998 508.882,45.463 517.678,37.285 			"/>
		</g>
		<circle fill="#221F1F" cx="461.578" cy="37.283" r="1"/>
		<circle fill="#221F1F" cx="508.175" cy="29.812" r="1"/>
		<circle fill="#221F1F" cx="508.225" cy="44.705" r="1"/>
		<line display="none" fill="none" stroke="#ED358C" stroke-miterlimit="10" x1="471.111" y1="24.779" x2="471.111" y2="48.798"/>
		<line display="none" fill="none" stroke="#ED358C" stroke-miterlimit="10" x1="499.861" y1="24.779" x2="499.861" y2="48.798"/>
	</g>
	<g id="master_1_">
		<text transform="matrix(1.0483 0 0 1 349.4433 173.1569)" fill="#BABCBE" font-family="'ApexNew-Book'" font-size="14">master</text>
		<g>
			<g id="Template_10_">
				<line fill="none" stroke="#E6E6E6" stroke-miterlimit="10" x1="339.036" y1="194.582" x2="219.036" y2="194.582"/>
			</g>
			<g id="border_19_">
				<path fill="#414141" d="M326.649,141.838c6.065,0,11,4.935,11,11v96c0,6.065-4.935,11-11,11h-96c-6.065,0-11-4.935-11-11v-96
					c0-6.065,4.935-11,11-11H326.649 M326.649,140.838h-96c-6.6,0-12,5.4-12,12v96c0,6.6,5.4,12,12,12h96c6.6,0,12-5.4,12-12v-96
					C338.649,146.238,333.249,140.838,326.649,140.838L326.649,140.838z"/>
			</g>
		</g>
		<text transform="matrix(1 0 0 1 255.8935 179.078)" fill="#221F1F" font-family="'HelveticaNeue-Light'" font-size="27.7481">671</text>
		<text transform="matrix(1 0 0 1 239.4048 217.304)" fill="#221F1F" font-family="'ApexNew-Book'" font-size="12.9916">js/app.js</text>
		<circle fill="#73BD46" stroke="#FFFFFF" stroke-width="2" stroke-miterlimit="10" cx="231.381" cy="213.09" r="3.75"/>
		<g>
			<g>
				
					<polygon fill="none" stroke="#FFFFFF" stroke-width="3" stroke-linecap="round" stroke-linejoin="round" stroke-miterlimit="10" points="
					227.786,160.979 226.421,162.444 232.567,168.157 180.482,168.157 180.482,170.157 232.572,170.157 226.421,175.872 
					227.786,177.337 236.582,169.159 				"/>
				<polygon fill="#221F1F" points="227.786,160.979 226.421,162.444 232.567,168.157 180.482,168.157 180.482,170.157 
					232.572,170.157 226.421,175.872 227.786,177.337 236.582,169.159 				"/>
			</g>
			<circle fill="#221F1F" cx="180.482" cy="169.157" r="1"/>
			<circle fill="#221F1F" cx="227.079" cy="161.686" r="1"/>
			<circle fill="#221F1F" cx="227.129" cy="176.579" r="1"/>
			
				<line display="none" fill="none" stroke="#ED358C" stroke-miterlimit="10" x1="190.014" y1="156.653" x2="190.014" y2="180.672"/>
			
				<line display="none" fill="none" stroke="#ED358C" stroke-miterlimit="10" x1="218.764" y1="156.653" x2="218.764" y2="180.672"/>
		</g>
		<circle fill="#73BD46" stroke="#FFFFFF" stroke-width="2" stroke-miterlimit="10" cx="231.381" cy="232.34" r="3.75"/>
		<text transform="matrix(1 0 0 1 239.4048 236.554)" fill="#221F1F" font-family="'ApexNew-Book'" font-size="12.9916">index.html</text>
	</g>
</g>
</svg>
