<?xml version="1.0" encoding="utf-8"?>
<!-- Generator: Adobe Illustrator 17.1.0, SVG Export Plug-In . SVG Version: 6.00 Build 0)  -->
<!DOCTYPE svg PUBLIC "-//W3C//DTD SVG 1.1//EN" "http://www.w3.org/Graphics/SVG/1.1/DTD/svg11.dtd">
<svg version="1.1" id="Layer_1" xmlns="http://www.w3.org/2000/svg" xmlns:xlink="http://www.w3.org/1999/xlink" x="0px" y="0px"
	 viewBox="27.1 181.7 429.8 118.8" enable-background="new 27.1 181.7 429.8 118.8" xml:space="preserve">
<g id="boundary">
	<path fill="none" stroke="#E88F24" stroke-width="4" stroke-miterlimit="10" d="M27.1,181.7v118.8h429.8V181.7H27.1z"/>
</g>
<g id="base">
	<g id="border_4_">
		<path d="M128,186.7c9.6,0,17.5,7.9,17.5,17.5v71c0,9.6-7.9,17.5-17.5,17.5H52.6c-9.6,0-17.5-7.9-17.5-17.5v-71
			c0-9.6,7.9-17.5,17.5-17.5L128,186.7 M128,185.9H52.6c-10,0-18.2,8.3-18.2,18.2v71c0,10,8.3,18.2,18.2,18.2H128
			c10,0,18.2-8.3,18.2-18.2v-71C146.2,194.1,138,185.9,128,185.9L128,185.9z"/>
	</g>
	<path d="M395,209c-16.6,0-30,13.4-30,30c0,13.3,8.6,24.5,20.5,28.5c1.5,0.3,2-0.7,2-1.4c0-0.7,0-3.1,0-5.6
		c-8.3,1.8-10.1-3.5-10.1-3.5c-1.4-3.5-3.3-4.4-3.3-4.4c-2.7-1.9,0.2-1.8,0.2-1.8c3,0.2,4.6,3.1,4.6,3.1c2.7,4.6,7,3.3,8.7,2.5
		c0.3-1.9,1-3.3,1.9-4c-6.7-0.8-13.7-3.3-13.7-14.8c0-3.3,1.2-6,3.1-8.1c-0.3-0.8-1.3-3.8,0.3-7.9c0,0,2.5-0.8,8.3,3.1
		c2.4-0.7,5-1,7.5-1s5.1,0.3,7.5,1c5.7-3.9,8.2-3.1,8.2-3.1c1.6,4.1,0.6,7.2,0.3,7.9c1.9,2.1,3.1,4.8,3.1,8.1
		c0,11.5-7,14.1-13.7,14.8c1.1,0.9,2,2.8,2,5.6c0,4,0,7.2,0,8.2c0,0.8,0.5,1.7,2.1,1.4c11.9-4,20.5-15.2,20.5-28.5
		C425,222.5,411.6,209,395,209z"/>
	<path d="M242.3,257.1H241v1.3h1.3V257.1z M242.3,254.6H241v1.3h1.3V254.6z M249.8,252h-12.6c0,0-1.3,0-1.3,1.3v15.1
		c0,1.3,1.3,1.3,1.3,1.3h2.5v2.5l1.9-1.9l1.9,1.9v-2.5h6.3c0,0,1.3-0.1,1.3-1.3v-15.1C251.1,252,249.8,252,249.8,252z M249.8,267.2
		c0,1.2-1.3,1.3-1.3,1.3h-5v-1.3h-3.8v1.3h-1.3c-1.3,0-1.3-1.3-1.3-1.3v-1.3h12.6L249.8,267.2L249.8,267.2z M249.8,264.6h-10.1
		v-11.3h10.1V264.6z M242.3,262.1H241v1.3h1.3V262.1z M242.3,259.6H241v1.3h1.3V259.6z"/>
	<g id="border_1_">
		<path d="M431.7,187.7c9.6,0,17.5,7.9,17.5,17.5v71c0,9.6-7.9,17.5-17.5,17.5h-75.4c-9.6,0-17.5-7.9-17.5-17.5v-71
			c0-9.6,7.9-17.5,17.5-17.5L431.7,187.7 M431.7,186.9h-75.4c-10,0-18.2,8.3-18.2,18.2v71c0,10,8.3,18.2,18.2,18.2h75.4
			c10,0,18.2-8.3,18.2-18.2v-71C450,195.1,441.7,186.9,431.7,186.9L431.7,186.9z"/>
	</g>
	<path d="M116.5,213.4c-3.8,0-52.5,0-52.5,0c-3.8,0-3.8,3.8-3.8,3.8V251c0,0,0,3.8,3.8,3.8h18.8c0,0-11.3,3.8-11.3,7.5
		c0,3.8,3.8,3.8,3.8,3.8h30c0,0,3.8,0,3.8-3.8s-11.3-7.5-11.3-7.5h18.8c3.8,0,3.8-3.8,3.8-3.8v-33.8
		C120.3,217.2,120.3,213.4,116.5,213.4z M116.5,250.9H64v-33.8h52.5V250.9z M112.8,220.9h-11.3c-22.5,3.8-33.8,22.5-33.8,22.5v3.8
		h45v-26.3H112.8z"/>
</g>
<g>
	<path fill="#221F1F" d="M151.5,252.7c-0.4,0-0.8-0.2-1.1-0.4l-9.2-8.5l9.6-8.9l0.1,0.1c0.2-0.1,0.4-0.1,0.6-0.1
		c0.8,0,1.5,0.7,1.5,1.5c0,0.4-0.2,0.8-0.4,1.1l-5.2,4.9h197c0.8,0,1.5,0.7,1.5,1.5s-0.7,1.5-1.5,1.5h-197l5.6,5.2l-0.1,0.1
		c0.1,0.2,0.2,0.5,0.2,0.7C153,252,152.3,252.7,151.5,252.7z"/>
	<path fill="#FFFFFF" d="M151.5,235.3c0.6,0,1,0.4,1,1c0,0.3-0.1,0.5-0.3,0.7l-6.1,5.7h198.2c0.6,0,1,0.4,1,1s-0.4,1-1,1H146
		l6.1,5.7l0,0c0.2,0.2,0.4,0.4,0.4,0.7c0,0.6-0.4,1-1,1c-0.3,0-0.5-0.1-0.7-0.3l0,0l-8.8-8.2l8.8-8.2l0,0
		C151,235.4,151.2,235.3,151.5,235.3 M150.9,234.1l-0.7,0.7l-8.8,8.2l-0.8,0.7l0.8,0.7l8.8,8.2c0.4,0.4,0.9,0.6,1.4,0.6
		c1.1,0,2-0.9,2-2c0-0.2,0-0.4-0.1-0.6l0.2-0.2l-0.7-0.7l-4.3-4h195.7c1.1,0,2-0.9,2-2s-0.9-2-2-2H148.6l4.3-4
		c0.4-0.4,0.6-0.9,0.6-1.4c0-1.1-0.9-2-2-2c-0.1,0-0.3,0-0.4,0L150.9,234.1L150.9,234.1z"/>
</g>
<text transform="matrix(1.0483 0 0 1 230.0029 232.3257)" fill="#231F20" font-family="'ApexNew-Book'" font-size="10.0653">Clone</text>
</svg>
