<?xml version="1.0" encoding="utf-8"?>
<!-- Generator: Adobe Illustrator 17.1.0, SVG Export Plug-In . SVG Version: 6.00 Build 0)  -->
<!DOCTYPE svg PUBLIC "-//W3C//DTD SVG 1.1//EN" "http://www.w3.org/Graphics/SVG/1.1/DTD/svg11.dtd">
<svg version="1.1" id="Layer_1" xmlns="http://www.w3.org/2000/svg" xmlns:xlink="http://www.w3.org/1999/xlink" x="0px" y="0px"
	 viewBox="27.1 362.6 500 138.2" enable-background="new 27.1 362.6 500 138.2" xml:space="preserve">
<g id="boundary">
	<path fill="none" stroke="#E88F24" stroke-width="4" stroke-miterlimit="10" d="M27.1,362.6v138.2h500V362.6H27.1z"/>
</g>
<g id="upstream">
	<path d="M455.1,394.4c-19.3,0-34.9,15.6-34.9,34.9c0,15.5,10,28.5,23.8,33.2c1.7,0.3,2.3-0.8,2.3-1.6s0-3.6,0-6.5
		c-9.7,2.1-11.7-4.1-11.7-4.1c-1.6-4.1-3.8-5.1-3.8-5.1c-3.1-2.2,0.2-2.1,0.2-2.1c3.5,0.2,5.4,3.6,5.4,3.6c3.1,5.4,8.1,3.8,10.1,2.9
		c0.3-2.2,1.2-3.8,2.2-4.7c-7.8-0.9-15.9-3.8-15.9-17.2c0-3.8,1.4-7,3.6-9.4c-0.3-0.9-1.5-4.4,0.3-9.2c0,0,2.9-0.9,9.7,3.6
		c2.8-0.8,5.8-1.2,8.7-1.2s5.9,0.3,8.7,1.2c6.6-4.5,9.5-3.6,9.5-3.6c1.9,4.8,0.7,8.4,0.3,9.2c2.2,2.4,3.6,5.6,3.6,9.4
		c0,13.4-8.1,16.4-15.9,17.2c1.3,1,2.3,3.3,2.3,6.5c0,4.7,0,8.4,0,9.5c0,0.9,0.6,2,2.4,1.6c13.8-4.7,23.8-17.7,23.8-33.2
		C490,410.1,474.4,394.4,455.1,394.4z"/>
	<g id="border_1_">
		<path d="M497.8,369.6c11.2,0,20.4,9.2,20.4,20.4v82.6c0,11.2-9.2,20.4-20.4,20.4h-87.7c-11.2,0-20.4-9.2-20.4-20.4v-82.6
			c0-11.2,9.2-20.4,20.4-20.4L497.8,369.6 M497.8,368.6h-87.7c-11.6,0-21.2,9.7-21.2,21.2v82.6c0,11.6,9.7,21.2,21.2,21.2h87.7
			c11.6,0,21.2-9.7,21.2-21.2v-82.6C519.1,378.2,509.4,368.6,497.8,368.6L497.8,368.6z"/>
	</g>
</g>
<g id="local">
	<g id="border_4_">
		<path d="M144.5,368.4c11.2,0,20.4,9.2,20.4,20.4v82.6c0,11.2-9.2,20.4-20.4,20.4H56.8c-11.2,0-20.4-9.2-20.4-20.4v-82.6
			c0-11.2,9.2-20.4,20.4-20.4L144.5,368.4 M144.5,367.5H56.8c-11.6,0-21.2,9.7-21.2,21.2v82.6c0,11.6,9.7,21.2,21.2,21.2h87.7
			c11.6,0,21.2-9.7,21.2-21.2v-82.6C165.7,377,156.1,367.5,144.5,367.5L144.5,367.5z"/>
	</g>
	<path d="M131.1,399.5c-4.4,0-61.1,0-61.1,0c-4.4,0-4.4,4.4-4.4,4.4v39.3c0,0,0,4.4,4.4,4.4h21.9c0,0-13.1,4.4-13.1,8.7
		c0,4.4,4.4,4.4,4.4,4.4h34.9c0,0,4.4,0,4.4-4.4c0-4.4-13.1-8.7-13.1-8.7h21.9c4.4,0,4.4-4.4,4.4-4.4v-39.3
		C135.5,403.9,135.5,399.5,131.1,399.5z M131.1,443.1H70v-39.3h61.1V443.1z M126.8,408.2h-13.1c-26.2,4.4-39.3,26.2-39.3,26.2v4.4
		h52.3v-30.6H126.8z"/>
</g>
<g id="clone">
	<path d="M277.4,450.3h-1.5v1.5h1.5V450.3z M277.4,447.4h-1.5v1.5h1.5V447.4z M286.2,444.4h-14.7c0,0-1.5,0-1.5,1.5v17.6
		c0,1.5,1.5,1.5,1.5,1.5h2.9v2.9l2.2-2.2l2.2,2.2V465h7.3c0,0,1.5-0.1,1.5-1.5v-17.6C287.7,444.4,286.2,444.4,286.2,444.4z
		 M286.2,462.1c0,1.4-1.5,1.5-1.5,1.5h-5.8v-1.5h-4.4v1.5h-1.5c-1.5,0-1.5-1.5-1.5-1.5v-1.5h14.7L286.2,462.1L286.2,462.1z
		 M286.2,459h-11.7v-13.1h11.7V459z M277.4,456.1h-1.5v1.5h1.5V456.1z M277.4,453.2h-1.5v1.5h1.5V453.2z"/>
	<g>
		<g>
			<path fill="#221F1F" d="M171.8,445.2c-0.5,0-0.9-0.2-1.3-0.5l-10.7-9.9l11.2-10.4l0.1,0.1c0.2-0.1,0.5-0.1,0.7-0.1
				c0.9,0,1.7,0.8,1.7,1.7c0,0.5-0.2,0.9-0.5,1.3l-6,5.7h229.2c0.9,0,1.7,0.8,1.7,1.7s-0.8,1.7-1.7,1.7H167l6.5,6l-0.1,0.1
				c0.1,0.2,0.2,0.6,0.2,0.8C173.6,444.4,172.7,445.2,171.8,445.2z"/>
			<path fill="#FFFFFF" d="M171.8,425c0.7,0,1.2,0.5,1.2,1.2c0,0.3-0.1,0.6-0.3,0.8l-7.1,6.6h230.6c0.7,0,1.2,0.5,1.2,1.2
				c0,0.7-0.5,1.2-1.2,1.2H165.4l7.1,6.6l0,0c0.2,0.2,0.5,0.5,0.5,0.8c0,0.7-0.5,1.2-1.2,1.2c-0.3,0-0.6-0.1-0.8-0.3l0,0l-10.2-9.5
				l10.2-9.5l0,0C171.2,425.1,171.5,425,171.8,425 M171.1,423.6l-0.8,0.8l-10.2,9.5l-0.9,0.8l0.9,0.8l10.2,9.5
				c0.5,0.5,1,0.7,1.6,0.7c1.3,0,2.3-1,2.3-2.3c0-0.2,0-0.5-0.1-0.7l0.2-0.2l-0.8-0.8l-5-4.7h227.7c1.3,0,2.3-1,2.3-2.3
				c0-1.3-1-2.3-2.3-2.3H168.4l5-4.7c0.5-0.5,0.7-1,0.7-1.6c0-1.3-1-2.3-2.3-2.3c-0.1,0-0.3,0-0.5,0L171.1,423.6L171.1,423.6z"/>
		</g>
		<text transform="matrix(1.0483 0 0 1 263.1436 421.4923)" fill="#231F20" font-family="'ApexNew-Book'" font-size="11.7093">Clone</text>
	</g>
</g>
</svg>
