<?xml version="1.0" encoding="utf-8"?>
<!-- Generator: Adobe Illustrator 17.0.2, SVG Export Plug-In . SVG Version: 6.00 Build 0)  -->
<!DOCTYPE svg PUBLIC "-//W3C//DTD SVG 1.1//EN" "http://www.w3.org/Graphics/SVG/1.1/DTD/svg11.dtd">
<svg version="1.1" id="Layer_1" xmlns="http://www.w3.org/2000/svg" xmlns:xlink="http://www.w3.org/1999/xlink" x="0px" y="0px"
	 width="675.162px" height="217.839px" viewBox="0 0 675.162 217.839" enable-background="new 0 0 675.162 217.839"
	 xml:space="preserve">
<g id="base">
	<g>
		<g id="XMLID_1_">
			<g id="Template_2_">
				<line fill="none" stroke="#E6E6E5" stroke-miterlimit="10" x1="138.189" y1="53.743" x2="0.387" y2="53.743"/>
			</g>
			<g id="border_1_">
				<path fill="#424242" d="M127.259,1c6.065,0,11,4.935,11,11v193.839c0,6.065-4.935,11-11,11H12c-6.065,0-11-4.935-11-11V12
					C1,5.935,5.935,1,12,1H127.259 M127.259,0H12C5.4,0,0,5.4,0,12v193.839c0,6.6,5.4,12,12,12h115.259c6.6,0,12-5.4,12-12V12
					C139.259,5.4,133.859,0,127.259,0L127.259,0z"/>
			</g>
		</g>
		<text transform="matrix(1 0 0 1 17.8386 38.2401)" fill="#221F1F" font-family="'HelveticaNeue-Light'" font-size="24">untracked</text>
	</g>
	<g>
		<g id="XMLID_2_">
			<g id="Template_1_">
				<line fill="none" stroke="#E6E6E5" stroke-miterlimit="10" x1="317.18" y1="53.743" x2="179.378" y2="53.743"/>
			</g>
			<g id="border_3_">
				<path fill="#424242" d="M306.25,1c6.065,0,11,4.935,11,11v193.839c0,6.065-4.935,11-11,11H190.991c-6.065,0-11-4.935-11-11V12
					c0-6.065,4.935-11,11-11H306.25 M306.25,0H190.991c-6.6,0-12,5.4-12,12v193.839c0,6.6,5.4,12,12,12H306.25c6.6,0,12-5.4,12-12
					V12C318.25,5.4,312.85,0,306.25,0L306.25,0z"/>
			</g>
		</g>
		<text transform="matrix(1 0 0 1 191.5137 38.2401)" fill="#221F1F" font-family="'HelveticaNeue-Light'" font-size="24">unmodified</text>
	</g>
	<g>
		<g id="XMLID_3_">
			<g id="Template_3_">
				<line fill="none" stroke="#E6E6E5" stroke-miterlimit="10" x1="496.171" y1="53.743" x2="358.369" y2="53.743"/>
			</g>
			<g id="border_7_">
				<path fill="#424242" d="M485.241,1c6.065,0,11,4.935,11,11v193.839c0,6.065-4.935,11-11,11H369.982c-6.065,0-11-4.935-11-11V12
					c0-6.065,4.935-11,11-11H485.241 M485.241,0H369.982c-6.6,0-12,5.4-12,12v193.839c0,6.6,5.4,12,12,12h115.259
					c6.6,0,12-5.4,12-12V12C497.241,5.4,491.841,0,485.241,0L485.241,0z"/>
			</g>
		</g>
		<text transform="matrix(1 0 0 1 383.3925 38.2401)" fill="#221F1F" font-family="'HelveticaNeue-Light'" font-size="24">modified</text>
	</g>
	<g>
		<g id="XMLID_4_">
			<g id="Template_4_">
				<line fill="none" stroke="#E6E6E5" stroke-miterlimit="10" x1="675.162" y1="53.743" x2="537.36" y2="53.743"/>
			</g>
			<g id="border_9_">
				<path fill="#424242" d="M664.232,1c6.065,0,11,4.935,11,11v193.839c0,6.065-4.935,11-11,11H548.973c-6.065,0-11-4.935-11-11V12
					c0-6.065,4.935-11,11-11H664.232 M664.232,0H548.973c-6.6,0-12,5.4-12,12v193.839c0,6.6,5.4,12,12,12h115.259
					c6.6,0,12-5.4,12-12V12C676.232,5.4,670.832,0,664.232,0L664.232,0z"/>
			</g>
		</g>
		<text transform="matrix(1 0 0 1 571.2634 38.2401)" fill="#221F1F" font-family="'HelveticaNeue-Light'" font-size="24">staged</text>
	</g>
</g>
<g id="boundary">
	<rect fill="none" stroke="#221F1F" stroke-width="4" stroke-miterlimit="10" width="675.162" height="217.839"/>
</g>
<g id="step-1-in-out">
	<g id="XMLID_5_">
		<g>
			<path fill="none" stroke="#FFFFFF" stroke-width="3" stroke-linecap="round" stroke-linejoin="round" stroke-miterlimit="10" d="
				M561.619,72.462L561.619,72.462l-1.364,1.465l6.145,5.713c0,0-6.46,0-14.829,0c-58.361,0-405.229,0-428.457,0
				c-2.784,0-4.756,0-4.756,0v2c0,0,1.973,0,4.756,0c23.227,0,370.092,0,428.457,0c8.372,0,14.834,0,14.834,0l-6.15,5.715
				l1.364,1.465l8.796-8.178C570.415,80.642,561.619,72.462,561.619,72.462L561.619,72.462z"/>
			<path fill="#221F1F" d="M561.619,72.462L561.619,72.462l-1.364,1.465l6.145,5.713c0,0-6.46,0-14.829,0
				c-58.361,0-405.229,0-428.457,0c-2.784,0-4.756,0-4.756,0v2c0,0,1.973,0,4.756,0c23.227,0,370.092,0,428.457,0
				c8.372,0,14.834,0,14.834,0l-6.15,5.715l1.364,1.465l8.796-8.178C570.415,80.642,561.619,72.462,561.619,72.462L561.619,72.462z"
				/>
		</g>
		<ellipse fill="#221F1F" cx="118.358" cy="80.64" rx="0.437" ry="1"/>
		<path fill="#221F1F" d="M561.619,72.462L561.619,72.462c0.391,0.391,0.391,1.024,0,1.414c-0.391,0.391-1.024,0.391-1.414,0
			c-0.391-0.391-0.391-1.024,0-1.414l0,0C560.595,72.072,561.228,72.072,561.619,72.462z"/>
		<path fill="#221F1F" d="M561.669,87.355c0.391,0.391,0.391,1.024,0,1.414c-0.018,0.018-0.036,0.035-0.054,0.051
			c-0.374,0.323-0.931,0.323-1.305,0c-0.019-0.016-0.037-0.033-0.054-0.051c-0.391-0.391-0.391-1.024,0-1.414
			C560.645,86.964,561.278,86.964,561.669,87.355z"/>
		<path display="none" fill="none" stroke="#EC388C" stroke-miterlimit="10" d="M68.248,68.136c0,0,0,1.76,0,4.327
			c0,4.695,0,12.092,0,16.357c0,2.018,0,3.335,0,3.335"/>
		<path display="none" fill="none" stroke="#EC388C" stroke-miterlimit="10" d="M253.842,68.136c0,0,0,1.76,0,4.327
			c0,4.695,0,12.092,0,16.357c0,2.018,0,3.335,0,3.335"/>
	</g>
	<text transform="matrix(1.0483 0 0 1 87.8183 84.8218)" fill="#231F20" font-family="'ApexNew-Book'" font-size="14">add</text>
	<g id="border_5_">
		<g>
			<path fill="#4081C3" d="M127.259,4c4.411,0,8,3.589,8,8v193.839c0,4.411-3.589,8-8,8H12c-4.411,0-8-3.589-8-8V12
				c0-4.411,3.589-8,8-8H127.259 M127.259,0H12C5.4,0,0,5.4,0,12v193.839c0,6.6,5.4,12,12,12h115.259c6.6,0,12-5.4,12-12V12
				C139.259,5.4,133.859,0,127.259,0L127.259,0z"/>
		</g>
	</g>
</g>
<g id="step-5-in-out">
	<g id="XMLID_9_">
		<g>
			<path fill="none" stroke="#FFFFFF" stroke-width="3" stroke-linecap="round" stroke-linejoin="round" stroke-miterlimit="10" d="
				M276.998,113.114l-8.796,8.18l8.796,8.178l1.364-1.465l-6.15-5.715c0,0,6.462,0,14.834,0c58.365,0,257.344,0,280.571,0
				c2.784,0,4.756,0,4.756,0v-2c0,0-1.972,0-4.756,0c-23.228,0-222.21,0-280.571,0c-8.369,0-14.829,0-14.829,0l6.145-5.713
				L276.998,113.114L276.998,113.114L276.998,113.114z"/>
			<path fill="#221F1F" d="M276.998,113.114l-8.796,8.18l8.796,8.178l1.364-1.465l-6.15-5.715c0,0,6.462,0,14.834,0
				c58.365,0,257.344,0,280.571,0c2.784,0,4.756,0,4.756,0v-2c0,0-1.972,0-4.756,0c-23.228,0-222.21,0-280.571,0
				c-8.369,0-14.829,0-14.829,0l6.145-5.713L276.998,113.114L276.998,113.114L276.998,113.114z"/>
		</g>
		<ellipse fill="#221F1F" cx="572.373" cy="121.292" rx="0.437" ry="1"/>
		<path fill="#221F1F" d="M278.412,113.114L278.412,113.114c0.391,0.39,0.391,1.023,0,1.414c-0.39,0.391-1.023,0.391-1.414,0
			c-0.391-0.39-0.391-1.023,0-1.414l0,0C277.389,112.724,278.022,112.724,278.412,113.114z"/>
		<path fill="#221F1F" d="M278.361,128.007c0.391,0.39,0.391,1.023,0,1.414c-0.017,0.018-0.035,0.035-0.054,0.051
			c-0.374,0.323-0.931,0.323-1.305,0c-0.018-0.016-0.036-0.033-0.054-0.051c-0.391-0.39-0.391-1.023,0-1.414
			C277.339,127.616,277.972,127.616,278.361,128.007z"/>
		<path display="none" fill="none" stroke="#EC388C" stroke-miterlimit="10" d="M959.214,132.807c0,0,0-1.317,0-3.335
			c0-4.265,0-11.662,0-16.357c0-2.567,0-4.327,0-4.327"/>
		<path display="none" fill="none" stroke="#EC388C" stroke-miterlimit="10" d="M773.62,132.807c0,0,0-1.317,0-3.335
			c0-4.265,0-11.662,0-16.357c0-2.567,0-4.327,0-4.327"/>
	</g>
	<text transform="matrix(1.0483 0 0 1 580.9062 125.4731)" fill="#231F20" font-family="'ApexNew-Book'" font-size="14">commit</text>
	<g id="border_12_">
		<g>
			<path fill="#4081C3" d="M663.891,4c4.411,0,8,3.589,8,8v193.839c0,4.411-3.589,8-8,8H548.632c-4.411,0-8-3.589-8-8V12
				c0-4.411,3.589-8,8-8H663.891 M663.891,0H548.632c-6.6,0-12,5.4-12,12v193.839c0,6.6,5.4,12,12,12h115.259c6.6,0,12-5.4,12-12V12
				C675.891,5.4,670.491,0,663.891,0L663.891,0z"/>
		</g>
	</g>
</g>
<g id="step-in-out_7_">
	<g id="border_2_">
		<g>
			<path fill="#4081C3" d="M305.18,4c4.411,0,8,3.589,8,8v193.839c0,4.411-3.589,8-8,8H189.921c-4.411,0-8-3.589-8-8V12
				c0-4.411,3.589-8,8-8H305.18 M305.18,0H189.921c-6.6,0-12,5.4-12,12v193.839c0,6.6,5.4,12,12,12H305.18c6.6,0,12-5.4,12-12V12
				C317.18,5.4,311.78,0,305.18,0L305.18,0z"/>
		</g>
	</g>
</g>
<g id="step-2-in-out">
	<g id="XMLID_6_">
		<g>
			<path fill="none" stroke="#FFFFFF" stroke-width="3" stroke-linecap="round" stroke-linejoin="round" stroke-miterlimit="10" d="
				M391.991,146.199L391.991,146.199l-1.364,1.465l6.145,5.713c0,0-6.46,0-14.829,0c-58.361,0-55.228,0-78.456,0
				c-2.784,0-4.756,0-4.756,0v2c0,0,1.973,0,4.756,0c23.227,0,20.091,0,78.456,0c8.372,0,14.834,0,14.834,0l-6.15,5.715l1.364,1.465
				l8.796-8.178L391.991,146.199L391.991,146.199z"/>
			<path fill="#221F1F" d="M391.991,146.199L391.991,146.199l-1.364,1.465l6.145,5.713c0,0-6.46,0-14.829,0
				c-58.361,0-55.228,0-78.456,0c-2.784,0-4.756,0-4.756,0v2c0,0,1.973,0,4.756,0c23.227,0,20.091,0,78.456,0
				c8.372,0,14.834,0,14.834,0l-6.15,5.715l1.364,1.465l8.796-8.178L391.991,146.199L391.991,146.199z"/>
		</g>
		<ellipse fill="#221F1F" cx="298.731" cy="154.377" rx="0.437" ry="1"/>
		<path fill="#221F1F" d="M391.991,146.199L391.991,146.199c0.391,0.391,0.391,1.024,0,1.414c-0.391,0.391-1.024,0.391-1.414,0
			c-0.391-0.391-0.391-1.024,0-1.414l0,0C390.967,145.809,391.6,145.809,391.991,146.199z"/>
		<path fill="#221F1F" d="M392.041,161.092c0.391,0.391,0.391,1.024,0,1.414c-0.018,0.018-0.036,0.035-0.054,0.051
			c-0.374,0.323-0.931,0.323-1.305,0c-0.019-0.016-0.037-0.033-0.054-0.051c-0.391-0.391-0.391-1.024,0-1.414
			C391.017,160.701,391.65,160.701,392.041,161.092z"/>
		<path display="none" fill="none" stroke="#EC388C" stroke-miterlimit="10" d="M248.621,141.873c0,0,0,1.76,0,4.327
			c0,4.695,0,12.092,0,16.357c0,2.018,0,3.335,0,3.335"/>
		<path display="none" fill="none" stroke="#EC388C" stroke-miterlimit="10" d="M434.215,141.873c0,0,0,1.76,0,4.327
			c0,4.695,0,12.092,0,16.357c0,2.018,0,3.335,0,3.335"/>
	</g>
	<text transform="matrix(1.0483 0 0 1 266.7969 158.5586)" fill="#231F20" font-family="'ApexNew-Book'" font-size="14">edit</text>
	<g id="border_4_">
		<g>
			<path fill="#4081C3" d="M305.18,4c4.411,0,8,3.589,8,8v193.839c0,4.411-3.589,8-8,8H189.921c-4.411,0-8-3.589-8-8V12
				c0-4.411,3.589-8,8-8H305.18 M305.18,0H189.921c-6.6,0-12,5.4-12,12v193.839c0,6.6,5.4,12,12,12H305.18c6.6,0,12-5.4,12-12V12
				C317.18,5.4,311.78,0,305.18,0L305.18,0z"/>
		</g>
	</g>
</g>
<g id="step-in-out_2_">
	<g id="border_16_">
		<g>
			<path fill="#4081C3" d="M484.899,4c4.411,0,8,3.589,8,8v193.839c0,4.411-3.589,8-8,8H369.641c-4.411,0-8-3.589-8-8V12
				c0-4.411,3.589-8,8-8H484.899 M484.899,0H369.641c-6.6,0-12,5.4-12,12v193.839c0,6.6,5.4,12,12,12H484.9c6.6,0,12-5.4,12-12V12
				C496.899,5.4,491.499,0,484.899,0L484.899,0z"/>
		</g>
	</g>
	<g id="add">
		<g id="XMLID_7_">
			<g>
				
					<path fill="none" stroke="#FFFFFF" stroke-width="3" stroke-linecap="round" stroke-linejoin="round" stroke-miterlimit="10" d="
					M561.589,171.197L561.589,171.197l-1.364,1.465l6.145,5.713c0,0-6.46,0-14.829,0c-58.361,0-48.298,0-71.526,0
					c-2.784,0-4.756,0-4.756,0v2c0,0,1.973,0,4.756,0c23.227,0,13.161,0,71.526,0c8.372,0,14.834,0,14.834,0l-6.15,5.715
					l1.364,1.465l8.796-8.178L561.589,171.197L561.589,171.197z"/>
				<path fill="#221F1F" d="M561.589,171.197L561.589,171.197l-1.364,1.465l6.145,5.713c0,0-6.46,0-14.829,0
					c-58.361,0-48.298,0-71.526,0c-2.784,0-4.756,0-4.756,0v2c0,0,1.973,0,4.756,0c23.227,0,13.161,0,71.526,0
					c8.372,0,14.834,0,14.834,0l-6.15,5.715l1.364,1.465l8.796-8.178L561.589,171.197L561.589,171.197z"/>
			</g>
			<ellipse fill="#221F1F" cx="475.258" cy="179.375" rx="0.437" ry="1"/>
			<path fill="#221F1F" d="M561.589,171.197L561.589,171.197c0.391,0.391,0.391,1.024,0,1.414c-0.391,0.391-1.024,0.391-1.414,0
				c-0.391-0.391-0.391-1.024,0-1.414l0,0C560.565,170.807,561.198,170.807,561.589,171.197z"/>
			<path fill="#221F1F" d="M561.639,186.09c0.391,0.391,0.391,1.024,0,1.414c-0.018,0.018-0.036,0.035-0.054,0.051
				c-0.374,0.323-0.931,0.323-1.305,0c-0.019-0.016-0.037-0.033-0.054-0.051c-0.391-0.391-0.391-1.024,0-1.414
				C560.615,185.699,561.248,185.699,561.639,186.09z"/>
			<path display="none" fill="none" stroke="#EC388C" stroke-miterlimit="10" d="M425.149,166.871c0,0,0,1.76,0,4.327
				c0,4.695,0,12.092,0,16.357c0,2.018,0,3.335,0,3.335"/>
			<path display="none" fill="none" stroke="#EC388C" stroke-miterlimit="10" d="M610.743,166.871c0,0,0,1.76,0,4.327
				c0,4.695,0,12.092,0,16.357c0,2.018,0,3.335,0,3.335"/>
		</g>
		<text transform="matrix(1.0483 0 0 1 444.7188 183.5566)" fill="#231F20" font-family="'ApexNew-Book'" font-size="14">add</text>
	</g>
</g>
<g id="step-in-out_3_">
	<g id="border_18_">
		<g>
			<path fill="#4081C3" d="M663.891,4c4.411,0,8,3.589,8,8v193.839c0,4.411-3.589,8-8,8H548.631c-4.411,0-8-3.589-8-8V12
				c0-4.411,3.589-8,8-8H663.891 M663.891,0H548.631c-6.6,0-12,5.4-12,12v193.839c0,6.6,5.4,12,12,12h115.259c6.6,0,12-5.4,12-12V12
				C675.891,5.4,670.49,0,663.891,0L663.891,0z"/>
		</g>
	</g>
	<g id="XMLID_10_">
		<g>
			<path fill="none" stroke="#FFFFFF" stroke-width="3" stroke-linecap="round" stroke-linejoin="round" stroke-miterlimit="10" d="
				M276.998,113.114l-8.796,8.18l8.796,8.178l1.364-1.465l-6.15-5.715c0,0,6.462,0,14.834,0c58.365,0,257.344,0,280.571,0
				c2.784,0,4.756,0,4.756,0v-2c0,0-1.972,0-4.756,0c-23.228,0-222.21,0-280.571,0c-8.369,0-14.829,0-14.829,0l6.145-5.713
				L276.998,113.114L276.998,113.114L276.998,113.114z"/>
			<path fill="#221F1F" d="M276.998,113.114l-8.796,8.18l8.796,8.178l1.364-1.465l-6.15-5.715c0,0,6.462,0,14.834,0
				c58.365,0,257.344,0,280.571,0c2.784,0,4.756,0,4.756,0v-2c0,0-1.972,0-4.756,0c-23.228,0-222.21,0-280.571,0
				c-8.369,0-14.829,0-14.829,0l6.145-5.713L276.998,113.114L276.998,113.114L276.998,113.114z"/>
		</g>
		<ellipse fill="#221F1F" cx="572.373" cy="121.292" rx="0.437" ry="1"/>
		<path fill="#221F1F" d="M278.412,113.114L278.412,113.114c0.391,0.39,0.391,1.023,0,1.414c-0.39,0.391-1.023,0.391-1.414,0
			c-0.391-0.39-0.391-1.023,0-1.414l0,0C277.389,112.724,278.022,112.724,278.412,113.114z"/>
		<path fill="#221F1F" d="M278.361,128.007c0.391,0.39,0.391,1.023,0,1.414c-0.017,0.018-0.035,0.035-0.054,0.051
			c-0.374,0.323-0.931,0.323-1.305,0c-0.018-0.016-0.036-0.033-0.054-0.051c-0.391-0.39-0.391-1.023,0-1.414
			C277.339,127.616,277.972,127.616,278.361,128.007z"/>
		<path display="none" fill="none" stroke="#EC388C" stroke-miterlimit="10" d="M959.214,132.807c0,0,0-1.317,0-3.335
			c0-4.265,0-11.662,0-16.357c0-2.567,0-4.327,0-4.327"/>
		<path display="none" fill="none" stroke="#EC388C" stroke-miterlimit="10" d="M773.62,132.807c0,0,0-1.317,0-3.335
			c0-4.265,0-11.662,0-16.357c0-2.567,0-4.327,0-4.327"/>
	</g>
	<text transform="matrix(1.0483 0 0 1 580.9062 125.4731)" fill="#231F20" font-family="'ApexNew-Book'" font-size="14">commit</text>
</g>
<g id="step-in-out_4_">
	<g id="border_15_">
		<g>
			<path fill="#4081C3" d="M305.908,4c4.411,0,8,3.589,8,8v193.839c0,4.411-3.589,8-8,8H190.649c-4.411,0-8-3.589-8-8V12
				c0-4.411,3.589-8,8-8H305.908 M305.908,0H190.649c-6.6,0-12,5.4-12,12v193.839c0,6.6,5.4,12,12,12h115.259c6.6,0,12-5.4,12-12V12
				C317.908,5.4,312.508,0,305.908,0L305.908,0z"/>
		</g>
	</g>
</g>
<g id="step-in-out">
	<g id="XMLID_8_">
		<g>
			<path fill="none" stroke="#FFFFFF" stroke-width="3" stroke-linecap="round" stroke-linejoin="round" stroke-miterlimit="10" d="
				M95.843,180.114l-8.796,8.18l8.796,8.178l1.364-1.465l-6.15-5.715c0,0,6.462,0,14.834,0c58.365,0,68.499,0,91.726,0
				c2.784,0,4.756,0,4.756,0v-2c0,0-1.972,0-4.756,0c-23.228,0-33.365,0-91.726,0c-8.369,0-14.829,0-14.829,0l6.145-5.713
				L95.843,180.114L95.843,180.114L95.843,180.114z"/>
			<path fill="#221F1F" d="M95.843,180.114l-8.796,8.18l8.796,8.178l1.364-1.465l-6.15-5.715c0,0,6.462,0,14.834,0
				c58.365,0,68.499,0,91.726,0c2.784,0,4.756,0,4.756,0v-2c0,0-1.972,0-4.756,0c-23.228,0-33.365,0-91.726,0
				c-8.369,0-14.829,0-14.829,0l6.145-5.713L95.843,180.114L95.843,180.114L95.843,180.114z"/>
		</g>
		<ellipse fill="#221F1F" cx="202.373" cy="188.292" rx="0.437" ry="1"/>
		<path fill="#221F1F" d="M97.257,180.114L97.257,180.114c0.391,0.39,0.391,1.023,0,1.414c-0.39,0.391-1.023,0.391-1.414,0
			c-0.391-0.39-0.391-1.023,0-1.414l0,0C96.234,179.724,96.867,179.724,97.257,180.114z"/>
		<path fill="#221F1F" d="M97.206,195.007c0.391,0.39,0.391,1.023,0,1.414c-0.017,0.018-0.035,0.035-0.054,0.051
			c-0.374,0.323-0.931,0.323-1.305,0c-0.018-0.016-0.036-0.033-0.054-0.051c-0.391-0.39-0.391-1.023,0-1.414
			S96.817,194.616,97.206,195.007z"/>
		<path display="none" fill="none" stroke="#EC388C" stroke-miterlimit="10" d="M589.214,199.807c0,0,0-1.317,0-3.335
			c0-4.265,0-11.662,0-16.357c0-2.567,0-4.327,0-4.327"/>
		<path display="none" fill="none" stroke="#EC388C" stroke-miterlimit="10" d="M403.62,199.807c0,0,0-1.317,0-3.335
			c0-4.265,0-11.662,0-16.357c0-2.567,0-4.327,0-4.327"/>
	</g>
	<text transform="matrix(1.0483 0 0 1 210.9058 192.4731)" fill="#231F20" font-family="'ApexNew-Book'" font-size="14">remove</text>
	<g id="border_6_">
		<g>
			<path fill="#4081C3" d="M305.908,4c4.411,0,8,3.589,8,8v193.839c0,4.411-3.589,8-8,8H190.649c-4.411,0-8-3.589-8-8V12
				c0-4.411,3.589-8,8-8H305.908 M305.908,0H190.649c-6.6,0-12,5.4-12,12v193.839c0,6.6,5.4,12,12,12h115.259c6.6,0,12-5.4,12-12V12
				C317.908,5.4,312.508,0,305.908,0L305.908,0z"/>
		</g>
	</g>
</g>
<g id="step-in-out_6_">
	<g id="border_22_">
		<g>
			<path fill="#4081C3" d="M127.259,4c4.411,0,8,3.589,8,8v193.839c0,4.411-3.589,8-8,8H12c-4.411,0-8-3.589-8-8V12
				c0-4.411,3.589-8,8-8H127.259 M127.259,0H12C5.4,0,0,5.4,0,12v193.839c0,6.6,5.4,12,12,12h115.259c6.6,0,12-5.4,12-12V12
				C139.259,5.4,133.859,0,127.259,0L127.259,0z"/>
		</g>
	</g>
</g>
</svg>
