<?xml version="1.0" encoding="utf-8"?>
<!-- Generator: Adobe Illustrator 17.1.0, SVG Export Plug-In . SVG Version: 6.00 Build 0)  -->
<!DOCTYPE svg PUBLIC "-//W3C//DTD SVG 1.1//EN" "http://www.w3.org/Graphics/SVG/1.1/DTD/svg11.dtd">
<svg version="1.1" id="Layer_1" xmlns="http://www.w3.org/2000/svg" xmlns:xlink="http://www.w3.org/1999/xlink" x="0px" y="0px"
	 viewBox="81 368.6 600 222.4" enable-background="new 81 368.6 600 222.4" xml:space="preserve">
<g id="boundary">
	<path fill="none" stroke="#E88F24" stroke-width="4" stroke-miterlimit="10" d="M81,368.6V591h600V368.6H81L81,368.6z"/>
</g>
<g>
	<g>
		<path d="M147.4,447.5c-1.7-6.8-7.8-11.8-15.2-11.8c-7.4,0-13.3,5-15.2,11.8h-12.3v7.8H117c1.7,6.8,7.8,11.8,15.2,11.8
			c7.4,0,13.3-5,15.2-11.8h12.3v-7.8H147.4z M132.3,459.2c-4.4,0-7.8-3.5-7.8-7.8c0-4.4,3.5-7.8,7.8-7.8c4.4,0,7.8,3.5,7.8,7.8
			S136.5,459.2,132.3,459.2z"/>
		<g id="border_1_">
			<path d="M151.7,408.9c13.6,0,24.8,11.2,24.8,24.8V472c0,13.6-11.2,24.8-24.8,24.8h-38.8c-13.6,0-24.8-11.2-24.8-24.8v-38.3
				c0-13.6,11.2-24.8,24.8-24.8H151.7 M151.7,407.9h-38.8c-14.2,0-25.8,11.8-25.8,25.8V472c0,14.2,11.8,25.8,25.8,25.8h38.8
				c14.2,0,25.8-11.8,25.8-25.8v-38.3C177.5,419.4,165.9,407.9,151.7,407.9L151.7,407.9z"/>
		</g>
	</g>
	<g>
		<g>
			<path fill="#231F20" d="M170.1,423.4c-6.5,0-11.9-5.4-11.9-11.9s5.4-11.9,11.9-11.9S182,405,182,411.5S176.8,423.4,170.1,423.4z"
				/>
			<path fill="#FFFFFF" d="M170.1,401.1c5.8,0,10.5,4.7,10.5,10.5s-4.7,10.5-10.5,10.5s-10.5-4.7-10.5-10.5
				C159.8,405.8,164.4,401.1,170.1,401.1 M170.1,398.2c-7.4,0-13.3,6-13.3,13.3c0,7.4,6,13.3,13.3,13.3c7.4,0,13.3-6,13.3-13.3
				C183.4,404.1,177.5,398.2,170.1,398.2L170.1,398.2z"/>
		</g>
		<g>
			<text transform="matrix(1.0483 0 0 1 167.7464 415.6982)" fill="#FFFFFF" font-family="'ApexNew-Book'" font-size="14.2689">1</text>
		</g>
	</g>
</g>
<g>
	<g>
		<path d="M269.4,447.4c-1.7-6.8-7.8-11.8-15.2-11.8c-7.4,0-13.3,5-15.2,11.8h-12.3v7.8H239c1.7,6.8,7.8,11.8,15.2,11.8
			c7.4,0,13.3-5,15.2-11.8h12.3v-7.8H269.4z M254.3,459.2c-4.4,0-7.8-3.5-7.8-7.8c0-4.4,3.5-7.8,7.8-7.8c4.4,0,7.8,3.5,7.8,7.8
			C262.1,455.6,258.5,459.2,254.3,459.2z"/>
		<g id="border_2_">
			<path d="M273.7,409c13.6,0,24.8,11.2,24.8,24.8v38.3c0,13.6-11.2,24.8-24.8,24.8h-38.8c-13.6,0-24.8-11.2-24.8-24.8v-38.3
				c0-13.6,11.2-24.8,24.8-24.8H273.7 M273.7,407.9h-38.8c-14.2,0-25.8,11.8-25.8,25.8V472c0,14.2,11.8,25.8,25.8,25.8h38.8
				c14.2,0,25.8-11.8,25.8-25.8v-38.3C299.5,419.5,287.9,407.9,273.7,407.9L273.7,407.9z"/>
		</g>
	</g>
	<g>
		<g>
			<path fill="#231F20" d="M292.1,423.4c-6.5,0-11.9-5.4-11.9-11.9s5.4-11.9,11.9-11.9S304,405,304,411.5S298.8,423.4,292.1,423.4z"
				/>
			<path fill="#FFFFFF" d="M292.1,401.1c5.8,0,10.5,4.7,10.5,10.5s-4.7,10.5-10.5,10.5s-10.5-4.7-10.5-10.5
				C281.8,405.8,286.4,401.1,292.1,401.1 M292.1,398.2c-7.4,0-13.3,6-13.3,13.3c0,7.4,6,13.3,13.3,13.3c7.4,0,13.3-6,13.3-13.3
				C305.4,404.2,299.5,398.2,292.1,398.2L292.1,398.2z"/>
		</g>
		<g>
			<text transform="matrix(1.0483 0 0 1 288.4852 415.7045)" fill="#FFFFFF" font-family="'ApexNew-Book'" font-size="14.2689">2</text>
		</g>
	</g>
</g>
<g>
	<g>
		<path d="M391.1,447.5c-1.7-6.8-7.8-11.8-15.2-11.8c-7.4,0-13.3,5-15.2,11.8h-12.3v7.8h12.3c1.7,6.8,7.8,11.8,15.2,11.8
			s13.3-5,15.2-11.8h12.3v-7.8H391.1z M376,459.2c-4.4,0-7.8-3.5-7.8-7.8c0-4.4,3.5-7.8,7.8-7.8c4.4,0,7.8,3.5,7.8,7.8
			C383.8,455.6,380.2,459.2,376,459.2z"/>
		<g id="border_3_">
			<path d="M395.4,409c13.6,0,24.8,11.2,24.8,24.8v38.3c0,13.6-11.2,24.8-24.8,24.8h-38.8c-13.6,0-24.8-11.2-24.8-24.8v-38.3
				c0-13.6,11.2-24.8,24.8-24.8H395.4 M395.4,408h-38.8c-14.2,0-25.8,11.8-25.8,25.8V472c0,14.2,11.8,25.8,25.8,25.8h38.8
				c14.2,0,25.8-11.8,25.8-25.8v-38.3C421.2,419.6,409.6,408,395.4,408L395.4,408z"/>
		</g>
	</g>
	<g>
		<g>
			<path fill="#231F20" d="M413.8,423.3c-6.5,0-11.9-5.4-11.9-11.9s5.4-11.9,11.9-11.9s11.9,5.4,11.9,11.9
				C425.7,418,420.5,423.3,413.8,423.3z"/>
			<path fill="#FFFFFF" d="M413.8,401.2c5.8,0,10.5,4.7,10.5,10.5s-4.7,10.5-10.5,10.5s-10.5-4.7-10.5-10.5
				C403.5,405.8,408.1,401.2,413.8,401.2 M413.8,398.2c-7.4,0-13.3,6-13.3,13.3c0,7.4,6,13.3,13.3,13.3c7.4,0,13.3-6,13.3-13.3
				S421.2,398.2,413.8,398.2L413.8,398.2z"/>
		</g>
		<g>
			<text transform="matrix(1.0483 0 0 1 410.0544 415.6998)" fill="#FFFFFF" font-family="'ApexNew-Book'" font-size="14.2689">3</text>
		</g>
	</g>
</g>
<g>
	<g>
		<path d="M514.1,447.5c-1.7-6.8-7.8-11.8-15.2-11.8c-7.4,0-13.3,5-15.2,11.8h-12.3v7.8h12.3c1.7,6.8,7.8,11.8,15.2,11.8
			c7.4,0,13.3-5,15.2-11.8h12.3v-7.8H514.1z M499,459.2c-4.4,0-7.8-3.5-7.8-7.8c0-4.4,3.5-7.8,7.8-7.8c4.4,0,7.8,3.5,7.8,7.8
			C506.8,455.6,503.2,459.2,499,459.2z"/>
		<g id="border_5_">
			<path d="M518.4,409c13.6,0,24.8,11.2,24.8,24.8v38.3c0,13.6-11.2,24.8-24.8,24.8h-38.8c-13.6,0-24.8-11.2-24.8-24.8v-38.3
				c0-13.6,11.2-24.8,24.8-24.8H518.4 M518.4,408h-38.8c-14.2,0-25.8,11.8-25.8,25.8V472c0,14.2,11.8,25.8,25.8,25.8h38.8
				c14.2,0,25.8-11.8,25.8-25.8v-38.3C544.2,419.6,532.6,408,518.4,408L518.4,408z"/>
		</g>
	</g>
	<g>
		<g>
			<path fill="#231F20" d="M536.8,423.3c-6.5,0-11.9-5.4-11.9-11.9s5.4-11.9,11.9-11.9s11.9,5.4,11.9,11.9
				C548.7,418,543.5,423.3,536.8,423.3z"/>
			<path fill="#FFFFFF" d="M536.8,401.2c5.8,0,10.5,4.7,10.5,10.5s-4.7,10.5-10.5,10.5s-10.5-4.7-10.5-10.5
				C526.5,405.8,531.1,401.2,536.8,401.2 M536.8,398.2c-7.4,0-13.3,6-13.3,13.3c0,7.4,6,13.3,13.3,13.3c7.4,0,13.3-6,13.3-13.3
				S544.2,398.2,536.8,398.2L536.8,398.2z"/>
		</g>
		<g>
			<text transform="matrix(1.0483 0 0 1 532.0544 414.6998)" fill="#FFFFFF" font-family="'ApexNew-Book'" font-size="14.2689">4</text>
		</g>
	</g>
</g>
<g>
	<g>
		<path d="M638.3,447.5c-1.7-6.8-7.8-11.8-15.2-11.8c-7.4,0-13.3,5-15.2,11.8h-12.3v7.8h12.3c1.7,6.8,7.8,11.8,15.2,11.8
			s13.3-5,15.2-11.8h12.3v-7.8H638.3z M623.2,459.2c-4.4,0-7.8-3.5-7.8-7.8c0-4.4,3.5-7.8,7.8-7.8c4.4,0,7.8,3.5,7.8,7.8
			C631,455.6,627.4,459.2,623.2,459.2z"/>
		<g id="border_6_">
			<path d="M642.6,409c13.6,0,24.8,11.2,24.8,24.8v38.3c0,13.6-11.2,24.8-24.8,24.8h-38.8c-13.6,0-24.8-11.2-24.8-24.8v-38.3
				c0-13.6,11.2-24.8,24.8-24.8H642.6 M642.6,408h-38.8c-14.2,0-25.8,11.8-25.8,25.8V472c0,14.2,11.8,25.8,25.8,25.8h38.8
				c14.2,0,25.8-11.8,25.8-25.8v-38.3C668.4,419.6,656.8,408,642.6,408L642.6,408z"/>
		</g>
	</g>
	<g>
		<g>
			<path fill="#231F20" d="M661,423.3c-6.5,0-11.9-5.4-11.9-11.9s5.4-11.9,11.9-11.9s11.9,5.4,11.9,11.9
				C672.9,418,667.7,423.3,661,423.3z"/>
			<path fill="#FFFFFF" d="M661,401.2c5.8,0,10.5,4.7,10.5,10.5s-4.7,10.5-10.5,10.5s-10.5-4.7-10.5-10.5
				C650.7,405.8,655.3,401.2,661,401.2 M661,398.2c-7.4,0-13.3,6-13.3,13.3c0,7.4,6,13.3,13.3,13.3c7.4,0,13.3-6,13.3-13.3
				S668.4,398.2,661,398.2L661,398.2z"/>
		</g>
		<g>
			<text transform="matrix(1.0483 0 0 1 657.2543 415.6998)" fill="#FFFFFF" font-family="'ApexNew-Book'" font-size="14.2689">5</text>
		</g>
	</g>
</g>
<path display="none" fill="none" stroke="#FFFFFF" stroke-width="5" stroke-miterlimit="10" d="M458.9,812.6
	c0-27.6-22.4-49.9-49.9-49.9"/>
<g>
	<g>
		<path fill="#231F20" d="M323.7,462c-0.4,0-0.8-0.2-1.1-0.4c-0.3-0.3-0.4-0.7-0.4-1.1c0-0.3,0.1-0.5,0.2-0.7l0,0l0.4-0.4l5.2-4.8
			h-10.1v-3H328l-5.2-4.8c-0.6-0.6-0.6-1.6,0-2.1c0.3-0.3,0.7-0.4,1-0.4c0.2,0,0.4,0,0.6,0.1l0.1-0.1l0.4,0.3l9.2,8.5l-9.2,8.5
			C324.5,461.8,324.1,462,323.7,462z"/>
		<path fill="#FFFFFF" d="M323.7,444.6c0.2,0,0.5,0.1,0.7,0.2l0,0l8.8,8.2l-8.8,8.2c-0.2,0.2-0.5,0.3-0.7,0.3
			c-0.3,0-0.5-0.1-0.7-0.3c-0.4-0.4-0.4-1,0-1.4c0,0,0,0,0.1,0l0,0l6.1-5.7h-10.9c0-0.7,0-1.3,0-2h10.9l-6.1-5.7
			c-0.4-0.4-0.4-1,0-1.4C323.2,444.7,323.5,444.6,323.7,444.6 M324.3,443.4l-0.2,0.2c-0.1,0-0.3,0-0.4,0c-0.5,0-1,0.2-1.4,0.6
			s-0.6,0.9-0.6,1.4s0.2,1,0.6,1.4l4.3,4h-8.3h-1v1v2v1h1h8.3l-4.3,4l-0.7,0.7l0.2,0.2c-0.1,0.2-0.1,0.4-0.1,0.6
			c0,0.5,0.2,1,0.6,1.4s0.9,0.6,1.4,0.6s1-0.2,1.4-0.6l8.8-8.2l0.8-0.7l-0.8-0.7l-8.8-8.2L324.3,443.4L324.3,443.4z"/>
	</g>
	<g>
		<path fill="none" stroke="#FFFFFF" stroke-width="4" stroke-miterlimit="10" d="M319.4,453.1h-19.9"/>
		<path fill="none" stroke="#231F20" stroke-width="2" stroke-miterlimit="10" d="M319.4,453.1h-19.9"/>
	</g>
</g>
<g>
	<g>
		<path fill="#231F20" d="M202,462c-0.4,0-0.8-0.2-1.1-0.4c-0.3-0.3-0.4-0.7-0.4-1.1c0-0.3,0.1-0.5,0.2-0.7l0,0l0.4-0.4l5.2-4.8
			h-10.1v-3h10.1l-5.2-4.8c-0.6-0.6-0.6-1.6,0-2.1c0.3-0.3,0.7-0.4,1-0.4c0.2,0,0.4,0,0.6,0.1l0.1-0.1l0.4,0.3l9.2,8.5l-9.2,8.5
			C202.8,461.8,202.4,462,202,462z"/>
		<path fill="#FFFFFF" d="M202,444.6c0.2,0,0.5,0.1,0.7,0.2l0,0l8.8,8.2l-8.8,8.2c-0.2,0.2-0.5,0.3-0.7,0.3c-0.3,0-0.5-0.1-0.7-0.3
			c-0.4-0.4-0.4-1,0-1.4c0,0,0,0,0.1,0l0,0l6.1-5.7h-10.9c0-0.7,0-1.3,0-2h10.9l-6.1-5.7c-0.4-0.4-0.4-1,0-1.4
			C201.5,444.7,201.8,444.6,202,444.6 M202.6,443.4l-0.2,0.2c-0.1,0-0.3,0-0.4,0c-0.5,0-1,0.2-1.4,0.6s-0.6,0.9-0.6,1.4
			s0.2,1,0.6,1.4l4.3,4h-8.3h-1v1v2v1h1h8.3l-4.3,4l-0.7,0.7l0.2,0.2c-0.1,0.2-0.1,0.4-0.1,0.6c0,0.5,0.2,1,0.6,1.4s0.9,0.6,1.4,0.6
			s1-0.2,1.4-0.6l8.8-8.2l0.8-0.7l-0.8-0.7l-8.8-8.2L202.6,443.4L202.6,443.4z"/>
	</g>
	<g>
		<path fill="none" stroke="#FFFFFF" stroke-width="4" stroke-miterlimit="10" d="M197.7,453.1h-19.9"/>
		<path fill="none" stroke="#231F20" stroke-width="2" stroke-miterlimit="10" d="M197.7,453.1h-19.9"/>
	</g>
</g>
<g>
	<g>
		<path fill="#231F20" d="M445.4,462c-0.4,0-0.8-0.2-1.1-0.4c-0.3-0.3-0.4-0.7-0.4-1.1c0-0.3,0.1-0.5,0.2-0.7l0,0l0.4-0.4l5.2-4.8
			h-10.1v-3h10.1l-5.2-4.8c-0.6-0.6-0.6-1.6,0-2.1c0.3-0.3,0.7-0.4,1-0.4c0.2,0,0.4,0,0.6,0.1l0.1-0.1l0.4,0.3l9.2,8.5l-9.2,8.5
			C446.2,461.8,445.8,462,445.4,462z"/>
		<path fill="#FFFFFF" d="M445.4,444.6c0.2,0,0.5,0.1,0.7,0.2l0,0l8.8,8.2l-8.8,8.2c-0.2,0.2-0.5,0.3-0.7,0.3
			c-0.3,0-0.5-0.1-0.7-0.3c-0.4-0.4-0.4-1,0-1.4c0,0,0,0,0.1,0l0,0l6.1-5.7H440c0-0.7,0-1.3,0-2h10.9l-6.1-5.7c-0.4-0.4-0.4-1,0-1.4
			C444.9,444.7,445.2,444.6,445.4,444.6 M446,443.4l-0.2,0.2c-0.1,0-0.3,0-0.4,0c-0.5,0-1,0.2-1.4,0.6c-0.4,0.4-0.6,0.9-0.6,1.4
			s0.2,1,0.6,1.4l4.3,4H440h-1v1v2v1h1h8.3l-4.3,4l-0.7,0.7l0.2,0.2c-0.1,0.2-0.1,0.4-0.1,0.6c0,0.5,0.2,1,0.6,1.4
			c0.4,0.4,0.9,0.6,1.4,0.6s1-0.2,1.4-0.6l8.8-8.2l0.8-0.7l-0.8-0.7l-8.8-8.2L446,443.4L446,443.4z"/>
	</g>
	<g>
		<path fill="none" stroke="#FFFFFF" stroke-width="4" stroke-miterlimit="10" d="M441.1,453.1h-19.9"/>
		<path fill="none" stroke="#231F20" stroke-width="2" stroke-miterlimit="10" d="M441.1,453.1h-19.9"/>
	</g>
</g>
<g>
	<g>
		<path fill="#231F20" d="M568,462c-0.4,0-0.8-0.2-1.1-0.4c-0.3-0.3-0.4-0.7-0.4-1.1c0-0.3,0.1-0.5,0.2-0.7l0,0l0.4-0.4l5.2-4.8
			h-10.1v-3h10.1l-5.2-4.8c-0.6-0.6-0.6-1.6,0-2.1c0.3-0.3,0.7-0.4,1-0.4c0.2,0,0.4,0,0.6,0.1l0.1-0.1l0.4,0.3l9.2,8.5l-9.2,8.5
			C568.8,461.8,568.4,462,568,462z"/>
		<path fill="#FFFFFF" d="M568,444.6c0.2,0,0.5,0.1,0.7,0.2l0,0l8.8,8.2l-8.8,8.2c-0.2,0.2-0.5,0.3-0.7,0.3c-0.3,0-0.5-0.1-0.7-0.3
			c-0.4-0.4-0.4-1,0-1.4c0,0,0,0,0.1,0l0,0l6.1-5.7h-10.9c0-0.7,0-1.3,0-2h10.9l-6.1-5.7c-0.4-0.4-0.4-1,0-1.4
			C567.5,444.7,567.8,444.6,568,444.6 M568.6,443.4l-0.2,0.2c-0.1,0-0.3,0-0.4,0c-0.5,0-1,0.2-1.4,0.6c-0.4,0.4-0.6,0.9-0.6,1.4
			s0.2,1,0.6,1.4l4.3,4h-8.3h-1v1v2v1h1h8.3l-4.3,4l-0.7,0.7l0.2,0.2c-0.1,0.2-0.1,0.4-0.1,0.6c0,0.5,0.2,1,0.6,1.4
			c0.4,0.4,0.9,0.6,1.4,0.6s1-0.2,1.4-0.6l8.8-8.2l0.8-0.7l-0.8-0.7l-8.8-8.2L568.6,443.4L568.6,443.4z"/>
	</g>
	<g>
		<path fill="none" stroke="#FFFFFF" stroke-width="4" stroke-miterlimit="10" d="M563.7,453.1h-19.9"/>
		<path fill="none" stroke="#231F20" stroke-width="2" stroke-miterlimit="10" d="M563.7,453.1h-19.9"/>
	</g>
</g>
<g>
	<path fill="#FFFFFF" d="M262.1,475.8h-12.3l-6.1,6.1v12.3l24.6,24.6l18.4-18.4L262.1,475.8z M260.6,497.3l4.6-4.6l7.7,7.7l-4.6,4.6
		L260.6,497.3z M259.1,486.5c0-2.5-2.1-4.6-4.6-4.6c-2.5,0-4.6,2.1-4.6,4.6c0,2.5,2.1,4.6,4.6,4.6
		C257,491.1,259.1,489.1,259.1,486.5z M254.4,488.1c-0.8,0-1.5-0.7-1.5-1.5c0-0.8,0.7-1.5,1.5-1.5s1.5,0.7,1.5,1.5
		C256,487.4,255.3,488.1,254.4,488.1z"/>
	<path fill="#3F81C3" d="M262.1,475.8h-12.3l-6.1,6.1v12.3l24.6,24.6l18.4-18.4L262.1,475.8z M246.8,492.7v-9.2l4.6-4.6h9.2
		l21.5,21.5l-13.8,13.8L246.8,492.7z M265.2,488.1l-9.2,9.2l12.3,12.3l9.2-9.2L265.2,488.1z M260.6,497.3l4.6-4.6l7.7,7.7l-4.6,4.6
		L260.6,497.3z M259.1,486.5c0-2.5-2.1-4.6-4.6-4.6c-2.5,0-4.6,2.1-4.6,4.6c0,2.5,2.1,4.6,4.6,4.6
		C257,491.1,259.1,489.1,259.1,486.5z M254.4,488.1c-0.8,0-1.5-0.7-1.5-1.5c0-0.8,0.7-1.5,1.5-1.5s1.5,0.7,1.5,1.5
		C256,487.4,255.3,488.1,254.4,488.1z"/>
</g>
<text transform="matrix(1.0208 0 0 1 243.6938 395.1822)" fill="#231F20" font-family="'ApexNew-Book'" font-size="14">V1.0</text>
</svg>
