<?xml version="1.0" encoding="utf-8"?>
<!-- Generator: Adobe Illustrator 17.1.0, SVG Export Plug-In . SVG Version: 6.00 Build 0)  -->
<!DOCTYPE svg PUBLIC "-//W3C//DTD SVG 1.1//EN" "http://www.w3.org/Graphics/SVG/1.1/DTD/svg11.dtd">
<svg version="1.1" id="Layer_1" xmlns="http://www.w3.org/2000/svg" xmlns:xlink="http://www.w3.org/1999/xlink" x="0px" y="0px"
	 viewBox="36.7 200.4 500 331.7" enable-background="new 36.7 200.4 500 331.7" xml:space="preserve">
<symbol  id="arrow" viewBox="-73.4 -9.6 146.8 19.1">
	<g>
		<path fill="#221F1F" d="M62.5,9c0.4,0,0.8-0.2,1.1-0.4l9.2-8.5l-9.6-8.9l-0.1,0.1c-0.2-0.1-0.4-0.1-0.6-0.1
			c-0.8,0-1.5,0.7-1.5,1.5c0,0.4,0.2,0.8,0.4,1.1l5.2,4.9h-138c-0.8,0-1.5,0.7-1.5,1.5s0.7,1.5,1.5,1.5h138L61,6.9L61.1,7
			c-0.1,0.2-0.2,0.5-0.2,0.7C61,8.3,61.7,9,62.5,9z"/>
		<path fill="#FFFFFF" d="M62.5-8.4c-0.6,0-1,0.4-1,1c0,0.3,0.1,0.5,0.3,0.7L67.9-1H-71.3c-0.6,0-1,0.4-1,1s0.4,1,1,1H68l-6.1,5.7
			l0,0c-0.2,0.2-0.4,0.4-0.4,0.7c0,0.6,0.4,1,1,1c0.3,0,0.5-0.1,0.7-0.3l0,0L72-0.1l-8.8-8.2l0,0C63-8.3,62.8-8.4,62.5-8.4
			 M63.1-9.6l0.7,0.7l8.8,8.2L73.4,0l-0.8,0.7l-8.8,8.2c-0.4,0.4-0.9,0.6-1.4,0.6c-1.1,0-2-0.9-2-2c0-0.2,0-0.4,0.1-0.6l-0.2-0.2
			L61,6l4.3-4H-71.4c-1.1,0-2-0.9-2-2s0.9-2,2-2H65.4l-4.3-4c-0.4-0.4-0.6-0.9-0.6-1.4c0-1.1,0.9-2,2-2c0.1,0,0.3,0,0.4,0L63.1-9.6
			L63.1-9.6z"/>
	</g>
</symbol>
<g id="boundary">
	<path fill="none" stroke="#E88F24" stroke-width="4" stroke-miterlimit="10" d="M36.7,200.4v331.7h500V200.4L36.7,200.4L36.7,200.4
		z"/>
</g>
<g id="base">
	<g id="border_4_">
		<path d="M183.6,292.2c13.6,0,24.8,11.2,24.8,24.8v100.7c0,13.6-11.2,24.8-24.8,24.8H76.7c-13.6,0-24.8-11.2-24.8-24.8V317
			c0-13.6,11.2-24.8,24.8-24.8H183.6 M183.6,291H76.7c-14.2,0-25.8,11.8-25.8,25.8v100.7c0,14.2,11.8,25.8,25.8,25.8h106.9
			c14.2,0,25.8-11.8,25.8-25.8V316.8C209.4,302.6,197.7,291,183.6,291L183.6,291z"/>
	</g>
	<text transform="matrix(1 0 0 1 82.1207 477.5801)" fill="#221F1F" font-family="'HelveticaNeue-Light'" font-size="31.2097">Branch</text>
	<path d="M152.4,333.3c-7.1,0-12.9,5.8-12.9,12.9c0,4.7,2.6,8.8,6.4,11.1v1.8c0,0,0,12.9-12.9,12.9c-5.4,0-9.5,1.1-12.9,2.8v-30.3
		c3.8-2.3,6.4-6.4,6.4-11.1c0-7.1-5.8-12.9-12.9-12.9c-7.1,0-12.6,5.7-12.6,12.8c0,4.7,2.6,8.8,6.4,11.1v42.1
		c-3.8,2.3-6.4,6.4-6.4,11.1c0,7.1,5.8,12.9,12.9,12.9c7.1,0,12.9-5.8,12.9-12.9c0-3.4-1.3-6.4-3.4-8.6c1.8-2.3,5-4.1,9.9-4.1
		c25.5,0,25.7-25.7,25.7-25.7v-1.8c3.8-2.3,6.4-6.4,6.4-11.1C165.3,339.1,159.5,333.3,152.4,333.3z M113.8,326.9
		c3.5,0,6.4,2.8,6.4,6.4c0,3.5-2.8,6.4-6.4,6.4s-6.4-2.8-6.4-6.4C107.4,329.7,110.3,326.9,113.8,326.9z M113.8,404
		c-3.5,0-6.4-2.8-6.4-6.4s2.8-6.4,6.4-6.4s6.4,2.8,6.4,6.4C120.2,401,117.4,404,113.8,404z M152.4,352.5c-3.5,0-6.4-2.8-6.4-6.4
		s2.8-6.4,6.4-6.4c3.5,0,6.4,2.8,6.4,6.4S155.9,352.5,152.4,352.5z"/>
</g>
<g id="commit-1">
	
		<use xlink:href="#arrow"  width="146.8" height="19.1" x="-73.4" y="-9.6" transform="matrix(1.1739 -0.2781 -0.4172 -1.369 287.616 281.3112)" overflow="visible"/>
	<g>
		<g>
			<path d="M431.2,261.3c-1.7-6.8-7.8-11.8-15.2-11.8c-7.4,0-13.3,5-15.2,11.8h-12.3v7.8h12.3c1.7,6.8,7.8,11.8,15.2,11.8
				c7.4,0,13.3-5,15.2-11.8h12.3v-7.8H431.2z M416.1,273c-4.4,0-7.8-3.5-7.8-7.8c0-4.4,3.5-7.8,7.8-7.8c4.4,0,7.8,3.5,7.8,7.8
				S420.3,273,416.1,273z"/>
			<g id="border_1_">
				<path d="M435.5,222.7c13.6,0,24.8,11.2,24.8,24.8v38.3c0,13.6-11.2,24.8-24.8,24.8h-38.8c-13.6,0-24.8-11.2-24.8-24.8v-38.3
					c0-13.6,11.2-24.8,24.8-24.8H435.5 M435.5,221.6h-38.8c-14.2,0-25.8,11.8-25.8,25.8v38.3c0,14.2,11.8,25.8,25.8,25.8h38.8
					c14.2,0,25.8-11.8,25.8-25.8v-38.3C461.3,233.2,449.7,221.6,435.5,221.6L435.5,221.6z"/>
			</g>
			<g>
				<text transform="matrix(1.0483 0 0 1 473.4023 270.7014)" fill="#231F20" font-family="'ApexNew-Book'" font-size="14.2689">Commit</text>
			</g>
		</g>
		<g>
			<g>
				<path fill="#231F20" d="M453.9,233.2c-6.5,0-11.9-5.4-11.9-11.9c0-6.5,5.4-11.9,11.9-11.9c6.5,0,11.9,5.4,11.9,11.9
					C465.8,227.8,460.6,233.2,453.9,233.2z"/>
				<path fill="#FFFFFF" d="M453.9,210.8c5.8,0,10.5,4.7,10.5,10.5c0,5.8-4.7,10.5-10.5,10.5s-10.5-4.7-10.5-10.5
					C443.6,215.5,448.2,210.8,453.9,210.8 M453.9,208c-7.4,0-13.3,6-13.3,13.3c0,7.4,6,13.3,13.3,13.3c7.4,0,13.3-6,13.3-13.3
					C467.2,213.9,461.3,208,453.9,208L453.9,208z"/>
			</g>
			<g>
				<text transform="matrix(1.0483 0 0 1 451.5058 225.3975)" fill="#FFFFFF" font-family="'ApexNew-Book'" font-size="14.2689">1</text>
			</g>
		</g>
	</g>
</g>
<g id="commit-2">
	
		<use xlink:href="#arrow"  width="146.8" height="19.1" x="-73.4" y="-9.6" transform="matrix(1.1547 0 0 -1.4176 287.0401 368.4936)" overflow="visible"/>
	<g>
		<g>
			<path d="M431.2,363.3c-1.7-6.8-7.8-11.8-15.2-11.8c-7.4,0-13.3,5-15.2,11.8h-12.3v7.8h12.3c1.7,6.8,7.8,11.8,15.2,11.8
				c7.4,0,13.3-5,15.2-11.8h12.3v-7.8H431.2z M416.1,375.1c-4.4,0-7.8-3.5-7.8-7.8c0-4.4,3.5-7.8,7.8-7.8c4.4,0,7.8,3.5,7.8,7.8
				C423.9,371.5,420.3,375.1,416.1,375.1z"/>
			<g id="border_2_">
				<path d="M435.5,324.9c13.6,0,24.8,11.2,24.8,24.8V388c0,13.6-11.2,24.8-24.8,24.8h-38.8c-13.6,0-24.8-11.2-24.8-24.8v-38.3
					c0-13.6,11.2-24.8,24.8-24.8H435.5 M435.5,323.8h-38.8c-14.2,0-25.8,11.8-25.8,25.8v38.3c0,14.2,11.8,25.8,25.8,25.8h38.8
					c14.2,0,25.8-11.8,25.8-25.8v-38.3C461.3,335.4,449.7,323.8,435.5,323.8L435.5,323.8z"/>
			</g>
			<g>
				<text transform="matrix(1.0483 0 0 1 473.4023 372.8341)" fill="#231F20" font-family="'ApexNew-Book'" font-size="14.2689">Commit</text>
			</g>
		</g>
		<g>
			<g>
				<path fill="#231F20" d="M453.9,346c-6.5,0-11.9-5.4-11.9-11.9c0-6.5,5.4-11.9,11.9-11.9c6.5,0,11.9,5.4,11.9,11.9
					C465.8,340.6,460.6,346,453.9,346z"/>
				<path fill="#FFFFFF" d="M453.9,323.8c5.8,0,10.5,4.7,10.5,10.5s-4.7,10.5-10.5,10.5s-10.5-4.7-10.5-10.5
					C443.6,328.4,448.2,323.8,453.9,323.8 M453.9,320.9c-7.4,0-13.3,6-13.3,13.3c0,7.4,6,13.3,13.3,13.3c7.4,0,13.3-6,13.3-13.3
					C467.2,326.9,461.3,320.9,453.9,320.9L453.9,320.9z"/>
			</g>
			<g>
				<text transform="matrix(1.0483 0 0 1 450.2717 338.3037)" fill="#FFFFFF" font-family="'ApexNew-Book'" font-size="14.2689">2</text>
			</g>
		</g>
	</g>
</g>
<g id="commit-3">
	
		<use xlink:href="#arrow"  width="146.8" height="19.1" x="-73.4" y="-9.6" transform="matrix(1.191 0.2827 0.4179 -1.3689 286.3142 453.9162)" overflow="visible"/>
	<g>
		<g>
			<path d="M431.2,467.5c-1.7-6.8-7.8-11.8-15.2-11.8c-7.4,0-13.3,5-15.2,11.8h-12.3v7.8h12.3c1.7,6.8,7.8,11.8,15.2,11.8
				c7.4,0,13.3-5,15.2-11.8h12.3v-7.8H431.2z M416.1,479.3c-4.4,0-7.8-3.5-7.8-7.8c0-4.4,3.5-7.8,7.8-7.8c4.4,0,7.8,3.5,7.8,7.8
				C423.9,475.7,420.3,479.3,416.1,479.3z"/>
			<g id="border_3_">
				<path d="M435.5,429.1c13.6,0,24.8,11.2,24.8,24.8v38.3c0,13.6-11.2,24.8-24.8,24.8h-38.8c-13.6,0-24.8-11.2-24.8-24.8v-38.3
					c0-13.6,11.2-24.8,24.8-24.8H435.5 M435.5,428h-38.8c-14.2,0-25.8,11.8-25.8,25.8V492c0,14.2,11.8,25.8,25.8,25.8h38.8
					c14.2,0,25.8-11.8,25.8-25.8v-38.3C461.3,439.6,449.7,428,435.5,428L435.5,428z"/>
			</g>
			<g>
				<text transform="matrix(1.0483 0 0 1 473.4023 477.0295)" fill="#231F20" font-family="'ApexNew-Book'" font-size="14.2689">Commit</text>
			</g>
		</g>
		<g>
			<g>
				<path fill="#231F20" d="M453.9,450.2c-6.5,0-11.9-5.4-11.9-11.9c0-6.5,5.4-11.9,11.9-11.9c6.5,0,11.9,5.4,11.9,11.9
					C465.8,444.8,460.6,450.2,453.9,450.2z"/>
				<path fill="#FFFFFF" d="M453.9,428c5.8,0,10.5,4.7,10.5,10.5s-4.7,10.5-10.5,10.5s-10.5-4.7-10.5-10.5
					C443.6,432.6,448.2,428,453.9,428 M453.9,425.1c-7.4,0-13.3,6-13.3,13.3c0,7.4,6,13.3,13.3,13.3c7.4,0,13.3-6,13.3-13.3
					S461.3,425.1,453.9,425.1L453.9,425.1z"/>
			</g>
			<g>
				<text transform="matrix(1.0483 0 0 1 450.1972 442.4991)" fill="#FFFFFF" font-family="'ApexNew-Book'" font-size="14.2689">3</text>
			</g>
		</g>
	</g>
</g>
</svg>
