<?xml version="1.0" encoding="utf-8"?>
<!-- Generator: Adobe Illustrator 17.1.0, SVG Export Plug-In . SVG Version: 6.00 Build 0)  -->
<!DOCTYPE svg PUBLIC "-//W3C//DTD SVG 1.1//EN" "http://www.w3.org/Graphics/SVG/1.1/DTD/svg11.dtd">
<svg version="1.1" id="Layer_1" xmlns="http://www.w3.org/2000/svg" xmlns:xlink="http://www.w3.org/1999/xlink" x="0px" y="0px"
	 viewBox="38 180.7 401.3 154.7" enable-background="new 38 180.7 401.3 154.7" xml:space="preserve">
<symbol  id="New_Symbol" viewBox="-73.4 -9.5 146.8 19.1">
	<g>
		<path fill="#221F1F" d="M62.5,9.1c0.4,0,0.8-0.2,1.1-0.4l9.2-8.5l-9.6-8.9l-0.1,0.1c-0.2-0.1-0.4-0.1-0.6-0.1
			C61.7-8.7,61-8,61-7.2c0,0.4,0.2,0.8,0.4,1.1l5.2,4.9h-138c-0.8,0-1.5,0.7-1.5,1.5s0.7,1.5,1.5,1.5h138L61,7l0.1,0.1
			c-0.1,0.2-0.2,0.5-0.2,0.7C61,8.4,61.7,9.1,62.5,9.1z"/>
		<path fill="#FFFFFF" d="M62.5-8.3c-0.6,0-1,0.4-1,1c0,0.3,0.1,0.5,0.3,0.7l6.1,5.7H-71.3c-0.6,0-1,0.4-1,1s0.4,1,1,1H68l-6.1,5.7
			l0,0c-0.2,0.2-0.4,0.4-0.4,0.7c0,0.6,0.4,1,1,1c0.3,0,0.5-0.1,0.7-0.3l0,0L72,0l-8.8-8.2l0,0C63-8.2,62.8-8.3,62.5-8.3 M63.1-9.5
			l0.7,0.7l8.8,8.2l0.8,0.7l-0.8,0.7L63.8,9c-0.4,0.4-0.9,0.6-1.4,0.6c-1.1,0-2-0.9-2-2c0-0.2,0-0.4,0.1-0.6l-0.2-0.2L61,6.1l4.3-4
			H-71.4c-1.1,0-2-0.9-2-2s0.9-2,2-2H65.4l-4.3-4c-0.4-0.4-0.6-0.9-0.6-1.4c0-1.1,0.9-2,2-2c0.1,0,0.3,0,0.4,0L63.1-9.5L63.1-9.5z"
			/>
	</g>
</symbol>
<g id="boundary">
	<path fill="none" stroke="#E88F24" stroke-width="4" stroke-miterlimit="10" d="M38,180.7v154.7h401.3V180.7H38z"/>
</g>
<g id="base">
	<g id="border_4_">
		<path d="M413.9,188.9c9.6,0,17.5,7.9,17.5,17.5v71c0,9.6-7.9,17.5-17.5,17.5h-75.4c-9.6,0-17.5-7.9-17.5-17.5v-71
			c0-9.6,7.9-17.5,17.5-17.5H413.9 M413.9,188.1h-75.4c-10,0-18.2,8.3-18.2,18.2v71c0,10,8.3,18.2,18.2,18.2h75.4
			c10,0,18.2-8.3,18.2-18.2v-71C432.1,196.3,423.9,188.1,413.9,188.1L413.9,188.1z"/>
	</g>
	<text transform="matrix(1 0 0 1 338.7473 327.5498)" fill="#221F1F" font-family="'HelveticaNeue-Light'" font-size="22.0153">Commit</text>
	<path d="M395.5,236.8c-2.3-8.6-10-15-19.3-15c-9.3,0-17.1,6.4-19.3,15h-15.7v10h15.7c2.3,8.7,10,15,19.3,15c9.4,0,17.1-6.4,19.3-15
		h15.8v-10H395.5z M376.2,251.8c-5.5,0-10-4.5-10-10s4.5-10,10-10s10,4.5,10,10C386.2,247.3,381.7,251.8,376.2,251.8z"/>
</g>
<path d="M100,260H84.2v3.2H100V260z M106.4,250.5H77.9v44.3h38V260L106.4,250.5z M112.7,291.6H81v-38h22.2l9.5,9.5V291.6z
	 M84.2,285.3h25.3v-3.2H84.2V285.3z M84.2,279h25.3v-3.2H84.2V279z M84.2,272.6h25.3v-3.2H84.2V272.6z"/>
<path d="M166.3,218.5h-28.5v44.3h38V228L166.3,218.5z M172.6,259.7h-31.7v-38h22.2l9.5,9.5V259.7z M144.1,228v25.3h6.3
	c0-3.5,2.8-6.3,6.3-6.3c-3.5,0-6.3-2.8-6.3-6.3s2.8-6.3,6.3-6.3s6.3,2.8,6.3,6.3s-2.8,6.3-6.3,6.3c3.5,0,6.3,2.8,6.3,6.3h6.3v-19
	L163,228H144.1z"/>
<path d="M65.1,202l-7.9,7.9l7.9,7.9l3.2-3.2l-4.8-4.8l4.8-4.8L65.1,202z M71.5,205.2l4.8,4.8l-4.8,4.8l3.2,3.2l7.9-7.9l-7.9-7.9
	L71.5,205.2z M79.4,186.2H50.9v44.3h38v-34.8L79.4,186.2z M85.7,227.3H54v-38h22.2l9.5,9.5V227.3z"/>
<use xlink:href="#New_Symbol"  width="146.8" height="19.1" x="-73.4" y="-9.5" transform="matrix(1.5654 0 0 -1 208.1672 212.1837)" overflow="visible"/>
<use xlink:href="#New_Symbol"  width="146.8" height="19.1" x="-73.4" y="-9.5" transform="matrix(1.3942 0 0 -1 221.3338 272.6503)" overflow="visible"/>
<use xlink:href="#New_Symbol"  width="146.8" height="19.1" x="-73.4" y="-9.5" transform="matrix(0.9896 0 0 -1 250.4337 243.6503)" overflow="visible"/>
</svg>
