<?xml version="1.0" encoding="utf-8"?>
<!-- Generator: Adobe Illustrator 17.1.0, SVG Export Plug-In . SVG Version: 6.00 Build 0)  -->
<!DOCTYPE svg PUBLIC "-//W3C//DTD SVG 1.1//EN" "http://www.w3.org/Graphics/SVG/1.1/DTD/svg11.dtd">
<svg version="1.1" id="Layer_1" xmlns="http://www.w3.org/2000/svg" xmlns:xlink="http://www.w3.org/1999/xlink" x="0px" y="0px"
	 viewBox="36.7 284.5 500 331.7" enable-background="new 36.7 284.5 500 331.7" xml:space="preserve">
<g id="boundary">
	<path fill="none" stroke="#E88F24" stroke-width="4" stroke-miterlimit="10" d="M36.7,284.5v331.7h500V284.5H36.7L36.7,284.5z"/>
</g>
<g id="base">
	<g id="border_4_">
		<path d="M183.6,376.4c13.6,0,24.8,11.2,24.8,24.8v100.7c0,13.6-11.2,24.8-24.8,24.8H76.7c-13.6,0-24.8-11.2-24.8-24.8V401.1
			c0-13.6,11.2-24.8,24.8-24.8H183.6 M183.6,375.1H76.7c-14.2,0-25.8,11.8-25.8,25.8v100.7c0,14.2,11.8,25.8,25.8,25.8h106.9
			c14.2,0,25.8-11.8,25.8-25.8V400.9C209.4,386.8,197.7,375.1,183.6,375.1L183.6,375.1z"/>
	</g>
	<path d="M152.4,417.4c-7.1,0-12.9,5.8-12.9,12.9c0,4.7,2.6,8.8,6.4,11.1v1.8c0,0,0,12.9-12.9,12.9c-5.4,0-9.5,1.1-12.9,2.8v-30.3
		c3.8-2.3,6.4-6.4,6.4-11.1c0-7.1-5.8-12.9-12.9-12.9s-12.6,5.7-12.6,12.8c0,4.7,2.6,8.8,6.4,11.1v42.1c-3.8,2.3-6.4,6.4-6.4,11.1
		c0,7.1,5.8,12.9,12.9,12.9s12.9-5.8,12.9-12.9c0-3.4-1.3-6.4-3.4-8.6c1.8-2.3,5-4.1,9.9-4.1c25.5,0,25.7-25.7,25.7-25.7v-1.8
		c3.8-2.3,6.4-6.4,6.4-11.1C165.3,423.2,159.5,417.4,152.4,417.4z M113.8,411c3.5,0,6.4,2.8,6.4,6.4c0,3.5-2.8,6.4-6.4,6.4
		s-6.4-2.8-6.4-6.4C107.4,413.9,110.3,411,113.8,411z M113.8,488.1c-3.5,0-6.4-2.8-6.4-6.4s2.8-6.4,6.4-6.4s6.4,2.8,6.4,6.4
		C120.2,485.1,117.4,488.1,113.8,488.1z M152.4,436.6c-3.5,0-6.4-2.8-6.4-6.4s2.8-6.4,6.4-6.4c3.5,0,6.4,2.8,6.4,6.4
		S155.9,436.6,152.4,436.6z"/>
</g>
<g id="commit-1">
	<g>
		<g>
			<path d="M431.2,345.4c-1.7-6.8-7.8-11.8-15.2-11.8c-7.4,0-13.3,5-15.2,11.8h-12.3v7.8h12.3c1.7,6.8,7.8,11.8,15.2,11.8
				c7.4,0,13.3-5,15.2-11.8h12.3v-7.8H431.2z M416.1,357.1c-4.4,0-7.8-3.5-7.8-7.8c0-4.4,3.5-7.8,7.8-7.8c4.4,0,7.8,3.5,7.8,7.8
				S420.3,357.1,416.1,357.1z"/>
			<g id="border_1_">
				<path d="M435.5,306.8c13.6,0,24.8,11.2,24.8,24.8v38.3c0,13.6-11.2,24.8-24.8,24.8h-38.8c-13.6,0-24.8-11.2-24.8-24.8v-38.3
					c0-13.6,11.2-24.8,24.8-24.8H435.5 M435.5,305.8h-38.8c-14.2,0-25.8,11.8-25.8,25.8v38.3c0,14.2,11.8,25.8,25.8,25.8h38.8
					c14.2,0,25.8-11.8,25.8-25.8v-38.3C461.3,317.3,449.7,305.8,435.5,305.8L435.5,305.8z"/>
			</g>
		</g>
		<g>
			<g>
				<path fill="#231F20" d="M453.9,317.3c-6.5,0-11.9-5.4-11.9-11.9s5.4-11.9,11.9-11.9s11.9,5.4,11.9,11.9S460.6,317.3,453.9,317.3
					z"/>
				<path fill="#FFFFFF" d="M453.9,295c5.8,0,10.5,4.7,10.5,10.5c0,5.8-4.7,10.5-10.5,10.5s-10.5-4.7-10.5-10.5
					C443.6,299.6,448.2,295,453.9,295 M453.9,292.1c-7.4,0-13.3,6-13.3,13.3c0,7.4,6,13.3,13.3,13.3c7.4,0,13.3-6,13.3-13.3
					C467.2,298,461.3,292.1,453.9,292.1L453.9,292.1z"/>
			</g>
			<g>
				<text transform="matrix(1.0483 0 0 1 451.5059 309.5479)" fill="#FFFFFF" font-family="'ApexNew-Book'" font-size="14.2689">1</text>
			</g>
		</g>
	</g>
</g>
<g id="commit-2">
	<g>
		<g>
			<path d="M431.2,447.4c-1.7-6.8-7.8-11.8-15.2-11.8c-7.4,0-13.3,5-15.2,11.8h-12.3v7.8h12.3c1.7,6.8,7.8,11.8,15.2,11.8
				c7.4,0,13.3-5,15.2-11.8h12.3v-7.8H431.2z M416.1,459.2c-4.4,0-7.8-3.5-7.8-7.8c0-4.4,3.5-7.8,7.8-7.8c4.4,0,7.8,3.5,7.8,7.8
				C423.9,455.6,420.3,459.2,416.1,459.2z"/>
			<g id="border_2_">
				<path d="M435.5,409c13.6,0,24.8,11.2,24.8,24.8v38.3c0,13.6-11.2,24.8-24.8,24.8h-38.8c-13.6,0-24.8-11.2-24.8-24.8v-38.3
					c0-13.6,11.2-24.8,24.8-24.8L435.5,409 M435.5,407.9h-38.8c-14.2,0-25.8,11.8-25.8,25.8V472c0,14.2,11.8,25.8,25.8,25.8h38.8
					c14.2,0,25.8-11.8,25.8-25.8v-38.3C461.3,419.5,449.7,407.9,435.5,407.9L435.5,407.9z"/>
			</g>
		</g>
		<g>
			<g>
				<path fill="#231F20" d="M453.9,430.1c-6.5,0-11.9-5.4-11.9-11.9s5.4-11.9,11.9-11.9s11.9,5.4,11.9,11.9S460.6,430.1,453.9,430.1
					z"/>
				<path fill="#FFFFFF" d="M453.9,407.9c5.8,0,10.5,4.7,10.5,10.5s-4.7,10.5-10.5,10.5s-10.5-4.7-10.5-10.5
					C443.6,412.5,448.2,407.9,453.9,407.9 M453.9,405c-7.4,0-13.3,6-13.3,13.3c0,7.4,6,13.3,13.3,13.3c7.4,0,13.3-6,13.3-13.3
					C467.2,411,461.3,405,453.9,405L453.9,405z"/>
			</g>
			<g>
				<text transform="matrix(1.0483 0 0 1 450.2715 422.4541)" fill="#FFFFFF" font-family="'ApexNew-Book'" font-size="14.2689">2</text>
			</g>
		</g>
	</g>
</g>
<g>
	<g>
		<path d="M431.2,551.7c-1.7-6.8-7.8-11.8-15.2-11.8c-7.4,0-13.3,5-15.2,11.8h-12.3v7.8h12.3c1.7,6.8,7.8,11.8,15.2,11.8
			c7.4,0,13.3-5,15.2-11.8h12.3v-7.8H431.2z M416.1,563.4c-4.4,0-7.8-3.5-7.8-7.8c0-4.4,3.5-7.8,7.8-7.8c4.4,0,7.8,3.5,7.8,7.8
			C423.9,559.8,420.3,563.4,416.1,563.4z"/>
		<g id="border_3_">
			<path d="M435.5,513.2c13.6,0,24.8,11.2,24.8,24.8v38.3c0,13.6-11.2,24.8-24.8,24.8h-38.8c-13.6,0-24.8-11.2-24.8-24.8v-38.3
				c0-13.6,11.2-24.8,24.8-24.8H435.5 M435.5,512.2h-38.8c-14.2,0-25.8,11.8-25.8,25.8v38.2c0,14.2,11.8,25.8,25.8,25.8h38.8
				c14.2,0,25.8-11.8,25.8-25.8v-38.3C461.3,523.8,449.7,512.2,435.5,512.2L435.5,512.2z"/>
		</g>
	</g>
	<g>
		<g>
			<path fill="#231F20" d="M453.9,534.3c-6.5,0-11.9-5.4-11.9-11.9s5.4-11.9,11.9-11.9s11.9,5.4,11.9,11.9
				C465.8,528.9,460.6,534.3,453.9,534.3z"/>
			<path fill="#FFFFFF" d="M453.9,512.2c5.8,0,10.5,4.7,10.5,10.5c0,5.8-4.7,10.5-10.5,10.5s-10.5-4.7-10.5-10.5
				C443.6,516.8,448.2,512.2,453.9,512.2 M453.9,509.2c-7.4,0-13.3,6-13.3,13.3c0,7.4,6,13.3,13.3,13.3c7.4,0,13.3-6,13.3-13.3
				S461.3,509.2,453.9,509.2L453.9,509.2z"/>
		</g>
		<g>
			<text transform="matrix(1.0483 0 0 1 450.1973 526.6494)" fill="#FFFFFF" font-family="'ApexNew-Book'" font-size="14.2689">3</text>
		</g>
	</g>
</g>
<path display="none" fill="none" stroke="#FFFFFF" stroke-width="5" stroke-miterlimit="10" d="M458.9,728.4
	c0-27.6-22.4-49.9-49.9-49.9"/>
<g>
	<g>
		<path fill="#231F20" d="M361.4,359c-0.4,0-0.8-0.2-1.1-0.4c-0.3-0.3-0.4-0.7-0.4-1.1c0-0.3,0.1-0.5,0.2-0.7l0,0l0.4-0.4l5.2-4.8
			h-10.1v-3h10.1l-5.2-4.8c-0.6-0.6-0.6-1.6,0-2.1c0.3-0.3,0.7-0.4,1-0.4c0.2,0,0.4,0,0.6,0.1l0.1-0.1l0.4,0.3l9.2,8.5l-9.2,8.5
			C362.2,358.8,361.8,359,361.4,359z"/>
		<path fill="#FFFFFF" d="M361.4,341.6c0.2,0,0.5,0.1,0.7,0.2l0,0l8.8,8.2l-8.8,8.2c-0.2,0.2-0.5,0.3-0.7,0.3
			c-0.3,0-0.5-0.1-0.7-0.3c-0.4-0.4-0.4-1,0-1.4c0,0,0,0,0.1,0l0,0l6.1-5.7H356c0-0.7,0-1.3,0-2h10.9l-6.1-5.7c-0.4-0.4-0.4-1,0-1.4
			C360.9,341.7,361.2,341.6,361.4,341.6 M362,340.4l-0.2,0.2c-0.1,0-0.3,0-0.4,0c-0.5,0-1,0.2-1.4,0.6c-0.4,0.4-0.6,0.9-0.6,1.4
			c0,0.5,0.2,1,0.6,1.4l4.3,4H356h-1v1v2v1h1h8.3l-4.3,4l-0.7,0.7l0.2,0.2c-0.1,0.2-0.1,0.4-0.1,0.6c0,0.5,0.2,1,0.6,1.4
			c0.4,0.4,0.9,0.6,1.4,0.6c0.5,0,1-0.2,1.4-0.6l8.8-8.2l0.8-0.7l-0.8-0.7l-8.8-8.2L362,340.4L362,340.4z"/>
	</g>
	<g>
		<path fill="none" stroke="#FFFFFF" stroke-width="4" stroke-miterlimit="10" d="M357.1,350.1h-19.9c-9.9,0-18,8.1-18,18v36.4
			c0,9.9-8.1,18-18,18h-91.7"/>
		<path fill="none" stroke="#231F20" stroke-width="2" stroke-miterlimit="10" d="M357.1,350.1h-19.9c-9.9,0-18,8.1-18,18v36.4
			c0,9.9-8.1,18-18,18h-91.7"/>
	</g>
</g>
<g>
	<g>
		<path fill="#231F20" d="M361.4,567.6c-0.4,0-0.8-0.2-1-0.4c-0.3-0.3-0.4-0.7-0.4-1.1s0.2-0.8,0.4-1.1l5.2-4.9h-10.1v-3h10.1
			l-5.3-4.9l0,0l-0.3-0.3l0-0.1c-0.1-0.2-0.2-0.5-0.2-0.7c0-0.4,0.2-0.8,0.4-1.1c0.3-0.3,0.7-0.4,1.1-0.4s0.8,0.2,1.1,0.4l9.2,8.5
			l-9.6,8.9l-0.1-0.1C361.8,567.5,361.6,567.6,361.4,567.6z"/>
		<path fill="#FFFFFF" d="M361.4,550.2c0.3,0,0.5,0.1,0.7,0.3l8.8,8.2l-8.8,8.2l0,0c-0.2,0.2-0.4,0.2-0.7,0.2
			c-0.3,0-0.5-0.1-0.7-0.3c-0.4-0.4-0.4-1,0-1.4l6.1-5.7H356c0-0.7,0-1.3,0-2h10.9l-6.1-5.7l0,0c0,0,0,0-0.1,0c-0.4-0.4-0.4-1,0-1.4
			C360.9,550.3,361.1,550.2,361.4,550.2 M361.4,549.2c-0.5,0-1,0.2-1.4,0.6c-0.4,0.4-0.6,0.9-0.6,1.4c0,0.2,0,0.4,0.1,0.6l-0.2,0.2
			l0.7,0.7l0,0l0,0l0,0l4.3,4H356h-1v1v2v1h1h8.3l-4.3,4c-0.4,0.4-0.6,0.9-0.6,1.4c0,0.5,0.2,1,0.6,1.4c0.4,0.4,0.9,0.6,1.4,0.6
			c0.1,0,0.3,0,0.4,0l0.2,0.2l0.7-0.7l8.8-8.2l0.8-0.7l-0.8-0.7l-8.8-8.2C362.4,549.4,361.9,549.2,361.4,549.2L361.4,549.2z"/>
	</g>
	<g>
		<path fill="none" stroke="#FFFFFF" stroke-width="4" stroke-miterlimit="10" d="M209.4,486.2h91.7c9.9,0,18,8.1,18,18v36.4
			c0,9.9,8.1,18,18,18h19.9"/>
		<path fill="none" stroke="#231F20" stroke-width="2" stroke-miterlimit="10" d="M209.4,486.2h91.7c9.9,0,18,8.1,18,18v36.4
			c0,9.9,8.1,18,18,18h19.9"/>
	</g>
</g>
<g>
	<path fill="#231F20" d="M361.4,461.8c-0.4,0-0.8-0.2-1-0.4c-0.3-0.3-0.4-0.7-0.4-1.1s0.2-0.8,0.4-1.1l5.2-4.9h-10.1v-3h10.1
		l-5.3-4.9l0,0l-0.3-0.3l0-0.1c-0.1-0.2-0.2-0.5-0.2-0.7c0-0.4,0.2-0.8,0.4-1.1c0.3-0.3,0.7-0.4,1.1-0.4s0.8,0.2,1.1,0.4l9.2,8.5
		l-9.6,8.9l-0.1-0.1C361.8,461.8,361.6,461.8,361.4,461.8z"/>
	<path fill="#FFFFFF" d="M361.4,444.5c0.3,0,0.5,0.1,0.7,0.3l8.8,8.2l-8.8,8.2l0,0c-0.2,0.2-0.4,0.2-0.7,0.2c-0.3,0-0.5-0.1-0.7-0.3
		c-0.4-0.4-0.4-1,0-1.4l6.1-5.7H356c0-0.7,0-1.3,0-2h10.9l-6.1-5.7l0,0c0,0,0,0-0.1,0c-0.4-0.4-0.4-1,0-1.4
		C360.9,444.6,361.1,444.5,361.4,444.5 M361.4,443.5c-0.5,0-1,0.2-1.4,0.6c-0.4,0.4-0.6,0.9-0.6,1.4c0,0.2,0,0.4,0.1,0.6l-0.2,0.2
		l0.7,0.7l0,0l0,0l0,0l4.3,4H356h-1v1v2v1h1h8.3l-4.3,4c-0.4,0.4-0.6,0.9-0.6,1.4c0,0.5,0.2,1,0.6,1.4c0.4,0.4,0.9,0.6,1.4,0.6
		c0.1,0,0.3,0,0.4,0l0.2,0.2l0.7-0.7l8.8-8.2l0.8-0.7l-0.8-0.7l-8.8-8.2C362.4,443.7,361.9,443.5,361.4,443.5L361.4,443.5z"/>
</g>
<g>
	<line fill="none" stroke="#FFFFFF" stroke-width="4" stroke-miterlimit="10" x1="209.4" y1="452.9" x2="357.1" y2="452.9"/>
	<line fill="none" stroke="#231F20" stroke-width="2" stroke-miterlimit="10" x1="209.4" y1="452.9" x2="357.1" y2="452.9"/>
</g>
</svg>
