<svg class="icon-svg" viewBox="0 0 65 65"><title>icon-sm-migration</title><path d="M47.38,21.55H37.2a1.25,1.25,0,1,0,0,2.49h8.93V36.76H18.87V24h8a1.25,1.25,0,0,0,0-2.49H17.62a1.25,1.25,0,0,0-1.25,1.25V42a1.25,1.25,0,0,0,1.25,1.25H28.09a4.26,4.26,0,0,1-1,2.3,2.73,2.73,0,0,1-2,.75,1.25,1.25,0,1,0,0,2.49,5.16,5.16,0,0,0,3.83-1.51,7,7,0,0,0,1.76-4h3.8a7,7,0,0,0,1.76,4A5.16,5.16,0,0,0,40,48.77a1.25,1.25,0,1,0,0-2.49,2.73,2.73,0,0,1-2-.75,4.26,4.26,0,0,1-1-2.3H47.38A1.25,1.25,0,0,0,48.62,42V22.79A1.25,1.25,0,0,0,47.38,21.55ZM18.87,40.74V39.25H46.13v1.49H18.87Z" fill="#287fcb"/><path d="M35.94,29.81a1.24,1.24,0,0,0-1.76,0l-0.43.43V17.47a1.25,1.25,0,1,0-2.49,0V30.24l-0.43-.43a1.25,1.25,0,0,0-1.76,1.76l2.56,2.56a1.24,1.24,0,0,0,1.76,0l2.56-2.56A1.24,1.24,0,0,0,35.94,29.81Z" fill="#287fcb"/><path d="M32.5,65A32.5,32.5,0,1,1,65,32.5,32.54,32.54,0,0,1,32.5,65Zm0-63A30.51,30.51,0,1,0,63,32.5,30.54,30.54,0,0,0,32.5,2Z" fill="#efefef"/></svg>
