<svg class="icon-svg" viewBox="0 0 65 65"><title>icon-sm-git</title><path d="M32.5,65A32.5,32.5,0,1,1,65,32.5,32.54,32.54,0,0,1,32.5,65Zm0-63A30.51,30.51,0,1,0,63,32.5,30.54,30.54,0,0,0,32.5,2Z" fill="#efefef"/><path d="M52,31.62L33.38,13a1.28,1.28,0,0,0-1.76,0L13,31.62a1.24,1.24,0,0,0,0,1.76L31.62,52a1.24,1.24,0,0,0,1.76,0L52,33.38A1.24,1.24,0,0,0,52,31.62ZM32.5,49.31L15.69,32.5,27,21.24l2.46,2.46a3.46,3.46,0,0,0,1.93,4.67v8.92a3.5,3.5,0,1,0,2.49,0V28.36L34,28.3l3.12,3.12a3.49,3.49,0,1,0,1.76-1.76l-3.12-3.12a3.48,3.48,0,0,0-4.6-4.6l-2.46-2.46,3.79-3.79L49.31,32.5Z" fill="#287fcb"/></svg>
