<svg class="logo" viewBox="0 0 188.55 25.52"><defs><clipPath id="clip-path" transform="translate(1.2 -0.4)"><path d="M16.24,11.57H9.42a0.33,0.33,0,0,0-.33.33v3.32a0.33,0.33,0,0,0,.33.33h2.66v4.13a7.47,7.47,0,0,1-2.26.22c-1.93,0-4.67-.69-4.67-6.68S8,6.46,10.62,6.46A11.05,11.05,0,0,1,14.53,7a0.32,0.32,0,0,0,.37-0.33L15.66,3.5a0.39,0.39,0,0,0-.11-0.26c-0.26-.18-1.83-1.06-5.77-1.06-4.49,0-9.16,2-9.16,11.24S6,24.09,10.48,24.09a11.2,11.2,0,0,0,6-1.57,0.25,0.25,0,0,0,.11-0.26V11.89a0.39,0.39,0,0,0-.33-0.33" fill="none"/></clipPath><clipPath id="clip-path-2" transform="translate(1.2 -0.4)"><path d="M51.62,3.32A0.33,0.33,0,0,0,51.29,3H47.46a0.33,0.33,0,0,0-.33.33v7.37h-6V3.32A0.33,0.33,0,0,0,40.81,3H37a0.33,0.33,0,0,0-.33.33v20a0.33,0.33,0,0,0,.33.33h3.83a0.33,0.33,0,0,0,.33-0.33V14.78h6v8.54a0.33,0.33,0,0,0,.33.33h3.83a0.33,0.33,0,0,0,.33-0.33v-20" fill="none"/></clipPath><clipPath id="clip-path-3" transform="translate(1.2 -0.4)"><path d="M23.62,5.94a2.48,2.48,0,1,0-2.48,2.48,2.46,2.46,0,0,0,2.48-2.48" fill="none"/></clipPath><clipPath id="clip-path-4" transform="translate(1.2 -0.4)"><path d="M23.33,19.12V9.89A0.33,0.33,0,0,0,23,9.56H19.2a0.36,0.36,0,0,0-.33.37V23.14a0.47,0.47,0,0,0,.55.51h3.43a0.42,0.42,0,0,0,.47-0.51v-4" fill="none"/></clipPath><clipPath id="clip-path-5" transform="translate(1.2 -0.4)"><path d="M66.51,9.59h-3.8a0.33,0.33,0,0,0-.33.33v9.82a4.28,4.28,0,0,1-2.34.69c-1.39,0-1.75-.62-1.75-2V9.92A0.33,0.33,0,0,0,58,9.59H54.1a0.33,0.33,0,0,0-.33.33v9.2c0,4,2.23,5,5.29,5a8.83,8.83,0,0,0,4.53-1.39s0.11,0.73.15,0.8a0.35,0.35,0,0,0,.29.18h2.45a0.33,0.33,0,0,0,.33-0.33V9.92a0.28,0.28,0,0,0-.29-0.33" fill="none"/></clipPath><clipPath id="clip-path-6" transform="translate(1.2 -0.4)"><path d="M75.64,20.4a4.73,4.73,0,0,1-2.23-.62V13.43a4.73,4.73,0,0,1,2-.62c1.39-.11,2.7.29,2.7,3.54C78,19.78,77.46,20.47,75.64,20.4Zm1.5-11.24a7.16,7.16,0,0,0-3.61.95V3.32A0.33,0.33,0,0,0,73.19,3H69.36a0.33,0.33,0,0,0-.33.33v20a0.33,0.33,0,0,0,.33.33H72a0.37,0.37,0,0,0,.29-0.18,5.16,5.16,0,0,0,.15-0.91A6.87,6.87,0,0,0,77,24.05c3.5,0,5.51-1.75,5.51-7.92S79.29,9.16,77.13,9.16Z" fill="none"/></clipPath><clipPath id="clip-path-7" transform="translate(1.2 -0.4)"><path d="M34.28,9.56H31.39V5.76a0.21,0.21,0,0,0-.26-0.22H27.23a0.19,0.19,0,0,0-.22.22V9.67l-2.08.51a0.28,0.28,0,0,0-.22.29v2.45a0.33,0.33,0,0,0,.33.33h2v5.91C27,23.54,30.12,24,32.2,24a9.22,9.22,0,0,0,2.3-.37,0.29,0.29,0,0,0,.18-0.29v-2.7a0.33,0.33,0,0,0-.33-0.33c-0.18,0-.58.07-1,0.07-1.42,0-1.9-.66-1.9-1.5V13.25h2.88a0.33,0.33,0,0,0,.33-0.33V9.85a0.39,0.39,0,0,0-.37-0.29" fill="none"/></clipPath></defs><title>logo-github-services</title><path d="M92.07,8.43c0,3,1.72,3.25,5,3.65,4.05,0.51,6.57,1.53,6.57,5.59,0,2.81-1.5,6.24-7.67,6.24a16.94,16.94,0,0,1-5.8-1.1V21A15.65,15.65,0,0,0,96,22.19c4.31,0,5.62-2,5.62-4.53,0-3-1.2-3.54-4.67-4-4.89-.62-6.79-1.75-6.79-5.29,0-2.41,1.17-5.77,7-5.77a12.42,12.42,0,0,1,5.4,1V5.43a12.73,12.73,0,0,0-5.44-1.1C93,4.34,92.07,6.24,92.07,8.43Zm20.41,1.1c4.71,0,5.26,3.21,5.26,7.19v0.88H108.6c0.11,2.41.73,4.6,3.87,4.6a10.47,10.47,0,0,0,4.56-.77v1.64a11.15,11.15,0,0,1-4.56.84c-4.67,0-5.8-3.21-5.8-7.19S107.76,9.52,112.47,9.52ZM108.57,16h7.19c0-2.48-.15-4.78-3.32-4.78S108.67,13.54,108.57,16Zm20.08-4.56a5.11,5.11,0,0,0-1.64-.22,7.45,7.45,0,0,0-4,.88v11.5h-1.93V9.81h1.1l0.4,1.17A7.43,7.43,0,0,1,127,9.56a11,11,0,0,1,1.64.15v1.75h0ZM132,9.81l3.94,11.35,4-11.35H142l-5.4,14.13h-1.39L129.85,9.81H132Zm13.8-5.55a1.39,1.39,0,1,1-1.39,1.39A1.39,1.39,0,0,1,145.76,4.26Zm-0.95,16.61V9.81h1.9V21.09c0,1,.29,1.24,1.17,1.24V23.9C145.87,23.9,144.81,23.1,144.81,20.87ZM156.57,9.52a11.14,11.14,0,0,1,4.13.69v1.64a11.88,11.88,0,0,0-4.16-.62c-3.5,0-3.87,2.74-3.87,5.48s0.4,5.48,3.87,5.48a12.81,12.81,0,0,0,4.16-.62v1.64a11.14,11.14,0,0,1-4.13.69c-4.67,0-5.84-3.21-5.84-7.19S151.9,9.52,156.57,9.52Zm12.7,0c4.71,0,5.26,3.21,5.26,7.19v0.88H165.4c0.11,2.41.73,4.6,3.87,4.6a10.47,10.47,0,0,0,4.56-.77v1.64a11.15,11.15,0,0,1-4.56.84c-4.67,0-5.8-3.21-5.8-7.19S164.6,9.52,169.27,9.52ZM165.4,16h7.19c0-2.48-.15-4.78-3.32-4.78S165.48,13.54,165.4,16Zm17.08-.33c3.94,0.37,4.86,1.68,4.86,3.94S186,23.9,181.79,23.9a13.5,13.5,0,0,1-4.13-.69V21.57a12.74,12.74,0,0,0,4.16.62c2.88,0,3.65-1.2,3.65-2.52s-0.4-2.15-3.14-2.37c-4-.37-4.86-1.79-4.86-3.69s1.28-4.09,5.18-4.09a10.51,10.51,0,0,1,4,.69v1.64a11.42,11.42,0,0,0-4-.62c-2.74,0-3.32,1-3.32,2.37S179.82,15.47,182.49,15.69Z" transform="translate(1.2 -0.4)"/><g clip-path="url(#clip-path)"><rect width="19.57" height="25.52"/></g><g clip-path="url(#clip-path-2)"><rect x="36.07" y="0.8" width="18.58" height="24.28"/></g><g clip-path="url(#clip-path-3)"><rect x="18.03" y="1.24" width="8.62" height="8.62"/></g><g clip-path="url(#clip-path-4)"><rect x="18.25" y="7.34" width="8.14" height="17.74"/></g><g clip-path="url(#clip-path-5)"><rect x="53.19" y="7.37" width="16.68" height="18.11"/></g><g clip-path="url(#clip-path-6)"><rect x="68.37" y="0.8" width="17.12" height="24.68"/></g><g clip-path="url(#clip-path-7)"><rect x="24.06" y="3.32" width="13.62" height="22.12"/></g></svg>
