<?xml version="1.0" encoding="utf-8"?>
<!-- Generator: Adobe Illustrator 17.1.0, SVG Export Plug-In . SVG Version: 6.00 Build 0)  -->
<!DOCTYPE svg PUBLIC "-//W3C//DTD SVG 1.1//EN" "http://www.w3.org/Graphics/SVG/1.1/DTD/svg11.dtd">
<svg version="1.1" id="Layer_1" xmlns="http://www.w3.org/2000/svg" xmlns:xlink="http://www.w3.org/1999/xlink" x="0px" y="0px"
	 viewBox="0 271 500 216.8" enable-background="new 0 271 500 216.8" xml:space="preserve">
<symbol  id="Simple_Arrow" viewBox="-29.5 -12 59 24">
	<g>
		
			<polygon fill="none" stroke="#FFFFFF" stroke-width="3" stroke-linecap="round" stroke-linejoin="round" stroke-miterlimit="10" points="
			19.3,7.7 17.9,6.2 24,0.5 -28,0.5 -28,-1.5 24,-1.5 17.9,-7.2 19.3,-8.7 28,-0.5 		"/>
		<polygon fill="#221F1F" points="19.3,7.7 17.9,6.2 24,0.5 -28,0.5 -28,-1.5 24,-1.5 17.9,-7.2 19.3,-8.7 28,-0.5 		"/>
	</g>
	<path fill="#221F1F" d="M-27-0.5c0-0.6-0.4-1-1-1s-1,0.4-1,1s0.4,1,1,1S-27,0.1-27-0.5z"/>
	<path fill="#221F1F" d="M19.3,7.7c0.4-0.4,0.4-1,0-1.4s-1-0.4-1.4,0s-0.4,1,0,1.4C18.2,8.1,18.9,8.1,19.3,7.7z"/>
	<path fill="#221F1F" d="M19.3-7.2c0.4-0.4,0.4-1,0-1.4s-1-0.4-1.4,0s-0.4,1,0,1.4S18.9-6.8,19.3-7.2z"/>
	<line display="none" fill="none" stroke="#ED358C" stroke-miterlimit="10" x1="-18.5" y1="12" x2="-18.5" y2="-12"/>
	<line display="none" fill="none" stroke="#ED358C" stroke-miterlimit="10" x1="10.2" y1="12" x2="10.2" y2="-12"/>
</symbol>
<g id="base">
	<g id="border_32_">
		<path fill="#FFFFFF" d="M22.5,476.1c-6.3,0-11.5-5.2-11.5-11.5V436c0-6.3,5.2-11.5,11.5-11.5h101.3c6.3,0,11.5,5.2,11.5,11.5v28.6
			c0,6.3-5.2,11.5-11.5,11.5H22.5z"/>
		<path fill="#3F81C3" d="M123.8,426.5c5.2,0,9.5,4.3,9.5,9.5v28.6c0,5.2-4.3,9.5-9.5,9.5H22.5c-5.2,0-9.5-4.3-9.5-9.5V436
			c0-5.2,4.3-9.5,9.5-9.5H123.8 M123.8,422.6H22.5C15,422.6,9,428.6,9,436v28.6c0,7.5,6,13.5,13.5,13.5h101.3
			c7.5,0,13.5-6,13.5-13.5V436C137.3,428.6,131.2,422.6,123.8,422.6L123.8,422.6z"/>
	</g>
	<g id="border_2_">
		<path fill="#414141" d="M123.8,427.3c4.8,0,8.7,3.9,8.7,8.7v28.6c0,4.8-3.9,8.7-8.7,8.7H22.5c-4.8,0-8.7-3.9-8.7-8.7V436
			c0-4.8,3.9-8.7,8.7-8.7H123.8 M123.8,426.5H22.5c-5.2,0-9.5,4.3-9.5,9.5v28.6c0,5.2,4.3,9.5,9.5,9.5h101.4c5.2,0,9.5-4.3,9.5-9.5
			V436C133.4,430.8,129.1,426.5,123.8,426.5L123.8,426.5z"/>
	</g>
	<g id="border_31_">
		<path fill="#FFFFFF" d="M22.5,417.3c-6.3,0-11.5-5.2-11.5-11.5v-28.6c0-6.3,5.2-11.5,11.5-11.5h101.3c6.3,0,11.5,5.2,11.5,11.5
			v28.6c0,6.3-5.2,11.5-11.5,11.5H22.5z"/>
		<path fill="#3F81C3" d="M123.8,367.7c5.2,0,9.5,4.3,9.5,9.5v28.6c0,5.2-4.3,9.5-9.5,9.5H22.5c-5.2,0-9.5-4.3-9.5-9.5v-28.6
			c0-5.2,4.3-9.5,9.5-9.5L123.8,367.7 M123.8,363.8H22.5c-7.5,0-13.5,6-13.5,13.5v28.6c0,7.5,6,13.5,13.5,13.5h101.3
			c7.5,0,13.5-6,13.5-13.5v-28.6C137.3,369.8,131.2,363.8,123.8,363.8L123.8,363.8z"/>
	</g>
	<text transform="matrix(1 0 0 1 46.6114 457.7734)" fill="#221F1F" font-family="'HelveticaNeue-Light'" font-size="22.0153">File C</text>
	<g id="border_6_">
		<path fill="#414141" d="M123.8,368.5c4.8,0,8.7,3.9,8.7,8.7v28.6c0,4.8-3.9,8.7-8.7,8.7H22.5c-4.8,0-8.7-3.9-8.7-8.7v-28.6
			c0-4.8,3.9-8.7,8.7-8.7H123.8 M123.8,367.7H22.5c-5.2,0-9.5,4.3-9.5,9.5v28.6c0,5.2,4.3,9.5,9.5,9.5h101.4c5.2,0,9.5-4.3,9.5-9.5
			v-28.6C133.4,372,129.1,367.7,123.8,367.7L123.8,367.7z"/>
	</g>
	<g id="border_3_">
		<path fill="#FFFFFF" d="M22.5,358.2c-6.3,0-11.5-5.2-11.5-11.5v-28.6c0-6.3,5.2-11.5,11.5-11.5h101.4c6.3,0,11.5,5.2,11.5,11.5
			v28.6c0,6.3-5.2,11.5-11.5,11.5H22.5z"/>
		<path fill="#3F81C3" d="M123.9,308.6c5.2,0,9.5,4.3,9.5,9.5v28.6c0,5.2-4.3,9.5-9.5,9.5H22.6c-5.2,0-9.5-4.3-9.5-9.5v-28.6
			c0-5.2,4.3-9.5,9.5-9.5H123.9 M123.9,304.7H22.6c-7.5,0-13.5,6-13.5,13.5v28.6c0,7.5,6,13.5,13.5,13.5H124c7.5,0,13.5-6,13.5-13.5
			v-28.6C137.4,310.7,131.4,304.7,123.9,304.7L123.9,304.7z"/>
	</g>
	<text transform="matrix(1 0 0 1 47.0186 399.0078)" fill="#221F1F" font-family="'HelveticaNeue-Light'" font-size="22.0153">File B</text>
	<g id="border_1_">
		<path fill="#414141" d="M123.9,309.4c4.8,0,8.7,3.9,8.7,8.7v28.6c0,4.8-3.9,8.7-8.7,8.7H22.6c-4.8,0-8.7-3.9-8.7-8.7v-28.6
			c0-4.8,3.9-8.7,8.7-8.7H123.9 M123.9,308.6H22.6c-5.2,0-9.5,4.3-9.5,9.5v28.6c0,5.2,4.3,9.5,9.5,9.5H124c5.2,0,9.5-4.3,9.5-9.5
			v-28.6C133.4,312.9,129.2,308.6,123.9,308.6L123.9,308.6z"/>
	</g>
	<text transform="matrix(1 0 0 1 47.4258 340.0865)" fill="#221F1F" font-family="'HelveticaNeue-Light'" font-size="22.0153">File A</text>
	<g id="border_4_" opacity="0.3">
		<path fill="#414141" d="M128.5,296.2c9.6,0,17.5,7.9,17.5,17.5v155.9c0,9.6-7.9,17.5-17.5,17.5H18.2c-9.6,0-17.5-7.9-17.5-17.5
			V313.7c0-9.6,7.9-17.5,17.5-17.5H128.5 M128.5,295.5H18.2c-10,0-18.2,8.3-18.2,18.2v155.9c0,10,8.3,18.2,18.2,18.2h110.3
			c10,0,18.2-8.3,18.2-18.2V313.7C146.8,303.7,138.5,295.5,128.5,295.5L128.5,295.5z"/>
	</g>
	<text transform="matrix(1.0483 0 0 1 51.3252 281.5723)" fill="#231F20" font-family="'ApexNew-Book'" font-size="11.1076">Version 1</text>
</g>
<g id="step-1">
	<g id="border_45_">
		<path fill="#414141" d="M300.8,427.3c4.8,0,8.7,3.9,8.7,8.7v28.6c0,4.8-3.9,8.7-8.7,8.7H199.4c-4.8,0-8.7-3.9-8.7-8.7V436
			c0-4.8,3.9-8.7,8.7-8.7H300.8 M300.8,426.5H199.4c-5.2,0-9.5,4.3-9.5,9.5v28.6c0,5.2,4.3,9.5,9.5,9.5h101.4c5.2,0,9.5-4.3,9.5-9.5
			V436C310.3,430.8,306,426.5,300.8,426.5L300.8,426.5z"/>
	</g>
	<g id="border_43_">
		<path fill="#FFFFFF" d="M199.4,417.3c-6.3,0-11.5-5.2-11.5-11.5v-28.6c0-6.3,5.2-11.5,11.5-11.5h101.3c6.3,0,11.5,5.2,11.5,11.5
			v28.6c0,6.3-5.2,11.5-11.5,11.5H199.4z"/>
		<path fill="#3F81C3" d="M300.7,367.7c5.2,0,9.5,4.3,9.5,9.5v28.6c0,5.2-4.3,9.5-9.5,9.5H199.4c-5.2,0-9.5-4.3-9.5-9.5v-28.6
			c0-5.2,4.3-9.5,9.5-9.5L300.7,367.7 M300.7,363.8H199.4c-7.5,0-13.5,6-13.5,13.5v28.6c0,7.5,6,13.5,13.5,13.5h101.3
			c7.5,0,13.5-6,13.5-13.5v-28.6C314.2,369.8,308.2,363.8,300.7,363.8L300.7,363.8z"/>
	</g>
	<text transform="matrix(1 0 0 1 223.5397 457.7734)" fill="#221F1F" font-family="'HelveticaNeue-Light'" font-size="22.0153">File C</text>
	<g id="border_41_">
		<path fill="#414141" d="M300.8,368.5c4.8,0,8.7,3.9,8.7,8.7v28.6c0,4.8-3.9,8.7-8.7,8.7H199.4c-4.8,0-8.7-3.9-8.7-8.7v-28.6
			c0-4.8,3.9-8.7,8.7-8.7H300.8 M300.8,367.7H199.4c-5.2,0-9.5,4.3-9.5,9.5v28.6c0,5.2,4.3,9.5,9.5,9.5h101.4c5.2,0,9.5-4.3,9.5-9.5
			v-28.6C310.3,372,306,367.7,300.8,367.7L300.8,367.7z"/>
	</g>
	<text transform="matrix(1 0 0 1 223.9469 399.0078)" fill="#221F1F" font-family="'HelveticaNeue-Light'" font-size="22.0153">File B</text>
	<g id="border_37_">
		<path fill="#414141" d="M300.9,309.4c4.8,0,8.7,3.9,8.7,8.7v28.6c0,4.8-3.9,8.7-8.7,8.7H199.5c-4.8,0-8.7-3.9-8.7-8.7v-28.6
			c0-4.8,3.9-8.7,8.7-8.7H300.9 M300.9,308.6H199.5c-5.2,0-9.5,4.3-9.5,9.5v28.6c0,5.2,4.3,9.5,9.5,9.5h101.4c5.2,0,9.5-4.3,9.5-9.5
			v-28.6C310.4,312.9,306.1,308.6,300.9,308.6L300.9,308.6z"/>
	</g>
	<text transform="matrix(1 0 0 1 224.354 340.0865)" fill="#221F1F" font-family="'HelveticaNeue-Light'" font-size="22.0153">File A</text>
	<g id="border_9_" opacity="0.3">
		<path fill="#414141" d="M305.5,296.2c9.6,0,17.5,7.9,17.5,17.5v155.9c0,9.6-7.9,17.5-17.5,17.5H195.2c-9.6,0-17.5-7.9-17.5-17.5
			V313.7c0-9.6,7.9-17.5,17.5-17.5H305.5 M305.5,295.5H195.2c-10,0-18.2,8.3-18.2,18.2v155.9c0,10,8.3,18.2,18.2,18.2h110.3
			c10,0,18.2-8.3,18.2-18.2V313.7C323.7,303.7,315.5,295.5,305.5,295.5L305.5,295.5z"/>
	</g>
	
		<use xlink:href="#Simple_Arrow"  width="59" height="24" id="XMLID_5_" x="-29.5" y="-12" transform="matrix(1.3883 0 0 -0.7934 164.7332 332.6184)" overflow="visible"/>
	
		<use xlink:href="#Simple_Arrow"  width="59" height="24" id="XMLID_1_" x="-29.5" y="-12" transform="matrix(1.3883 0 0 -0.7934 164.7332 392.6392)" overflow="visible"/>
	
		<use xlink:href="#Simple_Arrow"  width="59" height="24" id="XMLID_2_" x="-29.5" y="-12" transform="matrix(1.3883 0 0 -0.7934 164.7332 450.3065)" overflow="visible"/>
	<text transform="matrix(1.0483 0 0 1 227.2925 281.5723)" fill="#231F20" font-family="'ApexNew-Book'" font-size="11.1076">Version 2</text>
</g>
<g id="step-2" display="none">
	<g id="border_59_" display="inline">
		<path fill="#414141" d="M477.1,427.3c4.8,0,8.7,3.9,8.7,8.7v28.6c0,4.8-3.9,8.7-8.7,8.7H375.7c-4.8,0-8.7-3.9-8.7-8.7V436
			c0-4.8,3.9-8.7,8.7-8.7H477.1 M477.1,426.5H375.7c-5.2,0-9.5,4.3-9.5,9.5v28.6c0,5.2,4.3,9.5,9.5,9.5h101.4c5.2,0,9.5-4.3,9.5-9.5
			V436C486.6,430.8,482.3,426.5,477.1,426.5L477.1,426.5z"/>
	</g>
	<g id="border_57_" display="inline">
		<path fill="#FFFFFF" d="M375.7,417.3c-6.3,0-11.5-5.2-11.5-11.5v-28.6c0-6.3,5.2-11.5,11.5-11.5h101.4c6.3,0,11.5,5.2,11.5,11.5
			v28.6c0,6.3-5.2,11.5-11.5,11.5H375.7z"/>
		<path fill="#3F81C3" d="M477.1,367.7c5.2,0,9.5,4.3,9.5,9.5v28.6c0,5.2-4.3,9.5-9.5,9.5H375.7c-5.2,0-9.5-4.3-9.5-9.5v-28.6
			c0-5.2,4.3-9.5,9.5-9.5L477.1,367.7 M477.1,363.8H375.7c-7.5,0-13.5,6-13.5,13.5v28.6c0,7.5,6,13.5,13.5,13.5h101.4
			c7.5,0,13.5-6,13.5-13.5v-28.6C490.6,369.8,484.4,363.8,477.1,363.8L477.1,363.8z"/>
	</g>
	
		<text transform="matrix(1 0 0 1 399.8448 457.7734)" display="inline" fill="#221F1F" font-family="'HelveticaNeue-Light'" font-size="22.0153">File C</text>
	<g id="border_55_" display="inline">
		<path fill="#414141" d="M477.1,368.5c4.8,0,8.7,3.9,8.7,8.7v28.6c0,4.8-3.9,8.7-8.7,8.7H375.7c-4.8,0-8.7-3.9-8.7-8.7v-28.6
			c0-4.8,3.9-8.7,8.7-8.7H477.1 M477.1,367.7H375.7c-5.2,0-9.5,4.3-9.5,9.5v28.6c0,5.2,4.3,9.5,9.5,9.5h101.4c5.2,0,9.5-4.3,9.5-9.5
			v-28.6C486.6,372,482.3,367.7,477.1,367.7L477.1,367.7z"/>
	</g>
	<g id="border_53_" display="inline">
		<path fill="#FFFFFF" d="M375.8,358.2c-6.3,0-11.5-5.2-11.5-11.5v-28.6c0-6.3,5.2-11.5,11.5-11.5h101.4c6.3,0,11.5,5.2,11.5,11.5
			v28.6c0,6.3-5.2,11.5-11.5,11.5H375.8z"/>
		<path fill="#3F81C3" d="M477.2,308.6c5.2,0,9.5,4.3,9.5,9.5v28.6c0,5.2-4.3,9.5-9.5,9.5H375.8c-5.2,0-9.5-4.3-9.5-9.5v-28.6
			c0-5.2,4.3-9.5,9.5-9.5H477.2 M477.2,304.7H375.8c-7.5,0-13.5,6-13.5,13.5v28.6c0,7.5,6,13.5,13.5,13.5h101.4
			c7.5,0,13.5-6,13.5-13.5v-28.6C490.6,310.7,484.6,304.7,477.2,304.7L477.2,304.7z"/>
	</g>
	
		<text transform="matrix(1 0 0 1 400.2519 399.0078)" display="inline" fill="#221F1F" font-family="'HelveticaNeue-Light'" font-size="22.0153">File B</text>
	<g id="border_51_" display="inline">
		<path fill="#414141" d="M477.2,309.4c4.8,0,8.7,3.9,8.7,8.7v28.6c0,4.8-3.9,8.7-8.7,8.7H375.8c-4.8,0-8.7-3.9-8.7-8.7v-28.6
			c0-4.8,3.9-8.7,8.7-8.7H477.2 M477.2,308.6H375.8c-5.2,0-9.5,4.3-9.5,9.5v28.6c0,5.2,4.3,9.5,9.5,9.5h101.4c5.2,0,9.5-4.3,9.5-9.5
			v-28.6C486.7,312.9,482.4,308.6,477.2,308.6L477.2,308.6z"/>
	</g>
	
		<text transform="matrix(1 0 0 1 400.6593 340.0865)" display="inline" fill="#221F1F" font-family="'HelveticaNeue-Light'" font-size="22.0153">File A</text>
	<g id="border_49_" display="inline" opacity="0.3">
		<path fill="#414141" d="M481.8,296.2c9.6,0,17.5,7.9,17.5,17.5v155.9c0,9.6-7.9,17.5-17.5,17.5H371.5c-9.6,0-17.5-7.9-17.5-17.5
			V313.7c0-9.6,7.9-17.5,17.5-17.5H481.8 M481.8,295.5H371.5c-10,0-18.2,8.3-18.2,18.2v155.9c0,10,8.3,18.2,18.2,18.2h110.3
			c10.1,0,18.2-8.3,18.2-18.2V313.7C500,303.7,491.8,295.5,481.8,295.5L481.8,295.5z"/>
	</g>
	
		<use xlink:href="#Simple_Arrow"  width="59" height="24" id="XMLID_6_" x="-29.5" y="-12" transform="matrix(1.3883 0 0 -0.7934 341.0385 332.6184)" display="inline" overflow="visible"/>
	
		<use xlink:href="#Simple_Arrow"  width="59" height="24" id="XMLID_4_" x="-29.5" y="-12" transform="matrix(1.3883 0 0 -0.7934 341.0385 392.6392)" display="inline" overflow="visible"/>
	
		<use xlink:href="#Simple_Arrow"  width="59" height="24" id="XMLID_3_" x="-29.5" y="-12" transform="matrix(1.3883 0 0 -0.7934 341.0385 450.3065)" display="inline" overflow="visible"/>
	
		<text transform="matrix(1.0483 0 0 1 403.8115 281.5723)" display="inline" fill="#231F20" font-family="'ApexNew-Book'" font-size="11.1076">Version 3</text>
</g>
</svg>
