<?xml version="1.0" encoding="utf-8"?>
<!-- Generator: Adobe Illustrator 17.1.0, SVG Export Plug-In . SVG Version: 6.00 Build 0)  -->
<!DOCTYPE svg PUBLIC "-//W3C//DTD SVG 1.1//EN" "http://www.w3.org/Graphics/SVG/1.1/DTD/svg11.dtd">
<svg version="1.1" id="Layer_1" xmlns="http://www.w3.org/2000/svg" xmlns:xlink="http://www.w3.org/1999/xlink" x="0px" y="0px"
	 viewBox="0 589.8 500 89.7" enable-background="new 0 589.8 500 89.7" xml:space="preserve">
<g id="base">
	<path id="border_17_" fill="#424242" d="M105.3,633c4.4,0,8,3.5,8,8v26.2c0,4.4-3.5,8-8,8h-93c-4.4,0-8-3.5-8-8V641
		c0-4.4,3.5-8,8-8H105.3 M105.3,632.2h-93c-4.8,0-8.7,3.9-8.7,8.7v26.2c0,4.8,3.9,8.7,8.7,8.7h92.9c4.8,0,8.7-3.9,8.7-8.7V641
		C114,636.2,110,632.2,105.3,632.2L105.3,632.2z"/>
	<path id="border_6_" fill="#424242" d="M296.2,633c4.4,0,8,3.5,8,8v26.2c0,4.4-3.5,8-8,8h-92.9c-4.4,0-8-3.5-8-8V641
		c0-4.4,3.5-8,8-8H296.2 M296.2,632.2h-92.9c-4.8,0-8.7,3.9-8.7,8.7v26.2c0,4.8,3.9,8.7,8.7,8.7h92.9c4.8,0,8.7-3.9,8.7-8.7V641
		C305,636.2,301,632.2,296.2,632.2L296.2,632.2z"/>
	<path id="border_1_" fill="#424242" d="M487.6,633c4.4,0,8,3.5,8,8v26.2c0,4.4-3.5,8-8,8h-92.9c-4.4,0-8-3.5-8-8V641
		c0-4.4,3.5-8,8-8H487.6 M487.6,632.2h-92.9c-4.8,0-8.7,3.9-8.7,8.7v26.2c0,4.8,3.9,8.7,8.7,8.7h92.9c4.8,0,8.7-3.9,8.7-8.7V641
		C496.4,636.2,492.4,632.2,487.6,632.2L487.6,632.2z"/>
	<text transform="matrix(1 0 0 1 24.6011 659.4517)" fill="#221F1F" font-family="'HelveticaNeue-Light'" font-size="20.1714">working</text>
	<text transform="matrix(1 0 0 1 218.1675 659.4517)" fill="#221F1F" font-family="'HelveticaNeue-Light'" font-size="20.1714">staging</text>
	<text transform="matrix(1 0 0 1 412.5918 659.4517)" fill="#221F1F" font-family="'HelveticaNeue-Light'" font-size="20.1714">history</text>
	<g>
		<path opacity="0.5" fill="#595A5C" enable-background="new    " d="M71.2,592.2l-3.5,3.5l5.4,5.4l3.5-3.5L71.2,592.2z M51.6,611.7
			v5.4h5.3L71,602.9l-5.4-5.4L51.6,611.7z M56.9,615.2h-3.5v-3.6h1.8v1.8H57L56.9,615.2L56.9,615.2L56.9,615.2z"/>
		<path opacity="0.5" fill="#595A5C" enable-background="new    " d="M250.9,601.2c-2.5,0-4.6,2-4.6,4.6c0,2.5,2,4.6,4.6,4.6
			c0.2,0,0.4,0,0.6,0c-1.6-0.2-2.9-1.6-2.9-3.3c0-1.9,1.5-3.4,3.4-3.4c1.7,0,3.1,1.2,3.3,2.9c0-0.2,0-0.4,0-0.6
			C255.4,603.2,253.4,601.2,250.9,601.2z M264.4,596.8h-4.6l-4.6-4.6h-9l-4.6,4.6H237c-1.2,0-2.2,1-2.2,2.2v15.9
			c0,1.2,1,2.2,2.2,2.2h27.1c1.2,0,2.2-1,2.2-2.2V599C266.7,597.8,265.7,596.8,264.4,596.8z M247.5,594.4h6.8l2.2,2.2h-11.3
			L247.5,594.4z M238.4,614.8c-0.6,0-1.1-0.5-1.1-1.1v-10.1h2.2v-2.2h-2.2v-1.1c0-0.6,0.5-1.1,1.1-1.1h6.5c-0.1,0.1-0.3,0.3-0.4,0.4
			c-3.5,3.5-3.5,9.3,0,12.7l2.6,2.6L238.4,614.8L238.4,614.8z M250.9,612.5c-3.7,0-6.8-3-6.8-6.8c0-3.7,3-6.8,6.8-6.8s6.8,3,6.8,6.8
			C257.6,609.4,254.6,612.5,250.9,612.5z M262.2,604.7l-5.4-5.7h5.4V604.7z"/>
		<path opacity="0.5" fill="#595A5C" enable-background="new    " d="M443.4,589.8c-2.5,0-4.9,0.8-6.9,2l-2-2v7.1h7.1l-2.4-2.4
			c1.2-0.7,2.7-1.1,4.2-1.1c5,0,8.9,3.9,8.9,8.9s-3.9,8.9-8.9,8.9s-8.9-3.9-8.9-8.9c0-1.3,0.3-2.4,0.7-3.5h-2.5V596
			c-1.1,1.8-1.8,4-1.8,6.3c0,6.9,5.6,12.4,12.4,12.4s12.4-5.6,12.4-12.4C455.7,595.3,450.3,589.8,443.4,589.8z M443.3,611l1.8-1.7
			v-5.4h3.5l1.8-1.8l-1.8-1.8h-3.5l-1.8-1.8l-3.5,3.5l1.8,1.8v5.4L443.3,611z"/>
	</g>
</g>
<g id="step-1-in-out">
	<path id="border_15_" fill="#4081C3" d="M105.3,632.2c4.8,0,8.7,3.9,8.7,8.7v26.2c0,4.8-3.9,8.7-8.7,8.7h-93
		c-4.8,0-8.7-3.9-8.7-8.7V641c0-4.8,3.9-8.7,8.7-8.7L105.3,632.2 M105.3,628.5h-93c-6.8,0-12.3,5.6-12.3,12.4v26.2
		c0,6.8,5.6,12.3,12.3,12.3h92.9c6.8,0,12.3-5.6,12.3-12.3v-26.2C117.6,634.2,112,628.5,105.3,628.5L105.3,628.5z"/>
</g>
<g id="step-2-in-out" display="none">
	<path id="border" display="inline" fill="#4081C3" d="M296.2,632.2c4.8,0,8.7,3.9,8.7,8.7v26.2c0,4.8-3.9,8.7-8.7,8.7h-92.9
		c-4.8,0-8.7-3.9-8.7-8.7V641c0-4.8,3.9-8.7,8.7-8.7L296.2,632.2 M296.2,628.5h-92.9c-6.8,0-12.3,5.6-12.3,12.3V667
		c0,6.8,5.6,12.3,12.3,12.3h92.9c6.8,0,12.3-5.6,12.3-12.3v-26.1C308.5,634.2,303,628.5,296.2,628.5L296.2,628.5z"/>
	
		<text transform="matrix(1.0483 0 0 1 145.7915 645.334)" display="inline" fill="#231F20" font-family="'ApexNew-Book'" font-size="10.1772">add</text>
	<g display="inline">
		
			<line fill="none" stroke="#FFFFFF" stroke-width="6" stroke-linecap="round" stroke-linejoin="round" stroke-miterlimit="10" x1="108.2" y1="654.8" x2="207.6" y2="654.8"/>
		<g>
			<line fill="none" stroke="#231F20" stroke-width="3" stroke-miterlimit="10" x1="108.2" y1="654.8" x2="205.1" y2="654.8"/>
			<g>
				<polygon fill="#231F20" points="197.6,664 196,662.4 204.2,654.8 196,647.2 197.6,645.4 207.6,654.8 				"/>
			</g>
		</g>
	</g>
</g>
<g id="step-3" display="none">
	<path id="border_2_" display="inline" fill="#4081C3" d="M487.6,632.2c4.8,0,8.7,3.9,8.7,8.7v26.2c0,4.8-3.9,8.7-8.7,8.7h-92.9
		c-4.8,0-8.7-3.9-8.7-8.7V641c0-4.8,3.9-8.7,8.7-8.7L487.6,632.2 M487.6,628.5h-92.9c-6.8,0-12.3,5.6-12.3,12.3V667
		c0,6.8,5.6,12.3,12.3,12.3h92.9c6.8,0,12.3-5.6,12.3-12.3v-26.1C500,634.2,494.4,628.5,487.6,628.5L487.6,628.5z"/>
	
		<text transform="matrix(1 0 0 1 331.4814 645.3336)" display="inline" fill="#010101" font-family="'MyriadPro-Regular'" font-size="8.7234">commit</text>
	<g display="inline">
		
			<line fill="none" stroke="#FFFFFF" stroke-width="6" stroke-linecap="round" stroke-linejoin="round" stroke-miterlimit="10" x1="298.9" y1="654.8" x2="398.3" y2="654.8"/>
		<g>
			<line fill="none" stroke="#231F20" stroke-width="3" stroke-miterlimit="10" x1="298.9" y1="654.8" x2="395.8" y2="654.8"/>
			<g>
				<polygon fill="#231F20" points="388.3,664 386.7,662.4 394.9,654.8 386.7,647.2 388.3,645.4 398.3,654.8 				"/>
			</g>
		</g>
	</g>
</g>
</svg>
