<?xml version="1.0" encoding="utf-8"?>
<!-- Generator: Adobe Illustrator 17.1.0, SVG Export Plug-In . SVG Version: 6.00 Build 0)  -->
<!DOCTYPE svg PUBLIC "-//W3C//DTD SVG 1.1//EN" "http://www.w3.org/Graphics/SVG/1.1/DTD/svg11.dtd">
<svg version="1.1" id="Layer_1" xmlns="http://www.w3.org/2000/svg" xmlns:xlink="http://www.w3.org/1999/xlink" x="0px" y="0px"
	 viewBox="25 149 510 279" enable-background="new 25 149 510 279" xml:space="preserve">
<symbol  id="Simple_Arrow_2_" viewBox="-29.5 -12 59 24">
	<g>
		
			<polygon fill="none" stroke="#FFFFFF" stroke-width="3" stroke-linecap="round" stroke-linejoin="round" stroke-miterlimit="10" points="
			19.3,7.7 17.9,6.2 24,0.5 -28,0.5 -28,-1.5 24,-1.5 17.9,-7.2 19.3,-8.7 28,-0.5 		"/>
		<polygon fill="#221F1F" points="19.3,7.7 17.9,6.2 24,0.5 -28,0.5 -28,-1.5 24,-1.5 17.9,-7.2 19.3,-8.7 28,-0.5 		"/>
	</g>
	<path fill="#221F1F" d="M-27-0.5c0-0.6-0.4-1-1-1s-1,0.4-1,1s0.4,1,1,1S-27,0.1-27-0.5z"/>
	<path fill="#221F1F" d="M19.3,7.7c0.4-0.4,0.4-1,0-1.4s-1-0.4-1.4,0s-0.4,1,0,1.4C18.2,8.1,18.9,8.1,19.3,7.7z"/>
	<path fill="#221F1F" d="M19.3-7.2c0.4-0.4,0.4-1,0-1.4s-1-0.4-1.4,0s-0.4,1,0,1.4S18.9-6.8,19.3-7.2z"/>
	<line display="none" fill="none" stroke="#ED358C" stroke-miterlimit="10" x1="-18.5" y1="12" x2="-18.5" y2="-12"/>
	<line display="none" fill="none" stroke="#ED358C" stroke-miterlimit="10" x1="10.2" y1="12" x2="10.2" y2="-12"/>
</symbol>
<g id="Simple_Arrow_1_">
	<line display="none" fill="none" stroke="#ED358C" stroke-miterlimit="10" x1="299.1" y1="386.2" x2="299.1" y2="402.3"/>
	<line display="none" fill="none" stroke="#ED358C" stroke-miterlimit="10" x1="318.4" y1="386.2" x2="318.4" y2="402.3"/>
</g>
<g id="Simple_Arrow" opacity="0.2">
	<path display="none" fill="none" stroke="#ED358C" stroke-miterlimit="10" d="M264,432.3c0,0,0.6,1,1.5,2.5
		c1.7,2.7,4.4,6.8,5.9,9.2c0.7,1.1,1.2,1.9,1.2,1.9"/>
	<path display="none" fill="none" stroke="#ED358C" stroke-miterlimit="10" d="M453,312.6c0,0,0.6,1,1.5,2.5
		c1.7,2.7,4.4,6.8,5.9,9.2c0.7,1.1,1.2,1.9,1.2,1.9"/>
</g>
<g display="none">
	
		<text transform="matrix(1 0 0 1 72.998 391.6875)" display="inline" fill="#221F1F" font-family="'ApexNew-Book'" font-size="8.7063">placeholder</text>
	<circle display="inline" fill="#B93226" stroke="#FFFFFF" stroke-width="2" stroke-miterlimit="10" cx="67.6" cy="388.9" r="2.5"/>
</g>
<g display="none">
	
		<text transform="matrix(1 0 0 1 72.998 391.6875)" display="inline" fill="#221F1F" font-family="'ApexNew-Book'" font-size="8.7063">placeholder</text>
	<circle display="inline" fill="#B93226" stroke="#FFFFFF" stroke-width="2" stroke-miterlimit="10" cx="67.6" cy="388.9" r="2.5"/>
</g>
<g>
	<g>
		<g>
			<path fill="none" stroke="#FFFFFF" stroke-width="3" d="M273.8,194.3c0-0.1-0.3-0.2-0.7-0.2s-0.7,0.1-0.7,0.2v98.5
				c0.5,0,0.9,0,1.3,0V194.3z"/>
			<path fill="#231F20" d="M273.8,194.3c0-0.1-0.3-0.2-0.7-0.2s-0.7,0.1-0.7,0.2v98.5c0.5,0,0.9,0,1.3,0V194.3z"/>
		</g>
		<g>
			<path fill="#231F20" d="M316.6,326.3l-5.9-5.5c-0.3-0.3-0.7-0.3-0.9,0s-0.3,0.7,0,0.9c0,0,0,0,0.1,0l0,0l4.1,3.8h-7.3
				c0,0.5,0,0.9,0,1.3h7.3l-4.1,3.8c-0.3,0.3-0.3,0.7,0,0.9c0.3,0.3,0.7,0.3,0.9,0l0,0L316.6,326.3z"/>
			<g>
				<path fill="none" stroke="#FFFFFF" stroke-width="5" stroke-miterlimit="10" d="M306.7,326.2c-18.5,0-33.4-15-33.4-33.4"/>
				<path fill="none" stroke="#231F20" stroke-width="2" stroke-miterlimit="10" d="M306.7,326.2c-18.5,0-33.4-15-33.4-33.4"/>
			</g>
		</g>
		<g>
			<path fill="none" stroke="#FFFFFF" stroke-width="5" stroke-miterlimit="10" d="M256.4,177.9c9.2,0,16.8,7.5,16.8,16.8"/>
			<path fill="none" stroke="#231F20" stroke-width="2" stroke-miterlimit="10" d="M256.4,177.9c9.2,0,16.8,7.5,16.8,16.8"/>
		</g>
	</g>
	
		<use xlink:href="#Simple_Arrow_2_"  width="59" height="24" id="XMLID_2_" x="-29.5" y="-12" transform="matrix(0.9412 0 0 -0.6702 148.1457 177.6185)" overflow="visible"/>
	
		<use xlink:href="#Simple_Arrow_2_"  width="59" height="24" id="XMLID_8_" x="-29.5" y="-12" transform="matrix(0.931 0 0 -0.6702 276.5456 177.6185)" overflow="visible"/>
	
		<use xlink:href="#Simple_Arrow_2_"  width="59" height="24" id="XMLID_9_" x="-29.5" y="-12" transform="matrix(0.9186 0 0 -0.6702 402.8021 177.6185)" overflow="visible"/>
	<g>
		<g id="XMLID_6_">
			<g id="Template_14_">
				<g>
					<rect x="35.2" y="191.6" fill="#E6E6E6" width="92.3" height="0.9"/>
				</g>
			</g>
			<g id="Template_13_">
				<g>
					<rect x="35.2" y="217.4" fill="#E6E6E6" width="92.3" height="0.9"/>
				</g>
			</g>
			<g id="border_7_">
				<path fill="#414141" d="M120.3,160.3c4.1,0,7.4,4.6,7.4,10.1v132.4c0,5.6-3.3,10.1-7.4,10.1H43.1c-4.1,0-7.4-4.6-7.4-10.1V170.4
					c0-5.6,3.3-10.1,7.4-10.1H120.3 M120.3,159.4H43.1c-4.4,0-8,5-8,11.1v132.4c0,6.1,3.6,11.1,8,11.1h77.3c4.4,0,8-5,8-11.1V170.4
					C128.3,164.3,124.7,159.4,120.3,159.4L120.3,159.4z"/>
			</g>
		</g>
		<text transform="matrix(1 0 0 1 59.9716 184.9962)" fill="#221F1F" font-family="'HelveticaNeue-Light'" font-size="18.5954">477B</text>
		<text transform="matrix(1 0 0 1 41.8174 231.3877)" fill="#221F1F" font-family="'ApexNew-Bold'" font-size="8.7063">tree</text>
		<text transform="matrix(1 0 0 1 57.2979 231.3877)" fill="#221F1F" font-family="'ApexNew-Book'" font-size="8.7063">: C671</text>
		<text transform="matrix(1 0 0 1 41.8174 241.836)" fill="#221F1F" font-family="'ApexNew-Bold'" font-size="8.7063">parent</text>
		<text transform="matrix(1 0 0 1 66.7696 241.836)" fill="#221F1F" font-family="'ApexNew-Book'" font-size="8.7063">: nil</text>
		<text transform="matrix(1 0 0 1 41.8174 252.2832)" fill="#221F1F" font-family="'ApexNew-Bold'" font-size="8.7063">author</text>
		<text transform="matrix(1 0 0 1 66.874 252.2832)" fill="#221F1F" font-family="'ApexNew-Book'" font-size="8.7063">: Tim</text>
		<text transform="matrix(1 0 0 1 41.8174 262.7305)" fill="#221F1F" font-family="'ApexNew-Bold'" font-size="8.7063">committer</text>
		<text transform="matrix(1 0 0 1 80.7343 262.7305)" fill="#221F1F" font-family="'ApexNew-Book'" font-size="8.7063">: Brent</text>
		<text transform="matrix(1 0 0 1 41.8174 273.1787)" fill="#221F1F" font-family="'ApexNew-Bold'" font-size="8.7063">message</text>
		<text transform="matrix(1 0 0 1 74.8926 273.1787)" fill="#221F1F" font-family="'ApexNew-Book'" font-size="8.7063">: </text>
		<text transform="matrix(1 0 0 1 41.8174 290.0527)" fill="#221F1F" font-family="'ApexNew-Book'" font-size="8.7063">Add initial project</text>
		<text transform="matrix(1 0 0 1 41.8174 300.5001)" fill="#221F1F" font-family="'ApexNew-Book'" font-size="8.7063">HTML and JavaScript</text>
		<text transform="matrix(1 0 0 1 60.9156 208.8526)" fill="#221F1F" font-family="'ApexNew-Bold'" font-size="12.8546">commit</text>
	</g>
	<g>
		<g>
			<g id="Template_12_">
				<line fill="none" stroke="#E6E6E6" stroke-miterlimit="10" x1="255.1" y1="195.4" x2="162.7" y2="195.4"/>
			</g>
			<g id="Template_11_">
				<line fill="none" stroke="#E6E6E6" stroke-miterlimit="10" x1="255.1" y1="214.2" x2="162.7" y2="214.2"/>
			</g>
			<g id="border_6_">
				<path fill="#414141" d="M247.8,160c4.1,0,7.4,3.3,7.4,7.4v96.4c0,4.1-3.3,7.4-7.4,7.4h-77.3c-4.1,0-7.4-3.3-7.4-7.4v-96.4
					c0-4.1,3.3-7.4,7.4-7.4H247.8 M247.8,159.4h-77.3c-4.4,0-8,3.6-8,8v96.4c0,4.4,3.6,8,8,8h77.3c4.4,0,8-3.6,8-8v-96.4
					C255.8,163,252.2,159.4,247.8,159.4L247.8,159.4z"/>
			</g>
		</g>
		<text transform="matrix(1 0 0 1 187.0839 184.9962)" fill="#221F1F" font-family="'HelveticaNeue-Light'" font-size="18.5954">C671</text>
		<text transform="matrix(1 0 0 1 169.2741 227.3672)" fill="#221F1F" font-family="'ApexNew-Bold'" font-size="8.7063">tree</text>
		<text transform="matrix(1 0 0 1 184.7539 227.3672)" fill="#221F1F" font-family="'ApexNew-Book'" font-size="8.7063">: 8D33   javascript</text>
		<text transform="matrix(1 0 0 1 169.2741 237.8145)" fill="#221F1F" font-family="'ApexNew-Bold'" font-size="8.7063">blob</text>
		<text transform="matrix(1 0 0 1 185.7548 237.8145)" fill="#221F1F" font-family="'ApexNew-Book'" font-size="8.7063">: 9E3A index.html</text>
		<text transform="matrix(1 0 0 1 197.7109 208.8526)" fill="#221F1F" font-family="'ApexNew-Bold'" font-size="12.8546">tree</text>
	</g>
	<g>
		<g>
			<g id="Template_10_">
				<line fill="none" stroke="#E6E6E6" stroke-miterlimit="10" x1="382.5" y1="195.4" x2="290.2" y2="195.4"/>
			</g>
			<g id="Template_9_">
				<line fill="none" stroke="#E6E6E6" stroke-miterlimit="10" x1="382.5" y1="214.2" x2="290.2" y2="214.2"/>
			</g>
			<g id="border_5_">
				<path fill="#414141" d="M375.2,160c4.1,0,7.4,3.3,7.4,7.4v96.4c0,4.1-3.3,7.4-7.4,7.4h-77.3c-4.1,0-7.4-3.3-7.4-7.4v-96.4
					c0-4.1,3.3-7.4,7.4-7.4H375.2 M375.2,159.4h-77.3c-4.4,0-8,3.6-8,8v96.4c0,4.4,3.6,8,8,8h77.3c4.4,0,8-3.6,8-8v-96.4
					C383.3,163,379.6,159.4,375.2,159.4L375.2,159.4z"/>
			</g>
		</g>
		<text transform="matrix(1 0 0 1 314.7169 184.9962)" fill="#221F1F" font-family="'HelveticaNeue-Light'" font-size="18.5954">8D33</text>
		<text transform="matrix(1 0 0 1 296.7305 227.3672)" fill="#221F1F" font-family="'ApexNew-Bold'" font-size="8.7063">blob</text>
		<text transform="matrix(1 0 0 1 313.212 227.3672)" fill="#221F1F" font-family="'ApexNew-Book'" font-size="8.7063">: 7FB1  app.js</text>
		<text transform="matrix(1 0 0 1 296.7305 237.8145)" fill="#221F1F" font-family="'ApexNew-Bold'" font-size="8.7063">blob</text>
		<text transform="matrix(1 0 0 1 313.212 237.8145)" fill="#221F1F" font-family="'ApexNew-Book'" font-size="8.7063">: 512D logo.png</text>
		<text transform="matrix(1 0 0 1 325.1669 208.8526)" fill="#221F1F" font-family="'ApexNew-Bold'" font-size="12.8546">tree</text>
	</g>
	<g>
		<path fill="none" stroke="#221F1F" stroke-miterlimit="10" d="M378.6,379"/>
		<path fill="none" stroke="#221F1F" stroke-miterlimit="10" d="M378.6,379"/>
		<g id="XMLID_4_">
			<g id="Template_8_">
				<line fill="none" stroke="#E6E6E6" stroke-miterlimit="10" x1="396.5" y1="341.9" x2="304.2" y2="341.9"/>
			</g>
			<g id="Template_7_">
				<line fill="none" stroke="#E6E6E6" stroke-miterlimit="10" x1="396.5" y1="360.7" x2="304.2" y2="360.7"/>
			</g>
			<g id="border_4_">
				<path fill="#414141" d="M389.2,306.5c4.1,0,7.4,3.3,7.4,7.4v96.4c0,4.1-3.3,7.4-7.4,7.4H312c-4.1,0-7.4-3.3-7.4-7.4v-96.4
					c0-4.1,3.3-7.4,7.4-7.4H389.2 M389.2,305.9H312c-4.4,0-8,3.6-8,8v96.4c0,4.4,3.6,8,8,8h77.3c4.4,0,8-3.6,8-8v-96.4
					C397.3,309.5,393.6,305.9,389.2,305.9L389.2,305.9z"/>
			</g>
		</g>
		<text transform="matrix(1 0 0 1 328.8827 331.5087)" fill="#221F1F" font-family="'HelveticaNeue-Light'" font-size="18.5954">9E3A</text>
		<text transform="matrix(1 0 0 1 310.7286 373.8799)" fill="#221F1F" font-family="'AndaleMono'" font-size="8.7063">&lt;html&gt;</text>
		
			<text transform="matrix(1 0 0 1 310.7286 384.3271)" fill="#221F1F" font-family="'AndaleMono'" font-size="8.7063" letter-spacing="18"> </text>
		<text transform="matrix(1 0 0 1 336.8477 384.3271)" fill="#221F1F" font-family="'AndaleMono'" font-size="8.7063">&lt;head&gt;...</text>
		
			<text transform="matrix(1 0 0 1 310.7286 394.7754)" fill="#221F1F" font-family="'AndaleMono'" font-size="8.7063" letter-spacing="18"> </text>
		<text transform="matrix(1 0 0 1 336.8477 394.7754)" fill="#221F1F" font-family="'AndaleMono'" font-size="8.7063">&lt;body&gt;...</text>
		<text transform="matrix(1 0 0 1 310.7286 405.2227)" fill="#221F1F" font-family="'AndaleMono'" font-size="8.7063">&lt;/html&gt;</text>
		<text transform="matrix(1 0 0 1 338.4258 355.3652)" fill="#221F1F" font-family="'ApexNew-Bold'" font-size="12.8546">blob</text>
	</g>
	<path fill="none" stroke="#221F1F" stroke-miterlimit="10" d="M406.1,365.8"/>
	<path fill="none" stroke="#221F1F" stroke-miterlimit="10" d="M406.1,365.8"/>
	<g>
		<g>
			<g id="Template_6_">
				<line fill="none" stroke="#E6E6E6" stroke-miterlimit="10" x1="522.9" y1="341.9" x2="430.5" y2="341.9"/>
			</g>
			<g id="Template_5_">
				<line fill="none" stroke="#E6E6E6" stroke-miterlimit="10" x1="522.9" y1="360.7" x2="430.5" y2="360.7"/>
			</g>
			<g id="border_3_">
				<path fill="#414141" d="M515.5,306.5c4.1,0,7.4,3.3,7.4,7.4v96.4c0,4.1-3.3,7.4-7.4,7.4h-77.3c-4.1,0-7.4-3.3-7.4-7.4v-96.4
					c0-4.1,3.3-7.4,7.4-7.4H515.5 M515.5,305.9h-77.3c-4.4,0-8,3.6-8,8v96.4c0,4.4,3.6,8,8,8h77.3c4.4,0,8-3.6,8-8v-96.4
					C523.6,309.5,520,305.9,515.5,305.9L515.5,305.9z"/>
			</g>
		</g>
		<text transform="matrix(1 0 0 1 455.0224 331.5087)" fill="#221F1F" font-family="'HelveticaNeue-Light'" font-size="18.5954">512D</text>
		<text transform="matrix(1 0 0 1 437.035 373.8799)" fill="#221F1F" font-family="'AndaleMono'" font-size="8.7063">4342 2a00</text>
		<text transform="matrix(1 0 0 1 437.035 384.3271)" fill="#221F1F" font-family="'AndaleMono'" font-size="8.7063">0800 0000</text>
		<text transform="matrix(1 0 0 1 437.035 394.7754)" fill="#221F1F" font-family="'AndaleMono'" font-size="8.7063">3c00 ab00</text>
		<text transform="matrix(1 0 0 1 437.035 405.2227)" fill="#221F1F" font-family="'AndaleMono'" font-size="8.7063">4342 2a03</text>
		<text transform="matrix(1 0 0 1 464.7324 355.3652)" fill="#221F1F" font-family="'ApexNew-Bold'" font-size="12.8546">blob</text>
	</g>
	<path fill="none" stroke="#221F1F" stroke-miterlimit="10" d="M499.2,227.7"/>
	<path fill="none" stroke="#221F1F" stroke-miterlimit="10" d="M499.2,227.7"/>
	<g>
		<g>
			<g id="Template_2_">
				<line fill="none" stroke="#E6E6E6" stroke-miterlimit="10" x1="510" y1="195.4" x2="417.6" y2="195.4"/>
			</g>
			<g id="Template_1_">
				<line fill="none" stroke="#E6E6E6" stroke-miterlimit="10" x1="510" y1="214.2" x2="417.6" y2="214.2"/>
			</g>
			<g id="border_1_">
				<path fill="#414141" d="M502.7,160c4.1,0,7.4,3.3,7.4,7.4v96.4c0,4.1-3.3,7.4-7.4,7.4h-77.3c-4.1,0-7.4-3.3-7.4-7.4v-96.4
					c0-4.1,3.3-7.4,7.4-7.4H502.7 M502.7,159.4h-77.3c-4.4,0-8,3.6-8,8v96.4c0,4.4,3.6,8,8,8h77.3c4.4,0,8-3.6,8-8v-96.4
					C510.7,163,507.1,159.4,502.7,159.4L502.7,159.4z"/>
			</g>
		</g>
		<text transform="matrix(1 0 0 1 442.5175 184.9962)" fill="#221F1F" font-family="'HelveticaNeue-Light'" font-size="18.5954">7FB1</text>
		<text transform="matrix(1 0 0 1 424.1874 227.3672)" fill="#221F1F" font-family="'AndaleMono'" font-size="8.7063">// JavaScript</text>
		<text transform="matrix(1 0 0 1 424.1874 237.8145)" fill="#221F1F" font-family="'AndaleMono'" font-size="8.7063">var itemCount;</text>
		<text transform="matrix(1 0 0 1 424.1874 248.2627)" fill="#221F1F" font-family="'AndaleMono'" font-size="8.7063">function(){...</text>
		<text transform="matrix(1 0 0 1 424.1874 258.7101)" fill="#221F1F" font-family="'AndaleMono'" font-size="8.7063">itemCount +=...</text>
		<text transform="matrix(1 0 0 1 451.8848 208.8526)" fill="#221F1F" font-family="'ApexNew-Bold'" font-size="12.8546">blob</text>
	</g>
	<g>
		<g>
			<path fill="none" stroke="#FFFFFF" stroke-width="3" d="M401.8,193.9c0-0.1-0.3-0.2-0.7-0.2s-0.7,0.1-0.7,0.2v98.5
				c0.5,0,0.9,0,1.3,0V193.9z"/>
			<path fill="#231F20" d="M401.8,193.9c0-0.1-0.3-0.2-0.7-0.2s-0.7,0.1-0.7,0.2v98.5c0.5,0,0.9,0,1.3,0V193.9z"/>
		</g>
		<g>
			<path fill="#231F20" d="M444.6,326l-5.9-5.5c-0.3-0.3-0.7-0.3-0.9,0c-0.3,0.3-0.3,0.7,0,0.9c0,0,0,0,0.1,0l0,0l4.1,3.8h-7.3
				c0,0.5,0,0.9,0,1.3h7.3l-4.2,3.8c-0.3,0.3-0.3,0.7,0,0.9c0.3,0.3,0.7,0.3,0.9,0l0,0L444.6,326z"/>
			<g>
				<path fill="none" stroke="#FFFFFF" stroke-width="5" stroke-miterlimit="10" d="M434.7,325.9c-18.5,0-33.4-15-33.4-33.4"/>
				<path fill="none" stroke="#231F20" stroke-width="2" stroke-miterlimit="10" d="M434.7,325.9c-18.5,0-33.4-15-33.4-33.4"/>
			</g>
		</g>
		<g>
			<path fill="none" stroke="#FFFFFF" stroke-width="5" stroke-miterlimit="10" d="M384.5,177.6c9.2,0,16.8,7.5,16.8,16.8"/>
			<path fill="none" stroke="#231F20" stroke-width="2" stroke-miterlimit="10" d="M384.5,177.6c9.2,0,16.8,7.5,16.8,16.8"/>
		</g>
	</g>
</g>
</svg>
