<?xml version="1.0" encoding="utf-8"?>
<!-- Generator: Adobe Illustrator 17.0.2, SVG Export Plug-In . SVG Version: 6.00 Build 0)  -->
<!DOCTYPE svg PUBLIC "-//W3C//DTD SVG 1.1//EN" "http://www.w3.org/Graphics/SVG/1.1/DTD/svg11.dtd">
<svg version="1.1" id="Layer_1" xmlns="http://www.w3.org/2000/svg" xmlns:xlink="http://www.w3.org/1999/xlink" x="0px" y="0px"
	 width="630.215px" height="274.401px" viewBox="0 0 630.215 274.401" enable-background="new 0 0 630.215 274.401"
	 xml:space="preserve">
<symbol  id="Simple_Arrow" viewBox="-29.55 -11.512 59.1 24.019">
	<g>
		
			<polygon fill="none" stroke="#FFFFFF" stroke-width="3" stroke-linecap="round" stroke-linejoin="round" stroke-miterlimit="10" points="
			19.254,8.18 17.89,6.715 24.035,1.003 -28.05,1.003 -28.05,-0.997 24.04,-0.997 17.89,-6.712 19.254,-8.177 28.05,0 		"/>
		<polygon fill="#221F1F" points="19.254,8.18 17.89,6.715 24.035,1.003 -28.05,1.003 -28.05,-0.997 24.04,-0.997 17.89,-6.712 
			19.254,-8.177 28.05,0 		"/>
	</g>
	<path fill="#221F1F" d="M-27.05,0.003c0-0.552-0.448-1-1-1c-0.552,0-1,0.448-1,1s0.448,1,1,1
		C-27.498,1.003-27.05,0.555-27.05,0.003z"/>
	<path fill="#221F1F" d="M19.254,8.18c0.391-0.391,0.391-1.024,0-1.414s-1.024-0.391-1.414,0s-0.391,1.024,0,1.414
		C18.23,8.571,18.863,8.571,19.254,8.18z"/>
	<path fill="#221F1F" d="M19.304-6.712c0.391-0.391,0.391-1.024,0-1.414c-0.391-0.391-1.024-0.391-1.414,0
		c-0.391,0.391-0.391,1.024,0,1.414S18.913-6.322,19.304-6.712z"/>
	<line display="none" fill="none" stroke="#ED358C" stroke-miterlimit="10" x1="-18.518" y1="12.507" x2="-18.518" y2="-11.512"/>
	<line display="none" fill="none" stroke="#ED358C" stroke-miterlimit="10" x1="10.232" y1="12.507" x2="10.232" y2="-11.512"/>
</symbol>
<g id="boundary">
	<path fill="none" stroke="#E88F24" stroke-width="4" stroke-miterlimit="10" d="M0,0l0,274.401l630.215,0l0-274.401L0,0z"/>
</g>
<g id="base">
	<g id="border_32_">
		<path fill="#FFFFFF" d="M28.273,259.576c-7.995,0-14.5-6.505-14.5-14.5v-36c0-7.995,6.505-14.5,14.5-14.5h127.768
			c7.995,0,14.5,6.505,14.5,14.5v36c0,7.995-6.505,14.5-14.5,14.5H28.273z"/>
		<path fill="#3F81C3" d="M156.041,197.075c6.6,0,12,5.4,12,12v36c0,6.6-5.4,12-12,12H28.273c-6.6,0-12-5.4-12-12v-36
			c0-6.6,5.4-12,12-12H156.041 M156.041,192.075H28.273c-9.374,0-17,7.626-17,17v36c0,9.374,7.626,17,17,17h127.768
			c9.374,0,17-7.626,17-17v-36C173.041,199.702,165.415,192.075,156.041,192.075L156.041,192.075z"/>
	</g>
	<g id="border_2_">
		<path fill="#414141" d="M156.051,198.075c6.065,0,11,4.935,11,11v36c0,6.065-4.935,11-11,11H28.283c-6.065,0-11-4.935-11-11v-36
			c0-6.065,4.935-11,11-11H156.051 M156.051,197.075H28.283c-6.6,0-12,5.4-12,12v36c0,6.6,5.4,12,12,12h127.768c6.6,0,12-5.4,12-12
			v-36C168.051,202.475,162.651,197.075,156.051,197.075L156.051,197.075z"/>
	</g>
	<g id="border_31_">
		<path fill="#FFFFFF" d="M28.273,185.507c-7.995,0-14.5-6.505-14.5-14.5v-36c0-7.995,6.505-14.5,14.5-14.5h127.768
			c7.995,0,14.5,6.505,14.5,14.5v36c0,7.995-6.505,14.5-14.5,14.5H28.273z"/>
		<path fill="#3F81C3" d="M156.041,123.007c6.6,0,12,5.4,12,12v36c0,6.6-5.4,12-12,12H28.273c-6.6,0-12-5.4-12-12v-36
			c0-6.6,5.4-12,12-12H156.041 M156.041,118.007H28.273c-9.374,0-17,7.626-17,17v36c0,9.374,7.626,17,17,17h127.768
			c9.374,0,17-7.626,17-17v-36C173.041,125.633,165.415,118.007,156.041,118.007L156.041,118.007z"/>
	</g>
	<text transform="matrix(1 0 0 1 58.7492 236.4867)" fill="#221F1F" font-family="'HelveticaNeue-Light'" font-size="27.7481">File C</text>
	<g id="border_6_">
		<path fill="#414141" d="M156.051,124.007c6.065,0,11,4.935,11,11v36c0,6.065-4.935,11-11,11H28.283c-6.065,0-11-4.935-11-11v-36
			c0-6.065,4.935-11,11-11H156.051 M156.051,123.007H28.283c-6.6,0-12,5.4-12,12v36c0,6.6,5.4,12,12,12h127.768c6.6,0,12-5.4,12-12
			v-36C168.051,128.407,162.651,123.007,156.051,123.007L156.051,123.007z"/>
	</g>
	<g id="border_3_">
		<path fill="#FFFFFF" d="M28.449,110.989c-7.995,0-14.5-6.505-14.5-14.5v-36c0-7.995,6.505-14.5,14.5-14.5h127.768
			c7.995,0,14.5,6.505,14.5,14.5v36c0,7.995-6.505,14.5-14.5,14.5H28.449z"/>
		<path fill="#3F81C3" d="M156.218,48.489c6.6,0,12,5.4,12,12v36c0,6.6-5.4,12-12,12H28.45c-6.6,0-12-5.4-12-12v-36
			c0-6.6,5.4-12,12-12H156.218 M156.218,43.489H28.45c-9.374,0-17,7.626-17,17v36c0,9.374,7.626,17,17,17h127.768
			c9.374,0,17-7.626,17-17v-36C173.218,51.115,165.591,43.489,156.218,43.489L156.218,43.489z"/>
	</g>
	<text transform="matrix(1 0 0 1 59.2624 162.4184)" fill="#221F1F" font-family="'HelveticaNeue-Light'" font-size="27.7481">File B</text>
	<g id="border_1_">
		<path fill="#414141" d="M156.218,49.489c6.065,0,11,4.935,11,11v36c0,6.065-4.935,11-11,11H28.45c-6.065,0-11-4.935-11-11v-36
			c0-6.065,4.935-11,11-11H156.218 M156.218,48.489H28.45c-6.6,0-12,5.4-12,12v36c0,6.6,5.4,12,12,12h127.768c6.6,0,12-5.4,12-12
			v-36C168.218,53.889,162.818,48.489,156.218,48.489L156.218,48.489z"/>
	</g>
	<text transform="matrix(1 0 0 1 59.7755 88.1534)" fill="#221F1F" font-family="'HelveticaNeue-Light'" font-size="27.7481">File A</text>
	<g id="border_4_" opacity="0.3">
		<path fill="#414141" d="M162,32.909c12.131,0,22,9.869,22,22v196.492c0,12.131-9.869,22-22,22H23c-12.131,0-22-9.869-22-22V54.909
			c0-12.131,9.869-22,22-22H162 M162,31.909H23c-12.65,0-23,10.35-23,23v196.492c0,12.65,10.35,23,23,23h139c12.65,0,23-10.35,23-23
			V54.909C185,42.259,174.65,31.909,162,31.909L162,31.909z"/>
	</g>
	<text transform="matrix(1.0483 0 0 1 64.6905 14.4012)" fill="#231F20" font-family="'ApexNew-Book'" font-size="14">Version 1</text>
</g>
<g id="step-1">
	<g id="border_45_">
		<path fill="#414141" d="M379.051,198.075c6.065,0,11,4.935,11,11v36c0,6.065-4.935,11-11,11H251.283c-6.065,0-11-4.935-11-11v-36
			c0-6.065,4.935-11,11-11H379.051 M379.051,197.075H251.283c-6.6,0-12,5.4-12,12v36c0,6.6,5.4,12,12,12h127.768c6.6,0,12-5.4,12-12
			v-36C391.051,202.475,385.651,197.075,379.051,197.075L379.051,197.075z"/>
	</g>
	<g id="border_43_">
		<path fill="#FFFFFF" d="M251.273,185.507c-7.995,0-14.5-6.505-14.5-14.5v-36c0-7.995,6.505-14.5,14.5-14.5h127.768
			c7.995,0,14.5,6.505,14.5,14.5v36c0,7.995-6.505,14.5-14.5,14.5H251.273z"/>
		<path fill="#3F81C3" d="M379.041,123.007c6.6,0,12,5.4,12,12v36c0,6.6-5.4,12-12,12H251.273c-6.6,0-12-5.4-12-12v-36
			c0-6.6,5.4-12,12-12H379.041 M379.041,118.007H251.273c-9.374,0-17,7.626-17,17v36c0,9.374,7.626,17,17,17h127.768
			c9.374,0,17-7.626,17-17v-36C396.041,125.633,388.415,118.007,379.041,118.007L379.041,118.007z"/>
	</g>
	<text transform="matrix(1 0 0 1 281.7492 236.4867)" fill="#221F1F" font-family="'HelveticaNeue-Light'" font-size="27.7481">File C</text>
	<g id="border_41_">
		<path fill="#414141" d="M379.051,124.007c6.065,0,11,4.935,11,11v36c0,6.065-4.935,11-11,11H251.283c-6.065,0-11-4.935-11-11v-36
			c0-6.065,4.935-11,11-11H379.051 M379.051,123.007H251.283c-6.6,0-12,5.4-12,12v36c0,6.6,5.4,12,12,12h127.768c6.6,0,12-5.4,12-12
			v-36C391.051,128.407,385.651,123.007,379.051,123.007L379.051,123.007z"/>
	</g>
	<text transform="matrix(1 0 0 1 282.2624 162.4184)" fill="#221F1F" font-family="'HelveticaNeue-Light'" font-size="27.7481">File B</text>
	<g id="border_37_">
		<path fill="#414141" d="M379.218,49.489c6.065,0,11,4.935,11,11v36c0,6.065-4.935,11-11,11H251.45c-6.065,0-11-4.935-11-11v-36
			c0-6.065,4.935-11,11-11H379.218 M379.218,48.489H251.45c-6.6,0-12,5.4-12,12v36c0,6.6,5.4,12,12,12h127.768c6.6,0,12-5.4,12-12
			v-36C391.218,53.889,385.818,48.489,379.218,48.489L379.218,48.489z"/>
	</g>
	<text transform="matrix(1 0 0 1 282.7755 88.1534)" fill="#221F1F" font-family="'HelveticaNeue-Light'" font-size="27.7481">File A</text>
	<g id="border_9_" opacity="0.3">
		<path fill="#414141" d="M385,32.909c12.131,0,22,9.869,22,22v196.492c0,12.131-9.869,22-22,22H246c-12.131,0-22-9.869-22-22
			V54.909c0-12.131,9.869-22,22-22H385 M385,31.909H246c-12.65,0-23,10.35-23,23v196.492c0,12.65,10.35,23,23,23h139
			c12.65,0,23-10.35,23-23V54.909C408,42.259,397.65,31.909,385,31.909L385,31.909z"/>
	</g>
	
		<use xlink:href="#Simple_Arrow"  width="59.1" height="24.019" id="XMLID_5_" x="-29.55" y="-11.512" transform="matrix(1.7498 0 0 -1 207.5423 79.2385)" overflow="visible"/>
	
		<use xlink:href="#Simple_Arrow"  width="59.1" height="24.019" id="XMLID_1_" x="-29.55" y="-11.512" transform="matrix(1.7498 0 0 -1 207.5423 154.8888)" overflow="visible"/>
	
		<use xlink:href="#Simple_Arrow"  width="59.1" height="24.019" id="XMLID_2_" x="-29.55" y="-11.512" transform="matrix(1.7498 0 0 -1 207.5423 227.5727)" overflow="visible"/>
	<text transform="matrix(1.0483 0 0 1 286.4795 14.4012)" fill="#231F20" font-family="'ApexNew-Book'" font-size="14">Version 2</text>
</g>
<g id="step-2">
	<g id="border_59_">
		<path fill="#414141" d="M601.266,198.075c6.065,0,11,4.935,11,11v36c0,6.065-4.935,11-11,11H473.498c-6.065,0-11-4.935-11-11v-36
			c0-6.065,4.935-11,11-11H601.266 M601.266,197.075H473.498c-6.6,0-12,5.4-12,12v36c0,6.6,5.4,12,12,12h127.768c6.6,0,12-5.4,12-12
			v-36C613.266,202.475,607.866,197.075,601.266,197.075L601.266,197.075z"/>
	</g>
	<g id="border_57_">
		<path fill="#FFFFFF" d="M473.488,185.507c-7.995,0-14.5-6.505-14.5-14.5v-36c0-7.995,6.505-14.5,14.5-14.5h127.768
			c7.995,0,14.5,6.505,14.5,14.5v36c0,7.995-6.505,14.5-14.5,14.5H473.488z"/>
		<path fill="#3F81C3" d="M601.256,123.007c6.6,0,12,5.4,12,12v36c0,6.6-5.4,12-12,12H473.488c-6.6,0-12-5.4-12-12v-36
			c0-6.6,5.4-12,12-12H601.256 M601.256,118.007H473.488c-9.374,0-17,7.626-17,17v36c0,9.374,7.626,17,17,17h127.768
			c9.374,0,17-7.626,17-17v-36C618.256,125.633,610.63,118.007,601.256,118.007L601.256,118.007z"/>
	</g>
	<text transform="matrix(1 0 0 1 503.9643 236.4867)" fill="#221F1F" font-family="'HelveticaNeue-Light'" font-size="27.7481">File C</text>
	<g id="border_55_">
		<path fill="#414141" d="M601.266,124.007c6.065,0,11,4.935,11,11v36c0,6.065-4.935,11-11,11H473.498c-6.065,0-11-4.935-11-11v-36
			c0-6.065,4.935-11,11-11H601.266 M601.266,123.007H473.498c-6.6,0-12,5.4-12,12v36c0,6.6,5.4,12,12,12h127.768c6.6,0,12-5.4,12-12
			v-36C613.266,128.407,607.866,123.007,601.266,123.007L601.266,123.007z"/>
	</g>
	<g id="border_53_">
		<path fill="#FFFFFF" d="M473.665,110.989c-7.995,0-14.5-6.505-14.5-14.5v-36c0-7.995,6.505-14.5,14.5-14.5h127.768
			c7.995,0,14.5,6.505,14.5,14.5v36c0,7.995-6.505,14.5-14.5,14.5H473.665z"/>
		<path fill="#3F81C3" d="M601.433,48.489c6.6,0,12,5.4,12,12v36c0,6.6-5.4,12-12,12H473.665c-6.6,0-12-5.4-12-12v-36
			c0-6.6,5.4-12,12-12H601.433 M601.433,43.489H473.665c-9.374,0-17,7.626-17,17v36c0,9.374,7.626,17,17,17h127.768
			c9.374,0,17-7.626,17-17v-36C618.433,51.115,610.807,43.489,601.433,43.489L601.433,43.489z"/>
	</g>
	<text transform="matrix(1 0 0 1 504.4775 162.4184)" fill="#221F1F" font-family="'HelveticaNeue-Light'" font-size="27.7481">File B</text>
	<g id="border_51_">
		<path fill="#414141" d="M601.433,49.489c6.065,0,11,4.935,11,11v36c0,6.065-4.935,11-11,11H473.665c-6.065,0-11-4.935-11-11v-36
			c0-6.065,4.935-11,11-11H601.433 M601.433,48.489H473.665c-6.6,0-12,5.4-12,12v36c0,6.6,5.4,12,12,12h127.768c6.6,0,12-5.4,12-12
			v-36C613.433,53.889,608.033,48.489,601.433,48.489L601.433,48.489z"/>
	</g>
	<text transform="matrix(1 0 0 1 504.9907 88.1534)" fill="#221F1F" font-family="'HelveticaNeue-Light'" font-size="27.7481">File A</text>
	<g id="border_49_" opacity="0.3">
		<path fill="#414141" d="M607.215,32.909c12.131,0,22,9.869,22,22v196.492c0,12.131-9.869,22-22,22h-139c-12.131,0-22-9.869-22-22
			V54.909c0-12.131,9.869-22,22-22H607.215 M607.215,31.909h-139c-12.65,0-23,10.35-23,23v196.492c0,12.65,10.35,23,23,23h139
			c12.65,0,23-10.35,23-23V54.909C630.215,42.259,619.865,31.909,607.215,31.909L607.215,31.909z"/>
	</g>
	
		<use xlink:href="#Simple_Arrow"  width="59.1" height="24.019" id="XMLID_6_" x="-29.55" y="-11.512" transform="matrix(1.7498 0 0 -1 429.7574 79.2385)" overflow="visible"/>
	
		<use xlink:href="#Simple_Arrow"  width="59.1" height="24.019" id="XMLID_4_" x="-29.55" y="-11.512" transform="matrix(1.7498 0 0 -1 429.7574 154.8888)" overflow="visible"/>
	
		<use xlink:href="#Simple_Arrow"  width="59.1" height="24.019" id="XMLID_3_" x="-29.55" y="-11.512" transform="matrix(1.7498 0 0 -1 429.7574 227.5727)" overflow="visible"/>
	<text transform="matrix(1.0483 0 0 1 508.9645 14.4012)" fill="#231F20" font-family="'ApexNew-Book'" font-size="14">Version 3</text>
</g>
</svg>
