<?xml version="1.0" encoding="utf-8"?>
<!-- Generator: Adobe Illustrator 17.1.0, SVG Export Plug-In . SVG Version: 6.00 Build 0)  -->
<!DOCTYPE svg PUBLIC "-//W3C//DTD SVG 1.1//EN" "http://www.w3.org/Graphics/SVG/1.1/DTD/svg11.dtd">
<svg version="1.1" id="Layer_1" xmlns="http://www.w3.org/2000/svg" xmlns:xlink="http://www.w3.org/1999/xlink" x="0px" y="0px"
	 viewBox="0 384.6 500 89.7" enable-background="new 0 384.6 500 89.7" xml:space="preserve">
<g id="base">
	<path id="border_17_" fill="#424242" d="M105.3,427.9c4.4,0,8,3.5,8,8v26.2c0,4.4-3.5,8-8,8h-93c-4.4,0-8-3.5-8-8v-26.2
		c0-4.4,3.5-8,8-8H105.3 M105.3,427.1h-93c-4.8,0-8.7,3.9-8.7,8.7V462c0,4.8,3.9,8.7,8.7,8.7h92.9c4.8,0,8.7-3.9,8.7-8.7v-26.1
		C114,431,110,427.1,105.3,427.1L105.3,427.1z"/>
	<path id="border_6_" fill="#424242" d="M296.2,427.9c4.4,0,8,3.5,8,8v26.2c0,4.4-3.5,8-8,8h-92.9c-4.4,0-8-3.5-8-8v-26.2
		c0-4.4,3.5-8,8-8H296.2 M296.2,427.1h-92.9c-4.8,0-8.7,3.9-8.7,8.7V462c0,4.8,3.9,8.7,8.7,8.7h92.9c4.8,0,8.7-3.9,8.7-8.7v-26.1
		C305,431,301,427.1,296.2,427.1L296.2,427.1z"/>
	<path id="border_1_" fill="#424242" d="M487.6,427.9c4.4,0,8,3.5,8,8v26.2c0,4.4-3.5,8-8,8h-92.9c-4.4,0-8-3.5-8-8v-26.2
		c0-4.4,3.5-8,8-8H487.6 M487.6,427.1h-92.9c-4.8,0-8.7,3.9-8.7,8.7V462c0,4.8,3.9,8.7,8.7,8.7h92.9c4.8,0,8.7-3.9,8.7-8.7v-26.1
		C496.4,431,492.4,427.1,487.6,427.1L487.6,427.1z"/>
	<text transform="matrix(1 0 0 1 24.6011 454.3017)" fill="#221F1F" font-family="'HelveticaNeue-Light'" font-size="20.1714">working</text>
	<text transform="matrix(1 0 0 1 218.1675 454.3017)" fill="#221F1F" font-family="'HelveticaNeue-Light'" font-size="20.1714">staging</text>
	<text transform="matrix(1 0 0 1 412.5918 454.3017)" fill="#221F1F" font-family="'HelveticaNeue-Light'" font-size="20.1714">history</text>
	<g>
		<path opacity="0.5" fill="#595A5C" enable-background="new    " d="M71.2,387l-3.5,3.5l5.4,5.4l3.5-3.5L71.2,387z M51.6,406.5v5.4
			h5.3L71,397.8l-5.4-5.4L51.6,406.5z M56.9,410.1h-3.5v-3.6h1.8v1.8H57v1.7h-0.1V410.1z"/>
		<path opacity="0.5" fill="#595A5C" enable-background="new    " d="M250.9,396c-2.5,0-4.6,2-4.6,4.6c0,2.5,2,4.6,4.6,4.6
			c0.2,0,0.4,0,0.6,0c-1.6-0.2-2.9-1.6-2.9-3.3c0-1.9,1.5-3.4,3.4-3.4c1.7,0,3.1,1.2,3.3,2.9c0-0.2,0-0.4,0-0.6
			C255.4,398.1,253.4,396,250.9,396z M264.4,391.6h-4.6l-4.6-4.6h-9l-4.6,4.6H237c-1.2,0-2.2,1-2.2,2.2v15.9c0,1.2,1,2.2,2.2,2.2
			h27.1c1.2,0,2.2-1,2.2-2.2v-15.9C266.7,392.6,265.7,391.6,264.4,391.6z M247.5,389.3h6.8l2.2,2.2h-11.3L247.5,389.3z M238.4,409.6
			c-0.6,0-1.1-0.5-1.1-1.1v-10.1h2.2v-2.2h-2.2v-1.1c0-0.6,0.5-1.1,1.1-1.1h6.5c-0.1,0.1-0.3,0.3-0.4,0.4c-3.5,3.5-3.5,9.3,0,12.7
			l2.6,2.6L238.4,409.6L238.4,409.6z M250.9,407.4c-3.7,0-6.8-3-6.8-6.8c0-3.7,3-6.8,6.8-6.8s6.8,3,6.8,6.8
			C257.6,404.3,254.6,407.4,250.9,407.4z M262.2,399.5l-5.4-5.7h5.4V399.5z"/>
		<path opacity="0.5" fill="#595A5C" enable-background="new    " d="M443.4,384.6c-2.5,0-4.9,0.8-6.9,2l-2-2v7.1h7.1l-2.4-2.4
			c1.2-0.7,2.7-1.1,4.2-1.1c5,0,8.9,3.9,8.9,8.9s-3.9,8.9-8.9,8.9s-8.9-3.9-8.9-8.9c0-1.3,0.3-2.4,0.7-3.5h-2.5v-2.7
			c-1.1,1.8-1.8,4-1.8,6.3c0,6.9,5.6,12.4,12.4,12.4s12.4-5.6,12.4-12.4C455.7,390.2,450.3,384.6,443.4,384.6z M443.3,405.9l1.8-1.7
			v-5.4h3.5l1.8-1.8l-1.8-1.8h-3.5l-1.8-1.8l-3.5,3.5l1.8,1.8v5.4L443.3,405.9z"/>
	</g>
</g>
<g id="step-1-in-out" display="none">
	<path id="border_15_" display="inline" fill="#4081C3" d="M105.3,427.1c4.8,0,8.7,3.9,8.7,8.7V462c0,4.8-3.9,8.7-8.7,8.7h-93
		c-4.8,0-8.7-3.9-8.7-8.7v-26.1c0-4.8,3.9-8.7,8.7-8.7L105.3,427.1 M105.3,423.4h-93C5.5,423.4,0,429,0,435.8V462
		c0,6.8,5.6,12.3,12.3,12.3h92.9c6.8,0,12.3-5.6,12.3-12.3v-26.2C117.6,429,112,423.4,105.3,423.4L105.3,423.4z"/>
</g>
<g id="step-2-in-out">
	<path id="border" fill="#4081C3" d="M296.2,427.1c4.8,0,8.7,3.9,8.7,8.7V462c0,4.8-3.9,8.7-8.7,8.7h-92.9c-4.8,0-8.7-3.9-8.7-8.7
		v-26.1c0-4.8,3.9-8.7,8.7-8.7L296.2,427.1 M296.2,423.4h-92.9c-6.8,0-12.3,5.6-12.3,12.3v26.2c0,6.8,5.6,12.3,12.3,12.3h92.9
		c6.8,0,12.3-5.6,12.3-12.3v-26.1C308.5,429,303,423.4,296.2,423.4L296.2,423.4z"/>
	<text transform="matrix(1.0483 0 0 1 145.7915 440.1836)" fill="#231F20" font-family="'ApexNew-Book'" font-size="10.1772">add</text>
	<g>
		
			<line fill="none" stroke="#FFFFFF" stroke-width="6" stroke-linecap="round" stroke-linejoin="round" stroke-miterlimit="10" x1="108.2" y1="449.6" x2="207.6" y2="449.6"/>
		<g>
			<line fill="none" stroke="#231F20" stroke-width="3" stroke-miterlimit="10" x1="108.2" y1="449.6" x2="205.1" y2="449.6"/>
			<g>
				<polygon fill="#231F20" points="197.6,458.9 196,457.3 204.2,449.6 196,442 197.6,440.3 207.6,449.6 				"/>
			</g>
		</g>
	</g>
</g>
<g id="step-3" display="none">
	<path id="border_2_" display="inline" fill="#4081C3" d="M487.6,427.1c4.8,0,8.7,3.9,8.7,8.7V462c0,4.8-3.9,8.7-8.7,8.7h-92.9
		c-4.8,0-8.7-3.9-8.7-8.7v-26.1c0-4.8,3.9-8.7,8.7-8.7L487.6,427.1 M487.6,423.4h-92.9c-6.8,0-12.3,5.6-12.3,12.3v26.2
		c0,6.8,5.6,12.3,12.3,12.3h92.9c6.8,0,12.3-5.6,12.3-12.3v-26.1C500,429,494.4,423.4,487.6,423.4L487.6,423.4z"/>
	
		<text transform="matrix(1 0 0 1 331.4814 440.1836)" display="inline" fill="#010101" font-family="'MyriadPro-Regular'" font-size="8.7234">commit</text>
	<g display="inline">
		
			<line fill="none" stroke="#FFFFFF" stroke-width="6" stroke-linecap="round" stroke-linejoin="round" stroke-miterlimit="10" x1="298.9" y1="449.6" x2="398.3" y2="449.6"/>
		<g>
			<line fill="none" stroke="#231F20" stroke-width="3" stroke-miterlimit="10" x1="298.9" y1="449.6" x2="395.8" y2="449.6"/>
			<g>
				<polygon fill="#231F20" points="388.3,458.9 386.7,457.3 394.9,449.6 386.7,442 388.3,440.3 398.3,449.6 				"/>
			</g>
		</g>
	</g>
</g>
</svg>
