<?xml version="1.0" encoding="utf-8"?>
<!-- Generator: Adobe Illustrator 17.1.0, SVG Export Plug-In . SVG Version: 6.00 Build 0)  -->
<!DOCTYPE svg PUBLIC "-//W3C//DTD SVG 1.1//EN" "http://www.w3.org/Graphics/SVG/1.1/DTD/svg11.dtd">
<svg version="1.1" id="Layer_1" xmlns="http://www.w3.org/2000/svg" xmlns:xlink="http://www.w3.org/1999/xlink" x="0px" y="0px"
	 viewBox="0 188 500 141" enable-background="new 0 188 500 141" xml:space="preserve">
<g id="base">
	<path id="border_17_" fill="#424242" d="M105.3,248.4c4.4,0,8,3.5,8,8v26.2c0,4.4-3.5,8-8,8H12.3c-4.4,0-8-3.5-8-8v-26.2
		c0-4.4,3.5-8,8-8H105.3 M105.3,247.6H12.3c-4.8,0-8.7,3.9-8.7,8.7v26.2c0,4.8,3.9,8.7,8.7,8.7h92.9c4.8,0,8.7-3.9,8.7-8.7v-26.1
		C114,251.5,110,247.6,105.3,247.6L105.3,247.6z"/>
	<path id="border_6_" fill="#424242" d="M296.2,248.4c4.4,0,8,3.5,8,8v26.2c0,4.4-3.5,8-8,8h-92.9c-4.4,0-8-3.5-8-8v-26.2
		c0-4.4,3.5-8,8-8H296.2 M296.2,247.6h-92.9c-4.8,0-8.7,3.9-8.7,8.7v26.2c0,4.8,3.9,8.7,8.7,8.7h92.9c4.8,0,8.7-3.9,8.7-8.7v-26.1
		C305,251.5,301,247.6,296.2,247.6L296.2,247.6z"/>
	<path id="border_1_" fill="#424242" d="M487.6,248.4c4.4,0,8,3.5,8,8v26.2c0,4.4-3.5,8-8,8h-92.9c-4.4,0-8-3.5-8-8v-26.2
		c0-4.4,3.5-8,8-8H487.6 M487.6,247.6h-92.9c-4.8,0-8.7,3.9-8.7,8.7v26.2c0,4.8,3.9,8.7,8.7,8.7h92.9c4.8,0,8.7-3.9,8.7-8.7v-26.1
		C496.4,251.5,492.4,247.6,487.6,247.6L487.6,247.6z"/>
	<text transform="matrix(1 0 0 1 24.6011 274.8017)" fill="#221F1F" font-family="'HelveticaNeue-Light'" font-size="20.1714">working</text>
	<text transform="matrix(1 0 0 1 218.1675 274.8017)" fill="#221F1F" font-family="'HelveticaNeue-Light'" font-size="20.1714">staging</text>
	<text transform="matrix(1 0 0 1 412.5918 274.8017)" fill="#221F1F" font-family="'HelveticaNeue-Light'" font-size="20.1714">history</text>
	<g>
		<path opacity="0.5" fill="#595A5C" enable-background="new    " d="M71.2,207.5l-3.5,3.5l5.4,5.4l3.5-3.5L71.2,207.5z M51.6,227
			v5.4h5.3L71,218.3l-5.4-5.4L51.6,227z M56.9,230.6h-3.5V227h1.8v1.8H57v1.7H56.9z"/>
		<path opacity="0.5" fill="#595A5C" enable-background="new    " d="M250.9,216.5c-2.5,0-4.6,2-4.6,4.6c0,2.5,2,4.6,4.6,4.6
			c0.2,0,0.4,0,0.6,0c-1.6-0.2-2.9-1.6-2.9-3.3c0-1.9,1.5-3.4,3.4-3.4c1.7,0,3.1,1.2,3.3,2.9c0-0.2,0-0.4,0-0.6
			C255.4,218.6,253.4,216.5,250.9,216.5z M264.4,212.1h-4.6l-4.6-4.6h-9l-4.6,4.6h-4.6c-1.2,0-2.2,1-2.2,2.2v15.9
			c0,1.2,1,2.2,2.2,2.2h27.1c1.2,0,2.2-1,2.2-2.2v-15.9C266.7,213.1,265.7,212.1,264.4,212.1z M247.5,209.8h6.8l2.2,2.2h-11.3
			L247.5,209.8z M238.4,230.1c-0.6,0-1.1-0.5-1.1-1.1v-10.1h2.2v-2.2h-2.2v-1.1c0-0.6,0.5-1.1,1.1-1.1h6.5c-0.1,0.1-0.3,0.3-0.4,0.4
			c-3.5,3.5-3.5,9.3,0,12.7l2.6,2.6L238.4,230.1L238.4,230.1z M250.9,227.9c-3.7,0-6.8-3-6.8-6.8c0-3.7,3-6.8,6.8-6.8s6.8,3,6.8,6.8
			C257.6,224.8,254.6,227.9,250.9,227.9z M262.2,220l-5.4-5.7h5.4V220z"/>
		<path opacity="0.5" fill="#595A5C" enable-background="new    " d="M443.4,205.1c-2.5,0-4.9,0.8-6.9,2l-2-2v7.1h7.1l-2.4-2.4
			c1.2-0.7,2.7-1.1,4.2-1.1c5,0,8.9,3.9,8.9,8.9c0,5-3.9,8.9-8.9,8.9c-5,0-8.9-3.9-8.9-8.9c0-1.3,0.3-2.4,0.7-3.5h-2.5v-2.7
			c-1.1,1.8-1.8,4-1.8,6.3c0,6.9,5.6,12.4,12.4,12.4s12.4-5.6,12.4-12.4C455.7,210.7,450.3,205.1,443.4,205.1z M443.3,226.4l1.8-1.7
			v-5.4h3.5l1.8-1.8l-1.8-1.8h-3.5l-1.8-1.8l-3.5,3.5l1.8,1.8v5.4L443.3,226.4z"/>
	</g>
</g>
<g id="step-1-in-out">
	<path id="border_15_" fill="#4081C3" d="M105.3,247.6c4.8,0,8.7,3.9,8.7,8.7v26.2c0,4.8-3.9,8.7-8.7,8.7H12.3
		c-4.8,0-8.7-3.9-8.7-8.7v-26.1c0-4.8,3.9-8.7,8.7-8.7L105.3,247.6 M105.3,243.9H12.3c-6.8,0-12.3,5.6-12.3,12.4v26.2
		c0,6.8,5.6,12.3,12.3,12.3h92.9c6.8,0,12.3-5.6,12.3-12.3v-26.2C117.6,249.5,112,243.9,105.3,243.9L105.3,243.9z"/>
</g>
<g id="step-2-in-out">
	<path id="border" fill="#4081C3" d="M296.2,247.6c4.8,0,8.7,3.9,8.7,8.7v26.2c0,4.8-3.9,8.7-8.7,8.7h-92.9c-4.8,0-8.7-3.9-8.7-8.7
		v-26.1c0-4.8,3.9-8.7,8.7-8.7L296.2,247.6 M296.2,243.9h-92.9c-6.8,0-12.3,5.6-12.3,12.3v26.2c0,6.8,5.6,12.3,12.3,12.3h92.9
		c6.8,0,12.3-5.6,12.3-12.3v-26.1C308.5,249.5,303,243.9,296.2,243.9L296.2,243.9z"/>
	<text transform="matrix(1.0483 0 0 1 145.7915 260.6836)" fill="#231F20" font-family="'ApexNew-Book'" font-size="10.1772">add</text>
	<g>
		
			<line fill="none" stroke="#FFFFFF" stroke-width="6" stroke-linecap="round" stroke-linejoin="round" stroke-miterlimit="10" x1="108.2" y1="270.1" x2="207.6" y2="270.1"/>
		<g>
			<line fill="none" stroke="#231F20" stroke-width="3" stroke-miterlimit="10" x1="108.2" y1="270.1" x2="205.1" y2="270.1"/>
			<g>
				<polygon fill="#231F20" points="197.6,279.4 196,277.8 204.2,270.1 196,262.5 197.6,260.8 207.6,270.1 				"/>
			</g>
		</g>
	</g>
</g>
<g id="step-3">
	<path id="border_2_" fill="#4081C3" d="M487.6,247.6c4.8,0,8.7,3.9,8.7,8.7v26.2c0,4.8-3.9,8.7-8.7,8.7h-92.9
		c-4.8,0-8.7-3.9-8.7-8.7v-26.1c0-4.8,3.9-8.7,8.7-8.7L487.6,247.6 M487.6,243.9h-92.9c-6.8,0-12.3,5.6-12.3,12.3v26.2
		c0,6.8,5.6,12.3,12.3,12.3h92.9c6.8,0,12.3-5.6,12.3-12.3v-26.1C500,249.5,494.4,243.9,487.6,243.9L487.6,243.9z"/>
	<text transform="matrix(1 0 0 1 331.4814 260.6836)" fill="#010101" font-family="'MyriadPro-Regular'" font-size="8.7234">commit</text>
	<g>
		
			<line fill="none" stroke="#FFFFFF" stroke-width="6" stroke-linecap="round" stroke-linejoin="round" stroke-miterlimit="10" x1="298.9" y1="270.1" x2="398.3" y2="270.1"/>
		<g>
			<line fill="none" stroke="#231F20" stroke-width="3" stroke-miterlimit="10" x1="298.9" y1="270.1" x2="395.8" y2="270.1"/>
			<g>
				<polygon fill="#231F20" points="388.3,279.4 386.7,277.8 394.9,270.1 386.7,262.5 388.3,260.8 398.3,270.1 				"/>
			</g>
		</g>
	</g>
</g>
</svg>
