<?xml version="1.0" encoding="utf-8"?>
<!-- Generator: Adobe Illustrator 17.0.2, SVG Export Plug-In . SVG Version: 6.00 Build 0)  -->
<!DOCTYPE svg PUBLIC "-//W3C//DTD SVG 1.1//EN" "http://www.w3.org/Graphics/SVG/1.1/DTD/svg11.dtd">
<svg version="1.1" id="Layer_1" xmlns="http://www.w3.org/2000/svg" xmlns:xlink="http://www.w3.org/1999/xlink" x="0px" y="0px"
	 width="494.47px" height="88.764px" viewBox="0 0 494.47 88.764" enable-background="new 0 0 494.47 88.764" xml:space="preserve">
<g id="base">
	<path id="border_17_" fill="#424242" d="M104.081,42.751c4.361,0,7.908,3.548,7.908,7.908v25.882c0,4.361-3.548,7.908-7.908,7.908
		H12.222c-4.361,0-7.908-3.548-7.908-7.908V50.66c0-4.361,3.548-7.908,7.908-7.908L104.081,42.751 M104.081,42.032H12.222
		c-4.745,0-8.627,3.882-8.627,8.627v25.882c0,4.745,3.882,8.627,8.627,8.627h91.859c4.745,0,8.627-3.882,8.627-8.627V50.66
		C112.708,45.914,108.826,42.032,104.081,42.032L104.081,42.032z"/>
	<path id="border_6_" fill="#424242" d="M292.924,42.751c4.361,0,7.908,3.548,7.908,7.908v25.882c0,4.361-3.548,7.908-7.908,7.908
		h-91.859c-4.361,0-7.908-3.548-7.908-7.908V50.66c0-4.361,3.548-7.908,7.908-7.908L292.924,42.751 M292.924,42.032h-91.859
		c-4.745,0-8.627,3.882-8.627,8.627v25.882c0,4.745,3.882,8.627,8.627,8.627h91.859c4.745,0,8.627-3.882,8.627-8.627V50.66
		C301.552,45.914,297.669,42.032,292.924,42.032L292.924,42.032z"/>
	<path id="border_1_" fill="#424242" d="M482.247,42.751c4.361,0,7.908,3.548,7.908,7.908v25.882c0,4.361-3.548,7.908-7.908,7.908
		h-91.859c-4.361,0-7.908-3.548-7.908-7.908V50.66c0-4.361,3.548-7.908,7.908-7.908L482.247,42.751 M482.247,42.032h-91.859
		c-4.745,0-8.627,3.882-8.627,8.627v25.882c0,4.745,3.882,8.627,8.627,8.627h91.859c4.745,0,8.627-3.882,8.627-8.627V50.66
		C490.875,45.914,486.992,42.032,482.247,42.032L482.247,42.032z"/>
	<text transform="matrix(1 0 0 1 24.3306 68.9293)" fill="#221F1F" font-family="'HelveticaNeue-Light'" font-size="19.9495">working</text>
	<text transform="matrix(1 0 0 1 215.7676 68.9293)" fill="#221F1F" font-family="'HelveticaNeue-Light'" font-size="19.9495">staging</text>
	<text transform="matrix(1 0 0 1 408.0538 68.9293)" fill="#221F1F" font-family="'HelveticaNeue-Light'" font-size="19.9495">history</text>
	<g>
		<path opacity="0.5" fill="#595A5C" enable-background="new    " d="M70.36,2.386l-3.512,3.512l5.267,5.267l3.512-3.512
			L70.36,2.386z M51.047,21.699l0.019,5.283l5.248-0.015L70.36,12.921l-5.267-5.267L51.047,21.699z M56.314,25.211h-3.512v-3.512
			h1.756v1.756h1.756V25.211z"/>
		<path opacity="0.5" fill="#595A5C" enable-background="new    " d="M248.116,11.33c-2.47,0-4.472,2.002-4.472,4.472
			s2.002,4.472,4.472,4.472c0.2,0,0.396-0.013,0.589-0.039c-1.619-0.247-2.86-1.645-2.86-3.333c0-1.862,1.509-3.371,3.371-3.371
			c1.688,0,3.086,1.241,3.333,2.86c0.025-0.193,0.039-0.389,0.039-0.589C252.588,13.332,250.586,11.33,248.116,11.33z
			 M261.532,6.858h-4.472l-4.472-4.472h-8.944l-4.472,4.472H234.7c-1.235,0-2.236,1.001-2.236,2.236v15.652
			c0,1.235,1.001,2.236,2.236,2.236h26.832c1.235,0,2.236-1.001,2.236-2.236V9.094C263.768,7.859,262.767,6.858,261.532,6.858z
			 M244.762,4.622h6.708l2.236,2.236h-11.18L244.762,4.622z M235.823,24.746c-0.62,0-1.123-0.503-1.123-1.123V13.566h2.236V11.33
			H234.7v-1.113c0-0.62,0.503-1.123,1.123-1.123h6.377c-0.139,0.123-0.275,0.251-0.408,0.384c-3.493,3.493-3.493,9.156,0,12.649
			l2.62,2.62L235.823,24.746L235.823,24.746z M248.116,22.51c-3.705,0-6.708-3.003-6.708-6.708s3.003-6.708,6.708-6.708
			s6.708,3.003,6.708,6.708S251.82,22.51,248.116,22.51z M259.296,14.684l-5.264-5.59h5.264V14.684z"/>
		<path opacity="0.5" fill="#595A5C" enable-background="new    " d="M438.475,0c-2.496,0-4.813,0.756-6.751,2.033L429.691,0v7.027
			h7.027l-2.416-2.416c1.247-0.678,2.654-1.098,4.173-1.098c4.852,0,8.784,3.932,8.784,8.784s-3.932,8.784-8.784,8.784
			c-4.853,0-8.784-3.932-8.784-8.784c0-1.251,0.268-2.437,0.741-3.514h-2.498V6.056c-1.09,1.837-1.757,3.953-1.757,6.243
			c0,6.792,5.506,12.298,12.298,12.298s12.298-5.506,12.298-12.298S445.267,0,438.475,0z M438.448,21.055l1.783-1.729v-5.271h3.514
			l1.757-1.757l-1.757-1.757h-3.514l-1.757-1.757l-3.514,3.514l1.757,1.757v5.271L438.448,21.055z"/>
	</g>
</g>
<g id="step-1-in-out">
	<path id="border_15_" fill="#4081C3" d="M104.081,42.032c4.745,0,8.627,3.882,8.627,8.627v25.882c0,4.745-3.882,8.627-8.627,8.627
		H12.222c-4.745,0-8.627-3.882-8.627-8.627V50.66c0-4.745,3.882-8.627,8.627-8.627L104.081,42.032 M104.081,38.437H12.222
		C5.483,38.437,0,43.92,0,50.66v25.882c0,6.739,5.483,12.222,12.222,12.222h91.859c6.739,0,12.222-5.483,12.222-12.222V50.66
		C116.303,43.92,110.82,38.437,104.081,38.437L104.081,38.437z"/>
</g>
<g id="step-2-in-out">
	<path id="border" fill="#4081C3" d="M292.924,42.032c4.745,0,8.627,3.882,8.627,8.627v25.882c0,4.745-3.882,8.627-8.627,8.627
		h-91.859c-4.745,0-8.627-3.882-8.627-8.627V50.66c0-4.745,3.882-8.627,8.627-8.627L292.924,42.032 M292.924,38.437h-91.859
		c-6.739,0-12.222,5.483-12.222,12.222v25.882c0,6.739,5.483,12.222,12.222,12.222h91.859c6.739,0,12.222-5.483,12.222-12.222V50.66
		C305.147,43.92,299.664,38.437,292.924,38.437L292.924,38.437z"/>
	<text transform="matrix(1.0483 0 0 1 144.1885 54.9663)" fill="#231F20" font-family="'ApexNew-Book'" font-size="10.0653">add</text>
	<g>
		
			<line fill="none" stroke="#FFFFFF" stroke-width="6" stroke-linecap="round" stroke-linejoin="round" stroke-miterlimit="10" x1="106.957" y1="64.32" x2="205.26" y2="64.32"/>
		<g>
			<line fill="none" stroke="#231F20" stroke-width="3" stroke-miterlimit="10" x1="106.957" y1="64.32" x2="202.82" y2="64.32"/>
			<g>
				<polygon fill="#231F20" points="195.364,73.522 193.829,71.874 201.956,64.322 193.829,56.768 195.364,55.12 205.26,64.322 				
					"/>
			</g>
		</g>
	</g>
</g>
<g id="step-3">
	<path id="border_2_" fill="#4081C3" d="M482.247,42.032c4.745,0,8.627,3.882,8.627,8.627v25.882c0,4.745-3.882,8.627-8.627,8.627
		h-91.859c-4.745,0-8.627-3.882-8.627-8.627V50.66c0-4.745,3.882-8.627,8.627-8.627L482.247,42.032 M482.247,38.437h-91.859
		c-6.739,0-12.222,5.483-12.222,12.222v25.882c0,6.739,5.483,12.222,12.222,12.222h91.859c6.739,0,12.222-5.483,12.222-12.222V50.66
		C494.47,43.92,488.987,38.437,482.247,38.437L482.247,38.437z"/>
	<text transform="matrix(1 0 0 1 327.835 54.9664)" fill="#010101" font-family="'MyriadPro-Regular'" font-size="8.6274">commit</text>
	<g>
		
			<line fill="none" stroke="#FFFFFF" stroke-width="6" stroke-linecap="round" stroke-linejoin="round" stroke-miterlimit="10" x1="295.561" y1="64.32" x2="393.864" y2="64.32"/>
		<g>
			<line fill="none" stroke="#231F20" stroke-width="3" stroke-miterlimit="10" x1="295.561" y1="64.32" x2="391.424" y2="64.32"/>
			<g>
				<polygon fill="#231F20" points="383.968,73.522 382.433,71.874 390.56,64.322 382.433,56.768 383.968,55.12 393.864,64.322 				
					"/>
			</g>
		</g>
	</g>
</g>
<g id="boundary">
	<rect x="0" y="0" fill="none" stroke="#C04141" stroke-width="4" stroke-miterlimit="10" width="494.47" height="88.764"/>
</g>
</svg>
