<?xml version="1.0" encoding="utf-8"?>
<!-- Generator: Adobe Illustrator 17.1.0, SVG Export Plug-In . SVG Version: 6.00 Build 0)  -->
<!DOCTYPE svg PUBLIC "-//W3C//DTD SVG 1.1//EN" "http://www.w3.org/Graphics/SVG/1.1/DTD/svg11.dtd">
<svg version="1.1" id="Layer_1" xmlns="http://www.w3.org/2000/svg" xmlns:xlink="http://www.w3.org/1999/xlink" x="0px" y="0px"
	 viewBox="0 336 500 126.3" enable-background="new 0 336 500 126.3" xml:space="preserve">
<g id="base">
	<path id="border_17_" fill="#424242" d="M105.3,379.2c4.4,0,8,3.5,8,8v26.2c0,4.4-3.5,8-8,8h-93c-4.4,0-8-3.5-8-8v-26.2
		c0-4.4,3.5-8,8-8H105.3 M105.3,378.5h-93c-4.8,0-8.7,3.9-8.7,8.7v26.2c0,4.8,3.9,8.7,8.7,8.7h92.9c4.8,0,8.7-3.9,8.7-8.7v-26.1
		C114,382.4,110,378.5,105.3,378.5L105.3,378.5z"/>
	<path id="border_6_" fill="#424242" d="M296.2,379.2c4.4,0,8,3.5,8,8v26.2c0,4.4-3.5,8-8,8h-92.9c-4.4,0-8-3.5-8-8v-26.2
		c0-4.4,3.5-8,8-8H296.2 M296.2,378.5h-92.9c-4.8,0-8.7,3.9-8.7,8.7v26.2c0,4.8,3.9,8.7,8.7,8.7h92.9c4.8,0,8.7-3.9,8.7-8.7v-26.1
		C305,382.4,301,378.5,296.2,378.5L296.2,378.5z"/>
	<path id="border_1_" fill="#424242" d="M487.6,379.2c4.4,0,8,3.5,8,8v26.2c0,4.4-3.5,8-8,8h-92.9c-4.4,0-8-3.5-8-8v-26.2
		c0-4.4,3.5-8,8-8H487.6 M487.6,378.5h-92.9c-4.8,0-8.7,3.9-8.7,8.7v26.2c0,4.8,3.9,8.7,8.7,8.7h92.9c4.8,0,8.7-3.9,8.7-8.7v-26.1
		C496.4,382.4,492.4,378.5,487.6,378.5L487.6,378.5z"/>
	<text transform="matrix(1 0 0 1 24.6011 405.6636)" fill="#221F1F" font-family="'HelveticaNeue-Light'" font-size="20.1714">working</text>
	<text transform="matrix(1 0 0 1 218.1675 405.6636)" fill="#221F1F" font-family="'HelveticaNeue-Light'" font-size="20.1714">staging</text>
	<text transform="matrix(1 0 0 1 412.5918 405.6636)" fill="#221F1F" font-family="'HelveticaNeue-Light'" font-size="20.1714">history</text>
	<path opacity="0.5" fill="#595A5C" enable-background="new    " d="M71.2,338.4l-3.5,3.5l5.3,5.4l3.5-3.5L71.2,338.4z M51.6,358
		v5.4h5.3L71,349.2l-5.4-5.4L51.6,358z M56.9,361.5h-3.5V358h1.8v1.8H57L56.9,361.5L56.9,361.5z"/>
	<path opacity="0.5" fill="#595A5C" enable-background="new    " d="M250.9,347.4c-2.5,0-4.6,2-4.6,4.6c0,2.5,2,4.6,4.6,4.6
		c0.2,0,0.4,0,0.6,0c-1.6-0.2-2.9-1.6-2.9-3.3c0-1.9,1.5-3.4,3.4-3.4c1.7,0,3.1,1.2,3.3,2.9c0-0.2,0-0.4,0-0.6
		C255.4,349.5,253.4,347.4,250.9,347.4z M264.4,343h-4.6l-4.6-4.6h-9l-4.6,4.6H237c-1.2,0-2.2,1-2.2,2.2V361c0,1.2,1,2.2,2.2,2.2
		h27.1c1.2,0,2.2-1,2.2-2.2v-15.9C266.7,344,265.7,343,264.4,343z M247.5,340.7h6.8l2.2,2.2h-11.3L247.5,340.7z M238.4,361
		c-0.6,0-1.1-0.5-1.1-1.1v-10.1h2.2v-2.2h-2.2v-1.1c0-0.6,0.5-1.1,1.1-1.1h6.5c-0.1,0.1-0.3,0.3-0.4,0.4c-3.5,3.5-3.5,9.3,0,12.7
		l2.6,2.6L238.4,361L238.4,361z M250.9,358.8c-3.7,0-6.8-3-6.8-6.8c0-3.7,3-6.8,6.8-6.8s6.8,3,6.8,6.8
		C257.6,355.7,254.6,358.8,250.9,358.8z M262.2,350.9l-5.4-5.7h5.4V350.9z"/>
	<path opacity="0.5" fill="#595A5C" enable-background="new    " d="M443.4,336c-2.5,0-4.9,0.8-6.9,2l-2-2v7.1h7.1l-2.4-2.4
		c1.2-0.7,2.7-1.1,4.2-1.1c5,0,8.9,3.9,8.9,8.9s-3.9,8.9-8.9,8.9s-8.9-3.9-8.9-8.9c0-1.3,0.3-2.4,0.7-3.5h-2.5v-2.7
		c-1.1,1.8-1.8,4-1.8,6.3c0,6.9,5.6,12.4,12.4,12.4s12.4-5.6,12.4-12.4C455.7,341.6,450.3,336,443.4,336z M443.3,357.4l1.8-1.7v-5.4
		h3.5l1.8-1.8l-1.8-1.8h-3.5l-1.8-1.8l-3.5,3.5l1.8,1.8v5.4L443.3,357.4z"/>
</g>
<g id="step-1-in-out">
	<path id="border_15_" fill="#4081C3" d="M105.3,378.5c4.8,0,8.7,3.9,8.7,8.7v26.2c0,4.8-3.9,8.7-8.7,8.7h-93
		c-4.8,0-8.7-3.9-8.7-8.7v-26.1c0-4.8,3.9-8.7,8.7-8.7L105.3,378.5 M105.3,374.8h-93c-6.7,0-12.3,5.6-12.3,12.5v26.2
		c0,6.8,5.6,12.3,12.3,12.3h92.9c6.8,0,12.3-5.6,12.3-12.3v-26.2C117.6,380.4,112,374.8,105.3,374.8L105.3,374.8z"/>
	<line fill="none" stroke="#231F20" stroke-width="3" stroke-miterlimit="10" x1="113.2" y1="401" x2="192.8" y2="401"/>
	<polygon fill="#231F20" points="185.3,410.2 183.7,408.7 192,401 183.7,393.4 185.3,391.7 195.3,401 	"/>
</g>
<g id="step-2-in-out" display="none">
	<path id="border_2_" display="inline" fill="#4081C3" d="M296.2,378.5c4.8,0,8.7,3.9,8.7,8.7v26.2c0,4.8-3.9,8.7-8.7,8.7h-92.9
		c-4.8,0-8.7-3.9-8.7-8.7v-26.1c0-4.8,3.9-8.7,8.7-8.7L296.2,378.5 M296.2,374.8h-92.9c-6.8,0-12.3,5.6-12.3,12.3v26.2
		c0,6.8,5.6,12.3,12.3,12.3h92.9c6.8,0,12.3-5.6,12.3-12.3v-26C308.5,380.4,303,374.8,296.2,374.8L296.2,374.8z"/>
	
		<line display="inline" fill="none" stroke="#231F20" stroke-width="3" stroke-miterlimit="10" x1="305" y1="401" x2="384.5" y2="401"/>
	<polygon display="inline" fill="#231F20" points="376.9,410.2 375.4,408.7 383.6,401 375.4,393.4 376.9,391.7 387,401 	"/>
</g>
<g id="step-3-in-out" display="none">
	<path id="border_3_" display="inline" fill="#4081C3" d="M105.3,378.5c4.8,0,8.7,3.9,8.7,8.7v26.2c0,4.8-3.9,8.7-8.7,8.7h-93
		c-4.8,0-8.7-3.9-8.7-8.7v-26.1c0-4.8,3.9-8.7,8.7-8.7L105.3,378.5 M105.3,374.8h-93c-6.7,0-12.3,5.6-12.3,12.5v26.2
		c0,6.8,5.6,12.3,12.3,12.3h92.9c6.8,0,12.3-5.6,12.3-12.3v-26.2C117.6,380.4,112,374.8,105.3,374.8L105.3,374.8z"/>
	<path display="inline" fill="none" stroke="#231F20" stroke-width="3" stroke-miterlimit="10" d="M58.7,421.4v30.8
		c0,5.6,4.6,10.1,10.1,10.1h364.3c5.6,0,10.1-4.6,10.1-10.1v-28.3"/>
	<polygon display="inline" fill="#231F20" points="452.7,431.4 451,433 443.4,424.8 435.7,433 434.1,431.4 443.4,421.4 	"/>
</g>
</svg>
