<?xml version="1.0" encoding="utf-8"?>
<!-- Generator: Adobe Illustrator 17.1.0, SVG Export Plug-In . SVG Version: 6.00 Build 0)  -->
<!DOCTYPE svg PUBLIC "-//W3C//DTD SVG 1.1//EN" "http://www.w3.org/Graphics/SVG/1.1/DTD/svg11.dtd">
<svg version="1.1" id="Layer_1" xmlns="http://www.w3.org/2000/svg" xmlns:xlink="http://www.w3.org/1999/xlink" x="0px" y="0px"
	 viewBox="0 149.5 500 149.5" enable-background="new 0 149.5 500 149.5" xml:space="preserve">
<g id="base">
	<path id="border_17_" fill="#424242" d="M105.3,204c4.4,0,8,3.5,8,8v26.2c0,4.4-3.5,8-8,8h-93c-4.4,0-8-3.5-8-8V212
		c0-4.4,3.5-8,8-8H105.3 M105.3,203.2h-93c-4.8,0-8.7,3.9-8.7,8.7v26.2c0,4.8,3.9,8.7,8.7,8.7h92.9c4.8,0,8.7-3.9,8.7-8.7V212
		C114,207.1,110,203.2,105.3,203.2L105.3,203.2z"/>
	<path id="border_6_" fill="#424242" d="M296.2,204c4.4,0,8,3.5,8,8v26.2c0,4.4-3.5,8-8,8h-92.9c-4.4,0-8-3.5-8-8V212
		c0-4.4,3.5-8,8-8H296.2 M296.2,203.2h-92.9c-4.8,0-8.7,3.9-8.7,8.7v26.2c0,4.8,3.9,8.7,8.7,8.7h92.9c4.8,0,8.7-3.9,8.7-8.7V212
		C305,207.1,301,203.2,296.2,203.2L296.2,203.2z"/>
	<path id="border_1_" fill="#424242" d="M487.6,204c4.4,0,8,3.5,8,8v26.2c0,4.4-3.5,8-8,8h-92.9c-4.4,0-8-3.5-8-8V212
		c0-4.4,3.5-8,8-8H487.6 M487.6,203.2h-92.9c-4.8,0-8.7,3.9-8.7,8.7v26.2c0,4.8,3.9,8.7,8.7,8.7h92.9c4.8,0,8.7-3.9,8.7-8.7V212
		C496.4,207.1,492.4,203.2,487.6,203.2L487.6,203.2z"/>
	<text transform="matrix(1 0 0 1 24.6011 230.4136)" fill="#221F1F" font-family="'HelveticaNeue-Light'" font-size="20.1714">working</text>
	<text transform="matrix(1 0 0 1 218.1675 230.4136)" fill="#221F1F" font-family="'HelveticaNeue-Light'" font-size="20.1714">staging</text>
	<text transform="matrix(1 0 0 1 412.5918 230.4136)" fill="#221F1F" font-family="'HelveticaNeue-Light'" font-size="20.1714">history</text>
	<path opacity="0.5" fill="#595A5C" enable-background="new    " d="M71.2,163.1l-3.5,3.5L73,172l3.5-3.5L71.2,163.1z M51.6,182.7
		v5.4h5.3L71,173.9l-5.4-5.4L51.6,182.7z M56.9,186.2h-3.5v-3.5h1.8v1.8H57L56.9,186.2L56.9,186.2z"/>
	<path opacity="0.5" fill="#595A5C" enable-background="new    " d="M250.9,172.1c-2.5,0-4.6,2-4.6,4.6c0,2.5,2,4.6,4.6,4.6
		c0.2,0,0.4,0,0.6,0c-1.6-0.2-2.9-1.6-2.9-3.3c0-1.9,1.5-3.4,3.4-3.4c1.7,0,3.1,1.2,3.3,2.9c0-0.2,0-0.4,0-0.6
		C255.4,174.2,253.4,172.1,250.9,172.1z M264.4,167.7h-4.6l-4.6-4.6h-9l-4.6,4.6H237c-1.2,0-2.2,1-2.2,2.2v15.9c0,1.2,1,2.2,2.2,2.2
		h27.1c1.2,0,2.2-1,2.2-2.2v-15.9C266.7,168.7,265.7,167.7,264.4,167.7z M247.5,165.4h6.8l2.2,2.2h-11.3L247.5,165.4z M238.4,185.7
		c-0.6,0-1.1-0.5-1.1-1.1v-10.1h2.2v-2.2h-2.2v-1.1c0-0.6,0.5-1.1,1.1-1.1h6.5c-0.1,0.1-0.3,0.3-0.4,0.4c-3.5,3.5-3.5,9.3,0,12.7
		l2.6,2.6L238.4,185.7L238.4,185.7z M250.9,183.5c-3.7,0-6.8-3-6.8-6.8c0-3.7,3-6.8,6.8-6.8s6.8,3,6.8,6.8
		C257.6,180.4,254.6,183.5,250.9,183.5z M262.2,175.6l-5.4-5.7h5.4V175.6z"/>
	<path opacity="0.5" fill="#595A5C" enable-background="new    " d="M443.4,160.7c-2.5,0-4.9,0.8-6.9,2l-2-2v7.1h7.1l-2.4-2.4
		c1.2-0.7,2.7-1.1,4.2-1.1c5,0,8.9,3.9,8.9,8.9s-3.9,8.9-8.9,8.9s-8.9-3.9-8.9-8.9c0-1.3,0.3-2.4,0.7-3.5h-2.5V167
		c-1.1,1.8-1.8,4-1.8,6.3c0,6.9,5.6,12.4,12.4,12.4s12.4-5.6,12.4-12.4C455.7,166.3,450.3,160.7,443.4,160.7z M443.3,182.1l1.8-1.7
		V175h3.5l1.8-1.8l-1.8-1.8h-3.5l-1.8-1.8l-3.5,3.5l1.8,1.8v5.4L443.3,182.1z"/>
</g>
<g id="step-1-in-out">
	<path id="border_15_" fill="#4081C3" d="M105.3,203.2c4.8,0,8.7,3.9,8.7,8.7v26.2c0,4.8-3.9,8.7-8.7,8.7h-93
		c-4.8,0-8.7-3.9-8.7-8.7V212c0-4.8,3.9-8.7,8.7-8.7L105.3,203.2 M105.3,199.5h-93C5.6,199.5,0,205.1,0,212v26.2
		c0,6.8,5.6,12.3,12.3,12.3h92.9c6.8,0,12.3-5.6,12.3-12.3V212C117.6,205.1,112,199.5,105.3,199.5L105.3,199.5z"/>
	<line fill="none" stroke="#231F20" stroke-width="3" stroke-miterlimit="10" x1="113.2" y1="225.7" x2="192.8" y2="225.7"/>
	<polygon fill="#231F20" points="185.3,235 183.7,233.4 192,225.7 183.7,218.1 185.3,216.4 195.3,225.7 	"/>
</g>
<g id="step-2-in-out">
	<path id="border_2_" fill="#4081C3" d="M296.2,203.2c4.8,0,8.7,3.9,8.7,8.7v26.2c0,4.8-3.9,8.7-8.7,8.7h-92.9
		c-4.8,0-8.7-3.9-8.7-8.7V212c0-4.8,3.9-8.7,8.7-8.7L296.2,203.2 M296.2,199.5h-92.9c-6.8,0-12.3,5.6-12.3,12.3V238
		c0,6.8,5.6,12.3,12.3,12.3h92.9c6.8,0,12.3-5.6,12.3-12.3v-26C308.5,205.1,303,199.5,296.2,199.5L296.2,199.5z"/>
	<line fill="none" stroke="#231F20" stroke-width="3" stroke-miterlimit="10" x1="305" y1="225.7" x2="384.5" y2="225.7"/>
	<polygon fill="#231F20" points="376.9,235 375.4,233.4 383.6,225.7 375.4,218.1 376.9,216.4 387,225.7 	"/>
</g>
<g id="step-3-in-out">
	<path id="border_3_" fill="#4081C3" d="M105.3,203.2c4.8,0,8.7,3.9,8.7,8.7v26.2c0,4.8-3.9,8.7-8.7,8.7h-93c-4.8,0-8.7-3.9-8.7-8.7
		V212c0-4.8,3.9-8.7,8.7-8.7L105.3,203.2 M105.3,199.5h-93C5.6,199.5,0,205.1,0,212v26.2c0,6.8,5.6,12.3,12.3,12.3h92.9
		c6.8,0,12.3-5.6,12.3-12.3V212C117.6,205.1,112,199.5,105.3,199.5L105.3,199.5z"/>
	<path fill="none" stroke="#231F20" stroke-width="3" stroke-miterlimit="10" d="M58.7,246.1v30.8c0,5.6,4.6,10.1,10.1,10.1h364.3
		c5.6,0,10.1-4.6,10.1-10.1v-28.3"/>
	<polygon fill="#231F20" points="452.7,256.1 451,257.7 443.4,249.5 435.7,257.7 434.1,256.1 443.4,246.1 	"/>
</g>
</svg>
