<?xml version="1.0" encoding="utf-8"?>
<!-- Generator: Adobe Illustrator 17.1.0, SVG Export Plug-In . SVG Version: 6.00 Build 0)  -->
<!DOCTYPE svg PUBLIC "-//W3C//DTD SVG 1.1//EN" "http://www.w3.org/Graphics/SVG/1.1/DTD/svg11.dtd">
<svg version="1.1" id="Layer_1" xmlns="http://www.w3.org/2000/svg" xmlns:xlink="http://www.w3.org/1999/xlink" x="0px" y="0px"
	 viewBox="-193.8 717.4 503.8 200.4" enable-background="new -193.8 717.4 503.8 200.4" xml:space="preserve">
<g>
	<path d="M55.8,840.8c-14.9,0-27.1,12.1-27.1,27.1c0,12,7.7,22.2,18.4,25.7c1.3,0.2,1.8-0.6,1.8-1.2c0-0.5,0-2.8,0-5
		c-7.5,1.7-9.1-3.1-9.1-3.1c-1.2-3.1-2.9-3.9-2.9-3.9c-2.4-1.8,0.1-1.7,0.1-1.7c2.7,0.1,4.1,2.8,4.1,2.8c2.4,4.1,6.3,2.9,7.9,2.3
		c0.2-1.8,0.9-2.9,1.8-3.6c-6-0.8-12.2-3.1-12.2-13.5c0-2.9,1-5.4,2.8-7.3c-0.2-0.6-1.2-3.3,0.2-7.1c0,0,2.3-0.6,7.5,2.8
		c2.2-0.6,4.4-0.9,6.8-0.9s4.5,0.2,6.8,0.9c5.1-3.5,7.4-2.8,7.4-2.8c1.5,3.7,0.5,6.6,0.2,7.1c1.8,1.9,2.8,4.3,2.8,7.3
		c0,10.3-6.3,12.7-12.3,13.3c0.9,0.7,1.8,2.5,1.8,5c0,3.6,0,6.6,0,7.4c0,0.6,0.4,1.5,1.9,1.2c10.6-3.8,18.4-13.8,18.4-25.8
		C82.9,852.8,70.8,840.8,55.8,840.8z"/>
	<g id="border_1_">
		<path d="M88.9,821.4c8.8,0,15.8,7.1,15.8,15.8v64.1c0,8.8-7.1,15.8-15.8,15.8h-68c-8.8,0-15.8-7.1-15.8-15.8v-64.1
			c0-8.8,7.1-15.8,15.8-15.8H88.9 M88.9,820.8h-68c-9.1,0-16.4,7.5-16.4,16.4v64.1c0,9.1,7.5,16.4,16.4,16.4h68
			c9.1,0,16.4-7.5,16.4-16.4v-64.1C105.4,828.2,97.9,820.8,88.9,820.8L88.9,820.8z"/>
	</g>
</g>
<g>
	<g>
		<g id="border_2_">
			<path d="M286.4,726.5c8.8,0,15.8,7.1,15.8,15.8v64.1c0,8.8-7.1,15.8-15.8,15.8h-68.1c-8.8,0-15.8-7.1-15.8-15.8v-64.1
				c0-8.8,7.1-15.8,15.8-15.8H286.4 M286.4,725.7h-68.1c-9.1,0-16.4,7.5-16.4,16.4v64.1c0,9.1,7.5,16.4,16.4,16.4h68
				c9.1,0,16.4-7.5,16.4-16.4v-64.1C302.7,733.2,295.4,725.7,286.4,725.7L286.4,725.7z"/>
		</g>
		<path d="M276,750.4c-3.3,0-47.4,0-47.4,0c-3.3,0-3.3,3.3-3.3,3.3v30.5c0,0,0,3.3,3.3,3.3h16.9c0,0-10.1,3.3-10.1,6.8
			c0,3.5,3.3,3.3,3.3,3.3h27.1c0,0,3.3,0,3.3-3.3c0-3.3-10.1-6.7-10.1-6.7h17.2c3.3,0,3.3-3.3,3.3-3.3v-30.5
			C279.3,753.9,279.3,750.4,276,750.4z M276,784.4h-47.4v-30.5H276V784.4z M272.6,757.4h-10.1c-20.4,3.3-30.5,20.4-30.5,20.4v3.3
			h40.5L272.6,757.4L272.6,757.4z"/>
	</g>
	<g>
		<circle cx="295.4" cy="732" r="14.7"/>
		<path fill="#FFFFFF" d="M294.3,728.2h-1v1h1V728.2z M294.3,725.9h-1v1h1V725.9z M300.9,723.7h-11.2c0,0-1,0-1,1V738c0,1,1,1,1,1
			h2.2v2.2l1.8-1.8l1.8,1.8v-2.2h5.4c0,0,1,0,1-1v-13.3C302.1,723.7,300.9,723.7,300.9,723.7z M300.9,737.1c0,1-1,1-1,1h-4.4v-1
			h-3.3v1h-1c-1,0-1-1-1-1v-1h11.2L300.9,737.1L300.9,737.1z M300.9,734.7H292v-9.9h8.9V734.7z M294.3,732.7h-1v1h1V732.7z
			 M294.3,730.5h-1v1h1V730.5z"/>
	</g>
</g>
<g>
	<g>
		<g id="border_3_">
			<path d="M-109.4,727.5c8.8,0,15.8,7.1,15.8,15.8v64.1c0,8.8-7.1,15.8-15.8,15.8h-68c-8.8,0-15.8-7.1-15.8-15.8v-64.1
				c0-8.8,7.1-15.8,15.8-15.8H-109.4 M-109.4,726.7h-68c-9.1,0-16.4,7.5-16.4,16.4v64.1c0,9.1,7.5,16.4,16.4,16.4h68
				c9.1,0,16.4-7.5,16.4-16.4v-64.1C-93.1,734.2-100.3,726.7-109.4,726.7L-109.4,726.7z"/>
		</g>
		<path d="M-119.7,751.4c-3.3,0-47.4,0-47.4,0c-3.3,0-3.3,3.3-3.3,3.3v30.5c0,0,0,3.3,3.3,3.3h16.9c0,0-10.1,3.3-10.1,6.8
			c0,3.5,3.3,3.3,3.3,3.3h27.1c0,0,3.3,0,3.3-3.3c0-3.3-10.1-6.8-10.1-6.8h16.9c3.3,0,3.3-3.3,3.3-3.3v-30.5
			C-116.4,754.9-116.4,751.4-119.7,751.4z M-119.7,785.4h-47.4v-30.5h47.4V785.4z M-123.1,758.4h-10.1
			c-20.4,3.3-30.5,20.4-30.5,20.4v3.3h40.5L-123.1,758.4L-123.1,758.4z"/>
	</g>
	<g>
		<circle cx="-100.3" cy="733" r="14.7"/>
		<path fill="#FFFFFF" d="M-101.4,729.2h-1v1h1V729.2z M-101.4,726.9h-1v1h1V726.9z M-94.9,724.7h-11.2c0,0-1,0-1,1V739c0,1,1,1,1,1
			h2.2v2.2l1.8-1.8l1.8,1.8v-2.2h5.4c0,0,1,0,1-1v-13.3C-93.7,724.7-94.9,724.7-94.9,724.7z M-94.9,738.1c0,1-1,1-1,1h-4.4v-1h-3.3
			v1h-1c-1,0-1-1-1-1v-1h11.2L-94.9,738.1L-94.9,738.1z M-94.9,735.7h-8.9v-9.9h8.9V735.7z M-101.4,733.7h-1v1h1V733.7z
			 M-101.4,731.5h-1v1h1V731.5z"/>
	</g>
</g>
<g>
	<g>
		<path fill="none" stroke="#FFFFFF" stroke-width="4" stroke-miterlimit="10" d="M186.8,771c0,0-8.7,0-19.1,0s-19.1,8.9-19.1,19.6
			v58.9c0,10.8-8.9,19.6-19.6,19.6h-23.5"/>
		<path fill="none" stroke="#231F20" stroke-width="2" stroke-miterlimit="10" d="M186.8,771c0,0-8.7,0-19.1,0s-19.1,8.9-19.1,19.6
			v58.9c0,10.8-8.9,19.6-19.6,19.6h-23.5"/>
	</g>
</g>
<path fill="none" stroke="#FFFFFF" stroke-width="4" stroke-miterlimit="10" d="M120.5,890.7h112.2c10.8,0,19.6-8.9,19.6-19.6v-67.3
	"/>
<path fill="none" stroke="#231F20" stroke-width="2" stroke-miterlimit="10" d="M120.5,890.7h112.2c10.8,0,19.6-8.9,19.6-19.6v-49.3
	"/>
<g>
	<g>
		<path fill="none" stroke="#FFFFFF" stroke-width="4" stroke-miterlimit="10" d="M-142.8,818.8v52.1c0,10.8,8.9,19.6,19.6,19.6H4.6
			"/>
		<path fill="none" stroke="#231F20" stroke-width="2" stroke-miterlimit="10" d="M-142.8,831.8v39.1c0,10.8,8.9,19.6,19.6,19.6H4.6
			"/>
	</g>
</g>
<g>
	<g>
		<path fill="none" stroke="#FFFFFF" stroke-width="4" stroke-miterlimit="10" d="M-93.2,771.8h23.4c10.8,0,19.6,8.9,19.6,19.6v59
			c0,10.8,8.7,19.6,19.1,19.6s19.1,0,19.1,0"/>
		<path fill="none" stroke="#231F20" stroke-width="2" stroke-miterlimit="10" d="M-93.2,771.8h23.4c10.8,0,19.6,8.9,19.6,19.6v59
			c0,10.8,8.7,19.6,19.1,19.6s19.1,0,19.1,0"/>
	</g>
</g>
<g>
	<g>
		<line fill="none" stroke="#231F20" stroke-width="2" stroke-miterlimit="10" x1="107.6" y1="890.7" x2="156.8" y2="890.7"/>
		<g>
			<polygon fill="#231F20" points="114.2,898.8 115.6,897.4 108.4,890.7 115.6,883.9 114.2,882.5 105.4,890.7 			"/>
		</g>
	</g>
</g>
<g>
	<g>
		<line fill="none" stroke="#231F20" stroke-width="2" stroke-miterlimit="10" x1="2.1" y1="870.1" x2="-26.2" y2="870.1"/>
		<g>
			<polygon fill="#231F20" points="-4.5,861.9 -5.9,863.4 1.4,870.1 -5.9,876.8 -4.5,878.3 4.3,870.1 			"/>
		</g>
	</g>
</g>
<g>
	<g>
		<line fill="none" stroke="#231F20" stroke-width="2" stroke-miterlimit="10" x1="199.7" y1="771" x2="176.2" y2="771"/>
		<g>
			<polygon fill="#231F20" points="193,762.8 191.7,764.3 198.9,771 191.7,777.7 193,779.2 201.8,771 			"/>
		</g>
	</g>
</g>
<g>
	<g>
		<line fill="none" stroke="#231F20" stroke-width="2" stroke-miterlimit="10" x1="-142.8" y1="824.8" x2="-142.8" y2="860.8"/>
		<g>
			<polygon fill="#231F20" points="-150.9,831.5 -149.5,832.8 -142.8,825.6 -136,832.8 -134.6,831.5 -142.8,822.7 			"/>
		</g>
	</g>
</g>
</svg>
