<?xml version="1.0" encoding="utf-8"?>
<!-- Generator: Adobe Illustrator 17.1.0, SVG Export Plug-In . SVG Version: 6.00 Build 0)  -->
<!DOCTYPE svg PUBLIC "-//W3C//DTD SVG 1.1//EN" "http://www.w3.org/Graphics/SVG/1.1/DTD/svg11.dtd">
<svg version="1.1" id="Layer_1" xmlns="http://www.w3.org/2000/svg" xmlns:xlink="http://www.w3.org/1999/xlink" x="0px" y="0px"
	 viewBox="-218 233 500 229.3" enable-background="new -218 233 500 229.3" xml:space="preserve">
<g id="boundary">
	<path fill="none" stroke="#FFFFFF" stroke-width="4" stroke-miterlimit="10" d="M-218,233v229.3h500V233C282,233-218,233-218,233z"
		/>
</g>
<g>
	<path d="M27.8,379.7c-14.3,0-26,11.6-26,26c0,11.5,7.4,21.3,17.7,24.7c1.3,0.2,1.7-0.6,1.7-1.2c0-0.5,0-2.7,0-4.8
		c-7.2,1.6-8.7-3-8.7-3c-1.2-3-2.8-3.8-2.8-3.8c-2.3-1.7,0.1-1.6,0.1-1.6c2.6,0.1,4,2.7,4,2.7c2.3,4,6.1,2.8,7.5,2.2
		c0.2-1.7,0.9-2.8,1.7-3.5c-5.8-0.8-11.7-3-11.7-13c0-2.8,1-5.2,2.7-7c-0.2-0.6-1.2-3.2,0.2-6.8c0,0,2.2-0.6,7.2,2.7
		c2.1-0.6,4.3-0.9,6.5-0.9s4.4,0.2,6.5,0.9c4.9-3.4,7.1-2.7,7.1-2.7c1.5,3.6,0.5,6.3,0.2,6.8c1.7,1.8,2.7,4.2,2.7,7
		c0,9.9-6.1,12.2-11.8,12.8c0.9,0.7,1.7,2.4,1.7,4.8c0,3.5,0,6.3,0,7.1c0,0.6,0.4,1.5,1.8,1.2c10.3-3.5,17.7-13.2,17.7-24.7
		C53.8,391.5,42.2,379.7,27.8,379.7z"/>
	<g id="border_1_">
		<path d="M59.6,361.3c8.4,0,15.2,6.8,15.2,15.2v61.5c0,8.4-6.8,15.2-15.2,15.2H-5.7c-8.4,0-15.2-6.8-15.2-15.2v-61.5
			c0-8.4,6.8-15.2,15.2-15.2H59.6 M59.6,360.6H-5.7c-8.7,0-15.8,7.2-15.8,15.8v61.5c0,8.7,7.2,15.8,15.8,15.8h65.3
			c8.7,0,15.8-7.2,15.8-15.8v-61.5C75.4,367.7,68.2,360.6,59.6,360.6L59.6,360.6z"/>
	</g>
</g>
<g>
	<g>
		<g id="border_2_">
			<path d="M249.1,251.8c8.4,0,15.2,6.8,15.2,15.2v61.5c0,8.4-6.8,15.2-15.2,15.2h-65.3c-8.4,0-15.2-6.8-15.2-15.2V267
				c0-8.4,6.8-15.2,15.2-15.2H249.1 M249.1,251.2h-65.3c-8.7,0-15.8,7.2-15.8,15.8v61.5c0,8.7,7.2,15.8,15.8,15.8h65.3
				c8.7,0,15.8-7.2,15.8-15.8V267C264.8,258.3,257.8,251.2,249.1,251.2L249.1,251.2z"/>
		</g>
		<path d="M239.2,274.9c-3.2,0-45.5,0-45.5,0c-3.2,0-3.2,3.2-3.2,3.2v29.3c0,0,0,3.2,3.2,3.2H210c0,0-9.7,3.2-9.7,6.5
			s3.2,3.2,3.2,3.2h26c0,0,3.2,0,3.2-3.2s-9.7-6.5-9.7-6.5h16.3c3.2,0,3.2-3.2,3.2-3.2v-29.3C242.4,278.3,242.4,274.9,239.2,274.9z
			 M239.2,307.4h-45.5v-29.3h45.5V307.4z M235.9,281.4h-9.7c-19.5,3.2-29.3,19.5-29.3,19.5v3.2h38.9L235.9,281.4L235.9,281.4z"/>
	</g>
	<g>
		<circle cx="257.8" cy="257.1" r="14.1"/>
		<path fill="#FFFFFF" d="M256.8,253.5h-1v1h1V253.5z M256.8,251.3h-1v1h1V251.3z M263.1,249.2h-10.7c0,0-1,0-1,1V263c0,1,1,1,1,1
			h2.1v2.1l1.7-1.7l1.7,1.7v-2.1h5.2c0,0,1,0,1-1v-12.8C264.2,249.2,263.1,249.2,263.1,249.2z M263.1,262c0,1-1,1-1,1h-4.3v-1h-3.2
			v1h-1c-1,0-1-1-1-1v-1h10.7L263.1,262L263.1,262z M263.1,259.8h-8.5v-9.5h8.5V259.8z M256.8,257.7h-1v1h1V257.7z M256.8,255.6h-1
			v1h1V255.6z"/>
	</g>
</g>
<g>
	<g>
		<g id="border_3_">
			<path d="M-130.8,251.8c8.4,0,15.2,6.8,15.2,15.2v61.5c0,8.4-6.8,15.2-15.2,15.2h-65.3c-8.4,0-15.2-6.8-15.2-15.2V267
				c0-8.4,6.8-15.2,15.2-15.2H-130.8 M-130.8,251.2h-65.3c-8.7,0-15.8,7.2-15.8,15.8v61.5c0,8.7,7.2,15.8,15.8,15.8h65.3
				c8.7,0,15.8-7.2,15.8-15.8V267C-115.1,258.3-122.1,251.2-130.8,251.2L-130.8,251.2z"/>
		</g>
		<path d="M-140.7,274.9c-3.2,0-45.5,0-45.5,0c-3.2,0-3.2,3.2-3.2,3.2v29.3c0,0,0,3.2,3.2,3.2h16.3c0,0-9.7,3.2-9.7,6.5
			s3.2,3.2,3.2,3.2h26c0,0,3.2,0,3.2-3.2s-9.7-6.5-9.7-6.5h16.3c3.2,0,3.2-3.2,3.2-3.2v-29.3C-137.5,278.3-137.5,274.9-140.7,274.9z
			 M-140.7,307.4h-45.5v-29.3h45.5V307.4z M-144,281.4h-9.7c-19.5,3.2-29.3,19.5-29.3,19.5v3.2h38.9L-144,281.4L-144,281.4z"/>
	</g>
	<g>
		<circle cx="-122.1" cy="257.1" r="14.1"/>
		<path fill="#FFFFFF" d="M-123.2,253.5h-1v1h1C-123.2,254.5-123.2,253.5-123.2,253.5z M-123.2,251.3h-1v1h1
			C-123.2,252.3-123.2,251.3-123.2,251.3z M-116.9,249.2h-10.7c0,0-1,0-1,1V263c0,1,1,1,1,1h2.1v2.1l1.7-1.7l1.7,1.7v-2.1h5.2
			c0,0,1,0,1-1v-12.8C-115.7,249.2-116.9,249.2-116.9,249.2z M-116.9,262c0,1-1,1-1,1h-4.3v-1h-3.2v1h-1c-1,0-1-1-1-1v-1h10.7
			L-116.9,262L-116.9,262z M-116.9,259.8h-8.5v-9.5h8.5V259.8z M-123.2,257.7h-1v1h1C-123.2,258.7-123.2,257.7-123.2,257.7z
			 M-123.2,255.6h-1v1h1C-123.2,256.6-123.2,255.6-123.2,255.6z"/>
	</g>
</g>
<g>
	<g>
		<path fill="#231F20" d="M158.2,322.3c-0.4,0-0.8-0.2-1.2-0.4c-0.3-0.3-0.4-0.7-0.4-1.2c0-0.3,0.1-0.5,0.2-0.7l0,0l0.4-0.3l5.4-5
			h-10.6v-3.1h10.6l-5.4-5c-0.3-0.3-0.5-0.7-0.5-1.2s0.2-0.8,0.4-1.2c0.3-0.3,0.7-0.4,1-0.4c0.2,0,0.4,0,0.6,0.1l0.1-0.1l0.4,0.3
			l9.6,8.9l-9.6,8.9C159,322.2,158.6,322.3,158.2,322.3z"/>
		<path fill="#FFFFFF" d="M158.2,304.2c0.2,0,0.5,0.1,0.7,0.2l0,0l9.2,8.6l-9.2,8.6c-0.2,0.2-0.5,0.3-0.7,0.3
			c-0.2,0-0.5-0.1-0.7-0.3c-0.4-0.4-0.4-1,0-1.5c0,0,0,0,0.1,0l0,0l6.4-6h-11.4c0-0.7,0-1.4,0-2.1h11.4l-6.4-6c-0.4-0.4-0.4-1,0-1.5
			C157.6,304.3,157.9,304.2,158.2,304.2 M158.8,302.9l-0.2,0.2c-0.1,0-0.3,0-0.4,0c-0.5,0-1,0.2-1.5,0.6c-0.4,0.4-0.6,0.9-0.6,1.5
			c0,0.5,0.2,1,0.6,1.5l4.5,4.2h-8.7h-1v1v2.1v1h1h8.7l-4.5,4.2L156,320l0.2,0.2c-0.1,0.2-0.1,0.4-0.1,0.6c0,0.5,0.2,1,0.6,1.5
			c0.4,0.4,0.9,0.6,1.5,0.6s1-0.2,1.5-0.6l9.2-8.6l0.8-0.7l-0.8-0.7l-9.2-8.6L158.8,302.9L158.8,302.9z"/>
	</g>
	<g>
		<path fill="none" stroke="#FFFFFF" stroke-width="4" stroke-miterlimit="10" d="M153.5,312.9c0,0-8.3,0-18.4,0
			s-18.4,8.5-18.4,18.8v56.5c0,10.4-8.5,18.8-18.8,18.8H75.4"/>
		<path fill="none" stroke="#231F20" stroke-width="2" stroke-miterlimit="10" d="M153.5,312.9c0,0-8.3,0-18.4,0
			s-18.4,8.5-18.4,18.8v56.5c0,10.4-8.5,18.8-18.8,18.8H75.4"/>
	</g>
</g>
<g>
	<g>
		<path fill="#231F20" d="M85.3,437c-0.2,0-0.4,0-0.6-0.1l-0.1,0.1l-0.4-0.3l-9.6-8.9l9.6-8.9c0.3-0.3,0.6-0.4,1-0.4
			s0.8,0.2,1.2,0.4c0.3,0.3,0.4,0.7,0.4,1.2c0,0.3-0.1,0.5-0.2,0.7l0,0l-0.4,0.4l-5.4,5h10.6v3.1H80.9l5.4,5
			c0.3,0.3,0.5,0.7,0.5,1.2s-0.2,0.8-0.4,1.2C86.1,436.8,85.7,437,85.3,437z"/>
		<path fill="#FFFFFF" d="M85.4,418.8c0.3,0,0.5,0.1,0.7,0.3c0.4,0.4,0.4,1,0,1.5c0,0,0,0-0.1,0l0,0l-6.4,6H91c0,0.7,0,1.4,0,2.1
			H79.6l6.4,6c0.4,0.4,0.4,1,0,1.5c-0.2,0.2-0.4,0.3-0.7,0.3c-0.2,0-0.5-0.1-0.7-0.2l0,0l-9.2-8.6l9.2-8.6
			C84.9,418.9,85.1,418.8,85.4,418.8 M85.4,417.7c-0.5,0-1,0.2-1.5,0.6l-9.2,8.6l-0.8,0.7l0.8,0.7l9.2,8.6l0.7,0.7l0.2-0.2
			c0.1,0,0.3,0,0.4,0c0.5,0,1-0.2,1.5-0.6c0.4-0.4,0.6-0.9,0.6-1.5c0-0.5-0.2-1-0.6-1.5l-4.5-4.2h8.7h1v-1v-2.1v-1h-1h-8.7l4.5-4.2
			l0.7-0.7l-0.2-0.2c0.1-0.2,0.1-0.4,0.1-0.6c0-0.5-0.2-1-0.6-1.5C86.4,418,85.9,417.7,85.4,417.7L85.4,417.7z"/>
	</g>
	<g>
		<path fill="none" stroke="#FFFFFF" stroke-width="4" stroke-miterlimit="10" d="M89.9,427.7h107.7c10.4,0,18.8-8.5,18.8-18.8
			v-64.6"/>
		<path fill="none" stroke="#231F20" stroke-width="2" stroke-miterlimit="10" d="M89.9,427.7h107.7c10.4,0,18.8-8.5,18.8-18.8
			v-64.6"/>
	</g>
</g>
<g>
	<g>
		<path fill="#231F20" d="M-164.5,360.4v-10.6l-5,5.4c-0.3,0.3-0.7,0.5-1.2,0.5c-0.4,0-0.8-0.2-1.2-0.4c-0.4-0.4-0.5-1.2-0.3-1.7
			l-0.1-0.1l0.3-0.4l8.9-9.6l8.9,9.6c0.6,0.6,0.6,1.6,0,2.2c-0.3,0.3-0.7,0.4-1.2,0.4c-0.3,0-0.5-0.1-0.7-0.2l0,0l-0.3-0.4l-5-5.4
			v10.6h-3.1V360.4z"/>
		<path fill="#FFFFFF" d="M-162.9,344.2l8.6,9.2c0.4,0.4,0.4,1,0,1.5c-0.2,0.2-0.5,0.3-0.7,0.3s-0.5-0.1-0.7-0.3c0,0,0,0,0-0.1l0,0
			l-6-6.4v11.4c-0.7,0-1.4,0-2.1,0v-11.4l-6,6.4c-0.2,0.2-0.5,0.3-0.7,0.3s-0.5-0.1-0.7-0.3c-0.4-0.4-0.4-1,0-1.5l0,0L-162.9,344.2
			 M-162.9,342.7l-0.7,0.8l-8.6,9.2l-0.7,0.7l0.2,0.2c-0.1,0.6,0.1,1.4,0.5,1.9c0.4,0.4,0.9,0.6,1.5,0.6c0.5,0,1-0.2,1.5-0.6
			l4.2-4.5v8.7v1h1h2.1h1v-1v-8.7l4.2,4.5l0.7,0.7l0.2-0.2c0.2,0.1,0.4,0.1,0.6,0.1c0.5,0,1-0.2,1.5-0.6c0.4-0.4,0.6-0.9,0.6-1.5
			s-0.2-1-0.6-1.5l-8.6-9.2L-162.9,342.7L-162.9,342.7z"/>
	</g>
	<g>
		<path fill="none" stroke="#FFFFFF" stroke-width="4" stroke-miterlimit="10" d="M-162.8,358.7v50c0,10.4,8.5,18.8,18.8,18.8h122.6
			"/>
		<path fill="none" stroke="#231F20" stroke-width="2" stroke-miterlimit="10" d="M-162.8,358.7v50c0,10.4,8.5,18.8,18.8,18.8h122.6
			"/>
	</g>
</g>
<g>
	<g>
		<path fill="#231F20" d="M-32.4,417.1c-0.4,0-0.8-0.2-1-0.4c-0.3-0.3-0.4-0.7-0.4-1.2s0.2-0.8,0.4-1.2l5.4-5.1h-10.6v-3.1H-28
			l-5.4-5.1l0,0l0,0l-0.3-0.3v-0.1c-0.1-0.2-0.2-0.5-0.2-0.7c0-0.4,0.2-0.8,0.4-1.2c0.3-0.3,0.7-0.4,1.2-0.4c0.4,0,0.8,0.2,1.2,0.4
			l9.6,8.9l-10.1,9.3l-0.1-0.1C-32,417.1-32.2,417.1-32.4,417.1z"/>
		<path fill="#FFFFFF" d="M-32.5,398.9c0.3,0,0.5,0.1,0.7,0.3l9.2,8.6l-9.2,8.6l0,0c-0.2,0.2-0.4,0.2-0.7,0.2
			c-0.3,0-0.5-0.1-0.7-0.3c-0.4-0.4-0.4-1,0-1.5l6.5-6h-11.4c0-0.7,0-1.4,0-2.1h11.4l-6.4-6l0,0c0,0,0,0-0.1,0c-0.4-0.4-0.4-1,0-1.5
			C-33,399-32.7,398.9-32.5,398.9 M-32.5,397.9c-0.5,0-1,0.2-1.5,0.6c-0.4,0.4-0.6,0.9-0.6,1.5c0,0.2,0,0.4,0.1,0.6l-0.2,0.2
			l0.7,0.7l0,0l0,0l0,0l4.5,4.2h-8.7h-1v1v2.1v1h1h8.7l-4.5,4.2c-0.4,0.4-0.6,0.9-0.6,1.5c0,0.5,0.2,1,0.6,1.5
			c0.4,0.4,0.9,0.6,1.5,0.6c0.1,0,0.3,0,0.4,0l0.2,0.2l0.8-0.7l9.2-8.6l0.8-0.7l-0.8-0.7l-9.2-8.6
			C-31.3,398.1-31.9,397.9-32.5,397.9L-32.5,397.9z"/>
	</g>
	<g>
		<path fill="none" stroke="#FFFFFF" stroke-width="4" stroke-miterlimit="10" d="M-115.2,313.6h22.4c10.4,0,18.8,8.5,18.8,18.8V389
			c0,10.4,8.3,18.8,18.4,18.8s18.4,0,18.4,0"/>
		<path fill="none" stroke="#231F20" stroke-width="2" stroke-miterlimit="10" d="M-115.2,313.6h22.4c10.4,0,18.8,8.5,18.8,18.8V389
			c0,10.4,8.3,18.8,18.4,18.8s18.4,0,18.4,0"/>
	</g>
</g>
<g>
	<g>
		<path fill="#231F20" d="M-105,305.7c-0.2,0-0.4,0-0.6-0.1l-0.1,0.1l-0.4-0.3l-9.6-8.9l9.6-8.9c0.3-0.3,0.6-0.4,1-0.4
			s0.8,0.2,1.2,0.4c0.3,0.3,0.4,0.7,0.4,1.2c0,0.3-0.1,0.5-0.2,0.7l0,0l-0.3,0.3l-5.4,5H-99v3.1h-10.6l5.4,5
			c0.3,0.3,0.5,0.7,0.5,1.2s-0.2,0.8-0.4,1.2C-104.3,305.5-104.6,305.7-105,305.7z"/>
		<path fill="#FFFFFF" d="M-105,287.5c0.3,0,0.5,0.1,0.7,0.3c0.4,0.4,0.4,1,0,1.5c0,0,0,0-0.1,0l0,0l-6.4,6h11.4c0,0.7,0,1.4,0,2.1
			h-11.4l6.4,6c0.4,0.4,0.4,1,0,1.5c-0.2,0.2-0.4,0.3-0.7,0.3c-0.2,0-0.5-0.1-0.7-0.2l0,0l-9.2-8.6l9.2-8.6
			C-105.6,287.6-105.4,287.5-105,287.5 M-105,286.5c-0.5,0-1,0.2-1.5,0.6l-9.2,8.6l-0.8,0.7l0.8,0.7l9.2,8.6l0.7,0.7l0.2-0.2
			c0.1,0,0.3,0,0.4,0c0.5,0,1-0.2,1.5-0.6c0.4-0.4,0.6-0.9,0.6-1.5c0-0.5-0.2-1-0.6-1.5l-4.5-4.2h8.7h1v-1v-2.1v-1h-1h-8.7l4.5-4.2
			l0.7-0.7l-0.2-0.2c0.1-0.2,0.1-0.4,0.1-0.6c0-0.5-0.2-1-0.6-1.5C-104,286.7-104.5,286.5-105,286.5L-105,286.5z"/>
	</g>
	<g>
		<line fill="none" stroke="#FFFFFF" stroke-width="4" stroke-miterlimit="10" x1="-100.5" y1="296.3" x2="168.1" y2="296.3"/>
		<line fill="none" stroke="#231F20" stroke-width="2" stroke-miterlimit="10" x1="-100.5" y1="296.3" x2="168.1" y2="296.3"/>
	</g>
</g>
<g>
	<g>
		<path fill="#231F20" d="M158.2,290c-0.4,0-0.8-0.2-1.2-0.4c-0.3-0.3-0.4-0.7-0.4-1.2c0-0.3,0.1-0.5,0.2-0.7l0,0l0.3-0.3l5.4-5H152
			v-3.1h10.6l-5.4-5c-0.3-0.3-0.5-0.7-0.5-1.2s0.2-0.8,0.4-1.2c0.3-0.3,0.7-0.4,1-0.4c0.2,0,0.4,0,0.6,0.1l0.1-0.1l0.4,0.3l9.6,8.9
			l-9.6,8.9C159,289.9,158.6,290,158.2,290z"/>
		<path fill="#FFFFFF" d="M158.2,271.8c0.2,0,0.5,0.1,0.7,0.2l0,0l9.2,8.6l-9.2,8.6c-0.2,0.2-0.5,0.3-0.7,0.3
			c-0.2,0-0.5-0.1-0.7-0.3c-0.4-0.4-0.4-1,0-1.5c0,0,0,0,0.1,0l0,0l6.4-6h-11.4c0-0.7,0-1.4,0-2.1h11.4l-6.4-6c-0.4-0.4-0.4-1,0-1.5
			C157.6,271.9,157.9,271.8,158.2,271.8 M158.8,270.7l-0.2,0.2c-0.1,0-0.3,0-0.4,0c-0.5,0-1,0.2-1.5,0.6c-0.4,0.4-0.6,0.9-0.6,1.5
			c0,0.5,0.2,1,0.6,1.5l4.5,4.2h-8.7h-1v1v2.1v1h1h8.7l-4.5,4.2l-0.7,0.7l0.2,0.2c-0.1,0.2-0.1,0.4-0.1,0.6c0,0.5,0.2,1,0.6,1.5
			c0.4,0.4,0.9,0.6,1.5,0.6s1-0.2,1.5-0.6l9.2-8.6l0.8-0.7l-0.8-0.7l-9.2-8.6L158.8,270.7L158.8,270.7z"/>
	</g>
	<g>
		<line fill="none" stroke="#FFFFFF" stroke-width="4" stroke-miterlimit="10" x1="153.5" y1="280.7" x2="-115" y2="280.7"/>
		<line fill="none" stroke="#231F20" stroke-width="2" stroke-miterlimit="10" x1="153.5" y1="280.7" x2="-115" y2="280.7"/>
	</g>
</g>
</svg>
