<?xml version="1.0" encoding="utf-8"?>
<!-- Generator: Adobe Illustrator 17.1.0, SVG Export Plug-In . SVG Version: 6.00 Build 0)  -->
<!DOCTYPE svg PUBLIC "-//W3C//DTD SVG 1.1//EN" "http://www.w3.org/Graphics/SVG/1.1/DTD/svg11.dtd">
<svg version="1.1" id="Layer_1" xmlns="http://www.w3.org/2000/svg" xmlns:xlink="http://www.w3.org/1999/xlink" x="0px" y="0px"
	 viewBox="-218 370 496 227" enable-background="new -218 370 496 227" xml:space="preserve">
<g>
	<path d="M27.8,515.1c-14.3,0-26,11.6-26,26c0,11.5,7.4,21.3,17.7,24.7c1.3,0.2,1.7-0.6,1.7-1.2c0-0.5,0-2.7,0-4.8
		c-7.2,1.6-8.7-3-8.7-3c-1.2-3-2.8-3.8-2.8-3.8c-2.3-1.7,0.1-1.6,0.1-1.6c2.6,0.1,4,2.7,4,2.7c2.3,4,6.1,2.8,7.5,2.2
		c0.2-1.7,0.9-2.8,1.7-3.5c-5.8-0.8-11.7-3-11.7-13c0-2.8,1-5.2,2.7-7c-0.2-0.6-1.2-3.2,0.2-6.8c0,0,2.2-0.6,7.2,2.7
		c2.1-0.6,4.3-0.9,6.5-0.9s4.4,0.2,6.5,0.9c4.9-3.4,7.1-2.7,7.1-2.7c1.5,3.6,0.5,6.3,0.2,6.8c1.7,1.8,2.7,4.2,2.7,7
		c0,9.9-6.1,12.2-11.8,12.8c0.9,0.7,1.7,2.4,1.7,4.8c0,3.5,0,6.3,0,7.1c0,0.6,0.4,1.5,1.8,1.2c10.3-3.5,17.7-13.2,17.7-24.7
		C53.8,526.8,42.2,515.1,27.8,515.1z"/>
	<g id="border_1_">
		<path d="M59.6,496.6c8.4,0,15.2,6.8,15.2,15.2v61.5c0,8.4-6.8,15.2-15.2,15.2H-5.7c-8.4,0-15.2-6.8-15.2-15.2v-61.5
			c0-8.4,6.8-15.2,15.2-15.2L59.6,496.6 M59.6,496H-5.7c-8.7,0-15.8,7.2-15.8,15.8v61.5c0,8.7,7.2,15.8,15.8,15.8h65.3
			c8.7,0,15.8-7.2,15.8-15.8v-61.5C75.4,503.1,68.2,496,59.6,496L59.6,496z"/>
	</g>
</g>
<g>
	<g>
		<g id="border_2_">
			<path d="M249.1,387.2c8.4,0,15.2,6.8,15.2,15.2v61.5c0,8.4-6.8,15.2-15.2,15.2h-65.3c-8.4,0-15.2-6.8-15.2-15.2v-61.5
				c0-8.4,6.8-15.2,15.2-15.2H249.1 M249.1,386.5h-65.3c-8.7,0-15.8,7.2-15.8,15.8v61.5c0,8.7,7.2,15.8,15.8,15.8h65.3
				c8.7,0,15.8-7.2,15.8-15.8v-61.5C264.8,393.6,257.8,386.5,249.1,386.5L249.1,386.5z"/>
		</g>
		<path d="M239.2,410.2c-3.2,0-45.5,0-45.5,0c-3.2,0-3.2,3.2-3.2,3.2v29.3c0,0,0,3.2,3.2,3.2H210c0,0-9.7,3.2-9.7,6.5
			s3.2,3.2,3.2,3.2h26c0,0,3.2,0,3.2-3.2S223,446,223,446h16.3c3.2,0,3.2-3.2,3.2-3.2v-29.3C242.4,413.6,242.4,410.2,239.2,410.2z
			 M239.2,442.8h-45.5v-29.3h45.5V442.8z M235.9,416.8h-9.7c-19.5,3.2-29.3,19.5-29.3,19.5v3.2h38.9L235.9,416.8L235.9,416.8z"/>
	</g>
	<g>
		<circle cx="257.8" cy="392.5" r="14.1"/>
		<path fill="#FFFFFF" d="M256.8,388.9h-1v1h1V388.9z M256.8,386.7h-1v1h1V386.7z M263.1,384.5h-10.7c0,0-1,0-1,1v12.8c0,1,1,1,1,1
			h2.1v2.1l1.7-1.7l1.7,1.7v-2.1h5.2c0,0,1,0,1-1v-12.8C264.2,384.5,263.1,384.5,263.1,384.5z M263.1,397.4c0,1-1,1-1,1h-4.3v-1
			h-3.2v1h-1c-1,0-1-1-1-1v-1h10.7L263.1,397.4L263.1,397.4z M263.1,395.1h-8.5v-9.5h8.5V395.1z M256.8,393.1h-1v1h1V393.1z
			 M256.8,391h-1v1h1V391z"/>
	</g>
</g>
<g>
	<g>
		<g id="border_3_">
			<path d="M-130.8,387.2c8.4,0,15.2,6.8,15.2,15.2v61.5c0,8.4-6.8,15.2-15.2,15.2h-65.3c-8.4,0-15.2-6.8-15.2-15.2v-61.5
				c0-8.4,6.8-15.2,15.2-15.2H-130.8 M-130.8,386.5h-65.3c-8.7,0-15.8,7.2-15.8,15.8v61.5c0,8.7,7.2,15.8,15.8,15.8h65.3
				c8.7,0,15.8-7.2,15.8-15.8v-61.5C-115.1,393.6-122.1,386.5-130.8,386.5L-130.8,386.5z"/>
		</g>
		<path d="M-140.7,410.2c-3.2,0-45.5,0-45.5,0c-3.2,0-3.2,3.2-3.2,3.2v29.3c0,0,0,3.2,3.2,3.2h16.3c0,0-9.7,3.2-9.7,6.5
			s3.2,3.2,3.2,3.2h26c0,0,3.2,0,3.2-3.2s-9.7-6.5-9.7-6.5h16.3c3.2,0,3.2-3.2,3.2-3.2v-29.3C-137.5,413.6-137.5,410.2-140.7,410.2z
			 M-140.7,442.8h-45.5v-29.3h45.5V442.8z M-144,416.8h-9.7c-19.5,3.2-29.3,19.5-29.3,19.5v3.2h38.9L-144,416.8L-144,416.8z"/>
	</g>
	<g>
		<circle cx="-122.1" cy="392.5" r="14.1"/>
		<path fill="#FFFFFF" d="M-123.2,388.9h-1v1h1V388.9z M-123.2,386.7h-1v1h1V386.7z M-116.9,384.5h-10.7c0,0-1,0-1,1v12.8
			c0,1,1,1,1,1h2.1v2.1l1.7-1.7l1.7,1.7v-2.1h5.2c0,0,1,0,1-1v-12.8C-115.7,384.5-116.9,384.5-116.9,384.5z M-116.9,397.4
			c0,1-1,1-1,1h-4.3v-1h-3.2v1h-1c-1,0-1-1-1-1v-1h10.7L-116.9,397.4L-116.9,397.4z M-116.9,395.1h-8.5v-9.5h8.5V395.1z
			 M-123.2,393.1h-1v1h1V393.1z M-123.2,391h-1v1h1V391z"/>
	</g>
</g>
<g>
	<g>
		<path fill="#231F20" d="M158.2,457.6c-0.4,0-0.8-0.2-1.2-0.4c-0.3-0.3-0.4-0.7-0.4-1.2c0-0.3,0.1-0.5,0.2-0.7l0,0l0.4-0.3l5.4-5
			H152v-3.1h10.6l-5.4-5c-0.3-0.3-0.5-0.7-0.5-1.2s0.2-0.8,0.4-1.2c0.3-0.3,0.7-0.4,1-0.4c0.2,0,0.4,0,0.6,0.1l0.1-0.1l0.4,0.3
			l9.6,8.9l-9.6,8.9C159,457.6,158.6,457.6,158.2,457.6z"/>
		<path fill="#FFFFFF" d="M158.2,439.6c0.2,0,0.5,0.1,0.7,0.2l0,0l9.2,8.6l-9.2,8.6c-0.2,0.2-0.5,0.3-0.7,0.3s-0.5-0.1-0.7-0.3
			c-0.4-0.4-0.4-1,0-1.5c0,0,0,0,0.1,0l0,0l6.4-6h-11.4c0-0.7,0-1.4,0-2.1H164l-6.4-6c-0.4-0.4-0.4-1,0-1.5
			C157.6,439.6,157.9,439.6,158.2,439.6 M158.8,438.2l-0.2,0.2c-0.1,0-0.3,0-0.4,0c-0.5,0-1,0.2-1.5,0.6c-0.4,0.4-0.6,0.9-0.6,1.5
			c0,0.5,0.2,1,0.6,1.5l4.5,4.2h-8.7h-1v1v2.1v1h1h8.7l-4.5,4.2l-0.7,0.8l0.2,0.2c-0.1,0.2-0.1,0.4-0.1,0.6c0,0.5,0.2,1,0.6,1.5
			c0.4,0.4,0.9,0.6,1.5,0.6s1-0.2,1.5-0.6l9.2-8.6l0.8-0.7l-0.8-0.7l-9.2-8.6L158.8,438.2L158.8,438.2z"/>
	</g>
	<g>
		<path fill="none" stroke="#FFFFFF" stroke-width="4" stroke-miterlimit="10" d="M153.5,448.2c0,0-8.3,0-18.4,0
			s-18.4,8.5-18.4,18.8v56.5c0,10.4-8.5,18.8-18.8,18.8H75.4"/>
		<path fill="none" stroke="#231F20" stroke-width="2" stroke-miterlimit="10" d="M153.5,448.2c0,0-8.3,0-18.4,0
			s-18.4,8.5-18.4,18.8v56.5c0,10.4-8.5,18.8-18.8,18.8H75.4"/>
	</g>
</g>
<g>
	<g>
		<path fill="#231F20" d="M85.3,572.3c-0.2,0-0.4,0-0.6-0.1l-0.1,0.1l-0.4-0.3l-9.6-8.9l9.6-8.9c0.3-0.3,0.6-0.4,1-0.4
			s0.8,0.2,1.2,0.4c0.3,0.3,0.4,0.7,0.4,1.2c0,0.3-0.1,0.5-0.2,0.7l0,0l-0.4,0.4l-5.4,5h10.6v3.1H80.9l5.4,5
			c0.3,0.3,0.5,0.7,0.5,1.2s-0.2,0.8-0.4,1.2C86.1,572.2,85.7,572.3,85.3,572.3z"/>
		<path fill="#FFFFFF" d="M85.4,554.2c0.3,0,0.5,0.1,0.7,0.3c0.4,0.4,0.4,1,0,1.5c0,0,0,0-0.1,0l0,0l-6.4,6H91c0,0.7,0,1.4,0,2.1
			H79.6l6.4,6c0.4,0.4,0.4,1,0,1.5c-0.2,0.2-0.4,0.3-0.7,0.3c-0.2,0-0.5-0.1-0.7-0.2l0,0l-9.2-8.6l9.2-8.6
			C84.9,554.2,85.1,554.2,85.4,554.2 M85.4,553.1c-0.5,0-1,0.2-1.5,0.6l-9.2,8.6l-0.8,0.7l0.8,0.7l9.2,8.6l0.7,0.7l0.2-0.2
			c0.1,0,0.3,0,0.4,0c0.5,0,1-0.2,1.5-0.6c0.4-0.4,0.6-0.9,0.6-1.5c0-0.5-0.2-1-0.6-1.5l-4.5-4.2h8.7h1v-1v-2.1v-1h-1h-8.7l4.5-4.2
			l0.7-0.7l-0.2-0.2c0.1-0.2,0.1-0.4,0.1-0.6c0-0.5-0.2-1-0.6-1.5C86.4,553.3,85.9,553.1,85.4,553.1L85.4,553.1z"/>
	</g>
	<g>
		<path fill="none" stroke="#FFFFFF" stroke-width="4" stroke-miterlimit="10" d="M89.9,563.1h107.7c10.4,0,18.8-8.5,18.8-18.8
			v-64.6"/>
		<path fill="none" stroke="#231F20" stroke-width="2" stroke-miterlimit="10" d="M89.9,563.1h107.7c10.4,0,18.8-8.5,18.8-18.8
			v-64.6"/>
	</g>
</g>
<g>
	<g>
		<path fill="#231F20" d="M-164.5,495.8v-10.6l-5,5.4c-0.3,0.3-0.7,0.5-1.2,0.5c-0.4,0-0.8-0.2-1.2-0.4c-0.4-0.4-0.5-1.2-0.3-1.7
			l-0.1-0.1l0.3-0.4l8.9-9.6l8.9,9.6c0.6,0.6,0.6,1.6,0,2.2c-0.3,0.3-0.7,0.4-1.2,0.4c-0.3,0-0.5-0.1-0.7-0.2l0,0l-0.3-0.4l-5-5.4
			v10.6h-3.1L-164.5,495.8L-164.5,495.8z"/>
		<path fill="#FFFFFF" d="M-162.9,479.6l8.6,9.2c0.4,0.4,0.4,1,0,1.5c-0.2,0.2-0.5,0.3-0.7,0.3s-0.5-0.1-0.7-0.3c0,0,0,0,0-0.1l0,0
			l-6-6.4v11.4c-0.7,0-1.4,0-2.1,0v-11.4l-6,6.4c-0.2,0.2-0.5,0.3-0.7,0.3s-0.5-0.1-0.7-0.3c-0.4-0.4-0.4-1,0-1.5l0,0L-162.9,479.6
			 M-162.9,478.1l-0.7,0.8l-8.6,9.2l-0.7,0.7l0.2,0.2c-0.1,0.6,0.1,1.4,0.5,1.9c0.4,0.4,0.9,0.6,1.5,0.6c0.5,0,1-0.2,1.5-0.6
			l4.2-4.5v8.7v1h1h2.1h1v-1v-8.7l4.2,4.5l0.7,0.7l0.2-0.2c0.2,0.1,0.4,0.1,0.6,0.1c0.5,0,1-0.2,1.5-0.6c0.4-0.4,0.6-0.9,0.6-1.5
			s-0.2-1-0.6-1.5l-8.6-9.2L-162.9,478.1L-162.9,478.1z"/>
	</g>
	<g>
		<path fill="none" stroke="#FFFFFF" stroke-width="4" stroke-miterlimit="10" d="M-162.8,494.1v50c0,10.4,8.5,18.8,18.8,18.8h122.6
			"/>
		<path fill="none" stroke="#231F20" stroke-width="2" stroke-miterlimit="10" d="M-162.8,494.1v50c0,10.4,8.5,18.8,18.8,18.8h122.6
			"/>
	</g>
</g>
<g>
	<g>
		<path fill="#231F20" d="M-32.4,552.5c-0.4,0-0.8-0.2-1-0.4c-0.3-0.3-0.4-0.7-0.4-1.2s0.2-0.8,0.4-1.2l5.4-5.1h-10.6v-3.1H-28
			l-5.4-5.1l0,0l0,0l-0.3-0.3V536c-0.1-0.2-0.2-0.5-0.2-0.7c0-0.4,0.2-0.8,0.4-1.2c0.3-0.3,0.7-0.4,1.2-0.4c0.4,0,0.8,0.2,1.2,0.4
			l9.6,8.9l-10.1,9.3l-0.1-0.1C-32,552.5-32.2,552.5-32.4,552.5z"/>
		<path fill="#FFFFFF" d="M-32.5,534.2c0.3,0,0.5,0.1,0.7,0.3l9.2,8.6l-9.2,8.6l0,0c-0.2,0.2-0.4,0.2-0.7,0.2s-0.5-0.1-0.7-0.3
			c-0.4-0.4-0.4-1,0-1.5l6.5-6h-11.4c0-0.7,0-1.4,0-2.1h11.4l-6.4-6l0,0c0,0,0,0-0.1,0c-0.4-0.4-0.4-1,0-1.5
			C-33,534.3-32.7,534.2-32.5,534.2 M-32.5,533.2c-0.5,0-1,0.2-1.5,0.6c-0.4,0.4-0.6,0.9-0.6,1.5c0,0.2,0,0.4,0.1,0.6l-0.2,0.2
			l0.7,0.7l0,0l0,0l0,0l4.5,4.2h-8.7h-1v1v2.1v1h1h8.7l-4.5,4.2c-0.4,0.4-0.6,0.9-0.6,1.5c0,0.5,0.2,1,0.6,1.5
			c0.4,0.4,0.9,0.6,1.5,0.6c0.1,0,0.3,0,0.4,0l0.2,0.2l0.8-0.7l9.2-8.6l0.8-0.7l-0.8-0.7l-9.2-8.6
			C-31.3,533.5-31.9,533.2-32.5,533.2L-32.5,533.2z"/>
	</g>
	<g>
		<path fill="none" stroke="#FFFFFF" stroke-width="4" stroke-miterlimit="10" d="M-115.2,449h22.4c10.4,0,18.8,8.5,18.8,18.8v56.6
			c0,10.4,8.3,18.8,18.4,18.8s18.4,0,18.4,0"/>
		<path fill="none" stroke="#231F20" stroke-width="2" stroke-miterlimit="10" d="M-115.2,449h22.4c10.4,0,18.8,8.5,18.8,18.8v56.6
			c0,10.4,8.3,18.8,18.4,18.8s18.4,0,18.4,0"/>
	</g>
</g>
<g>
	<g>
		<path fill="#231F20" d="M-105,441.1c-0.2,0-0.4,0-0.6-0.1l-0.1,0.1l-0.4-0.3l-9.6-8.9l9.6-8.9c0.3-0.3,0.6-0.4,1-0.4
			s0.8,0.2,1.2,0.4c0.3,0.3,0.4,0.7,0.4,1.2c0,0.3-0.1,0.5-0.2,0.7l0,0l-0.3,0.3l-5.4,5H-99v3.1h-10.6l5.4,5
			c0.3,0.3,0.5,0.7,0.5,1.2s-0.2,0.8-0.4,1.2C-104.3,440.9-104.6,441.1-105,441.1z"/>
		<path fill="#FFFFFF" d="M-105,422.9c0.3,0,0.5,0.1,0.7,0.3c0.4,0.4,0.4,1,0,1.5c0,0,0,0-0.1,0l0,0l-6.4,6h11.4c0,0.7,0,1.4,0,2.1
			h-11.4l6.4,6c0.4,0.4,0.4,1,0,1.5c-0.2,0.2-0.4,0.3-0.7,0.3c-0.2,0-0.5-0.1-0.7-0.2l0,0l-9.2-8.6l9.2-8.6
			C-105.6,423-105.4,422.9-105,422.9 M-105,421.9c-0.5,0-1,0.2-1.5,0.6l-9.2,8.6l-0.8,0.7l0.8,0.7l9.2,8.6l0.7,0.7l0.2-0.2
			c0.1,0,0.3,0,0.4,0c0.5,0,1-0.2,1.5-0.6c0.4-0.4,0.6-0.9,0.6-1.5c0-0.5-0.2-1-0.6-1.5l-4.5-4.2h8.7h1v-1v-2.1v-1h-1h-8.7l4.5-4.2
			l0.7-0.7l-0.2-0.2c0.1-0.2,0.1-0.4,0.1-0.6c0-0.5-0.2-1-0.6-1.5C-104,422.1-104.5,421.9-105,421.9L-105,421.9z"/>
	</g>
	<g>
		<line fill="none" stroke="#FFFFFF" stroke-width="4" stroke-miterlimit="10" x1="-100.5" y1="431.6" x2="168.1" y2="431.6"/>
		<line fill="none" stroke="#231F20" stroke-width="2" stroke-miterlimit="10" x1="-100.5" y1="431.6" x2="168.1" y2="431.6"/>
	</g>
</g>
<g>
	<g>
		<path fill="#231F20" d="M158.2,425.4c-0.4,0-0.8-0.2-1.2-0.4c-0.3-0.3-0.4-0.7-0.4-1.2c0-0.3,0.1-0.5,0.2-0.7l0,0l0.3-0.3l5.4-5
			H152v-3.1h10.6l-5.4-5c-0.3-0.3-0.5-0.7-0.5-1.2s0.2-0.8,0.4-1.2c0.3-0.3,0.7-0.4,1-0.4c0.2,0,0.4,0,0.6,0.1l0.1-0.1l0.4,0.3
			l9.6,8.9l-9.6,8.9C159,425.2,158.6,425.4,158.2,425.4z"/>
		<path fill="#FFFFFF" d="M158.2,407.1c0.2,0,0.5,0.1,0.7,0.2l0,0l9.2,8.6l-9.2,8.6c-0.2,0.2-0.5,0.3-0.7,0.3s-0.5-0.1-0.7-0.3
			c-0.4-0.4-0.4-1,0-1.5c0,0,0,0,0.1,0l0,0l6.4-6h-11.4c0-0.7,0-1.4,0-2.1H164l-6.4-6c-0.4-0.4-0.4-1,0-1.5
			C157.6,407.2,157.9,407.1,158.2,407.1 M158.8,406.1l-0.2,0.2c-0.1,0-0.3,0-0.4,0c-0.5,0-1,0.2-1.5,0.6c-0.4,0.4-0.6,0.9-0.6,1.5
			c0,0.5,0.2,1,0.6,1.5l4.5,4.2h-8.7h-1v1v2.1v1h1h8.7l-4.5,4.2l-0.7,0.7l0.2,0.2c-0.1,0.2-0.1,0.4-0.1,0.6c0,0.5,0.2,1,0.6,1.5
			c0.4,0.4,0.9,0.6,1.5,0.6s1-0.2,1.5-0.6l9.2-8.6l0.8-0.7l-0.8-0.7l-9.2-8.6L158.8,406.1L158.8,406.1z"/>
	</g>
	<g>
		<line fill="none" stroke="#FFFFFF" stroke-width="4" stroke-miterlimit="10" x1="153.5" y1="416.1" x2="-115" y2="416.1"/>
		<line fill="none" stroke="#231F20" stroke-width="2" stroke-miterlimit="10" x1="153.5" y1="416.1" x2="-115" y2="416.1"/>
	</g>
</g>
</svg>
