<?xml version="1.0" encoding="utf-8"?>
<!-- Generator: Adobe Illustrator 17.1.0, SVG Export Plug-In . SVG Version: 6.00 Build 0)  -->
<!DOCTYPE svg PUBLIC "-//W3C//DTD SVG 1.1//EN" "http://www.w3.org/Graphics/SVG/1.1/DTD/svg11.dtd">
<svg version="1.1" id="Layer_1" xmlns="http://www.w3.org/2000/svg" xmlns:xlink="http://www.w3.org/1999/xlink" x="0px" y="0px"
	 viewBox="-218 97.6 477.6 219" enable-background="new -218 97.6 477.6 219" xml:space="preserve">
<symbol  id="arrow" viewBox="-73.4 -9.6 146.8 19.1">
	<g>
		<path fill="#221F1F" d="M62.5,9c0.4,0,0.8-0.2,1.1-0.4l9.2-8.5l-9.6-8.9l-0.1,0.1c-0.2-0.1-0.4-0.1-0.6-0.1
			c-0.8,0-1.5,0.7-1.5,1.5c0,0.4,0.2,0.8,0.4,1.1l5.2,4.9h-138c-0.8,0-1.5,0.7-1.5,1.5s0.7,1.5,1.5,1.5h138L61,6.9L61.1,7
			c-0.1,0.2-0.2,0.5-0.2,0.7C61,8.3,61.7,9,62.5,9z"/>
		<path fill="#FFFFFF" d="M62.5-8.4c-0.6,0-1,0.4-1,1c0,0.3,0.1,0.5,0.3,0.7L67.9-1H-71.3c-0.6,0-1,0.4-1,1s0.4,1,1,1H68l-6.1,5.7
			l0,0c-0.2,0.2-0.4,0.4-0.4,0.7c0,0.6,0.4,1,1,1c0.3,0,0.5-0.1,0.7-0.3l0,0L72-0.1l-8.8-8.2l0,0C63-8.3,62.8-8.4,62.5-8.4
			 M63.1-9.6l0.7,0.7l8.8,8.2L73.4,0l-0.8,0.7l-8.8,8.2c-0.4,0.4-0.9,0.6-1.4,0.6c-1.1,0-2-0.9-2-2c0-0.2,0-0.4,0.1-0.6l-0.2-0.2
			L61,6l4.3-4H-71.4c-1.1,0-2-0.9-2-2s0.9-2,2-2H65.4l-4.3-4c-0.4-0.4-0.6-0.9-0.6-1.4c0-1.1,0.9-2,2-2c0.1,0,0.3,0,0.4,0L63.1-9.6
			L63.1-9.6z"/>
	</g>
</symbol>
<g id="boundary">
	<path fill="none" stroke="#E88F24" stroke-width="4" stroke-miterlimit="10" d="M-218,97.6v219h477.6v-219H-218z"/>
</g>
<g>
	<path d="M16.8,237.8C3.1,237.8-8,248.9-8,262.6c0,11,7.1,20.3,16.9,23.6c1.2,0.2,1.6-0.6,1.6-1.1s0-2.6,0-4.6
		c-6.9,1.5-8.3-2.9-8.3-2.9c-1.1-2.9-2.7-3.6-2.7-3.6c-2.2-1.6,0.1-1.5,0.1-1.5c2.5,0.1,3.8,2.6,3.8,2.6c2.2,3.8,5.8,2.7,7.2,2.1
		c0.2-1.6,0.9-2.7,1.6-3.3C6.7,273.1,1,271,1,261.5c0-2.7,1-5,2.6-6.7c-0.2-0.6-1.1-3.1,0.2-6.5c0,0,2.1-0.6,6.9,2.6
		c2-0.6,4.1-0.9,6.2-0.9s4.2,0.2,6.2,0.9c4.7-3.2,6.8-2.6,6.8-2.6c1.4,3.4,0.5,6,0.2,6.5c1.6,1.7,2.6,4,2.6,6.7
		c0,9.5-5.8,11.7-11.3,12.2c0.9,0.7,1.6,2.3,1.6,4.6c0,3.3,0,6,0,6.8c0,0.6,0.4,1.4,1.7,1.1c9.8-3.3,16.9-12.6,16.9-23.6
		C41.6,249,30.5,237.8,16.8,237.8z"/>
	<g id="border_1_">
		<path d="M47.2,220.2c8,0,14.5,6.5,14.5,14.5v58.7c0,8-6.5,14.5-14.5,14.5h-62.4c-8,0-14.5-6.5-14.5-14.5v-58.7
			c0-8,6.5-14.5,14.5-14.5L47.2,220.2 M47.2,219.5h-62.4c-8.3,0-15.1,6.9-15.1,15.1v58.7c0,8.3,6.9,15.1,15.1,15.1h62.4
			c8.3,0,15.1-6.9,15.1-15.1v-58.7C62.3,226.3,55.4,219.5,47.2,219.5L47.2,219.5z"/>
	</g>
</g>
<g>
	<g>
		<g id="border_2_">
			<path d="M228.2,115.6c8,0,14.5,6.5,14.5,14.5v58.7c0,8-6.5,14.5-14.5,14.5h-62.4c-8,0-14.5-6.5-14.5-14.5v-58.7
				c0-8,6.5-14.5,14.5-14.5H228.2 M228.2,115h-62.4c-8.3,0-15.1,6.9-15.1,15.1v58.7c0,8.3,6.9,15.1,15.1,15.1h62.4
				c8.3,0,15.1-6.9,15.1-15.1v-58.7C243.2,121.8,236.5,115,228.2,115L228.2,115z"/>
		</g>
		<path d="M218.7,137.7c-3.1,0-43.5,0-43.5,0c-3.1,0-3.1,3.1-3.1,3.1v28c0,0,0,3.1,3.1,3.1h15.6c0,0-9.3,3.1-9.3,6.2
			c0,3.1,3.1,3.1,3.1,3.1h24.8c0,0,3.1,0,3.1-3.1c0-3.1-9.3-6.2-9.3-6.2h15.6c3.1,0,3.1-3.1,3.1-3.1v-28
			C221.8,140.9,221.8,137.7,218.7,137.7z M218.7,168.7h-43.5v-28h43.5V168.7z M215.6,143.9h-9.3c-18.6,3.1-28,18.6-28,18.6v3.1h37.2
			L215.6,143.9L215.6,143.9z"/>
	</g>
	<g>
		<circle cx="236.5" cy="120.7" r="13.5"/>
		<path fill="#FFFFFF" d="M235.5,117.2h-1v1h1V117.2z M235.5,115.1h-1v1h1V115.1z M241.5,113.1h-10.2c0,0-1,0-1,1v12.2c0,1,1,1,1,1
			h2v2l1.6-1.6l1.6,1.6v-2h5c0,0,1,0,1-1v-12.2C242.6,113.1,241.5,113.1,241.5,113.1z M241.5,125.3c0,1-1,1-1,1h-4.1v-1h-3.1v1h-1
			c-1,0-1-1-1-1v-1h10.2L241.5,125.3L241.5,125.3z M241.5,123.2h-8.1v-9.1h8.1V123.2z M235.5,121.2h-1v1h1V121.2z M235.5,119.2h-1v1
			h1V119.2z"/>
	</g>
</g>
<g>
	<g>
		<g id="border_3_">
			<path d="M-134.7,115.6c8,0,14.5,6.5,14.5,14.5v58.7c0,8-6.5,14.5-14.5,14.5h-62.4c-8,0-14.5-6.5-14.5-14.5v-58.7
				c0-8,6.5-14.5,14.5-14.5H-134.7 M-134.7,115h-62.4c-8.3,0-15.1,6.9-15.1,15.1v58.7c0,8.3,6.9,15.1,15.1,15.1h62.4
				c8.3,0,15.1-6.9,15.1-15.1v-58.7C-119.7,121.8-126.4,115-134.7,115L-134.7,115z"/>
		</g>
		<path d="M-144.2,137.7c-3.1,0-43.5,0-43.5,0c-3.1,0-3.1,3.1-3.1,3.1v28c0,0,0,3.1,3.1,3.1h15.6c0,0-9.3,3.1-9.3,6.2
			c0,3.1,3.1,3.1,3.1,3.1h24.8c0,0,3.1,0,3.1-3.1c0-3.1-9.3-6.2-9.3-6.2h15.6c3.1,0,3.1-3.1,3.1-3.1v-28
			C-141.1,140.9-141.1,137.7-144.2,137.7z M-144.2,168.7h-43.5v-28h43.5V168.7z M-147.3,143.9h-9.3c-18.6,3.1-28,18.6-28,18.6v3.1
			h37.2L-147.3,143.9L-147.3,143.9z"/>
	</g>
	<g>
		<circle cx="-126.4" cy="120.7" r="13.5"/>
		<path fill="#FFFFFF" d="M-127.4,117.2h-1v1h1V117.2z M-127.4,115.1h-1v1h1V115.1z M-121.4,113.1h-10.2c0,0-1,0-1,1v12.2
			c0,1,1,1,1,1h2v2l1.6-1.6l1.6,1.6v-2h5c0,0,1,0,1-1v-12.2C-120.3,113.1-121.4,113.1-121.4,113.1z M-121.4,125.3c0,1-1,1-1,1h-4.1
			v-1h-3.1v1h-1c-1,0-1-1-1-1v-1h10.2L-121.4,125.3L-121.4,125.3z M-121.4,123.2h-8.1v-9.1h8.1V123.2z M-127.4,121.2h-1v1h1V121.2z
			 M-127.4,119.2h-1v1h1V119.2z"/>
	</g>
</g>
<g>
	<g>
		<path fill="#231F20" d="M141.3,182.9c-0.4,0-0.8-0.2-1.1-0.4c-0.3-0.3-0.4-0.7-0.4-1.1c0-0.3,0.1-0.5,0.2-0.7l0,0l0.4-0.3l5.2-4.8
			h-10.1v-3h10.1l-5.2-4.8c-0.3-0.3-0.5-0.7-0.5-1.1c0-0.4,0.2-0.8,0.4-1.1c0.3-0.3,0.7-0.4,1-0.4c0.2,0,0.4,0,0.6,0.1l0.1-0.1
			l0.4,0.3l9.2,8.5l-9.2,8.5C142.1,182.8,141.7,182.9,141.3,182.9z"/>
		<path fill="#FFFFFF" d="M141.3,165.6c0.2,0,0.5,0.1,0.7,0.2l0,0l8.8,8.2l-8.8,8.2c-0.2,0.2-0.5,0.3-0.7,0.3s-0.5-0.1-0.7-0.3
			c-0.4-0.4-0.4-1,0-1.4c0,0,0,0,0.1,0l0,0l6.1-5.7h-10.9c0-0.7,0-1.3,0-2h10.9l-6.1-5.7c-0.4-0.4-0.4-1,0-1.4
			C140.8,165.7,141.1,165.6,141.3,165.6 M141.9,164.4l-0.2,0.2c-0.1,0-0.3,0-0.4,0c-0.5,0-1,0.2-1.4,0.6c-0.4,0.4-0.6,0.9-0.6,1.4
			c0,0.5,0.2,1,0.6,1.4l4.3,4h-8.3h-1v1v2v1h1h8.3l-4.3,4l-0.7,0.7l0.2,0.2c-0.1,0.2-0.1,0.4-0.1,0.6c0,0.5,0.2,1,0.6,1.4
			c0.4,0.4,0.9,0.6,1.4,0.6c0.5,0,1-0.2,1.4-0.6l8.8-8.2l0.8-0.7l-0.8-0.7l-8.8-8.2L141.9,164.4L141.9,164.4z"/>
	</g>
	<g>
		<path fill="none" stroke="#FFFFFF" stroke-width="4" stroke-miterlimit="10" d="M136.9,174c0,0-7.9,0-17.6,0s-17.6,8.1-17.6,18v54
			c0,9.9-8.1,18-18,18H62.3"/>
		<path fill="none" stroke="#231F20" stroke-width="2" stroke-miterlimit="10" d="M136.9,174c0,0-7.9,0-17.6,0s-17.6,8.1-17.6,18v54
			c0,9.9-8.1,18-18,18H62.3"/>
	</g>
</g>
<g>
	<g>
		<path fill="#231F20" d="M71.7,292.5c-0.2,0-0.4,0-0.6-0.1l-0.1,0.1l-0.4-0.3l-9.2-8.5l9.2-8.5c0.3-0.3,0.6-0.4,1-0.4
			s0.8,0.2,1.1,0.4c0.3,0.3,0.4,0.7,0.4,1.1c0,0.3-0.1,0.5-0.2,0.7l0,0l-0.4,0.4l-5.2,4.8h10.1v3H67.5l5.2,4.8
			c0.3,0.3,0.5,0.7,0.5,1.1s-0.2,0.8-0.4,1.1C72.5,292.3,72.1,292.5,71.7,292.5z"/>
		<path fill="#FFFFFF" d="M71.8,275.1c0.3,0,0.5,0.1,0.7,0.3c0.4,0.4,0.4,1,0,1.4c0,0,0,0-0.1,0l0,0l-6.1,5.7h10.9c0,0.7,0,1.3,0,2
			H66.3l6.1,5.7c0.4,0.4,0.4,1,0,1.4c-0.2,0.2-0.4,0.3-0.7,0.3c-0.2,0-0.5-0.1-0.7-0.2l0,0l-8.8-8.2l8.8-8.2
			C71.3,275.2,71.5,275.1,71.8,275.1 M71.8,274.1c-0.5,0-1,0.2-1.4,0.6l-8.8,8.2l-0.8,0.7l0.8,0.7l8.8,8.2l0.7,0.7l0.2-0.2
			c0.1,0,0.3,0,0.4,0c0.5,0,1-0.2,1.4-0.6c0.4-0.4,0.6-0.9,0.6-1.4c0-0.5-0.2-1-0.6-1.4l-4.3-4h8.3h1v-1v-2v-1h-1h-8.3l4.3-4
			l0.7-0.7l-0.2-0.2c0.1-0.2,0.1-0.4,0.1-0.6c0-0.5-0.2-1-0.6-1.4C72.8,274.3,72.3,274.1,71.8,274.1L71.8,274.1z"/>
	</g>
	<g>
		<path fill="none" stroke="#FFFFFF" stroke-width="4" stroke-miterlimit="10" d="M76.1,283.6H179c9.9,0,18-8.1,18-18v-61.7"/>
		<path fill="none" stroke="#231F20" stroke-width="2" stroke-miterlimit="10" d="M76.1,283.6H179c9.9,0,18-8.1,18-18v-61.7"/>
	</g>
</g>
<g>
	<g>
		<path fill="#231F20" d="M-166.9,219.3v-10.1l-4.8,5.2c-0.3,0.3-0.7,0.5-1.1,0.5s-0.8-0.2-1.1-0.4c-0.4-0.4-0.5-1.1-0.3-1.6
			l-0.1-0.1l0.3-0.4l8.5-9.2l8.5,9.2c0.6,0.6,0.6,1.5,0,2.1c-0.3,0.3-0.7,0.4-1.1,0.4c-0.3,0-0.5-0.1-0.7-0.2l0,0l-0.3-0.4l-4.8-5.2
			v10.1H-166.9z"/>
		<path fill="#FFFFFF" d="M-165.4,203.9l8.2,8.8c0.4,0.4,0.4,1,0,1.4c-0.2,0.2-0.5,0.3-0.7,0.3s-0.5-0.1-0.7-0.3c0,0,0,0,0-0.1l0,0
			l-5.7-6.1v10.9c-0.7,0-1.3,0-2,0v-10.9l-5.7,6.1c-0.2,0.2-0.5,0.3-0.7,0.3s-0.5-0.1-0.7-0.3c-0.4-0.4-0.4-1,0-1.4l0,0
			L-165.4,203.9 M-165.4,202.4l-0.7,0.8l-8.2,8.8l-0.7,0.7l0.2,0.2c-0.1,0.6,0.1,1.3,0.5,1.8c0.4,0.4,0.9,0.6,1.4,0.6
			c0.5,0,1-0.2,1.4-0.6l4-4.3v8.3v1h1h2h1v-1v-8.3l4,4.3l0.7,0.7l0.2-0.2c0.2,0.1,0.4,0.1,0.6,0.1c0.5,0,1-0.2,1.4-0.6
			c0.4-0.4,0.6-0.9,0.6-1.4c0-0.5-0.2-1-0.6-1.4l-8.2-8.8L-165.4,202.4L-165.4,202.4z"/>
	</g>
	<g>
		<path fill="none" stroke="#FFFFFF" stroke-width="4" stroke-miterlimit="10" d="M-165.3,217.7l0,47.8c0,9.9,8.1,18,18,18h117.1"/>
		<path fill="none" stroke="#231F20" stroke-width="2" stroke-miterlimit="10" d="M-165.3,217.7l0,47.8c0,9.9,8.1,18,18,18h117.1"/>
	</g>
</g>
<g>
	<g>
		<path fill="#231F20" d="M-40.7,273.5c-0.4,0-0.8-0.2-1-0.4c-0.3-0.3-0.4-0.7-0.4-1.1s0.2-0.8,0.4-1.1l5.2-4.9h-10.1v-3h10.1
			l-5.2-4.9l0,0l0,0l-0.3-0.3l0-0.1c-0.1-0.2-0.2-0.5-0.2-0.7c0-0.4,0.2-0.8,0.4-1.1c0.3-0.3,0.7-0.4,1.1-0.4c0.4,0,0.8,0.2,1.1,0.4
			l9.2,8.5l-9.6,8.9l-0.1-0.1C-40.3,273.5-40.5,273.5-40.7,273.5z"/>
		<path fill="#FFFFFF" d="M-40.8,256.1c0.3,0,0.5,0.1,0.7,0.3l8.8,8.2l-8.8,8.2l0,0c-0.2,0.2-0.4,0.2-0.7,0.2
			c-0.3,0-0.5-0.1-0.7-0.3c-0.4-0.4-0.4-1,0-1.4l6.2-5.7h-10.9c0-0.7,0-1.3,0-2h10.9l-6.1-5.7l0,0c0,0,0,0-0.1,0
			c-0.4-0.4-0.4-1,0-1.4C-41.3,256.2-41,256.1-40.8,256.1 M-40.8,255.1c-0.5,0-1,0.2-1.4,0.6c-0.4,0.4-0.6,0.9-0.6,1.4
			c0,0.2,0,0.4,0.1,0.6l-0.2,0.2l0.7,0.7l0,0l0,0l0,0l4.3,4h-8.3h-1v1v2v1h1h8.3l-4.3,4c-0.4,0.4-0.6,0.9-0.6,1.4
			c0,0.5,0.2,1,0.6,1.4c0.4,0.4,0.9,0.6,1.4,0.6c0.1,0,0.3,0,0.4,0l0.2,0.2l0.8-0.7l8.8-8.2l0.8-0.7l-0.8-0.7l-8.8-8.2
			C-39.7,255.3-40.2,255.1-40.8,255.1L-40.8,255.1z"/>
	</g>
	<g>
		<path fill="none" stroke="#FFFFFF" stroke-width="4" stroke-miterlimit="10" d="M-119.8,174.6h21.4c9.9,0,18,8.1,18,18v54
			c0,9.9,7.9,18,17.6,18s17.6,0,17.6,0"/>
		<path fill="none" stroke="#231F20" stroke-width="2" stroke-miterlimit="10" d="M-119.8,174.6h21.4c9.9,0,18,8.1,18,18v54
			c0,9.9,7.9,18,17.6,18s17.6,0,17.6,0"/>
	</g>
</g>
<g>
	<g>
		<path fill="#231F20" d="M-110.1,167.1c-0.2,0-0.4,0-0.6-0.1l-0.1,0.1l-0.4-0.3l-9.2-8.5l9.2-8.5c0.3-0.3,0.6-0.4,1-0.4
			s0.8,0.2,1.1,0.4c0.3,0.3,0.4,0.7,0.4,1.1c0,0.3-0.1,0.5-0.2,0.7l0,0l-0.3,0.3l-5.2,4.8h10.1v3h-10.1l5.2,4.8
			c0.3,0.3,0.5,0.7,0.5,1.1c0,0.4-0.2,0.8-0.4,1.1C-109.4,166.9-109.7,167.1-110.1,167.1z"/>
		<path fill="#FFFFFF" d="M-110.1,149.7c0.3,0,0.5,0.1,0.7,0.3c0.4,0.4,0.4,1,0,1.4c0,0,0,0-0.1,0l0,0l-6.1,5.7h10.9
			c0,0.7,0,1.3,0,2h-10.9l6.1,5.7c0.4,0.4,0.4,1,0,1.4c-0.2,0.2-0.4,0.3-0.7,0.3c-0.2,0-0.5-0.1-0.7-0.2l0,0l-8.8-8.2l8.8-8.2
			C-110.6,149.8-110.4,149.7-110.1,149.7 M-110.1,148.7c-0.5,0-1,0.2-1.4,0.6l-8.8,8.2l-0.8,0.7l0.8,0.7l8.8,8.2l0.7,0.7l0.2-0.2
			c0.1,0,0.3,0,0.4,0c0.5,0,1-0.2,1.4-0.6c0.4-0.4,0.6-0.9,0.6-1.4c0-0.5-0.2-1-0.6-1.4l-4.3-4h8.3h1v-1v-2v-1h-1h-8.3l4.3-4
			l0.7-0.7l-0.2-0.2c0.1-0.2,0.1-0.4,0.1-0.6c0-0.5-0.2-1-0.6-1.4C-109.1,148.9-109.6,148.7-110.1,148.7L-110.1,148.7z"/>
	</g>
	<g>
		<line fill="none" stroke="#FFFFFF" stroke-width="4" stroke-miterlimit="10" x1="-105.8" y1="158.1" x2="150.8" y2="158.1"/>
		<line fill="none" stroke="#231F20" stroke-width="2" stroke-miterlimit="10" x1="-105.8" y1="158.1" x2="150.8" y2="158.1"/>
	</g>
</g>
<g>
	<g>
		<path fill="#231F20" d="M141.3,152.1c-0.4,0-0.8-0.2-1.1-0.4c-0.3-0.3-0.4-0.7-0.4-1.1c0-0.3,0.1-0.5,0.2-0.7l0,0l0.3-0.3l5.2-4.8
			h-10.1v-3h10.1l-5.2-4.8c-0.3-0.3-0.5-0.7-0.5-1.1c0-0.4,0.2-0.8,0.4-1.1c0.3-0.3,0.7-0.4,1-0.4c0.2,0,0.4,0,0.6,0.1l0.1-0.1
			l0.4,0.3l9.2,8.5l-9.2,8.5C142.1,152,141.7,152.1,141.3,152.1z"/>
		<path fill="#FFFFFF" d="M141.3,134.7c0.2,0,0.5,0.1,0.7,0.2l0,0l8.8,8.2l-8.8,8.2c-0.2,0.2-0.5,0.3-0.7,0.3s-0.5-0.1-0.7-0.3
			c-0.4-0.4-0.4-1,0-1.4c0,0,0,0,0.1,0l0,0l6.1-5.7h-10.9c0-0.7,0-1.3,0-2h10.9l-6.1-5.7c-0.4-0.4-0.4-1,0-1.4
			C140.8,134.8,141.1,134.7,141.3,134.7 M141.9,133.6l-0.2,0.2c-0.1,0-0.3,0-0.4,0c-0.5,0-1,0.2-1.4,0.6c-0.4,0.4-0.6,0.9-0.6,1.4
			c0,0.5,0.2,1,0.6,1.4l4.3,4h-8.3h-1v1v2v1h1h8.3l-4.3,4l-0.7,0.7l0.2,0.2c-0.1,0.2-0.1,0.4-0.1,0.6c0,0.5,0.2,1,0.6,1.4
			c0.4,0.4,0.9,0.6,1.4,0.6c0.5,0,1-0.2,1.4-0.6l8.8-8.2l0.8-0.7l-0.8-0.7l-8.8-8.2L141.9,133.6L141.9,133.6z"/>
	</g>
	<g>
		<line fill="none" stroke="#FFFFFF" stroke-width="4" stroke-miterlimit="10" x1="136.9" y1="143.2" x2="-119.6" y2="143.2"/>
		<line fill="none" stroke="#231F20" stroke-width="2" stroke-miterlimit="10" x1="136.9" y1="143.2" x2="-119.6" y2="143.2"/>
	</g>
</g>
</svg>
