<?xml version="1.0" encoding="utf-8"?>
<!-- Generator: Adobe Illustrator 17.1.0, SVG Export Plug-In . SVG Version: 6.00 Build 0)  -->
<!DOCTYPE svg PUBLIC "-//W3C//DTD SVG 1.1//EN" "http://www.w3.org/Graphics/SVG/1.1/DTD/svg11.dtd">
<svg version="1.1" id="Layer_1" xmlns="http://www.w3.org/2000/svg" xmlns:xlink="http://www.w3.org/1999/xlink" x="0px" y="0px"
	 viewBox="32 154.1 436 275.3" enable-background="new 32 154.1 436 275.3" xml:space="preserve">
<g id="base">
	<g id="repo">
		<text transform="matrix(1 0 0 1 60.4873 219.7915)" font-family="'github-octicons'" font-size="56.3392"></text>
		<path enable-background="new    " d="M118.5,154.1H44.7c-6.9,0-12.7,5.6-12.7,12.7v68.7c0,6.9,5.6,12.7,12.7,12.7h73.8
			c6.9,0,12.7-5.6,12.7-12.7v-68.9C131.2,159.8,125.5,154.1,118.5,154.1z M129.8,166.7v68.7c0,6.2-5.1,11.3-11.3,11.3H44.7
			c-6.2,0-11.3-5.1-11.3-11.3v-68.7c0-6.2,5.1-11.3,11.3-11.3h73.8C124.8,155.6,129.8,160.5,129.8,166.7z"/>
	</g>
</g>
<text transform="matrix(1.0483 0 0 1 53.4138 368.0797)" fill="#231F20" font-family="'ApexNew-Book'" font-size="16">fork</text>
<g id="fork_1_">
	<g>
		<text transform="matrix(1 0 0 1 229.6001 360.6924)" font-family="'github-octicons'" font-size="56.3392"></text>
	</g>
	<path enable-background="new    " d="M286.5,296h-73.8c-6.9,0-12.7,5.6-12.7,12.7v68.7c0,6.9,5.6,12.7,12.7,12.7h73.8
		c6.9,0,12.7-5.6,12.7-12.7v-68.7C299.1,301.6,293.4,296,286.5,296z M297.6,308.6v68.7c0,6.2-5.1,11.3-11.3,11.3h-73.6
		c-6.2,0-11.3-5.1-11.3-11.3v-68.7c0-6.2,5.1-11.3,11.3-11.3h73.8C292.5,297.5,297.6,302.4,297.6,308.6z"/>
	<g>
		<path opacity="0.4" enable-background="new    " d="M333.1,368.9h-47.5c-4.5,0-8.1,3.6-8.1,8.1v44.3c0,4.5,3.6,8.1,8.1,8.1h47.5
			c4.5,0,8.1-3.7,8.1-8.1V377C341.3,372.6,337.6,368.9,333.1,368.9z M340.4,377.1v44.3c0,3.9-3.2,7.1-7.1,7.1h-47.5
			c-3.9,0-7.1-3.2-7.1-7.1v-44.3c0-3.9,3.2-7.1,7.1-7.1h47.5C337.2,369.8,340.4,373.2,340.4,377.1z"/>
		<path fill="#FFFFFF" d="M340.4,377.1v44.3c0,3.9-3.2,7.1-7.1,7.1h-47.5c-3.9,0-7.1-3.2-7.1-7.1v-44.3c0-3.9,3.2-7.1,7.1-7.1h47.5
			C337.2,369.8,340.4,373.2,340.4,377.1z"/>
		<text transform="matrix(1 0 0 1 300.3623 409.4648)" font-family="'github-octicons'" font-size="36.274"></text>
	</g>
</g>
<text transform="matrix(1.0483 0 0 1 379.6312 367.0794)" fill="#231F20" font-family="'ApexNew-Book'" font-size="16">pull request</text>
<g>
	<text transform="matrix(1 0 0 1 404.2188 217.0263)" font-family="'github-octicons'" font-size="56.3392"></text>
	<path enable-background="new    " d="M455.3,154.1h-73.8c-6.9,0-12.7,5.6-12.7,12.7v68.7c0,6.9,5.6,12.7,12.7,12.7h73.8
		c6.9,0,12.7-5.6,12.7-12.7v-68.9C467.8,159.8,462.2,154.1,455.3,154.1z M466.3,166.7v68.7c0,6.2-5.1,11.3-11.3,11.3h-73.8
		c-6.2,0-11.3-5.1-11.3-11.3v-68.7c0-6.2,5.1-11.3,11.3-11.3H455C461.5,155.6,466.3,160.5,466.3,166.7z"/>
</g>
<text transform="matrix(1.0483 0 0 1 222.2241 214.9165)" fill="#231F20" font-family="'ApexNew-Book'" font-size="16">merge</text>
<g>
	<g>
		<line fill="none" stroke="#231F20" stroke-width="2" stroke-miterlimit="10" x1="133.4" y1="198.7" x2="369.3" y2="198.7"/>
		<g>
			<polygon fill="#231F20" points="140,206.8 141.4,205.4 134.2,198.7 141.4,191.9 140,190.5 131.3,198.7 			"/>
		</g>
	</g>
</g>
<g>
	<g>
		<path fill="none" stroke="#231F20" stroke-width="2" stroke-miterlimit="10" d="M199.4,339.3l-99.7-0.1c-9.9,0-18-8.1-18-18v-73.5
			"/>
		<g>
			<polygon fill="#231F20" points="192.7,331.2 191.4,332.6 198.6,339.3 191.4,346 192.7,347.5 201.5,339.3 			"/>
		</g>
	</g>
</g>
<g>
	<g>
		<path fill="none" stroke="#231F20" stroke-width="2" stroke-miterlimit="10" d="M418.4,249.9v71.3c0,9.9-8.1,18-18,18l-101.9,0.1"
			/>
		<g>
			<polygon fill="#231F20" points="410.2,256.5 411.7,257.9 418.4,250.7 425.1,257.9 426.6,256.5 418.4,247.7 			"/>
		</g>
	</g>
</g>
</svg>
