<?xml version="1.0" encoding="utf-8"?>
<!-- Generator: Adobe Illustrator 17.1.0, SVG Export Plug-In . SVG Version: 6.00 Build 0)  -->
<!DOCTYPE svg PUBLIC "-//W3C//DTD SVG 1.1//EN" "http://www.w3.org/Graphics/SVG/1.1/DTD/svg11.dtd">
<svg version="1.1" id="Layer_1" xmlns="http://www.w3.org/2000/svg" xmlns:xlink="http://www.w3.org/1999/xlink" x="0px" y="0px"
	 viewBox="0 82 500 384" enable-background="new 0 82 500 384" xml:space="preserve">
<g id="base">
	<g id="repo">
		<text transform="matrix(1 0 0 1 37.1026 166.9388)" font-family="'github-octicons'" font-size="63.2911"></text>
		<path opacity="0.4" enable-background="new    " d="M102.3,93.1H19.4c-7.8,0-14.3,6.3-14.3,14.3v77.2c0,7.8,6.3,14.3,14.3,14.3
			h82.9c7.8,0,14.3-6.3,14.3-14.3v-77.4C116.5,99.5,110.1,93.1,102.3,93.1z M115,107.3v77.2c0,7-5.7,12.7-12.7,12.7H19.4
			c-7,0-12.7-5.7-12.7-12.7v-77.2c0-7,5.7-12.7,12.7-12.7h82.9C109.3,94.8,115,100.3,115,107.3z"/>
	</g>
</g>
<g id="step-1_1_">
	<text transform="matrix(1.0483 0 0 1 74.3689 268.5133)" fill="#231F20" font-family="'ApexNew-Book'" font-size="21.2348">Fork</text>
	<path fill="#FFFFFF" d="M171.7,373.5c-1.3,0-2.3-0.4-3.2-1.1l-4-3.2c-0.8-0.6-1.3-1.5-1.3-2.3c0-0.8,0.6-1.7,1.5-2.1l9.9-6.5H98.3
		c-2.5,0-4.4-1.5-4.4-3.2v-4.2c0-1.7,1.9-3.2,4.4-3.2h76.4l-9.9-6.5c-0.8-0.6-1.5-1.3-1.5-2.1s0.4-1.7,1.3-2.3l4-3.2
		c1.7-1.3,4.4-1.3,6.3-0.2l26.2,17.3c0.8,0.6,1.5,1.5,1.5,2.3c0,0.8-0.4,1.7-1.5,2.3l-26.2,17.3C174.1,373.3,173,373.5,171.7,373.5z
		 M189.2,353.3c0.4,0.2,0.6,0.6,0.8,0.8l1.3-0.8l-1.3-0.8C189.9,352.6,189.7,352.8,189.2,353.3z"/>
	<polygon fill="#221F1F" points="171.7,336 167.7,338.9 186.1,351.2 98.3,351.2 98.3,355.4 186.1,355.4 167.7,367.4 171.7,370.4 
		197.9,353.3 	"/>
	<path fill="#221F1F" d="M101.3,353.3c0,1.3-1.3,2.1-3,2.1s-3-0.8-3-2.1c0-1.3,1.3-2.1,3-2.1C100,351.2,101.3,352,101.3,353.3z"/>
	<path fill="#221F1F" d="M171.7,336c1.1,0.8,1.1,2.1,0,3s-3,0.8-4.2,0s-1.1-2.1,0-3C168.8,335.1,170.7,335.1,171.7,336z"/>
	<path fill="#221F1F" d="M171.9,367.4c1.1,0.8,1.1,2.1,0,3c-1.1,0.8-3,0.8-4.2,0c-1.1-0.8-1.1-2.1,0-3
		C169,366.6,170.9,366.6,171.9,367.4z"/>
	<path fill="none" stroke="#221F1F" stroke-width="2" stroke-miterlimit="10" d="M61,199.5v132.7c0,11.6,9.5,21.1,21.1,21.1h92"/>
	<g id="fork_1_">
		<g>
			<text transform="matrix(1 0 0 1 229.0835 375.7291)" font-family="'github-octicons'" font-size="63.2911"></text>
		</g>
		<path opacity="0.4" enable-background="new    " d="M293,303.1h-82.9c-7.8,0-14.3,6.3-14.3,14.3v77.2c0,7.8,6.3,14.3,14.3,14.3
			H293c7.8,0,14.3-6.3,14.3-14.3v-77.2C307.2,309.4,300.8,303.1,293,303.1z M305.5,317.2v77.2c0,7-5.7,12.7-12.7,12.7h-82.7
			c-7,0-12.7-5.7-12.7-12.7v-77.2c0-7,5.7-12.7,12.7-12.7H293C299.8,304.7,305.5,310.2,305.5,317.2z"/>
		<g>
			<path opacity="0.4" enable-background="new    " d="M345.4,384.9H292c-5.1,0-9.1,4-9.1,9.1v49.8c0,5.1,4,9.1,9.1,9.1h53.4
				c5.1,0,9.1-4.2,9.1-9.1V394C354.6,389.1,350.4,384.9,345.4,384.9z M353.6,394.2V444c0,4.4-3.6,8-8,8h-53.4c-4.4,0-8-3.6-8-8
				v-49.8c0-4.4,3.6-8,8-8h53.4C350,386,353.6,389.8,353.6,394.2z"/>
			<path fill="#FFFFFF" d="M353.6,394.2V444c0,4.4-3.6,8-8,8h-53.4c-4.4,0-8-3.6-8-8v-49.8c0-4.4,3.6-8,8-8h53.4
				C350,386,353.6,389.8,353.6,394.2z"/>
			<text transform="matrix(1 0 0 1 308.5767 430.5197)" font-family="'github-octicons'" font-size="40.75"></text>
		</g>
	</g>
</g>
<g id="step-2">
	<text transform="matrix(1.0483 0 0 1 313.2984 268.5133)" fill="#231F20" font-family="'ApexNew-Book'" font-size="21.2348">Pull Request</text>
	<path fill="#FFFFFF" d="M464.8,226.3c0,1.3-0.4,2.3-1.1,3.2l-3.2,4c-0.6,0.8-1.5,1.3-2.3,1.3c-0.8,0-1.7-0.6-2.1-1.5l-6.5-9.9v92.4
		c0,2.5-1.5,4.4-3.2,4.4h-4.2c-1.7,0-3.2-1.9-3.2-4.4v-92.4l-6.5,9.9c-0.6,0.8-1.3,1.5-2.1,1.5s-1.7-0.4-2.3-1.3l-3.2-4
		c-1.3-1.7-1.3-4.4-0.2-6.3l17.3-26.2c0.6-0.8,1.5-1.5,2.3-1.5c0.8,0,1.7,0.4,2.3,1.5l17.3,26.2
		C464.6,224.2,464.8,225.2,464.8,226.3z M444.3,208.8c0.2-0.4,0.6-0.6,0.8-0.8l-0.8-1.3l-0.8,1.3
		C443.9,208.1,444.1,208.5,444.3,208.8z"/>
	<polygon fill="#221F1F" points="427,226.3 430.2,230.3 442.2,212.1 442.2,315.7 446.4,315.7 446.4,212.1 458.4,230.3 461.6,226.3 
		444.3,200.1 	"/>
	<path fill="#221F1F" d="M444.3,312.8c1.3,0,2.1,1.3,2.1,3c0,1.7-0.8,3-2.1,3s-2.1-1.3-2.1-3C442.2,314,443.2,312.8,444.3,312.8z"/>
	<path fill="#221F1F" d="M427,226.3c0.8-1.1,2.1-1.1,3,0c0.8,1.1,0.8,3,0,4.2s-2.1,1.1-3,0C426.4,229.2,426.4,227.3,427,226.3z"/>
	<path fill="#221F1F" d="M458.4,226.1c0.8-1.1,2.1-1.1,3,0c0.8,1.1,0.8,3,0,4.2c-0.8,1.1-2.1,1.1-3,0
		C457.6,229.2,457.6,227.3,458.4,226.1z"/>
	<path fill="none" stroke="#221F1F" stroke-width="2" stroke-miterlimit="10" d="M306.5,353.3h116.9c11.6,0,21.1-9.5,21.1-21.1v-108
		"/>
	<g id="owner">
		<text transform="matrix(1 0 0 1 423.2485 163.8327)" font-family="'github-octicons'" font-size="63.2911"></text>
		<path opacity="0.4" enable-background="new    " d="M480.6,93.1h-82.9c-7.8,0-14.3,6.3-14.3,14.3v77.2c0,7.8,6.3,14.3,14.3,14.3
			h82.9c7.8,0,14.3-6.3,14.3-14.3v-77.4C494.7,99.5,488.4,93.1,480.6,93.1z M493,107.3v77.2c0,7-5.7,12.7-12.7,12.7h-82.9
			c-7,0-12.7-5.7-12.7-12.7v-77.2c0-7,5.7-12.7,12.7-12.7h82.9C487.6,94.8,493,100.3,493,107.3z"/>
	</g>
</g>
<g id="step-3">
	<text transform="matrix(1.0483 0 0 1 222.2242 170.8162)" fill="#231F20" font-family="'ApexNew-Book'" font-size="21.2348">merge</text>
	<g>
		<g id="XMLID_3_">
			<g>
				<g>
					<path fill="#FFFFFF" d="M142.8,121.6c1.3,0,2.3,0.4,3.2,1.1l4,3.2c0.8,0.6,1.3,1.5,1.3,2.3c0,0.8-0.6,1.7-1.5,2.1l-9.9,6.5h239
						c2.5,0,4.4,1.5,4.4,3.2v4.2c0,1.7-1.9,3.2-4.4,3.2h-239l9.9,6.5c0.8,0.6,1.5,1.3,1.5,2.1c0,0.8-0.4,1.7-1.3,2.3l-4,3.2
						c-1.7,1.3-4.4,1.3-6.3,0.2l-26.2-17.3c-0.8-0.6-1.5-1.5-1.5-2.3c0-0.8,0.4-1.7,1.5-2.3l26.2-17.3
						C140.5,121.8,141.8,121.6,142.8,121.6z M125.3,142.1c-0.4-0.2-0.6-0.6-0.8-0.8l-1.3,0.8l1.3,0.8
						C124.7,142.5,124.9,142.3,125.3,142.1z"/>
				</g>
				<polygon fill="#221F1F" points="142.8,159.4 146.8,156.2 128.7,144.2 383.3,144.2 383.3,140 128.5,140 146.8,128 142.8,124.8 
					116.7,142.1 				"/>
			</g>
			<path fill="#221F1F" d="M142.8,159.4c-1.1-0.8-1.1-2.1,0-3c1.1-0.8,3-0.8,4.2,0c1.3,0.8,1.1,2.1,0,3
				C145.8,160.2,143.9,160.2,142.8,159.4z"/>
			<path fill="#221F1F" d="M142.6,128c-1.1-0.8-1.1-2.1,0-3c1.1-0.8,3-0.8,4.2,0c1.1,0.8,1.1,2.1,0,3
				C145.6,128.8,143.7,128.8,142.6,128z"/>
		</g>
	</g>
</g>
</svg>
