<?xml version="1.0" encoding="utf-8"?>
<!-- Generator: Adobe Illustrator 17.1.0, SVG Export Plug-In . SVG Version: 6.00 Build 0)  -->
<!DOCTYPE svg PUBLIC "-//W3C//DTD SVG 1.1//EN" "http://www.w3.org/Graphics/SVG/1.1/DTD/svg11.dtd">
<svg version="1.1" id="Layer_1" xmlns="http://www.w3.org/2000/svg" xmlns:xlink="http://www.w3.org/1999/xlink" x="0px" y="0px"
	 viewBox="0 0 500 500" enable-background="new 0 0 500 500" xml:space="preserve">
<g id="base">
	<g id="repo">
		<text transform="matrix(1 0 0 1 37.1026 211.0388)" font-family="'github-octicons'" font-size="63.2911"></text>
		<path opacity="0.4" enable-background="new    " d="M102.3,137.2H19.4c-7.8,0-14.3,6.3-14.3,14.3v77.2c0,7.8,6.3,14.3,14.3,14.3
			h82.9c7.8,0,14.3-6.3,14.3-14.3v-77.4C116.5,143.6,110.1,137.2,102.3,137.2z M115,151.4v77.2c0,7-5.7,12.7-12.7,12.7H19.4
			c-7,0-12.7-5.7-12.7-12.7v-77.2c0-7,5.7-12.7,12.7-12.7h82.9C109.3,138.9,115,144.4,115,151.4z"/>
	</g>
</g>
<text transform="matrix(1.0483 0 0 1 74.3687 312.6137)" fill="#231F20" font-family="'ApexNew-Book'" font-size="21.2348">Fork</text>
<path fill="none" stroke="#221F1F" stroke-width="4" stroke-miterlimit="10" d="M61,243.6v132.7c0,11.6,9.5,21.1,21.1,21.1h105"/>
<g id="fork_1_">
	<g>
		<text transform="matrix(1 0 0 1 229.0835 419.8291)" font-family="'github-octicons'" font-size="63.2911"></text>
	</g>
	<path opacity="0.4" enable-background="new    " d="M293,347.2h-82.9c-7.8,0-14.3,6.3-14.3,14.3v77.2c0,7.8,6.3,14.3,14.3,14.3H293
		c7.8,0,14.3-6.3,14.3-14.3v-77.2C307.2,353.5,300.8,347.2,293,347.2z M305.5,361.3v77.2c0,7-5.7,12.7-12.7,12.7h-82.7
		c-7,0-12.7-5.7-12.7-12.7v-77.2c0-7,5.7-12.7,12.7-12.7H293C299.8,348.8,305.5,354.3,305.5,361.3z"/>
	<g>
		<path opacity="0.4" enable-background="new    " d="M345.4,429H292c-5.1,0-9.1,4-9.1,9.1v49.8c0,5.1,4,9.1,9.1,9.1h53.4
			c5.1,0,9.1-4.2,9.1-9.1v-49.8C354.6,433.2,350.4,429,345.4,429z M353.6,438.3v49.8c0,4.4-3.6,8-8,8h-53.4c-4.4,0-8-3.6-8-8v-49.8
			c0-4.4,3.6-8,8-8h53.4C350,430.1,353.6,433.9,353.6,438.3z"/>
		<path fill="#FFFFFF" d="M353.6,438.3v49.8c0,4.4-3.6,8-8,8h-53.4c-4.4,0-8-3.6-8-8v-49.8c0-4.4,3.6-8,8-8h53.4
			C350,430.1,353.6,433.9,353.6,438.3z"/>
		<text transform="matrix(1 0 0 1 308.5767 474.6197)" font-family="'github-octicons'" font-size="40.75"></text>
	</g>
</g>
<text transform="matrix(1.0483 0 0 1 313.2979 312.6137)" fill="#231F20" font-family="'ApexNew-Book'" font-size="21.2348">Pull Request</text>
<path fill="none" stroke="#221F1F" stroke-width="4" stroke-miterlimit="10" d="M306.5,397.4h116.9c11.6,0,21.1-9.5,21.1-21.1v-124"
	/>
<text transform="matrix(1 0 0 1 423.2485 207.9327)" font-family="'github-octicons'" font-size="63.2911"></text>
<path opacity="0.4" enable-background="new    " d="M480.6,137.2h-82.9c-7.8,0-14.3,6.3-14.3,14.3v77.2c0,7.8,6.3,14.3,14.3,14.3
	h82.9c7.8,0,14.3-6.3,14.3-14.3v-77.4C494.7,143.6,488.4,137.2,480.6,137.2z M493,151.4v77.2c0,7-5.7,12.7-12.7,12.7h-82.9
	c-7,0-12.7-5.7-12.7-12.7v-77.2c0-7,5.7-12.7,12.7-12.7h82.9C487.6,138.9,493,144.4,493,151.4z"/>
<text transform="matrix(1.0483 0 0 1 222.2241 214.9164)" fill="#231F20" font-family="'ApexNew-Book'" font-size="21.2348">merge</text>
<path fill="#221F1F" d="M126.2,191.2L141,179c0.9-0.9,0.9-2.2,0-3c-1-0.8-2.5-0.9-3.4,0c-0.1,0.1-0.2,0.3-0.3,0.4l-20.7,16.9
	l21.1,17.1c0.9,0.9,2.4,0.9,3.4,0c0.9-0.9,1-2.2,0-3c-0.3-0.2-0.6-0.4-0.9-0.5l-14.1-11.5V191.2z"/>
<path fill="#221F1F" d="M186.8,399.4L172,411.6c-0.9,0.9-0.9,2.2,0,3c1,0.8,2.5,0.9,3.4,0c0.1-0.1,0.2-0.3,0.3-0.4l20.7-16.9
	l-21.1-17.1c-0.9-0.9-2.4-0.9-3.4,0c-0.9,0.9-1,2.2,0,3c0.3,0.2,0.6,0.4,0.9,0.5l14.1,11.5V399.4z"/>
<path fill="#221F1F" d="M446.5,253.2l12.2,14.8c0.9,0.9,2.2,0.9,3,0c0.8-1,0.9-2.5,0-3.4c-0.1-0.1-0.3-0.2-0.4-0.3l-16.9-20.7
	l-17.1,21.1c-0.9,0.9-0.9,2.4,0,3.4c0.9,0.9,2.2,1,3,0c0.2-0.3,0.4-0.6,0.5-0.9l11.5-14.1H446.5z"/>
<path fill="none" stroke="#221F1F" stroke-width="4" stroke-miterlimit="10" d="M119.2,193.2h265.5"/>
</svg>
