<?xml version="1.0" encoding="utf-8"?>
<!-- Generator: Adobe Illustrator 17.0.2, SVG Export Plug-In . SVG Version: 6.00 Build 0)  -->
<!DOCTYPE svg PUBLIC "-//W3C//DTD SVG 1.1//EN" "http://www.w3.org/Graphics/SVG/1.1/DTD/svg11.dtd">
<svg version="1.1" id="Layer_1" xmlns="http://www.w3.org/2000/svg" xmlns:xlink="http://www.w3.org/1999/xlink" x="0px" y="0px"
	 width="237.036px" height="183.149px" viewBox="0 17.183 237.036 183.149" enable-background="new 0 17.183 237.036 183.149"
	 xml:space="preserve">
<g id="boundary">
	<rect y="17.183" fill="none" stroke="#F40000" stroke-miterlimit="10" width="237.036" height="211.149"/>
</g>
<g id="base">
	<g id="repo">
		<text transform="matrix(1 0 0 1 17.5866 52.1789)" font-family="'github-octicons'" font-size="30"></text>
		<path opacity="0.4" enable-background="new    " d="M48.486,17.183h-39.3c-3.724,0-6.753,3.029-6.753,6.753v36.648
			c0,3.724,3.029,6.753,6.753,6.753h39.3c3.724,0,6.753-3.03,6.753-6.753V23.936C55.238,20.212,52.209,17.183,48.486,17.183z
			 M54.457,23.936v36.648c0,3.292-2.678,5.97-5.97,5.97h-39.3c-3.292,0-5.97-2.678-5.97-5.97V23.936c0-3.292,2.678-5.97,5.97-5.97
			h39.3C51.778,17.966,54.457,20.644,54.457,23.936z"/>
	</g>
</g>
<g id="step-1_1_">
	<text transform="matrix(1.0483 0 0 1 35.2505 100.3256)" fill="#231F20" font-family="'ApexNew-Book'" font-size="10.0653">Fork</text>
	<path fill="#FFFFFF" d="M81.438,150.14c-0.564,0-1.127-0.161-1.542-0.478l-1.916-1.465c-0.381-0.291-0.584-0.679-0.563-1.076
		c0.02-0.398,0.262-0.774,0.671-1.045l4.71-3.116h-36.19c-1.163,0-2.107-0.672-2.107-1.5v-2c0-0.828,0.943-1.5,2.107-1.5h36.184
		l-4.704-3.113c-0.409-0.271-0.651-0.647-0.671-1.045c-0.02-0.398,0.183-0.785,0.563-1.076l1.916-1.465
		c0.793-0.606,2.125-0.64,2.977-0.076l12.354,8.18c0.429,0.284,0.672,0.682,0.672,1.099c0,0.417-0.244,0.815-0.672,1.098
		l-12.354,8.177C82.466,150.007,81.951,150.14,81.438,150.14z M89.726,140.457c0.15,0.119,0.274,0.255,0.366,0.406l0.605-0.401
		l-0.613-0.406C89.994,140.206,89.872,140.34,89.726,140.457z"/>
	<polygon fill="#221F1F" points="81.437,132.283 79.522,133.748 88.152,139.46 46.607,139.46 46.607,141.46 88.159,141.46 
		79.522,147.175 81.437,148.64 93.791,140.463 	"/>
	<path fill="#221F1F" d="M48.012,140.46c0,0.552-0.629,1-1.404,1c-0.775,0-1.404-0.448-1.404-1c0-0.552,0.629-1,1.404-1
		C47.383,139.46,48.012,139.908,48.012,140.46z"/>
	<path fill="#221F1F" d="M81.437,132.283c0.549,0.391,0.549,1.024,0,1.414c-0.549,0.39-1.438,0.391-1.986,0
		c-0.548-0.391-0.549-1.024,0-1.414C79.999,131.892,80.888,131.892,81.437,132.283z"/>
	<path fill="#221F1F" d="M81.508,147.175c0.549,0.391,0.549,1.024,0,1.414c-0.549,0.391-1.438,0.391-1.986,0
		c-0.549-0.391-0.549-1.024,0-1.414C80.071,146.785,80.958,146.785,81.508,147.175z"/>
	<path fill="none" stroke="#221F1F" stroke-width="2" stroke-miterlimit="10" d="M28.861,67.554v62.908c0,5.5,4.5,10,10,10H82.43"/>
	<g id="fork_1_">
		<g>
			<text transform="matrix(1 0 0 1 108.5852 151.1458)" font-family="'github-octicons'" font-size="30"></text>
		</g>
		<path opacity="0.4" enable-background="new    " d="M138.852,116.669h-39.3c-3.724,0-6.753,3.029-6.753,6.753v36.648
			c0,3.724,3.029,6.753,6.753,6.753h39.3c3.724,0,6.753-3.03,6.753-6.753v-36.648C145.604,119.698,142.574,116.669,138.852,116.669z
			 M144.822,123.421v36.648c0,3.292-2.678,5.97-5.97,5.97h-39.3c-3.292,0-5.97-2.678-5.97-5.97v-36.648
			c0-3.292,2.678-5.97,5.97-5.97h39.3C142.144,117.452,144.822,120.13,144.822,123.421z"/>
		<g>
			<path opacity="0.4" enable-background="new    " d="M163.746,155.531h-25.304c-2.397,0-4.348,1.95-4.348,4.348v23.596
				c0,2.397,1.95,4.348,4.348,4.348h25.303c2.397,0,4.348-1.951,4.348-4.348v-23.596
				C168.093,157.481,166.142,155.531,163.746,155.531z M167.59,159.879v23.596c0,2.12-1.724,3.844-3.844,3.844h-25.304
				c-2.12,0-3.844-1.724-3.844-3.844v-23.596c0-2.119,1.724-3.844,3.844-3.844h25.303C165.865,156.035,167.59,157.76,167.59,159.879
				z"/>
			<path fill="#FFFFFF" d="M167.59,159.879v23.596c0,2.12-1.724,3.844-3.844,3.844h-25.304c-2.12,0-3.844-1.724-3.844-3.844v-23.596
				c0-2.119,1.724-3.844,3.844-3.844h25.303C165.865,156.035,167.59,157.76,167.59,159.879z"/>
			<text transform="matrix(1 0 0 1 146.2653 177.1165)" font-family="'github-octicons'" font-size="19.3155"></text>
		</g>
	</g>
</g>
<g id="step-2">
	<text transform="matrix(1.0483 0 0 1 148.5033 100.3256)" fill="#231F20" font-family="'ApexNew-Book'" font-size="10.0653">Pull Request</text>
	<path fill="#FFFFFF" d="M220.298,80.287c0,0.564-0.161,1.127-0.478,1.542l-1.465,1.916c-0.291,0.381-0.679,0.584-1.076,0.563
		c-0.398-0.02-0.774-0.262-1.045-0.671l-3.116-4.71v43.786c0,1.163-0.672,2.107-1.5,2.107h-2c-0.828,0-1.5-0.943-1.5-2.107v-43.78
		l-3.113,4.704c-0.271,0.409-0.647,0.651-1.045,0.671c-0.398,0.02-0.785-0.183-1.076-0.563l-1.465-1.916
		c-0.606-0.793-0.64-2.125-0.076-2.977l8.18-12.354c0.284-0.429,0.682-0.672,1.099-0.672c0.417,0,0.815,0.244,1.098,0.672
		l8.177,12.354C220.165,79.259,220.298,79.773,220.298,80.287z M210.615,71.999c0.119-0.15,0.255-0.274,0.406-0.366l-0.401-0.605
		l-0.406,0.613C210.364,71.731,210.498,71.853,210.615,71.999z"/>
	<polygon fill="#221F1F" points="202.441,80.287 203.906,82.203 209.618,73.573 209.618,122.714 211.618,122.714 211.618,73.566 
		217.333,82.203 218.798,80.287 210.621,67.934 	"/>
	<path fill="#221F1F" d="M210.618,121.309c0.552,0,1,0.629,1,1.404s-0.448,1.404-1,1.404c-0.552,0-1-0.629-1-1.404
		S210.066,121.309,210.618,121.309z"/>
	<path fill="#221F1F" d="M202.441,80.287c0.391-0.549,1.024-0.549,1.414,0c0.39,0.549,0.391,1.438,0,1.986s-1.024,0.549-1.414,0
		C202.05,81.726,202.05,80.837,202.441,80.287z"/>
	<path fill="#221F1F" d="M217.333,80.217c0.391-0.549,1.024-0.549,1.414,0c0.391,0.549,0.391,1.438,0,1.986
		c-0.391,0.549-1.024,0.549-1.414,0C216.943,81.654,216.943,80.766,217.333,80.217z"/>
	<path fill="none" stroke="#221F1F" stroke-width="2" stroke-miterlimit="10" d="M145.265,140.46h55.354c5.5,0,10-4.5,10-10V79.295"
		/>
	<g id="owner">
		<text transform="matrix(1 0 0 1 200.6197 50.707)" font-family="'github-octicons'" font-size="30"></text>
		<path opacity="0.4" enable-background="new    " d="M227.77,17.183h-39.3c-3.724,0-6.753,3.029-6.753,6.753v36.648
			c0,3.724,3.029,6.753,6.753,6.753h39.3c3.724,0,6.753-3.03,6.753-6.753V23.936C234.522,20.212,231.493,17.183,227.77,17.183z
			 M233.74,23.936v36.648c0,3.292-2.678,5.97-5.97,5.97h-39.3c-3.292,0-5.97-2.678-5.97-5.97V23.936c0-3.292,2.678-5.97,5.97-5.97
			h39.3C231.062,17.966,233.74,20.644,233.74,23.936z"/>
	</g>
</g>
<g id="step-3">
	<text transform="matrix(1.0483 0 0 1 105.334 54.0172)" fill="#231F20" font-family="'ApexNew-Book'" font-size="10.0653">merge</text>
	<g>
		<g id="XMLID_3_">
			<g>
				<g>
					<path fill="#FFFFFF" d="M67.668,30.707c0.565,0,1.127,0.161,1.542,0.478l1.916,1.465c0.381,0.291,0.584,0.679,0.563,1.076
						c-0.02,0.398-0.262,0.774-0.671,1.045l-4.71,3.116H179.61c1.164,0,2.107,0.672,2.107,1.5v2c0,0.828-0.943,1.5-2.107,1.5H66.315
						l4.704,3.113c0.409,0.271,0.651,0.647,0.671,1.045s-0.183,0.785-0.563,1.076l-1.916,1.465c-0.793,0.606-2.125,0.64-2.977,0.076
						l-12.354-8.18c-0.429-0.284-0.672-0.682-0.672-1.099c0-0.417,0.244-0.815,0.672-1.098l12.354-8.177
						C66.64,30.84,67.155,30.707,67.668,30.707z M59.38,40.39c-0.15-0.119-0.274-0.255-0.366-0.406l-0.605,0.401l0.613,0.406
						C59.112,40.642,59.233,40.507,59.38,40.39z"/>
				</g>
				<polygon fill="#221F1F" points="67.669,48.564 69.584,47.099 60.954,41.387 181.717,41.387 181.717,39.387 60.947,39.387 
					69.584,33.672 67.669,32.207 55.315,40.384 				"/>
			</g>
			<path fill="#221F1F" d="M67.669,48.564c-0.549-0.391-0.549-1.024,0-1.414c0.549-0.39,1.438-0.391,1.986,0
				c0.548,0.391,0.549,1.024,0,1.414C69.107,48.955,68.218,48.955,67.669,48.564z"/>
			<path fill="#221F1F" d="M67.598,33.672c-0.549-0.391-0.549-1.024,0-1.414c0.549-0.391,1.438-0.391,1.986,0
				c0.549,0.391,0.549,1.024,0,1.414C69.035,34.062,68.148,34.062,67.598,33.672z"/>
		</g>
	</g>
</g>
</svg>
