<?xml version="1.0" encoding="utf-8"?>
<!-- Generator: Adobe Illustrator 17.1.0, SVG Export Plug-In . SVG Version: 6.00 Build 0)  -->
<!DOCTYPE svg PUBLIC "-//W3C//DTD SVG 1.1//EN" "http://www.w3.org/Graphics/SVG/1.1/DTD/svg11.dtd">
<svg version="1.1" id="Layer_1" xmlns="http://www.w3.org/2000/svg" xmlns:xlink="http://www.w3.org/1999/xlink" x="0px" y="0px"
	 viewBox="127 167 201 112" enable-background="new 127 167 201 112" xml:space="preserve">
<path d="M248.9,214.1c1,1.3,2,3,2,5.6c0,6.1-4.8,9.7-11.7,9.7c-1.8,0-3.3-0.2-4.4-0.5l-1.8,2.9l5.4,0.3c9.5,0.6,15.1,0.9,15.1,8.2
	c0,6.3-5.6,9.9-15.1,9.9c-10,0-13.8-2.5-13.8-6.9c0-2.5,1.1-3.8,3-5.6c-1.8-0.8-2.4-2.1-2.4-3.6c0-1.2,0.6-2.3,1.6-3.3
	c1-1.1,2.1-2.1,3.4-3.3c-2.7-1.3-4.7-4.2-4.7-8.3c0-6.3,4.2-10.7,12.6-10.7c2.3,0,3.8,0.2,5.1,0.6h10.7v4.7L248.9,214.1z
	 M232.7,239.1c-0.7,0.9-1.5,1.8-1.5,2.9c0,2.2,2.8,2.8,6.6,2.8c3.2,0,7.5-0.3,7.5-3.2c0-1.8-2.1-1.9-4.7-2L232.7,239.1z
	 M238.8,213.9c-3,0-5.3,1.5-5.3,5.1c0,2.7,1.5,4.5,5.1,4.5c3.1,0,5.2-1.8,5.2-4.7C243.8,215.6,241.9,213.9,238.8,213.9z"/>
<path d="M256.6,237.1v-4.3l2.8-0.4c0.8-0.1,0.9-0.3,0.9-1.1v-16.2c0-0.6-0.2-1-0.7-1.1l-3-1.1l0.6-4.4h11.4v22.8
	c0,0.9,0.1,1,0.9,1.1l2.8,0.4v4.4L256.6,237.1L256.6,237.1z M263.7,204.1c-3.2,0-4.9-1.8-4.9-4.9c0-3.2,1.8-4.9,4.9-4.9
	c3.2,0,5,1.7,5,4.9S266.9,204.1,263.7,204.1z"/>
<path d="M294,235c-2.3,1.1-5.8,2.2-9,2.2c-6.6,0-9-2.7-9-8.8V214c0-0.3,0-0.6-0.4-0.6h-3.9v-4.9c4.9-0.6,6.8-3,7.4-9h5.2v7.8
	c0,0.4,0,0.6,0.4,0.6h7.8v5.5h-8.2v13.1c0,3.2,0.8,4.5,3.7,4.5c1.5,0,3.2-0.4,4.4-0.9L294,235z"/>
<g>
	<path d="M212.6,220.5l-25.1-25.1c-1.5-1.5-3.8-1.5-5.2,0l-5.2,5.2l6.6,6.6c1.5-0.5,3.3-0.2,4.5,1.1c1.3,1.3,1.6,3,1.1,4.5l6.4,6.4
		c1.5-0.5,3.3-0.2,4.5,1.1c1.7,1.7,1.7,4.5,0,6.2c-1.7,1.7-4.5,1.7-6.2,0c-1.3-1.3-1.6-3.2-0.9-4.8l-5.9-5.9v15.7
		c0.4,0.2,0.8,0.5,1.1,0.8c1.7,1.7,1.7,4.5,0,6.2c-1.7,1.7-4.5,1.7-6.2,0c-1.7-1.7-1.7-4.5,0-6.2c0.4-0.4,0.9-0.8,1.5-0.9v-15.8
		c-0.5-0.2-1-0.5-1.5-0.9c-1.3-1.3-1.6-3.2-0.9-4.8l-6.5-6.5l-17.2,17.2c-1.5,1.5-1.5,3.8,0,5.2l25.1,25.1c1.5,1.5,3.8,1.5,5.2,0
		l25-25C214,224.3,214,222,212.6,220.5z"/>
</g>
</svg>
