<?xml version="1.0" encoding="utf-8"?>
<!-- Generator: Adobe Illustrator 17.1.0, SVG Export Plug-In . SVG Version: 6.00 Build 0)  -->
<!DOCTYPE svg PUBLIC "-//W3C//DTD SVG 1.1//EN" "http://www.w3.org/Graphics/SVG/1.1/DTD/svg11.dtd">
<svg version="1.1" id="Layer_1" xmlns="http://www.w3.org/2000/svg" xmlns:xlink="http://www.w3.org/1999/xlink" x="0px" y="0px"
	 viewBox="0 250 500 250" enable-background="new 0 250 500 250" xml:space="preserve">
<symbol  id="Simple_Arrow" viewBox="-29.5 -12 59 24">
	<g>
		
			<polygon fill="none" stroke="#FFFFFF" stroke-width="3" stroke-linecap="round" stroke-linejoin="round" stroke-miterlimit="10" points="
			19.3,7.7 17.9,6.2 24,0.5 -28,0.5 -28,-1.5 24,-1.5 17.9,-7.2 19.3,-8.7 28,-0.5 		"/>
		<polygon fill="#221F1F" points="19.3,7.7 17.9,6.2 24,0.5 -28,0.5 -28,-1.5 24,-1.5 17.9,-7.2 19.3,-8.7 28,-0.5 		"/>
	</g>
	<path fill="#221F1F" d="M-27-0.5c0-0.6-0.4-1-1-1s-1,0.4-1,1s0.4,1,1,1C-27.5,0.5-27,0.1-27-0.5z"/>
	<path fill="#221F1F" d="M19.3,7.7c0.4-0.4,0.4-1,0-1.4s-1-0.4-1.4,0s-0.4,1,0,1.4C18.2,8.1,18.9,8.1,19.3,7.7z"/>
	<path fill="#221F1F" d="M19.3-7.2c0.4-0.4,0.4-1,0-1.4s-1-0.4-1.4,0s-0.4,1,0,1.4C18.3-6.8,18.9-6.8,19.3-7.2z"/>
	<line display="none" fill="none" stroke="#ED358C" stroke-miterlimit="10" x1="-18.5" y1="12" x2="-18.5" y2="-12"/>
	<line display="none" fill="none" stroke="#ED358C" stroke-miterlimit="10" x1="10.2" y1="12" x2="10.2" y2="-12"/>
</symbol>
<g id="base">
	<g>
		<g id="XMLID_6_">
			<g id="Template_11_">
				<line fill="none" stroke="#E6E6E6" stroke-miterlimit="10" x1="95.6" y1="432.6" x2="0.3" y2="432.6"/>
			</g>
			<g id="border_23_">
				<path fill="#414141" d="M85.7,390.7c4.8,0,8.7,3.9,8.7,8.7v76.2c0,4.8-3.9,8.7-8.7,8.7H9.5c-4.8,0-8.7-3.9-8.7-8.7v-76.2
					c0-4.8,3.9-8.7,8.7-8.7H85.7 M85.7,389.9H9.5c-5.2,0-9.5,4.3-9.5,9.5v76.2c0,5.2,4.3,9.5,9.5,9.5h76.2c5.2,0,9.5-4.3,9.5-9.5
					v-76.2C95.3,394.2,91,389.9,85.7,389.9L85.7,389.9z"/>
			</g>
		</g>
		<g>
			<text transform="matrix(1 0 0 1 28.3462 420.292)" fill="#221F1F" font-family="'HelveticaNeue-Light'" font-size="22.0293">77B</text>
			<g>
				<text transform="matrix(1 0 0 1 16.4785 450.6396)" fill="#221F1F" font-family="'ApexNew-Book'" font-size="10.3141">home.html</text>
				<circle fill="#73BD46" stroke="#FFFFFF" stroke-width="2" stroke-miterlimit="10" cx="10.1" cy="447.3" r="3"/>
			</g>
			<g display="none">
				
					<text transform="matrix(1 0 0 1 16.4785 465.9218)" display="inline" fill="#221F1F" font-family="'ApexNew-Book'" font-size="10.3141">placeholder</text>
				
					<circle display="inline" fill="#B93226" stroke="#FFFFFF" stroke-width="2" stroke-miterlimit="10" cx="10.1" cy="462.6" r="3"/>
			</g>
		</g>
	</g>
	<g id="XMLID_4_">
		<g id="Template_10_">
			<line fill="none" stroke="#E6E6E6" stroke-miterlimit="10" x1="95.6" y1="432.6" x2="0.3" y2="432.6"/>
		</g>
		<g id="border_21_">
			<path fill="#414141" d="M85.7,390.7c4.8,0,8.7,3.9,8.7,8.7v76.2c0,4.8-3.9,8.7-8.7,8.7H9.5c-4.8,0-8.7-3.9-8.7-8.7v-76.2
				c0-4.8,3.9-8.7,8.7-8.7H85.7 M85.7,389.9H9.5c-5.2,0-9.5,4.3-9.5,9.5v76.2c0,5.2,4.3,9.5,9.5,9.5h76.2c5.2,0,9.5-4.3,9.5-9.5
				v-76.2C95.3,394.2,91,389.9,85.7,389.9L85.7,389.9z"/>
		</g>
	</g>
	<g>
		<text transform="matrix(1 0 0 1 28.3462 420.292)" fill="#221F1F" font-family="'HelveticaNeue-Light'" font-size="22.0293">77B</text>
		<g>
			<text transform="matrix(1 0 0 1 16.4785 450.6396)" fill="#221F1F" font-family="'ApexNew-Book'" font-size="10.3141">home.html</text>
			<circle fill="#73BD46" stroke="#FFFFFF" stroke-width="2" stroke-miterlimit="10" cx="10.1" cy="447.3" r="3"/>
		</g>
		<g display="none">
			
				<text transform="matrix(1 0 0 1 16.4785 465.9218)" display="inline" fill="#221F1F" font-family="'ApexNew-Book'" font-size="10.3141">placeholder</text>
			<circle display="inline" fill="#B93226" stroke="#FFFFFF" stroke-width="2" stroke-miterlimit="10" cx="10.1" cy="462.6" r="3"/>
		</g>
	</g>
</g>
<g id="step-1-in-out">
	<g>
		<g>
			<g id="Template_9_">
				<line fill="none" stroke="#E6E6E6" stroke-miterlimit="10" x1="219.4" y1="311.8" x2="124.2" y2="311.8"/>
			</g>
			<g id="border_19_">
				<path fill="#414141" d="M209.6,270c4.8,0,8.7,3.9,8.7,8.7v76.2c0,4.8-3.9,8.7-8.7,8.7h-76.2c-4.8,0-8.7-3.9-8.7-8.7v-76.2
					c0-4.8,3.9-8.7,8.7-8.7H209.6 M209.6,269.2h-76.2c-5.2,0-9.5,4.3-9.5,9.5v76.2c0,5.2,4.3,9.5,9.5,9.5h76.2
					c5.2,0,9.5-4.3,9.5-9.5v-76.2C219.1,273.5,214.8,269.2,209.6,269.2L209.6,269.2z"/>
			</g>
		</g>
		<g>
			<text transform="matrix(1 0 0 1 152.6123 299.5234)" fill="#221F1F" font-family="'HelveticaNeue-Light'" font-size="22.0293">9A1</text>
			<g>
				<text transform="matrix(1 0 0 1 140.3369 329.8711)" fill="#221F1F" font-family="'ApexNew-Book'" font-size="10.3141">script/setup</text>
				<circle fill="#73BD46" stroke="#FFFFFF" stroke-width="2" stroke-miterlimit="10" cx="133.9" cy="326.5" r="3"/>
			</g>
			<g>
				<text transform="matrix(1 0 0 1 140.3369 345.1538)" fill="#221F1F" font-family="'ApexNew-Book'" font-size="10.3141">README.md</text>
				<circle fill="#73BD46" stroke="#FFFFFF" stroke-width="2" stroke-miterlimit="10" cx="133.9" cy="341.8" r="3"/>
			</g>
		</g>
	</g>
	<g id="XMLID_1_">
		<g>
			
				<polygon fill="none" stroke="#FFFFFF" stroke-width="3" stroke-linecap="round" stroke-linejoin="round" stroke-miterlimit="10" points="
				116.7,362.4 116.8,364 123.5,363.7 94.2,393 95.3,394.1 124.6,364.9 124.3,371.5 125.9,371.6 126.2,362.1 			"/>
			<polygon fill="#221F1F" points="116.7,362.4 116.8,364 123.5,363.7 94.2,393 95.3,394.1 124.6,364.9 124.3,371.5 125.9,371.6 
				126.2,362.1 			"/>
		</g>
		<circle fill="#221F1F" cx="94.7" cy="393.5" r="0.8"/>
		<circle fill="#221F1F" cx="116.7" cy="363.2" r="0.8"/>
		<circle fill="#221F1F" cx="125.1" cy="371.5" r="0.8"/>
		<line display="none" fill="none" stroke="#ED358C" stroke-miterlimit="10" x1="93" y1="381.2" x2="106.5" y2="394.6"/>
		<line display="none" fill="none" stroke="#ED358C" stroke-miterlimit="10" x1="109.2" y1="365" x2="122.7" y2="378.5"/>
	</g>
	<g>
		<g>
			<g>
				<g id="Template_8_">
					<line fill="none" stroke="#E6E6E6" stroke-miterlimit="10" x1="337.5" y1="311.3" x2="242.2" y2="311.3"/>
				</g>
				<g id="border_17_">
					<path fill="#414141" d="M327.6,269.3c4.8,0,8.7,3.9,8.7,8.7v76.2c0,4.8-3.9,8.7-8.7,8.7h-76.2c-4.8,0-8.7-3.9-8.7-8.7V278
						c0-4.8,3.9-8.7,8.7-8.7H327.6 M327.6,268.6h-76.2c-5.2,0-9.5,4.3-9.5,9.5v76.2c0,5.2,4.3,9.5,9.5,9.5h76.2
						c5.2,0,9.5-4.3,9.5-9.5v-76.2C337.2,272.8,332.9,268.6,327.6,268.6L327.6,268.6z"/>
				</g>
			</g>
			<g>
				<text transform="matrix(1 0 0 1 268.4025 298.9336)" fill="#221F1F" font-family="'HelveticaNeue-Light'" font-size="22.0293">8DC</text>
				<g>
					<text transform="matrix(1 0 0 1 258.3624 329.2812)" fill="#221F1F" font-family="'ApexNew-Book'" font-size="10.3141">script/update</text>
					<circle fill="#73BD46" stroke="#FFFFFF" stroke-width="2" stroke-miterlimit="10" cx="252" cy="326" r="3"/>
				</g>
				<g display="none">
					
						<text transform="matrix(1 0 0 1 258.3624 344.564)" display="inline" fill="#221F1F" font-family="'ApexNew-Book'" font-size="10.3141">team.jpg</text>
					
						<circle display="inline" fill="#73BD46" stroke="#FFFFFF" stroke-width="2" stroke-miterlimit="10" cx="252" cy="341.2" r="3"/>
				</g>
			</g>
		</g>
		
			<use xlink:href="#Simple_Arrow"  width="59" height="24" x="-29.5" y="-12" transform="matrix(0.7939 0 0 -0.7939 233.7891 291.2545)" overflow="visible"/>
		<g>
			<g id="Template_6_">
				<line fill="none" stroke="#E6E6E6" stroke-miterlimit="10" x1="337.5" y1="311.3" x2="242.2" y2="311.3"/>
			</g>
			<g id="border_15_">
				<path fill="#414141" d="M327.6,269.3c4.8,0,8.7,3.9,8.7,8.7v76.2c0,4.8-3.9,8.7-8.7,8.7h-76.2c-4.8,0-8.7-3.9-8.7-8.7V278
					c0-4.8,3.9-8.7,8.7-8.7H327.6 M327.6,268.6h-76.2c-5.2,0-9.5,4.3-9.5,9.5v76.2c0,5.2,4.3,9.5,9.5,9.5h76.2
					c5.2,0,9.5-4.3,9.5-9.5v-76.2C337.2,272.8,332.9,268.6,327.6,268.6L327.6,268.6z"/>
			</g>
		</g>
		<text transform="matrix(1 0 0 1 268.4025 298.9336)" fill="#221F1F" font-family="'HelveticaNeue-Light'" font-size="22.0293">8DC</text>
		<g>
			<text transform="matrix(1 0 0 1 258.3624 329.2812)" fill="#221F1F" font-family="'ApexNew-Book'" font-size="10.3141">script/update</text>
			<circle fill="#73BD46" stroke="#FFFFFF" stroke-width="2" stroke-miterlimit="10" cx="252" cy="326" r="3"/>
		</g>
		<g>
			<g>
				
					<polygon fill="none" stroke="#FFFFFF" stroke-width="3" stroke-linecap="round" stroke-linejoin="round" stroke-miterlimit="10" points="
					249,285.1 247.9,286.3 252.9,290.9 211.5,290.9 211.5,292.4 252.9,292.4 247.9,297 249,298.2 256,291.7 				"/>
				<polygon fill="#221F1F" points="249,285.1 247.9,286.3 252.9,290.9 211.5,290.9 211.5,292.4 252.9,292.4 247.9,297 249,298.2 
					256,291.7 				"/>
			</g>
			<circle fill="#221F1F" cx="211.5" cy="291.7" r="0.8"/>
			<circle fill="#221F1F" cx="248.5" cy="285.7" r="0.8"/>
			<circle fill="#221F1F" cx="248.5" cy="297.5" r="0.8"/>
			<line display="none" fill="none" stroke="#ED358C" stroke-miterlimit="10" x1="219" y1="281.7" x2="219" y2="300.8"/>
			<line display="none" fill="none" stroke="#ED358C" stroke-miterlimit="10" x1="241.9" y1="281.7" x2="241.9" y2="300.8"/>
		</g>
	</g>
	<g>
		<g>
			<g>
				<g id="Template_5_">
					<line fill="none" stroke="#E6E6E6" stroke-miterlimit="10" x1="455.1" y1="311.1" x2="359.8" y2="311.1"/>
				</g>
				<g id="border_13_">
					<path fill="#414141" d="M445.2,269.3c4.8,0,8.7,3.9,8.7,8.7v76.2c0,4.8-3.9,8.7-8.7,8.7H369c-4.8,0-8.7-3.9-8.7-8.7V278
						c0-4.8,3.9-8.7,8.7-8.7H445.2 M445.2,268.5H369c-5.2,0-9.5,4.3-9.5,9.5v76.2c0,5.2,4.3,9.5,9.5,9.5h76.2c5.2,0,9.5-4.3,9.5-9.5
						V278C454.7,272.8,450.5,268.5,445.2,268.5L445.2,268.5z"/>
				</g>
			</g>
			<g>
				<text transform="matrix(1 0 0 1 389.2578 298.8316)" fill="#221F1F" font-family="'HelveticaNeue-Light'" font-size="22.0293">65F</text>
				<g>
					<text transform="matrix(1 0 0 1 375.9579 329.1792)" fill="#221F1F" font-family="'ApexNew-Book'" font-size="10.3141">script/server</text>
					<circle fill="#73BD46" stroke="#FFFFFF" stroke-width="2" stroke-miterlimit="10" cx="369.6" cy="325.9" r="3"/>
				</g>
				<g display="none">
					
						<text transform="matrix(1 0 0 1 375.9579 344.4619)" display="inline" fill="#221F1F" font-family="'ApexNew-Book'" font-size="10.3141">about.html</text>
					
						<circle display="inline" fill="#73BD46" stroke="#FFFFFF" stroke-width="2" stroke-miterlimit="10" cx="369.6" cy="341.1" r="3"/>
				</g>
			</g>
		</g>
		
			<use xlink:href="#Simple_Arrow"  width="59" height="24" x="-29.5" y="-12" transform="matrix(0.7939 0 0 -0.7939 351.7439 291.2545)" overflow="visible"/>
		<g>
			<text transform="matrix(1 0 0 1 389.2578 298.8316)" fill="#221F1F" font-family="'HelveticaNeue-Light'" font-size="22.0293">65F</text>
			<g>
				<text transform="matrix(1 0 0 1 375.9579 329.1792)" fill="#221F1F" font-family="'ApexNew-Book'" font-size="10.3141">script/server</text>
				<circle fill="#73BD46" stroke="#FFFFFF" stroke-width="2" stroke-miterlimit="10" cx="369.6" cy="325.9" r="3"/>
			</g>
			<g display="none">
				
					<text transform="matrix(1 0 0 1 375.9579 344.4619)" display="inline" fill="#221F1F" font-family="'ApexNew-Book'" font-size="10.3141">about.html</text>
				
					<circle display="inline" fill="#73BD46" stroke="#FFFFFF" stroke-width="2" stroke-miterlimit="10" cx="369.6" cy="341.1" r="3"/>
			</g>
		</g>
		<g>
			<g>
				
					<polygon fill="none" stroke="#FFFFFF" stroke-width="3" stroke-linecap="round" stroke-linejoin="round" stroke-miterlimit="10" points="
					367,285.1 365.9,286.3 370.8,290.9 329.5,290.9 329.5,292.4 370.8,292.4 365.9,297 367,298.2 374,291.7 				"/>
				<polygon fill="#221F1F" points="367,285.1 365.9,286.3 370.8,290.9 329.5,290.9 329.5,292.4 370.8,292.4 365.9,297 367,298.2 
					374,291.7 				"/>
			</g>
			<circle fill="#221F1F" cx="329.5" cy="291.7" r="0.8"/>
			<circle fill="#221F1F" cx="366.5" cy="285.7" r="0.8"/>
			<circle fill="#221F1F" cx="366.5" cy="297.5" r="0.8"/>
			<line display="none" fill="none" stroke="#ED358C" stroke-miterlimit="10" x1="337" y1="281.7" x2="337" y2="300.8"/>
			<line display="none" fill="none" stroke="#ED358C" stroke-miterlimit="10" x1="359.8" y1="281.7" x2="359.8" y2="300.8"/>
		</g>
	</g>
	<text transform="matrix(1.0483 0 0 1 460.4922 295.9521)" fill="#BABCBE" font-family="'ApexNew-Book'" font-size="11.1146">feature</text>
	<text transform="matrix(1.0483 0 0 1 103.2358 415.8398)" fill="#BABCBE" font-family="'ApexNew-Book'" font-size="11.1146">master</text>
</g>
<g id="step-2" display="none">
	<g display="inline">
		
			<use xlink:href="#Simple_Arrow"  width="59" height="24" x="-29.5" y="-12" transform="matrix(0.7939 0 0 -0.7939 110.0979 412.3689)" overflow="visible"/>
		<g>
			<g>
				<g id="Template_4_">
					<line fill="none" stroke="#E6E6E6" stroke-miterlimit="10" x1="212.9" y1="433" x2="117.7" y2="433"/>
				</g>
				<g id="border_11_">
					<path fill="#414141" d="M203.2,391.1c4.8,0,8.7,3.9,8.7,8.7V476c0,4.8-3.9,8.7-8.7,8.7H127c-4.8,0-8.7-3.9-8.7-8.7v-76.2
						c0-4.8,3.9-8.7,8.7-8.7L203.2,391.1 M203.2,390.3H127c-5.2,0-9.5,4.3-9.5,9.5V476c0,5.2,4.3,9.5,9.5,9.5h76.2
						c5.2,0,9.5-4.3,9.5-9.5v-76.2C212.7,394.5,208.4,390.3,203.2,390.3L203.2,390.3z"/>
				</g>
			</g>
			<g>
				<text transform="matrix(1 0 0 1 146.1411 420.6377)" fill="#221F1F" font-family="'HelveticaNeue-Light'" font-size="22.0293">9A1</text>
				<g>
					<text transform="matrix(1 0 0 1 133.8657 450.9853)" fill="#221F1F" font-family="'ApexNew-Book'" font-size="10.3141">script/setup</text>
					<circle fill="#73BD46" stroke="#FFFFFF" stroke-width="2" stroke-miterlimit="10" cx="127.5" cy="447.7" r="3"/>
				</g>
				<g>
					<text transform="matrix(1 0 0 1 133.8657 466.2686)" fill="#221F1F" font-family="'ApexNew-Book'" font-size="10.3141">README.md</text>
					<circle fill="#73BD46" stroke="#FFFFFF" stroke-width="2" stroke-miterlimit="10" cx="127.5" cy="462.9" r="3"/>
				</g>
			</g>
		</g>
		<g id="XMLID_2_">
			<g>
				
					<polygon fill="none" stroke="#FFFFFF" stroke-width="3" stroke-linecap="round" stroke-linejoin="round" stroke-miterlimit="10" points="
					125.4,406.3 124.2,407.4 129.2,411.9 87.8,411.9 87.8,413.5 129.2,413.5 124.2,418.1 125.4,419.2 132.3,412.7 				"/>
				<polygon fill="#221F1F" points="125.4,406.3 124.2,407.4 129.2,411.9 87.8,411.9 87.8,413.5 129.2,413.5 124.2,418.1 
					125.4,419.2 132.3,412.7 				"/>
			</g>
			<circle fill="#221F1F" cx="87.8" cy="412.7" r="0.8"/>
			<circle fill="#221F1F" cx="124.8" cy="406.9" r="0.8"/>
			<circle fill="#221F1F" cx="124.8" cy="418.7" r="0.8"/>
			<line display="none" fill="none" stroke="#ED358C" stroke-miterlimit="10" x1="95.3" y1="402.8" x2="95.3" y2="421.9"/>
			<line display="none" fill="none" stroke="#ED358C" stroke-miterlimit="10" x1="118.2" y1="402.8" x2="118.2" y2="421.9"/>
		</g>
	</g>
	<g display="inline">
		<g>
			<g>
				<g id="Template_3_">
					<line fill="none" stroke="#E6E6E6" stroke-miterlimit="10" x1="331" y1="432.3" x2="235.7" y2="432.3"/>
				</g>
				<g id="border_9_">
					<path fill="#414141" d="M321.1,390.5c4.8,0,8.7,3.9,8.7,8.7v76.2c0,4.8-3.9,8.7-8.7,8.7h-76.2c-4.8,0-8.7-3.9-8.7-8.7v-76.2
						c0-4.8,3.9-8.7,8.7-8.7H321.1 M321.1,389.7h-76.2c-5.2,0-9.5,4.3-9.5,9.5v76.2c0,5.2,4.3,9.5,9.5,9.5h76.2
						c5.2,0,9.5-4.3,9.5-9.5v-76.2C330.7,394,326.4,389.7,321.1,389.7L321.1,389.7z"/>
				</g>
			</g>
			<g>
				<text transform="matrix(1 0 0 1 261.9308 420.0479)" fill="#221F1F" font-family="'HelveticaNeue-Light'" font-size="22.0293">8DC</text>
				<g>
					<text transform="matrix(1 0 0 1 251.8917 450.3955)" fill="#221F1F" font-family="'ApexNew-Book'" font-size="10.3141">script/update</text>
					<circle fill="#73BD46" stroke="#FFFFFF" stroke-width="2" stroke-miterlimit="10" cx="245.6" cy="447" r="3"/>
				</g>
				<g display="none">
					
						<text transform="matrix(1 0 0 1 251.8917 465.6778)" display="inline" fill="#221F1F" font-family="'ApexNew-Book'" font-size="10.3141">team.jpg</text>
					
						<circle display="inline" fill="#73BD46" stroke="#FFFFFF" stroke-width="2" stroke-miterlimit="10" cx="245.6" cy="462.3" r="3"/>
				</g>
			</g>
		</g>
		
			<use xlink:href="#Simple_Arrow"  width="59" height="24" x="-29.5" y="-12" transform="matrix(0.7939 0 0 -0.7939 227.318 412.3689)" overflow="visible"/>
		<g>
			<g id="Template_2_">
				<line fill="none" stroke="#E6E6E6" stroke-miterlimit="10" x1="331" y1="432.3" x2="235.7" y2="432.3"/>
			</g>
			<g id="border_7_">
				<path fill="#414141" d="M321.1,390.5c4.8,0,8.7,3.9,8.7,8.7v76.2c0,4.8-3.9,8.7-8.7,8.7h-76.2c-4.8,0-8.7-3.9-8.7-8.7v-76.2
					c0-4.8,3.9-8.7,8.7-8.7H321.1 M321.1,389.7h-76.2c-5.2,0-9.5,4.3-9.5,9.5v76.2c0,5.2,4.3,9.5,9.5,9.5h76.2
					c5.2,0,9.5-4.3,9.5-9.5v-76.2C330.7,394,326.4,389.7,321.1,389.7L321.1,389.7z"/>
			</g>
		</g>
		<text transform="matrix(1 0 0 1 261.9308 420.0479)" fill="#221F1F" font-family="'HelveticaNeue-Light'" font-size="22.0293">8DC</text>
		<g>
			<text transform="matrix(1 0 0 1 251.8917 450.3955)" fill="#221F1F" font-family="'ApexNew-Book'" font-size="10.3141">script/update</text>
			<circle fill="#73BD46" stroke="#FFFFFF" stroke-width="2" stroke-miterlimit="10" cx="245.6" cy="447" r="3"/>
		</g>
		<g>
			<g>
				
					<polygon fill="none" stroke="#FFFFFF" stroke-width="3" stroke-linecap="round" stroke-linejoin="round" stroke-miterlimit="10" points="
					242.5,406.3 241.5,407.4 246.3,411.9 205,411.9 205,413.5 246.3,413.5 241.5,418.1 242.5,419.2 249.5,412.7 				"/>
				<polygon fill="#221F1F" points="242.5,406.3 241.5,407.4 246.3,411.9 205,411.9 205,413.5 246.3,413.5 241.5,418.1 242.5,419.2 
					249.5,412.7 				"/>
			</g>
			<circle fill="#221F1F" cx="205" cy="412.7" r="0.8"/>
			<circle fill="#221F1F" cx="242" cy="406.9" r="0.8"/>
			<circle fill="#221F1F" cx="242.1" cy="418.7" r="0.8"/>
			<line display="none" fill="none" stroke="#ED358C" stroke-miterlimit="10" x1="212.6" y1="402.8" x2="212.6" y2="421.9"/>
			<line display="none" fill="none" stroke="#ED358C" stroke-miterlimit="10" x1="235.4" y1="402.8" x2="235.4" y2="421.9"/>
		</g>
	</g>
	<g display="inline">
		<g>
			<g>
				<g id="Template_1_">
					<line fill="none" stroke="#E6E6E6" stroke-miterlimit="10" x1="448.6" y1="432.3" x2="353.3" y2="432.3"/>
				</g>
				<g id="border_1_">
					<path fill="#414141" d="M438.8,390.4c4.8,0,8.7,3.9,8.7,8.7v76.2c0,4.8-3.9,8.7-8.7,8.7h-76.2c-4.8,0-8.7-3.9-8.7-8.7v-76.2
						c0-4.8,3.9-8.7,8.7-8.7L438.8,390.4 M438.8,389.6h-76.2c-5.2,0-9.5,4.3-9.5,9.5v76.2c0,5.2,4.3,9.5,9.5,9.5h76.2
						c5.2,0,9.5-4.3,9.5-9.5v-76.2C448.3,393.9,444,389.6,438.8,389.6L438.8,389.6z"/>
				</g>
			</g>
			<g>
				<text transform="matrix(1 0 0 1 382.7871 419.9464)" fill="#221F1F" font-family="'HelveticaNeue-Light'" font-size="22.0293">65F</text>
				<g>
					<text transform="matrix(1 0 0 1 369.4872 450.2939)" fill="#221F1F" font-family="'ApexNew-Book'" font-size="10.3141">script/server</text>
					<circle fill="#73BD46" stroke="#FFFFFF" stroke-width="2" stroke-miterlimit="10" cx="363.1" cy="446.9" r="3"/>
				</g>
				<g display="none">
					
						<text transform="matrix(1 0 0 1 369.4872 465.5761)" display="inline" fill="#221F1F" font-family="'ApexNew-Book'" font-size="10.3141">about.html</text>
					
						<circle display="inline" fill="#73BD46" stroke="#FFFFFF" stroke-width="2" stroke-miterlimit="10" cx="363.1" cy="462.3" r="3"/>
				</g>
			</g>
		</g>
		
			<use xlink:href="#Simple_Arrow"  width="59" height="24" x="-29.5" y="-12" transform="matrix(0.7939 0 0 -0.7939 345.2726 412.3689)" overflow="visible"/>
		<g>
			<text transform="matrix(1 0 0 1 382.7871 419.9464)" fill="#221F1F" font-family="'HelveticaNeue-Light'" font-size="22.0293">65F</text>
			<g>
				<text transform="matrix(1 0 0 1 369.4872 450.2939)" fill="#221F1F" font-family="'ApexNew-Book'" font-size="10.3141">script/server</text>
				<circle fill="#73BD46" stroke="#FFFFFF" stroke-width="2" stroke-miterlimit="10" cx="363.1" cy="446.9" r="3"/>
			</g>
			<g display="none">
				
					<text transform="matrix(1 0 0 1 369.4872 465.5761)" display="inline" fill="#221F1F" font-family="'ApexNew-Book'" font-size="10.3141">about.html</text>
				
					<circle display="inline" fill="#73BD46" stroke="#FFFFFF" stroke-width="2" stroke-miterlimit="10" cx="363.1" cy="462.3" r="3"/>
			</g>
		</g>
		<g>
			<g>
				
					<polygon fill="none" stroke="#FFFFFF" stroke-width="3" stroke-linecap="round" stroke-linejoin="round" stroke-miterlimit="10" points="
					360.5,406.3 359.4,407.4 364.3,411.9 323,411.9 323,413.5 364.3,413.5 359.4,418.1 360.5,419.2 367.5,412.7 				"/>
				<polygon fill="#221F1F" points="360.5,406.3 359.4,407.4 364.3,411.9 323,411.9 323,413.5 364.3,413.5 359.4,418.1 360.5,419.2 
					367.5,412.7 				"/>
			</g>
			<circle fill="#221F1F" cx="323" cy="412.7" r="0.8"/>
			<circle fill="#221F1F" cx="360" cy="406.9" r="0.8"/>
			<circle fill="#221F1F" cx="360" cy="418.7" r="0.8"/>
			<line display="none" fill="none" stroke="#ED358C" stroke-miterlimit="10" x1="330.5" y1="402.8" x2="330.5" y2="421.9"/>
			<line display="none" fill="none" stroke="#ED358C" stroke-miterlimit="10" x1="353.4" y1="402.8" x2="353.4" y2="421.9"/>
		</g>
	</g>
	<g id="ff_arrow" display="inline">
		<g>
			<path fill="none" stroke="#FFFFFF" stroke-width="3" d="M145.8,315.3c-0.4,0-0.7-0.3-0.7-0.8s0.3-0.8,0.7-0.8h288.3
				c0,0.6,0,1,0,1.6H145.8z"/>
			<path fill="#BBBDBF" d="M145.8,315.3c-0.4,0-0.7-0.3-0.7-0.8s0.3-0.8,0.7-0.8h288.3c0,0.6,0,1,0,1.6H145.8z"/>
		</g>
		<g>
			<g>
				<path fill="none" stroke="#FFFFFF" stroke-width="3" d="M474.6,383.4c0,0-0.3,0.1-0.8,0.1s-0.8,0-0.8-0.1v-29.2c0.6,0,1,0,1.6,0
					L474.6,383.4L474.6,383.4z"/>
				<path fill="#BBBDBF" d="M474.6,383.4c0,0-0.3,0.1-0.8,0.1s-0.8,0-0.8-0.1v-29.2c0.6,0,1,0,1.6,0L474.6,383.4L474.6,383.4z"/>
			</g>
			<path fill="#BBBDBF" d="M473.8,395.3l-6.5-7c-0.3-0.3-0.3-0.8,0-1.1c0.3-0.3,0.8-0.3,1.1,0c0,0,0,0,0,0.1l0,0l4.5,4.8v-8.7
				c0.6,0,1,0,1.6,0v8.7l4.5-4.8c0.3-0.3,0.8-0.3,1.1,0c0.3,0.3,0.3,0.8,0,1.1l0,0L473.8,395.3z"/>
			<g>
				<path fill="none" stroke="#FFFFFF" stroke-width="5" stroke-miterlimit="10" d="M473.8,354.2c0-21.9-17.8-39.6-39.6-39.6"/>
				<path fill="none" stroke="#BBBDBF" stroke-width="2" stroke-miterlimit="10" d="M473.8,354.2c0-21.9-17.8-39.6-39.6-39.6"/>
			</g>
		</g>
		<g>
			<path fill="none" stroke="#FFFFFF" stroke-width="3" d="M105.4,405.9c0,0.1,0.3,0.2,0.8,0.2s0.8-0.1,0.8-0.2v-51.7
				c-0.6,0-1,0-1.6,0C105.4,354.2,105.4,405.9,105.4,405.9z"/>
			<path fill="#BBBDBF" d="M105.4,405.9c0,0.1,0.3,0.2,0.8,0.2s0.8-0.1,0.8-0.2v-51.7c-0.6,0-1,0-1.6,0
				C105.4,354.2,105.4,405.9,105.4,405.9z"/>
		</g>
		<g>
			<path fill="none" stroke="#FFFFFF" stroke-width="5" stroke-miterlimit="10" d="M106.2,354.2c0-21.9,17.8-39.6,39.6-39.6"/>
			<path fill="none" stroke="#BBBDBF" stroke-width="2" stroke-miterlimit="10" d="M106.2,354.2c0-21.9,17.8-39.6,39.6-39.6"/>
		</g>
	</g>
	
		<text transform="matrix(1.0483 0 0 1 457.3164 421.1396)" display="inline" fill="#BABCBE" font-family="'ApexNew-Book'" font-size="11.1146">feature</text>
	
		<text transform="matrix(1.0483 0 0 1 457.3164 410.2822)" display="inline" fill="#BABCBE" font-family="'ApexNew-Book'" font-size="11.1146">master</text>
</g>
</svg>
