<?xml version="1.0" encoding="utf-8"?>
<!-- Generator: Adobe Illustrator 17.1.0, SVG Export Plug-In . SVG Version: 6.00 Build 0)  -->
<!DOCTYPE svg PUBLIC "-//W3C//DTD SVG 1.1//EN" "http://www.w3.org/Graphics/SVG/1.1/DTD/svg11.dtd">
<svg version="1.1" id="Layer_1" xmlns="http://www.w3.org/2000/svg" xmlns:xlink="http://www.w3.org/1999/xlink" x="0px" y="0px"
	 viewBox="0 127 500 246" enable-background="new 0 127 500 246" xml:space="preserve">
<symbol  id="Simple_Arrow" viewBox="-29.5 -12 59 24">
	<g>
		
			<polygon fill="none" stroke="#FFFFFF" stroke-width="3" stroke-linecap="round" stroke-linejoin="round" stroke-miterlimit="10" points="
			19.3,7.7 17.9,6.2 24,0.5 -28,0.5 -28,-1.5 24,-1.5 17.9,-7.2 19.3,-8.7 28,-0.5 		"/>
		<polygon fill="#221F1F" points="19.3,7.7 17.9,6.2 24,0.5 -28,0.5 -28,-1.5 24,-1.5 17.9,-7.2 19.3,-8.7 28,-0.5 		"/>
	</g>
	<path fill="#221F1F" d="M-27-0.5c0-0.6-0.4-1-1-1s-1,0.4-1,1s0.4,1,1,1C-27.5,0.5-27,0.1-27-0.5z"/>
	<path fill="#221F1F" d="M19.3,7.7c0.4-0.4,0.4-1,0-1.4s-1-0.4-1.4,0s-0.4,1,0,1.4C18.2,8.1,18.9,8.1,19.3,7.7z"/>
	<path fill="#221F1F" d="M19.3-7.2c0.4-0.4,0.4-1,0-1.4s-1-0.4-1.4,0s-0.4,1,0,1.4C18.3-6.8,18.9-6.8,19.3-7.2z"/>
	<line display="none" fill="none" stroke="#ED358C" stroke-miterlimit="10" x1="-18.5" y1="12" x2="-18.5" y2="-12"/>
	<line display="none" fill="none" stroke="#ED358C" stroke-miterlimit="10" x1="10.2" y1="12" x2="10.2" y2="-12"/>
</symbol>
<g id="base">
	<g>
		<g id="XMLID_6_">
			<g id="Template_11_">
				<line fill="none" stroke="#E6E6E6" stroke-miterlimit="10" x1="95.6" y1="305.6" x2="0.3" y2="305.6"/>
			</g>
			<g id="border_23_">
				<path fill="#414141" d="M85.7,263.7c4.8,0,8.7,3.9,8.7,8.7v76.2c0,4.8-3.9,8.7-8.7,8.7H9.5c-4.8,0-8.7-3.9-8.7-8.7v-76.2
					c0-4.8,3.9-8.7,8.7-8.7H85.7 M85.7,262.9H9.5c-5.2,0-9.5,4.3-9.5,9.5v76.2c0,5.2,4.3,9.5,9.5,9.5h76.2c5.2,0,9.5-4.3,9.5-9.5
					v-76.2C95.3,267.2,91,262.9,85.7,262.9L85.7,262.9z"/>
			</g>
		</g>
		<g>
			<text transform="matrix(1 0 0 1 28.3462 293.292)" fill="#221F1F" font-family="'HelveticaNeue-Light'" font-size="22.0293">77B</text>
			<g>
				<text transform="matrix(1 0 0 1 16.4785 323.6396)" fill="#221F1F" font-family="'ApexNew-Book'" font-size="10.3141">home.html</text>
				<circle fill="#73BD46" stroke="#FFFFFF" stroke-width="2" stroke-miterlimit="10" cx="10.1" cy="320.3" r="3"/>
			</g>
			<g display="none">
				
					<text transform="matrix(1 0 0 1 16.4785 338.9218)" display="inline" fill="#221F1F" font-family="'ApexNew-Book'" font-size="10.3141">placeholder</text>
				
					<circle display="inline" fill="#B93226" stroke="#FFFFFF" stroke-width="2" stroke-miterlimit="10" cx="10.1" cy="335.6" r="3"/>
			</g>
		</g>
	</g>
	<g id="XMLID_4_">
		<g id="Template_10_">
			<line fill="none" stroke="#E6E6E6" stroke-miterlimit="10" x1="95.6" y1="305.6" x2="0.3" y2="305.6"/>
		</g>
		<g id="border_21_">
			<path fill="#414141" d="M85.7,263.7c4.8,0,8.7,3.9,8.7,8.7v76.2c0,4.8-3.9,8.7-8.7,8.7H9.5c-4.8,0-8.7-3.9-8.7-8.7v-76.2
				c0-4.8,3.9-8.7,8.7-8.7H85.7 M85.7,262.9H9.5c-5.2,0-9.5,4.3-9.5,9.5v76.2c0,5.2,4.3,9.5,9.5,9.5h76.2c5.2,0,9.5-4.3,9.5-9.5
				v-76.2C95.3,267.2,91,262.9,85.7,262.9L85.7,262.9z"/>
		</g>
	</g>
	<g>
		<text transform="matrix(1 0 0 1 28.3462 293.292)" fill="#221F1F" font-family="'HelveticaNeue-Light'" font-size="22.0293">77B</text>
		<g>
			<text transform="matrix(1 0 0 1 16.4785 323.6396)" fill="#221F1F" font-family="'ApexNew-Book'" font-size="10.3141">home.html</text>
			<circle fill="#73BD46" stroke="#FFFFFF" stroke-width="2" stroke-miterlimit="10" cx="10.1" cy="320.3" r="3"/>
		</g>
		<g display="none">
			
				<text transform="matrix(1 0 0 1 16.4785 338.9218)" display="inline" fill="#221F1F" font-family="'ApexNew-Book'" font-size="10.3141">placeholder</text>
			<circle display="inline" fill="#B93226" stroke="#FFFFFF" stroke-width="2" stroke-miterlimit="10" cx="10.1" cy="335.6" r="3"/>
		</g>
	</g>
</g>
<g id="step-1-in-out">
	<g>
		<g>
			<g id="Template_9_">
				<line fill="none" stroke="#E6E6E6" stroke-miterlimit="10" x1="219.4" y1="184.8" x2="124.2" y2="184.8"/>
			</g>
			<g id="border_19_">
				<path fill="#414141" d="M209.6,143c4.8,0,8.7,3.9,8.7,8.7v76.2c0,4.8-3.9,8.7-8.7,8.7h-76.2c-4.8,0-8.7-3.9-8.7-8.7v-76.2
					c0-4.8,3.9-8.7,8.7-8.7H209.6 M209.6,142.2h-76.2c-5.2,0-9.5,4.3-9.5,9.5v76.2c0,5.2,4.3,9.5,9.5,9.5h76.2
					c5.2,0,9.5-4.3,9.5-9.5v-76.2C219.1,146.5,214.8,142.2,209.6,142.2L209.6,142.2z"/>
			</g>
		</g>
		<g>
			<text transform="matrix(1 0 0 1 152.6123 172.5234)" fill="#221F1F" font-family="'HelveticaNeue-Light'" font-size="22.0293">9A1</text>
			<g>
				<text transform="matrix(1 0 0 1 140.3369 202.8711)" fill="#221F1F" font-family="'ApexNew-Book'" font-size="10.3141">script/setup</text>
				<circle fill="#73BD46" stroke="#FFFFFF" stroke-width="2" stroke-miterlimit="10" cx="133.9" cy="199.5" r="3"/>
			</g>
			<g>
				<text transform="matrix(1 0 0 1 140.3369 218.1538)" fill="#221F1F" font-family="'ApexNew-Book'" font-size="10.3141">README.md</text>
				<circle fill="#73BD46" stroke="#FFFFFF" stroke-width="2" stroke-miterlimit="10" cx="133.9" cy="214.8" r="3"/>
			</g>
		</g>
	</g>
	<g id="XMLID_1_">
		<g>
			
				<polygon fill="none" stroke="#FFFFFF" stroke-width="3" stroke-linecap="round" stroke-linejoin="round" stroke-miterlimit="10" points="
				116.7,235.4 116.8,237 123.5,236.7 94.2,266 95.3,267.1 124.6,237.9 124.3,244.5 125.9,244.6 126.2,235.1 			"/>
			<polygon fill="#221F1F" points="116.7,235.4 116.8,237 123.5,236.7 94.2,266 95.3,267.1 124.6,237.9 124.3,244.5 125.9,244.6 
				126.2,235.1 			"/>
		</g>
		<circle fill="#221F1F" cx="94.7" cy="266.5" r="0.8"/>
		<circle fill="#221F1F" cx="116.7" cy="236.2" r="0.8"/>
		<circle fill="#221F1F" cx="125.1" cy="244.5" r="0.8"/>
		<line display="none" fill="none" stroke="#ED358C" stroke-miterlimit="10" x1="93" y1="254.2" x2="106.5" y2="267.6"/>
		<line display="none" fill="none" stroke="#ED358C" stroke-miterlimit="10" x1="109.2" y1="238" x2="122.7" y2="251.5"/>
	</g>
	<g>
		<g>
			<g>
				<g id="Template_8_">
					<line fill="none" stroke="#E6E6E6" stroke-miterlimit="10" x1="337.5" y1="184.3" x2="242.2" y2="184.3"/>
				</g>
				<g id="border_17_">
					<path fill="#414141" d="M327.6,142.3c4.8,0,8.7,3.9,8.7,8.7v76.2c0,4.8-3.9,8.7-8.7,8.7h-76.2c-4.8,0-8.7-3.9-8.7-8.7v-76.2
						c0-4.8,3.9-8.7,8.7-8.7H327.6 M327.6,141.6h-76.2c-5.2,0-9.5,4.3-9.5,9.5v76.2c0,5.2,4.3,9.5,9.5,9.5h76.2
						c5.2,0,9.5-4.3,9.5-9.5v-76.2C337.2,145.8,332.9,141.6,327.6,141.6L327.6,141.6z"/>
				</g>
			</g>
			<g>
				<text transform="matrix(1 0 0 1 268.4025 171.9336)" fill="#221F1F" font-family="'HelveticaNeue-Light'" font-size="22.0293">8DC</text>
				<g>
					<text transform="matrix(1 0 0 1 258.3624 202.2812)" fill="#221F1F" font-family="'ApexNew-Book'" font-size="10.3141">script/update</text>
					<circle fill="#73BD46" stroke="#FFFFFF" stroke-width="2" stroke-miterlimit="10" cx="252" cy="199" r="3"/>
				</g>
				<g display="none">
					
						<text transform="matrix(1 0 0 1 258.3624 217.564)" display="inline" fill="#221F1F" font-family="'ApexNew-Book'" font-size="10.3141">team.jpg</text>
					
						<circle display="inline" fill="#73BD46" stroke="#FFFFFF" stroke-width="2" stroke-miterlimit="10" cx="252" cy="214.2" r="3"/>
				</g>
			</g>
		</g>
		
			<use xlink:href="#Simple_Arrow"  width="59" height="24" x="-29.5" y="-12" transform="matrix(0.7939 0 0 -0.7939 233.7891 164.2545)" overflow="visible"/>
		<g>
			<g id="Template_6_">
				<line fill="none" stroke="#E6E6E6" stroke-miterlimit="10" x1="337.5" y1="184.3" x2="242.2" y2="184.3"/>
			</g>
			<g id="border_15_">
				<path fill="#414141" d="M327.6,142.3c4.8,0,8.7,3.9,8.7,8.7v76.2c0,4.8-3.9,8.7-8.7,8.7h-76.2c-4.8,0-8.7-3.9-8.7-8.7v-76.2
					c0-4.8,3.9-8.7,8.7-8.7H327.6 M327.6,141.6h-76.2c-5.2,0-9.5,4.3-9.5,9.5v76.2c0,5.2,4.3,9.5,9.5,9.5h76.2
					c5.2,0,9.5-4.3,9.5-9.5v-76.2C337.2,145.8,332.9,141.6,327.6,141.6L327.6,141.6z"/>
			</g>
		</g>
		<text transform="matrix(1 0 0 1 268.4025 171.9336)" fill="#221F1F" font-family="'HelveticaNeue-Light'" font-size="22.0293">8DC</text>
		<g>
			<text transform="matrix(1 0 0 1 258.3624 202.2812)" fill="#221F1F" font-family="'ApexNew-Book'" font-size="10.3141">script/update</text>
			<circle fill="#73BD46" stroke="#FFFFFF" stroke-width="2" stroke-miterlimit="10" cx="252" cy="199" r="3"/>
		</g>
		<g>
			<g>
				
					<polygon fill="none" stroke="#FFFFFF" stroke-width="3" stroke-linecap="round" stroke-linejoin="round" stroke-miterlimit="10" points="
					249,158.1 247.9,159.3 252.9,163.9 211.5,163.9 211.5,165.4 252.9,165.4 247.9,170 249,171.2 256,164.7 				"/>
				<polygon fill="#221F1F" points="249,158.1 247.9,159.3 252.9,163.9 211.5,163.9 211.5,165.4 252.9,165.4 247.9,170 249,171.2 
					256,164.7 				"/>
			</g>
			<circle fill="#221F1F" cx="211.5" cy="164.7" r="0.8"/>
			<circle fill="#221F1F" cx="248.5" cy="158.7" r="0.8"/>
			<circle fill="#221F1F" cx="248.5" cy="170.5" r="0.8"/>
			<line display="none" fill="none" stroke="#ED358C" stroke-miterlimit="10" x1="219" y1="154.7" x2="219" y2="173.8"/>
			<line display="none" fill="none" stroke="#ED358C" stroke-miterlimit="10" x1="241.9" y1="154.7" x2="241.9" y2="173.8"/>
		</g>
	</g>
	<g>
		<g>
			<g>
				<g id="Template_5_">
					<line fill="none" stroke="#E6E6E6" stroke-miterlimit="10" x1="455.1" y1="184.1" x2="359.8" y2="184.1"/>
				</g>
				<g id="border_13_">
					<path fill="#414141" d="M445.2,142.3c4.8,0,8.7,3.9,8.7,8.7v76.2c0,4.8-3.9,8.7-8.7,8.7H369c-4.8,0-8.7-3.9-8.7-8.7V151
						c0-4.8,3.9-8.7,8.7-8.7H445.2 M445.2,141.5H369c-5.2,0-9.5,4.3-9.5,9.5v76.2c0,5.2,4.3,9.5,9.5,9.5h76.2c5.2,0,9.5-4.3,9.5-9.5
						V151C454.7,145.8,450.5,141.5,445.2,141.5L445.2,141.5z"/>
				</g>
			</g>
			<g>
				<text transform="matrix(1 0 0 1 389.2578 171.8316)" fill="#221F1F" font-family="'HelveticaNeue-Light'" font-size="22.0293">65F</text>
				<g>
					<text transform="matrix(1 0 0 1 375.9579 202.1792)" fill="#221F1F" font-family="'ApexNew-Book'" font-size="10.3141">script/server</text>
					<circle fill="#73BD46" stroke="#FFFFFF" stroke-width="2" stroke-miterlimit="10" cx="369.6" cy="198.9" r="3"/>
				</g>
				<g display="none">
					
						<text transform="matrix(1 0 0 1 375.9579 217.4619)" display="inline" fill="#221F1F" font-family="'ApexNew-Book'" font-size="10.3141">about.html</text>
					
						<circle display="inline" fill="#73BD46" stroke="#FFFFFF" stroke-width="2" stroke-miterlimit="10" cx="369.6" cy="214.1" r="3"/>
				</g>
			</g>
		</g>
		
			<use xlink:href="#Simple_Arrow"  width="59" height="24" x="-29.5" y="-12" transform="matrix(0.7939 0 0 -0.7939 351.7439 164.2545)" overflow="visible"/>
		<g>
			<text transform="matrix(1 0 0 1 389.2578 171.8316)" fill="#221F1F" font-family="'HelveticaNeue-Light'" font-size="22.0293">65F</text>
			<g>
				<text transform="matrix(1 0 0 1 375.9579 202.1792)" fill="#221F1F" font-family="'ApexNew-Book'" font-size="10.3141">script/server</text>
				<circle fill="#73BD46" stroke="#FFFFFF" stroke-width="2" stroke-miterlimit="10" cx="369.6" cy="198.9" r="3"/>
			</g>
			<g display="none">
				
					<text transform="matrix(1 0 0 1 375.9579 217.4619)" display="inline" fill="#221F1F" font-family="'ApexNew-Book'" font-size="10.3141">about.html</text>
				
					<circle display="inline" fill="#73BD46" stroke="#FFFFFF" stroke-width="2" stroke-miterlimit="10" cx="369.6" cy="214.1" r="3"/>
			</g>
		</g>
		<g>
			<g>
				
					<polygon fill="none" stroke="#FFFFFF" stroke-width="3" stroke-linecap="round" stroke-linejoin="round" stroke-miterlimit="10" points="
					367,158.1 365.9,159.3 370.8,163.9 329.5,163.9 329.5,165.4 370.8,165.4 365.9,170 367,171.2 374,164.7 				"/>
				<polygon fill="#221F1F" points="367,158.1 365.9,159.3 370.8,163.9 329.5,163.9 329.5,165.4 370.8,165.4 365.9,170 367,171.2 
					374,164.7 				"/>
			</g>
			<circle fill="#221F1F" cx="329.5" cy="164.7" r="0.8"/>
			<circle fill="#221F1F" cx="366.5" cy="158.7" r="0.8"/>
			<circle fill="#221F1F" cx="366.5" cy="170.5" r="0.8"/>
			<line display="none" fill="none" stroke="#ED358C" stroke-miterlimit="10" x1="337" y1="154.7" x2="337" y2="173.8"/>
			<line display="none" fill="none" stroke="#ED358C" stroke-miterlimit="10" x1="359.8" y1="154.7" x2="359.8" y2="173.8"/>
		</g>
	</g>
	<text transform="matrix(1.0483 0 0 1 460.4921 168.9521)" fill="#BABCBE" font-family="'ApexNew-Book'" font-size="11.1146">feature</text>
	<text transform="matrix(1.0483 0 0 1 103.2358 288.8398)" fill="#BABCBE" font-family="'ApexNew-Book'" font-size="11.1146">master</text>
</g>
<g id="step-2">
	<g>
		
			<use xlink:href="#Simple_Arrow"  width="59" height="24" x="-29.5" y="-12" transform="matrix(0.7939 0 0 -0.7939 110.0979 285.3689)" overflow="visible"/>
		<g>
			<g>
				<g id="Template_4_">
					<line fill="none" stroke="#E6E6E6" stroke-miterlimit="10" x1="212.9" y1="306" x2="117.7" y2="306"/>
				</g>
				<g id="border_11_">
					<path fill="#414141" d="M203.2,264.1c4.8,0,8.7,3.9,8.7,8.7V349c0,4.8-3.9,8.7-8.7,8.7h-76.2c-4.8,0-8.7-3.9-8.7-8.7v-76.2
						c0-4.8,3.9-8.7,8.7-8.7H203.2 M203.2,263.3h-76.2c-5.2,0-9.5,4.3-9.5,9.5V349c0,5.2,4.3,9.5,9.5,9.5h76.2
						c5.2,0,9.5-4.3,9.5-9.5v-76.2C212.7,267.5,208.4,263.3,203.2,263.3L203.2,263.3z"/>
				</g>
			</g>
			<g>
				<text transform="matrix(1 0 0 1 146.1411 293.6377)" fill="#221F1F" font-family="'HelveticaNeue-Light'" font-size="22.0293">9A1</text>
				<g>
					<text transform="matrix(1 0 0 1 133.8657 323.9853)" fill="#221F1F" font-family="'ApexNew-Book'" font-size="10.3141">script/setup</text>
					<circle fill="#73BD46" stroke="#FFFFFF" stroke-width="2" stroke-miterlimit="10" cx="127.5" cy="320.7" r="3"/>
				</g>
				<g>
					<text transform="matrix(1 0 0 1 133.8657 339.2686)" fill="#221F1F" font-family="'ApexNew-Book'" font-size="10.3141">README.md</text>
					<circle fill="#73BD46" stroke="#FFFFFF" stroke-width="2" stroke-miterlimit="10" cx="127.5" cy="335.9" r="3"/>
				</g>
			</g>
		</g>
		<g id="XMLID_2_">
			<g>
				
					<polygon fill="none" stroke="#FFFFFF" stroke-width="3" stroke-linecap="round" stroke-linejoin="round" stroke-miterlimit="10" points="
					125.4,279.3 124.2,280.4 129.2,284.9 87.8,284.9 87.8,286.5 129.2,286.5 124.2,291.1 125.4,292.2 132.3,285.7 				"/>
				<polygon fill="#221F1F" points="125.4,279.3 124.2,280.4 129.2,284.9 87.8,284.9 87.8,286.5 129.2,286.5 124.2,291.1 
					125.4,292.2 132.3,285.7 				"/>
			</g>
			<circle fill="#221F1F" cx="87.8" cy="285.7" r="0.8"/>
			<circle fill="#221F1F" cx="124.8" cy="279.9" r="0.8"/>
			<circle fill="#221F1F" cx="124.8" cy="291.7" r="0.8"/>
			<line display="none" fill="none" stroke="#ED358C" stroke-miterlimit="10" x1="95.3" y1="275.8" x2="95.3" y2="294.9"/>
			<line display="none" fill="none" stroke="#ED358C" stroke-miterlimit="10" x1="118.2" y1="275.8" x2="118.2" y2="294.9"/>
		</g>
	</g>
	<g>
		<g>
			<g>
				<g id="Template_3_">
					<line fill="none" stroke="#E6E6E6" stroke-miterlimit="10" x1="331" y1="305.3" x2="235.7" y2="305.3"/>
				</g>
				<g id="border_9_">
					<path fill="#414141" d="M321.1,263.5c4.8,0,8.7,3.9,8.7,8.7v76.2c0,4.8-3.9,8.7-8.7,8.7h-76.2c-4.8,0-8.7-3.9-8.7-8.7v-76.2
						c0-4.8,3.9-8.7,8.7-8.7H321.1 M321.1,262.7h-76.2c-5.2,0-9.5,4.3-9.5,9.5v76.2c0,5.2,4.3,9.5,9.5,9.5h76.2
						c5.2,0,9.5-4.3,9.5-9.5v-76.2C330.7,267,326.4,262.7,321.1,262.7L321.1,262.7z"/>
				</g>
			</g>
			<g>
				<text transform="matrix(1 0 0 1 261.9308 293.0479)" fill="#221F1F" font-family="'HelveticaNeue-Light'" font-size="22.0293">8DC</text>
				<g>
					<text transform="matrix(1 0 0 1 251.8917 323.3955)" fill="#221F1F" font-family="'ApexNew-Book'" font-size="10.3141">script/update</text>
					<circle fill="#73BD46" stroke="#FFFFFF" stroke-width="2" stroke-miterlimit="10" cx="245.6" cy="320" r="3"/>
				</g>
				<g display="none">
					
						<text transform="matrix(1 0 0 1 251.8917 338.6778)" display="inline" fill="#221F1F" font-family="'ApexNew-Book'" font-size="10.3141">team.jpg</text>
					
						<circle display="inline" fill="#73BD46" stroke="#FFFFFF" stroke-width="2" stroke-miterlimit="10" cx="245.6" cy="335.3" r="3"/>
				</g>
			</g>
		</g>
		
			<use xlink:href="#Simple_Arrow"  width="59" height="24" x="-29.5" y="-12" transform="matrix(0.7939 0 0 -0.7939 227.318 285.3689)" overflow="visible"/>
		<g>
			<g id="Template_2_">
				<line fill="none" stroke="#E6E6E6" stroke-miterlimit="10" x1="331" y1="305.3" x2="235.7" y2="305.3"/>
			</g>
			<g id="border_7_">
				<path fill="#414141" d="M321.1,263.5c4.8,0,8.7,3.9,8.7,8.7v76.2c0,4.8-3.9,8.7-8.7,8.7h-76.2c-4.8,0-8.7-3.9-8.7-8.7v-76.2
					c0-4.8,3.9-8.7,8.7-8.7H321.1 M321.1,262.7h-76.2c-5.2,0-9.5,4.3-9.5,9.5v76.2c0,5.2,4.3,9.5,9.5,9.5h76.2
					c5.2,0,9.5-4.3,9.5-9.5v-76.2C330.7,267,326.4,262.7,321.1,262.7L321.1,262.7z"/>
			</g>
		</g>
		<text transform="matrix(1 0 0 1 261.9308 293.0479)" fill="#221F1F" font-family="'HelveticaNeue-Light'" font-size="22.0293">8DC</text>
		<g>
			<text transform="matrix(1 0 0 1 251.8917 323.3955)" fill="#221F1F" font-family="'ApexNew-Book'" font-size="10.3141">script/update</text>
			<circle fill="#73BD46" stroke="#FFFFFF" stroke-width="2" stroke-miterlimit="10" cx="245.6" cy="320" r="3"/>
		</g>
		<g>
			<g>
				
					<polygon fill="none" stroke="#FFFFFF" stroke-width="3" stroke-linecap="round" stroke-linejoin="round" stroke-miterlimit="10" points="
					242.5,279.3 241.5,280.4 246.3,284.9 205,284.9 205,286.5 246.3,286.5 241.5,291.1 242.5,292.2 249.5,285.7 				"/>
				<polygon fill="#221F1F" points="242.5,279.3 241.5,280.4 246.3,284.9 205,284.9 205,286.5 246.3,286.5 241.5,291.1 242.5,292.2 
					249.5,285.7 				"/>
			</g>
			<circle fill="#221F1F" cx="205" cy="285.7" r="0.8"/>
			<circle fill="#221F1F" cx="242" cy="279.9" r="0.8"/>
			<circle fill="#221F1F" cx="242.1" cy="291.7" r="0.8"/>
			<line display="none" fill="none" stroke="#ED358C" stroke-miterlimit="10" x1="212.6" y1="275.8" x2="212.6" y2="294.9"/>
			<line display="none" fill="none" stroke="#ED358C" stroke-miterlimit="10" x1="235.4" y1="275.8" x2="235.4" y2="294.9"/>
		</g>
	</g>
	<g>
		<g>
			<g>
				<g id="Template_1_">
					<line fill="none" stroke="#E6E6E6" stroke-miterlimit="10" x1="448.6" y1="305.3" x2="353.3" y2="305.3"/>
				</g>
				<g id="border_1_">
					<path fill="#414141" d="M438.8,263.4c4.8,0,8.7,3.9,8.7,8.7v76.2c0,4.8-3.9,8.7-8.7,8.7h-76.2c-4.8,0-8.7-3.9-8.7-8.7v-76.2
						c0-4.8,3.9-8.7,8.7-8.7H438.8 M438.8,262.6h-76.2c-5.2,0-9.5,4.3-9.5,9.5v76.2c0,5.2,4.3,9.5,9.5,9.5h76.2
						c5.2,0,9.5-4.3,9.5-9.5v-76.2C448.3,266.9,444,262.6,438.8,262.6L438.8,262.6z"/>
				</g>
			</g>
			<g>
				<text transform="matrix(1 0 0 1 382.7871 292.9464)" fill="#221F1F" font-family="'HelveticaNeue-Light'" font-size="22.0293">65F</text>
				<g>
					<text transform="matrix(1 0 0 1 369.4872 323.2939)" fill="#221F1F" font-family="'ApexNew-Book'" font-size="10.3141">script/server</text>
					<circle fill="#73BD46" stroke="#FFFFFF" stroke-width="2" stroke-miterlimit="10" cx="363.1" cy="319.9" r="3"/>
				</g>
				<g display="none">
					
						<text transform="matrix(1 0 0 1 369.4872 338.5761)" display="inline" fill="#221F1F" font-family="'ApexNew-Book'" font-size="10.3141">about.html</text>
					
						<circle display="inline" fill="#73BD46" stroke="#FFFFFF" stroke-width="2" stroke-miterlimit="10" cx="363.1" cy="335.3" r="3"/>
				</g>
			</g>
		</g>
		
			<use xlink:href="#Simple_Arrow"  width="59" height="24" x="-29.5" y="-12" transform="matrix(0.7939 0 0 -0.7939 345.2726 285.3689)" overflow="visible"/>
		<g>
			<text transform="matrix(1 0 0 1 382.7871 292.9464)" fill="#221F1F" font-family="'HelveticaNeue-Light'" font-size="22.0293">65F</text>
			<g>
				<text transform="matrix(1 0 0 1 369.4872 323.2939)" fill="#221F1F" font-family="'ApexNew-Book'" font-size="10.3141">script/server</text>
				<circle fill="#73BD46" stroke="#FFFFFF" stroke-width="2" stroke-miterlimit="10" cx="363.1" cy="319.9" r="3"/>
			</g>
			<g display="none">
				
					<text transform="matrix(1 0 0 1 369.4872 338.5761)" display="inline" fill="#221F1F" font-family="'ApexNew-Book'" font-size="10.3141">about.html</text>
				
					<circle display="inline" fill="#73BD46" stroke="#FFFFFF" stroke-width="2" stroke-miterlimit="10" cx="363.1" cy="335.3" r="3"/>
			</g>
		</g>
		<g>
			<g>
				
					<polygon fill="none" stroke="#FFFFFF" stroke-width="3" stroke-linecap="round" stroke-linejoin="round" stroke-miterlimit="10" points="
					360.5,279.3 359.4,280.4 364.3,284.9 323,284.9 323,286.5 364.3,286.5 359.4,291.1 360.5,292.2 367.5,285.7 				"/>
				<polygon fill="#221F1F" points="360.5,279.3 359.4,280.4 364.3,284.9 323,284.9 323,286.5 364.3,286.5 359.4,291.1 360.5,292.2 
					367.5,285.7 				"/>
			</g>
			<circle fill="#221F1F" cx="323" cy="285.7" r="0.8"/>
			<circle fill="#221F1F" cx="360" cy="279.9" r="0.8"/>
			<circle fill="#221F1F" cx="360" cy="291.7" r="0.8"/>
			<line display="none" fill="none" stroke="#ED358C" stroke-miterlimit="10" x1="330.5" y1="275.8" x2="330.5" y2="294.9"/>
			<line display="none" fill="none" stroke="#ED358C" stroke-miterlimit="10" x1="353.4" y1="275.8" x2="353.4" y2="294.9"/>
		</g>
	</g>
	<g id="ff_arrow">
		<g>
			<path fill="none" stroke="#FFFFFF" stroke-width="3" d="M145.8,188.3c-0.4,0-0.7-0.3-0.7-0.8c0-0.5,0.3-0.8,0.7-0.8h288.3
				c0,0.6,0,1,0,1.6H145.8z"/>
			<path fill="#BBBDBF" d="M145.8,188.3c-0.4,0-0.7-0.3-0.7-0.8c0-0.5,0.3-0.8,0.7-0.8h288.3c0,0.6,0,1,0,1.6H145.8z"/>
		</g>
		<g>
			<g>
				<path fill="none" stroke="#FFFFFF" stroke-width="3" d="M474.6,256.4c0,0-0.3,0.1-0.8,0.1s-0.8,0-0.8-0.1v-29.2c0.6,0,1,0,1.6,0
					V256.4z"/>
				<path fill="#BBBDBF" d="M474.6,256.4c0,0-0.3,0.1-0.8,0.1s-0.8,0-0.8-0.1v-29.2c0.6,0,1,0,1.6,0V256.4z"/>
			</g>
			<path fill="#BBBDBF" d="M473.8,268.3l-6.5-7c-0.3-0.3-0.3-0.8,0-1.1c0.3-0.3,0.8-0.3,1.1,0c0,0,0,0,0,0.1l0,0l4.5,4.8v-8.7
				c0.6,0,1,0,1.6,0v8.7l4.5-4.8c0.3-0.3,0.8-0.3,1.1,0c0.3,0.3,0.3,0.8,0,1.1l0,0L473.8,268.3z"/>
			<g>
				<path fill="none" stroke="#FFFFFF" stroke-width="5" stroke-miterlimit="10" d="M473.8,227.2c0-21.9-17.8-39.6-39.6-39.6"/>
				<path fill="none" stroke="#BBBDBF" stroke-width="2" stroke-miterlimit="10" d="M473.8,227.2c0-21.9-17.8-39.6-39.6-39.6"/>
			</g>
		</g>
		<g>
			<path fill="none" stroke="#FFFFFF" stroke-width="3" d="M105.4,278.9c0,0.1,0.3,0.2,0.8,0.2c0.5,0,0.8-0.1,0.8-0.2v-51.7
				c-0.6,0-1,0-1.6,0V278.9z"/>
			<path fill="#BBBDBF" d="M105.4,278.9c0,0.1,0.3,0.2,0.8,0.2c0.5,0,0.8-0.1,0.8-0.2v-51.7c-0.6,0-1,0-1.6,0V278.9z"/>
		</g>
		<g>
			<path fill="none" stroke="#FFFFFF" stroke-width="5" stroke-miterlimit="10" d="M106.2,227.2c0-21.9,17.8-39.6,39.6-39.6"/>
			<path fill="none" stroke="#BBBDBF" stroke-width="2" stroke-miterlimit="10" d="M106.2,227.2c0-21.9,17.8-39.6,39.6-39.6"/>
		</g>
	</g>
	<text transform="matrix(1.0483 0 0 1 457.3165 294.1396)" fill="#BABCBE" font-family="'ApexNew-Book'" font-size="11.1146">feature</text>
	<text transform="matrix(1.0483 0 0 1 457.3165 283.2823)" fill="#BABCBE" font-family="'ApexNew-Book'" font-size="11.1146">master</text>
</g>
</svg>
