<?xml version="1.0" encoding="utf-8"?>
<!-- Generator: Adobe Illustrator 17.1.0, SVG Export Plug-In . SVG Version: 6.00 Build 0)  -->
<!DOCTYPE svg PUBLIC "-//W3C//DTD SVG 1.1//EN" "http://www.w3.org/Graphics/SVG/1.1/DTD/svg11.dtd">
<svg version="1.1" id="Layer_1" xmlns="http://www.w3.org/2000/svg" xmlns:xlink="http://www.w3.org/1999/xlink" x="0px" y="0px"
	 viewBox="0 146 500 208" enable-background="new 0 146 500 208" xml:space="preserve">
<g id="base">
	<g id="XMLID_6_">
		<g id="Template_5_">
			<line fill="none" stroke="#E6E6E6" stroke-miterlimit="10" x1="90.5" y1="293.5" x2="4.3" y2="293.5"/>
		</g>
		<g id="border_13_">
			<path fill="#414141" d="M81.6,255.6c4.4,0,7.9,3.5,7.9,7.9v68.9c0,4.4-3.5,7.9-7.9,7.9H12.6c-4.4,0-7.9-3.5-7.9-7.9v-68.9
				c0-4.4,3.5-7.9,7.9-7.9H81.6 M81.6,254.9H12.6c-4.7,0-8.6,3.9-8.6,8.6v68.9c0,4.7,3.9,8.6,8.6,8.6h68.9c4.7,0,8.6-3.9,8.6-8.6
				v-68.9C90.2,258.8,86.3,254.9,81.6,254.9L81.6,254.9z"/>
		</g>
	</g>
	<g>
		<text transform="matrix(1 0 0 1 30.9922 282.3486)" fill="#221F1F" font-family="'HelveticaNeue-Light'" font-size="19.9283">5F3</text>
		<g>
			<text transform="matrix(1 0 0 1 18.9599 309.8018)" fill="#221F1F" font-family="'ApexNew-Book'" font-size="9.3304">README.md</text>
			<circle fill="#73BD46" stroke="#FFFFFF" stroke-width="2" stroke-miterlimit="10" cx="13.2" cy="306.8" r="2.7"/>
		</g>
		<g display="none">
			
				<text transform="matrix(1 0 0 1 18.9599 323.627)" display="inline" fill="#221F1F" font-family="'ApexNew-Book'" font-size="9.3304">placeholder</text>
			
				<circle display="inline" fill="#B93226" stroke="#FFFFFF" stroke-width="2" stroke-miterlimit="10" cx="13.2" cy="320.6" r="2.7"/>
		</g>
	</g>
</g>
<g id="step-1">
	<g>
		<g>
			<g id="Template_1_">
				<line fill="none" stroke="#E6E6E6" stroke-miterlimit="10" x1="186" y1="196.6" x2="99.8" y2="196.6"/>
			</g>
			<g id="border_1_">
				<path fill="#414141" d="M177.1,158.7c4.4,0,7.9,3.5,7.9,7.9v68.9c0,4.4-3.5,7.9-7.9,7.9h-68.9c-4.4,0-7.9-3.5-7.9-7.9v-68.9
					c0-4.4,3.5-7.9,7.9-7.9H177.1 M177.1,158h-68.9c-4.7,0-8.6,3.9-8.6,8.6v68.9c0,4.7,3.9,8.6,8.6,8.6h68.9c4.7,0,8.6-3.9,8.6-8.6
					v-68.9C185.7,161.9,181.8,158,177.1,158L177.1,158z"/>
			</g>
		</g>
		<g>
			<text transform="matrix(1 0 0 1 125.9522 185.4346)" fill="#221F1F" font-family="'HelveticaNeue-Light'" font-size="19.9283">7E2</text>
			<g>
				<text transform="matrix(1 0 0 1 114.4786 212.8878)" fill="#221F1F" font-family="'ApexNew-Book'" font-size="9.3304">about.html</text>
				<circle fill="#73BD46" stroke="#FFFFFF" stroke-width="2" stroke-miterlimit="10" cx="108.7" cy="209.9" r="2.7"/>
			</g>
			<g display="none">
				
					<text transform="matrix(1 0 0 1 114.4786 226.7129)" display="inline" fill="#221F1F" font-family="'ApexNew-Book'" font-size="9.3304">placeholder</text>
				
					<circle display="inline" fill="#B93226" stroke="#FFFFFF" stroke-width="2" stroke-miterlimit="10" cx="108.7" cy="223.7" r="2.7"/>
			</g>
		</g>
	</g>
	<g id="XMLID_3_">
		<g>
			
				<polygon fill="none" stroke="#FFFFFF" stroke-width="3" stroke-linecap="round" stroke-linejoin="round" stroke-miterlimit="10" points="
				102.6,233.1 102.6,234.5 108.7,234.3 82.2,260.7 83.2,261.7 109.7,235.3 109.5,241.3 110.9,241.3 111.2,232.7 			"/>
			<polygon fill="#221F1F" points="102.6,233.1 102.6,234.5 108.7,234.3 82.2,260.7 83.2,261.7 109.7,235.3 109.5,241.3 
				110.9,241.3 111.2,232.7 			"/>
		</g>
		<circle fill="#221F1F" cx="82.7" cy="261.2" r="0.7"/>
		<circle fill="#221F1F" cx="102.6" cy="233.8" r="0.7"/>
		<circle fill="#221F1F" cx="110.2" cy="241.3" r="0.7"/>
		<line display="none" fill="none" stroke="#ED358C" stroke-miterlimit="10" x1="81.2" y1="250" x2="93.4" y2="262.2"/>
		<line display="none" fill="none" stroke="#ED358C" stroke-miterlimit="10" x1="95.8" y1="235.4" x2="108" y2="247.6"/>
	</g>
</g>
<g id="step-2">
	<g>
		<g>
			<g id="Template_3_">
				<line fill="none" stroke="#E6E6E6" stroke-miterlimit="10" x1="292.8" y1="196.8" x2="206.6" y2="196.8"/>
			</g>
			<g id="border_9_">
				<path fill="#414141" d="M283.9,158.9c4.4,0,7.9,3.5,7.9,7.9v68.9c0,4.4-3.5,7.9-7.9,7.9H215c-4.4,0-7.9-3.5-7.9-7.9v-68.9
					c0-4.4,3.5-7.9,7.9-7.9H283.9 M283.9,158.1H215c-4.7,0-8.6,3.9-8.6,8.6v68.9c0,4.7,3.9,8.6,8.6,8.6h68.9c4.7,0,8.6-3.9,8.6-8.6
					v-68.9C292.5,162,288.6,158.1,283.9,158.1L283.9,158.1z"/>
			</g>
		</g>
		<g>
			<text transform="matrix(1 0 0 1 231.9843 185.6191)" fill="#221F1F" font-family="'HelveticaNeue-Light'" font-size="19.9283">B15</text>
			<g>
				<text transform="matrix(1 0 0 1 221.2482 213.0722)" fill="#221F1F" font-family="'ApexNew-Book'" font-size="9.3304">office.geojson</text>
				<circle fill="#73BD46" stroke="#FFFFFF" stroke-width="2" stroke-miterlimit="10" cx="215.5" cy="210.1" r="2.7"/>
			</g>
			<g>
				<text transform="matrix(1 0 0 1 221.2482 226.8975)" fill="#221F1F" font-family="'ApexNew-Book'" font-size="9.3304">team.jpg</text>
				<circle fill="#73BD46" stroke="#FFFFFF" stroke-width="2" stroke-miterlimit="10" cx="215.5" cy="223.9" r="2.7"/>
			</g>
		</g>
	</g>
	<g>
		<g>
			
				<polygon fill="none" stroke="#FFFFFF" stroke-width="3" stroke-linecap="round" stroke-linejoin="round" stroke-miterlimit="10" points="
				212.8,173.2 211.9,174.2 216.2,178.3 178.8,178.3 178.8,179.8 216.2,179.8 211.9,183.9 212.8,184.9 219.1,179 			"/>
			<polygon fill="#221F1F" points="212.8,173.2 211.9,174.2 216.2,178.3 178.8,178.3 178.8,179.8 216.2,179.8 211.9,183.9 
				212.8,184.9 219.1,179 			"/>
		</g>
		<circle fill="#221F1F" cx="178.8" cy="179" r="0.7"/>
		<circle fill="#221F1F" cx="212.3" cy="173.7" r="0.7"/>
		<circle fill="#221F1F" cx="212.4" cy="184.4" r="0.7"/>
		<line display="none" fill="none" stroke="#ED358C" stroke-miterlimit="10" x1="185.7" y1="170.1" x2="185.7" y2="187.3"/>
		<line display="none" fill="none" stroke="#ED358C" stroke-miterlimit="10" x1="206.3" y1="170.1" x2="206.3" y2="187.3"/>
	</g>
</g>
<g id="step-3">
	<g>
		<g>
			<g id="Template_2_">
				<line fill="none" stroke="#E6E6E6" stroke-miterlimit="10" x1="399.2" y1="196.6" x2="313" y2="196.6"/>
			</g>
			<g id="border_7_">
				<path fill="#414141" d="M390.3,158.8c4.4,0,7.9,3.5,7.9,7.9v68.9c0,4.4-3.5,7.9-7.9,7.9h-68.9c-4.4,0-7.9-3.5-7.9-7.9v-68.9
					c0-4.4,3.5-7.9,7.9-7.9H390.3 M390.3,158.1h-68.9c-4.7,0-8.6,3.9-8.6,8.6v68.9c0,4.7,3.9,8.6,8.6,8.6h68.9
					c4.7,0,8.6-3.9,8.6-8.6v-68.9C398.9,162,395,158.1,390.3,158.1L390.3,158.1z"/>
			</g>
		</g>
		<g>
			<text transform="matrix(1 0 0 1 339.1015 185.5268)" fill="#221F1F" font-family="'HelveticaNeue-Light'" font-size="19.9283">E38</text>
			<g>
				<text transform="matrix(1 0 0 1 327.6279 212.98)" fill="#221F1F" font-family="'ApexNew-Book'" font-size="9.3304">contact.vcf</text>
				<circle fill="#73BD46" stroke="#FFFFFF" stroke-width="2" stroke-miterlimit="10" cx="321.9" cy="209.9" r="2.7"/>
			</g>
			<g>
				<text transform="matrix(1 0 0 1 327.6279 226.8052)" fill="#221F1F" font-family="'ApexNew-Book'" font-size="9.3304">about.html</text>
				<circle fill="#73BD46" stroke="#FFFFFF" stroke-width="2" stroke-miterlimit="10" cx="321.9" cy="223.8" r="2.7"/>
			</g>
		</g>
	</g>
	<g>
		<g>
			
				<polygon fill="none" stroke="#FFFFFF" stroke-width="3" stroke-linecap="round" stroke-linejoin="round" stroke-miterlimit="10" points="
				319.5,173.2 318.5,174.2 323,178.3 285.6,178.3 285.6,179.8 323,179.8 318.5,183.9 319.5,184.9 325.8,179 			"/>
			<polygon fill="#221F1F" points="319.5,173.2 318.5,174.2 323,178.3 285.6,178.3 285.6,179.8 323,179.8 318.5,183.9 319.5,184.9 
				325.8,179 			"/>
		</g>
		<circle fill="#221F1F" cx="285.6" cy="179" r="0.7"/>
		<circle fill="#221F1F" cx="319" cy="173.7" r="0.7"/>
		<circle fill="#221F1F" cx="319" cy="184.4" r="0.7"/>
		<line display="none" fill="none" stroke="#ED358C" stroke-miterlimit="10" x1="292.4" y1="170.1" x2="292.4" y2="187.3"/>
		<line display="none" fill="none" stroke="#ED358C" stroke-miterlimit="10" x1="313.1" y1="170.1" x2="313.1" y2="187.3"/>
	</g>
</g>
<g id="step-4">
	<g>
		<g>
			<g id="Template_4_">
				<line fill="none" stroke="#E6E6E6" stroke-miterlimit="10" x1="347.2" y1="293.5" x2="261.1" y2="293.5"/>
			</g>
			<g id="border_11_">
				<path fill="#414141" d="M338.3,255.6c4.4,0,7.9,3.5,7.9,7.9v68.9c0,4.4-3.5,7.9-7.9,7.9h-68.9c-4.4,0-7.9-3.5-7.9-7.9v-68.9
					c0-4.4,3.5-7.9,7.9-7.9H338.3 M338.3,254.9h-68.9c-4.7,0-8.6,3.9-8.6,8.6v68.9c0,4.7,3.9,8.6,8.6,8.6h68.9
					c4.7,0,8.6-3.9,8.6-8.6v-68.9C347,258.8,343.1,254.9,338.3,254.9L338.3,254.9z"/>
			</g>
		</g>
		<g>
			<text transform="matrix(1 0 0 1 287.5332 282.3486)" fill="#221F1F" font-family="'HelveticaNeue-Light'" font-size="19.9283">826</text>
			<g>
				<text transform="matrix(1 0 0 1 275.6915 309.8018)" fill="#221F1F" font-family="'ApexNew-Book'" font-size="9.3304">CONTRIB.md</text>
				<circle fill="#73BD46" stroke="#FFFFFF" stroke-width="2" stroke-miterlimit="10" cx="269.9" cy="306.8" r="2.7"/>
			</g>
			<g>
				<text transform="matrix(1 0 0 1 275.6915 323.627)" fill="#221F1F" font-family="'ApexNew-Book'" font-size="9.3304">notes.txt</text>
				<circle fill="#B93226" stroke="#FFFFFF" stroke-width="2" stroke-miterlimit="10" cx="269.9" cy="320.6" r="2.7"/>
			</g>
		</g>
	</g>
	<g id="XMLID_1_">
		<g>
			<path fill="none" stroke="#FFFFFF" stroke-width="3" stroke-linecap="round" stroke-linejoin="round" stroke-miterlimit="10" d="
				M268,270L268,270l-1,1.1l4.4,4.1c0,0-4.7,0-10.6,0c-54,0-120.4,0-169.5,0c-4.6,0-7.8,0-7.8,0v1.4c0,0,3.2,0,7.8,0
				c49.1,0,115.5,0,169.5,0c6,0,10.6,0,10.6,0l-4.4,4.1l1,1.1l6.3-5.9C274.3,275.9,268,270,268,270L268,270z"/>
			<path fill="#221F1F" d="M268,270L268,270l-1,1.1l4.4,4.1c0,0-4.7,0-10.6,0c-54,0-120.4,0-169.5,0c-4.6,0-7.8,0-7.8,0v1.4
				c0,0,3.2,0,7.8,0c49.1,0,115.5,0,169.5,0c6,0,10.6,0,10.6,0l-4.4,4.1l1,1.1l6.3-5.9C274.3,275.9,268,270,268,270L268,270z"/>
		</g>
		<circle fill="#221F1F" cx="83.5" cy="275.9" r="0.7"/>
		<path fill="#221F1F" d="M268,270L268,270c0.3,0.3,0.3,0.7,0,1c-0.3,0.3-0.7,0.3-1,0c-0.3-0.3-0.3-0.7,0-1l0,0
			C267.2,269.8,267.7,269.8,268,270z"/>
		<path fill="#221F1F" d="M268,280.7c0.3,0.3,0.3,0.7,0,1c0,0,0,0-0.1,0.1c-0.3,0.2-0.6,0.2-0.9,0c0,0,0,0-0.1-0.1
			c-0.3-0.3-0.3-0.7,0-1C267.3,280.5,267.7,280.5,268,280.7z"/>
		<path display="none" fill="none" stroke="#ED358C" stroke-miterlimit="10" d="M90.3,266.9c0,0,0,1.3,0,3.1c0,3.4,0,8.7,0,11.8
			c0,1.4,0,2.4,0,2.4"/>
		<path display="none" fill="none" stroke="#ED358C" stroke-miterlimit="10" d="M261.5,266.9c0,0,0,1.3,0,3.1c0,3.4,0,8.7,0,11.8
			c0,1.4,0,2.4,0,2.4"/>
	</g>
</g>
<g id="step-5">
	<g>
		<g>
			<g id="Template_6_">
				<line fill="none" stroke="#E6E6E6" stroke-miterlimit="10" x1="494.8" y1="293.5" x2="408.6" y2="293.5"/>
			</g>
			<g id="border_15_">
				<path fill="#414141" d="M485.9,255.6c4.4,0,7.9,3.5,7.9,7.9v68.9c0,4.4-3.5,7.9-7.9,7.9H417c-4.4,0-7.9-3.5-7.9-7.9v-68.9
					c0-4.4,3.5-7.9,7.9-7.9H485.9 M485.9,254.9H417c-4.7,0-8.6,3.9-8.6,8.6v68.9c0,4.7,3.9,8.6,8.6,8.6h68.9c4.7,0,8.6-3.9,8.6-8.6
					v-68.9C494.5,258.8,490.7,254.9,485.9,254.9L485.9,254.9z"/>
			</g>
		</g>
		<g>
			<text transform="matrix(1 0 0 1 434.3916 282.3486)" fill="#221F1F" font-family="'HelveticaNeue-Light'" font-size="19.9283">7A9</text>
			<g display="none">
				
					<text transform="matrix(1 0 0 1 423.2871 309.8018)" display="inline" fill="#221F1F" font-family="'ApexNew-Book'" font-size="9.3304">placeholder</text>
				
					<circle display="inline" fill="#73BD46" stroke="#FFFFFF" stroke-width="2" stroke-miterlimit="10" cx="417.6" cy="306.8" r="2.7"/>
			</g>
			<g display="none">
				
					<text transform="matrix(1 0 0 1 423.2871 323.627)" display="inline" fill="#221F1F" font-family="'ApexNew-Book'" font-size="9.3304">placeholder</text>
				
					<circle display="inline" fill="#B93226" stroke="#FFFFFF" stroke-width="2" stroke-miterlimit="10" cx="417.6" cy="320.6" r="2.7"/>
			</g>
		</g>
	</g>
	<g id="XMLID_2_">
		<g>
			
				<polygon fill="none" stroke="#FFFFFF" stroke-width="3" stroke-linecap="round" stroke-linejoin="round" stroke-miterlimit="10" points="
				419.7,256.9 418.3,257 418.5,262.9 392.1,236.5 391.1,237.5 417.5,264 411.4,263.8 411.4,265.2 420.1,265.5 			"/>
			<polygon fill="#221F1F" points="419.7,256.9 418.3,257 418.5,262.9 392.1,236.5 391.1,237.5 417.5,264 411.4,263.8 411.4,265.2 
				420.1,265.5 			"/>
		</g>
		<circle fill="#221F1F" cx="391.6" cy="237" r="0.7"/>
		<circle fill="#221F1F" cx="419" cy="256.9" r="0.7"/>
		<circle fill="#221F1F" cx="411.4" cy="264.5" r="0.7"/>
		<line display="none" fill="none" stroke="#ED358C" stroke-miterlimit="10" x1="402.8" y1="235.5" x2="390.5" y2="247.7"/>
		<line display="none" fill="none" stroke="#ED358C" stroke-miterlimit="10" x1="417.3" y1="250.1" x2="405.1" y2="262.3"/>
	</g>
	<g id="XMLID_4_">
		<g>
			<path fill="none" stroke="#FFFFFF" stroke-width="3" stroke-linecap="round" stroke-linejoin="round" stroke-miterlimit="10" d="
				M415.8,270L415.8,270l-1,1.1l4.4,4.1c0,0-4.7,0-10.6,0c-19.5,0-43.6,0-61.4,0c-4.6,0-7.8,0-7.8,0v1.4c0,0,3.2,0,7.8,0
				c17.8,0,41.8,0,61.4,0c6,0,10.6,0,10.6,0l-4.5,4.1l1,1.1l6.3-5.9C422.1,275.9,415.8,270,415.8,270L415.8,270z"/>
			<path fill="#221F1F" d="M415.8,270L415.8,270l-1,1.1l4.4,4.1c0,0-4.7,0-10.6,0c-19.5,0-43.6,0-61.4,0c-4.6,0-7.8,0-7.8,0v1.4
				c0,0,3.2,0,7.8,0c17.8,0,41.8,0,61.4,0c6,0,10.6,0,10.6,0l-4.5,4.1l1,1.1l6.3-5.9C422.1,275.9,415.8,270,415.8,270L415.8,270z"/>
		</g>
		<circle fill="#221F1F" cx="339.3" cy="275.9" r="0.7"/>
		<path fill="#221F1F" d="M415.8,270L415.8,270c0.3,0.3,0.3,0.7,0,1c-0.3,0.3-0.7,0.3-1,0c-0.3-0.3-0.3-0.7,0-1l0,0
			C415,269.8,415.5,269.8,415.8,270z"/>
		<path fill="#221F1F" d="M415.8,280.7c0.3,0.3,0.3,0.7,0,1c0,0,0,0-0.1,0.1c-0.3,0.2-0.6,0.2-0.9,0c0,0,0,0-0.1-0.1
			c-0.3-0.3-0.3-0.7,0-1C415,280.5,415.5,280.5,415.8,280.7z"/>
		<path display="none" fill="none" stroke="#ED358C" stroke-miterlimit="10" d="M346.2,266.9c0,0,0,1.3,0,3.1c0,3.4,0,8.7,0,11.8
			c0,1.4,0,2.4,0,2.4"/>
		<path display="none" fill="none" stroke="#ED358C" stroke-miterlimit="10" d="M409.3,266.9c0,0,0,1.3,0,3.1c0,3.4,0,8.7,0,11.8
			c0,1.4,0,2.4,0,2.4"/>
	</g>
</g>
</svg>
