<?xml version="1.0" encoding="utf-8"?>
<!-- Generator: Adobe Illustrator 17.0.2, SVG Export Plug-In . SVG Version: 6.00 Build 0)  -->
<!DOCTYPE svg PUBLIC "-//W3C//DTD SVG 1.1//EN" "http://www.w3.org/Graphics/SVG/1.1/DTD/svg11.dtd">
<svg version="1.1" id="Layer_1" xmlns="http://www.w3.org/2000/svg" xmlns:xlink="http://www.w3.org/1999/xlink" x="0px" y="0px"
	 width="629.827px" height="273.427px" viewBox="0 0 629.827 273.427" enable-background="new 0 0 629.827 273.427"
	 xml:space="preserve">
<symbol  id="Simple_Arrow" viewBox="-29.55 -11.513 59.1 24.019">
	<g>
		
			<polygon fill="none" stroke="#FFFFFF" stroke-width="3" stroke-linecap="round" stroke-linejoin="round" stroke-miterlimit="10" points="
			19.254,8.179 17.89,6.715 24.035,1.002 -28.05,1.002 -28.05,-0.998 24.04,-0.998 17.89,-6.713 19.254,-8.178 28.05,0 		"/>
		<polygon fill="#221F1F" points="19.254,8.179 17.89,6.715 24.035,1.002 -28.05,1.002 -28.05,-0.998 24.04,-0.998 17.89,-6.713 
			19.254,-8.178 28.05,0 		"/>
	</g>
	<path fill="#221F1F" d="M-27.05,0.002c0-0.552-0.448-1-1-1c-0.552,0-1,0.448-1,1s0.448,1,1,1
		C-27.497,1.002-27.05,0.554-27.05,0.002z"/>
	<path fill="#221F1F" d="M19.254,8.179c0.391-0.391,0.391-1.024,0-1.414c-0.391-0.391-1.024-0.391-1.414,0
		c-0.391,0.391-0.391,1.024,0,1.414C18.231,8.57,18.864,8.57,19.254,8.179z"/>
	<path fill="#221F1F" d="M19.304-6.713c0.391-0.391,0.391-1.024,0-1.414c-0.391-0.391-1.024-0.391-1.414,0
		c-0.391,0.391-0.391,1.024,0,1.414C18.281-6.323,18.914-6.323,19.304-6.713z"/>
	<line display="none" fill="none" stroke="#ED358C" stroke-miterlimit="10" x1="-18.518" y1="12.506" x2="-18.518" y2="-11.513"/>
	<line display="none" fill="none" stroke="#ED358C" stroke-miterlimit="10" x1="10.232" y1="12.506" x2="10.232" y2="-11.513"/>
</symbol>
<g id="base">
	<g>
		<g id="XMLID_6_">
			<g id="Template_11_">
				<line fill="none" stroke="#E6E6E6" stroke-miterlimit="10" x1="120.387" y1="206.735" x2="0.387" y2="206.735"/>
			</g>
			<g id="border_23_">
				<path fill="#414141" d="M108,153.992c6.065,0,11,4.935,11,11v96c0,6.065-4.935,11-11,11H12c-6.065,0-11-4.935-11-11v-96
					c0-6.065,4.935-11,11-11H108 M108,152.992H12c-6.6,0-12,5.4-12,12v96c0,6.6,5.4,12,12,12h96c6.6,0,12-5.4,12-12v-96
					C120,158.392,114.6,152.992,108,152.992L108,152.992z"/>
			</g>
		</g>
		<g>
			<text transform="matrix(1 0 0 1 35.7049 191.2308)" fill="#221F1F" font-family="'HelveticaNeue-Light'" font-size="27.7481">77B</text>
			<g>
				<text transform="matrix(1 0 0 1 20.7558 229.4568)" fill="#221F1F" font-family="'ApexNew-Book'" font-size="12.9916">home.html</text>
				<circle fill="#73BD46" stroke="#FFFFFF" stroke-width="2" stroke-miterlimit="10" cx="12.732" cy="225.243" r="3.75"/>
			</g>
			<g display="none">
				
					<text transform="matrix(1 0 0 1 20.7558 248.7068)" display="inline" fill="#221F1F" font-family="'ApexNew-Book'" font-size="12.9916">placeholder</text>
				
					<circle display="inline" fill="#B93226" stroke="#FFFFFF" stroke-width="2" stroke-miterlimit="10" cx="12.732" cy="244.493" r="3.75"/>
			</g>
		</g>
	</g>
	<g id="XMLID_4_">
		<g id="Template_10_">
			<line fill="none" stroke="#E6E6E6" stroke-miterlimit="10" x1="120.387" y1="206.735" x2="0.387" y2="206.735"/>
		</g>
		<g id="border_21_">
			<path fill="#414141" d="M108,153.992c6.065,0,11,4.935,11,11v96c0,6.065-4.935,11-11,11H12c-6.065,0-11-4.935-11-11v-96
				c0-6.065,4.935-11,11-11H108 M108,152.992H12c-6.6,0-12,5.4-12,12v96c0,6.6,5.4,12,12,12h96c6.6,0,12-5.4,12-12v-96
				C120,158.392,114.6,152.992,108,152.992L108,152.992z"/>
		</g>
	</g>
	<g>
		<text transform="matrix(1 0 0 1 35.7049 191.2308)" fill="#221F1F" font-family="'HelveticaNeue-Light'" font-size="27.7481">77B</text>
		<g>
			<text transform="matrix(1 0 0 1 20.7558 229.4568)" fill="#221F1F" font-family="'ApexNew-Book'" font-size="12.9916">home.html</text>
			<circle fill="#73BD46" stroke="#FFFFFF" stroke-width="2" stroke-miterlimit="10" cx="12.732" cy="225.243" r="3.75"/>
		</g>
		<g display="none">
			
				<text transform="matrix(1 0 0 1 20.7558 248.7068)" display="inline" fill="#221F1F" font-family="'ApexNew-Book'" font-size="12.9916">placeholder</text>
			
				<circle display="inline" fill="#B93226" stroke="#FFFFFF" stroke-width="2" stroke-miterlimit="10" cx="12.732" cy="244.493" r="3.75"/>
		</g>
	</g>
</g>
<g id="step-1-in-out">
	<g>
		<g>
			<g id="Template_9_">
				<line fill="none" stroke="#E6E6E6" stroke-miterlimit="10" x1="276.399" y1="54.615" x2="156.399" y2="54.615"/>
			</g>
			<g id="border_19_">
				<path fill="#414141" d="M264.012,1.872c6.065,0,11,4.935,11,11v96c0,6.065-4.935,11-11,11h-96c-6.065,0-11-4.935-11-11v-96
					c0-6.065,4.935-11,11-11H264.012 M264.012,0.872h-96c-6.6,0-12,5.4-12,12v96c0,6.6,5.4,12,12,12h96c6.6,0,12-5.4,12-12v-96
					C276.012,6.272,270.613,0.872,264.012,0.872L264.012,0.872z"/>
			</g>
		</g>
		<g>
			<text transform="matrix(1 0 0 1 192.2303 39.1109)" fill="#221F1F" font-family="'HelveticaNeue-Light'" font-size="27.7481">9A1</text>
			<g>
				<text transform="matrix(1 0 0 1 176.768 77.3369)" fill="#221F1F" font-family="'ApexNew-Book'" font-size="12.9916">script/setup</text>
				<circle fill="#73BD46" stroke="#FFFFFF" stroke-width="2" stroke-miterlimit="10" cx="168.744" cy="73.123" r="3.75"/>
			</g>
			<g>
				<text transform="matrix(1 0 0 1 176.768 96.5869)" fill="#221F1F" font-family="'ApexNew-Book'" font-size="12.9916">README.md</text>
				<circle fill="#73BD46" stroke="#FFFFFF" stroke-width="2" stroke-miterlimit="10" cx="168.744" cy="92.373" r="3.75"/>
			</g>
		</g>
	</g>
	<g id="XMLID_1_">
		<g>
			
				<polygon fill="none" stroke="#FFFFFF" stroke-width="3" stroke-linecap="round" stroke-linejoin="round" stroke-miterlimit="10" points="
				147.009,118.308 147.08,120.308 155.465,120.002 118.635,156.832 120.049,158.246 156.882,121.413 156.575,129.803 
				158.575,129.874 159.012,117.872 			"/>
			<polygon fill="#221F1F" points="147.009,118.308 147.08,120.308 155.465,120.002 118.635,156.832 120.049,158.246 
				156.882,121.413 156.575,129.803 158.575,129.874 159.012,117.872 			"/>
		</g>
		<circle fill="#221F1F" cx="119.342" cy="157.539" r="1"/>
		<circle fill="#221F1F" cx="147.009" cy="119.308" r="1"/>
		<circle fill="#221F1F" cx="157.575" cy="129.803" r="1"/>
		<line display="none" fill="none" stroke="#ED358C" stroke-miterlimit="10" x1="117.241" y1="141.957" x2="134.225" y2="158.941"/>
		<line display="none" fill="none" stroke="#ED358C" stroke-miterlimit="10" x1="137.57" y1="121.628" x2="154.554" y2="138.612"/>
	</g>
	<g>
		<g>
			<g>
				<g id="Template_8_">
					<line fill="none" stroke="#E6E6E6" stroke-miterlimit="10" x1="425.064" y1="53.871" x2="305.064" y2="53.871"/>
				</g>
				<g id="border_17_">
					<path fill="#414141" d="M412.678,1.128c6.065,0,11,4.935,11,11v96c0,6.065-4.935,11-11,11h-96c-6.065,0-11-4.935-11-11v-96
						c0-6.065,4.935-11,11-11H412.678 M412.678,0.128h-96c-6.6,0-12,5.4-12,12v96c0,6.6,5.4,12,12,12h96c6.6,0,12-5.4,12-12v-96
						C424.678,5.528,419.278,0.128,412.678,0.128L412.678,0.128z"/>
				</g>
			</g>
			<g>
				<text transform="matrix(1 0 0 1 338.0793 38.3677)" fill="#221F1F" font-family="'HelveticaNeue-Light'" font-size="27.7481">8DC</text>
				<g>
					<text transform="matrix(1 0 0 1 325.4334 76.5936)" fill="#221F1F" font-family="'ApexNew-Book'" font-size="12.9916">script/update</text>
					<circle fill="#73BD46" stroke="#FFFFFF" stroke-width="2" stroke-miterlimit="10" cx="317.41" cy="72.38" r="3.75"/>
				</g>
				<g display="none">
					
						<text transform="matrix(1 0 0 1 325.4334 95.8436)" display="inline" fill="#221F1F" font-family="'ApexNew-Book'" font-size="12.9916">team.jpg</text>
					
						<circle display="inline" fill="#73BD46" stroke="#FFFFFF" stroke-width="2" stroke-miterlimit="10" cx="317.41" cy="91.63" r="3.75"/>
				</g>
			</g>
		</g>
		
			<use xlink:href="#Simple_Arrow"  width="59.1" height="24.019" x="-29.55" y="-11.513" transform="matrix(1 0 0 -1 294.4308 29.1919)" overflow="visible"/>
		<g>
			<g id="Template_6_">
				<line fill="none" stroke="#E6E6E6" stroke-miterlimit="10" x1="425.064" y1="53.871" x2="305.064" y2="53.871"/>
			</g>
			<g id="border_15_">
				<path fill="#414141" d="M412.678,1.128c6.065,0,11,4.935,11,11v96c0,6.065-4.935,11-11,11h-96c-6.065,0-11-4.935-11-11v-96
					c0-6.065,4.935-11,11-11H412.678 M412.678,0.128h-96c-6.6,0-12,5.4-12,12v96c0,6.6,5.4,12,12,12h96c6.6,0,12-5.4,12-12v-96
					C424.678,5.528,419.278,0.128,412.678,0.128L412.678,0.128z"/>
			</g>
		</g>
		<text transform="matrix(1 0 0 1 338.0793 38.3677)" fill="#221F1F" font-family="'HelveticaNeue-Light'" font-size="27.7481">8DC</text>
		<g>
			<text transform="matrix(1 0 0 1 325.4334 76.5936)" fill="#221F1F" font-family="'ApexNew-Book'" font-size="12.9916">script/update</text>
			<circle fill="#73BD46" stroke="#FFFFFF" stroke-width="2" stroke-miterlimit="10" cx="317.41" cy="72.38" r="3.75"/>
		</g>
		<g>
			<g>
				
					<polygon fill="none" stroke="#FFFFFF" stroke-width="3" stroke-linecap="round" stroke-linejoin="round" stroke-miterlimit="10" points="
					313.685,21.012 312.321,22.477 318.466,28.19 266.381,28.19 266.381,30.19 318.471,30.19 312.321,35.905 313.685,37.37 
					322.481,29.192 				"/>
				<polygon fill="#221F1F" points="313.685,21.012 312.321,22.477 318.466,28.19 266.381,28.19 266.381,30.19 318.471,30.19 
					312.321,35.905 313.685,37.37 322.481,29.192 				"/>
			</g>
			<circle fill="#221F1F" cx="266.381" cy="29.19" r="1"/>
			<circle fill="#221F1F" cx="312.978" cy="21.719" r="1"/>
			<circle fill="#221F1F" cx="313.028" cy="36.612" r="1"/>
			<line display="none" fill="none" stroke="#ED358C" stroke-miterlimit="10" x1="275.913" y1="16.686" x2="275.913" y2="40.705"/>
			<line display="none" fill="none" stroke="#ED358C" stroke-miterlimit="10" x1="304.663" y1="16.686" x2="304.663" y2="40.705"/>
		</g>
	</g>
	<g>
		<g>
			<g>
				<g id="Template_5_">
					<line fill="none" stroke="#E6E6E6" stroke-miterlimit="10" x1="573.187" y1="53.744" x2="453.187" y2="53.744"/>
				</g>
				<g id="border_13_">
					<path fill="#414141" d="M560.801,1c6.065,0,11,4.935,11,11v96c0,6.065-4.935,11-11,11h-96c-6.065,0-11-4.935-11-11V12
						c0-6.065,4.935-11,11-11H560.801 M560.801,0h-96c-6.6,0-12,5.4-12,12v96c0,6.6,5.4,12,12,12h96c6.6,0,12-5.4,12-12V12
						C572.801,5.4,567.401,0,560.801,0L560.801,0z"/>
				</g>
			</g>
			<g>
				<text transform="matrix(1 0 0 1 490.3096 38.2393)" fill="#221F1F" font-family="'HelveticaNeue-Light'" font-size="27.7481">65F</text>
				<g>
					<text transform="matrix(1 0 0 1 473.5568 76.4653)" fill="#221F1F" font-family="'ApexNew-Book'" font-size="12.9916">script/server</text>
					<circle fill="#73BD46" stroke="#FFFFFF" stroke-width="2" stroke-miterlimit="10" cx="465.533" cy="72.251" r="3.75"/>
				</g>
				<g display="none">
					
						<text transform="matrix(1 0 0 1 473.5568 95.7153)" display="inline" fill="#221F1F" font-family="'ApexNew-Book'" font-size="12.9916">about.html</text>
					
						<circle display="inline" fill="#73BD46" stroke="#FFFFFF" stroke-width="2" stroke-miterlimit="10" cx="465.533" cy="91.501" r="3.75"/>
				</g>
			</g>
		</g>
		
			<use xlink:href="#Simple_Arrow"  width="59.1" height="24.019" x="-29.55" y="-11.513" transform="matrix(1 0 0 -1 443.0066 29.1919)" overflow="visible"/>
		<g>
			<text transform="matrix(1 0 0 1 490.3096 38.2393)" fill="#221F1F" font-family="'HelveticaNeue-Light'" font-size="27.7481">65F</text>
			<g>
				<text transform="matrix(1 0 0 1 473.5568 76.4653)" fill="#221F1F" font-family="'ApexNew-Book'" font-size="12.9916">script/server</text>
				<circle fill="#73BD46" stroke="#FFFFFF" stroke-width="2" stroke-miterlimit="10" cx="465.533" cy="72.251" r="3.75"/>
			</g>
			<g display="none">
				
					<text transform="matrix(1 0 0 1 473.5568 95.7153)" display="inline" fill="#221F1F" font-family="'ApexNew-Book'" font-size="12.9916">about.html</text>
				
					<circle display="inline" fill="#73BD46" stroke="#FFFFFF" stroke-width="2" stroke-miterlimit="10" cx="465.533" cy="91.501" r="3.75"/>
			</g>
		</g>
		<g>
			<g>
				
					<polygon fill="none" stroke="#FFFFFF" stroke-width="3" stroke-linecap="round" stroke-linejoin="round" stroke-miterlimit="10" points="
					462.26,21.012 460.896,22.477 467.042,28.19 414.956,28.19 414.956,30.19 467.046,30.19 460.896,35.905 462.26,37.37 
					471.056,29.192 				"/>
				<polygon fill="#221F1F" points="462.26,21.012 460.896,22.477 467.042,28.19 414.956,28.19 414.956,30.19 467.046,30.19 
					460.896,35.905 462.26,37.37 471.056,29.192 				"/>
			</g>
			<circle fill="#221F1F" cx="414.956" cy="29.19" r="1"/>
			<circle fill="#221F1F" cx="461.553" cy="21.719" r="1"/>
			<circle fill="#221F1F" cx="461.603" cy="36.612" r="1"/>
			<line display="none" fill="none" stroke="#ED358C" stroke-miterlimit="10" x1="424.489" y1="16.686" x2="424.489" y2="40.705"/>
			<line display="none" fill="none" stroke="#ED358C" stroke-miterlimit="10" x1="453.239" y1="16.686" x2="453.239" y2="40.705"/>
		</g>
	</g>
	<text transform="matrix(1.0483 0 0 1 580.0361 34.6123)" fill="#BABCBE" font-family="'ApexNew-Book'" font-size="14">feature</text>
	<text transform="matrix(1.0483 0 0 1 130.0362 185.6227)" fill="#BABCBE" font-family="'ApexNew-Book'" font-size="14">master</text>
</g>
<g id="step-2">
	<g>
		
			<use xlink:href="#Simple_Arrow"  width="59.1" height="24.019" id="XMLID_3_" x="-29.55" y="-11.513" transform="matrix(1 0 0 -1 138.6293 181.7476)" overflow="visible"/>
		<g>
			<g>
				<g id="Template_4_">
					<line fill="none" stroke="#E6E6E6" stroke-miterlimit="10" x1="268.248" y1="207.171" x2="148.248" y2="207.171"/>
				</g>
				<g id="border_11_">
					<path fill="#414141" d="M255.861,154.428c6.065,0,11,4.935,11,11v96c0,6.065-4.935,11-11,11h-96c-6.065,0-11-4.935-11-11v-96
						c0-6.065,4.935-11,11-11H255.861 M255.861,153.428h-96c-6.6,0-12,5.4-12,12v96c0,6.6,5.4,12,12,12h96c6.6,0,12-5.4,12-12v-96
						C267.861,158.827,262.461,153.428,255.861,153.428L255.861,153.428z"/>
				</g>
			</g>
			<g>
				<text transform="matrix(1 0 0 1 184.0793 191.6666)" fill="#221F1F" font-family="'HelveticaNeue-Light'" font-size="27.7481">9A1</text>
				<g>
					<text transform="matrix(1 0 0 1 168.6169 229.8925)" fill="#221F1F" font-family="'ApexNew-Book'" font-size="12.9916">script/setup</text>
					<circle fill="#73BD46" stroke="#FFFFFF" stroke-width="2" stroke-miterlimit="10" cx="160.593" cy="225.678" r="3.75"/>
				</g>
				<g>
					<text transform="matrix(1 0 0 1 168.6169 249.1425)" fill="#221F1F" font-family="'ApexNew-Book'" font-size="12.9916">README.md</text>
					<circle fill="#73BD46" stroke="#FFFFFF" stroke-width="2" stroke-miterlimit="10" cx="160.593" cy="244.928" r="3.75"/>
				</g>
			</g>
		</g>
		<g id="XMLID_2_">
			<g>
				
					<polygon fill="none" stroke="#FFFFFF" stroke-width="3" stroke-linecap="round" stroke-linejoin="round" stroke-miterlimit="10" points="
					157.883,173.568 156.519,175.033 162.665,180.746 110.58,180.746 110.58,182.746 162.669,182.746 156.519,188.461 
					157.883,189.926 166.679,181.748 				"/>
				<polygon fill="#221F1F" points="157.883,173.568 156.519,175.033 162.665,180.746 110.58,180.746 110.58,182.746 
					162.669,182.746 156.519,188.461 157.883,189.926 166.679,181.748 				"/>
			</g>
			<circle fill="#221F1F" cx="110.58" cy="181.746" r="1"/>
			<circle fill="#221F1F" cx="157.176" cy="174.276" r="1"/>
			<circle fill="#221F1F" cx="157.226" cy="189.168" r="1"/>
			
				<line display="none" fill="none" stroke="#ED358C" stroke-miterlimit="10" x1="120.112" y1="169.242" x2="120.112" y2="193.261"/>
			
				<line display="none" fill="none" stroke="#ED358C" stroke-miterlimit="10" x1="148.862" y1="169.242" x2="148.862" y2="193.261"/>
		</g>
	</g>
	<g>
		<g>
			<g>
				<g id="Template_3_">
					<line fill="none" stroke="#E6E6E6" stroke-miterlimit="10" x1="416.913" y1="206.428" x2="296.913" y2="206.428"/>
				</g>
				<g id="border_9_">
					<path fill="#414141" d="M404.526,153.684c6.065,0,11,4.935,11,11v96c0,6.065-4.935,11-11,11h-96c-6.065,0-11-4.935-11-11v-96
						c0-6.065,4.935-11,11-11H404.526 M404.526,152.684h-96c-6.6,0-12,5.4-12,12v96c0,6.6,5.4,12,12,12h96c6.6,0,12-5.4,12-12v-96
						C416.526,158.084,411.126,152.684,404.526,152.684L404.526,152.684z"/>
				</g>
			</g>
			<g>
				<text transform="matrix(1 0 0 1 329.9282 190.9233)" fill="#221F1F" font-family="'HelveticaNeue-Light'" font-size="27.7481">8DC</text>
				<g>
					<text transform="matrix(1 0 0 1 317.2823 229.1493)" fill="#221F1F" font-family="'ApexNew-Book'" font-size="12.9916">script/update</text>
					<circle fill="#73BD46" stroke="#FFFFFF" stroke-width="2" stroke-miterlimit="10" cx="309.259" cy="224.935" r="3.75"/>
				</g>
				<g display="none">
					
						<text transform="matrix(1 0 0 1 317.2823 248.3993)" display="inline" fill="#221F1F" font-family="'ApexNew-Book'" font-size="12.9916">team.jpg</text>
					
						<circle display="inline" fill="#73BD46" stroke="#FFFFFF" stroke-width="2" stroke-miterlimit="10" cx="309.259" cy="244.185" r="3.75"/>
				</g>
			</g>
		</g>
		
			<use xlink:href="#Simple_Arrow"  width="59.1" height="24.019" x="-29.55" y="-11.513" transform="matrix(1 0 0 -1 286.2797 181.7476)" overflow="visible"/>
		<g>
			<g id="Template_2_">
				<line fill="none" stroke="#E6E6E6" stroke-miterlimit="10" x1="416.913" y1="206.428" x2="296.913" y2="206.428"/>
			</g>
			<g id="border_7_">
				<path fill="#414141" d="M404.526,153.684c6.065,0,11,4.935,11,11v96c0,6.065-4.935,11-11,11h-96c-6.065,0-11-4.935-11-11v-96
					c0-6.065,4.935-11,11-11H404.526 M404.526,152.684h-96c-6.6,0-12,5.4-12,12v96c0,6.6,5.4,12,12,12h96c6.6,0,12-5.4,12-12v-96
					C416.526,158.084,411.126,152.684,404.526,152.684L404.526,152.684z"/>
			</g>
		</g>
		<text transform="matrix(1 0 0 1 329.9282 190.9233)" fill="#221F1F" font-family="'HelveticaNeue-Light'" font-size="27.7481">8DC</text>
		<g>
			<text transform="matrix(1 0 0 1 317.2823 229.1493)" fill="#221F1F" font-family="'ApexNew-Book'" font-size="12.9916">script/update</text>
			<circle fill="#73BD46" stroke="#FFFFFF" stroke-width="2" stroke-miterlimit="10" cx="309.259" cy="224.935" r="3.75"/>
		</g>
		<g>
			<g>
				
					<polygon fill="none" stroke="#FFFFFF" stroke-width="3" stroke-linecap="round" stroke-linejoin="round" stroke-miterlimit="10" points="
					305.534,173.568 304.17,175.033 310.315,180.746 258.23,180.746 258.23,182.746 310.32,182.746 304.17,188.461 305.534,189.926 
					314.33,181.748 				"/>
				<polygon fill="#221F1F" points="305.534,173.568 304.17,175.033 310.315,180.746 258.23,180.746 258.23,182.746 310.32,182.746 
					304.17,188.461 305.534,189.926 314.33,181.748 				"/>
			</g>
			<circle fill="#221F1F" cx="258.23" cy="181.746" r="1"/>
			<circle fill="#221F1F" cx="304.827" cy="174.276" r="1"/>
			<circle fill="#221F1F" cx="304.877" cy="189.168" r="1"/>
			
				<line display="none" fill="none" stroke="#ED358C" stroke-miterlimit="10" x1="267.762" y1="169.242" x2="267.762" y2="193.261"/>
			
				<line display="none" fill="none" stroke="#ED358C" stroke-miterlimit="10" x1="296.512" y1="169.242" x2="296.512" y2="193.261"/>
		</g>
	</g>
	<g>
		<g>
			<g>
				<g id="Template_1_">
					<line fill="none" stroke="#E6E6E6" stroke-miterlimit="10" x1="565.037" y1="206.299" x2="445.037" y2="206.299"/>
				</g>
				<g id="border_1_">
					<path fill="#414141" d="M552.65,153.555c6.065,0,11,4.935,11,11v96c0,6.065-4.935,11-11,11h-96c-6.065,0-11-4.935-11-11v-96
						c0-6.065,4.935-11,11-11H552.65 M552.65,152.555h-96c-6.6,0-12,5.4-12,12v96c0,6.6,5.4,12,12,12h96c6.6,0,12-5.4,12-12v-96
						C564.65,157.955,559.25,152.555,552.65,152.555L552.65,152.555z"/>
				</g>
			</g>
			<g>
				<text transform="matrix(1 0 0 1 482.1585 190.795)" fill="#221F1F" font-family="'HelveticaNeue-Light'" font-size="27.7481">65F</text>
				<g>
					<text transform="matrix(1 0 0 1 465.4057 229.0209)" fill="#221F1F" font-family="'ApexNew-Book'" font-size="12.9916">script/server</text>
					<circle fill="#73BD46" stroke="#FFFFFF" stroke-width="2" stroke-miterlimit="10" cx="457.382" cy="224.807" r="3.75"/>
				</g>
				<g display="none">
					
						<text transform="matrix(1 0 0 1 465.4057 248.2709)" display="inline" fill="#221F1F" font-family="'ApexNew-Book'" font-size="12.9916">about.html</text>
					
						<circle display="inline" fill="#73BD46" stroke="#FFFFFF" stroke-width="2" stroke-miterlimit="10" cx="457.382" cy="244.057" r="3.75"/>
				</g>
			</g>
		</g>
		
			<use xlink:href="#Simple_Arrow"  width="59.1" height="24.019" x="-29.55" y="-11.513" transform="matrix(1 0 0 -1 434.8554 181.7476)" overflow="visible"/>
		<g>
			<text transform="matrix(1 0 0 1 482.1585 190.795)" fill="#221F1F" font-family="'HelveticaNeue-Light'" font-size="27.7481">65F</text>
			<g>
				<text transform="matrix(1 0 0 1 465.4057 229.0209)" fill="#221F1F" font-family="'ApexNew-Book'" font-size="12.9916">script/server</text>
				<circle fill="#73BD46" stroke="#FFFFFF" stroke-width="2" stroke-miterlimit="10" cx="457.382" cy="224.807" r="3.75"/>
			</g>
			<g display="none">
				
					<text transform="matrix(1 0 0 1 465.4057 248.2709)" display="inline" fill="#221F1F" font-family="'ApexNew-Book'" font-size="12.9916">about.html</text>
				
					<circle display="inline" fill="#73BD46" stroke="#FFFFFF" stroke-width="2" stroke-miterlimit="10" cx="457.382" cy="244.057" r="3.75"/>
			</g>
		</g>
		<g>
			<g>
				
					<polygon fill="none" stroke="#FFFFFF" stroke-width="3" stroke-linecap="round" stroke-linejoin="round" stroke-miterlimit="10" points="
					454.11,173.568 452.746,175.033 458.891,180.746 406.806,180.746 406.806,182.746 458.896,182.746 452.746,188.461 
					454.11,189.926 462.906,181.748 				"/>
				<polygon fill="#221F1F" points="454.11,173.568 452.746,175.033 458.891,180.746 406.806,180.746 406.806,182.746 
					458.896,182.746 452.746,188.461 454.11,189.926 462.906,181.748 				"/>
			</g>
			<circle fill="#221F1F" cx="406.806" cy="181.746" r="1"/>
			<circle fill="#221F1F" cx="453.403" cy="174.276" r="1"/>
			<circle fill="#221F1F" cx="453.453" cy="189.168" r="1"/>
			
				<line display="none" fill="none" stroke="#ED358C" stroke-miterlimit="10" x1="416.338" y1="169.242" x2="416.338" y2="193.261"/>
			
				<line display="none" fill="none" stroke="#ED358C" stroke-miterlimit="10" x1="445.088" y1="169.242" x2="445.088" y2="193.261"/>
		</g>
	</g>
	<g id="ff_arrow">
		<g>
			<path fill="none" stroke="#FFFFFF" stroke-width="3" d="M183.641,59.023c-0.473,0-0.857-0.448-0.857-1c0-0.552,0.383-1,0.857-1
				h363.2c0,0.667,0,1.333,0,2H183.641z"/>
			<path fill="#BBBDBF" d="M183.641,59.023c-0.473,0-0.857-0.448-0.857-1c0-0.552,0.383-1,0.857-1h363.2c0,0.667,0,1.333,0,2
				H183.641z"/>
		</g>
		<g>
			<g>
				<path fill="none" stroke="#FFFFFF" stroke-width="3" d="M597.787,144.831c0,0.048-0.448,0.087-1,0.087c-0.552,0-1-0.039-1-0.087
					v-36.862c0.667,0,1.333,0,2,0V144.831z"/>
				<path fill="#BBBDBF" d="M597.787,144.831c0,0.048-0.448,0.087-1,0.087c-0.552,0-1-0.039-1-0.087v-36.862c0.667,0,1.333,0,2,0
					V144.831z"/>
			</g>
			<path fill="#BBBDBF" d="M596.817,159.746l-8.18-8.796c-0.391-0.391-0.391-1.024,0-1.414c0.391-0.391,1.024-0.391,1.414,0
				c0.018,0.018,0.024,0.041,0.04,0.06l0.011-0.01l5.713,6.145v-10.868c0.667,0,1.333,0,2,0v10.872l5.715-6.15
				c0.391-0.391,1.024-0.391,1.414,0c0.373,0.373,0.379,0.961,0.04,1.354l0.011,0.01L596.817,159.746z"/>
			<g>
				<path fill="none" stroke="#FFFFFF" stroke-width="5" stroke-miterlimit="10" d="M596.787,107.969
					c0-27.584-22.362-49.946-49.946-49.946"/>
				<path fill="none" stroke="#BBBDBF" stroke-width="2" stroke-miterlimit="10" d="M596.787,107.969
					c0-27.584-22.362-49.946-49.946-49.946"/>
			</g>
		</g>
		<g>
			<path fill="none" stroke="#FFFFFF" stroke-width="3" d="M132.839,173.122c0,0.085,0.448,0.154,1,0.154c0.552,0,1-0.069,1-0.154
				v-65.153c-0.667,0-1.333,0-2,0V173.122z"/>
			<path fill="#BBBDBF" d="M132.839,173.122c0,0.085,0.448,0.154,1,0.154c0.552,0,1-0.069,1-0.154v-65.153c-0.667,0-1.333,0-2,0
				V173.122z"/>
		</g>
		<g>
			<path fill="none" stroke="#FFFFFF" stroke-width="5" stroke-miterlimit="10" d="M133.839,107.969
				c0-27.584,22.362-49.946,49.946-49.946"/>
			<path fill="none" stroke="#BBBDBF" stroke-width="2" stroke-miterlimit="10" d="M133.839,107.969
				c0-27.584,22.362-49.946,49.946-49.946"/>
		</g>
	</g>
	<text transform="matrix(1.0483 0 0 1 576.0361 192.2988)" fill="#BABCBE" font-family="'ApexNew-Book'" font-size="14">feature</text>
	<text transform="matrix(1.0483 0 0 1 576.0362 178.6227)" fill="#BABCBE" font-family="'ApexNew-Book'" font-size="14">master</text>
</g>
<g id="boundary">
	<path fill="none" stroke="#BBBDBF" stroke-width="5" stroke-miterlimit="10" d="M0,0l0,273.427l629.827,0l0-273.427L0,0z
		 M388.976,255.011c0-5.116,0-10.231,0-15.347C388.976,244.779,388.976,249.895,388.976,255.011z"/>
</g>
</svg>
