<?xml version="1.0" encoding="utf-8"?>
<!-- Generator: Adobe Illustrator 17.0.2, SVG Export Plug-In . SVG Version: 6.00 Build 0)  -->
<!DOCTYPE svg PUBLIC "-//W3C//DTD SVG 1.1//EN" "http://www.w3.org/Graphics/SVG/1.1/DTD/svg11.dtd">
<svg version="1.1" id="Layer_1" xmlns="http://www.w3.org/2000/svg" xmlns:xlink="http://www.w3.org/1999/xlink" x="0px" y="0px"
	 width="696.215px" height="267.242px" viewBox="0 0 696.215 267.242" enable-background="new 0 0 696.215 267.242"
	 xml:space="preserve">
<g id="boundary">
	<rect x="0" y="0" fill="none" stroke="#F70047" stroke-width="3" stroke-miterlimit="10" width="696.215" height="267.242"/>
</g>
<g id="base">
	<g id="XMLID_6_">
		<g id="Template_5_">
			<line fill="none" stroke="#E6E6E6" stroke-miterlimit="10" x1="126.031" y1="194.147" x2="6.031" y2="194.147"/>
		</g>
		<g id="border_13_">
			<path fill="#414141" d="M113.644,141.403c6.065,0,11,4.935,11,11v96c0,6.065-4.935,11-11,11h-96c-6.065,0-11-4.935-11-11v-96
				c0-6.065,4.935-11,11-11H113.644 M113.644,140.403h-96c-6.6,0-12,5.4-12,12v96c0,6.6,5.4,12,12,12h96c6.6,0,12-5.4,12-12v-96
				C125.644,145.803,120.244,140.403,113.644,140.403L113.644,140.403z"/>
		</g>
	</g>
	<g>
		<text transform="matrix(1 0 0 1 43.1528 178.6422)" fill="#221F1F" font-family="'HelveticaNeue-Light'" font-size="27.7481">5F3</text>
		<g>
			<text transform="matrix(1 0 0 1 26.4 216.8682)" fill="#221F1F" font-family="'ApexNew-Book'" font-size="12.9916">README.md</text>
			<circle fill="#73BD46" stroke="#FFFFFF" stroke-width="2" stroke-miterlimit="10" cx="18.376" cy="212.654" r="3.75"/>
		</g>
		<g display="none">
			
				<text transform="matrix(1 0 0 1 26.4 236.1182)" display="inline" fill="#221F1F" font-family="'ApexNew-Book'" font-size="12.9916">placeholder</text>
			
				<circle display="inline" fill="#B93226" stroke="#FFFFFF" stroke-width="2" stroke-miterlimit="10" cx="18.376" cy="231.904" r="3.75"/>
		</g>
	</g>
</g>
<g id="step-1">
	<g>
		<g>
			<g id="Template_1_">
				<line fill="none" stroke="#E6E6E6" stroke-miterlimit="10" x1="259.031" y1="59.203" x2="139.031" y2="59.203"/>
			</g>
			<g id="border_1_">
				<path fill="#414141" d="M246.644,6.46c6.065,0,11,4.935,11,11v96c0,6.065-4.935,11-11,11h-96c-6.065,0-11-4.935-11-11v-96
					c0-6.065,4.935-11,11-11H246.644 M246.644,5.46h-96c-6.6,0-12,5.4-12,12v96c0,6.6,5.4,12,12,12h96c6.6,0,12-5.4,12-12v-96
					C258.644,10.86,253.244,5.46,246.644,5.46L246.644,5.46z"/>
			</g>
		</g>
		<g>
			<text transform="matrix(1 0 0 1 175.3752 43.6994)" fill="#221F1F" font-family="'HelveticaNeue-Light'" font-size="27.7481">7E2</text>
			<g>
				<text transform="matrix(1 0 0 1 159.3997 81.9254)" fill="#221F1F" font-family="'ApexNew-Book'" font-size="12.9916">about.html</text>
				<circle fill="#73BD46" stroke="#FFFFFF" stroke-width="2" stroke-miterlimit="10" cx="151.376" cy="77.711" r="3.75"/>
			</g>
			<g display="none">
				
					<text transform="matrix(1 0 0 1 159.3997 101.1754)" display="inline" fill="#221F1F" font-family="'ApexNew-Book'" font-size="12.9916">placeholder</text>
				
					<circle display="inline" fill="#B93226" stroke="#FFFFFF" stroke-width="2" stroke-miterlimit="10" cx="151.376" cy="96.961" r="3.75"/>
			</g>
		</g>
	</g>
	<g id="XMLID_3_">
		<g>
			
				<polygon fill="none" stroke="#FFFFFF" stroke-width="3" stroke-linecap="round" stroke-linejoin="round" stroke-miterlimit="10" points="
				142.873,109.96 142.944,111.96 151.328,111.654 114.499,148.484 115.913,149.898 152.746,113.065 152.439,121.455 
				154.439,121.526 154.876,109.524 			"/>
			<polygon fill="#221F1F" points="142.873,109.96 142.944,111.96 151.328,111.654 114.499,148.484 115.913,149.898 
				152.746,113.065 152.439,121.455 154.439,121.526 154.876,109.524 			"/>
		</g>
		<circle fill="#221F1F" cx="115.206" cy="149.191" r="1"/>
		<circle fill="#221F1F" cx="142.873" cy="110.96" r="1"/>
		<circle fill="#221F1F" cx="153.439" cy="121.455" r="1"/>
		<line display="none" fill="none" stroke="#ED358C" stroke-miterlimit="10" x1="113.104" y1="133.609" x2="130.089" y2="150.593"/>
		<line display="none" fill="none" stroke="#ED358C" stroke-miterlimit="10" x1="133.434" y1="113.28" x2="150.418" y2="130.264"/>
	</g>
</g>
<g id="step-2">
	<g>
		<g>
			<g id="Template_3_">
				<line fill="none" stroke="#E6E6E6" stroke-miterlimit="10" x1="407.696" y1="59.46" x2="287.696" y2="59.46"/>
			</g>
			<g id="border_9_">
				<path fill="#414141" d="M395.31,6.717c6.065,0,11,4.935,11,11v96c0,6.065-4.935,11-11,11h-96c-6.065,0-11-4.935-11-11v-96
					c0-6.065,4.935-11,11-11H395.31 M395.31,5.717h-96c-6.6,0-12,5.4-12,12v96c0,6.6,5.4,12,12,12h96c6.6,0,12-5.4,12-12v-96
					C407.31,11.117,401.91,5.717,395.31,5.717L395.31,5.717z"/>
			</g>
		</g>
		<g>
			<text transform="matrix(1 0 0 1 323.0143 43.9562)" fill="#221F1F" font-family="'HelveticaNeue-Light'" font-size="27.7481">B15</text>
			<g>
				<text transform="matrix(1 0 0 1 308.0652 82.1821)" fill="#221F1F" font-family="'ApexNew-Book'" font-size="12.9916">office.geojson</text>
				<circle fill="#73BD46" stroke="#FFFFFF" stroke-width="2" stroke-miterlimit="10" cx="300.042" cy="77.968" r="3.75"/>
			</g>
			<g>
				<text transform="matrix(1 0 0 1 308.0652 101.4321)" fill="#221F1F" font-family="'ApexNew-Book'" font-size="12.9916">team.jpg</text>
				<circle fill="#73BD46" stroke="#FFFFFF" stroke-width="2" stroke-miterlimit="10" cx="300.042" cy="97.218" r="3.75"/>
			</g>
		</g>
	</g>
	<g>
		<g>
			
				<polygon fill="none" stroke="#FFFFFF" stroke-width="3" stroke-linecap="round" stroke-linejoin="round" stroke-miterlimit="10" points="
				296.316,26.601 294.952,28.066 301.098,33.779 249.012,33.779 249.012,35.779 301.102,35.779 294.952,41.494 296.316,42.959 
				305.112,34.781 			"/>
			<polygon fill="#221F1F" points="296.316,26.601 294.952,28.066 301.098,33.779 249.012,33.779 249.012,35.779 301.102,35.779 
				294.952,41.494 296.316,42.959 305.112,34.781 			"/>
		</g>
		<circle fill="#221F1F" cx="249.012" cy="34.779" r="1"/>
		<circle fill="#221F1F" cx="295.609" cy="27.308" r="1"/>
		<circle fill="#221F1F" cx="295.659" cy="42.201" r="1"/>
		<line display="none" fill="none" stroke="#ED358C" stroke-miterlimit="10" x1="258.545" y1="22.275" x2="258.545" y2="46.294"/>
		<line display="none" fill="none" stroke="#ED358C" stroke-miterlimit="10" x1="287.295" y1="22.275" x2="287.295" y2="46.294"/>
	</g>
</g>
<g id="step-3">
	<g>
		<g>
			<g id="Template_2_">
				<line fill="none" stroke="#E6E6E6" stroke-miterlimit="10" x1="555.82" y1="59.332" x2="435.82" y2="59.332"/>
			</g>
			<g id="border_7_">
				<path fill="#414141" d="M543.433,6.588c6.065,0,11,4.935,11,11v96c0,6.065-4.935,11-11,11h-96c-6.065,0-11-4.935-11-11v-96
					c0-6.065,4.935-11,11-11H543.433 M543.433,5.588h-96c-6.6,0-12,5.4-12,12v96c0,6.6,5.4,12,12,12h96c6.6,0,12-5.4,12-12v-96
					C555.433,10.988,550.033,5.588,543.433,5.588L543.433,5.588z"/>
			</g>
		</g>
		<g>
			<text transform="matrix(1 0 0 1 472.1639 43.8278)" fill="#221F1F" font-family="'HelveticaNeue-Light'" font-size="27.7481">E38</text>
			<g>
				<text transform="matrix(1 0 0 1 456.1885 82.0537)" fill="#221F1F" font-family="'ApexNew-Book'" font-size="12.9916">contact.vcf</text>
				<circle fill="#73BD46" stroke="#FFFFFF" stroke-width="2" stroke-miterlimit="10" cx="448.165" cy="77.84" r="3.75"/>
			</g>
			<g>
				<text transform="matrix(1 0 0 1 456.1885 101.3037)" fill="#221F1F" font-family="'ApexNew-Book'" font-size="12.9916">about.html</text>
				<circle fill="#73BD46" stroke="#FFFFFF" stroke-width="2" stroke-miterlimit="10" cx="448.165" cy="97.09" r="3.75"/>
			</g>
		</g>
	</g>
	<g>
		<g>
			
				<polygon fill="none" stroke="#FFFFFF" stroke-width="3" stroke-linecap="round" stroke-linejoin="round" stroke-miterlimit="10" points="
				444.893,26.601 443.528,28.066 449.674,33.779 397.589,33.779 397.589,35.779 449.678,35.779 443.528,41.494 444.893,42.959 
				453.689,34.781 			"/>
			<polygon fill="#221F1F" points="444.893,26.601 443.528,28.066 449.674,33.779 397.589,33.779 397.589,35.779 449.678,35.779 
				443.528,41.494 444.893,42.959 453.689,34.781 			"/>
		</g>
		<circle fill="#221F1F" cx="397.589" cy="34.779" r="1"/>
		<circle fill="#221F1F" cx="444.186" cy="27.308" r="1"/>
		<circle fill="#221F1F" cx="444.235" cy="42.201" r="1"/>
		<line display="none" fill="none" stroke="#ED358C" stroke-miterlimit="10" x1="407.121" y1="22.275" x2="407.121" y2="46.294"/>
		<line display="none" fill="none" stroke="#ED358C" stroke-miterlimit="10" x1="435.871" y1="22.275" x2="435.871" y2="46.294"/>
	</g>
</g>
<g id="step-4">
	<g>
		<g>
			<g id="Template_4_">
				<line fill="none" stroke="#E6E6E6" stroke-miterlimit="10" x1="483.502" y1="194.147" x2="363.502" y2="194.147"/>
			</g>
			<g id="border_11_">
				<path fill="#414141" d="M471.116,141.403c6.065,0,11,4.935,11,11v96c0,6.065-4.935,11-11,11h-96c-6.065,0-11-4.935-11-11v-96
					c0-6.065,4.935-11,11-11H471.116 M471.116,140.403h-96c-6.6,0-12,5.4-12,12v96c0,6.6,5.4,12,12,12h96c6.6,0,12-5.4,12-12v-96
					C483.116,145.803,477.716,140.403,471.116,140.403L471.116,140.403z"/>
			</g>
		</g>
		<g>
			<text transform="matrix(1 0 0 1 400.3606 178.6422)" fill="#221F1F" font-family="'HelveticaNeue-Light'" font-size="27.7481">826</text>
			<g>
				<text transform="matrix(1 0 0 1 383.8719 216.8681)" fill="#221F1F" font-family="'ApexNew-Book'" font-size="12.9916">CONTRIB.md</text>
				<circle fill="#73BD46" stroke="#FFFFFF" stroke-width="2" stroke-miterlimit="10" cx="375.848" cy="212.654" r="3.75"/>
			</g>
			<g>
				<text transform="matrix(1 0 0 1 383.8719 236.1181)" fill="#221F1F" font-family="'ApexNew-Book'" font-size="12.9916">notes.txt</text>
				<circle fill="#B93226" stroke="#FFFFFF" stroke-width="2" stroke-miterlimit="10" cx="375.848" cy="231.904" r="3.75"/>
			</g>
		</g>
	</g>
	<g id="XMLID_1_">
		<g>
			<path fill="none" stroke="#FFFFFF" stroke-width="3" stroke-linecap="round" stroke-linejoin="round" stroke-miterlimit="10" d="
				M373.135,161.464L373.135,161.464c0,0-1.364,1.465-1.364,1.465l6.145,5.713c0,0-6.46,0-14.829,0c-75.181,0-167.583,0-236.024,0
				c-6.368,0-10.879,0-10.879,0v2c0,0,4.512,0,10.879,0c68.439,0,160.839,0,236.024,0c8.372,0,14.834,0,14.834,0l-6.15,5.715
				l1.364,1.465l8.796-8.178C381.931,169.643,373.135,161.464,373.135,161.464L373.135,161.464z"/>
			<path fill="#221F1F" d="M373.135,161.464L373.135,161.464c0,0-1.364,1.465-1.364,1.465l6.145,5.713c0,0-6.46,0-14.829,0
				c-75.181,0-167.583,0-236.024,0c-6.368,0-10.879,0-10.879,0v2c0,0,4.512,0,10.879,0c68.439,0,160.839,0,236.024,0
				c8.372,0,14.834,0,14.834,0l-6.15,5.715l1.364,1.465l8.796-8.178C381.931,169.643,373.135,161.464,373.135,161.464
				L373.135,161.464z"/>
		</g>
		<circle fill="#221F1F" cx="116.183" cy="169.641" r="1"/>
		<path fill="#221F1F" d="M373.135,161.464L373.135,161.464c0.391,0.391,0.391,1.024,0,1.414c-0.391,0.391-1.024,0.391-1.414,0
			c-0.391-0.391-0.391-1.024,0-1.414l0,0C372.111,161.073,372.744,161.073,373.135,161.464z"/>
		<path fill="#221F1F" d="M373.185,176.356c0.391,0.391,0.391,1.024,0,1.414c-0.018,0.018-0.036,0.035-0.054,0.051
			c-0.374,0.323-0.931,0.323-1.305,0c-0.019-0.016-0.037-0.033-0.055-0.051c-0.391-0.391-0.391-1.024,0-1.414
			C372.161,175.966,372.794,175.966,373.185,176.356z"/>
		<path display="none" fill="none" stroke="#ED358C" stroke-miterlimit="10" d="M125.715,157.137c0,0,0,1.76,0,4.327
			c0,4.695,0,12.092,0,16.357c0,2.018,0,3.335,0,3.335"/>
		<path display="none" fill="none" stroke="#ED358C" stroke-miterlimit="10" d="M364.113,157.137c0,0,0,1.76,0,4.327
			c0,4.695,0,12.092,0,16.357c0,2.018,0,3.335,0,3.335"/>
	</g>
</g>
<g id="step-5">
	<g>
		<g>
			<g id="Template_6_">
				<line fill="none" stroke="#E6E6E6" stroke-miterlimit="10" x1="689.015" y1="194.147" x2="569.015" y2="194.147"/>
			</g>
			<g id="border_15_">
				<path fill="#414141" d="M676.628,141.403c6.065,0,11,4.935,11,11v96c0,6.065-4.935,11-11,11h-96c-6.065,0-11-4.935-11-11v-96
					c0-6.065,4.935-11,11-11H676.628 M676.628,140.403h-96c-6.6,0-12,5.4-12,12v96c0,6.6,5.4,12,12,12h96c6.6,0,12-5.4,12-12v-96
					C688.628,145.803,683.229,140.403,676.628,140.403L676.628,140.403z"/>
			</g>
		</g>
		<g>
			<text transform="matrix(1 0 0 1 604.8464 178.6422)" fill="#221F1F" font-family="'HelveticaNeue-Light'" font-size="27.7481">7A9</text>
			<g display="none">
				
					<text transform="matrix(1 0 0 1 589.3842 216.8682)" display="inline" fill="#221F1F" font-family="'ApexNew-Book'" font-size="12.9916">placeholder</text>
				
					<circle display="inline" fill="#73BD46" stroke="#FFFFFF" stroke-width="2" stroke-miterlimit="10" cx="581.36" cy="212.654" r="3.75"/>
			</g>
			<g display="none">
				
					<text transform="matrix(1 0 0 1 589.3842 236.1182)" display="inline" fill="#221F1F" font-family="'ApexNew-Book'" font-size="12.9916">placeholder</text>
				
					<circle display="inline" fill="#B93226" stroke="#FFFFFF" stroke-width="2" stroke-miterlimit="10" cx="581.36" cy="231.904" r="3.75"/>
			</g>
		</g>
	</g>
	<g id="XMLID_2_">
		<g>
			
				<polygon fill="none" stroke="#FFFFFF" stroke-width="3" stroke-linecap="round" stroke-linejoin="round" stroke-miterlimit="10" points="
				584.44,143.189 582.439,143.26 582.745,151.645 545.915,114.815 544.501,116.229 581.334,153.062 572.944,152.755 
				572.873,154.755 584.875,155.193 			"/>
			<polygon fill="#221F1F" points="584.44,143.189 582.439,143.26 582.745,151.645 545.915,114.815 544.501,116.229 
				581.334,153.062 572.944,152.755 572.873,154.755 584.875,155.193 			"/>
		</g>
		<circle fill="#221F1F" cx="545.208" cy="115.522" r="1"/>
		<circle fill="#221F1F" cx="583.44" cy="143.189" r="1"/>
		<circle fill="#221F1F" cx="572.944" cy="153.755" r="1"/>
		<line display="none" fill="none" stroke="#ED358C" stroke-miterlimit="10" x1="560.79" y1="113.421" x2="543.806" y2="130.405"/>
		<line display="none" fill="none" stroke="#ED358C" stroke-miterlimit="10" x1="581.12" y1="133.75" x2="564.135" y2="150.734"/>
	</g>
	<g id="XMLID_4_">
		<g>
			<path fill="none" stroke="#FFFFFF" stroke-width="3" stroke-linecap="round" stroke-linejoin="round" stroke-miterlimit="10" d="
				M578.909,161.464L578.909,161.464c0,0-1.364,1.465-1.364,1.465l6.145,5.713c0,0-6.46,0-14.829,0c-27.224,0-60.684,0-85.467,0
				c-6.368,0-10.879,0-10.879,0v2c0,0,4.512,0,10.879,0c24.783,0,58.242,0,85.467,0c8.372,0,14.834,0,14.834,0l-6.15,5.715
				l1.364,1.465l8.796-8.178C587.706,169.643,578.91,161.464,578.909,161.464L578.909,161.464z"/>
			<path fill="#221F1F" d="M578.909,161.464L578.909,161.464c0,0-1.364,1.465-1.364,1.465l6.145,5.713c0,0-6.46,0-14.829,0
				c-27.224,0-60.684,0-85.467,0c-6.368,0-10.879,0-10.879,0v2c0,0,4.512,0,10.879,0c24.783,0,58.242,0,85.467,0
				c8.372,0,14.834,0,14.834,0l-6.15,5.715l1.364,1.465l8.796-8.178C587.706,169.643,578.91,161.464,578.909,161.464
				L578.909,161.464z"/>
		</g>
		<circle fill="#221F1F" cx="472.515" cy="169.641" r="1"/>
		<path fill="#221F1F" d="M578.909,161.464L578.909,161.464c0.391,0.391,0.391,1.024,0,1.414c-0.391,0.391-1.024,0.391-1.414,0
			c-0.391-0.391-0.391-1.024,0-1.414l0,0C577.886,161.073,578.519,161.073,578.909,161.464z"/>
		<path fill="#221F1F" d="M578.959,176.356c0.391,0.391,0.391,1.024,0,1.414c-0.018,0.018-0.036,0.035-0.055,0.051
			c-0.374,0.323-0.931,0.323-1.305,0c-0.019-0.016-0.037-0.033-0.055-0.051c-0.391-0.391-0.391-1.024,0-1.414
			C577.936,175.966,578.569,175.966,578.959,176.356z"/>
		<path display="none" fill="none" stroke="#ED358C" stroke-miterlimit="10" d="M482.047,157.137c0,0,0,1.76,0,4.327
			c0,4.695,0,12.092,0,16.357c0,2.018,0,3.335,0,3.335"/>
		<path display="none" fill="none" stroke="#ED358C" stroke-miterlimit="10" d="M569.888,157.137c0,0,0,1.76,0,4.327
			c0,4.695,0,12.092,0,16.357c0,2.018,0,3.335,0,3.335"/>
	</g>
</g>
</svg>
