<?xml version="1.0" encoding="utf-8"?>
<!-- Generator: Adobe Illustrator 17.1.0, SVG Export Plug-In . SVG Version: 6.00 Build 0)  -->
<!DOCTYPE svg PUBLIC "-//W3C//DTD SVG 1.1//EN" "http://www.w3.org/Graphics/SVG/1.1/DTD/svg11.dtd">
<svg version="1.1" id="Layer_1" xmlns="http://www.w3.org/2000/svg" xmlns:xlink="http://www.w3.org/1999/xlink" x="0px" y="0px"
	 viewBox="0 288 500 212" enable-background="new 0 288 500 212" xml:space="preserve">
<g id="base">
	<g id="XMLID_6_">
		<g id="Template_5_">
			<line fill="none" stroke="#E6E6E6" stroke-miterlimit="10" x1="90.5" y1="439.5" x2="4.3" y2="439.5"/>
		</g>
		<g id="border_13_">
			<path fill="#414141" d="M81.6,401.6c4.4,0,7.9,3.5,7.9,7.9v68.9c0,4.4-3.5,7.9-7.9,7.9h-69c-4.4,0-7.9-3.5-7.9-7.9v-68.9
				c0-4.4,3.5-7.9,7.9-7.9H81.6 M81.6,400.9h-69c-4.7,0-8.6,3.9-8.6,8.6v68.9c0,4.7,3.9,8.6,8.6,8.6h68.9c4.7,0,8.6-3.9,8.6-8.6
				v-68.9C90.2,404.8,86.3,400.9,81.6,400.9L81.6,400.9z"/>
		</g>
	</g>
	<g>
		<text transform="matrix(1 0 0 1 30.9922 428.3486)" fill="#221F1F" font-family="'HelveticaNeue-Light'" font-size="19.9283">5F3</text>
		<g>
			<text transform="matrix(1 0 0 1 18.9599 455.8018)" fill="#221F1F" font-family="'ApexNew-Book'" font-size="9.3304">README.md</text>
			<circle fill="#73BD46" stroke="#FFFFFF" stroke-width="2" stroke-miterlimit="10" cx="13.2" cy="452.8" r="2.7"/>
		</g>
		<g display="none">
			
				<text transform="matrix(1 0 0 1 18.9599 469.627)" display="inline" fill="#221F1F" font-family="'ApexNew-Book'" font-size="9.3304">placeholder</text>
			
				<circle display="inline" fill="#B93226" stroke="#FFFFFF" stroke-width="2" stroke-miterlimit="10" cx="13.2" cy="466.6" r="2.7"/>
		</g>
	</g>
</g>
<g id="step-1">
	<g>
		<g>
			<g id="Template_1_">
				<line fill="none" stroke="#E6E6E6" stroke-miterlimit="10" x1="186" y1="342.6" x2="99.8" y2="342.6"/>
			</g>
			<g id="border_1_">
				<path fill="#414141" d="M177.1,304.7c4.4,0,7.9,3.5,7.9,7.9v68.9c0,4.4-3.5,7.9-7.9,7.9h-68.9c-4.4,0-7.9-3.5-7.9-7.9v-68.9
					c0-4.4,3.5-7.9,7.9-7.9H177.1 M177.1,304h-68.9c-4.7,0-8.6,3.9-8.6,8.6v68.9c0,4.7,3.9,8.6,8.6,8.6h68.9c4.7,0,8.6-3.9,8.6-8.6
					v-68.9C185.7,307.9,181.8,304,177.1,304L177.1,304z"/>
			</g>
		</g>
		<g>
			<text transform="matrix(1 0 0 1 125.9522 331.4346)" fill="#221F1F" font-family="'HelveticaNeue-Light'" font-size="19.9283">7E2</text>
			<g>
				<text transform="matrix(1 0 0 1 114.4786 358.8878)" fill="#221F1F" font-family="'ApexNew-Book'" font-size="9.3304">about.html</text>
				<circle fill="#73BD46" stroke="#FFFFFF" stroke-width="2" stroke-miterlimit="10" cx="108.7" cy="355.9" r="2.7"/>
			</g>
			<g display="none">
				
					<text transform="matrix(1 0 0 1 114.4786 372.7129)" display="inline" fill="#221F1F" font-family="'ApexNew-Book'" font-size="9.3304">placeholder</text>
				
					<circle display="inline" fill="#B93226" stroke="#FFFFFF" stroke-width="2" stroke-miterlimit="10" cx="108.7" cy="369.7" r="2.7"/>
			</g>
		</g>
	</g>
	<g id="XMLID_3_">
		<g>
			
				<polygon fill="none" stroke="#FFFFFF" stroke-width="3" stroke-linecap="round" stroke-linejoin="round" stroke-miterlimit="10" points="
				102.6,379.1 102.6,380.5 108.7,380.3 82.2,406.7 83.2,407.7 109.7,381.3 109.5,387.3 110.9,387.3 111.2,378.7 			"/>
			<polygon fill="#221F1F" points="102.6,379.1 102.6,380.5 108.7,380.3 82.2,406.7 83.2,407.7 109.7,381.3 109.5,387.3 
				110.9,387.3 111.2,378.7 			"/>
		</g>
		<circle fill="#221F1F" cx="82.7" cy="407.2" r="0.7"/>
		<circle fill="#221F1F" cx="102.6" cy="379.8" r="0.7"/>
		<circle fill="#221F1F" cx="110.2" cy="387.3" r="0.7"/>
		<line display="none" fill="none" stroke="#ED358C" stroke-miterlimit="10" x1="81.2" y1="396" x2="93.4" y2="408.2"/>
		<line display="none" fill="none" stroke="#ED358C" stroke-miterlimit="10" x1="95.8" y1="381.4" x2="108" y2="393.6"/>
	</g>
</g>
<g id="step-2">
	<g>
		<g>
			<g id="Template_3_">
				<line fill="none" stroke="#E6E6E6" stroke-miterlimit="10" x1="292.8" y1="342.8" x2="206.6" y2="342.8"/>
			</g>
			<g id="border_9_">
				<path fill="#414141" d="M283.9,304.9c4.4,0,7.9,3.5,7.9,7.9v68.9c0,4.4-3.5,7.9-7.9,7.9H215c-4.4,0-7.9-3.5-7.9-7.9v-68.9
					c0-4.4,3.5-7.9,7.9-7.9H283.9 M283.9,304.1H215c-4.7,0-8.6,3.9-8.6,8.6v68.9c0,4.7,3.9,8.6,8.6,8.6h68.9c4.7,0,8.6-3.9,8.6-8.6
					v-68.9C292.5,308,288.6,304.1,283.9,304.1L283.9,304.1z"/>
			</g>
		</g>
		<g>
			<text transform="matrix(1 0 0 1 231.9843 331.6191)" fill="#221F1F" font-family="'HelveticaNeue-Light'" font-size="19.9283">B15</text>
			<g>
				<text transform="matrix(1 0 0 1 221.2482 359.0722)" fill="#221F1F" font-family="'ApexNew-Book'" font-size="9.3304">office.geojson</text>
				<circle fill="#73BD46" stroke="#FFFFFF" stroke-width="2" stroke-miterlimit="10" cx="215.5" cy="356.1" r="2.7"/>
			</g>
			<g>
				<text transform="matrix(1 0 0 1 221.2482 372.8975)" fill="#221F1F" font-family="'ApexNew-Book'" font-size="9.3304">team.jpg</text>
				<circle fill="#73BD46" stroke="#FFFFFF" stroke-width="2" stroke-miterlimit="10" cx="215.5" cy="369.9" r="2.7"/>
			</g>
		</g>
	</g>
	<g>
		<g>
			
				<polygon fill="none" stroke="#FFFFFF" stroke-width="3" stroke-linecap="round" stroke-linejoin="round" stroke-miterlimit="10" points="
				212.8,319.2 211.9,320.2 216.2,324.3 178.8,324.3 178.8,325.8 216.2,325.8 211.9,329.9 212.8,330.9 219.1,325 			"/>
			<polygon fill="#221F1F" points="212.8,319.2 211.9,320.2 216.2,324.3 178.8,324.3 178.8,325.8 216.2,325.8 211.9,329.9 
				212.8,330.9 219.1,325 			"/>
		</g>
		<circle fill="#221F1F" cx="178.8" cy="325" r="0.7"/>
		<circle fill="#221F1F" cx="212.3" cy="319.7" r="0.7"/>
		<circle fill="#221F1F" cx="212.4" cy="330.4" r="0.7"/>
		<line display="none" fill="none" stroke="#ED358C" stroke-miterlimit="10" x1="185.7" y1="316.1" x2="185.7" y2="333.3"/>
		<line display="none" fill="none" stroke="#ED358C" stroke-miterlimit="10" x1="206.3" y1="316.1" x2="206.3" y2="333.3"/>
	</g>
</g>
<g id="step-3">
	<g>
		<g>
			<g id="Template_2_">
				<line fill="none" stroke="#E6E6E6" stroke-miterlimit="10" x1="399.2" y1="342.6" x2="313" y2="342.6"/>
			</g>
			<g id="border_7_">
				<path fill="#414141" d="M390.3,304.8c4.4,0,7.9,3.5,7.9,7.9v68.9c0,4.4-3.5,7.9-7.9,7.9h-68.9c-4.4,0-7.9-3.5-7.9-7.9v-68.9
					c0-4.4,3.5-7.9,7.9-7.9L390.3,304.8 M390.3,304.1h-68.9c-4.7,0-8.6,3.9-8.6,8.6v68.9c0,4.7,3.9,8.6,8.6,8.6h68.9
					c4.7,0,8.6-3.9,8.6-8.6v-68.9C398.9,308,395,304.1,390.3,304.1L390.3,304.1z"/>
			</g>
		</g>
		<g>
			<text transform="matrix(1 0 0 1 339.1015 331.5268)" fill="#221F1F" font-family="'HelveticaNeue-Light'" font-size="19.9283">E38</text>
			<g>
				<text transform="matrix(1 0 0 1 327.6279 358.98)" fill="#221F1F" font-family="'ApexNew-Book'" font-size="9.3304">contact.vcf</text>
				<circle fill="#73BD46" stroke="#FFFFFF" stroke-width="2" stroke-miterlimit="10" cx="321.9" cy="355.9" r="2.7"/>
			</g>
			<g>
				<text transform="matrix(1 0 0 1 327.6279 372.8052)" fill="#221F1F" font-family="'ApexNew-Book'" font-size="9.3304">about.html</text>
				<circle fill="#73BD46" stroke="#FFFFFF" stroke-width="2" stroke-miterlimit="10" cx="321.9" cy="369.8" r="2.7"/>
			</g>
		</g>
	</g>
	<g>
		<g>
			
				<polygon fill="none" stroke="#FFFFFF" stroke-width="3" stroke-linecap="round" stroke-linejoin="round" stroke-miterlimit="10" points="
				319.5,319.2 318.5,320.2 323,324.3 285.6,324.3 285.6,325.8 323,325.8 318.5,329.9 319.5,330.9 325.8,325 			"/>
			<polygon fill="#221F1F" points="319.5,319.2 318.5,320.2 323,324.3 285.6,324.3 285.6,325.8 323,325.8 318.5,329.9 319.5,330.9 
				325.8,325 			"/>
		</g>
		<circle fill="#221F1F" cx="285.6" cy="325" r="0.7"/>
		<circle fill="#221F1F" cx="319" cy="319.7" r="0.7"/>
		<circle fill="#221F1F" cx="319" cy="330.4" r="0.7"/>
		<line display="none" fill="none" stroke="#ED358C" stroke-miterlimit="10" x1="292.4" y1="316.1" x2="292.4" y2="333.3"/>
		<line display="none" fill="none" stroke="#ED358C" stroke-miterlimit="10" x1="313.1" y1="316.1" x2="313.1" y2="333.3"/>
	</g>
</g>
<g id="step-4">
	<g>
		<g>
			<g id="Template_4_">
				<line fill="none" stroke="#E6E6E6" stroke-miterlimit="10" x1="347.2" y1="439.5" x2="261.1" y2="439.5"/>
			</g>
			<g id="border_11_">
				<path fill="#414141" d="M338.3,401.6c4.4,0,7.9,3.5,7.9,7.9v68.9c0,4.4-3.5,7.9-7.9,7.9h-68.9c-4.4,0-7.9-3.5-7.9-7.9v-68.9
					c0-4.4,3.5-7.9,7.9-7.9H338.3 M338.3,400.9h-68.9c-4.7,0-8.6,3.9-8.6,8.6v68.9c0,4.7,3.9,8.6,8.6,8.6h68.9
					c4.7,0,8.6-3.9,8.6-8.6v-68.9C347,404.8,343.1,400.9,338.3,400.9L338.3,400.9z"/>
			</g>
		</g>
		<g>
			<text transform="matrix(1 0 0 1 287.5332 428.3486)" fill="#221F1F" font-family="'HelveticaNeue-Light'" font-size="19.9283">826</text>
			<g>
				<text transform="matrix(1 0 0 1 275.6915 455.8018)" fill="#221F1F" font-family="'ApexNew-Book'" font-size="9.3304">CONTRIB.md</text>
				<circle fill="#73BD46" stroke="#FFFFFF" stroke-width="2" stroke-miterlimit="10" cx="269.9" cy="452.8" r="2.7"/>
			</g>
			<g>
				<text transform="matrix(1 0 0 1 275.6915 469.627)" fill="#221F1F" font-family="'ApexNew-Book'" font-size="9.3304">notes.txt</text>
				<circle fill="#B93226" stroke="#FFFFFF" stroke-width="2" stroke-miterlimit="10" cx="269.9" cy="466.6" r="2.7"/>
			</g>
		</g>
	</g>
	<g id="XMLID_1_">
		<g>
			<path fill="none" stroke="#FFFFFF" stroke-width="3" stroke-linecap="round" stroke-linejoin="round" stroke-miterlimit="10" d="
				M268,416L268,416l-1,1.1l4.4,4.1c0,0-4.7,0-10.6,0c-54,0-120.4,0-169.5,0c-4.6,0-7.8,0-7.8,0v1.4c0,0,3.2,0,7.8,0
				c49.1,0,115.5,0,169.5,0c6,0,10.6,0,10.6,0l-4.4,4.1l1,1.1l6.3-5.9C274.3,421.9,268,416,268,416L268,416z"/>
			<path fill="#221F1F" d="M268,416L268,416l-1,1.1l4.4,4.1c0,0-4.7,0-10.6,0c-54,0-120.4,0-169.5,0c-4.6,0-7.8,0-7.8,0v1.4
				c0,0,3.2,0,7.8,0c49.1,0,115.5,0,169.5,0c6,0,10.6,0,10.6,0l-4.4,4.1l1,1.1l6.3-5.9C274.3,421.9,268,416,268,416L268,416z"/>
		</g>
		<circle fill="#221F1F" cx="83.5" cy="421.9" r="0.7"/>
		<path fill="#221F1F" d="M268,416L268,416c0.3,0.3,0.3,0.7,0,1s-0.7,0.3-1,0s-0.3-0.7,0-1l0,0C267.2,415.8,267.7,415.8,268,416z"/>
		<path fill="#221F1F" d="M268,426.7c0.3,0.3,0.3,0.7,0,1c0,0,0,0-0.1,0.1c-0.3,0.2-0.6,0.2-0.9,0c0,0,0,0-0.1-0.1
			c-0.3-0.3-0.3-0.7,0-1C267.3,426.5,267.7,426.5,268,426.7z"/>
		<path display="none" fill="none" stroke="#ED358C" stroke-miterlimit="10" d="M90.3,412.9c0,0,0,1.3,0,3.1c0,3.4,0,8.7,0,11.8
			c0,1.4,0,2.4,0,2.4"/>
		<path display="none" fill="none" stroke="#ED358C" stroke-miterlimit="10" d="M261.5,412.9c0,0,0,1.3,0,3.1c0,3.4,0,8.7,0,11.8
			c0,1.4,0,2.4,0,2.4"/>
	</g>
</g>
<g id="step-5" display="none">
	<g display="inline">
		<g>
			<g id="Template_6_">
				<line fill="none" stroke="#E6E6E6" stroke-miterlimit="10" x1="494.8" y1="439.5" x2="408.6" y2="439.5"/>
			</g>
			<g id="border_15_">
				<path fill="#414141" d="M485.9,401.6c4.4,0,7.9,3.5,7.9,7.9v68.9c0,4.4-3.5,7.9-7.9,7.9H417c-4.4,0-7.9-3.5-7.9-7.9v-68.9
					c0-4.4,3.5-7.9,7.9-7.9H485.9 M485.9,400.9H417c-4.7,0-8.6,3.9-8.6,8.6v68.9c0,4.7,3.9,8.6,8.6,8.6h68.9c4.7,0,8.6-3.9,8.6-8.6
					v-68.9C494.5,404.8,490.7,400.9,485.9,400.9L485.9,400.9z"/>
			</g>
		</g>
		<g>
			<text transform="matrix(1 0 0 1 434.3916 428.3486)" fill="#221F1F" font-family="'HelveticaNeue-Light'" font-size="19.9283">7A9</text>
			<g display="none">
				
					<text transform="matrix(1 0 0 1 423.2871 455.8018)" display="inline" fill="#221F1F" font-family="'ApexNew-Book'" font-size="9.3304">placeholder</text>
				
					<circle display="inline" fill="#73BD46" stroke="#FFFFFF" stroke-width="2" stroke-miterlimit="10" cx="417.6" cy="452.8" r="2.7"/>
			</g>
			<g display="none">
				
					<text transform="matrix(1 0 0 1 423.2871 469.627)" display="inline" fill="#221F1F" font-family="'ApexNew-Book'" font-size="9.3304">placeholder</text>
				
					<circle display="inline" fill="#B93226" stroke="#FFFFFF" stroke-width="2" stroke-miterlimit="10" cx="417.6" cy="466.6" r="2.7"/>
			</g>
		</g>
	</g>
	<g id="XMLID_2_" display="inline">
		<g>
			
				<polygon fill="none" stroke="#FFFFFF" stroke-width="3" stroke-linecap="round" stroke-linejoin="round" stroke-miterlimit="10" points="
				419.7,402.9 418.3,403 418.5,408.9 392.1,382.5 391.1,383.5 417.5,410 411.4,409.8 411.4,411.2 420.1,411.5 			"/>
			<polygon fill="#221F1F" points="419.7,402.9 418.3,403 418.5,408.9 392.1,382.5 391.1,383.5 417.5,410 411.4,409.8 411.4,411.2 
				420.1,411.5 			"/>
		</g>
		<circle fill="#221F1F" cx="391.6" cy="383" r="0.7"/>
		<circle fill="#221F1F" cx="419" cy="402.9" r="0.7"/>
		<circle fill="#221F1F" cx="411.4" cy="410.5" r="0.7"/>
		<line display="none" fill="none" stroke="#ED358C" stroke-miterlimit="10" x1="402.8" y1="381.5" x2="390.5" y2="393.7"/>
		<line display="none" fill="none" stroke="#ED358C" stroke-miterlimit="10" x1="417.3" y1="396.1" x2="405.1" y2="408.3"/>
	</g>
	<g id="XMLID_4_" display="inline">
		<g>
			<path fill="none" stroke="#FFFFFF" stroke-width="3" stroke-linecap="round" stroke-linejoin="round" stroke-miterlimit="10" d="
				M415.8,416L415.8,416l-1,1.1l4.4,4.1c0,0-4.7,0-10.6,0c-19.5,0-43.6,0-61.4,0c-4.6,0-7.8,0-7.8,0v1.4c0,0,3.2,0,7.8,0
				c17.8,0,41.8,0,61.4,0c6,0,10.6,0,10.6,0l-4.5,4.1l1,1.1l6.3-5.9C422.1,421.9,415.8,416,415.8,416L415.8,416z"/>
			<path fill="#221F1F" d="M415.8,416L415.8,416l-1,1.1l4.4,4.1c0,0-4.7,0-10.6,0c-19.5,0-43.6,0-61.4,0c-4.6,0-7.8,0-7.8,0v1.4
				c0,0,3.2,0,7.8,0c17.8,0,41.8,0,61.4,0c6,0,10.6,0,10.6,0l-4.5,4.1l1,1.1l6.3-5.9C422.1,421.9,415.8,416,415.8,416L415.8,416z"/>
		</g>
		<circle fill="#221F1F" cx="339.3" cy="421.9" r="0.7"/>
		<path fill="#221F1F" d="M415.8,416L415.8,416c0.3,0.3,0.3,0.7,0,1s-0.7,0.3-1,0s-0.3-0.7,0-1l0,0C415,415.8,415.5,415.8,415.8,416
			z"/>
		<path fill="#221F1F" d="M415.8,426.7c0.3,0.3,0.3,0.7,0,1c0,0,0,0-0.1,0.1c-0.3,0.2-0.6,0.2-0.9,0c0,0,0,0-0.1-0.1
			c-0.3-0.3-0.3-0.7,0-1C415,426.5,415.5,426.5,415.8,426.7z"/>
		<path display="none" fill="none" stroke="#ED358C" stroke-miterlimit="10" d="M346.2,412.9c0,0,0,1.3,0,3.1c0,3.4,0,8.7,0,11.8
			c0,1.4,0,2.4,0,2.4"/>
		<path display="none" fill="none" stroke="#ED358C" stroke-miterlimit="10" d="M409.3,412.9c0,0,0,1.3,0,3.1c0,3.4,0,8.7,0,11.8
			c0,1.4,0,2.4,0,2.4"/>
	</g>
</g>
</svg>
