<?xml version="1.0" encoding="utf-8"?>
<!-- Generator: Adobe Illustrator 17.1.0, SVG Export Plug-In . SVG Version: 6.00 Build 0)  -->
<!DOCTYPE svg PUBLIC "-//W3C//DTD SVG 1.1//EN" "http://www.w3.org/Graphics/SVG/1.1/DTD/svg11.dtd">
<svg version="1.1" id="Layer_1" xmlns="http://www.w3.org/2000/svg" xmlns:xlink="http://www.w3.org/1999/xlink" x="0px" y="0px"
	 viewBox="0 0 525.4 273" enable-background="new 0 0 525.4 273" xml:space="preserve">
<g id="boundary">
	<path fill="none" d="M0,0v273h525.4V0H0z"/>
</g>
<g id="base">
	<g id="border_1_">
		<path fill="#414141" d="M158.1,67.3c6.1,0,11,4.9,11,11v36c0,6.1-4.9,11-11,11H30.3c-6.1,0-11-4.9-11-11v-36c0-6.1,4.9-11,11-11
			H158.1 M158.1,66.3H30.3c-6.6,0-12,5.4-12,12v36c0,6.6,5.4,12,12,12h127.8c6.6,0,12-5.4,12-12v-36
			C170.1,71.7,164.7,66.3,158.1,66.3L158.1,66.3z"/>
	</g>
	<text transform="matrix(1 0 0 1 66.9089 103.7521)" fill="#221F1F" font-family="'HelveticaNeue-Light'" font-size="27.7481">local</text>
	<path fill="#58595B" fill-opacity="0.5" d="M114.2,1.5c-2.9,0-40,0-40,0c-2.9,0-2.9,2.9-2.9,2.9v25.7c0,0,0,2.9,2.9,2.9h14.3
		c0,0-8.6,2.9-8.6,5.7s2.9,2.9,2.9,2.9h22.9c0,0,2.9,0,2.9-2.9s-8.6-5.7-8.6-5.7h14.3c2.9,0,2.9-2.9,2.9-2.9V4.4
		C117,4.4,117,1.5,114.2,1.5z M114.2,30.1h-40V4.4h40V30.1z M111.3,7.2h-8.6C85.6,10.1,77,24.4,77,24.4v2.9h34.3L111.3,7.2
		L111.3,7.2z"/>
	<g id="border_4_" opacity="0.3">
		<path fill="#414141" d="M164,51.5c12.1,0,22,9.9,22,22v172.2c0,12.1-9.9,22-22,22H25c-12.1,0-22-9.9-22-22V73.5
			c0-12.1,9.9-22,22-22L164,51.5 M164,50.5H25c-12.6,0-23,10.4-23,23v172.2c0,12.6,10.4,23,23,23h139c12.6,0,23-10.4,23-23V73.5
			C187,60.9,176.6,50.5,164,50.5L164,50.5z"/>
	</g>
</g>
<g id="step-1">
	<g id="border_6_">
		<path fill="#414141" d="M508.6,67.3c6.1,0,11,4.9,11,11v36c0,6.1-4.9,11-11,11H365.5c-6.1,0-11-4.9-11-11v-36c0-6.1,4.9-11,11-11
			H508.6 M508.6,66.3H365.5c-6.6,0-12,5.4-12,12v36c0,6.6,5.4,12,12,12h143.1c6.6,0,12-5.4,12-12v-36
			C520.6,71.7,515.2,66.3,508.6,66.3L508.6,66.3z"/>
	</g>
	<text transform="matrix(1 0 0 1 380.5223 103.7521)" fill="#221F1F" font-family="'HelveticaNeue-Light'" font-size="27.7481">upstream</text>
	<path fill="#58595B" fill-opacity="0.5" d="M437.8,1.5c-11.4,0-20.7,9.2-20.7,20.5c0,9.1,5.9,16.7,14.2,19.5c1,0.2,1.4-0.4,1.4-1
		c0-0.5,0-2.1,0-3.8c-5.8,1.2-7-2.4-7-2.4c-0.9-2.4-2.3-3-2.3-3c-1.9-1.3,0.1-1.2,0.1-1.2c2.1,0.1,3.2,2.1,3.2,2.1
		c1.8,3.1,4.9,2.2,6,1.7c0.2-1.3,0.7-2.2,1.3-2.7c-4.6-0.5-9.4-2.3-9.4-10.1c0-2.2,0.8-4.1,2.1-5.5c-0.2-0.5-0.9-2.6,0.2-5.4
		c0,0,1.7-0.6,5.7,2.1c1.7-0.5,3.4-0.7,5.2-0.7c1.8,0,3.5,0.2,5.2,0.7c4-2.7,5.7-2.1,5.7-2.1c1.1,2.8,0.4,4.9,0.2,5.4
		c1.3,1.4,2.1,3.3,2.1,5.5c0,7.9-4.8,9.6-9.5,10.1c0.7,0.6,1.4,1.9,1.4,3.8c0,2.7,0,5,0,5.6c0,0.5,0.4,1.2,1.4,1
		c8.2-2.7,14.2-10.4,14.2-19.5C458.5,10.7,449.2,1.5,437.8,1.5z"/>
</g>
<g id="step-2-in-out">
	<g id="XMLID_5_">
		<g>
			<path fill="none" stroke="#FFFFFF" stroke-width="3" stroke-linecap="round" stroke-linejoin="round" stroke-miterlimit="10" d="
				M363.5,88.7L363.5,88.7l-1.4,1.5l6.1,5.7c0,0-6.5,0-14.8,0c-58.4,0-130.1,0-183.2,0c-6.4,0-10.9,0-10.9,0v2c0,0,4.5,0,10.9,0
				c53.1,0,124.9,0,183.2,0c8.4,0,14.8,0,14.8,0l-6.1,5.7l1.4,1.5l8.8-8.2C372.3,96.8,363.5,88.7,363.5,88.7L363.5,88.7z"/>
			<path fill="#221F1F" d="M363.5,88.7L363.5,88.7l-1.4,1.5l6.1,5.7c0,0-6.5,0-14.8,0c-58.4,0-130.1,0-183.2,0c-6.4,0-10.9,0-10.9,0
				v2c0,0,4.5,0,10.9,0c53.1,0,124.9,0,183.2,0c8.4,0,14.8,0,14.8,0l-6.1,5.7l1.4,1.5l8.8-8.2C372.3,96.8,363.5,88.7,363.5,88.7
				L363.5,88.7z"/>
		</g>
		<circle fill="#221F1F" cx="159.3" cy="96.8" r="1"/>
		<path fill="#221F1F" d="M363.5,88.7L363.5,88.7c0.4,0.4,0.4,1,0,1.4c-0.4,0.4-1,0.4-1.4,0c-0.4-0.4-0.4-1,0-1.4l0,0
			C362.5,88.3,363.1,88.3,363.5,88.7z"/>
		<path fill="#221F1F" d="M363.5,103.6c0.4,0.4,0.4,1,0,1.4c0,0,0,0-0.1,0.1c-0.4,0.3-0.9,0.3-1.3,0c0,0,0,0-0.1-0.1
			c-0.4-0.4-0.4-1,0-1.4C362.5,103.2,363.1,103.2,363.5,103.6z"/>
		<path display="none" fill="none" stroke="#ED358C" stroke-miterlimit="10" d="M168.9,84.3c0,0,0,1.8,0,4.3c0,4.7,0,12.1,0,16.4
			c0,2,0,3.3,0,3.3"/>
		<path display="none" fill="none" stroke="#ED358C" stroke-miterlimit="10" d="M354.5,84.3c0,0,0,1.8,0,4.3c0,4.7,0,12.1,0,16.4
			c0,2,0,3.3,0,3.3"/>
	</g>
	<text transform="matrix(1.0483 0 0 1 250.4707 86.3652)" fill="#231F20" font-family="'ApexNew-Book'" font-size="18">push</text>
	<g>
		<g opacity="0.4">
			<polygon fill="#FFFFFF" points="263.1,135.8 245.3,135.8 245.3,114.4 258.6,114.4 259.7,115.8 263.1,119 			"/>
			<path d="M255.9,118.4h-8.4v1.7h8.4V118.4z M259.3,113.4h-15.1v23.5h20.2v-18.5L259.3,113.4z M262.6,135.2h-16.8V115h11.8l5,5
				L262.6,135.2L262.6,135.2z M247.5,131.8H261v-1.7h-13.4L247.5,131.8L247.5,131.8z M247.5,128.5H261v-1.7h-13.4L247.5,128.5
				L247.5,128.5z M247.5,125.1H261v-1.7h-13.4L247.5,125.1L247.5,125.1z"/>
		</g>
		<g opacity="0.4">
			<polygon fill="#FFFFFF" points="284.9,125.7 267.1,125.7 267.1,104.4 280.4,104.4 281.5,105.7 284.9,108.9 			"/>
			<path d="M265.9,126.8v-23.5H281l5,5v18.5L265.9,126.8L265.9,126.8z M284.4,110l-5-5h-11.8v20.2h16.8L284.4,110
				C284.4,110,284.4,110,284.4,110z M274.3,115h-5v-6.7h5V115z M272.6,110H271v3.4h1.7V110z M272.6,121.8h1.7v1.7h-5v-1.7h1.7v-3.4
				h-1.7v-1.7h3.4L272.6,121.8L272.6,121.8z M279.4,113.3h1.7v1.7h-5v-1.7h1.7V110H276v-1.7h3.4L279.4,113.3L279.4,113.3z
				 M281,123.4h-5v-6.7h5V123.4z M279.4,118.4h-1.7v3.4h1.7V118.4z"/>
		</g>
	</g>
</g>
<g id="step-3">
	<g>
		<g>
			<g>
				<path fill="#FFFFFF" d="M390.3,225.6H167.4v-5h222.9c1.2,0,2,1.1,2,2.5S391.5,225.6,390.3,225.6z M389.3,223.1
					C389.4,223.1,389.4,223.1,389.3,223.1l1.4-0.5L389.3,223.1C389.4,223,389.4,223.1,389.3,223.1z"/>
			</g>
			<g>
				<path fill="#231F20" d="M390.3,222.1c0.3,0,0.5,0.4,0.5,1s-0.2,1-0.5,1H168.9c0-0.7,0-1.3,0-2H390.3z"/>
			</g>
		</g>
		<g>
			<g>
				<path fill="#FFFFFF" d="M442.3,174.6h-5v-61.4c0-1.6,1.9-1.6,2.5-1.6s2.5,0,2.5,1.6V174.6z"/>
			</g>
			<g>
				<path fill="#231F20" d="M440.8,113.3c0-0.1-0.4-0.1-1-0.1s-1,0.1-1,0.1v59.9c0.7,0,1.3,0,2,0V113.3z"/>
			</g>
		</g>
		<g>
			<g>
				<path fill="#FFFFFF" d="M389.8,225.6v-5c26.2,0,47.4-21.3,47.4-47.4h5C442.3,202.1,418.7,225.6,389.8,225.6z"/>
			</g>
			<g>
				<path fill="#231F20" d="M389.8,224.1v-2c27,0,48.9-22,48.9-48.9h2C440.8,201.2,417.9,224.1,389.8,224.1z"/>
			</g>
		</g>
		<g>
			<path fill="#231F20" d="M154,223.1l8.8-8.2c0.4-0.4,1-0.4,1.4,0c0.4,0.4,0.4,1,0,1.4c0,0,0,0-0.1,0l0,0l-6.1,5.7h10.9
				c0,0.7,0,1.3,0,2h-10.9l6.1,5.7c0.4,0.4,0.4,1,0,1.4c-0.4,0.4-1,0.4-1.4,0l0,0L154,223.1z"/>
		</g>
	</g>
	<g>
		<g opacity="0.4">
			<polygon fill="#FFFFFF" points="432.9,249 415.1,249 415.1,227.6 428.4,227.6 429.6,229 432.9,232.2 			"/>
			<path d="M425.8,231.6h-8.4v1.7h8.4V231.6z M429.1,226.6H414v23.5h20.2v-18.5L429.1,226.6z M432.5,248.4h-16.8v-20.2h11.8l5,5
				L432.5,248.4L432.5,248.4z M417.4,245h13.5v-1.7h-13.5V245z M417.4,241.7h13.5V240h-13.5V241.7z M417.4,238.3h13.5v-1.7h-13.5
				V238.3z"/>
		</g>
		<g opacity="0.4">
			<polygon fill="#FFFFFF" points="454.8,238.9 437,238.9 437,217.6 450.2,217.6 451.4,218.9 454.8,222.1 			"/>
			<path d="M435.8,240v-23.5h15.1l5,5V240L435.8,240L435.8,240L435.8,240z M454.3,223.2l-5-5h-11.8v20.2h16.8L454.3,223.2
				L454.3,223.2z M444.2,228.2h-5v-6.7h5V228.2z M442.5,223.2h-1.7v3.4h1.7V223.2z M442.5,234.9h1.7v1.7h-5v-1.7h1.7v-3.4h-1.7v-1.7
				h3.4L442.5,234.9L442.5,234.9z M449.2,226.5h1.7v1.7h-5v-1.7h1.7v-3.4h-1.7v-1.7h3.4L449.2,226.5L449.2,226.5z M450.9,236.6h-5
				v-6.7h5V236.6z M449.2,231.6h-1.7v3.4h1.7V231.6z"/>
		</g>
	</g>
	<g id="remote">
		<g id="border_2_">
			<path fill="#414141" d="M158.1,194.7c6.1,0,11,4.9,11,11v36c0,6.1-4.9,11-11,11H30.3c-6.1,0-11-4.9-11-11v-36c0-6.1,4.9-11,11-11
				H158.1 M158.1,193.7H30.3c-6.6,0-12,5.4-12,12v36c0,6.6,5.4,12,12,12h127.8c6.6,0,12-5.4,12-12v-36
				C170.1,199.1,164.7,193.7,158.1,193.7L158.1,193.7z"/>
		</g>
		<text transform="matrix(1 0 0 1 45.3352 231.0855)" fill="#221F1F" font-family="'HelveticaNeue-Light'" font-size="27.7481">remotes</text>
	</g>
</g>
<g id="step-4-in-out">
	<text transform="matrix(1.0483 0 0 1 290.9092 212.645)" fill="#231F20" font-family="'ApexNew-Book'" font-size="18">pull</text>
	<g id="XMLID_1_">
		<g>
			<path fill="none" stroke="#FFFFFF" stroke-width="3" stroke-linecap="round" stroke-linejoin="round" stroke-miterlimit="10" d="
				M86.5,117.3L86.5,117.3l1.5,1.4l5.7-6.1c0,0,0,6.5,0,14.8c0,20.3,0,45.3,0,63.8c0,6.4,0,10.9,0,10.9h2c0,0,0-4.5,0-10.9
				c0-18.5,0-43.5,0-63.8c0-8.4,0-14.8,0-14.8l5.7,6.2l1.5-1.4l-8.2-8.8C94.7,108.5,86.5,117.3,86.5,117.3L86.5,117.3z"/>
			<path fill="#221F1F" d="M86.5,117.3L86.5,117.3l1.5,1.4l5.7-6.1c0,0,0,6.5,0,14.8c0,20.3,0,45.3,0,63.8c0,6.4,0,10.9,0,10.9h2
				c0,0,0-4.5,0-10.9c0-18.5,0-43.5,0-63.8c0-8.4,0-14.8,0-14.8l5.7,6.2l1.5-1.4l-8.2-8.8C94.7,108.5,86.5,117.3,86.5,117.3
				L86.5,117.3z"/>
		</g>
		<circle fill="#221F1F" cx="94.7" cy="202" r="1"/>
		<path fill="#221F1F" d="M86.5,117.3L86.5,117.3c0.4-0.4,1-0.4,1.4,0c0.4,0.4,0.4,1,0,1.4c-0.4,0.4-1,0.4-1.4,0l0,0
			C86.1,118.3,86.1,117.7,86.5,117.3z"/>
		<path fill="#221F1F" d="M101.4,117.3c0.4-0.4,1-0.4,1.4,0c0,0,0,0,0.1,0.1c0.3,0.4,0.3,0.9,0,1.3c0,0,0,0-0.1,0.1
			c-0.4,0.4-1,0.4-1.4,0S101,117.6,101.4,117.3z"/>
		<path display="none" fill="none" stroke="#ED358C" stroke-miterlimit="10" d="M82.2,192.5c0,0,1.8,0,4.3,0c4.7,0,12.1,0,16.4,0
			c2,0,3.3,0,3.3,0"/>
		<path display="none" fill="none" stroke="#ED358C" stroke-miterlimit="10" d="M82.2,126.3c0,0,1.8,0,4.3,0c4.7,0,12.1,0,16.4,0
			c2,0,3.3,0,3.3,0"/>
	</g>
	<text transform="matrix(1.0483 0 0 1 105.0415 166.9785)" fill="#231F20" font-family="'ApexNew-Book'" font-size="14">merge</text>
</g>
<g id="step-5">
	<text transform="matrix(1.0483 0 0 1 290.9092 212.645)" fill="#231F20" font-family="'ApexNew-Book'" font-size="18">fetch</text>
</g>
</svg>
