<?xml version="1.0" encoding="utf-8"?>
<!-- Generator: Adobe Illustrator 17.1.0, SVG Export Plug-In . SVG Version: 6.00 Build 0)  -->
<!DOCTYPE svg PUBLIC "-//W3C//DTD SVG 1.1//EN" "http://www.w3.org/Graphics/SVG/1.1/DTD/svg11.dtd">
<svg version="1.1" id="Layer_1" xmlns="http://www.w3.org/2000/svg" xmlns:xlink="http://www.w3.org/1999/xlink" x="0px" y="0px"
	 viewBox="0 215 500 276" enable-background="new 0 215 500 276" xml:space="preserve">
<g id="base">
	<g id="border_1_">
		<path fill="#414141" d="M150.5,287.1c5.8,0,10.5,4.7,10.5,10.5v34.3c0,5.8-4.7,10.5-10.5,10.5H28.8c-5.8,0-10.5-4.7-10.5-10.5
			v-34.3c0-5.8,4.7-10.5,10.5-10.5H150.5 M150.5,286.2H28.8c-6.3,0-11.4,5.1-11.4,11.4v34.3c0,6.3,5.1,11.4,11.4,11.4h121.6
			c6.3,0,11.4-5.1,11.4-11.4v-34.3C161.9,291.3,156.7,286.2,150.5,286.2L150.5,286.2z"/>
	</g>
	<text transform="matrix(1 0 0 1 63.6743 321.8354)" fill="#221F1F" font-family="'HelveticaNeue-Light'" font-size="26.4066">local</text>
	<path fill="#58595B" fill-opacity="0.5" d="M108.7,224.5c-2.8,0-38.1,0-38.1,0c-2.8,0-2.8,2.8-2.8,2.8v24.5c0,0,0,2.8,2.8,2.8h13.6
		c0,0-8.2,2.8-8.2,5.4c0,2.7,2.8,2.8,2.8,2.8h21.8c0,0,2.8,0,2.8-2.8s-8.2-5.4-8.2-5.4h13.6c2.8,0,2.8-2.8,2.8-2.8v-24.5
		C111.3,227.3,111.3,224.5,108.7,224.5z M108.7,251.7H70.6v-24.5h38.1V251.7z M105.9,230h-8.2c-16.3,2.8-24.5,16.4-24.5,16.4v2.8
		h32.6L105.9,230L105.9,230z"/>
	<g id="border_4_" opacity="0.3">
		<path fill="#414141" d="M156.1,272.1c11.5,0,20.9,9.4,20.9,20.9v163.9c0,11.5-9.4,20.9-20.9,20.9H23.8c-11.5,0-20.9-9.4-20.9-20.9
			V293c0-11.5,9.4-20.9,20.9-20.9H156.1 M156.1,271.2H23.8c-12,0-21.9,9.9-21.9,21.9V457c0,12,9.9,21.9,21.9,21.9h132.3
			c12,0,21.9-9.9,21.9-21.9V293C178,281.1,168.1,271.2,156.1,271.2L156.1,271.2z"/>
	</g>
</g>
<g id="step-1">
	<g id="border_6_">
		<path fill="#414141" d="M484,287.1c5.8,0,10.5,4.7,10.5,10.5v34.3c0,5.8-4.7,10.5-10.5,10.5H347.8c-5.8,0-10.5-4.7-10.5-10.5
			v-34.3c0-5.8,4.7-10.5,10.5-10.5H484 M484,286.2H347.8c-6.3,0-11.4,5.1-11.4,11.4v34.3c0,6.3,5.1,11.4,11.4,11.4H484
			c6.3,0,11.4-5.1,11.4-11.4v-34.3C495.4,291.3,490.3,286.2,484,286.2L484,286.2z"/>
	</g>
	<text transform="matrix(1 0 0 1 362.126 321.8354)" fill="#221F1F" font-family="'HelveticaNeue-Light'" font-size="26.4066">upstream</text>
	<path fill="#58595B" fill-opacity="0.5" d="M416.6,224.5c-10.8,0-19.7,8.8-19.7,19.5c0,8.7,5.6,15.9,13.5,18.6c1,0.2,1.3-0.4,1.3-1
		c0-0.5,0-2,0-3.6c-5.5,1.1-6.7-2.3-6.7-2.3c-0.9-2.3-2.2-2.9-2.2-2.9c-1.8-1.2,0.1-1.1,0.1-1.1c2,0.1,3,2,3,2
		c1.7,3,4.7,2.1,5.7,1.6c0.2-1.2,0.7-2.1,1.2-2.6c-4.4-0.5-8.9-2.2-8.9-9.6c0-2.1,0.8-3.9,2-5.2c-0.2-0.5-0.9-2.5,0.2-5.1
		c0,0,1.6-0.6,5.4,2c1.6-0.5,3.2-0.7,4.9-0.7s3.3,0.2,4.9,0.7c3.8-2.6,5.4-2,5.4-2c1,2.7,0.4,4.7,0.2,5.1c1.2,1.3,2,3.1,2,5.2
		c0,7.5-4.6,9.1-9,9.6c0.7,0.6,1.3,1.8,1.3,3.6c0,2.6,0,4.8,0,5.3s0.4,1.1,1.3,1c7.8-2.6,13.5-9.9,13.5-18.6
		C436.3,233.3,427.5,224.5,416.6,224.5z"/>
</g>
<g id="step-2-in-out">
	<g id="XMLID_5_">
		<g>
			<path fill="none" stroke="#FFFFFF" stroke-width="3" stroke-linecap="round" stroke-linejoin="round" stroke-miterlimit="10" d="
				M345.9,307.5L345.9,307.5l-1.3,1.4l5.8,5.4c0,0-6.2,0-14.1,0c-55.6,0-123.8,0-174.3,0c-6.1,0-10.4,0-10.4,0v1.9c0,0,4.3,0,10.4,0
				c50.5,0,118.9,0,174.3,0c8,0,14.1,0,14.1,0l-5.8,5.4l1.3,1.4l8.4-7.8C354.3,315.2,345.9,307.5,345.9,307.5L345.9,307.5z"/>
			<path fill="#221F1F" d="M345.9,307.5L345.9,307.5l-1.3,1.4l5.8,5.4c0,0-6.2,0-14.1,0c-55.6,0-123.8,0-174.3,0
				c-6.1,0-10.4,0-10.4,0v1.9c0,0,4.3,0,10.4,0c50.5,0,118.9,0,174.3,0c8,0,14.1,0,14.1,0l-5.8,5.4l1.3,1.4l8.4-7.8
				C354.3,315.2,345.9,307.5,345.9,307.5L345.9,307.5z"/>
		</g>
		<circle fill="#221F1F" cx="151.6" cy="315.2" r="1"/>
		<path fill="#221F1F" d="M345.9,307.5L345.9,307.5c0.4,0.4,0.4,1,0,1.3c-0.4,0.4-1,0.4-1.3,0c-0.4-0.4-0.4-1,0-1.3l0,0
			C345,307.1,345.5,307.1,345.9,307.5z"/>
		<path fill="#221F1F" d="M345.9,321.7c0.4,0.4,0.4,1,0,1.3c0,0,0,0-0.1,0.1c-0.4,0.3-0.9,0.3-1.2,0c0,0,0,0-0.1-0.1
			c-0.4-0.4-0.4-1,0-1.3C345,321.3,345.5,321.3,345.9,321.7z"/>
		<path display="none" fill="none" stroke="#ED358C" stroke-miterlimit="10" d="M160.7,303.3c0,0,0,1.7,0,4.1c0,4.5,0,11.5,0,15.6
			c0,1.9,0,3.1,0,3.1"/>
		<path display="none" fill="none" stroke="#ED358C" stroke-miterlimit="10" d="M337.4,303.3c0,0,0,1.7,0,4.1c0,4.5,0,11.5,0,15.6
			c0,1.9,0,3.1,0,3.1"/>
	</g>
	<text transform="matrix(1.0483 0 0 1 238.3618 305.2891)" fill="#231F20" font-family="'ApexNew-Book'" font-size="17.1298">push</text>
	<g>
		<g opacity="0.4">
			<polygon fill="#FFFFFF" points="250.4,352.3 233.4,352.3 233.4,332 246.1,332 247.1,333.3 250.4,336.3 			"/>
			<path d="M243.5,335.8h-8v1.6h8V335.8z M246.8,331h-14.4v22.4h19.2v-17.6L246.8,331z M249.9,351.8h-16v-19.2h11.2l4.8,4.8V351.8
				L249.9,351.8z M235.5,348.5h12.8v-1.6h-12.8V348.5L235.5,348.5z M235.5,345.4h12.8v-1.6h-12.8V345.4L235.5,345.4z M235.5,342.2
				h12.8v-1.6h-12.8V342.2L235.5,342.2z"/>
		</g>
		<g opacity="0.4">
			<polygon fill="#FFFFFF" points="271.1,342.7 254.2,342.7 254.2,322.5 266.8,322.5 267.9,323.7 271.1,326.7 			"/>
			<path d="M253,343.8v-22.4h14.4l4.8,4.8v17.6L253,343.8L253,343.8z M270.7,327.8l-4.8-4.8h-11.2v19.2h16V327.8L270.7,327.8z
				 M261,332.5h-4.8v-6.4h4.8V332.5z M259.4,327.8h-1.5v3.2h1.6L259.4,327.8L259.4,327.8z M259.4,339h1.6v1.6h-4.8V339h1.6v-3.2
				h-1.6v-1.6h3.2L259.4,339L259.4,339z M265.9,330.9h1.6v1.6h-4.8v-1.6h1.6v-3.1h-1.7v-1.6h3.2L265.9,330.9L265.9,330.9z
				 M267.4,340.5h-4.8v-6.4h4.8V340.5z M265.9,335.8h-1.6v3.2h1.6V335.8z"/>
		</g>
	</g>
</g>
<g id="step-3">
	<g>
		<g>
			<g>
				<path fill="#FFFFFF" d="M371.4,437.8H159.3V433h212.1c1.1,0,1.9,1,1.9,2.4S372.6,437.8,371.4,437.8z M370.5,435.4
					C370.6,435.4,370.6,435.4,370.5,435.4l1.3-0.5L370.5,435.4C370.6,435.3,370.6,435.4,370.5,435.4z"/>
			</g>
			<g>
				<path fill="#231F20" d="M371.4,434.5c0.3,0,0.5,0.4,0.5,1s-0.2,1-0.5,1H160.7c0-0.7,0-1.2,0-1.9h210.7V434.5z"/>
			</g>
		</g>
		<g>
			<g>
				<path fill="#FFFFFF" d="M420.9,389.3h-4.8v-58.4c0-1.5,1.8-1.5,2.4-1.5s2.4,0,2.4,1.5V389.3z"/>
			</g>
			<g>
				<path fill="#231F20" d="M419.5,330.9c0-0.1-0.4-0.1-1-0.1s-1,0.1-1,0.1v57c0.7,0,1.2,0,1.9,0v-57H419.5z"/>
			</g>
		</g>
		<g>
			<g>
				<path fill="#FFFFFF" d="M371,437.8V433c24.9,0,45.1-20.3,45.1-45.1h4.8C420.9,415.4,398.5,437.8,371,437.8z"/>
			</g>
			<g>
				<path fill="#231F20" d="M371,436.4v-1.9c25.7,0,46.5-20.9,46.5-46.5h1.9C419.5,414.6,397.7,436.4,371,436.4z"/>
			</g>
		</g>
		<g>
			<path fill="#231F20" d="M146.6,435.4l8.4-7.8c0.4-0.4,1-0.4,1.3,0c0.4,0.4,0.4,1,0,1.3c0,0,0,0-0.1,0l0,0l-5.8,5.4h10.4
				c0,0.7,0,1.2,0,1.9h-10.4l5.8,5.4c0.4,0.4,0.4,1,0,1.3c-0.4,0.4-1,0.4-1.3,0l0,0L146.6,435.4z"/>
		</g>
	</g>
	<g>
		<g opacity="0.4">
			<polygon fill="#FFFFFF" points="412,460.1 395,460.1 395,439.7 407.7,439.7 408.8,441 412,444.1 			"/>
			<path d="M405.2,443.5h-8v1.6h8V443.5z M408.4,438.7H394v22.4h19.2v-17.6L408.4,438.7z M411.6,459.5h-16v-19.2h11.2l4.8,4.8V459.5
				L411.6,459.5z M397.2,456.3H410v-1.6h-12.8V456.3z M397.2,453.1H410v-1.6h-12.8V453.1z M397.2,449.9H410v-1.6h-12.8V449.9z"/>
		</g>
		<g opacity="0.4">
			<polygon fill="#FFFFFF" points="432.8,450.4 415.9,450.4 415.9,430.2 428.4,430.2 429.6,431.4 432.8,434.5 			"/>
			<path d="M414.7,451.5v-22.4h14.4l4.8,4.8v17.6H414.7L414.7,451.5L414.7,451.5z M432.3,435.5l-4.8-4.8h-11.2V450h16V435.5
				L432.3,435.5z M422.7,440.3H418v-6.4h4.8L422.7,440.3L422.7,440.3z M421.1,435.5h-1.6v3.2h1.6V435.5z M421.1,446.6h1.6v1.6H418
				v-1.6h1.6v-3.2H418v-1.6h3.2L421.1,446.6L421.1,446.6z M427.5,438.6h1.6v1.6h-4.8v-1.6h1.6v-3.2h-1.6v-1.6h3.2L427.5,438.6
				L427.5,438.6z M429.1,448.3h-4.8v-6.4h4.8V448.3z M427.5,443.5h-1.6v3.2h1.6V443.5z"/>
		</g>
	</g>
	<g id="remote">
		<g id="border_2_">
			<path fill="#414141" d="M150.5,408.4c5.8,0,10.5,4.7,10.5,10.5v34.3c0,5.8-4.7,10.5-10.5,10.5H28.8c-5.8,0-10.5-4.7-10.5-10.5
				v-34.3c0-5.8,4.7-10.5,10.5-10.5H150.5 M150.5,407.4H28.8c-6.3,0-11.4,5.1-11.4,11.4v34.3c0,6.3,5.1,11.4,11.4,11.4h121.6
				c6.3,0,11.4-5.1,11.4-11.4v-34.3C161.9,412.6,156.7,407.4,150.5,407.4L150.5,407.4z"/>
		</g>
		<text transform="matrix(1 0 0 1 43.1435 443.0127)" fill="#221F1F" font-family="'HelveticaNeue-Light'" font-size="26.4066">remotes</text>
	</g>
</g>
<g id="step-4-in-out">
	
		<text transform="matrix(1.0483 0 0 1 276.8457 425.4639)" display="none" fill="#231F20" enable-background="new    " font-family="'ApexNew-Book'" font-size="17.1298">pull</text>
	<g id="XMLID_1_">
		<g>
			<path fill="none" stroke="#FFFFFF" stroke-width="3" stroke-linecap="round" stroke-linejoin="round" stroke-miterlimit="10" d="
				M82.3,334.7L82.3,334.7l1.4,1.3l5.4-5.8c0,0,0,6.2,0,14.1c0,19.3,0,43.1,0,60.7c0,6.1,0,10.4,0,10.4H91c0,0,0-4.3,0-10.4
				c0-17.6,0-41.4,0-60.7c0-8,0-14.1,0-14.1l5.4,5.9l1.4-1.3l-7.8-8.4C90.1,326.4,82.3,334.7,82.3,334.7L82.3,334.7z"/>
			<path fill="#221F1F" d="M82.3,334.7L82.3,334.7l1.4,1.3l5.4-5.8c0,0,0,6.2,0,14.1c0,19.3,0,43.1,0,60.7c0,6.1,0,10.4,0,10.4H91
				c0,0,0-4.3,0-10.4c0-17.6,0-41.4,0-60.7c0-8,0-14.1,0-14.1l5.4,5.9l1.4-1.3l-7.8-8.4C90.1,326.4,82.3,334.7,82.3,334.7
				L82.3,334.7z"/>
		</g>
		<circle fill="#221F1F" cx="90.1" cy="415.3" r="1"/>
		<path fill="#221F1F" d="M82.3,334.7L82.3,334.7c0.4-0.4,1-0.4,1.3,0c0.4,0.4,0.4,1,0,1.3c-0.4,0.4-1,0.4-1.3,0l0,0
			C81.9,335.7,81.9,335.1,82.3,334.7z"/>
		<path fill="#221F1F" d="M96.5,334.7c0.4-0.4,1-0.4,1.3,0c0,0,0,0,0.1,0.1c0.3,0.4,0.3,0.9,0,1.2c0,0,0,0-0.1,0.1
			c-0.4,0.4-1,0.4-1.3,0C96.1,335.8,96.1,335,96.5,334.7z"/>
		<path display="none" fill="none" stroke="#ED358C" stroke-miterlimit="10" d="M78.2,406.3c0,0,1.7,0,4.1,0c4.5,0,11.5,0,15.6,0
			c1.9,0,3.1,0,3.1,0"/>
		<path display="none" fill="none" stroke="#ED358C" stroke-miterlimit="10" d="M78.2,343.3c0,0,1.7,0,4.1,0c4.5,0,11.5,0,15.6,0
			c1.9,0,3.1,0,3.1,0"/>
	</g>
	<text transform="matrix(1.0483 0 0 1 99.9634 382.0049)" fill="#231F20" font-family="'ApexNew-Book'" font-size="13.3232">merge</text>
</g>
<g id="step-5">
	<text transform="matrix(1.0483 0 0 1 276.8457 425.4639)" fill="#231F20" font-family="'ApexNew-Book'" font-size="17.1298">fetch</text>
</g>
</svg>
