<?xml version="1.0" encoding="utf-8"?>
<!-- Generator: Adobe Illustrator 17.1.0, SVG Export Plug-In . SVG Version: 6.00 Build 0)  -->
<!DOCTYPE svg PUBLIC "-//W3C//DTD SVG 1.1//EN" "http://www.w3.org/Graphics/SVG/1.1/DTD/svg11.dtd">
<svg version="1.1" id="Layer_2" xmlns="http://www.w3.org/2000/svg" xmlns:xlink="http://www.w3.org/1999/xlink" x="0px" y="0px"
	 viewBox="0 149 500 202" enable-background="new 0 149 500 202" xml:space="preserve">
<g id="base">
	<g id="Template_1_">
		<line fill="none" stroke="#E6E6E6" stroke-miterlimit="10" x1="128.1" y1="290.5" x2="47.7" y2="290.5"/>
	</g>
	<path id="border_1_" fill="#414141" d="M119.8,255.2c4.1,0,7.4,3.3,7.4,7.4v64.3c0,4.1-3.3,7.4-7.4,7.4H55.5
		c-4.1,0-7.4-3.3-7.4-7.4v-64.3c0-4.1,3.3-7.4,7.4-7.4L119.8,255.2 M119.8,254.6H55.5c-4.4,0-8,3.6-8,8v64.3c0,4.4,3.6,8,8,8h64.3
		c4.4,0,8-3.6,8-8v-64.3C127.9,258.2,124.2,254.6,119.8,254.6L119.8,254.6z"/>
	<text transform="matrix(1 0 0 1 71.1983 280.1855)" fill="#221F1F" font-family="'HelveticaNeue-Light'" font-size="18.5954">3D5</text>
	<text transform="matrix(1 0 0 1 61.3477 305.8028)" fill="#221F1F" font-family="'ApexNew-Book'" font-size="8.7063">js/app.js</text>
	<circle fill="#73BD46" stroke="#FFFFFF" stroke-width="2" stroke-miterlimit="10" cx="56" cy="303" r="2.5"/>
	<text transform="matrix(1 0 0 1 61.3477 318.7032)" fill="#221F1F" font-family="'ApexNew-Book'" font-size="8.7063">placeholder</text>
	<circle fill="#B93226" stroke="#FFFFFF" stroke-width="2" stroke-miterlimit="10" cx="56" cy="315.9" r="2.5"/>
</g>
<g id="step-1">
	<text transform="matrix(1.0483 0 0 1 234.1802 276.5098)" fill="#BABCBE" font-family="'ApexNew-Book'" font-size="9.3821">master</text>
	<g>
		<g id="Template_10_">
			<line fill="none" stroke="#E6E6E6" stroke-miterlimit="10" x1="227.2" y1="290.9" x2="146.8" y2="290.9"/>
		</g>
		<g id="border_19_">
			<path fill="#414141" d="M218.9,255.5c4.1,0,7.4,3.3,7.4,7.4v64.3c0,4.1-3.3,7.4-7.4,7.4h-64.3c-4.1,0-7.4-3.3-7.4-7.4v-64.3
				c0-4.1,3.3-7.4,7.4-7.4L218.9,255.5 M218.9,254.8h-64.3c-4.4,0-8,3.6-8,8v64.3c0,4.4,3.6,8,8,8h64.3c4.4,0,8-3.6,8-8v-64.3
				C226.9,258.4,223.3,254.8,218.9,254.8L218.9,254.8z"/>
		</g>
	</g>
	<text transform="matrix(1 0 0 1 171.4873 280.4776)" fill="#221F1F" font-family="'HelveticaNeue-Light'" font-size="18.5954">671</text>
	<text transform="matrix(1 0 0 1 160.4374 306.0948)" fill="#221F1F" font-family="'ApexNew-Book'" font-size="8.7063">js/app.js</text>
	<circle fill="#73BD46" stroke="#FFFFFF" stroke-width="2" stroke-miterlimit="10" cx="155.1" cy="303.3" r="2.5"/>
	<g>
		<g>
			
				<polygon fill="none" stroke="#FFFFFF" stroke-width="3" stroke-linecap="round" stroke-linejoin="round" stroke-miterlimit="10" points="
				152.7,268.4 151.7,269.3 155.9,273.2 121,273.2 121,274.5 155.9,274.5 151.7,278.3 152.7,279.3 158.6,273.9 			"/>
			<polygon fill="#221F1F" points="152.7,268.4 151.7,269.3 155.9,273.2 121,273.2 121,274.5 155.9,274.5 151.7,278.3 152.7,279.3 
				158.6,273.9 			"/>
		</g>
		<circle fill="#221F1F" cx="121" cy="273.9" r="0.7"/>
		<circle fill="#221F1F" cx="152.2" cy="268.8" r="0.7"/>
		<circle fill="#221F1F" cx="152.2" cy="278.8" r="0.7"/>
		<line display="none" fill="none" stroke="#ED358C" stroke-miterlimit="10" x1="127.3" y1="265.5" x2="127.3" y2="281.6"/>
		<line display="none" fill="none" stroke="#ED358C" stroke-miterlimit="10" x1="146.6" y1="265.5" x2="146.6" y2="281.6"/>
	</g>
	<circle fill="#73BD46" stroke="#FFFFFF" stroke-width="2" stroke-miterlimit="10" cx="155.1" cy="316.1" r="2.5"/>
	<text transform="matrix(1 0 0 1 160.4374 318.9951)" fill="#221F1F" font-family="'ApexNew-Book'" font-size="8.7063">index.html</text>
</g>
<g id="step-1-in-out">
	<text transform="matrix(1.0483 0 0 1 325.0586 188.417)" fill="#BABCBE" font-family="'ApexNew-Book'" font-size="9.3821">feature</text>
	<g>
		<g id="Template_8_">
			<line fill="none" stroke="#E6E6E6" stroke-miterlimit="10" x1="218.4" y1="202" x2="138" y2="202"/>
		</g>
		<g id="border_16_">
			<path fill="#414141" d="M210.1,166.6c4.1,0,7.4,3.3,7.4,7.4v64.3c0,4.1-3.3,7.4-7.4,7.4h-64.3c-4.1,0-7.4-3.3-7.4-7.4V174
				c0-4.1,3.3-7.4,7.4-7.4H210.1 M210.1,166h-64.3c-4.4,0-8,3.6-8,8v64.3c0,4.4,3.6,8,8,8h64.3c4.4,0,8-3.6,8-8V174
				C218.1,169.6,214.5,166,210.1,166L210.1,166z"/>
		</g>
	</g>
	<text transform="matrix(1 0 0 1 162.016 191.6036)" fill="#221F1F" font-family="'HelveticaNeue-Light'" font-size="18.5954">A92</text>
	<text transform="matrix(1 0 0 1 151.6539 217.2207)" fill="#221F1F" font-family="'ApexNew-Book'" font-size="8.7063">js/view/user.js</text>
	<circle fill="#73BD46" stroke="#FFFFFF" stroke-width="2" stroke-miterlimit="10" cx="146.3" cy="214.4" r="2.5"/>
	<text transform="matrix(1 0 0 1 151.6539 230.1211)" fill="#221F1F" font-family="'ApexNew-Book'" font-size="8.7063">team.jpg</text>
	<circle fill="#73BD46" stroke="#FFFFFF" stroke-width="2" stroke-miterlimit="10" cx="146.3" cy="227.3" r="2.5"/>
	<g>
		<g id="Template_6_">
			<line fill="none" stroke="#E6E6E6" stroke-miterlimit="10" x1="317.7" y1="201.9" x2="237.3" y2="201.9"/>
		</g>
		<g id="border_14_">
			<path fill="#414141" d="M309.4,166.6c4.1,0,7.4,3.3,7.4,7.4v64.3c0,4.1-3.3,7.4-7.4,7.4h-64.3c-4.1,0-7.4-3.3-7.4-7.4V174
				c0-4.1,3.3-7.4,7.4-7.4H309.4 M309.4,165.9h-64.3c-4.4,0-8,3.6-8,8v64.3c0,4.4,3.6,8,8,8h64.3c4.4,0,8-3.6,8-8v-64.3
				C317.5,169.5,313.8,165.9,309.4,165.9L309.4,165.9z"/>
		</g>
	</g>
	<text transform="matrix(1 0 0 1 261.625 191.5175)" fill="#221F1F" font-family="'HelveticaNeue-Light'" font-size="18.5954">48E</text>
	<text transform="matrix(1 0 0 1 250.919 217.1348)" fill="#221F1F" font-family="'ApexNew-Book'" font-size="8.7063">js/model/user.js</text>
	<circle fill="#73BD46" stroke="#FFFFFF" stroke-width="2" stroke-miterlimit="10" cx="245.5" cy="214.3" r="2.5"/>
	<text transform="matrix(1 0 0 1 250.919 230.0352)" fill="#221F1F" font-family="'ApexNew-Book'" font-size="8.7063">about.html</text>
	<circle fill="#73BD46" stroke="#FFFFFF" stroke-width="2" stroke-miterlimit="10" cx="245.5" cy="227.2" r="2.5"/>
	<g id="XMLID_9_">
		<g>
			
				<polygon fill="none" stroke="#FFFFFF" stroke-width="3" stroke-linecap="round" stroke-linejoin="round" stroke-miterlimit="10" points="
				140.9,235.7 141,237 146.6,236.8 121.9,261.5 122.8,262.5 147.6,237.7 147.4,243.4 148.7,243.4 149,235.4 			"/>
			<polygon fill="#221F1F" points="140.9,235.7 141,237 146.6,236.8 121.9,261.5 122.8,262.5 147.6,237.7 147.4,243.4 148.7,243.4 
				149,235.4 			"/>
		</g>
		<circle fill="#221F1F" cx="122.4" cy="261.9" r="0.7"/>
		<circle fill="#221F1F" cx="140.9" cy="236.3" r="0.7"/>
		<circle fill="#221F1F" cx="148" cy="243.4" r="0.7"/>
		<line display="none" fill="none" stroke="#ED358C" stroke-miterlimit="10" x1="121" y1="251.5" x2="132.4" y2="262.9"/>
		<line display="none" fill="none" stroke="#ED358C" stroke-miterlimit="10" x1="134.6" y1="237.9" x2="146" y2="249.3"/>
	</g>
	<g>
		<g>
			
				<polygon fill="none" stroke="#FFFFFF" stroke-width="3" stroke-linecap="round" stroke-linejoin="round" stroke-miterlimit="10" points="
				243.3,180 242.5,181 246.5,184.8 211.6,184.8 211.6,186.1 246.5,186.1 242.5,190 243.3,191 249.2,185.5 			"/>
			<polygon fill="#221F1F" points="243.3,180 242.5,181 246.5,184.8 211.6,184.8 211.6,186.1 246.5,186.1 242.5,190 243.3,191 
				249.2,185.5 			"/>
		</g>
		<circle fill="#221F1F" cx="211.6" cy="185.5" r="0.7"/>
		<circle fill="#221F1F" cx="242.9" cy="180.4" r="0.7"/>
		<circle fill="#221F1F" cx="242.9" cy="190.4" r="0.7"/>
		<line display="none" fill="none" stroke="#ED358C" stroke-miterlimit="10" x1="218.1" y1="177.1" x2="218.1" y2="193.2"/>
		<line display="none" fill="none" stroke="#ED358C" stroke-miterlimit="10" x1="237.3" y1="177.1" x2="237.3" y2="193.2"/>
	</g>
</g>
<g id="step-3">
	<text transform="matrix(1.0483 0 0 1 422.7383 188.417)" fill="#BABCBE" font-family="'ApexNew-Book'" font-size="9.3821">feature</text>
	<g>
		<g id="Template_5_">
			<line fill="none" stroke="#E6E6E6" stroke-miterlimit="10" x1="316.1" y1="202" x2="235.7" y2="202"/>
		</g>
		<g id="border_12_">
			<path fill="#414141" d="M307.8,166.6c4.1,0,7.4,3.3,7.4,7.4v64.3c0,4.1-3.3,7.4-7.4,7.4h-64.3c-4.1,0-7.4-3.3-7.4-7.4V174
				c0-4.1,3.3-7.4,7.4-7.4H307.8 M307.8,166h-64.3c-4.4,0-8,3.6-8,8v64.3c0,4.4,3.6,8,8,8h64.3c4.4,0,8-3.6,8-8V174
				C315.8,169.6,312.2,166,307.8,166L307.8,166z"/>
		</g>
	</g>
	<text transform="matrix(1 0 0 1 259.6952 191.6036)" fill="#221F1F" font-family="'HelveticaNeue-Light'" font-size="18.5954">A92</text>
	<text transform="matrix(1 0 0 1 249.3335 217.2207)" fill="#221F1F" font-family="'ApexNew-Book'" font-size="8.7063">js/view/user.js</text>
	<circle fill="#73BD46" stroke="#FFFFFF" stroke-width="2" stroke-miterlimit="10" cx="243.9" cy="214.4" r="2.5"/>
	<text transform="matrix(1 0 0 1 249.3335 230.1211)" fill="#221F1F" font-family="'ApexNew-Book'" font-size="8.7063">team.jpg</text>
	<circle fill="#73BD46" stroke="#FFFFFF" stroke-width="2" stroke-miterlimit="10" cx="243.9" cy="227.3" r="2.5"/>
	<text transform="matrix(1 0 0 1 292.3319 191.6036)" fill="#221F1F" font-family="'HelveticaNeue-Light'" font-size="18.5954">´</text>
	<text transform="matrix(1 0 0 1 392.5195 190.8471)" fill="#221F1F" font-family="'HelveticaNeue-Light'" font-size="18.5954">´</text>
	<g>
		<g id="Template_2_">
			<line fill="none" stroke="#E6E6E6" stroke-miterlimit="10" x1="415.4" y1="201.9" x2="334.9" y2="201.9"/>
		</g>
		<g id="border_10_">
			<path fill="#414141" d="M407.1,166.6c4.1,0,7.4,3.3,7.4,7.4v64.3c0,4.1-3.3,7.4-7.4,7.4h-64.3c-4.1,0-7.4-3.3-7.4-7.4V174
				c0-4.1,3.3-7.4,7.4-7.4H407.1 M407.1,165.9h-64.3c-4.4,0-8,3.6-8,8v64.3c0,4.4,3.6,8,8,8h64.3c4.4,0,8-3.6,8-8v-64.3
				C415.1,169.5,411.5,165.9,407.1,165.9L407.1,165.9z"/>
		</g>
	</g>
	<text transform="matrix(1 0 0 1 359.3047 191.5175)" fill="#221F1F" font-family="'HelveticaNeue-Light'" font-size="18.5954">48E</text>
	<text transform="matrix(1 0 0 1 348.5985 217.1348)" fill="#221F1F" font-family="'ApexNew-Book'" font-size="8.7063">js/model/user.js</text>
	<circle fill="#73BD46" stroke="#FFFFFF" stroke-width="2" stroke-miterlimit="10" cx="343.3" cy="214.3" r="2.5"/>
	<text transform="matrix(1 0 0 1 348.5985 230.0352)" fill="#221F1F" font-family="'ApexNew-Book'" font-size="8.7063">about.html</text>
	<circle fill="#73BD46" stroke="#FFFFFF" stroke-width="2" stroke-miterlimit="10" cx="343.3" cy="227.2" r="2.5"/>
	<g id="XMLID_1_">
		<g>
			
				<polygon fill="none" stroke="#FFFFFF" stroke-width="3" stroke-linecap="round" stroke-linejoin="round" stroke-miterlimit="10" points="
				238.6,235.7 238.6,237 244.3,236.8 219.6,261.5 220.5,262.5 245.2,237.7 245,243.4 246.3,243.4 246.7,235.4 			"/>
			<polygon fill="#221F1F" points="238.6,235.7 238.6,237 244.3,236.8 219.6,261.5 220.5,262.5 245.2,237.7 245,243.4 246.3,243.4 
				246.7,235.4 			"/>
		</g>
		<circle fill="#221F1F" cx="220.1" cy="261.9" r="0.7"/>
		<circle fill="#221F1F" cx="238.6" cy="236.3" r="0.7"/>
		<circle fill="#221F1F" cx="245.7" cy="243.4" r="0.7"/>
		<line display="none" fill="none" stroke="#ED358C" stroke-miterlimit="10" x1="218.7" y1="251.5" x2="230.1" y2="262.9"/>
		<line display="none" fill="none" stroke="#ED358C" stroke-miterlimit="10" x1="232.3" y1="237.9" x2="243.7" y2="249.3"/>
	</g>
	<g>
		<g>
			
				<polygon fill="none" stroke="#FFFFFF" stroke-width="3" stroke-linecap="round" stroke-linejoin="round" stroke-miterlimit="10" points="
				341,180 340.1,181 344.3,184.8 309.3,184.8 309.3,186.1 344.3,186.1 340.1,190 341,191 346.9,185.5 			"/>
			<polygon fill="#221F1F" points="341,180 340.1,181 344.3,184.8 309.3,184.8 309.3,186.1 344.3,186.1 340.1,190 341,191 
				346.9,185.5 			"/>
		</g>
		<circle fill="#221F1F" cx="309.3" cy="185.5" r="0.7"/>
		<circle fill="#221F1F" cx="340.6" cy="180.4" r="0.7"/>
		<circle fill="#221F1F" cx="340.6" cy="190.4" r="0.7"/>
		<line display="none" fill="none" stroke="#ED358C" stroke-miterlimit="10" x1="315.7" y1="177.1" x2="315.7" y2="193.2"/>
		<line display="none" fill="none" stroke="#ED358C" stroke-miterlimit="10" x1="335" y1="177.1" x2="335" y2="193.2"/>
	</g>
</g>
</svg>
