<?xml version="1.0" encoding="utf-8"?>
<!-- Generator: Adobe Illustrator 17.1.0, SVG Export Plug-In . SVG Version: 6.00 Build 0)  -->
<!DOCTYPE svg PUBLIC "-//W3C//DTD SVG 1.1//EN" "http://www.w3.org/Graphics/SVG/1.1/DTD/svg11.dtd">
<svg version="1.1" id="Layer_2" xmlns="http://www.w3.org/2000/svg" xmlns:xlink="http://www.w3.org/1999/xlink" x="0px" y="0px"
	 viewBox="0 0 746.1 267.2" enable-background="new 0 0 746.1 267.2" xml:space="preserve">
<g id="boundary">
	<path fill="none" stroke="#008CFF" stroke-width="6" stroke-miterlimit="10" d="M0,0v267.2h746.1V0H0z"/>
</g>
<g id="base">
	<g id="XMLID_5_">
		<g id="Template_9_">
			<line fill="none" stroke="#E6E6E6" stroke-miterlimit="10" x1="137.8" y1="131.2" x2="17.8" y2="131.2"/>
		</g>
		<g id="border_18_">
			<path fill="#414141" d="M125.4,78.5c6.1,0,11,4.9,11,11v96c0,6.1-4.9,11-11,11h-96c-6.1,0-11-4.9-11-11v-96c0-6.1,4.9-11,11-11
				L125.4,78.5 M125.4,77.5h-96c-6.6,0-12,5.4-12,12v96c0,6.6,5.4,12,12,12h96c6.6,0,12-5.4,12-12v-96
				C137.4,82.9,132,77.5,125.4,77.5L125.4,77.5z"/>
		</g>
	</g>
	<g>
		<text transform="matrix(1 0 0 1 53.4149 115.7354)" fill="#221F1F" font-family="'HelveticaNeue-Light'" font-size="27.7481">F3B</text>
		<g>
			<text transform="matrix(1 0 0 1 38.2021 153.9613)" fill="#221F1F" font-family="'ApexNew-Book'" font-size="12.9916">README.md</text>
			<circle fill="#73BD46" stroke="#FFFFFF" stroke-width="2" stroke-miterlimit="10" cx="30.2" cy="149.7" r="3.8"/>
		</g>
		<g display="none">
			
				<text transform="matrix(1 0 0 1 38.2021 173.2113)" display="inline" fill="#221F1F" font-family="'ApexNew-Book'" font-size="12.9916">placeholder</text>
			<circle display="inline" fill="#B93226" stroke="#FFFFFF" stroke-width="2" stroke-miterlimit="10" cx="30.2" cy="169" r="3.8"/>
		</g>
	</g>
</g>
<g id="step-1-in-out_1_">
	<g id="XMLID_3_">
		<g>
			
				<polygon fill="none" stroke="#FFFFFF" stroke-width="3" stroke-linecap="round" stroke-linejoin="round" stroke-miterlimit="10" points="
				617.8,98.1 616.4,99.5 622.5,105.2 570.5,105.2 570.5,107.2 622.6,107.2 616.4,113 617.8,114.4 626.6,106.3 			"/>
			<polygon fill="#221F1F" points="617.8,98.1 616.4,99.5 622.5,105.2 570.5,105.2 570.5,107.2 622.6,107.2 616.4,113 617.8,114.4 
				626.6,106.3 			"/>
		</g>
		<circle fill="#221F1F" cx="570.5" cy="106.2" r="1"/>
		<circle fill="#221F1F" cx="617.1" cy="98.8" r="1"/>
		<circle fill="#221F1F" cx="617.1" cy="113.7" r="1"/>
		<line display="none" fill="none" stroke="#ED358C" stroke-miterlimit="10" x1="580" y1="93.7" x2="580" y2="117.8"/>
		<line display="none" fill="none" stroke="#ED358C" stroke-miterlimit="10" x1="608.7" y1="93.7" x2="608.7" y2="117.8"/>
	</g>
	<path fill="none" stroke="#221F1F" stroke-miterlimit="10" d="M430.7,207.1"/>
	<g>
		<g>
			<g id="Template_8_">
				<line fill="none" stroke="#E6E6E6" stroke-miterlimit="10" x1="285.7" y1="131.7" x2="165.7" y2="131.7"/>
			</g>
			<g id="border_16_">
				<path fill="#414141" d="M273.3,78.9c6.1,0,11,4.9,11,11v96c0,6.1-4.9,11-11,11h-96c-6.1,0-11-4.9-11-11v-96c0-6.1,4.9-11,11-11
					L273.3,78.9 M273.3,77.9h-96c-6.6,0-12,5.4-12,12v96c0,6.6,5.4,12,12,12h96c6.6,0,12-5.4,12-12v-96
					C285.3,83.3,279.9,77.9,273.3,77.9L273.3,77.9z"/>
			</g>
		</g>
		<g>
			<text transform="matrix(1 0 0 1 202.0388 116.1711)" fill="#221F1F" font-family="'HelveticaNeue-Light'" font-size="27.7481">48E</text>
			<g>
				<text transform="matrix(1 0 0 1 186.0633 154.3971)" fill="#221F1F" font-family="'ApexNew-Book'" font-size="12.9916">README.md</text>
				<circle fill="#BD2C00" stroke="#FFFFFF" stroke-width="2" stroke-miterlimit="10" cx="178" cy="150.2" r="3.8"/>
			</g>
			<g display="none">
				
					<text transform="matrix(1 0 0 1 186.0633 173.647)" display="inline" fill="#221F1F" font-family="'ApexNew-Book'" font-size="12.9916">index.html</text>
				
					<circle display="inline" fill="#73BD46" stroke="#FFFFFF" stroke-width="2" stroke-miterlimit="10" cx="178" cy="169.4" r="3.8"/>
			</g>
		</g>
	</g>
	<g>
		<g>
			<g id="Template_6_">
				<line fill="none" stroke="#E6E6E6" stroke-miterlimit="10" x1="433" y1="131.4" x2="313" y2="131.4"/>
			</g>
			<g id="border_14_">
				<path fill="#414141" d="M420.6,78.6c6.1,0,11,4.9,11,11v96c0,6.1-4.9,11-11,11h-96c-6.1,0-11-4.9-11-11v-96c0-6.1,4.9-11,11-11
					H420.6 M420.6,77.6h-96c-6.6,0-12,5.4-12,12v96c0,6.6,5.4,12,12,12h96c6.6,0,12-5.4,12-12v-96C432.6,83,427.2,77.6,420.6,77.6
					L420.6,77.6z"/>
			</g>
		</g>
		<g>
			<text transform="matrix(1 0 0 1 348.0713 115.8637)" fill="#221F1F" font-family="'HelveticaNeue-Light'" font-size="27.7481">62D</text>
			<text transform="matrix(1 0 0 1 333.3722 154.0896)" fill="#221F1F" font-family="'ApexNew-Book'" font-size="12.9916">script/setup</text>
			<circle fill="#73BD46" stroke="#FFFFFF" stroke-width="2" stroke-miterlimit="10" cx="325.3" cy="149.9" r="3.8"/>
			<g display="none">
				
					<text transform="matrix(1 0 0 1 333.3722 173.3396)" display="inline" fill="#221F1F" font-family="'ApexNew-Book'" font-size="12.9916">team.jpg</text>
				
					<circle display="inline" fill="#73BD46" stroke="#FFFFFF" stroke-width="2" stroke-miterlimit="10" cx="325.3" cy="169.1" r="3.8"/>
			</g>
		</g>
	</g>
	<g>
		<g>
			<g id="Template_5_">
				<line fill="none" stroke="#E6E6E6" stroke-miterlimit="10" x1="581.1" y1="131.2" x2="461.1" y2="131.2"/>
			</g>
			<g id="border_12_">
				<path fill="#414141" d="M568.7,78.5c6.1,0,11,4.9,11,11v96c0,6.1-4.9,11-11,11h-96c-6.1,0-11-4.9-11-11v-96c0-6.1,4.9-11,11-11
					L568.7,78.5 M568.7,77.5h-96c-6.6,0-12,5.4-12,12v96c0,6.6,5.4,12,12,12h96c6.6,0,12-5.4,12-12v-96
					C580.7,82.9,575.3,77.5,568.7,77.5L568.7,77.5z"/>
			</g>
		</g>
		<g>
			<text transform="matrix(1 0 0 1 496.9578 115.7353)" fill="#221F1F" font-family="'HelveticaNeue-Light'" font-size="27.7481">A11</text>
			<text transform="matrix(1 0 0 1 481.4955 153.9613)" fill="#221F1F" font-family="'ApexNew-Book'" font-size="12.9916">script/update</text>
			<circle fill="#73BD46" stroke="#FFFFFF" stroke-width="2" stroke-miterlimit="10" cx="473.5" cy="149.7" r="3.8"/>
			<g display="none">
				
					<text transform="matrix(1 0 0 1 481.4955 173.2113)" display="inline" fill="#221F1F" font-family="'ApexNew-Book'" font-size="12.9916">script/update</text>
				
					<circle display="inline" fill="#73BD46" stroke="#FFFFFF" stroke-width="2" stroke-miterlimit="10" cx="473.5" cy="169" r="3.8"/>
			</g>
		</g>
	</g>
	<g>
		<g>
			
				<polygon fill="none" stroke="#FFFFFF" stroke-width="3" stroke-linecap="round" stroke-linejoin="round" stroke-miterlimit="10" points="
				470.2,98.5 468.8,100 475,105.7 422.9,105.7 422.9,107.7 475,107.7 468.8,113.4 470.2,114.9 479,106.7 			"/>
			<polygon fill="#221F1F" points="470.2,98.5 468.8,100 475,105.7 422.9,105.7 422.9,107.7 475,107.7 468.8,113.4 470.2,114.9 
				479,106.7 			"/>
		</g>
		<circle fill="#221F1F" cx="422.9" cy="106.7" r="1"/>
		<circle fill="#221F1F" cx="469.5" cy="99.2" r="1"/>
		<circle fill="#221F1F" cx="469.5" cy="114.1" r="1"/>
		<line display="none" fill="none" stroke="#ED358C" stroke-miterlimit="10" x1="432.4" y1="94.2" x2="432.4" y2="118.2"/>
		<line display="none" fill="none" stroke="#ED358C" stroke-miterlimit="10" x1="461.2" y1="94.2" x2="461.2" y2="118.2"/>
	</g>
	<g id="XMLID_2_">
		<g>
			
				<polygon fill="none" stroke="#FFFFFF" stroke-width="3" stroke-linecap="round" stroke-linejoin="round" stroke-miterlimit="10" points="
				322.6,98.1 321.3,99.5 327.4,105.2 275.3,105.2 275.3,107.2 327.4,107.2 321.3,113 322.6,114.4 331.4,106.3 			"/>
			<polygon fill="#221F1F" points="322.6,98.1 321.3,99.5 327.4,105.2 275.3,105.2 275.3,107.2 327.4,107.2 321.3,113 322.6,114.4 
				331.4,106.3 			"/>
		</g>
		<circle fill="#221F1F" cx="275.3" cy="106.2" r="1"/>
		<circle fill="#221F1F" cx="321.9" cy="98.8" r="1"/>
		<circle fill="#221F1F" cx="322" cy="113.7" r="1"/>
		<line display="none" fill="none" stroke="#ED358C" stroke-miterlimit="10" x1="284.9" y1="93.7" x2="284.9" y2="117.8"/>
		<line display="none" fill="none" stroke="#ED358C" stroke-miterlimit="10" x1="313.6" y1="93.7" x2="313.6" y2="117.8"/>
	</g>
	<g id="XMLID_1_">
		<g>
			
				<polygon fill="none" stroke="#FFFFFF" stroke-width="3" stroke-linecap="round" stroke-linejoin="round" stroke-miterlimit="10" points="
				174.8,98.1 173.4,99.5 179.5,105.2 127.5,105.2 127.5,107.2 179.6,107.2 173.4,113 174.8,114.4 183.6,106.3 			"/>
			<polygon fill="#221F1F" points="174.8,98.1 173.4,99.5 179.5,105.2 127.5,105.2 127.5,107.2 179.6,107.2 173.4,113 174.8,114.4 
				183.6,106.3 			"/>
		</g>
		<circle fill="#221F1F" cx="127.5" cy="106.2" r="1"/>
		<circle fill="#221F1F" cx="174.1" cy="98.8" r="1"/>
		<circle fill="#221F1F" cx="174.1" cy="113.7" r="1"/>
		<line display="none" fill="none" stroke="#ED358C" stroke-miterlimit="10" x1="137" y1="93.7" x2="137" y2="117.8"/>
		<line display="none" fill="none" stroke="#ED358C" stroke-miterlimit="10" x1="165.7" y1="93.7" x2="165.7" y2="117.8"/>
	</g>
	<g>
		<g>
			<g id="Template_4_">
				<line fill="none" stroke="#E6E6E6" stroke-miterlimit="10" x1="728.7" y1="131.7" x2="608.7" y2="131.7"/>
			</g>
			<g id="border_8_">
				<path fill="#414141" d="M716.3,78.9c6.1,0,11,4.9,11,11v96c0,6.1-4.9,11-11,11h-96c-6.1,0-11-4.9-11-11v-96c0-6.1,4.9-11,11-11
					L716.3,78.9 M716.3,77.9h-96c-6.6,0-12,5.4-12,12v96c0,6.6,5.4,12,12,12h96c6.6,0,12-5.4,12-12v-96
					C728.3,83.3,722.9,77.9,716.3,77.9L716.3,77.9z"/>
			</g>
		</g>
		<g>
			<text transform="matrix(1 0 0 1 644.0125 116.1711)" fill="#221F1F" font-family="'HelveticaNeue-Light'" font-size="27.7481">B97</text>
			<g>
				<text transform="matrix(1 0 0 1 629.0633 154.3971)" fill="#221F1F" font-family="'ApexNew-Book'" font-size="12.9916">script/server</text>
				<circle fill="#73BD46" stroke="#FFFFFF" stroke-width="2" stroke-miterlimit="10" cx="621" cy="150.2" r="3.8"/>
			</g>
			<g display="none">
				
					<text transform="matrix(1 0 0 1 629.0633 173.647)" display="inline" fill="#221F1F" font-family="'ApexNew-Book'" font-size="12.9916">index.html</text>
				
					<circle display="inline" fill="#73BD46" stroke="#FFFFFF" stroke-width="2" stroke-miterlimit="10" cx="621" cy="169.4" r="3.8"/>
			</g>
		</g>
	</g>
</g>
<g id="step-2">
	<path fill="none" stroke="#221F1F" stroke-miterlimit="10" d="M430.7,207.1"/>
	<line fill="none" stroke="#E6E6E6" stroke-width="0.6" stroke-miterlimit="10" x1="261.6" y1="59.7" x2="189.6" y2="59.7"/>
	<path fill="#414141" d="M254.2,28.1c3.6,0,6.6,3,6.6,6.6v57.6c0,3.6-3,6.6-6.6,6.6h-57.6c-3.6,0-6.6-3-6.6-6.6V34.7
		c0-3.6,3-6.6,6.6-6.6L254.2,28.1 M254.2,27.5h-57.6c-4,0-7.2,3.2-7.2,7.2v57.6c0,4,3.2,7.2,7.2,7.2h57.6c4,0,7.2-3.2,7.2-7.2V34.7
		C261.4,30.7,258.1,27.5,254.2,27.5L254.2,27.5z"/>
	<text transform="matrix(1 0 0 1 211.4238 50.4397)" fill="#221F1F" font-family="'HelveticaNeue-Light'" font-size="16.6489">48E</text>
	<text transform="matrix(1 0 0 1 201.8383 73.3755)" fill="#221F1F" font-family="'ApexNew-Book'" font-size="7.795">README.md</text>
	<circle fill="#BD2C00" stroke="#FFFFFF" stroke-width="2" stroke-miterlimit="10" cx="197" cy="70.8" r="2.2"/>
	<line fill="none" stroke="#E6E6E6" stroke-miterlimit="10" x1="433" y1="131.4" x2="313" y2="131.4"/>
	<path fill="#414141" d="M420.6,78.6c6.1,0,11,4.9,11,11v96c0,6.1-4.9,11-11,11h-96c-6.1,0-11-4.9-11-11v-96c0-6.1,4.9-11,11-11
		H420.6 M420.6,77.6h-96c-6.6,0-12,5.4-12,12v96c0,6.6,5.4,12,12,12h96c6.6,0,12-5.4,12-12v-96C432.6,83,427.2,77.6,420.6,77.6
		L420.6,77.6z"/>
	<text transform="matrix(1 0 0 1 348.0713 115.8637)" fill="#221F1F" font-family="'HelveticaNeue-Light'" font-size="27.7481">62D</text>
	<text transform="matrix(1 0 0 1 333.3722 154.0896)" fill="#221F1F" font-family="'ApexNew-Book'" font-size="12.9916">script/setup</text>
	<circle fill="#73BD46" stroke="#FFFFFF" stroke-width="2" stroke-miterlimit="10" cx="325.3" cy="149.9" r="3.8"/>
	<text transform="matrix(1 0 0 1 333.3722 173.3396)" fill="#221F1F" font-family="'ApexNew-Book'" font-size="12.9916">script/update</text>
	<circle fill="#73BD46" stroke="#FFFFFF" stroke-width="2" stroke-miterlimit="10" cx="325.3" cy="169.1" r="3.8"/>
	
		<text id="Prime_2_" transform="matrix(1 0 0 1 399.5345 115.466)" fill="#221F1F" font-family="'HelveticaNeue-Light'" font-size="27.7481">´</text>
	
		<text id="Prime_1_" transform="matrix(1 0 0 1 696.2011 115.466)" fill="#221F1F" font-family="'HelveticaNeue-Light'" font-size="27.7481">´</text>
	<path fill="none" stroke="#FFFFFF" stroke-width="3" stroke-linecap="round" stroke-linejoin="round" stroke-miterlimit="10" d="
		M322.8,98.1L322.8,98.1l-1.4,1.5l6.1,5.7c0,0-6.5,0-14.8,0c-55.5,0-123.8,0-174.4,0c-6.4,0-10.9,0-10.9,0v2c0,0,4.5,0,10.9,0
		c50.6,0,118.8,0,174.4,0c8.4,0,14.8,0,14.8,0l-6.1,5.7l1.4,1.5l8.8-8.2C331.6,106.3,322.8,98.1,322.8,98.1L322.8,98.1z"/>
	<path fill="#221F1F" d="M322.8,98.1L322.8,98.1l-1.4,1.5l6.1,5.7c0,0-6.5,0-14.8,0c-55.5,0-123.8,0-174.4,0c-6.4,0-10.9,0-10.9,0v2
		c0,0,4.5,0,10.9,0c50.6,0,118.8,0,174.4,0c8.4,0,14.8,0,14.8,0l-6.1,5.7l1.4,1.5l8.8-8.2C331.6,106.3,322.8,98.1,322.8,98.1
		L322.8,98.1z"/>
	<path fill="none" stroke="#FFFFFF" stroke-width="3" stroke-linecap="round" stroke-linejoin="round" stroke-miterlimit="10" d="
		M617.8,98.5L617.8,98.5l-1.4,1.5l6.1,5.7c0,0-6.5,0-14.8,0c-55.4,0-123.5,0-173.9,0c-6.4,0-10.9,0-10.9,0v2c0,0,4.5,0,10.9,0
		c50.4,0,118.5,0,173.9,0c8.4,0,14.8,0,14.8,0l-6.2,5.7l1.4,1.5l8.8-8.2C626.6,106.7,617.8,98.5,617.8,98.5L617.8,98.5z"/>
	<path fill="#221F1F" d="M617.8,98.5L617.8,98.5l-1.4,1.5l6.1,5.7c0,0-6.5,0-14.8,0c-55.4,0-123.5,0-173.9,0c-6.4,0-10.9,0-10.9,0v2
		c0,0,4.5,0,10.9,0c50.4,0,118.5,0,173.9,0c8.4,0,14.8,0,14.8,0l-6.2,5.7l1.4,1.5l8.8-8.2C626.6,106.7,617.8,98.5,617.8,98.5
		L617.8,98.5z"/>
	<circle fill="#221F1F" cx="422.9" cy="106.7" r="1"/>
	<path fill="#221F1F" d="M617.8,98.5L617.8,98.5c0.4,0.4,0.4,1,0,1.4c-0.4,0.4-1,0.4-1.4,0c-0.4-0.4-0.4-1,0-1.4l0,0
		C616.7,98.1,617.4,98.1,617.8,98.5z"/>
	<path fill="#221F1F" d="M617.8,113.4c0.4,0.4,0.4,1,0,1.4c0,0,0,0-0.1,0.1c-0.4,0.3-0.9,0.3-1.3,0c0,0,0,0-0.1-0.1
		c-0.4-0.4-0.4-1,0-1.4C616.8,113,617.4,113,617.8,113.4z"/>
	<line fill="none" stroke="#E6E6E6" stroke-miterlimit="10" x1="728.7" y1="131.7" x2="608.7" y2="131.7"/>
	<path fill="#414141" d="M716.3,78.9c6.1,0,11,4.9,11,11v96c0,6.1-4.9,11-11,11h-96c-6.1,0-11-4.9-11-11v-96c0-6.1,4.9-11,11-11
		L716.3,78.9 M716.3,77.9h-96c-6.6,0-12,5.4-12,12v96c0,6.6,5.4,12,12,12h96c6.6,0,12-5.4,12-12v-96
		C728.3,83.3,722.9,77.9,716.3,77.9L716.3,77.9z"/>
	<text transform="matrix(1 0 0 1 644.0125 116.1711)" fill="#221F1F" font-family="'HelveticaNeue-Light'" font-size="27.7481">B97</text>
	<text transform="matrix(1 0 0 1 629.0633 154.3971)" fill="#221F1F" font-family="'ApexNew-Book'" font-size="12.9916">script/server</text>
	<circle fill="#73BD46" stroke="#FFFFFF" stroke-width="2" stroke-miterlimit="10" cx="621" cy="150.2" r="3.8"/>
</g>
</svg>
