<?xml version="1.0" encoding="utf-8"?>
<!-- Generator: Adobe Illustrator 17.1.0, SVG Export Plug-In . SVG Version: 6.00 Build 0)  -->
<!DOCTYPE svg PUBLIC "-//W3C//DTD SVG 1.1//EN" "http://www.w3.org/Graphics/SVG/1.1/DTD/svg11.dtd">
<svg version="1.1" id="Layer_2" xmlns="http://www.w3.org/2000/svg" xmlns:xlink="http://www.w3.org/1999/xlink" x="0px" y="0px"
	 viewBox="38 303 427 197" enable-background="new 38 303 427 197" xml:space="preserve">
<g id="base">
	<g id="Template_1_">
		<line fill="none" stroke="#E6E6E6" stroke-miterlimit="10" x1="128.1" y1="439.5" x2="47.7" y2="439.5"/>
	</g>
	<path id="border_1_" fill="#414141" d="M119.8,404.2c4.1,0,7.4,3.3,7.4,7.4v64.3c0,4.1-3.3,7.4-7.4,7.4H55.5
		c-4.1,0-7.4-3.3-7.4-7.4v-64.3c0-4.1,3.3-7.4,7.4-7.4L119.8,404.2 M119.8,403.6H55.5c-4.4,0-8,3.6-8,8v64.3c0,4.4,3.6,8,8,8h64.3
		c4.4,0,8-3.6,8-8v-64.3C127.9,407.2,124.2,403.6,119.8,403.6L119.8,403.6z"/>
	<text transform="matrix(1 0 0 1 71.1983 429.1855)" fill="#221F1F" font-family="'HelveticaNeue-Light'" font-size="18.5954">3D5</text>
	<text transform="matrix(1 0 0 1 61.3477 454.8028)" fill="#221F1F" font-family="'ApexNew-Book'" font-size="8.7063">js/app.js</text>
	<circle fill="#73BD46" stroke="#FFFFFF" stroke-width="2" stroke-miterlimit="10" cx="56" cy="452" r="2.5"/>
	<text transform="matrix(1 0 0 1 61.3477 467.7032)" fill="#221F1F" font-family="'ApexNew-Book'" font-size="8.7063">placeholder</text>
	<circle fill="#B93226" stroke="#FFFFFF" stroke-width="2" stroke-miterlimit="10" cx="56" cy="464.9" r="2.5"/>
</g>
<g id="step-1">
	<text transform="matrix(1.0483 0 0 1 234.1802 425.5098)" fill="#BABCBE" font-family="'ApexNew-Book'" font-size="9.3821">master</text>
	<g>
		<g id="Template_10_">
			<line fill="none" stroke="#E6E6E6" stroke-miterlimit="10" x1="227.2" y1="439.9" x2="146.8" y2="439.9"/>
		</g>
		<g id="border_19_">
			<path fill="#414141" d="M218.9,404.5c4.1,0,7.4,3.3,7.4,7.4v64.3c0,4.1-3.3,7.4-7.4,7.4h-64.3c-4.1,0-7.4-3.3-7.4-7.4v-64.3
				c0-4.1,3.3-7.4,7.4-7.4L218.9,404.5 M218.9,403.8h-64.3c-4.4,0-8,3.6-8,8v64.3c0,4.4,3.6,8,8,8h64.3c4.4,0,8-3.6,8-8v-64.3
				C226.9,407.4,223.3,403.8,218.9,403.8L218.9,403.8z"/>
		</g>
	</g>
	<text transform="matrix(1 0 0 1 171.4873 429.4776)" fill="#221F1F" font-family="'HelveticaNeue-Light'" font-size="18.5954">671</text>
	<text transform="matrix(1 0 0 1 160.4374 455.0948)" fill="#221F1F" font-family="'ApexNew-Book'" font-size="8.7063">js/app.js</text>
	<circle fill="#73BD46" stroke="#FFFFFF" stroke-width="2" stroke-miterlimit="10" cx="155.1" cy="452.3" r="2.5"/>
	<g>
		<g>
			
				<polygon fill="none" stroke="#FFFFFF" stroke-width="3" stroke-linecap="round" stroke-linejoin="round" stroke-miterlimit="10" points="
				152.7,417.4 151.7,418.3 155.9,422.2 121,422.2 121,423.5 155.9,423.5 151.7,427.3 152.7,428.3 158.6,422.9 			"/>
			<polygon fill="#221F1F" points="152.7,417.4 151.7,418.3 155.9,422.2 121,422.2 121,423.5 155.9,423.5 151.7,427.3 152.7,428.3 
				158.6,422.9 			"/>
		</g>
		<circle fill="#221F1F" cx="121" cy="422.9" r="0.7"/>
		<circle fill="#221F1F" cx="152.2" cy="417.8" r="0.7"/>
		<circle fill="#221F1F" cx="152.2" cy="427.8" r="0.7"/>
		<line display="none" fill="none" stroke="#ED358C" stroke-miterlimit="10" x1="127.3" y1="414.5" x2="127.3" y2="430.6"/>
		<line display="none" fill="none" stroke="#ED358C" stroke-miterlimit="10" x1="146.6" y1="414.5" x2="146.6" y2="430.6"/>
	</g>
	<circle fill="#73BD46" stroke="#FFFFFF" stroke-width="2" stroke-miterlimit="10" cx="155.1" cy="465.1" r="2.5"/>
	<text transform="matrix(1 0 0 1 160.4374 467.9951)" fill="#221F1F" font-family="'ApexNew-Book'" font-size="8.7063">index.html</text>
</g>
<g id="step-1-in-out" display="none">
	
		<text transform="matrix(1.0483 0 0 1 325.0586 337.417)" display="inline" fill="#BABCBE" font-family="'ApexNew-Book'" font-size="9.3821">feature</text>
	<g display="inline">
		<g id="Template_8_">
			<line fill="none" stroke="#E6E6E6" stroke-miterlimit="10" x1="218.4" y1="351" x2="138" y2="351"/>
		</g>
		<g id="border_16_">
			<path fill="#414141" d="M210.1,315.6c4.1,0,7.4,3.3,7.4,7.4v64.3c0,4.1-3.3,7.4-7.4,7.4h-64.3c-4.1,0-7.4-3.3-7.4-7.4V323
				c0-4.1,3.3-7.4,7.4-7.4H210.1 M210.1,315h-64.3c-4.4,0-8,3.6-8,8v64.3c0,4.4,3.6,8,8,8h64.3c4.4,0,8-3.6,8-8V323
				C218.1,318.6,214.5,315,210.1,315L210.1,315z"/>
		</g>
	</g>
	
		<text transform="matrix(1 0 0 1 162.016 340.6036)" display="inline" fill="#221F1F" font-family="'HelveticaNeue-Light'" font-size="18.5954">A92</text>
	
		<text transform="matrix(1 0 0 1 151.6539 366.2207)" display="inline" fill="#221F1F" font-family="'ApexNew-Book'" font-size="8.7063">js/view/user.js</text>
	
		<circle display="inline" fill="#73BD46" stroke="#FFFFFF" stroke-width="2" stroke-miterlimit="10" cx="146.3" cy="363.4" r="2.5"/>
	
		<text transform="matrix(1 0 0 1 151.6539 379.1211)" display="inline" fill="#221F1F" font-family="'ApexNew-Book'" font-size="8.7063">team.jpg</text>
	
		<circle display="inline" fill="#73BD46" stroke="#FFFFFF" stroke-width="2" stroke-miterlimit="10" cx="146.3" cy="376.3" r="2.5"/>
	<g display="inline">
		<g id="Template_6_">
			<line fill="none" stroke="#E6E6E6" stroke-miterlimit="10" x1="317.7" y1="350.9" x2="237.3" y2="350.9"/>
		</g>
		<g id="border_14_">
			<path fill="#414141" d="M309.4,315.6c4.1,0,7.4,3.3,7.4,7.4v64.3c0,4.1-3.3,7.4-7.4,7.4h-64.3c-4.1,0-7.4-3.3-7.4-7.4V323
				c0-4.1,3.3-7.4,7.4-7.4H309.4 M309.4,314.9h-64.3c-4.4,0-8,3.6-8,8v64.3c0,4.4,3.6,8,8,8h64.3c4.4,0,8-3.6,8-8v-64.3
				C317.5,318.5,313.8,314.9,309.4,314.9L309.4,314.9z"/>
		</g>
	</g>
	
		<text transform="matrix(1 0 0 1 261.625 340.5175)" display="inline" fill="#221F1F" font-family="'HelveticaNeue-Light'" font-size="18.5954">48E</text>
	
		<text transform="matrix(1 0 0 1 250.919 366.1348)" display="inline" fill="#221F1F" font-family="'ApexNew-Book'" font-size="8.7063">js/model/user.js</text>
	
		<circle display="inline" fill="#73BD46" stroke="#FFFFFF" stroke-width="2" stroke-miterlimit="10" cx="245.5" cy="363.3" r="2.5"/>
	
		<text transform="matrix(1 0 0 1 250.919 379.0352)" display="inline" fill="#221F1F" font-family="'ApexNew-Book'" font-size="8.7063">about.html</text>
	
		<circle display="inline" fill="#73BD46" stroke="#FFFFFF" stroke-width="2" stroke-miterlimit="10" cx="245.5" cy="376.2" r="2.5"/>
	<g id="XMLID_9_" display="inline">
		<g>
			
				<polygon fill="none" stroke="#FFFFFF" stroke-width="3" stroke-linecap="round" stroke-linejoin="round" stroke-miterlimit="10" points="
				140.9,384.7 141,386 146.6,385.8 121.9,410.5 122.8,411.5 147.6,386.7 147.4,392.4 148.7,392.4 149,384.4 			"/>
			<polygon fill="#221F1F" points="140.9,384.7 141,386 146.6,385.8 121.9,410.5 122.8,411.5 147.6,386.7 147.4,392.4 148.7,392.4 
				149,384.4 			"/>
		</g>
		<circle fill="#221F1F" cx="122.4" cy="410.9" r="0.7"/>
		<circle fill="#221F1F" cx="140.9" cy="385.3" r="0.7"/>
		<circle fill="#221F1F" cx="148" cy="392.4" r="0.7"/>
		<line display="none" fill="none" stroke="#ED358C" stroke-miterlimit="10" x1="121" y1="400.5" x2="132.4" y2="411.9"/>
		<line display="none" fill="none" stroke="#ED358C" stroke-miterlimit="10" x1="134.6" y1="386.9" x2="146" y2="398.3"/>
	</g>
	<g display="inline">
		<g>
			
				<polygon fill="none" stroke="#FFFFFF" stroke-width="3" stroke-linecap="round" stroke-linejoin="round" stroke-miterlimit="10" points="
				243.3,329 242.5,330 246.5,333.8 211.6,333.8 211.6,335.1 246.5,335.1 242.5,339 243.3,340 249.2,334.5 			"/>
			<polygon fill="#221F1F" points="243.3,329 242.5,330 246.5,333.8 211.6,333.8 211.6,335.1 246.5,335.1 242.5,339 243.3,340 
				249.2,334.5 			"/>
		</g>
		<circle fill="#221F1F" cx="211.6" cy="334.5" r="0.7"/>
		<circle fill="#221F1F" cx="242.9" cy="329.4" r="0.7"/>
		<circle fill="#221F1F" cx="242.9" cy="339.4" r="0.7"/>
		<line display="none" fill="none" stroke="#ED358C" stroke-miterlimit="10" x1="218.1" y1="326.1" x2="218.1" y2="342.2"/>
		<line display="none" fill="none" stroke="#ED358C" stroke-miterlimit="10" x1="237.3" y1="326.1" x2="237.3" y2="342.2"/>
	</g>
</g>
<g id="step-3">
	<text transform="matrix(1.0483 0 0 1 422.7383 337.417)" fill="#BABCBE" font-family="'ApexNew-Book'" font-size="9.3821">feature</text>
	<g>
		<g id="Template_5_">
			<line fill="none" stroke="#E6E6E6" stroke-miterlimit="10" x1="316.1" y1="351" x2="235.7" y2="351"/>
		</g>
		<g id="border_12_">
			<path fill="#414141" d="M307.8,315.6c4.1,0,7.4,3.3,7.4,7.4v64.3c0,4.1-3.3,7.4-7.4,7.4h-64.3c-4.1,0-7.4-3.3-7.4-7.4V323
				c0-4.1,3.3-7.4,7.4-7.4H307.8 M307.8,315h-64.3c-4.4,0-8,3.6-8,8v64.3c0,4.4,3.6,8,8,8h64.3c4.4,0,8-3.6,8-8V323
				C315.8,318.6,312.2,315,307.8,315L307.8,315z"/>
		</g>
	</g>
	<text transform="matrix(1 0 0 1 259.6952 340.6036)" fill="#221F1F" font-family="'HelveticaNeue-Light'" font-size="18.5954">A92</text>
	<text transform="matrix(1 0 0 1 249.3335 366.2207)" fill="#221F1F" font-family="'ApexNew-Book'" font-size="8.7063">js/view/user.js</text>
	<circle fill="#73BD46" stroke="#FFFFFF" stroke-width="2" stroke-miterlimit="10" cx="243.9" cy="363.4" r="2.5"/>
	<text transform="matrix(1 0 0 1 249.3335 379.1211)" fill="#221F1F" font-family="'ApexNew-Book'" font-size="8.7063">team.jpg</text>
	<circle fill="#73BD46" stroke="#FFFFFF" stroke-width="2" stroke-miterlimit="10" cx="243.9" cy="376.3" r="2.5"/>
	<text transform="matrix(1 0 0 1 292.3319 340.6036)" fill="#221F1F" font-family="'HelveticaNeue-Light'" font-size="18.5954">´</text>
	<text transform="matrix(1 0 0 1 392.5195 339.8471)" fill="#221F1F" font-family="'HelveticaNeue-Light'" font-size="18.5954">´</text>
	<g>
		<g id="Template_2_">
			<line fill="none" stroke="#E6E6E6" stroke-miterlimit="10" x1="415.4" y1="350.9" x2="334.9" y2="350.9"/>
		</g>
		<g id="border_10_">
			<path fill="#414141" d="M407.1,315.6c4.1,0,7.4,3.3,7.4,7.4v64.3c0,4.1-3.3,7.4-7.4,7.4h-64.3c-4.1,0-7.4-3.3-7.4-7.4V323
				c0-4.1,3.3-7.4,7.4-7.4H407.1 M407.1,314.9h-64.3c-4.4,0-8,3.6-8,8v64.3c0,4.4,3.6,8,8,8h64.3c4.4,0,8-3.6,8-8v-64.3
				C415.1,318.5,411.5,314.9,407.1,314.9L407.1,314.9z"/>
		</g>
	</g>
	<text transform="matrix(1 0 0 1 359.3047 340.5175)" fill="#221F1F" font-family="'HelveticaNeue-Light'" font-size="18.5954">48E</text>
	<text transform="matrix(1 0 0 1 348.5985 366.1348)" fill="#221F1F" font-family="'ApexNew-Book'" font-size="8.7063">js/model/user.js</text>
	<circle fill="#73BD46" stroke="#FFFFFF" stroke-width="2" stroke-miterlimit="10" cx="343.3" cy="363.3" r="2.5"/>
	<text transform="matrix(1 0 0 1 348.5985 379.0352)" fill="#221F1F" font-family="'ApexNew-Book'" font-size="8.7063">about.html</text>
	<circle fill="#73BD46" stroke="#FFFFFF" stroke-width="2" stroke-miterlimit="10" cx="343.3" cy="376.2" r="2.5"/>
	<g id="XMLID_1_">
		<g>
			
				<polygon fill="none" stroke="#FFFFFF" stroke-width="3" stroke-linecap="round" stroke-linejoin="round" stroke-miterlimit="10" points="
				238.6,384.7 238.6,386 244.3,385.8 219.6,410.5 220.5,411.5 245.2,386.7 245,392.4 246.3,392.4 246.7,384.4 			"/>
			<polygon fill="#221F1F" points="238.6,384.7 238.6,386 244.3,385.8 219.6,410.5 220.5,411.5 245.2,386.7 245,392.4 246.3,392.4 
				246.7,384.4 			"/>
		</g>
		<circle fill="#221F1F" cx="220.1" cy="410.9" r="0.7"/>
		<circle fill="#221F1F" cx="238.6" cy="385.3" r="0.7"/>
		<circle fill="#221F1F" cx="245.7" cy="392.4" r="0.7"/>
		<line display="none" fill="none" stroke="#ED358C" stroke-miterlimit="10" x1="218.7" y1="400.5" x2="230.1" y2="411.9"/>
		<line display="none" fill="none" stroke="#ED358C" stroke-miterlimit="10" x1="232.3" y1="386.9" x2="243.7" y2="398.3"/>
	</g>
	<g>
		<g>
			
				<polygon fill="none" stroke="#FFFFFF" stroke-width="3" stroke-linecap="round" stroke-linejoin="round" stroke-miterlimit="10" points="
				341,329 340.1,330 344.3,333.8 309.3,333.8 309.3,335.1 344.3,335.1 340.1,339 341,340 346.9,334.5 			"/>
			<polygon fill="#221F1F" points="341,329 340.1,330 344.3,333.8 309.3,333.8 309.3,335.1 344.3,335.1 340.1,339 341,340 
				346.9,334.5 			"/>
		</g>
		<circle fill="#221F1F" cx="309.3" cy="334.5" r="0.7"/>
		<circle fill="#221F1F" cx="340.6" cy="329.4" r="0.7"/>
		<circle fill="#221F1F" cx="340.6" cy="339.4" r="0.7"/>
		<line display="none" fill="none" stroke="#ED358C" stroke-miterlimit="10" x1="315.7" y1="326.1" x2="315.7" y2="342.2"/>
		<line display="none" fill="none" stroke="#ED358C" stroke-miterlimit="10" x1="335" y1="326.1" x2="335" y2="342.2"/>
	</g>
</g>
</svg>
