<?xml version="1.0" encoding="utf-8"?>
<!-- Generator: Adobe Illustrator 17.0.2, SVG Export Plug-In . SVG Version: 6.00 Build 0)  -->
<!DOCTYPE svg PUBLIC "-//W3C//DTD SVG 1.1//EN" "http://www.w3.org/Graphics/SVG/1.1/DTD/svg11.dtd">
<svg version="1.1" id="Diff" xmlns="http://www.w3.org/2000/svg" xmlns:xlink="http://www.w3.org/1999/xlink" x="0px" y="0px"
	 width="746.14px" height="191.667px" viewBox="0 0 746.14 191.667" enable-background="new 0 0 746.14 191.667"
	 xml:space="preserve">
<g id="boundary">
	<path fill="none" stroke="#EB008B" stroke-width="4" stroke-miterlimit="10" d="M0,0v191.667h746.14V0H0z"/>
</g>
<g id="base">
	<g id="untracked">
		<text transform="matrix(1 0 0 1 33.9557 59.6416)" fill="#221F1F" font-family="'HelveticaNeue-Light'" font-size="27.7481">untracked</text>
		<g id="border_28_">
			<path fill="#414141" d="M157.729,23.23c6.065,0,11,4.935,11,11v36c0,6.065-4.935,11-11,11H29.961c-6.065,0-11-4.935-11-11v-36
				c0-6.065,4.935-11,11-11L157.729,23.23 M157.729,22.23H29.961c-6.6,0-12,5.4-12,12v36c0,6.6,5.4,12,12,12h127.768
				c6.6,0,12-5.4,12-12v-36C169.729,27.63,164.329,22.23,157.729,22.23L157.729,22.23z"/>
		</g>
	</g>
	<g id="unmodified">
		<g id="border_1_">
			<path fill="#414141" d="M341.396,23.23c6.065,0,11,4.935,11,11v36c0,6.065-4.935,11-11,11H213.627c-6.065,0-11-4.935-11-11v-36
				c0-6.065,4.935-11,11-11L341.396,23.23 M341.396,22.23H213.627c-6.6,0-12,5.4-12,12v36c0,6.6,5.4,12,12,12h127.768
				c6.6,0,12-5.4,12-12v-36C353.396,27.63,347.996,22.23,341.396,22.23L341.396,22.23z"/>
		</g>
		<text transform="matrix(1 0 0 1 211.4764 59.6416)" fill="#221F1F" font-family="'HelveticaNeue-Light'" font-size="27.7481">unmodified</text>
	</g>
	<g id="modified">
		<g id="border_25_">
			<path fill="#414141" d="M522.062,23.23c6.065,0,11,4.935,11,11v36c0,6.065-4.935,11-11,11H394.294c-6.065,0-11-4.935-11-11v-36
				c0-6.065,4.935-11,11-11L522.062,23.23 M522.062,22.23H394.294c-6.6,0-12,5.4-12,12v36c0,6.6,5.4,12,12,12h127.768
				c6.6,0,12-5.4,12-12v-36C534.062,27.63,528.662,22.23,522.062,22.23L522.062,22.23z"/>
		</g>
		<text transform="matrix(1 0 0 1 407.0435 59.6416)" fill="#221F1F" font-family="'HelveticaNeue-Light'" font-size="27.7481">modified</text>
	</g>
	<g id="staged">
		<g id="border_22_">
			<path fill="#414141" d="M702.729,23.23c6.065,0,11,4.935,11,11v36c0,6.065-4.935,11-11,11H574.961c-6.065,0-11-4.935-11-11v-36
				c0-6.065,4.935-11,11-11L702.729,23.23 M702.729,22.23H574.961c-6.6,0-12,5.4-12,12v36c0,6.6,5.4,12,12,12h127.768
				c6.6,0,12-5.4,12-12v-36C714.729,27.63,709.329,22.23,702.729,22.23L702.729,22.23z"/>
		</g>
		<text transform="matrix(1 0 0 1 597.9767 59.6416)" fill="#221F1F" font-family="'HelveticaNeue-Light'" font-size="27.7481">staged</text>
	</g>
	<g id="border_tracked" opacity="0.3">
		<path fill="#414141" d="M707.404,5.625c12.131,0,22,9.869,22,22v52.208c0,12.131-9.869,22-22,22h-498c-12.131,0-22-9.869-22-22
			V27.625c0-12.131,9.869-22,22-22H707.404 M707.404,4.625h-498c-12.65,0-23,10.35-23,23v52.208c0,12.65,10.35,23,23,23h498
			c12.65,0,23-10.35,23-23V27.625C730.404,14.975,720.054,4.625,707.404,4.625L707.404,4.625z"/>
	</g>
</g>
<g id="step-1-in-out">
	<text transform="matrix(1.0483 0 0 1 360.3955 131.5322)" fill="#231F20" font-family="'ApexNew-Book'" font-size="14">add</text>
	<path fill="#58595B" d="M375.737,160.286h-5.714V166h-5.714v5.714h5.714v5.714h5.714v-5.714h5.714V166h-5.714V160.286z
		 M390.023,148.857h-34.286c-2.857,0-2.857,2.857-2.857,2.857V186c0,0,0,2.857,2.857,2.857c0,0,31.429,0,34.286,0
		S392.88,186,392.88,186v-34.286C392.88,151.714,392.88,148.857,390.023,148.857z M387.165,181.714c0,1.429-1.429,1.429-1.429,1.429
		h-25.714c0,0-1.429,0-1.429-1.429V156c0-1.429,1.429-1.429,1.429-1.429h25.714c0,0,1.429,0,1.429,1.429
		C387.165,156,387.165,180.52,387.165,181.714z"/>
	<path id="border_23_" fill="#3F81C3" d="M157.719,22.23c6.6,0,12,5.4,12,12v36c0,6.6-5.4,12-12,12H29.951c-6.6,0-12-5.4-12-12v-36
		c0-6.6,5.4-12,12-12L157.719,22.23 M157.719,17.23H29.951c-9.374,0-17,7.626-17,17v36c0,9.374,7.626,17,17,17h127.768
		c9.374,0,17-7.626,17-17v-36C174.719,24.856,167.093,17.23,157.719,17.23L157.719,17.23z"/>
	<g id="add">
		<g>
			<path fill="#221F1F" d="M145.375,139.972v2c0,0,3.163,0,8.946,0c59.036,0,380.954,0,432.163,0c4.294,0,6.61,0,6.61,0
				c0-0.667,0-1.333,0-2c0,0-2.317,0-6.61,0c-51.209,0-373.127,0-432.163,0C148.537,139.972,145.375,139.972,145.375,139.972z"/>
		</g>
		<g>
			<path fill="#221F1F" d="M641.068,77.626c0,0,0,5.745,0,9.978c0,2.468,0,4.422,0,4.422h4c0,0,0-1.954,0-4.422
				c0-4.233,0-9.978,0-9.978H641.068z"/>
			<path fill="#FFFFFF" d="M644.067,91.026c-0.667,0-1.333,0-2,0c0,0,0-1.482,0-3.422c0-3.67,0-8.978,0-8.978h2c0,0,0,5.308,0,8.978
				C644.067,89.543,644.067,91.026,644.067,91.026 M646.067,93.026v-2c0,0,0-1.482,0-3.422c0-3.67,0-8.978,0-8.978v-2h-2h-2h-2v2
				c0,0,0,5.308,0,8.978c0,1.94,0,3.422,0,3.422v2h2h2H646.067L646.067,93.026z"/>
		</g>
		<g>
			<path fill="#221F1F" d="M93.679,74.054c0,0,0,8.31,0,13.549c0,2.412,0,4.172,0,4.172h3.5c0,0,0-1.761,0-4.172
				c0-5.239,0-13.549,0-13.549H93.679z"/>
			<path fill="#FFFFFF" d="M96.429,91.026c-0.667,0-1.333,0-2,0c0,0,0-1.421,0-3.422c0-4.759,0-12.8,0-12.8h2c0,0,0,8.04,0,12.8
				C96.429,89.605,96.429,91.026,96.429,91.026 M97.929,92.526v-1.5c0,0,0-1.421,0-3.422c0-4.759,0-12.8,0-12.8v-1.5h-1.5h-2h-1.5
				v1.5c0,0,0,8.04,0,12.8c0,2.001,0,3.422,0,3.422v1.5h1.5h2H97.929L97.929,92.526z"/>
		</g>
		<path fill="#221F1F" d="M643.097,67.363l-8.18,8.796c-0.391,0.391-0.391,1.024,0,1.414c0.391,0.391,1.024,0.391,1.414,0
			c0.018-0.018,0.024-0.041,0.04-0.06l0.011,0.01l5.713-6.145v10.868c0.667,0,1.333,0,2,0V71.373l5.715,6.15
			c0.391,0.391,1.024,0.391,1.414,0c0.373-0.373,0.379-0.961,0.04-1.354l0.011-0.01L643.097,67.363z"/>
		<g>
			<path fill="none" stroke="#FFFFFF" stroke-width="6" stroke-miterlimit="10" d="M643.067,91.026
				c0,27.584-22.362,49.946-49.946,49.946"/>
			<path fill="none" stroke="#221F1F" stroke-width="2" stroke-miterlimit="10" d="M643.067,91.026
				c0,27.584-22.362,49.946-49.946,49.946"/>
		</g>
		<g>
			<path fill="none" stroke="#FFFFFF" stroke-width="6" stroke-miterlimit="10" d="M95.429,91.026
				c0,27.584,22.362,49.946,49.946,49.946"/>
			<path fill="none" stroke="#221F1F" stroke-width="2" stroke-miterlimit="10" d="M95.429,91.026
				c0,27.584,22.362,49.946,49.946,49.946"/>
		</g>
	</g>
</g>
<g id="step-2-in-out">
	<text transform="matrix(1.0208 0 0 1 447.4746 131.5322)" fill="#231F20" font-family="'ApexNew-Book'" font-size="14">commit</text>
	<path display="none" fill="#58595B" d="M489.546,148.857H455.26c-2.857,0-2.857,2.857-2.857,2.857V186c0,0,0,2.857,2.857,2.857
		c0,0,31.429,0,34.286,0s2.857-2.857,2.857-2.857v-34.286C492.404,151.714,492.404,148.857,489.546,148.857z M486.689,181.714
		c0,1.429-1.429,1.429-1.429,1.429h-25.714c0,0-1.429,0-1.429-1.429V156c0-1.429,1.429-1.429,1.429-1.429h25.714
		c0,0,1.429,0,1.429,1.429C486.689,156,486.689,180.52,486.689,181.714z M472.404,163.143c-3.156,0-5.714,2.559-5.714,5.714
		s2.559,5.714,5.714,5.714c3.156,0,5.714-2.559,5.714-5.714S475.559,163.143,472.404,163.143z"/>
	<path fill="#58595B" d="M469.662,158.857h-2.5v2.5h2.5V158.857z M469.662,153.857h-2.5v2.5h2.5V153.857z M484.662,148.857h-25
		c0,0-2.5,0-2.5,2.5v30c0,2.5,2.5,2.5,2.5,2.5h5v5l3.75-3.75l3.75,3.75v-5h12.5c0,0,2.5-0.044,2.5-2.5v-30
		C487.162,148.857,484.662,148.857,484.662,148.857z M484.662,178.857c0,2.407-2.5,2.5-2.5,2.5h-10v-2.5h-7.5v2.5h-2.5
		c-2.5,0-2.5-2.5-2.5-2.5v-2.5h25V178.857z M484.662,173.857h-20v-22.5h20.039L484.662,173.857z M469.662,168.857h-2.5v2.5h2.5
		V168.857z M469.662,163.857h-2.5v2.5h2.5V163.857z"/>
	<path id="border_12_" fill="#3F81C3" d="M702.729,22.23c6.6,0,12,5.4,12,12v36c0,6.6-5.4,12-12,12H574.961c-6.6,0-12-5.4-12-12v-36
		c0-6.6,5.4-12,12-12L702.729,22.23 M702.729,17.23H574.961c-9.374,0-17,7.626-17,17v36c0,9.374,7.626,17,17,17h127.768
		c9.374,0,17-7.626,17-17v-36C719.729,24.856,712.103,17.23,702.729,17.23L702.729,17.23z"/>
	<g id="add_3_">
		<g>
			<path fill="#221F1F" d="M593.248,139.972v2c0,0-3.163,0-8.946,0c-34.051,0-219.727,0-249.264,0c-4.294,0-6.61,0-6.61,0
				c0-0.667,0-1.333,0-2c0,0,2.317,0,6.61,0c29.536,0,215.213,0,249.264,0C590.086,139.972,593.248,139.972,593.248,139.972z"/>
		</g>
		<g>
			<path fill="#221F1F" d="M280.455,77.626c0,0,0,5.745,0,9.978c0,2.468,0,4.422,0,4.422h-4c0,0,0-1.954,0-4.422
				c0-4.233,0-9.978,0-9.978H280.455z"/>
			<path fill="#FFFFFF" d="M277.455,91.026c0,0,0-1.482,0-3.422c0-3.67,0-8.978,0-8.978h2c0,0,0,5.308,0,8.978
				c0,1.94,0,3.422,0,3.422C278.788,91.026,278.122,91.026,277.455,91.026 M275.455,93.026h2h2h2v-2c0,0,0-1.482,0-3.422
				c0-3.67,0-8.978,0-8.978v-2h-2h-2h-2v2c0,0,0,5.308,0,8.978c0,1.94,0,3.422,0,3.422V93.026L275.455,93.026z"/>
		</g>
		<g>
			<path fill="#221F1F" d="M644.944,74.054c0,0,0,8.31,0,13.549c0,2.412,0,4.172,0,4.172h-3.5c0,0,0-1.761,0-4.172
				c0-5.239,0-13.549,0-13.549H644.944z"/>
			<path fill="#FFFFFF" d="M642.194,91.026c0,0,0-1.421,0-3.422c0-4.759,0-12.8,0-12.8h2c0,0,0,8.04,0,12.8c0,2.001,0,3.422,0,3.422
				C643.527,91.026,642.861,91.026,642.194,91.026 M640.694,92.526h1.5h2h1.5v-1.5c0,0,0-1.421,0-3.422c0-4.759,0-12.8,0-12.8v-1.5
				h-1.5h-2h-1.5v1.5c0,0,0,8.04,0,12.8c0,2.001,0,3.422,0,3.422V92.526L640.694,92.526z"/>
		</g>
		<path fill="#221F1F" d="M278.426,67.363l8.18,8.796c0.391,0.391,0.391,1.024,0,1.414c-0.391,0.391-1.024,0.391-1.414,0
			c-0.018-0.018-0.024-0.041-0.04-0.06l-0.011,0.01l-5.713-6.145v10.868c-0.667,0-1.333,0-2,0V71.373l-5.715,6.15
			c-0.391,0.391-1.024,0.391-1.414,0c-0.373-0.373-0.379-0.961-0.04-1.354l-0.011-0.01L278.426,67.363z"/>
		<g>
			<path fill="none" stroke="#FFFFFF" stroke-width="6" stroke-miterlimit="10" d="M278.455,91.026
				c0,27.584,22.362,49.946,49.946,49.946"/>
			<path fill="none" stroke="#221F1F" stroke-width="2" stroke-miterlimit="10" d="M278.455,91.026
				c0,27.584,22.362,49.946,49.946,49.946"/>
		</g>
		<g>
			<path fill="none" stroke="#FFFFFF" stroke-width="6" stroke-miterlimit="10" d="M643.194,91.026
				c0,27.584-22.362,49.946-49.946,49.946"/>
			<path fill="none" stroke="#221F1F" stroke-width="2" stroke-miterlimit="10" d="M643.194,91.026
				c0,27.584-22.362,49.946-49.946,49.946"/>
		</g>
	</g>
</g>
<g id="step-3-in-out">
	<text transform="matrix(1.0483 0 0 1 360.8887 131.5317)" fill="#231F20" font-family="'ApexNew-Book'" font-size="14">edit</text>
	<path fill="#58595B" d="M384.492,148.857l-5.711,5.711l8.566,8.566l5.711-5.711L384.492,148.857z M353.083,180.266l0.031,8.591
		l8.535-0.025l22.843-22.843l-8.566-8.566L353.083,180.266z M361.649,185.977h-5.711v-5.711h2.855v2.855h2.855L361.649,185.977
		L361.649,185.977z"/>
	<path id="border_7_" fill="#3F81C3" d="M341.396,22.23c6.6,0,12,5.4,12,12v36c0,6.6-5.4,12-12,12H213.627c-6.6,0-12-5.4-12-12v-36
		c0-6.6,5.4-12,12-12L341.396,22.23 M341.396,17.23H213.627c-9.374,0-17,7.626-17,17v36c0,9.374,7.626,17,17,17h127.768
		c9.374,0,17-7.626,17-17v-36C358.396,24.856,350.769,17.23,341.396,17.23L341.396,17.23z"/>
	<g id="edit">
		<g>
			<path fill="#221F1F" d="M328.801,139.972v2c0,0,3.163,0,8.946,0c9.117,0,58.829,0,66.737,0c4.294,0,6.61,0,6.61,0
				c0-0.667,0-1.333,0-2c0,0-2.317,0-6.61,0c-7.908,0-57.62,0-66.737,0C331.963,139.972,328.801,139.972,328.801,139.972z"/>
		</g>
		<g>
			<path fill="#221F1F" d="M459.068,77.626c0,0,0,5.745,0,9.978c0,2.468,0,4.422,0,4.422h4c0,0,0-1.954,0-4.422
				c0-4.233,0-9.978,0-9.978H459.068z"/>
			<path fill="#FFFFFF" d="M462.067,91.026c-0.667,0-1.333,0-2,0c0,0,0-1.482,0-3.422c0-3.67,0-8.978,0-8.978h2c0,0,0,5.308,0,8.978
				C462.067,89.543,462.067,91.026,462.067,91.026 M464.067,93.026v-2c0,0,0-1.482,0-3.422c0-3.67,0-8.978,0-8.978v-2h-2h-2h-2v2
				c0,0,0,5.308,0,8.978c0,1.94,0,3.422,0,3.422v2h2h2H464.067L464.067,93.026z"/>
		</g>
		<g>
			<path fill="#221F1F" d="M277.105,74.054c0,0,0,8.31,0,13.549c0,2.412,0,4.172,0,4.172h3.5c0,0,0-1.761,0-4.172
				c0-5.239,0-13.549,0-13.549H277.105z"/>
			<path fill="#FFFFFF" d="M279.855,91.026c-0.667,0-1.333,0-2,0c0,0,0-1.421,0-3.422c0-4.759,0-12.8,0-12.8h2c0,0,0,8.04,0,12.8
				C279.855,89.605,279.855,91.026,279.855,91.026 M281.355,92.526v-1.5c0,0,0-1.421,0-3.422c0-4.759,0-12.8,0-12.8v-1.5h-1.5h-2
				h-1.5v1.5c0,0,0,8.04,0,12.8c0,2.001,0,3.422,0,3.422v1.5h1.5h2H281.355L281.355,92.526z"/>
		</g>
		<path fill="#221F1F" d="M461.097,67.363l-8.18,8.796c-0.391,0.391-0.391,1.024,0,1.414c0.391,0.391,1.024,0.391,1.414,0
			c0.018-0.018,0.024-0.041,0.04-0.06l0.011,0.01l5.713-6.145v10.868c0.667,0,1.333,0,2,0V71.373l5.715,6.15
			c0.391,0.391,1.024,0.391,1.414,0c0.373-0.373,0.379-0.961,0.04-1.354l0.011-0.01L461.097,67.363z"/>
		<g>
			<path fill="none" stroke="#FFFFFF" stroke-width="6" stroke-miterlimit="10" d="M461.067,91.026
				c0,27.584-22.362,49.946-49.946,49.946"/>
			<path fill="none" stroke="#221F1F" stroke-width="2" stroke-miterlimit="10" d="M461.067,91.026
				c0,27.584-22.362,49.946-49.946,49.946"/>
		</g>
		<g>
			<path fill="none" stroke="#FFFFFF" stroke-width="6" stroke-miterlimit="10" d="M278.855,91.026
				c0,27.584,22.362,49.946,49.946,49.946"/>
			<path fill="none" stroke="#221F1F" stroke-width="2" stroke-miterlimit="10" d="M278.855,91.026
				c0,27.584,22.362,49.946,49.946,49.946"/>
		</g>
	</g>
</g>
<g id="step-4-in-out">
	<text transform="matrix(1.0483 0 0 1 545.3379 131.5322)" fill="#231F20" font-family="'ApexNew-Book'" font-size="14">add</text>
	<path fill="#58595B" d="M560.68,160.286h-5.714V166h-5.714v5.714h5.714v5.714h5.714v-5.714h5.714V166h-5.714V160.286z
		 M574.966,148.857H540.68c-2.857,0-2.857,2.857-2.857,2.857V186c0,0,0,2.857,2.857,2.857c0,0,31.429,0,34.286,0
		s2.857-2.857,2.857-2.857v-34.286C577.823,151.714,577.823,148.857,574.966,148.857z M572.109,181.714
		c0,1.429-1.429,1.429-1.429,1.429h-25.714c0,0-1.429,0-1.429-1.429V156c0-1.429,1.429-1.429,1.429-1.429h25.714
		c0,0,1.429,0,1.429,1.429C572.109,156,572.109,180.52,572.109,181.714z"/>
	<path id="border_2_" fill="#3F81C3" d="M522.052,22.23c6.6,0,12,5.4,12,12v36c0,6.6-5.4,12-12,12H394.284c-6.6,0-12-5.4-12-12v-36
		c0-6.6,5.4-12,12-12L522.052,22.23 M522.052,17.23H394.284c-9.374,0-17,7.626-17,17v36c0,9.374,7.626,17,17,17h127.768
		c9.374,0,17-7.626,17-17v-36C539.052,24.856,531.426,17.23,522.052,17.23L522.052,17.23z"/>
	<g id="add_5_">
		<g>
			<path fill="#221F1F" d="M511.266,139.972v2c0,0,3.163,0,8.946,0c9.072,0,58.544,0,66.414,0c4.294,0,6.61,0,6.61,0
				c0-0.667,0-1.333,0-2c0,0-2.317,0-6.61,0c-7.87,0-57.341,0-66.414,0C514.429,139.972,511.266,139.972,511.266,139.972z"/>
		</g>
		<g>
			<path fill="#221F1F" d="M641.21,77.626c0,0,0,5.745,0,9.978c0,2.468,0,4.422,0,4.422h4c0,0,0-1.954,0-4.422
				c0-4.233,0-9.978,0-9.978H641.21z"/>
			<path fill="#FFFFFF" d="M644.21,91.026c-0.667,0-1.333,0-2,0c0,0,0-1.482,0-3.422c0-3.67,0-8.978,0-8.978h2c0,0,0,5.308,0,8.978
				C644.21,89.543,644.21,91.026,644.21,91.026 M646.21,93.026v-2c0,0,0-1.482,0-3.422c0-3.67,0-8.978,0-8.978v-2h-2h-2h-2v2
				c0,0,0,5.308,0,8.978c0,1.94,0,3.422,0,3.422v2h2h2H646.21L646.21,93.026z"/>
		</g>
		<g>
			<path fill="#221F1F" d="M459.571,74.054c0,0,0,8.31,0,13.549c0,2.412,0,4.172,0,4.172h3.5c0,0,0-1.761,0-4.172
				c0-5.239,0-13.549,0-13.549H459.571z"/>
			<path fill="#FFFFFF" d="M462.32,91.026c-0.667,0-1.333,0-2,0c0,0,0-1.421,0-3.422c0-4.759,0-12.8,0-12.8h2c0,0,0,8.04,0,12.8
				C462.32,89.605,462.32,91.026,462.32,91.026 M463.82,92.526v-1.5c0,0,0-1.421,0-3.422c0-4.759,0-12.8,0-12.8v-1.5h-1.5h-2h-1.5
				v1.5c0,0,0,8.04,0,12.8c0,2.001,0,3.422,0,3.422v1.5h1.5h2H463.82L463.82,92.526z"/>
		</g>
		<path fill="#221F1F" d="M643.239,67.363l-8.18,8.796c-0.391,0.391-0.391,1.024,0,1.414c0.391,0.391,1.024,0.391,1.414,0
			c0.018-0.018,0.024-0.041,0.04-0.06l0.011,0.01l5.713-6.145v10.868c0.667,0,1.333,0,2,0V71.373l5.715,6.15
			c0.391,0.391,1.024,0.391,1.414,0c0.373-0.373,0.379-0.961,0.04-1.354l0.011-0.01L643.239,67.363z"/>
		<g>
			<path fill="none" stroke="#FFFFFF" stroke-width="6" stroke-miterlimit="10" d="M643.21,91.026
				c0,27.584-22.362,49.946-49.946,49.946"/>
			<path fill="none" stroke="#221F1F" stroke-width="2" stroke-miterlimit="10" d="M643.21,91.026
				c0,27.584-22.362,49.946-49.946,49.946"/>
		</g>
		<g>
			<path fill="none" stroke="#FFFFFF" stroke-width="6" stroke-miterlimit="10" d="M461.321,91.026
				c0,27.584,22.362,49.946,49.946,49.946"/>
			<path fill="none" stroke="#221F1F" stroke-width="2" stroke-miterlimit="10" d="M461.321,91.026
				c0,27.584,22.362,49.946,49.946,49.946"/>
		</g>
	</g>
</g>
<g id="step-5">
	<path fill="#58595B" d="M181.157,166v5.714H198.3V166H181.157z M206.872,148.857h-34.286c-2.857,0-2.857,2.857-2.857,2.857V186
		c0,0,0,2.857,2.857,2.857c0,0,31.429,0,34.286,0s2.857-2.857,2.857-2.857v-34.286C209.729,151.714,209.729,148.857,206.872,148.857
		z M204.015,181.714c0,1.429-1.429,1.429-1.429,1.429h-25.714c0,0-1.429,0-1.429-1.429V156c0-1.429,1.429-1.429,1.429-1.429h25.714
		c0,0,1.429,0,1.429,1.429C204.015,156,204.015,180.52,204.015,181.714z"/>
	<text transform="matrix(1.0208 0 0 1 166.6938 131.5322)" fill="#231F20" font-family="'ApexNew-Book'" font-size="14">remove</text>
	<path id="border_4_" fill="#3F81C3" d="M341.396,22.23c6.6,0,12,5.4,12,12v36c0,6.6-5.4,12-12,12H213.627c-6.6,0-12-5.4-12-12v-36
		c0-6.6,5.4-12,12-12L341.396,22.23 M341.396,17.23H213.627c-9.374,0-17,7.626-17,17v36c0,9.374,7.626,17,17,17h127.768
		c9.374,0,17-7.626,17-17v-36C358.396,24.856,350.769,17.23,341.396,17.23L341.396,17.23z"/>
	<g id="add_2_">
		<g>
			<path fill="#221F1F" d="M228.487,139.972v2c0,0-3.163,0-8.946,0c-9.234,0-59.586,0-67.596,0c-4.294,0-6.61,0-6.61,0
				c0-0.667,0-1.333,0-2c0,0,2.317,0,6.61,0c8.01,0,58.362,0,67.596,0C225.325,139.972,228.487,139.972,228.487,139.972z"/>
		</g>
		<g>
			<path fill="#221F1F" d="M97.362,77.626c0,0,0,5.745,0,9.978c0,2.468,0,4.422,0,4.422h-4c0,0,0-1.954,0-4.422
				c0-4.233,0-9.978,0-9.978H97.362z"/>
			<path fill="#FFFFFF" d="M94.362,91.026c0,0,0-1.482,0-3.422c0-3.67,0-8.978,0-8.978h2c0,0,0,5.308,0,8.978
				c0,1.94,0,3.422,0,3.422C95.695,91.026,95.029,91.026,94.362,91.026 M92.362,93.026h2h2h2v-2c0,0,0-1.482,0-3.422
				c0-3.67,0-8.978,0-8.978v-2h-2h-2h-2v2c0,0,0,5.308,0,8.978c0,1.94,0,3.422,0,3.422V93.026L92.362,93.026z"/>
		</g>
		<g>
			<path fill="#221F1F" d="M280.183,74.054c0,0,0,8.31,0,13.549c0,2.412,0,4.172,0,4.172h-3.5c0,0,0-1.761,0-4.172
				c0-5.239,0-13.549,0-13.549H280.183z"/>
			<path fill="#FFFFFF" d="M277.433,91.026c0,0,0-1.421,0-3.422c0-4.759,0-12.8,0-12.8h2c0,0,0,8.04,0,12.8c0,2.001,0,3.422,0,3.422
				C278.767,91.026,278.1,91.026,277.433,91.026 M275.933,92.526h1.5h2h1.5v-1.5c0,0,0-1.421,0-3.422c0-4.759,0-12.8,0-12.8v-1.5
				h-1.5h-2h-1.5v1.5c0,0,0,8.04,0,12.8c0,2.001,0,3.422,0,3.422V92.526L275.933,92.526z"/>
		</g>
		<path fill="#221F1F" d="M95.333,67.363l8.18,8.796c0.391,0.391,0.391,1.024,0,1.414c-0.391,0.391-1.024,0.391-1.414,0
			c-0.018-0.018-0.024-0.041-0.04-0.06l-0.011,0.01l-5.713-6.145v10.868c-0.667,0-1.333,0-2,0V71.373l-5.715,6.15
			c-0.391,0.391-1.024,0.391-1.414,0c-0.373-0.373-0.379-0.961-0.04-1.354l-0.011-0.01L95.333,67.363z"/>
		<g>
			<path fill="none" stroke="#FFFFFF" stroke-width="6" stroke-miterlimit="10" d="M95.362,91.026
				c0,27.584,22.362,49.946,49.946,49.946"/>
			<path fill="none" stroke="#221F1F" stroke-width="2" stroke-miterlimit="10" d="M95.362,91.026
				c0,27.584,22.362,49.946,49.946,49.946"/>
		</g>
		<g>
			<path fill="none" stroke="#FFFFFF" stroke-width="6" stroke-miterlimit="10" d="M278.433,91.026
				c0,27.584-22.362,49.946-49.946,49.946"/>
			<path fill="none" stroke="#221F1F" stroke-width="2" stroke-miterlimit="10" d="M278.433,91.026
				c0,27.584-22.362,49.946-49.946,49.946"/>
		</g>
	</g>
</g>
</svg>
