<?xml version="1.0" encoding="utf-8"?>
<!-- Generator: Adobe Illustrator 17.1.0, SVG Export Plug-In . SVG Version: 6.00 Build 0)  -->
<!DOCTYPE svg PUBLIC "-//W3C//DTD SVG 1.1//EN" "http://www.w3.org/Graphics/SVG/1.1/DTD/svg11.dtd">
<svg version="1.1" id="Diff" xmlns="http://www.w3.org/2000/svg" xmlns:xlink="http://www.w3.org/1999/xlink" x="0px" y="0px"
	 viewBox="-109.4 717.1 831 237" enable-background="new -109.4 717.1 831 237" xml:space="preserve">
<g id="base">
	<g id="untracked">
		<text transform="matrix(1 0 0 1 -74.3238 799.3846)" fill="#221F1F" font-family="'HelveticaNeue-Light'" font-size="30.8689">untracked</text>
		<g id="border_28_">
			<path fill="#414141" d="M63.4,758.8c6.8,0,12.3,5.5,12.3,12.3v40c0,6.8-5.5,12.3-12.3,12.3H-78.7c-6.8,0-12.3-5.5-12.3-12.3v-40
				c0-6.8,5.5-12.3,12.3-12.3H63.4 M63.4,757.7H-78.7c-7.3,0-13.3,6-13.3,13.3v40c0,7.3,6,13.3,13.3,13.3H63.4
				c7.3,0,13.3-6,13.3-13.3v-40C76.6,763.8,70.7,757.7,63.4,757.7L63.4,757.7z"/>
		</g>
	</g>
	<g id="unmodified">
		<g id="border_1_">
			<path fill="#414141" d="M267.7,758.8c6.8,0,12.3,5.5,12.3,12.3v40c0,6.8-5.5,12.3-12.3,12.3H125.6c-6.8,0-12.3-5.5-12.3-12.3v-40
				c0-6.8,5.5-12.3,12.3-12.3H267.7 M267.7,757.7H125.6c-7.3,0-13.3,6-13.3,13.3v40c0,7.3,6,13.3,13.3,13.3h142.1
				c7.3,0,13.3-6,13.3-13.3v-40C281,763.8,275,757.7,267.7,757.7L267.7,757.7z"/>
		</g>
		<text transform="matrix(1 0 0 1 123.1625 799.3846)" fill="#221F1F" font-family="'HelveticaNeue-Light'" font-size="30.8689">unmodified</text>
	</g>
	<g id="modified">
		<g id="border_25_">
			<path fill="#414141" d="M468.7,758.8c6.8,0,12.3,5.5,12.3,12.3v40c0,6.8-5.5,12.3-12.3,12.3H326.6c-6.8,0-12.3-5.5-12.3-12.3v-40
				c0-6.8,5.5-12.3,12.3-12.3H468.7 M468.7,757.7H326.6c-7.3,0-13.3,6-13.3,13.3v40c0,7.3,6,13.3,13.3,13.3h142.1
				c7.3,0,13.3-6,13.3-13.3v-40C482,763.8,476.1,757.7,468.7,757.7L468.7,757.7z"/>
		</g>
		<text transform="matrix(1 0 0 1 340.726 799.3846)" fill="#221F1F" font-family="'HelveticaNeue-Light'" font-size="30.8689">modified</text>
	</g>
	<g id="staged">
		<g id="border_22_">
			<path fill="#414141" d="M669.6,758.8c6.8,0,12.3,5.5,12.3,12.3v40c0,6.8-5.5,12.3-12.3,12.3H527.5c-6.8,0-12.3-5.5-12.3-12.3v-40
				c0-6.8,5.5-12.3,12.3-12.3H669.6 M669.6,757.7H527.5c-7.3,0-13.3,6-13.3,13.3v40c0,7.3,6,13.3,13.3,13.3h142.3
				c7.3,0,13.3-6,13.3-13.3v-40C683.1,763.8,676.9,757.7,669.6,757.7L669.6,757.7z"/>
		</g>
		<text transform="matrix(1 0 0 1 553.1323 799.3846)" fill="#221F1F" font-family="'HelveticaNeue-Light'" font-size="30.8689">staged</text>
	</g>
	<g id="border_tracked" opacity="0.3">
		<path fill="#414141" d="M674.9,739.2c13.4,0,24.4,11,24.4,24.4v58.1c0,13.4-11,24.4-24.4,24.4H120.8c-13.4,0-24.4-11-24.4-24.4
			v-58.1c0-13.4,11-24.4,24.4-24.4H674.9 M674.9,738.1H120.8c-13.9,0-25.6,11.6-25.6,25.6v58.1c0,14.1,11.6,25.6,25.6,25.6h554
			c14.1,0,25.6-11.5,25.6-25.6v-58.1C700.5,749.7,689,738.1,674.9,738.1L674.9,738.1z"/>
	</g>
</g>
<g id="step-1-in-out" display="none">
	
		<text transform="matrix(1.0483 0 0 1 281.332 838.8611)" display="inline" fill="#231F20" font-family="'ApexNew-Book'" font-size="15.5745">add</text>
	<path display="inline" fill="#58595B" d="M298.4,870.9h-6.3v6.3h-6.3v6.3h6.3v6.3h6.3v-6.3h6.3v-6.3h-6.3V870.9z M314.3,858.3
		h-38.2c-3.2,0-3.2,3.2-3.2,3.2v38c0,0,0,3.2,3.2,3.2c0,0,34.9,0,38.2,0c3.2,0,3.2-3.2,3.2-3.2v-38.2
		C317.5,861.3,317.5,858.3,314.3,858.3z M311.2,894.6c0,1.5-1.5,1.5-1.5,1.5H281c0,0-1.5,0-1.5-1.5v-28.6c0-1.5,1.5-1.5,1.5-1.5
		h28.6c0,0,1.5,0,1.5,1.5C311.2,866.1,311.2,893.3,311.2,894.6z"/>
	<path id="border_23_" display="inline" fill="#3F81C3" d="M55.9,717.2c7.3,0,13.3,6,13.3,13.3v40c0,7.3-6,13.3-13.3,13.3H-86.2
		c-7.3,0-13.3-6-13.3-13.3v-40c0-7.3,6-13.3,13.3-13.3H55.9 M55.9,711.7H-86.2c-10.5,0-18.9,8.5-18.9,18.9v40
		c0,10.5,8.5,18.9,18.9,18.9H55.9c10.5,0,18.9-8.5,18.9-18.9v-40C74.8,720.3,66.3,711.7,55.9,711.7L55.9,711.7z"/>
	<g id="add" display="inline">
		<g>
			<path fill="#221F1F" d="M42.1,848.3v2.2c0,0,3.5,0,10,0c65.6,0,423.8,0,480.7,0c4.8,0,7.3,0,7.3,0c0-0.8,0-1.5,0-2.2
				c0,0-2.5,0-7.3,0c-56.9,0-415,0-480.7,0C45.6,848.3,42.1,848.3,42.1,848.3z"/>
		</g>
		<g>
			<path fill="#221F1F" d="M593.6,778.9c0,0,0,6.3,0,11.1c0,2.8,0,4.8,0,4.8h4.5c0,0,0-2.2,0-4.8c0-4.6,0-11.1,0-11.1H593.6z"/>
			<path fill="#FFFFFF" d="M596.9,793.7c-0.8,0-1.5,0-2.2,0c0,0,0-1.7,0-3.8c0-4.2,0-10,0-10h2.2c0,0,0,6,0,10
				C596.9,792,596.9,793.7,596.9,793.7 M599.2,796v-2.2c0,0,0-1.7,0-3.8c0-4.2,0-10,0-10v-2.2H597h-2.2h-2.3v2.2c0,0,0,6,0,10
				c0,2.2,0,3.8,0,3.8v2.2h2.2h2.2H599.2L599.2,796z"/>
		</g>
		<g>
			<path fill="#221F1F" d="M-15.3,774.9c0,0,0,9.3,0,14.9c0,2.7,0,4.6,0,4.6h3.8c0,0,0-2,0-4.6c0-5.8,0-14.9,0-14.9H-15.3z"/>
			<path fill="#FFFFFF" d="M-12.4,793.7c-0.8,0-1.5,0-2.2,0c0,0,0-1.5,0-3.8c0-5.3,0-14.3,0-14.3h2.2c0,0,0,9,0,14.3
				C-12.4,792.2-12.4,793.7-12.4,793.7 M-10.7,795.5v-1.7c0,0,0-1.5,0-3.8c0-5.3,0-14.3,0-14.3v-1.7h-1.7h-2.2h-1.7v1.7
				c0,0,0,9,0,14.3c0,2.2,0,3.8,0,3.8v1.7h1.7h2.2H-10.7L-10.7,795.5z"/>
		</g>
		<path fill="#221F1F" d="M595.9,767.5l-9.1,9.8c-0.5,0.5-0.5,1.2,0,1.5c0.5,0.5,1.2,0.5,1.5,0c0,0,0,0,0-0.2l0,0l6.3-6.8v12.1
			c0.8,0,1.5,0,2.2,0v-12.1l6.3,7c0.5,0.5,1.2,0.5,1.5,0c0.5-0.5,0.5-1.2,0-1.5l0,0L595.9,767.5z"/>
		<g>
			<path fill="none" stroke="#FFFFFF" stroke-width="6" stroke-miterlimit="10" d="M595.9,793.7c0,30.7-24.9,55.4-55.4,55.4"/>
			<path fill="none" stroke="#221F1F" stroke-width="2" stroke-miterlimit="10" d="M595.9,793.7c0,30.7-24.9,55.4-55.4,55.4"/>
		</g>
		<g>
			<path fill="none" stroke="#FFFFFF" stroke-width="6" stroke-miterlimit="10" d="M-13.5,793.7c0,30.7,24.9,55.4,55.4,55.4"/>
			<path fill="none" stroke="#221F1F" stroke-width="2" stroke-miterlimit="10" d="M-13.5,793.7c0,30.7,24.9,55.4,55.4,55.4"/>
		</g>
	</g>
</g>
<g id="step-2-in-out">
	<text transform="matrix(1.0208 0 0 1 385.7048 879.3591)" fill="#231F20" font-family="'ApexNew-Book'" font-size="15.5745">commit</text>
	<path display="none" fill="#58595B" d="M432.4,898.8h-38.2c-3.2,0-3.2,3.2-3.2,3.2v38c0,0,0,3.2,3.2,3.2c0,0,34.9,0,38.2,0
		c3.2,0,3.2-3.2,3.2-3.2v-38.2C435.7,901.7,435.7,898.8,432.4,898.8z M429.4,935.1c0,1.5-1.5,1.5-1.5,1.5h-28.7c0,0-1.5,0-1.5-1.5
		v-28.6c0-1.5,1.5-1.5,1.5-1.5h28.6c0,0,1.5,0,1.5,1.5C429.4,906.6,429.4,933.8,429.4,935.1z M413.5,914.5c-3.5,0-6.3,2.8-6.3,6.3
		s2.8,6.3,6.3,6.3c3.5,0,6.3-2.8,6.3-6.3S417,914.5,413.5,914.5z"/>
	<path fill="#58595B" d="M410.5,909.9h-2.8v2.8h2.8V909.9z M410.5,904.2h-2.8v2.8h2.8V904.2z M427.1,898.8h-27.9c0,0-2.8,0-2.8,2.8
		v33.4c0,2.8,2.8,2.8,2.8,2.8h5.6v5.6l4.2-4.2l4.2,4.2v-5.8h13.9c0,0,2.8,0,2.8-2.8v-33.4C429.9,898.8,427.1,898.8,427.1,898.8z
		 M427.1,932.1c0,2.7-2.8,2.8-2.8,2.8h-11.1v-2.8h-8.3v2.8H402c-2.8,0-2.8-2.8-2.8-2.8v-2.8h27.9L427.1,932.1L427.1,932.1z
		 M427.1,926.5h-22.2v-25.1h22.2V926.5z M410.5,921h-2.8v2.8h2.8V921z M410.5,915.4h-2.8v2.8h2.8V915.4z"/>
	<path id="border_12_" fill="#3F81C3" d="M669.6,757.7c7.3,0,13.3,6,13.3,13.3v40c0,7.3-6,13.3-13.3,13.3H527.5
		c-7.3,0-13.3-6-13.3-13.3v-40c0-7.3,6-13.3,13.3-13.3H669.6 M669.6,752.2H527.5c-10.5,0-18.9,8.5-18.9,18.9v40
		c0,10.5,8.5,18.9,18.9,18.9h142.3c10.5,0,18.9-8.5,18.9-18.9v-40C688.5,760.8,680.1,752.2,669.6,752.2L669.6,752.2z"/>
	<g id="add_3_">
		<g>
			<path fill="#221F1F" d="M547.8,888.8v2.2c0,0-3.5,0-10,0c-38,0-244.4,0-277.4,0c-4.8,0-7.3,0-7.3,0c0-0.8,0-1.5,0-2.2
				c0,0,2.5,0,7.3,0c32.9,0,239.4,0,277.4,0C544.4,888.8,547.8,888.8,547.8,888.8z"/>
		</g>
		<g>
			<path fill="#221F1F" d="M200,819.4c0,0,0,6.3,0,11.1c0,2.8,0,4.8,0,4.8h-4.5c0,0,0-2.2,0-4.8c0-4.6,0-11.1,0-11.1H200z"/>
			<path fill="#FFFFFF" d="M196.7,834.2c0,0,0-1.7,0-3.8c0-4.2,0-10,0-10h2.2c0,0,0,6,0,10c0,2.2,0,3.8,0,3.8
				C198,834.2,197.3,834.2,196.7,834.2 M194.3,836.5h2.2h2.2h2.2v-2.2c0,0,0-1.7,0-3.8c0-4.2,0-10,0-10v-2.2h-2.2h-2h-2.2v2.2
				c0,0,0,6,0,10c0,2.2,0,3.8,0,3.8L194.3,836.5L194.3,836.5z"/>
		</g>
		<g>
			<path fill="#221F1F" d="M605.4,815.4c0,0,0,9.3,0,14.9c0,2.7,0,4.6,0,4.6h-3.8c0,0,0-2,0-4.6c0-5.8,0-14.9,0-14.9H605.4z"/>
			<path fill="#FFFFFF" d="M602.4,834.2c0,0,0-1.5,0-3.8c0-5.3,0-14.3,0-14.3h2.2c0,0,0,9,0,14.3c0,2.2,0,3.8,0,3.8
				C603.7,834.2,603,834.2,602.4,834.2 M600.7,836h1.7h2.2h1.7v-1.7c0,0,0-1.5,0-3.8c0-5.3,0-14.3,0-14.3v-1.7h-1.7h-2.2h-1.7v1.7
				c0,0,0,9,0,14.3c0,2.2,0,3.8,0,3.8V836L600.7,836z"/>
		</g>
		<path fill="#221F1F" d="M197.7,808l9.1,9.8c0.5,0.5,0.5,1.2,0,1.5c-0.5,0.5-1.2,0.5-1.5,0c0,0,0,0,0-0.2l0,0l-6.3-6.8v12.1
			c-0.8,0-1.5,0-2.2,0v-12.1l-6.3,7c-0.5,0.5-1.2,0.5-1.5,0c-0.3-0.5-0.5-1.2,0-1.5l0,0L197.7,808z"/>
		<g>
			<path fill="none" stroke="#FFFFFF" stroke-width="6" stroke-miterlimit="10" d="M197.7,834.2c0,30.7,24.9,55.4,55.4,55.4"/>
			<path fill="none" stroke="#221F1F" stroke-width="2" stroke-miterlimit="10" d="M197.7,834.2c0,30.7,24.9,55.4,55.4,55.4"/>
		</g>
		<g>
			<path fill="none" stroke="#FFFFFF" stroke-width="6" stroke-miterlimit="10" d="M603.4,834.2c0,30.7-24.9,55.4-55.4,55.4"/>
			<path fill="none" stroke="#221F1F" stroke-width="2" stroke-miterlimit="10" d="M603.4,834.2c0,30.7-24.9,55.4-55.4,55.4"/>
		</g>
	</g>
</g>
<g id="step-3-in-out" display="none">
	
		<text transform="matrix(1.0483 0 0 1 281.8809 838.8611)" display="inline" fill="#231F20" font-family="'ApexNew-Book'" font-size="15.5745">edit</text>
	<path display="inline" fill="#58595B" d="M308.2,858.3l-6.3,6.3l9.6,9.6l6.3-6.3L308.2,858.3z M273.2,893.1v9.6h9.5l25.4-25.4
		l-9.6-9.6L273.2,893.1z M282.6,899.4h-6.3v-6.3h3.2v3.2h3.2L282.6,899.4L282.6,899.4z"/>
	<path id="border_7_" display="inline" fill="#3F81C3" d="M260.2,717.2c7.3,0,13.3,6,13.3,13.3v40c0,7.3-6,13.3-13.3,13.3H118.1
		c-7.3,0-13.3-6-13.3-13.3v-40c0-7.3,6-13.3,13.3-13.3H260.2 M260.2,711.7H118.1c-10.5,0-18.9,8.5-18.9,18.9v40
		c0,10.5,8.5,18.9,18.9,18.9h142.1c10.5,0,18.9-8.5,18.9-18.9v-40C279.1,720.3,270.7,711.7,260.2,711.7L260.2,711.7z"/>
	<g id="edit" display="inline">
		<g>
			<path fill="#221F1F" d="M246.1,848.3v2.2c0,0,3.5,0,10,0c10.1,0,65.4,0,74.2,0c4.8,0,7.3,0,7.3,0c0-0.8,0-1.5,0-2.2
				c0,0-2.5,0-7.3,0c-8.8,0-64.1,0-74.2,0C249.8,848.3,246.1,848.3,246.1,848.3z"/>
		</g>
		<g>
			<path fill="#221F1F" d="M391.2,778.9c0,0,0,6.3,0,11.1c0,2.8,0,4.8,0,4.8h4.5c0,0,0-2.2,0-4.8c0-4.6,0-11.1,0-11.1H391.2z"/>
			<path fill="#FFFFFF" d="M394.5,793.7c-0.8,0-1.5,0-2.2,0c0,0,0-1.7,0-3.8c0-4.2,0-10,0-10h2.2c0,0,0,6,0,10
				C394.5,792,394.5,793.7,394.5,793.7 M396.7,796v-2.2c0,0,0-1.7,0-3.8c0-4.2,0-10,0-10v-2.2h-2.2h-2.2H390v2.2c0,0,0,6,0,10
				c0,2.2,0,3.8,0,3.8v2.2h2.2h2.2H396.7L396.7,796z"/>
		</g>
		<g>
			<path fill="#221F1F" d="M188.7,774.9c0,0,0,9.3,0,14.9c0,2.7,0,4.6,0,4.6h3.8c0,0,0-2,0-4.6c0-5.8,0-14.9,0-14.9H188.7z"/>
			<path fill="#FFFFFF" d="M191.8,793.7c-0.8,0-1.5,0-2.2,0c0,0,0-1.5,0-3.8c0-5.3,0-14.3,0-14.3h2.2c0,0,0,9,0,14.3
				C191.8,792.2,191.8,793.7,191.8,793.7 M193.5,795.5v-1.7c0,0,0-1.5,0-3.8c0-5.3,0-14.3,0-14.3v-1.7h-1.7h-2.2H188v1.7
				c0,0,0,9,0,14.3c0,2.2,0,3.8,0,3.8v1.7h1.7h2.2H193.5L193.5,795.5z"/>
		</g>
		<path fill="#221F1F" d="M393.4,767.5l-9.1,9.8c-0.5,0.5-0.5,1.2,0,1.5c0.5,0.5,1.2,0.5,1.5,0c0,0,0,0,0-0.2l0,0l6.3-6.8v12.1
			c0.8,0,1.5,0,2.2,0v-12.1l6.3,7c0.5,0.5,1.2,0.5,1.5,0c0.5-0.5,0.5-1.2,0-1.5l0,0L393.4,767.5z"/>
		<g>
			<path fill="none" stroke="#FFFFFF" stroke-width="6" stroke-miterlimit="10" d="M393.4,793.7c0,30.7-24.9,55.4-55.4,55.4"/>
			<path fill="none" stroke="#221F1F" stroke-width="2" stroke-miterlimit="10" d="M393.4,793.7c0,30.7-24.9,55.4-55.4,55.4"/>
		</g>
		<g>
			<path fill="none" stroke="#FFFFFF" stroke-width="6" stroke-miterlimit="10" d="M190.7,793.7c0,30.7,24.9,55.4,55.4,55.4"/>
			<path fill="none" stroke="#221F1F" stroke-width="2" stroke-miterlimit="10" d="M190.7,793.7c0,30.7,24.9,55.4,55.4,55.4"/>
		</g>
	</g>
</g>
<g id="step-4-in-out" display="none">
	
		<text transform="matrix(1.0483 0 0 1 487.0741 838.8611)" display="inline" fill="#231F20" font-family="'ApexNew-Book'" font-size="15.5745">add</text>
	<path display="inline" fill="#58595B" d="M504.2,870.9h-6.3v6.3h-6.3v6.3h6.3v6.3h6.3v-6.3h6.3v-6.3h-6.3V870.9z M520,858.3h-38.2
		c-3.2,0-3.2,3.2-3.2,3.2v38c0,0,0,3.2,3.2,3.2c0,0,34.9,0,38.2,0c3.3,0,3.2-3.2,3.2-3.2v-38.2C523.2,861.3,523.2,858.3,520,858.3z
		 M516.9,894.6c0,1.5-1.5,1.5-1.5,1.5h-28.6c0,0-1.5,0-1.5-1.5v-28.6c0-1.5,1.5-1.5,1.5-1.5h28.6c0,0,1.5,0,1.5,1.5
		C516.9,866.1,516.9,893.3,516.9,894.6z"/>
	<path id="border_2_" display="inline" fill="#3F81C3" d="M461.2,717.2c7.3,0,13.3,6,13.3,13.3v40c0,7.3-6,13.3-13.3,13.3H319.1
		c-7.3,0-13.3-6-13.3-13.3v-40c0-7.3,6-13.3,13.3-13.3H461.2 M461.2,711.7H319.1c-10.5,0-18.9,8.5-18.9,18.9v40
		c0,10.5,8.5,18.9,18.9,18.9h142.1c10.5,0,18.9-8.5,18.9-18.9v-40C480.2,720.3,471.5,711.7,461.2,711.7L461.2,711.7z"/>
	<g id="add_5_" display="inline">
		<g>
			<path fill="#221F1F" d="M449.1,848.3v2.2c0,0,3.5,0,10,0c10.1,0,65.1,0,73.9,0c4.8,0,7.3,0,7.3,0c0-0.8,0-1.5,0-2.2
				c0,0-2.5,0-7.3,0c-8.8,0-63.7,0-73.9,0C452.6,848.3,449.1,848.3,449.1,848.3z"/>
		</g>
		<g>
			<path fill="#221F1F" d="M593.7,778.9c0,0,0,6.3,0,11.1c0,2.8,0,4.8,0,4.8h4.5c0,0,0-2.2,0-4.8c0-4.6,0-11.1,0-11.1H593.7z"/>
			<path fill="#FFFFFF" d="M597,793.7c-0.8,0-1.5,0-2.2,0c0,0,0-1.7,0-3.8c0-4.2,0-10,0-10h2.2c0,0,0,6,0,10
				C597,792,597,793.7,597,793.7 M599.4,796v-2.2c0,0,0-1.7,0-3.8c0-4.2,0-10,0-10v-2.2h-2.2H595h-2.5v2.2c0,0,0,6,0,10
				c0,2.2,0,3.8,0,3.8v2.2h2.2h2.2H599.4L599.4,796z"/>
		</g>
		<g>
			<path fill="#221F1F" d="M391.7,774.9c0,0,0,9.3,0,14.9c0,2.7,0,4.6,0,4.6h3.8c0,0,0-2,0-4.6c0-5.8,0-14.9,0-14.9H391.7z"/>
			<path fill="#FFFFFF" d="M394.7,793.7c-0.8,0-1.5,0-2.2,0c0,0,0-1.5,0-3.8c0-5.3,0-14.3,0-14.3h2.2c0,0,0,9,0,14.3
				C394.7,792.2,394.7,793.7,394.7,793.7 M396.3,795.5v-1.7c0,0,0-1.5,0-3.8c0-5.3,0-14.3,0-14.3v-1.7h-1.7h-2.2h-1.7v1.7
				c0,0,0,9,0,14.3c0,2.2,0,3.8,0,3.8v1.7h1.7h2.2H396.3L396.3,795.5z"/>
		</g>
		<path fill="#221F1F" d="M595.9,767.5l-9.1,9.8c-0.5,0.5-0.5,1.2,0,1.5c0.5,0.5,1.2,0.5,1.5,0c0,0,0,0,0-0.2l0,0l6.3-6.8v12.1
			c0.8,0,1.5,0,2.2,0v-12.1l6.3,7c0.5,0.5,1.2,0.5,1.5,0c0.5-0.5,0.5-1.2,0-1.5l0,0L595.9,767.5z"/>
		<g>
			<path fill="none" stroke="#FFFFFF" stroke-width="6" stroke-miterlimit="10" d="M595.9,793.7c0,30.7-24.9,55.4-55.4,55.4"/>
			<path fill="none" stroke="#221F1F" stroke-width="2" stroke-miterlimit="10" d="M595.9,793.7c0,30.7-24.9,55.4-55.4,55.4"/>
		</g>
		<g>
			<path fill="none" stroke="#FFFFFF" stroke-width="6" stroke-miterlimit="10" d="M393.5,793.7c0,30.7,24.9,55.4,55.4,55.4"/>
			<path fill="none" stroke="#221F1F" stroke-width="2" stroke-miterlimit="10" d="M393.5,793.7c0,30.7,24.9,55.4,55.4,55.4"/>
		</g>
	</g>
</g>
<g id="step-5" display="none">
	<path display="inline" fill="#58595B" d="M81.9,877.2v6.3H101v-6.3H81.9z M110.6,858.3H72.5c-3.2,0-3.2,3.2-3.2,3.2v38
		c0,0,0,3.2,3.2,3.2c0,0,34.9,0,38.2,0c3.2,0,3.2-3.2,3.2-3.2v-38.2C113.6,861.3,113.6,858.3,110.6,858.3z M107.3,894.6
		c0,1.5-1.5,1.5-1.5,1.5H77.3c0,0-1.5,0-1.5-1.5v-28.6c0-1.5,1.5-1.5,1.5-1.5h28.6c0,0,1.5,0,1.5,1.5
		C107.3,866.1,107.3,893.3,107.3,894.6z"/>
	
		<text transform="matrix(1.0208 0 0 1 65.8437 838.8611)" display="inline" fill="#231F20" font-family="'ApexNew-Book'" font-size="15.5745">remove</text>
	<path id="border_4_" display="inline" fill="#3F81C3" d="M260.2,717.2c7.3,0,13.3,6,13.3,13.3v40c0,7.3-6,13.3-13.3,13.3H118.1
		c-7.3,0-13.3-6-13.3-13.3v-40c0-7.3,6-13.3,13.3-13.3H260.2 M260.2,711.7H118.1c-10.5,0-18.9,8.5-18.9,18.9v40
		c0,10.5,8.5,18.9,18.9,18.9h142.1c10.5,0,18.9-8.5,18.9-18.9v-40C279.1,720.3,270.7,711.7,260.2,711.7L260.2,711.7z"/>
	<g id="add_2_" display="inline">
		<g>
			<path fill="#221F1F" d="M134.6,848.3v2.2c0,0-3.5,0-10,0c-10.3,0-66.2,0-75.2,0c-4.8,0-7.3,0-7.3,0c0-0.8,0-1.5,0-2.2
				c0,0,2.5,0,7.3,0c9,0,64.9,0,75.2,0C131.1,848.3,134.6,848.3,134.6,848.3z"/>
		</g>
		<g>
			<path fill="#221F1F" d="M-11.2,778.9c0,0,0,6.3,0,11.1c0,2.8,0,4.8,0,4.8h-4.5c0,0,0-2.2,0-4.8c0-4.6,0-11.1,0-11.1H-11.2z"/>
			<path fill="#FFFFFF" d="M-14.5,793.7c0,0,0-1.7,0-3.8c0-4.2,0-10,0-10h2.2c0,0,0,6,0,10c0,2.2,0,3.8,0,3.8
				C-13.2,793.7-13.9,793.7-14.5,793.7 M-16.8,796h2.2h2.2h2.2v-2.2c0,0,0-1.7,0-3.8c0-4.2,0-10,0-10v-2.2h-2.2h-2.2h-2.2v2.2
				c0,0,0,6,0,10c0,2.2,0,3.8,0,3.8V796L-16.8,796z"/>
		</g>
		<g>
			<path fill="#221F1F" d="M192.2,774.9c0,0,0,9.3,0,14.9c0,2.7,0,4.6,0,4.6h-3.8c0,0,0-2,0-4.6c0-5.8,0-14.9,0-14.9H192.2z"/>
			<path fill="#FFFFFF" d="M189,793.7c0,0,0-1.5,0-3.8c0-5.3,0-14.3,0-14.3h2.2c0,0,0,9,0,14.3c0,2.2,0,3.8,0,3.8
				C190.5,793.7,189.8,793.7,189,793.7 M187.3,795.5h1.7h2.2h1.7v-1.7c0,0,0-1.5,0-3.8c0-5.3,0-14.3,0-14.3v-1.7h-1.7H189h-1.7v1.7
				c0,0,0,9,0,14.3c0,2.2,0,3.8,0,3.8V795.5L187.3,795.5z"/>
		</g>
		<path fill="#221F1F" d="M-13.5,767.5l9.1,9.8c0.5,0.5,0.5,1.2,0,1.5c-0.5,0.5-1.2,0.5-1.5,0c0,0,0,0,0-0.2l0,0l-6.3-6.8v12.1
			c-0.8,0-1.5,0-2.2,0v-12.1l-6.3,7c-0.5,0.5-1.2,0.5-1.5,0c-0.5-0.5-0.5-1.2,0-1.5l0,0L-13.5,767.5z"/>
		<g>
			<path fill="none" stroke="#FFFFFF" stroke-width="6" stroke-miterlimit="10" d="M-13.5,793.7c0,30.7,24.9,55.4,55.4,55.4"/>
			<path fill="none" stroke="#221F1F" stroke-width="2" stroke-miterlimit="10" d="M-13.5,793.7c0,30.7,24.9,55.4,55.4,55.4"/>
		</g>
		<g>
			<path fill="none" stroke="#FFFFFF" stroke-width="6" stroke-miterlimit="10" d="M190.2,793.7c0,30.7-24.9,55.4-55.4,55.4"/>
			<path fill="none" stroke="#221F1F" stroke-width="2" stroke-miterlimit="10" d="M190.2,793.7c0,30.7-24.9,55.4-55.4,55.4"/>
		</g>
	</g>
</g>
</svg>
