<?xml version="1.0" encoding="utf-8"?>
<!-- Generator: Adobe Illustrator 17.1.0, SVG Export Plug-In . SVG Version: 6.00 Build 0)  -->
<!DOCTYPE svg PUBLIC "-//W3C//DTD SVG 1.1//EN" "http://www.w3.org/Graphics/SVG/1.1/DTD/svg11.dtd">
<svg version="1.1" id="Diff" xmlns="http://www.w3.org/2000/svg" xmlns:xlink="http://www.w3.org/1999/xlink" x="0px" y="0px"
	 viewBox="7 533.1 500 128.5" enable-background="new 7 533.1 500 128.5" xml:space="preserve">
<g id="base">
	<g id="untracked">
		<text transform="matrix(1 0 0 1 21.6709 571.4883)" fill="#221F1F" font-family="'HelveticaNeue-Light'" font-size="19.342">untracked</text>
		<g id="border_28_">
			<path fill="#414141" d="M107.9,546.1c4.3,0,7.7,3.4,7.7,7.7v25.1c0,4.3-3.4,7.7-7.7,7.7h-89c-4.3,0-7.7-3.4-7.7-7.7v-25.1
				c0-4.3,3.4-7.7,7.7-7.7H107.9 M107.9,545.3h-89c-4.6,0-8.3,3.7-8.3,8.3v25.1c0,4.6,3.7,8.3,8.3,8.3h89c4.6,0,8.3-3.7,8.3-8.3
				v-25.1C116.2,549.2,112.5,545.3,107.9,545.3L107.9,545.3z"/>
		</g>
	</g>
	<g id="unmodified">
		<g id="border_1_">
			<path fill="#414141" d="M235.9,546.1c4.3,0,7.7,3.4,7.7,7.7v25.1c0,4.3-3.4,7.7-7.7,7.7h-89c-4.3,0-7.7-3.4-7.7-7.7v-25.1
				c0-4.3,3.4-7.7,7.7-7.7H235.9 M235.9,545.3h-89c-4.6,0-8.3,3.7-8.3,8.3v25.1c0,4.6,3.7,8.3,8.3,8.3h89c4.6,0,8.3-3.7,8.3-8.3
				v-25.1C244.3,549.2,240.5,545.3,235.9,545.3L235.9,545.3z"/>
		</g>
		<text transform="matrix(1 0 0 1 145.4136 571.4883)" fill="#221F1F" font-family="'HelveticaNeue-Light'" font-size="19.342">unmodified</text>
	</g>
	<g id="modified">
		<g id="border_25_">
			<path fill="#414141" d="M361.9,546.1c4.3,0,7.7,3.4,7.7,7.7v25.1c0,4.3-3.4,7.7-7.7,7.7h-89c-4.3,0-7.7-3.4-7.7-7.7v-25.1
				c0-4.3,3.4-7.7,7.7-7.7H361.9 M361.9,545.3h-89c-4.6,0-8.3,3.7-8.3,8.3v25.1c0,4.6,3.7,8.3,8.3,8.3h89c4.6,0,8.3-3.7,8.3-8.3
				v-25.1C370.2,549.2,366.5,545.3,361.9,545.3L361.9,545.3z"/>
		</g>
		<text transform="matrix(1 0 0 1 281.7354 571.4883)" fill="#221F1F" font-family="'HelveticaNeue-Light'" font-size="19.342">modified</text>
	</g>
	<g id="staged">
		<g id="border_22_">
			<path fill="#414141" d="M487.8,546.1c4.3,0,7.7,3.4,7.7,7.7v25.1c0,4.3-3.4,7.7-7.7,7.7h-89c-4.3,0-7.7-3.4-7.7-7.7v-25.1
				c0-4.3,3.4-7.7,7.7-7.7H487.8 M487.8,545.3h-89c-4.6,0-8.3,3.7-8.3,8.3v25.1c0,4.6,3.7,8.3,8.3,8.3h89.1c4.6,0,8.3-3.7,8.3-8.3
				v-25.1C496.2,549.2,492.3,545.3,487.8,545.3L487.8,545.3z"/>
		</g>
		<text transform="matrix(1 0 0 1 414.8262 571.4883)" fill="#221F1F" font-family="'HelveticaNeue-Light'" font-size="19.342">staged</text>
	</g>
	<g id="border_tracked" opacity="0.3">
		<path fill="#414141" d="M491.1,533.8c8.4,0,15.3,6.9,15.3,15.3v36.4c0,8.4-6.9,15.3-15.3,15.3H143.9c-8.4,0-15.3-6.9-15.3-15.3
			v-36.4c0-8.4,6.9-15.3,15.3-15.3H491.1 M491.1,533.1H143.9c-8.7,0-16,7.3-16,16v36.4c0,8.8,7.3,16,16,16H491c8.8,0,16-7.2,16-16
			v-36.4C507.1,540.4,499.9,533.1,491.1,533.1L491.1,533.1z"/>
	</g>
</g>
<text transform="matrix(1.0483 0 0 1 249.2178 621.5996)" fill="#231F20" font-family="'ApexNew-Book'" font-size="9.7588">add</text>
<path fill="#58595B" d="M259.9,641.7h-4v4h-4v4h4v4h4v-4h4v-4h-4V641.7z M269.8,633.8h-23.9c-2,0-2,2-2,2v23.8c0,0,0,2,2,2
	c0,0,21.8,0,23.9,0c2,0,2-2,2-2v-23.9C271.8,635.6,271.8,633.8,269.8,633.8z M267.9,656.5c0,0.9-0.9,0.9-0.9,0.9h-18
	c0,0-0.9,0-0.9-0.9v-17.9c0-0.9,0.9-0.9,0.9-0.9h17.9c0,0,0.9,0,0.9,0.9C267.9,638.6,267.9,655.7,267.9,656.5z"/>
<path id="border_23_" fill="#3F81C3" d="M107.9,545.3c4.6,0,8.3,3.7,8.3,8.3v25.1c0,4.6-3.7,8.3-8.3,8.3h-89c-4.6,0-8.3-3.7-8.3-8.3
	v-25.1c0-4.6,3.7-8.3,8.3-8.3H107.9 M107.9,541.9h-89c-6.6,0-11.9,5.3-11.9,11.9v25.1c0,6.6,5.3,11.9,11.9,11.9h89
	c6.6,0,11.9-5.3,11.9-11.9v-25.1C119.8,547.3,114.4,541.9,107.9,541.9L107.9,541.9z"/>
<g id="step-2-in-out" display="none">
	
		<text transform="matrix(1.0208 0 0 1 311.6348 1202.0029)" display="inline" fill="#231F20" font-family="'ApexNew-Book'" font-size="9.7588">commit</text>
	<path display="inline" fill="#58595B" d="M340.9,1214.2H317c-2,0-2,2-2,2v23.8c0,0,0,2,2,2c0,0,21.8,0,23.9,0c2,0,2-2,2-2V1216
		C343,1216,343,1214.2,340.9,1214.2z M339,1236.9c0,0.9-0.9,0.9-0.9,0.9h-18c0,0-0.9,0-0.9-0.9V1219c0-0.9,0.9-0.9,0.9-0.9H338
		c0,0,0.9,0,0.9,0.9C339,1219,339,1236.1,339,1236.9z M329,1224c-2.2,0-4,1.8-4,4c0,2.2,1.8,4,4,4c2.2,0,4-1.8,4-4
		C333,1225.8,331.2,1224,329,1224z"/>
	<path display="inline" fill="#58595B" d="M327.2,1221.1h-1.8v1.8h1.8V1221.1z M327.2,1217.6h-1.8v1.8h1.8V1217.6z M337.6,1214.2
		h-17.5c0,0-1.8,0-1.8,1.8v20.9c0,1.8,1.8,1.8,1.8,1.8h3.5v3.5l2.6-2.6l2.6,2.6v-3.6h8.7c0,0,1.8,0,1.8-1.8v-20.9
		C339.3,1214.2,337.6,1214.2,337.6,1214.2z M337.6,1235.1c0,1.7-1.8,1.8-1.8,1.8h-7v-1.8h-5.2v1.8h-1.8c-1.8,0-1.8-1.8-1.8-1.8v-1.8
		h17.5L337.6,1235.1L337.6,1235.1z M337.6,1231.5h-13.9v-15.7h13.9V1231.5z M327.2,1228.1h-1.8v1.8h1.8V1228.1z M327.2,1224.6h-1.8
		v1.8h1.8V1224.6z"/>
	<path id="border_12_" display="inline" fill="#3F81C3" d="M489.5,1125.7c4.6,0,8.3,3.7,8.3,8.3v25.1c0,4.6-3.7,8.3-8.3,8.3h-89
		c-4.6,0-8.3-3.7-8.3-8.3v-25.1c0-4.6,3.7-8.3,8.3-8.3H489.5 M489.5,1122.3h-89c-6.6,0-11.9,5.3-11.9,11.9v25.1
		c0,6.6,5.3,11.9,11.9,11.9h89.1c6.6,0,11.9-5.3,11.9-11.9v-25.1C501.4,1127.7,496.1,1122.3,489.5,1122.3L489.5,1122.3z"/>
	<g id="add_3_" display="inline">
		<g>
			<path fill="#221F1F" d="M413.2,1207.9v1.4c0,0-2.2,0-6.2,0c-23.8,0-153.1,0-173.8,0c-3,0-4.6,0-4.6,0c0-0.5,0-0.9,0-1.4
				c0,0,1.6,0,4.6,0c20.6,0,150,0,173.8,0C411.1,1207.9,413.2,1207.9,413.2,1207.9z"/>
		</g>
		<g>
			<path fill="#221F1F" d="M195.3,1164.4c0,0,0,4,0,7c0,1.8,0,3,0,3h-2.8c0,0,0-1.4,0-3c0-2.9,0-7,0-7H195.3z"/>
			<path fill="#FFFFFF" d="M193.2,1173.7c0,0,0-1,0-2.4c0-2.6,0-6.2,0-6.2h1.4c0,0,0,3.7,0,6.2c0,1.4,0,2.4,0,2.4
				C194,1173.7,193.6,1173.7,193.2,1173.7 M191.7,1175.2h1.4h1.4h1.4v-1.4c0,0,0-1,0-2.4c0-2.6,0-6.2,0-6.2v-1.4h-1.4h-1.2h-1.4v1.4
				c0,0,0,3.7,0,6.2c0,1.4,0,2.4,0,2.4L191.7,1175.2L191.7,1175.2z"/>
		</g>
		<g>
			<path fill="#221F1F" d="M449.3,1161.9c0,0,0,5.8,0,9.4c0,1.7,0,2.9,0,2.9h-2.4c0,0,0-1.2,0-2.9c0-3.6,0-9.4,0-9.4H449.3z"/>
			<path fill="#FFFFFF" d="M447.4,1173.7c0,0,0-0.9,0-2.4c0-3.3,0-8.9,0-8.9h1.4c0,0,0,5.6,0,8.9c0,1.4,0,2.4,0,2.4
				C448.2,1173.7,447.8,1173.7,447.4,1173.7 M446.4,1174.8h1h1.4h1v-1c0,0,0-0.9,0-2.4c0-3.3,0-8.9,0-8.9v-1h-1h-1.4h-1v1
				c0,0,0,5.6,0,8.9c0,1.4,0,2.4,0,2.4V1174.8L446.4,1174.8z"/>
		</g>
		<path fill="#221F1F" d="M193.8,1157.3l5.7,6.1c0.3,0.3,0.3,0.7,0,0.9c-0.3,0.3-0.7,0.3-0.9,0c0,0,0,0,0-0.1l0,0l-4-4.3v7.6
			c-0.5,0-0.9,0-1.4,0v-7.6l-4,4.4c-0.3,0.3-0.7,0.3-0.9,0c-0.2-0.3-0.3-0.7,0-0.9l0,0L193.8,1157.3z"/>
		<g>
			<path fill="none" stroke="#FFFFFF" stroke-width="6" stroke-miterlimit="10" d="M193.8,1173.7c0,19.2,15.6,34.7,34.7,34.7"/>
			<path fill="none" stroke="#221F1F" stroke-width="2" stroke-miterlimit="10" d="M193.8,1173.7c0,19.2,15.6,34.7,34.7,34.7"/>
		</g>
		<g>
			<path fill="none" stroke="#FFFFFF" stroke-width="6" stroke-miterlimit="10" d="M448,1173.7c0,19.2-15.6,34.7-34.7,34.7"/>
			<path fill="none" stroke="#221F1F" stroke-width="2" stroke-miterlimit="10" d="M448,1173.7c0,19.2-15.6,34.7-34.7,34.7"/>
		</g>
	</g>
</g>
<g id="step-3-in-out" display="none">
	
		<text transform="matrix(1.0483 0 0 1 251.2793 1202.0029)" display="inline" fill="#231F20" font-family="'ApexNew-Book'" font-size="9.7588">edit</text>
	<path display="inline" fill="#58595B" d="M267.8,1214.2l-4,4l6,6l4-4L267.8,1214.2z M245.8,1236v6h5.9l15.9-15.9l-6-6L245.8,1236z
		 M251.7,1240h-4v-4h2v2h2L251.7,1240L251.7,1240z"/>
	<path id="border_7_" display="inline" fill="#3F81C3" d="M237.7,1125.7c4.6,0,8.3,3.7,8.3,8.3v25.1c0,4.6-3.7,8.3-8.3,8.3h-89
		c-4.6,0-8.3-3.7-8.3-8.3v-25.1c0-4.6,3.7-8.3,8.3-8.3H237.7 M237.7,1122.3h-89c-6.6,0-11.9,5.3-11.9,11.9v25.1
		c0,6.6,5.3,11.9,11.9,11.9h89c6.6,0,11.9-5.3,11.9-11.9v-25.1C249.6,1127.7,244.3,1122.3,237.7,1122.3L237.7,1122.3z"/>
	<g id="edit" display="inline">
		<g>
			<path fill="#221F1F" d="M228.9,1207.9v1.4c0,0,2.2,0,6.2,0c6.3,0,41,0,46.5,0c3,0,4.6,0,4.6,0c0-0.5,0-0.9,0-1.4c0,0-1.6,0-4.6,0
				c-5.5,0-40.1,0-46.5,0C231.2,1207.9,228.9,1207.9,228.9,1207.9z"/>
		</g>
		<g>
			<path fill="#221F1F" d="M319.8,1164.4c0,0,0,4,0,7c0,1.8,0,3,0,3h2.8c0,0,0-1.4,0-3c0-2.9,0-7,0-7H319.8z"/>
			<path fill="#FFFFFF" d="M321.9,1173.7c-0.5,0-0.9,0-1.4,0c0,0,0-1,0-2.4c0-2.6,0-6.2,0-6.2h1.4c0,0,0,3.7,0,6.2
				C321.9,1172.7,321.9,1173.7,321.9,1173.7 M323.2,1175.2v-1.4c0,0,0-1,0-2.4c0-2.6,0-6.2,0-6.2v-1.4h-1.4h-1.4H319v1.4
				c0,0,0,3.7,0,6.2c0,1.4,0,2.4,0,2.4v1.4h1.4h1.4H323.2L323.2,1175.2z"/>
		</g>
		<g>
			<path fill="#221F1F" d="M192.9,1161.9c0,0,0,5.8,0,9.4c0,1.7,0,2.9,0,2.9h2.4c0,0,0-1.2,0-2.9c0-3.6,0-9.4,0-9.4H192.9z"/>
			<path fill="#FFFFFF" d="M194.9,1173.7c-0.5,0-0.9,0-1.4,0c0,0,0-0.9,0-2.4c0-3.3,0-8.9,0-8.9h1.4c0,0,0,5.6,0,8.9
				C194.9,1172.8,194.9,1173.7,194.9,1173.7 M195.9,1174.8v-1c0,0,0-0.9,0-2.4c0-3.3,0-8.9,0-8.9v-1h-1h-1.4h-1v1c0,0,0,5.6,0,8.9
				c0,1.4,0,2.4,0,2.4v1h1h1.4H195.9L195.9,1174.8z"/>
		</g>
		<path fill="#221F1F" d="M321.1,1157.3l-5.7,6.1c-0.3,0.3-0.3,0.7,0,0.9c0.3,0.3,0.7,0.3,0.9,0c0,0,0,0,0-0.1l0,0l4-4.3v7.6
			c0.5,0,0.9,0,1.4,0v-7.6l4,4.4c0.3,0.3,0.7,0.3,0.9,0c0.3-0.3,0.3-0.7,0-0.9l0,0L321.1,1157.3z"/>
		<g>
			<path fill="none" stroke="#FFFFFF" stroke-width="6" stroke-miterlimit="10" d="M321.1,1173.7c0,19.2-15.6,34.7-34.7,34.7"/>
			<path fill="none" stroke="#221F1F" stroke-width="2" stroke-miterlimit="10" d="M321.1,1173.7c0,19.2-15.6,34.7-34.7,34.7"/>
		</g>
		<g>
			<path fill="none" stroke="#FFFFFF" stroke-width="6" stroke-miterlimit="10" d="M194.1,1173.7c0,19.2,15.6,34.7,34.7,34.7"/>
			<path fill="none" stroke="#221F1F" stroke-width="2" stroke-miterlimit="10" d="M194.1,1173.7c0,19.2,15.6,34.7,34.7,34.7"/>
		</g>
	</g>
</g>
<g id="step-4-in-out" display="none">
	
		<text transform="matrix(1.0483 0 0 1 379.8506 1202.0029)" display="inline" fill="#231F20" font-family="'ApexNew-Book'" font-size="9.7588">add</text>
	<path display="inline" fill="#58595B" d="M390.6,1222.1h-4v4h-4v4h4v4h4v-4h4v-4h-4V1222.1z M400.5,1214.2h-23.9c-2,0-2,2-2,2v23.8
		c0,0,0,2,2,2c0,0,21.8,0,23.9,0s2-2,2-2V1216C402.5,1216,402.5,1214.2,400.5,1214.2z M398.5,1236.9c0,0.9-0.9,0.9-0.9,0.9h-17.9
		c0,0-0.9,0-0.9-0.9V1219c0-0.9,0.9-0.9,0.9-0.9h17.9c0,0,0.9,0,0.9,0.9C398.5,1219,398.5,1236.1,398.5,1236.9z"/>
	<path id="border_2_" display="inline" fill="#3F81C3" d="M363.7,1125.7c4.6,0,8.3,3.7,8.3,8.3v25.1c0,4.6-3.7,8.3-8.3,8.3h-89
		c-4.6,0-8.3-3.7-8.3-8.3v-25.1c0-4.6,3.7-8.3,8.3-8.3H363.7 M363.7,1122.3h-89c-6.6,0-11.9,5.3-11.9,11.9v25.1
		c0,6.6,5.3,11.9,11.9,11.9h89c6.6,0,11.9-5.3,11.9-11.9v-25.1C375.5,1127.7,370.1,1122.3,363.7,1122.3L363.7,1122.3z"/>
	<g id="add_5_" display="inline">
		<g>
			<path fill="#221F1F" d="M356.1,1207.9v1.4c0,0,2.2,0,6.2,0c6.3,0,40.8,0,46.3,0c3,0,4.6,0,4.6,0c0-0.5,0-0.9,0-1.4
				c0,0-1.6,0-4.6,0c-5.5,0-39.9,0-46.3,0C358.3,1207.9,356.1,1207.9,356.1,1207.9z"/>
		</g>
		<g>
			<path fill="#221F1F" d="M446.7,1164.4c0,0,0,4,0,7c0,1.8,0,3,0,3h2.8c0,0,0-1.4,0-3c0-2.9,0-7,0-7H446.7z"/>
			<path fill="#FFFFFF" d="M448.8,1173.7c-0.5,0-0.9,0-1.4,0c0,0,0-1,0-2.4c0-2.6,0-6.2,0-6.2h1.4c0,0,0,3.7,0,6.2
				C448.8,1172.7,448.8,1173.7,448.8,1173.7 M450.2,1175.2v-1.4c0,0,0-1,0-2.4c0-2.6,0-6.2,0-6.2v-1.4h-1.4h-1.4h-1.6v1.4
				c0,0,0,3.7,0,6.2c0,1.4,0,2.4,0,2.4v1.4h1.4h1.4H450.2L450.2,1175.2z"/>
		</g>
		<g>
			<path fill="#221F1F" d="M320.1,1161.9c0,0,0,5.8,0,9.4c0,1.7,0,2.9,0,2.9h2.4c0,0,0-1.2,0-2.9c0-3.6,0-9.4,0-9.4H320.1z"/>
			<path fill="#FFFFFF" d="M322,1173.7c-0.5,0-0.9,0-1.4,0c0,0,0-0.9,0-2.4c0-3.3,0-8.9,0-8.9h1.4c0,0,0,5.6,0,8.9
				C322,1172.8,322,1173.7,322,1173.7 M323,1174.8v-1c0,0,0-0.9,0-2.4c0-3.3,0-8.9,0-8.9v-1h-1h-1.4h-1v1c0,0,0,5.6,0,8.9
				c0,1.4,0,2.4,0,2.4v1h1h1.4H323L323,1174.8z"/>
		</g>
		<path fill="#221F1F" d="M448,1157.3l-5.7,6.1c-0.3,0.3-0.3,0.7,0,0.9c0.3,0.3,0.7,0.3,0.9,0c0,0,0,0,0-0.1l0,0l4-4.3v7.6
			c0.5,0,0.9,0,1.4,0v-7.6l4,4.4c0.3,0.3,0.7,0.3,0.9,0c0.3-0.3,0.3-0.7,0-0.9l0,0L448,1157.3z"/>
		<g>
			<path fill="none" stroke="#FFFFFF" stroke-width="6" stroke-miterlimit="10" d="M448,1173.7c0,19.2-15.6,34.7-34.7,34.7"/>
			<path fill="none" stroke="#221F1F" stroke-width="2" stroke-miterlimit="10" d="M448,1173.7c0,19.2-15.6,34.7-34.7,34.7"/>
		</g>
		<g>
			<path fill="none" stroke="#FFFFFF" stroke-width="6" stroke-miterlimit="10" d="M321.2,1173.7c0,19.2,15.6,34.7,34.7,34.7"/>
			<path fill="none" stroke="#221F1F" stroke-width="2" stroke-miterlimit="10" d="M321.2,1173.7c0,19.2,15.6,34.7,34.7,34.7"/>
		</g>
	</g>
</g>
<g id="step-5" display="none">
	<path display="inline" fill="#58595B" d="M126,1226v4h12v-4H126z M144,1214.2h-23.9c-2,0-2,2-2,2v23.8c0,0,0,2,2,2
		c0,0,21.8,0,23.9,0c2,0,2-2,2-2V1216C145.9,1216,145.9,1214.2,144,1214.2z M141.9,1236.9c0,0.9-0.9,0.9-0.9,0.9h-17.9
		c0,0-0.9,0-0.9-0.9V1219c0-0.9,0.9-0.9,0.9-0.9H141c0,0,0.9,0,0.9,0.9C141.9,1219,141.9,1236.1,141.9,1236.9z"/>
	
		<text transform="matrix(1.0208 0 0 1 115.9131 1202.0029)" display="inline" fill="#231F20" font-family="'ApexNew-Book'" font-size="9.7588">remove</text>
	<path id="border_4_" display="inline" fill="#3F81C3" d="M237.7,1125.7c4.6,0,8.3,3.7,8.3,8.3v25.1c0,4.6-3.7,8.3-8.3,8.3h-89
		c-4.6,0-8.3-3.7-8.3-8.3v-25.1c0-4.6,3.7-8.3,8.3-8.3H237.7 M237.7,1122.3h-89c-6.6,0-11.9,5.3-11.9,11.9v25.1
		c0,6.6,5.3,11.9,11.9,11.9h89c6.6,0,11.9-5.3,11.9-11.9v-25.1C249.6,1127.7,244.3,1122.3,237.7,1122.3L237.7,1122.3z"/>
	<g id="add_2_" display="inline">
		<g>
			<path fill="#221F1F" d="M159,1207.9v1.4c0,0-2.2,0-6.2,0c-6.4,0-41.5,0-47.1,0c-3,0-4.6,0-4.6,0c0-0.5,0-0.9,0-1.4
				c0,0,1.6,0,4.6,0c5.6,0,40.7,0,47.1,0C156.8,1207.9,159,1207.9,159,1207.9z"/>
		</g>
		<g>
			<path fill="#221F1F" d="M67.6,1164.4c0,0,0,4,0,7c0,1.8,0,3,0,3h-2.8c0,0,0-1.4,0-3c0-2.9,0-7,0-7H67.6z"/>
			<path fill="#FFFFFF" d="M65.6,1173.7c0,0,0-1,0-2.4c0-2.6,0-6.2,0-6.2h1.4c0,0,0,3.7,0,6.2c0,1.4,0,2.4,0,2.4
				C66.4,1173.7,66,1173.7,65.6,1173.7 M64.1,1175.2h1.4h1.4h1.4v-1.4c0,0,0-1,0-2.4c0-2.6,0-6.2,0-6.2v-1.4h-1.4h-1.4h-1.4v1.4
				c0,0,0,3.7,0,6.2c0,1.4,0,2.4,0,2.4V1175.2L64.1,1175.2z"/>
		</g>
		<g>
			<path fill="#221F1F" d="M195.1,1161.9c0,0,0,5.8,0,9.4c0,1.7,0,2.9,0,2.9h-2.4c0,0,0-1.2,0-2.9c0-3.6,0-9.4,0-9.4H195.1z"/>
			<path fill="#FFFFFF" d="M193.1,1173.7c0,0,0-0.9,0-2.4c0-3.3,0-8.9,0-8.9h1.4c0,0,0,5.6,0,8.9c0,1.4,0,2.4,0,2.4
				C194,1173.7,193.6,1173.7,193.1,1173.7 M192,1174.8h1h1.4h1v-1c0,0,0-0.9,0-2.4c0-3.3,0-8.9,0-8.9v-1h-1h-1.4h-1v1
				c0,0,0,5.6,0,8.9c0,1.4,0,2.4,0,2.4V1174.8L192,1174.8z"/>
		</g>
		<path fill="#221F1F" d="M66.2,1157.3l5.7,6.1c0.3,0.3,0.3,0.7,0,0.9c-0.3,0.3-0.7,0.3-0.9,0c0,0,0,0,0-0.1l0,0l-4-4.3v7.6
			c-0.5,0-0.9,0-1.4,0v-7.6l-4,4.4c-0.3,0.3-0.7,0.3-0.9,0c-0.3-0.3-0.3-0.7,0-0.9l0,0L66.2,1157.3z"/>
		<g>
			<path fill="none" stroke="#FFFFFF" stroke-width="6" stroke-miterlimit="10" d="M66.2,1173.7c0,19.2,15.6,34.7,34.7,34.7"/>
			<path fill="none" stroke="#221F1F" stroke-width="2" stroke-miterlimit="10" d="M66.2,1173.7c0,19.2,15.6,34.7,34.7,34.7"/>
		</g>
		<g>
			<path fill="none" stroke="#FFFFFF" stroke-width="6" stroke-miterlimit="10" d="M193.8,1173.7c0,19.2-15.6,34.7-34.7,34.7"/>
			<path fill="none" stroke="#221F1F" stroke-width="2" stroke-miterlimit="10" d="M193.8,1173.7c0,19.2-15.6,34.7-34.7,34.7"/>
		</g>
	</g>
</g>
<g>
	<path fill="#221F1F" d="M454.1,583L454.1,583c0.3,0.2,0.3,0.6,0,0.9c-0.2,0.3-0.6,0.3-0.9,0l-4-4.4h-1.4l-4,4.3l0,0
		c0,0.1,0,0.1,0,0.1c-0.2,0.3-0.6,0.3-0.9,0c-0.3-0.2-0.3-0.6,0-0.9l5.7-6.1L454.1,583z"/>
	<path fill="none" stroke="#221F1F" stroke-width="1.55" stroke-miterlimit="10" d="M448.5,578.9v14.6c0,19.2-15.6,32.7-34.7,32.7
		H93c-19.1,0-34.7-13.4-34.7-32.7v-16.6"/>
</g>
</svg>
