<?xml version="1.0" encoding="utf-8"?>
<!-- Generator: Adobe Illustrator 17.1.0, SVG Export Plug-In . SVG Version: 6.00 Build 0)  -->
<!DOCTYPE svg PUBLIC "-//W3C//DTD SVG 1.1//EN" "http://www.w3.org/Graphics/SVG/1.1/DTD/svg11.dtd">
<svg version="1.1" id="Diff" xmlns="http://www.w3.org/2000/svg" xmlns:xlink="http://www.w3.org/1999/xlink" x="0px" y="0px"
	 viewBox="8.1 275.4 476.7 123.6" enable-background="new 8.1 275.4 476.7 123.6" xml:space="preserve">
<g id="base">
	<g id="untracked">
		<text transform="matrix(1 0 0 1 18.684 312.3104)" fill="#221F1F" font-family="'HelveticaNeue-Light'" font-size="18.5733">untracked</text>
		<g id="border_28_">
			<path fill="#414141" d="M101.6,287.9c4.1,0,7.4,3.3,7.4,7.4v24.1c0,4.1-3.3,7.4-7.4,7.4H16.1c-4.1,0-7.4-3.3-7.4-7.4v-24.1
				c0-4.1,3.3-7.4,7.4-7.4H101.6 M101.6,287.2H16.1c-4.4,0-8,3.6-8,8v24.1c0,4.4,3.6,8,8,8h85.5c4.4,0,8-3.6,8-8v-24.1
				C109.5,290.9,105.9,287.2,101.6,287.2L101.6,287.2z"/>
		</g>
	</g>
	<g id="unmodified">
		<g id="border_1_">
			<path fill="#414141" d="M224.5,287.9c4.1,0,7.4,3.3,7.4,7.4v24.1c0,4.1-3.3,7.4-7.4,7.4H139c-4.1,0-7.4-3.3-7.4-7.4v-24.1
				c0-4.1,3.3-7.4,7.4-7.4H224.5 M224.5,287.2H139c-4.4,0-8,3.6-8,8v24.1c0,4.4,3.6,8,8,8h85.5c4.4,0,8-3.6,8-8v-24.1
				C232.5,290.9,228.9,287.2,224.5,287.2L224.5,287.2z"/>
		</g>
		<text transform="matrix(1 0 0 1 137.5087 312.3104)" fill="#221F1F" font-family="'HelveticaNeue-Light'" font-size="18.5733">unmodified</text>
	</g>
	<g id="modified">
		<g id="border_25_">
			<path fill="#414141" d="M345.4,287.9c4.1,0,7.4,3.3,7.4,7.4v24.1c0,4.1-3.3,7.4-7.4,7.4h-85.5c-4.1,0-7.4-3.3-7.4-7.4v-24.1
				c0-4.1,3.3-7.4,7.4-7.4H345.4 M345.4,287.2h-85.5c-4.4,0-8,3.6-8,8v24.1c0,4.4,3.6,8,8,8h85.5c4.4,0,8-3.6,8-8v-24.1
				C353.4,290.9,349.9,287.2,345.4,287.2L345.4,287.2z"/>
		</g>
		<text transform="matrix(1 0 0 1 268.4128 312.3104)" fill="#221F1F" font-family="'HelveticaNeue-Light'" font-size="18.5733">modified</text>
	</g>
	<g id="staged">
		<g id="border_22_">
			<path fill="#414141" d="M466.3,287.9c4.1,0,7.4,3.3,7.4,7.4v24.1c0,4.1-3.3,7.4-7.4,7.4h-85.5c-4.1,0-7.4-3.3-7.4-7.4v-24.1
				c0-4.1,3.3-7.4,7.4-7.4H466.3 M466.3,287.2h-85.5c-4.4,0-8,3.6-8,8v24.1c0,4.4,3.6,8,8,8h85.6c4.4,0,8-3.6,8-8v-24.1
				C474.4,290.9,470.7,287.2,466.3,287.2L466.3,287.2z"/>
		</g>
		<text transform="matrix(1 0 0 1 396.2145 312.3104)" fill="#221F1F" font-family="'HelveticaNeue-Light'" font-size="18.5733">staged</text>
	</g>
	<g id="border_tracked" opacity="0.3">
		<path fill="#414141" d="M469.5,276.1c8.1,0,14.7,6.6,14.7,14.7v35c0,8.1-6.6,14.7-14.7,14.7H136.1c-8.1,0-14.7-6.6-14.7-14.7v-35
			c0-8.1,6.6-14.7,14.7-14.7H469.5 M469.5,275.4H136.1c-8.4,0-15.4,7-15.4,15.4v35c0,8.5,7,15.4,15.4,15.4h333.3
			c8.5,0,15.4-6.9,15.4-15.4v-35C484.9,282.4,478,275.4,469.5,275.4L469.5,275.4z"/>
	</g>
</g>
<g id="step-1-in-out" display="none">
	
		<text transform="matrix(1.0483 0 0 1 125.6973 969.0625)" display="inline" fill="#231F20" font-family="'ApexNew-Book'" font-size="9.3709">add</text>
	<path display="inline" fill="#58595B" d="M136,988.3h-3.8v3.8h-3.8v3.8h3.8v3.8h3.8v-3.8h3.8v-3.8H136V988.3z M145.5,980.8h-23
		c-1.9,0-1.9,1.9-1.9,1.9v22.9c0,0,0,1.9,1.9,1.9c0,0,21,0,23,0c1.9,0,1.9-1.9,1.9-1.9v-23C147.5,982.6,147.5,980.8,145.5,980.8z
		 M143.7,1002.6c0,0.9-0.9,0.9-0.9,0.9h-17.3c0,0-0.9,0-0.9-0.9v-17.2c0-0.9,0.9-0.9,0.9-0.9h17.2c0,0,0.9,0,0.9,0.9
		C143.7,985.5,143.7,1001.8,143.7,1002.6z"/>
	<path id="border_23_" display="inline" fill="#3F81C3" d="M-9.9,895.9c4.4,0,8,3.6,8,8V928c0,4.4-3.6,8-8,8h-85.5c-4.4,0-8-3.6-8-8
		v-24.1c0-4.4,3.6-8,8-8H-9.9 M-9.9,892.6h-85.5c-6.3,0-11.4,5.1-11.4,11.4v24c0,6.3,5.1,11.4,11.4,11.4h85.5
		c6.3,0,11.4-5.1,11.4-11.4v-24.1C1.4,897.7-3.7,892.6-9.9,892.6L-9.9,892.6z"/>
	<g id="add" display="inline">
		<g>
			<path fill="#221F1F" d="M-18.2,974.7v1.3c0,0,2.1,0,6,0c39.5,0,255,0,289.2,0c2.9,0,4.4,0,4.4,0c0-0.5,0-0.9,0-1.3
				c0,0-1.5,0-4.4,0c-34.2,0-249.7,0-289.2,0C-16.1,974.7-18.2,974.7-18.2,974.7z"/>
		</g>
		<g>
			<path fill="#221F1F" d="M313.6,933c0,0,0,3.8,0,6.7c0,1.7,0,2.9,0,2.9h2.7c0,0,0-1.3,0-2.9c0-2.8,0-6.7,0-6.7H313.6z"/>
			<path fill="#FFFFFF" d="M315.6,941.9c-0.5,0-0.9,0-1.3,0c0,0,0-1,0-2.3c0-2.5,0-6,0-6h1.3c0,0,0,3.6,0,6
				C315.6,940.9,315.6,941.9,315.6,941.9 M317,943.3V942c0,0,0-1,0-2.3c0-2.5,0-6,0-6v-1.3h-1.3h-1.3H313v1.3c0,0,0,3.6,0,6
				c0,1.3,0,2.3,0,2.3v1.3h1.3h1.3H317L317,943.3z"/>
		</g>
		<g>
			<path fill="#221F1F" d="M-52.8,930.6c0,0,0,5.6,0,9c0,1.6,0,2.8,0,2.8h2.3c0,0,0-1.2,0-2.8c0-3.5,0-9,0-9H-52.8z"/>
			<path fill="#FFFFFF" d="M-51,941.9c-0.5,0-0.9,0-1.3,0c0,0,0-0.9,0-2.3c0-3.2,0-8.6,0-8.6h1.3c0,0,0,5.4,0,8.6
				C-51,941-51,941.9-51,941.9 M-50,943v-1c0,0,0-0.9,0-2.3c0-3.2,0-8.6,0-8.6v-1h-1h-1.3h-1v1c0,0,0,5.4,0,8.6c0,1.3,0,2.3,0,2.3v1
				h1h1.3H-50L-50,943z"/>
		</g>
		<path fill="#221F1F" d="M315,926.1l-5.5,5.9c-0.3,0.3-0.3,0.7,0,0.9c0.3,0.3,0.7,0.3,0.9,0c0,0,0,0,0-0.1l0,0l3.8-4.1v7.3
			c0.5,0,0.9,0,1.3,0v-7.3l3.8,4.2c0.3,0.3,0.7,0.3,0.9,0c0.3-0.3,0.3-0.7,0-0.9l0,0L315,926.1z"/>
		<g>
			<path fill="none" stroke="#FFFFFF" stroke-width="6" stroke-miterlimit="10" d="M315,941.9c0,18.5-15,33.3-33.3,33.3"/>
			<path fill="none" stroke="#221F1F" stroke-width="2" stroke-miterlimit="10" d="M315,941.9c0,18.5-15,33.3-33.3,33.3"/>
		</g>
		<g>
			<path fill="none" stroke="#FFFFFF" stroke-width="6" stroke-miterlimit="10" d="M-51.7,941.9c0,18.5,15,33.3,33.3,33.3"/>
			<path fill="none" stroke="#221F1F" stroke-width="2" stroke-miterlimit="10" d="M-51.7,941.9c0,18.5,15,33.3,33.3,33.3"/>
		</g>
	</g>
</g>
<text transform="matrix(1.0208 0 0 1 295.4766 360.4297)" fill="#231F20" font-family="'ApexNew-Book'" font-size="9.3709">commit</text>
<path display="none" fill="#58595B" d="M323.6,372.1h-23c-1.9,0-1.9,1.9-1.9,1.9v22.9c0,0,0,1.9,1.9,1.9c0,0,21,0,23,0
	c1.9,0,1.9-1.9,1.9-1.9v-23C325.6,373.9,325.6,372.1,323.6,372.1z M321.8,394c0,0.9-0.9,0.9-0.9,0.9h-17.3c0,0-0.9,0-0.9-0.9v-17.2
	c0-0.9,0.9-0.9,0.9-0.9h17.2c0,0,0.9,0,0.9,0.9C321.8,376.8,321.8,393.2,321.8,394z M312.2,381.6c-2.1,0-3.8,1.7-3.8,3.8
	s1.7,3.8,3.8,3.8s3.8-1.7,3.8-3.8S314.3,381.6,312.2,381.6z"/>
<path fill="#58595B" d="M310.4,378.8h-1.7v1.7h1.7V378.8z M310.4,375.4h-1.7v1.7h1.7V375.4z M320.4,372.1h-16.8c0,0-1.7,0-1.7,1.7
	v20.1c0,1.7,1.7,1.7,1.7,1.7h3.4v3.4l2.5-2.5l2.5,2.5v-3.5h8.4c0,0,1.7,0,1.7-1.7v-20.1C322.1,372.1,320.4,372.1,320.4,372.1z
	 M320.4,392.2c0,1.6-1.7,1.7-1.7,1.7H312v-1.7h-5v1.7h-1.7c-1.7,0-1.7-1.7-1.7-1.7v-1.7h16.8L320.4,392.2L320.4,392.2z M320.4,388.8
	H307v-15.1h13.4V388.8z M310.4,385.5h-1.7v1.7h1.7V385.5z M310.4,382.1h-1.7v1.7h1.7V382.1z"/>
<path id="border_12_" fill="#3F81C3" d="M466.3,287.2c4.4,0,8,3.6,8,8v24.1c0,4.4-3.6,8-8,8h-85.5c-4.4,0-8-3.6-8-8v-24.1
	c0-4.4,3.6-8,8-8H466.3 M466.3,283.9h-85.5c-6.3,0-11.4,5.1-11.4,11.4v24.1c0,6.3,5.1,11.4,11.4,11.4h85.6c6.3,0,11.4-5.1,11.4-11.4
	v-24.1C477.7,289.1,472.6,283.9,466.3,283.9L466.3,283.9z"/>
<g id="step-3-in-out" display="none">
	
		<text transform="matrix(1.0483 0 0 1 126.0273 969.0625)" display="inline" fill="#231F20" font-family="'ApexNew-Book'" font-size="9.3709">edit</text>
	<path display="inline" fill="#58595B" d="M141.9,980.8l-3.8,3.8l5.8,5.8l3.8-3.8L141.9,980.8z M120.8,1001.7v5.8h5.7l15.3-15.3
		l-5.8-5.8L120.8,1001.7z M126.5,1005.5h-3.8v-3.8h1.9v1.9h1.9V1005.5L126.5,1005.5z"/>
	<path id="border_7_" display="inline" fill="#3F81C3" d="M113,895.9c4.4,0,8,3.6,8,8V928c0,4.4-3.6,8-8,8H27.5c-4.4,0-8-3.6-8-8
		v-24.1c0-4.4,3.6-8,8-8H113 M113,892.6H27.5c-6.3,0-11.4,5.1-11.4,11.4v24c0,6.3,5.1,11.4,11.4,11.4H113c6.3,0,11.4-5.1,11.4-11.4
		v-24.1C124.4,897.7,119.3,892.6,113,892.6L113,892.6z"/>
	<g id="edit" display="inline">
		<g>
			<path fill="#221F1F" d="M104.5,974.7v1.3c0,0,2.1,0,6,0c6.1,0,39.4,0,44.6,0c2.9,0,4.4,0,4.4,0c0-0.5,0-0.9,0-1.3
				c0,0-1.5,0-4.4,0c-5.3,0-38.6,0-44.6,0C106.7,974.7,104.5,974.7,104.5,974.7z"/>
		</g>
		<g>
			<path fill="#221F1F" d="M191.8,933c0,0,0,3.8,0,6.7c0,1.7,0,2.9,0,2.9h2.7c0,0,0-1.3,0-2.9c0-2.8,0-6.7,0-6.7H191.8z"/>
			<path fill="#FFFFFF" d="M193.8,941.9c-0.5,0-0.9,0-1.3,0c0,0,0-1,0-2.3c0-2.5,0-6,0-6h1.3c0,0,0,3.6,0,6
				C193.8,940.9,193.8,941.9,193.8,941.9 M195.1,943.3V942c0,0,0-1,0-2.3c0-2.5,0-6,0-6v-1.3h-1.3h-1.3h-1.4v1.3c0,0,0,3.6,0,6
				c0,1.3,0,2.3,0,2.3v1.3h1.3h1.3H195.1L195.1,943.3z"/>
		</g>
		<g>
			<path fill="#221F1F" d="M70,930.6c0,0,0,5.6,0,9c0,1.6,0,2.8,0,2.8h2.3c0,0,0-1.2,0-2.8c0-3.5,0-9,0-9H70z"/>
			<path fill="#FFFFFF" d="M71.8,941.9c-0.5,0-0.9,0-1.3,0c0,0,0-0.9,0-2.3c0-3.2,0-8.6,0-8.6h1.3c0,0,0,5.4,0,8.6
				C71.8,941,71.8,941.9,71.8,941.9 M72.9,943v-1c0,0,0-0.9,0-2.3c0-3.2,0-8.6,0-8.6v-1h-1h-1.3h-1v1c0,0,0,5.4,0,8.6
				c0,1.3,0,2.3,0,2.3v1h1h1.3H72.9L72.9,943z"/>
		</g>
		<path fill="#221F1F" d="M193.1,926.1l-5.5,5.9c-0.3,0.3-0.3,0.7,0,0.9c0.3,0.3,0.7,0.3,0.9,0c0,0,0,0,0-0.1l0,0l3.8-4.1v7.3
			c0.5,0,0.9,0,1.3,0v-7.3l3.8,4.2c0.3,0.3,0.7,0.3,0.9,0c0.3-0.3,0.3-0.7,0-0.9l0,0L193.1,926.1z"/>
		<g>
			<path fill="none" stroke="#FFFFFF" stroke-width="6" stroke-miterlimit="10" d="M193.1,941.9c0,18.5-15,33.3-33.3,33.3"/>
			<path fill="none" stroke="#221F1F" stroke-width="2" stroke-miterlimit="10" d="M193.1,941.9c0,18.5-15,33.3-33.3,33.3"/>
		</g>
		<g>
			<path fill="none" stroke="#FFFFFF" stroke-width="6" stroke-miterlimit="10" d="M71.2,941.9c0,18.5,15,33.3,33.3,33.3"/>
			<path fill="none" stroke="#221F1F" stroke-width="2" stroke-miterlimit="10" d="M71.2,941.9c0,18.5,15,33.3,33.3,33.3"/>
		</g>
	</g>
</g>
<g id="step-4-in-out" display="none">
	
		<text transform="matrix(1.0483 0 0 1 249.4893 969.0625)" display="inline" fill="#231F20" font-family="'ApexNew-Book'" font-size="9.3709">add</text>
	<path display="inline" fill="#58595B" d="M259.8,988.3H256v3.8h-3.8v3.8h3.8v3.8h3.8v-3.8h3.8v-3.8h-3.8V988.3z M269.3,980.8h-23
		c-1.9,0-1.9,1.9-1.9,1.9v22.9c0,0,0,1.9,1.9,1.9c0,0,21,0,23,0s1.9-1.9,1.9-1.9v-23C271.2,982.6,271.2,980.8,269.3,980.8z
		 M267.4,1002.6c0,0.9-0.9,0.9-0.9,0.9h-17.2c0,0-0.9,0-0.9-0.9v-17.2c0-0.9,0.9-0.9,0.9-0.9h17.2c0,0,0.9,0,0.9,0.9
		C267.4,985.5,267.4,1001.8,267.4,1002.6z"/>
	<path id="border_2_" display="inline" fill="#3F81C3" d="M233.9,895.9c4.4,0,8,3.6,8,8V928c0,4.4-3.6,8-8,8h-85.5c-4.4,0-8-3.6-8-8
		v-24.1c0-4.4,3.6-8,8-8H233.9 M233.9,892.6h-85.5c-6.3,0-11.4,5.1-11.4,11.4v24c0,6.3,5.1,11.4,11.4,11.4h85.5
		c6.3,0,11.4-5.1,11.4-11.4v-24.1C245.4,897.7,240.1,892.6,233.9,892.6L233.9,892.6z"/>
	<g id="add_5_" display="inline">
		<g>
			<path fill="#221F1F" d="M226.6,974.7v1.3c0,0,2.1,0,6,0c6.1,0,39.2,0,44.5,0c2.9,0,4.4,0,4.4,0c0-0.5,0-0.9,0-1.3
				c0,0-1.5,0-4.4,0c-5.3,0-38.3,0-44.5,0C228.7,974.7,226.6,974.7,226.6,974.7z"/>
		</g>
		<g>
			<path fill="#221F1F" d="M313.6,933c0,0,0,3.8,0,6.7c0,1.7,0,2.9,0,2.9h2.7c0,0,0-1.3,0-2.9c0-2.8,0-6.7,0-6.7H313.6z"/>
			<path fill="#FFFFFF" d="M315.6,941.9c-0.5,0-0.9,0-1.3,0c0,0,0-1,0-2.3c0-2.5,0-6,0-6h1.3c0,0,0,3.6,0,6
				C315.6,940.9,315.6,941.9,315.6,941.9 M317.1,943.3V942c0,0,0-1,0-2.3c0-2.5,0-6,0-6v-1.3h-1.3h-1.3H313v1.3c0,0,0,3.6,0,6
				c0,1.3,0,2.3,0,2.3v1.3h1.3h1.3H317.1L317.1,943.3z"/>
		</g>
		<g>
			<path fill="#221F1F" d="M192.1,930.6c0,0,0,5.6,0,9c0,1.6,0,2.8,0,2.8h2.3c0,0,0-1.2,0-2.8c0-3.5,0-9,0-9H192.1z"/>
			<path fill="#FFFFFF" d="M193.9,941.9c-0.5,0-0.9,0-1.3,0c0,0,0-0.9,0-2.3c0-3.2,0-8.6,0-8.6h1.3c0,0,0,5.4,0,8.6
				C193.9,941,193.9,941.9,193.9,941.9 M194.9,943v-1c0,0,0-0.9,0-2.3c0-3.2,0-8.6,0-8.6v-1h-1h-1.3h-1v1c0,0,0,5.4,0,8.6
				c0,1.3,0,2.3,0,2.3v1h1h1.3H194.9L194.9,943z"/>
		</g>
		<path fill="#221F1F" d="M315,926.1l-5.5,5.9c-0.3,0.3-0.3,0.7,0,0.9c0.3,0.3,0.7,0.3,0.9,0c0,0,0,0,0-0.1l0,0l3.8-4.1v7.3
			c0.5,0,0.9,0,1.3,0v-7.3l3.8,4.2c0.3,0.3,0.7,0.3,0.9,0c0.3-0.3,0.3-0.7,0-0.9l0,0L315,926.1z"/>
		<g>
			<path fill="none" stroke="#FFFFFF" stroke-width="6" stroke-miterlimit="10" d="M315,941.9c0,18.5-15,33.3-33.3,33.3"/>
			<path fill="none" stroke="#221F1F" stroke-width="2" stroke-miterlimit="10" d="M315,941.9c0,18.5-15,33.3-33.3,33.3"/>
		</g>
		<g>
			<path fill="none" stroke="#FFFFFF" stroke-width="6" stroke-miterlimit="10" d="M193.2,941.9c0,18.5,15,33.3,33.3,33.3"/>
			<path fill="none" stroke="#221F1F" stroke-width="2" stroke-miterlimit="10" d="M193.2,941.9c0,18.5,15,33.3,33.3,33.3"/>
		</g>
	</g>
</g>
<g id="step-5" display="none">
	<path display="inline" fill="#58595B" d="M5.7,992.1v3.8h11.5v-3.8H5.7z M23,980.8H0c-1.9,0-1.9,1.9-1.9,1.9v22.9
		c0,0,0,1.9,1.9,1.9c0,0,21,0,23,0c1.9,0,1.9-1.9,1.9-1.9v-23C24.8,982.6,24.8,980.8,23,980.8z M21,1002.6c0,0.9-0.9,0.9-0.9,0.9
		H2.9c0,0-0.9,0-0.9-0.9v-17.2c0-0.9,0.9-0.9,0.9-0.9h17.2c0,0,0.9,0,0.9,0.9C21,985.5,21,1001.8,21,1002.6z"/>
	
		<text transform="matrix(1.0208 0 0 1 -3.959 969.0625)" display="inline" fill="#231F20" font-family="'ApexNew-Book'" font-size="9.3709">remove</text>
	<path id="border_4_" display="inline" fill="#3F81C3" d="M113,895.9c4.4,0,8,3.6,8,8V928c0,4.4-3.6,8-8,8H27.5c-4.4,0-8-3.6-8-8
		v-24.1c0-4.4,3.6-8,8-8H113 M113,892.6H27.5c-6.3,0-11.4,5.1-11.4,11.4v24c0,6.3,5.1,11.4,11.4,11.4H113c6.3,0,11.4-5.1,11.4-11.4
		v-24.1C124.4,897.7,119.3,892.6,113,892.6L113,892.6z"/>
	<g id="add_2_" display="inline">
		<g>
			<path fill="#221F1F" d="M37.4,974.7v1.3c0,0-2.1,0-6,0c-6.2,0-39.8,0-45.2,0c-2.9,0-4.4,0-4.4,0c0-0.5,0-0.9,0-1.3
				c0,0,1.5,0,4.4,0c5.4,0,39,0,45.2,0C35.3,974.7,37.4,974.7,37.4,974.7z"/>
		</g>
		<g>
			<path fill="#221F1F" d="M-50.3,933c0,0,0,3.8,0,6.7c0,1.7,0,2.9,0,2.9H-53c0,0,0-1.3,0-2.9c0-2.8,0-6.7,0-6.7H-50.3z"/>
			<path fill="#FFFFFF" d="M-52.3,941.9c0,0,0-1,0-2.3c0-2.5,0-6,0-6h1.3c0,0,0,3.6,0,6c0,1.3,0,2.3,0,2.3
				C-51.5,941.9-51.9,941.9-52.3,941.9 M-53.7,943.3h1.3h1.3h1.3V942c0,0,0-1,0-2.3c0-2.5,0-6,0-6v-1.3H-51h-1.3h-1.3v1.3
				c0,0,0,3.6,0,6c0,1.3,0,2.3,0,2.3v1.3H-53.7z"/>
		</g>
		<g>
			<path fill="#221F1F" d="M72.1,930.6c0,0,0,5.6,0,9c0,1.6,0,2.8,0,2.8h-2.3c0,0,0-1.2,0-2.8c0-3.5,0-9,0-9H72.1z"/>
			<path fill="#FFFFFF" d="M70.1,941.9c0,0,0-0.9,0-2.3c0-3.2,0-8.6,0-8.6h1.3c0,0,0,5.4,0,8.6c0,1.3,0,2.3,0,2.3
				C71,941.9,70.6,941.9,70.1,941.9 M69.1,943h1h1.3h1v-1c0,0,0-0.9,0-2.3c0-3.2,0-8.6,0-8.6v-1h-1h-1.3h-1v1c0,0,0,5.4,0,8.6
				c0,1.3,0,2.3,0,2.3V943L69.1,943z"/>
		</g>
		<path fill="#221F1F" d="M-51.7,926.1l5.5,5.9c0.3,0.3,0.3,0.7,0,0.9c-0.3,0.3-0.7,0.3-0.9,0c0,0,0,0,0-0.1l0,0l-3.8-4.1v7.3
			c-0.5,0-0.9,0-1.3,0v-7.3l-3.8,4.2c-0.3,0.3-0.7,0.3-0.9,0c-0.3-0.3-0.3-0.7,0-0.9l0,0L-51.7,926.1z"/>
		<g>
			<path fill="none" stroke="#FFFFFF" stroke-width="6" stroke-miterlimit="10" d="M-51.7,941.9c0,18.5,15,33.3,33.3,33.3"/>
			<path fill="none" stroke="#221F1F" stroke-width="2" stroke-miterlimit="10" d="M-51.7,941.9c0,18.5,15,33.3,33.3,33.3"/>
		</g>
		<g>
			<path fill="none" stroke="#FFFFFF" stroke-width="6" stroke-miterlimit="10" d="M70.9,941.9c0,18.5-15,33.3-33.3,33.3"/>
			<path fill="none" stroke="#221F1F" stroke-width="2" stroke-miterlimit="10" d="M70.9,941.9c0,18.5-15,33.3-33.3,33.3"/>
		</g>
	</g>
</g>
<g>
	<path fill="#221F1F" d="M179.9,317.5l5.5,5.9c0.3,0.3,0.3,0.7,0,0.9c-0.3,0.3-0.7,0.3-0.9,0c0,0,0,0,0-0.1l0,0l-3.8-4.1h-1.3
		l-3.8,4.2c-0.3,0.3-0.7,0.3-0.9,0c-0.3-0.3-0.3-0.7,0-0.9l0,0L179.9,317.5z"/>
	<path fill="none" stroke="#221F1F" stroke-width="1.55" stroke-miterlimit="10" d="M426.7,317.5v16c0,18.5-15,31.4-33.4,31.4H213.5
		c-18.4,0-33.4-12.9-33.4-31.4v-14"/>
</g>
</svg>
