<?xml version="1.0" encoding="utf-8"?>
<!-- Generator: Adobe Illustrator 17.1.0, SVG Export Plug-In . SVG Version: 6.00 Build 0)  -->
<!DOCTYPE svg PUBLIC "-//W3C//DTD SVG 1.1//EN" "http://www.w3.org/Graphics/SVG/1.1/DTD/svg11.dtd">
<svg version="1.1" id="Diff" xmlns="http://www.w3.org/2000/svg" xmlns:xlink="http://www.w3.org/1999/xlink" x="0px" y="0px"
	 viewBox="5.6 339.1 479.7 124.2" enable-background="new 5.6 339.1 479.7 124.2" xml:space="preserve">
<g id="base">
	<g id="untracked">
		<text transform="matrix(1 0 0 1 16.3151 376.2316)" fill="#221F1F" font-family="'HelveticaNeue-Light'" font-size="18.6858">untracked</text>
		<g id="border_28_">
			<path fill="#414141" d="M99.7,351.7c4.1,0,7.4,3.3,7.4,7.4v24.2c0,4.1-3.3,7.4-7.4,7.4h-86c-4.1,0-7.4-3.3-7.4-7.4v-24.2
				c0-4.1,3.3-7.4,7.4-7.4H99.7 M99.7,351h-86c-4.4,0-8.1,3.6-8.1,8.1v24.2c0,4.4,3.6,8.1,8.1,8.1h86c4.4,0,8.1-3.6,8.1-8.1V359
				C107.7,354.7,104.1,351,99.7,351L99.7,351z"/>
		</g>
	</g>
	<g id="unmodified">
		<g id="border_1_">
			<path fill="#414141" d="M223.4,351.7c4.1,0,7.4,3.3,7.4,7.4v24.2c0,4.1-3.3,7.4-7.4,7.4h-86c-4.1,0-7.4-3.3-7.4-7.4v-24.2
				c0-4.1,3.3-7.4,7.4-7.4H223.4 M223.4,351h-86c-4.4,0-8.1,3.6-8.1,8.1v24.2c0,4.4,3.6,8.1,8.1,8.1h86c4.4,0,8.1-3.6,8.1-8.1V359
				C231.4,354.7,227.8,351,223.4,351L223.4,351z"/>
		</g>
		<text transform="matrix(1 0 0 1 135.859 376.2316)" fill="#221F1F" font-family="'HelveticaNeue-Light'" font-size="18.6858">unmodified</text>
	</g>
	<g id="modified">
		<g id="border_25_">
			<path fill="#414141" d="M345,351.7c4.1,0,7.4,3.3,7.4,7.4v24.2c0,4.1-3.3,7.4-7.4,7.4h-86c-4.1,0-7.4-3.3-7.4-7.4v-24.2
				c0-4.1,3.3-7.4,7.4-7.4H345 M345,351h-86c-4.4,0-8.1,3.6-8.1,8.1v24.2c0,4.4,3.6,8.1,8.1,8.1h86c4.4,0,8.1-3.6,8.1-8.1V359
				C353.1,354.7,349.5,351,345,351L345,351z"/>
		</g>
		<text transform="matrix(1 0 0 1 267.5558 376.2316)" fill="#221F1F" font-family="'HelveticaNeue-Light'" font-size="18.6858">modified</text>
	</g>
	<g id="staged">
		<g id="border_22_">
			<path fill="#414141" d="M466.6,351.7c4.1,0,7.4,3.3,7.4,7.4v24.2c0,4.1-3.3,7.4-7.4,7.4h-86c-4.1,0-7.4-3.3-7.4-7.4v-24.2
				c0-4.1,3.3-7.4,7.4-7.4H466.6 M466.6,351h-86c-4.4,0-8.1,3.6-8.1,8.1v24.2c0,4.4,3.6,8.1,8.1,8.1h86.1c4.4,0,8.1-3.6,8.1-8.1V359
				C474.8,354.7,471.1,351,466.6,351L466.6,351z"/>
		</g>
		<text transform="matrix(1 0 0 1 396.1309 376.2316)" fill="#221F1F" font-family="'HelveticaNeue-Light'" font-size="18.6858">staged</text>
	</g>
	<g id="border_tracked" opacity="0.3">
		<path fill="#414141" d="M469.8,339.8c8.1,0,14.8,6.7,14.8,14.8v35.2c0,8.1-6.7,14.8-14.8,14.8H134.4c-8.1,0-14.8-6.7-14.8-14.8
			v-35.2c0-8.1,6.7-14.8,14.8-14.8H469.8 M469.8,339.1H134.4c-8.4,0-15.5,7-15.5,15.5v35.2c0,8.5,7,15.5,15.5,15.5h335.4
			c8.5,0,15.5-7,15.5-15.5v-35.2C485.3,346.2,478.4,339.1,469.8,339.1L469.8,339.1z"/>
	</g>
</g>
<g id="step-1-in-out" display="none">
	
		<text transform="matrix(1.0483 0 0 1 124.5156 956.6426)" display="inline" fill="#231F20" font-family="'ApexNew-Book'" font-size="9.4277">add</text>
	<path display="inline" fill="#58595B" d="M134.8,976H131v3.8h-3.8v3.8h3.8v3.8h3.8v-3.8h3.8v-3.8h-3.8V976z M144.5,968.4h-23.1
		c-1.9,0-1.9,1.9-1.9,1.9v23c0,0,0,1.9,1.9,1.9c0,0,21.1,0,23.1,0c1.9,0,1.9-1.9,1.9-1.9v-23.1C146.4,970.2,146.4,968.4,144.5,968.4
		z M142.6,990.4c0,0.9-0.9,0.9-0.9,0.9h-17.4c0,0-0.9,0-0.9-0.9v-17.3c0-0.9,0.9-0.9,0.9-0.9h17.3c0,0,0.9,0,0.9,0.9
		C142.6,973.1,142.6,989.6,142.6,990.4z"/>
	<path id="border_23_" display="inline" fill="#3F81C3" d="M-11.9,883c4.4,0,8.1,3.6,8.1,8.1v24.2c0,4.4-3.6,8.1-8.1,8.1h-86
		c-4.4,0-8.1-3.6-8.1-8.1V891c0-4.4,3.6-8.1,8.1-8.1L-11.9,883 M-11.9,879.7h-86c-6.4,0-11.4,5.1-11.4,11.4v24.2
		c0,6.4,5.1,11.4,11.4,11.4h86c6.4,0,11.4-5.1,11.4-11.4v-24.2C-0.5,884.9-5.6,879.7-11.9,879.7L-11.9,879.7z"/>
	<g id="add" display="inline">
		<g>
			<path fill="#221F1F" d="M-20.3,962.4v1.3c0,0,2.1,0,6.1,0c39.7,0,256.5,0,291,0c2.9,0,4.4,0,4.4,0c0-0.5,0-0.9,0-1.3
				c0,0-1.5,0-4.4,0c-34.4,0-251.2,0-291,0C-18.2,962.4-20.3,962.4-20.3,962.4z"/>
		</g>
		<g>
			<path fill="#221F1F" d="M313.5,920.3c0,0,0,3.8,0,6.7c0,1.7,0,2.9,0,2.9h2.7c0,0,0-1.3,0-2.9c0-2.8,0-6.7,0-6.7H313.5z"/>
			<path fill="#FFFFFF" d="M315.5,929.3c-0.5,0-0.9,0-1.3,0c0,0,0-1,0-2.3c0-2.5,0-6.1,0-6.1h1.3c0,0,0,3.6,0,6.1
				C315.5,928.3,315.5,929.3,315.5,929.3 M316.9,930.7v-1.3c0,0,0-1,0-2.3c0-2.5,0-6.1,0-6.1v-1.3h-1.3h-1.3h-1.4v1.3
				c0,0,0,3.6,0,6.1c0,1.3,0,2.3,0,2.3v1.3h1.3h1.3H316.9L316.9,930.7z"/>
		</g>
		<g>
			<path fill="#221F1F" d="M-55,917.9c0,0,0,5.6,0,9c0,1.6,0,2.8,0,2.8h2.3c0,0,0-1.2,0-2.8c0-3.5,0-9,0-9H-55z"/>
			<path fill="#FFFFFF" d="M-53.3,929.3c-0.5,0-0.9,0-1.3,0c0,0,0-0.9,0-2.3c0-3.2,0-8.7,0-8.7h1.3c0,0,0,5.4,0,8.7
				C-53.3,928.4-53.3,929.3-53.3,929.3 M-52.3,930.4v-1c0,0,0-0.9,0-2.3c0-3.2,0-8.7,0-8.7v-1h-1h-1.3h-1v1c0,0,0,5.4,0,8.7
				c0,1.3,0,2.3,0,2.3v1h1h1.3H-52.3L-52.3,930.4z"/>
		</g>
		<path fill="#221F1F" d="M314.9,913.4l-5.5,5.9c-0.3,0.3-0.3,0.7,0,0.9c0.3,0.3,0.7,0.3,0.9,0c0,0,0,0,0-0.1l0,0l3.8-4.1v7.3
			c0.5,0,0.9,0,1.3,0V916l3.8,4.2c0.3,0.3,0.7,0.3,0.9,0c0.3-0.3,0.3-0.7,0-0.9l0,0L314.9,913.4z"/>
		<g>
			<path fill="none" stroke="#FFFFFF" stroke-width="6" stroke-miterlimit="10" d="M314.9,929.3c0,18.6-15.1,33.5-33.5,33.5"/>
			<path fill="none" stroke="#221F1F" stroke-width="2" stroke-miterlimit="10" d="M314.9,929.3c0,18.6-15.1,33.5-33.5,33.5"/>
		</g>
		<g>
			<path fill="none" stroke="#FFFFFF" stroke-width="6" stroke-miterlimit="10" d="M-54,929.3c0,18.6,15.1,33.5,33.5,33.5"/>
			<path fill="none" stroke="#221F1F" stroke-width="2" stroke-miterlimit="10" d="M-54,929.3c0,18.6,15.1,33.5,33.5,33.5"/>
		</g>
	</g>
</g>
<g id="step-2-in-out" display="none">
	
		<text transform="matrix(1.0208 0 0 1 183.1558 956.6426)" display="inline" fill="#231F20" font-family="'ApexNew-Book'" font-size="9.4277">commit</text>
	<path display="inline" fill="#58595B" d="M211.4,968.4h-23.1c-1.9,0-1.9,1.9-1.9,1.9v23c0,0,0,1.9,1.9,1.9c0,0,21.1,0,23.1,0
		c1.9,0,1.9-1.9,1.9-1.9v-23.1C213.4,970.2,213.4,968.4,211.4,968.4z M209.6,990.4c0,0.9-0.9,0.9-0.9,0.9h-17.4c0,0-0.9,0-0.9-0.9
		v-17.3c0-0.9,0.9-0.9,0.9-0.9h17.3c0,0,0.9,0,0.9,0.9C209.6,973.1,209.6,989.6,209.6,990.4z M200,977.9c-2.1,0-3.8,1.7-3.8,3.8
		s1.7,3.8,3.8,3.8s3.8-1.7,3.8-3.8C203.8,979.6,202.1,977.9,200,977.9z"/>
	<path display="inline" fill="#58595B" d="M198.2,975.1h-1.7v1.7h1.7V975.1z M198.2,971.7h-1.7v1.7h1.7V971.7z M208.2,968.4h-16.9
		c0,0-1.7,0-1.7,1.7v20.2c0,1.7,1.7,1.7,1.7,1.7h3.4v3.4l2.5-2.5l2.5,2.5v-3.5h8.4c0,0,1.7,0,1.7-1.7V970
		C209.9,968.4,208.2,968.4,208.2,968.4z M208.2,988.6c0,1.6-1.7,1.7-1.7,1.7h-6.7v-1.7h-5v1.7h-1.7c-1.7,0-1.7-1.7-1.7-1.7v-1.7
		h16.9L208.2,988.6L208.2,988.6z M208.2,985.2h-13.4V970h13.4V985.2z M198.2,981.8h-1.7v1.7h1.7V981.8z M198.2,978.5h-1.7v1.7h1.7
		V978.5z"/>
	<path id="border_12_" display="inline" fill="#3F81C3" d="M355,883c4.4,0,8.1,3.6,8.1,8.1v24.2c0,4.4-3.6,8.1-8.1,8.1h-86
		c-4.4,0-8.1-3.6-8.1-8.1V891c0-4.4,3.6-8.1,8.1-8.1L355,883 M355,879.7h-86c-6.4,0-11.4,5.1-11.4,11.4v24.2
		c0,6.4,5.1,11.4,11.4,11.4h86.1c6.4,0,11.4-5.1,11.4-11.4v-24.2C366.4,884.9,361.4,879.7,355,879.7L355,879.7z"/>
	<g id="add_3_" display="inline">
		<g>
			<path fill="#221F1F" d="M281.3,962.4v1.3c0,0-2.1,0-6.1,0c-23,0-147.9,0-167.9,0c-2.9,0-4.4,0-4.4,0c0-0.5,0-0.9,0-1.3
				c0,0,1.5,0,4.4,0c19.9,0,144.9,0,167.9,0C279.2,962.4,281.3,962.4,281.3,962.4z"/>
		</g>
		<g>
			<path fill="#221F1F" d="M70.7,920.3c0,0,0,3.8,0,6.7c0,1.7,0,2.9,0,2.9H68c0,0,0-1.3,0-2.9c0-2.8,0-6.7,0-6.7H70.7z"/>
			<path fill="#FFFFFF" d="M68.7,929.3c0,0,0-1,0-2.3c0-2.5,0-6.1,0-6.1H70c0,0,0,3.6,0,6.1c0,1.3,0,2.3,0,2.3
				C69.5,929.3,69.1,929.3,68.7,929.3 M67.3,930.7h1.3H70h1.3v-1.3c0,0,0-1,0-2.3c0-2.5,0-6.1,0-6.1v-1.3H70h-1.2h-1.3v1.3
				c0,0,0,3.6,0,6.1c0,1.3,0,2.3,0,2.3L67.3,930.7L67.3,930.7z"/>
		</g>
		<g>
			<path fill="#221F1F" d="M316.1,917.9c0,0,0,5.6,0,9c0,1.6,0,2.8,0,2.8h-2.4c0,0,0-1.2,0-2.8c0-3.5,0-9,0-9H316.1z"/>
			<path fill="#FFFFFF" d="M314.3,929.3c0,0,0-0.9,0-2.3c0-3.2,0-8.7,0-8.7h1.3c0,0,0,5.4,0,8.7c0,1.3,0,2.3,0,2.3
				C315.1,929.3,314.7,929.3,314.3,929.3 M313.3,930.4h1h1.3h1v-1c0,0,0-0.9,0-2.3c0-3.2,0-8.7,0-8.7v-1h-1.1h-1.3h-1v1
				c0,0,0,5.4,0,8.7c0,1.3,0,2.3,0,2.3L313.3,930.4L313.3,930.4z"/>
		</g>
		<path fill="#221F1F" d="M69.4,913.4l5.5,5.9c0.3,0.3,0.3,0.7,0,0.9c-0.3,0.3-0.7,0.3-0.9,0c0,0,0,0,0-0.1l0,0l-3.8-4.1v7.3
			c-0.5,0-0.9,0-1.3,0V916l-3.8,4.2c-0.3,0.3-0.7,0.3-0.9,0c-0.2-0.3-0.3-0.7,0-0.9l0,0L69.4,913.4z"/>
		<g>
			<path fill="none" stroke="#FFFFFF" stroke-width="6" stroke-miterlimit="10" d="M69.4,929.3c0,18.6,15.1,33.5,33.5,33.5"/>
			<path fill="none" stroke="#221F1F" stroke-width="2" stroke-miterlimit="10" d="M69.4,929.3c0,18.6,15.1,33.5,33.5,33.5"/>
		</g>
		<g>
			<path fill="none" stroke="#FFFFFF" stroke-width="6" stroke-miterlimit="10" d="M314.9,929.3c0,18.6-15.1,33.5-33.5,33.5"/>
			<path fill="none" stroke="#221F1F" stroke-width="2" stroke-miterlimit="10" d="M314.9,929.3c0,18.6-15.1,33.5-33.5,33.5"/>
		</g>
	</g>
</g>
<text transform="matrix(1.0483 0 0 1 236.4751 424.6426)" fill="#231F20" font-family="'ApexNew-Book'" font-size="9.4277">edit</text>
<path fill="#58595B" d="M252.4,436.4l-3.8,3.8l5.8,5.8l3.8-3.8L252.4,436.4z M231.2,457.5v5.8h5.8l15.4-15.4l-5.8-5.8L231.2,457.5z
	 M236.9,461.3h-3.8v-3.8h1.9v1.9h1.9L236.9,461.3L236.9,461.3z"/>
<path id="border_7_" fill="#3F81C3" d="M223.4,351c4.4,0,8.1,3.6,8.1,8.1v24.2c0,4.4-3.6,8.1-8.1,8.1h-86c-4.4,0-8.1-3.6-8.1-8.1
	V359c0-4.4,3.6-8.1,8.1-8.1h86 M223.4,347.7h-86c-6.4,0-11.4,5.1-11.4,11.4v24.2c0,6.4,5.1,11.4,11.4,11.4h86
	c6.4,0,11.4-5.1,11.4-11.4v-24.2C234.8,352.9,229.7,347.7,223.4,347.7L223.4,347.7z"/>
<g id="step-4-in-out" display="none">
	
		<text transform="matrix(1.0483 0 0 1 249.0571 956.6426)" display="inline" fill="#231F20" font-family="'ApexNew-Book'" font-size="9.4277">add</text>
	<path display="inline" fill="#58595B" d="M259.4,976h-3.8v3.8h-3.8v3.8h3.8v3.8h3.8v-3.8h3.8v-3.8h-3.8V976z M269,968.4h-23.1
		c-1.9,0-1.9,1.9-1.9,1.9v23c0,0,0,1.9,1.9,1.9c0,0,21.1,0,23.1,0s1.9-1.9,1.9-1.9v-23.1C270.9,970.2,270.9,968.4,269,968.4z
		 M267.1,990.4c0,0.9-0.9,0.9-0.9,0.9h-17.3c0,0-0.9,0-0.9-0.9v-17.3c0-0.9,0.9-0.9,0.9-0.9h17.3c0,0,0.9,0,0.9,0.9
		C267.1,973.1,267.1,989.6,267.1,990.4z"/>
	<path id="border_2_" display="inline" fill="#3F81C3" d="M233.4,883c4.4,0,8.1,3.6,8.1,8.1v24.2c0,4.4-3.6,8.1-8.1,8.1h-86
		c-4.4,0-8.1-3.6-8.1-8.1V891c0-4.4,3.6-8.1,8.1-8.1L233.4,883 M233.4,879.7h-86c-6.4,0-11.4,5.1-11.4,11.4v24.2
		c0,6.4,5.1,11.4,11.4,11.4h86c6.4,0,11.4-5.1,11.4-11.4v-24.2C244.9,884.9,239.6,879.7,233.4,879.7L233.4,879.7z"/>
	<g id="add_5_" display="inline">
		<g>
			<path fill="#221F1F" d="M226.1,962.4v1.3c0,0,2.1,0,6.1,0c6.1,0,39.4,0,44.7,0c2.9,0,4.4,0,4.4,0c0-0.5,0-0.9,0-1.3
				c0,0-1.5,0-4.4,0c-5.3,0-38.6,0-44.7,0C228.2,962.4,226.1,962.4,226.1,962.4z"/>
		</g>
		<g>
			<path fill="#221F1F" d="M313.6,920.3c0,0,0,3.8,0,6.7c0,1.7,0,2.9,0,2.9h2.7c0,0,0-1.3,0-2.9c0-2.8,0-6.7,0-6.7H313.6z"/>
			<path fill="#FFFFFF" d="M315.6,929.3c-0.5,0-0.9,0-1.3,0c0,0,0-1,0-2.3c0-2.5,0-6.1,0-6.1h1.3c0,0,0,3.6,0,6.1
				C315.6,928.3,315.6,929.3,315.6,929.3 M317.1,930.7v-1.3c0,0,0-1,0-2.3c0-2.5,0-6.1,0-6.1v-1.3h-1.3h-1.3H313v1.3
				c0,0,0,3.6,0,6.1c0,1.3,0,2.3,0,2.3v1.3h1.3h1.3H317.1L317.1,930.7z"/>
		</g>
		<g>
			<path fill="#221F1F" d="M191.3,917.9c0,0,0,5.6,0,9c0,1.6,0,2.8,0,2.8h2.3c0,0,0-1.2,0-2.8c0-3.5,0-9,0-9H191.3z"/>
			<path fill="#FFFFFF" d="M193.1,929.3c-0.5,0-0.9,0-1.3,0c0,0,0-0.9,0-2.3c0-3.2,0-8.7,0-8.7h1.3c0,0,0,5.4,0,8.7
				C193.1,928.4,193.1,929.3,193.1,929.3 M194.1,930.4v-1c0,0,0-0.9,0-2.3c0-3.2,0-8.7,0-8.7v-1h-1h-1.3h-1v1c0,0,0,5.4,0,8.7
				c0,1.3,0,2.3,0,2.3v1h1h1.3H194.1L194.1,930.4z"/>
		</g>
		<path fill="#221F1F" d="M314.9,913.4l-5.5,5.9c-0.3,0.3-0.3,0.7,0,0.9c0.3,0.3,0.7,0.3,0.9,0c0,0,0,0,0-0.1l0,0l3.8-4.1v7.3
			c0.5,0,0.9,0,1.3,0V916l3.8,4.2c0.3,0.3,0.7,0.3,0.9,0c0.3-0.3,0.3-0.7,0-0.9l0,0L314.9,913.4z"/>
		<g>
			<path fill="none" stroke="#FFFFFF" stroke-width="6" stroke-miterlimit="10" d="M314.9,929.3c0,18.6-15.1,33.5-33.5,33.5"/>
			<path fill="none" stroke="#221F1F" stroke-width="2" stroke-miterlimit="10" d="M314.9,929.3c0,18.6-15.1,33.5-33.5,33.5"/>
		</g>
		<g>
			<path fill="none" stroke="#FFFFFF" stroke-width="6" stroke-miterlimit="10" d="M192.4,929.3c0,18.6,15.1,33.5,33.5,33.5"/>
			<path fill="none" stroke="#221F1F" stroke-width="2" stroke-miterlimit="10" d="M192.4,929.3c0,18.6,15.1,33.5,33.5,33.5"/>
		</g>
	</g>
</g>
<g id="step-5" display="none">
	<path display="inline" fill="#58595B" d="M3.8,979.8v3.8h11.6v-3.8H3.8z M21.2,968.4H-1.9c-1.9,0-1.9,1.9-1.9,1.9v23
		c0,0,0,1.9,1.9,1.9c0,0,21.1,0,23.1,0c1.9,0,1.9-1.9,1.9-1.9v-23.1C23,970.2,23,968.4,21.2,968.4z M19.2,990.4
		c0,0.9-0.9,0.9-0.9,0.9H1c0,0-0.9,0-0.9-0.9v-17.3c0-0.9,0.9-0.9,0.9-0.9h17.3c0,0,0.9,0,0.9,0.9C19.2,973.1,19.2,989.6,19.2,990.4
		z"/>
	
		<text transform="matrix(1.0208 0 0 1 -5.9248 956.6426)" display="inline" fill="#231F20" font-family="'ApexNew-Book'" font-size="9.4277">remove</text>
	<path id="border_4_" display="inline" fill="#3F81C3" d="M111.7,883c4.4,0,8.1,3.6,8.1,8.1v24.2c0,4.4-3.6,8.1-8.1,8.1h-86
		c-4.4,0-8.1-3.6-8.1-8.1V891c0-4.4,3.6-8.1,8.1-8.1L111.7,883 M111.7,879.7h-86c-6.4,0-11.4,5.1-11.4,11.4v24.2
		c0,6.4,5.1,11.4,11.4,11.4h86c6.4,0,11.4-5.1,11.4-11.4v-24.2C123.2,884.9,118.1,879.7,111.7,879.7L111.7,879.7z"/>
	<g id="add_2_" display="inline">
		<g>
			<path fill="#221F1F" d="M35.7,962.4v1.3c0,0-2.1,0-6.1,0c-6.2,0-40.1,0-45.5,0c-2.9,0-4.4,0-4.4,0c0-0.5,0-0.9,0-1.3
				c0,0,1.5,0,4.4,0c5.4,0,39.3,0,45.5,0C33.6,962.4,35.7,962.4,35.7,962.4z"/>
		</g>
		<g>
			<path fill="#221F1F" d="M-52.6,920.3c0,0,0,3.8,0,6.7c0,1.7,0,2.9,0,2.9h-2.7c0,0,0-1.3,0-2.9c0-2.8,0-6.7,0-6.7H-52.6z"/>
			<path fill="#FFFFFF" d="M-54.6,929.3c0,0,0-1,0-2.3c0-2.5,0-6.1,0-6.1h1.3c0,0,0,3.6,0,6.1c0,1.3,0,2.3,0,2.3
				C-53.8,929.3-54.2,929.3-54.6,929.3 M-56,930.7h1.3h1.3h1.3v-1.3c0,0,0-1,0-2.3c0-2.5,0-6.1,0-6.1v-1.3h-1.3h-1.3H-56v1.3
				c0,0,0,3.6,0,6.1c0,1.3,0,2.3,0,2.3V930.7L-56,930.7z"/>
		</g>
		<g>
			<path fill="#221F1F" d="M70.6,917.9c0,0,0,5.6,0,9c0,1.6,0,2.8,0,2.8h-2.3c0,0,0-1.2,0-2.8c0-3.5,0-9,0-9H70.6z"/>
			<path fill="#FFFFFF" d="M68.6,929.3c0,0,0-0.9,0-2.3c0-3.2,0-8.7,0-8.7H70c0,0,0,5.4,0,8.7c0,1.3,0,2.3,0,2.3
				C69.5,929.3,69.1,929.3,68.6,929.3 M67.6,930.4h1H70h1v-1c0,0,0-0.9,0-2.3c0-3.2,0-8.7,0-8.7v-1h-1h-1.3h-1v1c0,0,0,5.4,0,8.7
				c0,1.3,0,2.3,0,2.3L67.6,930.4L67.6,930.4z"/>
		</g>
		<path fill="#221F1F" d="M-54,913.4l5.5,5.9c0.3,0.3,0.3,0.7,0,0.9c-0.3,0.3-0.7,0.3-0.9,0c0,0,0,0,0-0.1l0,0l-3.8-4.1v7.3
			c-0.5,0-0.9,0-1.3,0V916l-3.8,4.2c-0.3,0.3-0.7,0.3-0.9,0c-0.3-0.3-0.3-0.7,0-0.9l0,0L-54,913.4z"/>
		<g>
			<path fill="none" stroke="#FFFFFF" stroke-width="6" stroke-miterlimit="10" d="M-54,929.3c0,18.6,15.1,33.5,33.5,33.5"/>
			<path fill="none" stroke="#221F1F" stroke-width="2" stroke-miterlimit="10" d="M-54,929.3c0,18.6,15.1,33.5,33.5,33.5"/>
		</g>
		<g>
			<path fill="none" stroke="#FFFFFF" stroke-width="6" stroke-miterlimit="10" d="M69.4,929.3c0,18.6-15.1,33.5-33.5,33.5"/>
			<path fill="none" stroke="#221F1F" stroke-width="2" stroke-miterlimit="10" d="M69.4,929.3c0,18.6-15.1,33.5-33.5,33.5"/>
		</g>
	</g>
</g>
<g>
	<path fill="#221F1F" d="M310.6,388.5L310.6,388.5c0.3,0.2,0.3,0.6,0,0.9c-0.2,0.3-0.6,0.3-0.9,0l-3.8-4.2h-1.3l-3.8,4.1l0,0
		c0,0.1,0,0.1,0,0.1c-0.2,0.3-0.6,0.3-0.9,0c-0.3-0.2-0.3-0.6,0-0.9l5.5-5.9L310.6,388.5z"/>
	<path fill="none" stroke="#221F1F" stroke-width="1.55" stroke-miterlimit="10" d="M305.3,384.6v14c0,18.5-15,31.4-33.4,31.4H212
		c-18.4,0-33.4-12.9-33.4-31.4v-16"/>
</g>
</svg>
