<?xml version="1.0" encoding="utf-8"?>
<!-- Generator: Adobe Illustrator 17.1.0, SVG Export Plug-In . SVG Version: 6.00 Build 0)  -->
<!DOCTYPE svg PUBLIC "-//W3C//DTD SVG 1.1//EN" "http://www.w3.org/Graphics/SVG/1.1/DTD/svg11.dtd">
<svg version="1.1" id="Diff" xmlns="http://www.w3.org/2000/svg" xmlns:xlink="http://www.w3.org/1999/xlink" x="0px" y="0px"
	 viewBox="0 180 500 140" enable-background="new 0 180 500 140" xml:space="preserve">
<g id="base">
	<g id="untracked">
		<text transform="matrix(1 0 0 1 22.7549 225.7354)" fill="#221F1F" font-family="'HelveticaNeue-Light'" font-size="18.5954">untracked</text>
		<g id="border_28_">
			<path fill="#414141" d="M105.7,201.3c4.1,0,7.4,3.3,7.4,7.4v24.1c0,4.1-3.3,7.4-7.4,7.4H20.1c-4.1,0-7.4-3.3-7.4-7.4v-24.1
				c0-4.1,3.3-7.4,7.4-7.4H105.7 M105.7,200.6H20.1c-4.4,0-8,3.6-8,8v24.1c0,4.4,3.6,8,8,8h85.6c4.4,0,8-3.6,8-8v-24.1
				C113.7,204.3,110.1,200.6,105.7,200.6L105.7,200.6z"/>
		</g>
	</g>
	<g id="unmodified">
		<g id="border_1_">
			<path fill="#414141" d="M228.8,201.3c4.1,0,7.4,3.3,7.4,7.4v24.1c0,4.1-3.3,7.4-7.4,7.4h-85.6c-4.1,0-7.4-3.3-7.4-7.4v-24.1
				c0-4.1,3.3-7.4,7.4-7.4H228.8 M228.8,200.6h-85.6c-4.4,0-8,3.6-8,8v24.1c0,4.4,3.6,8,8,8h85.6c4.4,0,8-3.6,8-8v-24.1
				C236.8,204.3,233.2,200.6,228.8,200.6L228.8,200.6z"/>
		</g>
		<text transform="matrix(1 0 0 1 141.7208 225.7354)" fill="#221F1F" font-family="'HelveticaNeue-Light'" font-size="18.5954">unmodified</text>
	</g>
	<g id="modified">
		<g id="border_25_">
			<path fill="#414141" d="M349.9,201.3c4.1,0,7.4,3.3,7.4,7.4v24.1c0,4.1-3.3,7.4-7.4,7.4h-85.6c-4.1,0-7.4-3.3-7.4-7.4v-24.1
				c0-4.1,3.3-7.4,7.4-7.4H349.9 M349.9,200.6h-85.6c-4.4,0-8,3.6-8,8v24.1c0,4.4,3.6,8,8,8h85.6c4.4,0,8-3.6,8-8v-24.1
				C357.9,204.3,354.3,200.6,349.9,200.6L349.9,200.6z"/>
		</g>
		<text transform="matrix(1 0 0 1 272.7811 225.7354)" fill="#221F1F" font-family="'HelveticaNeue-Light'" font-size="18.5954">modified</text>
	</g>
	<g id="staged">
		<g id="border_22_">
			<path fill="#414141" d="M470.9,201.3c4.1,0,7.4,3.3,7.4,7.4v24.1c0,4.1-3.3,7.4-7.4,7.4h-85.6c-4.1,0-7.4-3.3-7.4-7.4v-24.1
				c0-4.1,3.3-7.4,7.4-7.4H470.9 M470.9,200.6h-85.6c-4.4,0-8,3.6-8,8v24.1c0,4.4,3.6,8,8,8H471c4.4,0,8-3.6,8-8v-24.1
				C479,204.3,475.3,200.6,470.9,200.6L470.9,200.6z"/>
		</g>
		<text transform="matrix(1 0 0 1 400.7342 225.7354)" fill="#221F1F" font-family="'HelveticaNeue-Light'" font-size="18.5954">staged</text>
	</g>
	<g id="border_tracked" opacity="0.3">
		<path fill="#414141" d="M474.1,189.5c8.1,0,14.7,6.6,14.7,14.7v35c0,8.1-6.6,14.7-14.7,14.7H140.3c-8.1,0-14.7-6.6-14.7-14.7v-35
			c0-8.1,6.6-14.7,14.7-14.7H474.1 M474.1,188.8H140.3c-8.4,0-15.4,7-15.4,15.4v35c0,8.5,7,15.4,15.4,15.4h333.7
			c8.5,0,15.4-6.9,15.4-15.4v-35C489.5,195.8,482.6,188.8,474.1,188.8L474.1,188.8z"/>
	</g>
</g>
<g id="step-1-in-out">
	<text transform="matrix(1.0483 0 0 1 241.5196 273.9121)" fill="#231F20" font-family="'ApexNew-Book'" font-size="9.3821">add</text>
	<path fill="#58595B" d="M251.8,293.2H248v3.8h-3.8v3.8h3.8v3.8h3.8v-3.8h3.8V297h-3.8V293.2z M261.4,285.6h-23
		c-1.9,0-1.9,1.9-1.9,1.9v22.9c0,0,0,1.9,1.9,1.9c0,0,21,0,23,0c1.9,0,1.9-1.9,1.9-1.9v-23C263.3,287.4,263.3,285.6,261.4,285.6z
		 M259.5,307.5c0,0.9-0.9,0.9-0.9,0.9h-17.3c0,0-0.9,0-0.9-0.9v-17.2c0-0.9,0.9-0.9,0.9-0.9h17.2c0,0,0.9,0,0.9,0.9
		C259.5,290.3,259.5,306.7,259.5,307.5z"/>
	<path id="border_23_" fill="#3F81C3" d="M105.7,200.6c4.4,0,8,3.6,8,8v24.1c0,4.4-3.6,8-8,8H20.1c-4.4,0-8-3.6-8-8v-24.1
		c0-4.4,3.6-8,8-8H105.7 M105.7,197.3H20.1c-6.3,0-11.4,5.1-11.4,11.4v24.1c0,6.3,5.1,11.4,11.4,11.4h85.6c6.3,0,11.4-5.1,11.4-11.4
		v-24.1C117.1,202.5,112,197.3,105.7,197.3L105.7,197.3z"/>
	<g id="add">
		<g>
			<path fill="#221F1F" d="M97.4,279.6v1.3c0,0,2.1,0,6,0c39.5,0,255.3,0,289.6,0c2.9,0,4.4,0,4.4,0c0-0.5,0-0.9,0-1.3
				c0,0-1.5,0-4.4,0c-34.3,0-250,0-289.6,0C99.5,279.6,97.4,279.6,97.4,279.6z"/>
		</g>
		<g>
			<path fill="#221F1F" d="M429.6,237.8c0,0,0,3.8,0,6.7c0,1.7,0,2.9,0,2.9h2.7c0,0,0-1.3,0-2.9c0-2.8,0-6.7,0-6.7H429.6z"/>
			<path fill="#FFFFFF" d="M431.6,246.7c-0.5,0-0.9,0-1.3,0c0,0,0-1,0-2.3c0-2.5,0-6,0-6h1.3c0,0,0,3.6,0,6
				C431.6,245.7,431.6,246.7,431.6,246.7 M433,248.1v-1.3c0,0,0-1,0-2.3c0-2.5,0-6,0-6v-1.3h-1.3h-1.3H429v1.3c0,0,0,3.6,0,6
				c0,1.3,0,2.3,0,2.3v1.3h1.3h1.3H433L433,248.1z"/>
		</g>
		<g>
			<path fill="#221F1F" d="M62.8,235.4c0,0,0,5.6,0,9c0,1.6,0,2.8,0,2.8h2.3c0,0,0-1.2,0-2.8c0-3.5,0-9,0-9H62.8z"/>
			<path fill="#FFFFFF" d="M64.6,246.7c-0.5,0-0.9,0-1.3,0c0,0,0-0.9,0-2.3c0-3.2,0-8.6,0-8.6h1.3c0,0,0,5.4,0,8.6
				C64.6,245.8,64.6,246.7,64.6,246.7 M65.6,247.8v-1c0,0,0-0.9,0-2.3c0-3.2,0-8.6,0-8.6v-1h-1h-1.3h-1v1c0,0,0,5.4,0,8.6
				c0,1.3,0,2.3,0,2.3v1h1h1.3H65.6L65.6,247.8z"/>
		</g>
		<path fill="#221F1F" d="M431,230.9l-5.5,5.9c-0.3,0.3-0.3,0.7,0,0.9c0.3,0.3,0.7,0.3,0.9,0c0,0,0,0,0-0.1l0,0l3.8-4.1v7.3
			c0.5,0,0.9,0,1.3,0v-7.3l3.8,4.2c0.3,0.3,0.7,0.3,0.9,0c0.3-0.3,0.3-0.7,0-0.9l0,0L431,230.9z"/>
		<g>
			<path fill="none" stroke="#FFFFFF" stroke-width="6" stroke-miterlimit="10" d="M431,246.7c0,18.5-15,33.4-33.4,33.4"/>
			<path fill="none" stroke="#221F1F" stroke-width="2" stroke-miterlimit="10" d="M431,246.7c0,18.5-15,33.4-33.4,33.4"/>
		</g>
		<g>
			<path fill="none" stroke="#FFFFFF" stroke-width="6" stroke-miterlimit="10" d="M63.9,246.7c0,18.5,15,33.4,33.4,33.4"/>
			<path fill="none" stroke="#221F1F" stroke-width="2" stroke-miterlimit="10" d="M63.9,246.7c0,18.5,15,33.4,33.4,33.4"/>
		</g>
	</g>
</g>
<g id="step-2-in-out">
	<text transform="matrix(1.0208 0 0 1 299.8758 273.9121)" fill="#231F20" font-family="'ApexNew-Book'" font-size="9.3821">commit</text>
	<path display="none" fill="#58595B" d="M328,285.6h-23c-1.9,0-1.9,1.9-1.9,1.9v22.9c0,0,0,1.9,1.9,1.9c0,0,21,0,23,0
		c1.9,0,1.9-1.9,1.9-1.9v-23C330,287.4,330,285.6,328,285.6z M326.2,307.5c0,0.9-0.9,0.9-0.9,0.9H308c0,0-0.9,0-0.9-0.9v-17.2
		c0-0.9,0.9-0.9,0.9-0.9h17.2c0,0,0.9,0,0.9,0.9C326.2,290.3,326.2,306.7,326.2,307.5z M316.6,295.1c-2.1,0-3.8,1.7-3.8,3.8
		c0,2.1,1.7,3.8,3.8,3.8c2.1,0,3.8-1.7,3.8-3.8C320.4,296.8,318.7,295.1,316.6,295.1z"/>
	<path fill="#58595B" d="M314.8,292.3h-1.7v1.7h1.7V292.3z M314.8,288.9h-1.7v1.7h1.7V288.9z M324.8,285.6h-16.8c0,0-1.7,0-1.7,1.7
		v20.1c0,1.7,1.7,1.7,1.7,1.7h3.4v3.4l2.5-2.5l2.5,2.5V309h8.4c0,0,1.7,0,1.7-1.7v-20.1C326.5,285.6,324.8,285.6,324.8,285.6z
		 M324.8,305.7c0,1.6-1.7,1.7-1.7,1.7h-6.7v-1.7h-5v1.7h-1.7c-1.7,0-1.7-1.7-1.7-1.7V304h16.8V305.7z M324.8,302.3h-13.4v-15.1h13.4
		V302.3z M314.8,299h-1.7v1.7h1.7V299z M314.8,295.6h-1.7v1.7h1.7V295.6z"/>
	<path id="border_12_" fill="#3F81C3" d="M470.9,200.6c4.4,0,8,3.6,8,8v24.1c0,4.4-3.6,8-8,8h-85.6c-4.4,0-8-3.6-8-8v-24.1
		c0-4.4,3.6-8,8-8H470.9 M470.9,197.3h-85.6c-6.3,0-11.4,5.1-11.4,11.4v24.1c0,6.3,5.1,11.4,11.4,11.4H471c6.3,0,11.4-5.1,11.4-11.4
		v-24.1C482.3,202.5,477.2,197.3,470.9,197.3L470.9,197.3z"/>
	<g id="add_3_">
		<g>
			<path fill="#221F1F" d="M397.5,279.6v1.3c0,0-2.1,0-6,0c-22.9,0-147.2,0-167.1,0c-2.9,0-4.4,0-4.4,0c0-0.5,0-0.9,0-1.3
				c0,0,1.5,0,4.4,0c19.8,0,144.2,0,167.1,0C395.5,279.6,397.5,279.6,397.5,279.6z"/>
		</g>
		<g>
			<path fill="#221F1F" d="M188,237.8c0,0,0,3.8,0,6.7c0,1.7,0,2.9,0,2.9h-2.7c0,0,0-1.3,0-2.9c0-2.8,0-6.7,0-6.7H188z"/>
			<path fill="#FFFFFF" d="M186,246.7c0,0,0-1,0-2.3c0-2.5,0-6,0-6h1.3c0,0,0,3.6,0,6c0,1.3,0,2.3,0,2.3
				C186.8,246.7,186.4,246.7,186,246.7 M184.6,248.1h1.3h1.3h1.3v-1.3c0,0,0-1,0-2.3c0-2.5,0-6,0-6v-1.3h-1.3H186h-1.3v1.3
				c0,0,0,3.6,0,6c0,1.3,0,2.3,0,2.3V248.1L184.6,248.1z"/>
		</g>
		<g>
			<path fill="#221F1F" d="M432.2,235.4c0,0,0,5.6,0,9c0,1.6,0,2.8,0,2.8h-2.3c0,0,0-1.2,0-2.8c0-3.5,0-9,0-9H432.2z"/>
			<path fill="#FFFFFF" d="M430.4,246.7c0,0,0-0.9,0-2.3c0-3.2,0-8.6,0-8.6h1.3c0,0,0,5.4,0,8.6c0,1.3,0,2.3,0,2.3
				C431.2,246.7,430.8,246.7,430.4,246.7 M429.4,247.8h1h1.3h1v-1c0,0,0-0.9,0-2.3c0-3.2,0-8.6,0-8.6v-1h-1h-1.3h-1v1
				c0,0,0,5.4,0,8.6c0,1.3,0,2.3,0,2.3V247.8L429.4,247.8z"/>
		</g>
		<path fill="#221F1F" d="M186.6,230.9l5.5,5.9c0.3,0.3,0.3,0.7,0,0.9c-0.3,0.3-0.7,0.3-0.9,0c0,0,0,0,0-0.1l0,0l-3.8-4.1v7.3
			c-0.5,0-0.9,0-1.3,0v-7.3l-3.8,4.2c-0.3,0.3-0.7,0.3-0.9,0s-0.3-0.7,0-0.9l0,0L186.6,230.9z"/>
		<g>
			<path fill="none" stroke="#FFFFFF" stroke-width="6" stroke-miterlimit="10" d="M186.6,246.7c0,18.5,15,33.4,33.4,33.4"/>
			<path fill="none" stroke="#221F1F" stroke-width="2" stroke-miterlimit="10" d="M186.6,246.7c0,18.5,15,33.4,33.4,33.4"/>
		</g>
		<g>
			<path fill="none" stroke="#FFFFFF" stroke-width="6" stroke-miterlimit="10" d="M431,246.7c0,18.5-15,33.4-33.4,33.4"/>
			<path fill="none" stroke="#221F1F" stroke-width="2" stroke-miterlimit="10" d="M431,246.7c0,18.5-15,33.4-33.4,33.4"/>
		</g>
	</g>
</g>
<g id="step-3-in-out">
	<text transform="matrix(1.0483 0 0 1 241.8506 273.9122)" fill="#231F20" font-family="'ApexNew-Book'" font-size="9.3821">edit</text>
	<path fill="#58595B" d="M257.7,285.6l-3.8,3.8l5.8,5.8l3.8-3.8L257.7,285.6z M236.6,306.6v5.8h5.7l15.3-15.3l-5.8-5.8L236.6,306.6z
		 M242.3,310.4h-3.8v-3.8h1.9v1.9h1.9L242.3,310.4L242.3,310.4z"/>
	<path id="border_7_" fill="#3F81C3" d="M228.8,200.6c4.4,0,8,3.6,8,8v24.1c0,4.4-3.6,8-8,8h-85.6c-4.4,0-8-3.6-8-8v-24.1
		c0-4.4,3.6-8,8-8H228.8 M228.8,197.3h-85.6c-6.3,0-11.4,5.1-11.4,11.4v24.1c0,6.3,5.1,11.4,11.4,11.4h85.6
		c6.3,0,11.4-5.1,11.4-11.4v-24.1C240.2,202.5,235.1,197.3,228.8,197.3L228.8,197.3z"/>
	<g id="edit">
		<g>
			<path fill="#221F1F" d="M220.3,279.6v1.3c0,0,2.1,0,6,0c6.1,0,39.4,0,44.7,0c2.9,0,4.4,0,4.4,0c0-0.5,0-0.9,0-1.3
				c0,0-1.5,0-4.4,0c-5.3,0-38.6,0-44.7,0C222.5,279.6,220.3,279.6,220.3,279.6z"/>
		</g>
		<g>
			<path fill="#221F1F" d="M307.7,237.8c0,0,0,3.8,0,6.7c0,1.7,0,2.9,0,2.9h2.7c0,0,0-1.3,0-2.9c0-2.8,0-6.7,0-6.7H307.7z"/>
			<path fill="#FFFFFF" d="M309.7,246.7c-0.5,0-0.9,0-1.3,0c0,0,0-1,0-2.3c0-2.5,0-6,0-6h1.3c0,0,0,3.6,0,6
				C309.7,245.7,309.7,246.7,309.7,246.7 M311,248.1v-1.3c0,0,0-1,0-2.3c0-2.5,0-6,0-6v-1.3h-1.3h-1.3H307v1.3c0,0,0,3.6,0,6
				c0,1.3,0,2.3,0,2.3v1.3h1.3h1.3H311L311,248.1z"/>
		</g>
		<g>
			<path fill="#221F1F" d="M185.7,235.4c0,0,0,5.6,0,9c0,1.6,0,2.8,0,2.8h2.3c0,0,0-1.2,0-2.8c0-3.5,0-9,0-9H185.7z"/>
			<path fill="#FFFFFF" d="M187.6,246.7c-0.5,0-0.9,0-1.3,0c0,0,0-0.9,0-2.3c0-3.2,0-8.6,0-8.6h1.3c0,0,0,5.4,0,8.6
				C187.6,245.8,187.6,246.7,187.6,246.7 M188.6,247.8v-1c0,0,0-0.9,0-2.3c0-3.2,0-8.6,0-8.6v-1h-1h-1.3h-1v1c0,0,0,5.4,0,8.6
				c0,1.3,0,2.3,0,2.3v1h1h1.3H188.6L188.6,247.8z"/>
		</g>
		<path fill="#221F1F" d="M309,230.9l-5.5,5.9c-0.3,0.3-0.3,0.7,0,0.9c0.3,0.3,0.7,0.3,0.9,0c0,0,0,0,0-0.1l0,0l3.8-4.1v7.3
			c0.5,0,0.9,0,1.3,0v-7.3l3.8,4.2c0.3,0.3,0.7,0.3,0.9,0c0.3-0.3,0.3-0.7,0-0.9l0,0L309,230.9z"/>
		<g>
			<path fill="none" stroke="#FFFFFF" stroke-width="6" stroke-miterlimit="10" d="M309,246.7c0,18.5-15,33.4-33.4,33.4"/>
			<path fill="none" stroke="#221F1F" stroke-width="2" stroke-miterlimit="10" d="M309,246.7c0,18.5-15,33.4-33.4,33.4"/>
		</g>
		<g>
			<path fill="none" stroke="#FFFFFF" stroke-width="6" stroke-miterlimit="10" d="M186.9,246.7c0,18.5,15,33.4,33.4,33.4"/>
			<path fill="none" stroke="#221F1F" stroke-width="2" stroke-miterlimit="10" d="M186.9,246.7c0,18.5,15,33.4,33.4,33.4"/>
		</g>
	</g>
</g>
<g id="step-4-in-out">
	<text transform="matrix(1.0483 0 0 1 365.459 273.9121)" fill="#231F20" font-family="'ApexNew-Book'" font-size="9.3821">add</text>
	<path fill="#58595B" d="M375.8,293.2h-3.8v3.8h-3.8v3.8h3.8v3.8h3.8v-3.8h3.8V297h-3.8V293.2z M385.3,285.6h-23
		c-1.9,0-1.9,1.9-1.9,1.9v22.9c0,0,0,1.9,1.9,1.9c0,0,21,0,23,0s1.9-1.9,1.9-1.9v-23C387.2,287.4,387.2,285.6,385.3,285.6z
		 M383.4,307.5c0,0.9-0.9,0.9-0.9,0.9h-17.2c0,0-0.9,0-0.9-0.9v-17.2c0-0.9,0.9-0.9,0.9-0.9h17.2c0,0,0.9,0,0.9,0.9
		C383.4,290.3,383.4,306.7,383.4,307.5z"/>
	<path id="border_2_" fill="#3F81C3" d="M349.9,200.6c4.4,0,8,3.6,8,8v24.1c0,4.4-3.6,8-8,8h-85.6c-4.4,0-8-3.6-8-8v-24.1
		c0-4.4,3.6-8,8-8H349.9 M349.9,197.3h-85.6c-6.3,0-11.4,5.1-11.4,11.4v24.1c0,6.3,5.1,11.4,11.4,11.4h85.6
		c6.3,0,11.4-5.1,11.4-11.4v-24.1C361.3,202.5,356.1,197.3,349.9,197.3L349.9,197.3z"/>
	<g id="add_5_">
		<g>
			<path fill="#221F1F" d="M342.6,279.6v1.3c0,0,2.1,0,6,0c6.1,0,39.2,0,44.5,0c2.9,0,4.4,0,4.4,0c0-0.5,0-0.9,0-1.3
				c0,0-1.5,0-4.4,0c-5.3,0-38.4,0-44.5,0C344.7,279.6,342.6,279.6,342.6,279.6z"/>
		</g>
		<g>
			<path fill="#221F1F" d="M429.7,237.8c0,0,0,3.8,0,6.7c0,1.7,0,2.9,0,2.9h2.7c0,0,0-1.3,0-2.9c0-2.8,0-6.7,0-6.7H429.7z"/>
			<path fill="#FFFFFF" d="M431.7,246.7c-0.5,0-0.9,0-1.3,0c0,0,0-1,0-2.3c0-2.5,0-6,0-6h1.3c0,0,0,3.6,0,6
				C431.7,245.7,431.7,246.7,431.7,246.7 M433.1,248.1v-1.3c0,0,0-1,0-2.3c0-2.5,0-6,0-6v-1.3h-1.3h-1.3H429v1.3c0,0,0,3.6,0,6
				c0,1.3,0,2.3,0,2.3v1.3h1.3h1.3H433.1L433.1,248.1z"/>
		</g>
		<g>
			<path fill="#221F1F" d="M308,235.4c0,0,0,5.6,0,9c0,1.6,0,2.8,0,2.8h2.3c0,0,0-1.2,0-2.8c0-3.5,0-9,0-9H308z"/>
			<path fill="#FFFFFF" d="M309.8,246.7c-0.5,0-0.9,0-1.3,0c0,0,0-0.9,0-2.3c0-3.2,0-8.6,0-8.6h1.3c0,0,0,5.4,0,8.6
				C309.8,245.8,309.8,246.7,309.8,246.7 M310.8,247.8v-1c0,0,0-0.9,0-2.3c0-3.2,0-8.6,0-8.6v-1h-1h-1.3h-1v1c0,0,0,5.4,0,8.6
				c0,1.3,0,2.3,0,2.3v1h1h1.3H310.8L310.8,247.8z"/>
		</g>
		<path fill="#221F1F" d="M431,230.9l-5.5,5.9c-0.3,0.3-0.3,0.7,0,0.9c0.3,0.3,0.7,0.3,0.9,0c0,0,0,0,0-0.1l0,0l3.8-4.1v7.3
			c0.5,0,0.9,0,1.3,0v-7.3l3.8,4.2c0.3,0.3,0.7,0.3,0.9,0c0.3-0.3,0.3-0.7,0-0.9l0,0L431,230.9z"/>
		<g>
			<path fill="none" stroke="#FFFFFF" stroke-width="6" stroke-miterlimit="10" d="M431,246.7c0,18.5-15,33.4-33.4,33.4"/>
			<path fill="none" stroke="#221F1F" stroke-width="2" stroke-miterlimit="10" d="M431,246.7c0,18.5-15,33.4-33.4,33.4"/>
		</g>
		<g>
			<path fill="none" stroke="#FFFFFF" stroke-width="6" stroke-miterlimit="10" d="M309.1,246.7c0,18.5,15,33.4,33.4,33.4"/>
			<path fill="none" stroke="#221F1F" stroke-width="2" stroke-miterlimit="10" d="M309.1,246.7c0,18.5,15,33.4,33.4,33.4"/>
		</g>
	</g>
</g>
<g id="step-5">
	<path fill="#58595B" d="M121.4,297v3.8h11.5V297H121.4z M138.7,285.6h-23c-1.9,0-1.9,1.9-1.9,1.9v22.9c0,0,0,1.9,1.9,1.9
		c0,0,21,0,23,0c1.9,0,1.9-1.9,1.9-1.9v-23C140.5,287.4,140.5,285.6,138.7,285.6z M136.7,307.5c0,0.9-0.9,0.9-0.9,0.9h-17.2
		c0,0-0.9,0-0.9-0.9v-17.2c0-0.9,0.9-0.9,0.9-0.9h17.2c0,0,0.9,0,0.9,0.9C136.7,290.3,136.7,306.7,136.7,307.5z"/>
	<text transform="matrix(1.0208 0 0 1 111.7099 273.9121)" fill="#231F20" font-family="'ApexNew-Book'" font-size="9.3821">remove</text>
	<path id="border_4_" fill="#3F81C3" d="M228.8,200.6c4.4,0,8,3.6,8,8v24.1c0,4.4-3.6,8-8,8h-85.6c-4.4,0-8-3.6-8-8v-24.1
		c0-4.4,3.6-8,8-8H228.8 M228.8,197.3h-85.6c-6.3,0-11.4,5.1-11.4,11.4v24.1c0,6.3,5.1,11.4,11.4,11.4h85.6
		c6.3,0,11.4-5.1,11.4-11.4v-24.1C240.2,202.5,235.1,197.3,228.8,197.3L228.8,197.3z"/>
	<g id="add_2_">
		<g>
			<path fill="#221F1F" d="M153.1,279.6v1.3c0,0-2.1,0-6,0c-6.2,0-39.9,0-45.3,0c-2.9,0-4.4,0-4.4,0c0-0.5,0-0.9,0-1.3
				c0,0,1.5,0,4.4,0c5.4,0,39.1,0,45.3,0C151,279.6,153.1,279.6,153.1,279.6z"/>
		</g>
		<g>
			<path fill="#221F1F" d="M65.3,237.8c0,0,0,3.8,0,6.7c0,1.7,0,2.9,0,2.9h-2.7c0,0,0-1.3,0-2.9c0-2.8,0-6.7,0-6.7H65.3z"/>
			<path fill="#FFFFFF" d="M63.3,246.7c0,0,0-1,0-2.3c0-2.5,0-6,0-6h1.3c0,0,0,3.6,0,6c0,1.3,0,2.3,0,2.3
				C64.1,246.7,63.7,246.7,63.3,246.7 M61.9,248.1h1.3h1.3h1.3v-1.3c0,0,0-1,0-2.3c0-2.5,0-6,0-6v-1.3h-1.3h-1.3h-1.3v1.3
				c0,0,0,3.6,0,6c0,1.3,0,2.3,0,2.3V248.1L61.9,248.1z"/>
		</g>
		<g>
			<path fill="#221F1F" d="M187.8,235.4c0,0,0,5.6,0,9c0,1.6,0,2.8,0,2.8h-2.3c0,0,0-1.2,0-2.8c0-3.5,0-9,0-9H187.8z"/>
			<path fill="#FFFFFF" d="M185.9,246.7c0,0,0-0.9,0-2.3c0-3.2,0-8.6,0-8.6h1.3c0,0,0,5.4,0,8.6c0,1.3,0,2.3,0,2.3
				C186.8,246.7,186.4,246.7,185.9,246.7 M184.9,247.8h1h1.3h1v-1c0,0,0-0.9,0-2.3c0-3.2,0-8.6,0-8.6v-1h-1h-1.3h-1v1
				c0,0,0,5.4,0,8.6c0,1.3,0,2.3,0,2.3V247.8L184.9,247.8z"/>
		</g>
		<path fill="#221F1F" d="M63.9,230.9l5.5,5.9c0.3,0.3,0.3,0.7,0,0.9c-0.3,0.3-0.7,0.3-0.9,0c0,0,0,0,0-0.1l0,0l-3.8-4.1v7.3
			c-0.5,0-0.9,0-1.3,0v-7.3l-3.8,4.2c-0.3,0.3-0.7,0.3-0.9,0c-0.3-0.3-0.3-0.7,0-0.9l0,0L63.9,230.9z"/>
		<g>
			<path fill="none" stroke="#FFFFFF" stroke-width="6" stroke-miterlimit="10" d="M63.9,246.7c0,18.5,15,33.4,33.4,33.4"/>
			<path fill="none" stroke="#221F1F" stroke-width="2" stroke-miterlimit="10" d="M63.9,246.7c0,18.5,15,33.4,33.4,33.4"/>
		</g>
		<g>
			<path fill="none" stroke="#FFFFFF" stroke-width="6" stroke-miterlimit="10" d="M186.6,246.7c0,18.5-15,33.4-33.4,33.4"/>
			<path fill="none" stroke="#221F1F" stroke-width="2" stroke-miterlimit="10" d="M186.6,246.7c0,18.5-15,33.4-33.4,33.4"/>
		</g>
	</g>
</g>
</svg>
