<?xml version="1.0" encoding="utf-8"?>
<!-- Generator: Adobe Illustrator 17.1.0, SVG Export Plug-In . SVG Version: 6.00 Build 0)  -->
<!DOCTYPE svg PUBLIC "-//W3C//DTD SVG 1.1//EN" "http://www.w3.org/Graphics/SVG/1.1/DTD/svg11.dtd">
<svg version="1.1" id="Diff" xmlns="http://www.w3.org/2000/svg" xmlns:xlink="http://www.w3.org/1999/xlink" x="0px" y="0px"
	 viewBox="0 722 500 142" enable-background="new 0 722 500 142" xml:space="preserve">
<g id="base">
	<g id="untracked">
		<text transform="matrix(1 0 0 1 22.7549 763.2354)" fill="#221F1F" font-family="'HelveticaNeue-Light'" font-size="18.5954">untracked</text>
		<g id="border_28_">
			<path fill="#414141" d="M105.7,738.8c4.1,0,7.4,3.3,7.4,7.4v24.1c0,4.1-3.3,7.4-7.4,7.4H20.1c-4.1,0-7.4-3.3-7.4-7.4v-24.1
				c0-4.1,3.3-7.4,7.4-7.4H105.7 M105.7,738.1H20.1c-4.4,0-8,3.6-8,8v24.1c0,4.4,3.6,8,8,8h85.6c4.4,0,8-3.6,8-8v-24.1
				C113.7,741.8,110.1,738.1,105.7,738.1L105.7,738.1z"/>
		</g>
	</g>
	<g id="unmodified">
		<g id="border_1_">
			<path fill="#414141" d="M228.8,738.8c4.1,0,7.4,3.3,7.4,7.4v24.1c0,4.1-3.3,7.4-7.4,7.4h-85.6c-4.1,0-7.4-3.3-7.4-7.4v-24.1
				c0-4.1,3.3-7.4,7.4-7.4H228.8 M228.8,738.1h-85.6c-4.4,0-8,3.6-8,8v24.1c0,4.4,3.6,8,8,8h85.6c4.4,0,8-3.6,8-8v-24.1
				C236.8,741.8,233.2,738.1,228.8,738.1L228.8,738.1z"/>
		</g>
		<text transform="matrix(1 0 0 1 141.7208 763.2354)" fill="#221F1F" font-family="'HelveticaNeue-Light'" font-size="18.5954">unmodified</text>
	</g>
	<g id="modified">
		<g id="border_25_">
			<path fill="#414141" d="M349.9,738.8c4.1,0,7.4,3.3,7.4,7.4v24.1c0,4.1-3.3,7.4-7.4,7.4h-85.6c-4.1,0-7.4-3.3-7.4-7.4v-24.1
				c0-4.1,3.3-7.4,7.4-7.4H349.9 M349.9,738.1h-85.6c-4.4,0-8,3.6-8,8v24.1c0,4.4,3.6,8,8,8h85.6c4.4,0,8-3.6,8-8v-24.1
				C357.9,741.8,354.3,738.1,349.9,738.1L349.9,738.1z"/>
		</g>
		<text transform="matrix(1 0 0 1 272.7811 763.2354)" fill="#221F1F" font-family="'HelveticaNeue-Light'" font-size="18.5954">modified</text>
	</g>
	<g id="staged">
		<g id="border_22_">
			<path fill="#414141" d="M470.9,738.8c4.1,0,7.4,3.3,7.4,7.4v24.1c0,4.1-3.3,7.4-7.4,7.4h-85.6c-4.1,0-7.4-3.3-7.4-7.4v-24.1
				c0-4.1,3.3-7.4,7.4-7.4H470.9 M470.9,738.1h-85.6c-4.4,0-8,3.6-8,8v24.1c0,4.4,3.6,8,8,8H471c4.4,0,8-3.6,8-8v-24.1
				C479,741.8,475.3,738.1,470.9,738.1L470.9,738.1z"/>
		</g>
		<text transform="matrix(1 0 0 1 400.7342 763.2354)" fill="#221F1F" font-family="'HelveticaNeue-Light'" font-size="18.5954">staged</text>
	</g>
	<g id="border_tracked" opacity="0.3">
		<path fill="#414141" d="M474.1,727c8.1,0,14.7,6.6,14.7,14.7v35c0,8.1-6.6,14.7-14.7,14.7H140.3c-8.1,0-14.7-6.6-14.7-14.7v-35
			c0-8.1,6.6-14.7,14.7-14.7H474.1 M474.1,726.3H140.3c-8.4,0-15.4,7-15.4,15.4v35c0,8.5,7,15.4,15.4,15.4H474
			c8.5,0,15.4-6.9,15.4-15.4v-35C489.5,733.3,482.6,726.3,474.1,726.3L474.1,726.3z"/>
	</g>
</g>
<g id="step-1-in-out">
	<text transform="matrix(1.0483 0 0 1 241.5195 811.4121)" fill="#231F20" font-family="'ApexNew-Book'" font-size="9.3821">add</text>
	<path fill="#58595B" d="M251.8,830.7H248v3.8h-3.8v3.8h3.8v3.8h3.8v-3.8h3.8v-3.8h-3.8V830.7z M261.4,823.1h-23
		c-1.9,0-1.9,1.9-1.9,1.9v22.9c0,0,0,1.9,1.9,1.9c0,0,21,0,23,0c1.9,0,1.9-1.9,1.9-1.9v-23C263.3,824.9,263.3,823.1,261.4,823.1z
		 M259.5,845c0,0.9-0.9,0.9-0.9,0.9h-17.3c0,0-0.9,0-0.9-0.9v-17.2c0-0.9,0.9-0.9,0.9-0.9h17.2c0,0,0.9,0,0.9,0.9
		C259.5,827.8,259.5,844.2,259.5,845z"/>
	<path id="border_23_" fill="#3F81C3" d="M105.7,738.1c4.4,0,8,3.6,8,8v24.1c0,4.4-3.6,8-8,8H20.1c-4.4,0-8-3.6-8-8v-24.1
		c0-4.4,3.6-8,8-8H105.7 M105.7,734.8H20.1c-6.3,0-11.4,5.1-11.4,11.4v24.1c0,6.3,5.1,11.4,11.4,11.4h85.6c6.3,0,11.4-5.1,11.4-11.4
		v-24.1C117.1,740,112,734.8,105.7,734.8L105.7,734.8z"/>
	<g id="add">
		<g>
			<path fill="#221F1F" d="M97.4,817.1v1.3c0,0,2.1,0,6,0c39.5,0,255.3,0,289.6,0c2.9,0,4.4,0,4.4,0c0-0.5,0-0.9,0-1.3
				c0,0-1.5,0-4.4,0c-34.3,0-250,0-289.6,0C99.5,817.1,97.4,817.1,97.4,817.1z"/>
		</g>
		<g>
			<path fill="#221F1F" d="M429.6,775.3c0,0,0,3.8,0,6.7c0,1.7,0,2.9,0,2.9h2.7c0,0,0-1.3,0-2.9c0-2.8,0-6.7,0-6.7H429.6z"/>
			<path fill="#FFFFFF" d="M431.6,784.2c-0.5,0-0.9,0-1.3,0c0,0,0-1,0-2.3c0-2.5,0-6,0-6h1.3c0,0,0,3.6,0,6
				C431.6,783.2,431.6,784.2,431.6,784.2 M433,785.6v-1.3c0,0,0-1,0-2.3c0-2.5,0-6,0-6v-1.3h-1.3h-1.3H429v1.3c0,0,0,3.6,0,6
				c0,1.3,0,2.3,0,2.3v1.3h1.3h1.3H433L433,785.6z"/>
		</g>
		<g>
			<path fill="#221F1F" d="M62.8,772.9c0,0,0,5.6,0,9c0,1.6,0,2.8,0,2.8h2.3c0,0,0-1.2,0-2.8c0-3.5,0-9,0-9H62.8z"/>
			<path fill="#FFFFFF" d="M64.6,784.2c-0.5,0-0.9,0-1.3,0c0,0,0-0.9,0-2.3c0-3.2,0-8.6,0-8.6h1.3c0,0,0,5.4,0,8.6
				C64.6,783.3,64.6,784.2,64.6,784.2 M65.6,785.3v-1c0,0,0-0.9,0-2.3c0-3.2,0-8.6,0-8.6v-1h-1h-1.3h-1v1c0,0,0,5.4,0,8.6
				c0,1.3,0,2.3,0,2.3v1h1h1.3H65.6L65.6,785.3z"/>
		</g>
		<path fill="#221F1F" d="M431,768.4l-5.5,5.9c-0.3,0.3-0.3,0.7,0,0.9c0.3,0.3,0.7,0.3,0.9,0c0,0,0,0,0-0.1l0,0l3.8-4.1v7.3
			c0.5,0,0.9,0,1.3,0V771l3.8,4.2c0.3,0.3,0.7,0.3,0.9,0c0.3-0.3,0.3-0.7,0-0.9l0,0L431,768.4z"/>
		<g>
			<path fill="none" stroke="#FFFFFF" stroke-width="6" stroke-miterlimit="10" d="M431,784.2c0,18.5-15,33.4-33.4,33.4"/>
			<path fill="none" stroke="#221F1F" stroke-width="2" stroke-miterlimit="10" d="M431,784.2c0,18.5-15,33.4-33.4,33.4"/>
		</g>
		<g>
			<path fill="none" stroke="#FFFFFF" stroke-width="6" stroke-miterlimit="10" d="M63.9,784.2c0,18.5,15,33.4,33.4,33.4"/>
			<path fill="none" stroke="#221F1F" stroke-width="2" stroke-miterlimit="10" d="M63.9,784.2c0,18.5,15,33.4,33.4,33.4"/>
		</g>
	</g>
</g>
<g id="step-2-in-out" display="none">
	
		<text transform="matrix(1.0208 0 0 1 299.876 811.4121)" display="inline" fill="#231F20" font-family="'ApexNew-Book'" font-size="9.3821">commit</text>
	<path display="inline" fill="#58595B" d="M328,823.1h-23c-1.9,0-1.9,1.9-1.9,1.9v22.9c0,0,0,1.9,1.9,1.9c0,0,21,0,23,0
		c1.9,0,1.9-1.9,1.9-1.9v-23C330,824.9,330,823.1,328,823.1z M326.2,845c0,0.9-0.9,0.9-0.9,0.9H308c0,0-0.9,0-0.9-0.9v-17.2
		c0-0.9,0.9-0.9,0.9-0.9h17.2c0,0,0.9,0,0.9,0.9C326.2,827.8,326.2,844.2,326.2,845z M316.6,832.6c-2.1,0-3.8,1.7-3.8,3.8
		s1.7,3.8,3.8,3.8c2.1,0,3.8-1.7,3.8-3.8S318.7,832.6,316.6,832.6z"/>
	<path display="inline" fill="#58595B" d="M314.8,829.8h-1.7v1.7h1.7V829.8z M314.8,826.4h-1.7v1.7h1.7V826.4z M324.8,823.1H308
		c0,0-1.7,0-1.7,1.7v20.1c0,1.7,1.7,1.7,1.7,1.7h3.4v3.4l2.5-2.5l2.5,2.5v-3.5h8.4c0,0,1.7,0,1.7-1.7v-20.1
		C326.5,823.1,324.8,823.1,324.8,823.1z M324.8,843.2c0,1.6-1.7,1.7-1.7,1.7h-6.7v-1.7h-5v1.7h-1.7c-1.7,0-1.7-1.7-1.7-1.7v-1.7
		h16.8L324.8,843.2L324.8,843.2z M324.8,839.8h-13.4v-15.1h13.4V839.8z M314.8,836.5h-1.7v1.7h1.7V836.5z M314.8,833.1h-1.7v1.7h1.7
		V833.1z"/>
	<path id="border_12_" display="inline" fill="#3F81C3" d="M470.9,738.1c4.4,0,8,3.6,8,8v24.1c0,4.4-3.6,8-8,8h-85.6
		c-4.4,0-8-3.6-8-8v-24.1c0-4.4,3.6-8,8-8H470.9 M470.9,734.8h-85.6c-6.3,0-11.4,5.1-11.4,11.4v24.1c0,6.3,5.1,11.4,11.4,11.4H471
		c6.3,0,11.4-5.1,11.4-11.4v-24.1C482.3,740,477.2,734.8,470.9,734.8L470.9,734.8z"/>
	<g id="add_3_" display="inline">
		<g>
			<path fill="#221F1F" d="M397.5,817.1v1.3c0,0-2.1,0-6,0c-22.9,0-147.2,0-167.1,0c-2.9,0-4.4,0-4.4,0c0-0.5,0-0.9,0-1.3
				c0,0,1.5,0,4.4,0c19.8,0,144.2,0,167.1,0C395.5,817.1,397.5,817.1,397.5,817.1z"/>
		</g>
		<g>
			<path fill="#221F1F" d="M188,775.3c0,0,0,3.8,0,6.7c0,1.7,0,2.9,0,2.9h-2.7c0,0,0-1.3,0-2.9c0-2.8,0-6.7,0-6.7H188z"/>
			<path fill="#FFFFFF" d="M186,784.2c0,0,0-1,0-2.3c0-2.5,0-6,0-6h1.3c0,0,0,3.6,0,6c0,1.3,0,2.3,0,2.3
				C186.8,784.2,186.4,784.2,186,784.2 M184.6,785.6h1.3h1.3h1.3v-1.3c0,0,0-1,0-2.3c0-2.5,0-6,0-6v-1.3h-1.3H186h-1.3v1.3
				c0,0,0,3.6,0,6c0,1.3,0,2.3,0,2.3L184.6,785.6L184.6,785.6z"/>
		</g>
		<g>
			<path fill="#221F1F" d="M432.2,772.9c0,0,0,5.6,0,9c0,1.6,0,2.8,0,2.8h-2.3c0,0,0-1.2,0-2.8c0-3.5,0-9,0-9H432.2z"/>
			<path fill="#FFFFFF" d="M430.4,784.2c0,0,0-0.9,0-2.3c0-3.2,0-8.6,0-8.6h1.3c0,0,0,5.4,0,8.6c0,1.3,0,2.3,0,2.3
				C431.2,784.2,430.8,784.2,430.4,784.2 M429.4,785.3h1h1.3h1v-1c0,0,0-0.9,0-2.3c0-3.2,0-8.6,0-8.6v-1h-1h-1.3h-1v1
				c0,0,0,5.4,0,8.6c0,1.3,0,2.3,0,2.3V785.3L429.4,785.3z"/>
		</g>
		<path fill="#221F1F" d="M186.6,768.4l5.5,5.9c0.3,0.3,0.3,0.7,0,0.9c-0.3,0.3-0.7,0.3-0.9,0c0,0,0,0,0-0.1l0,0l-3.8-4.1v7.3
			c-0.5,0-0.9,0-1.3,0V771l-3.8,4.2c-0.3,0.3-0.7,0.3-0.9,0s-0.3-0.7,0-0.9l0,0L186.6,768.4z"/>
		<g>
			<path fill="none" stroke="#FFFFFF" stroke-width="6" stroke-miterlimit="10" d="M186.6,784.2c0,18.5,15,33.4,33.4,33.4"/>
			<path fill="none" stroke="#221F1F" stroke-width="2" stroke-miterlimit="10" d="M186.6,784.2c0,18.5,15,33.4,33.4,33.4"/>
		</g>
		<g>
			<path fill="none" stroke="#FFFFFF" stroke-width="6" stroke-miterlimit="10" d="M431,784.2c0,18.5-15,33.4-33.4,33.4"/>
			<path fill="none" stroke="#221F1F" stroke-width="2" stroke-miterlimit="10" d="M431,784.2c0,18.5-15,33.4-33.4,33.4"/>
		</g>
	</g>
</g>
<g id="step-3-in-out" display="none">
	
		<text transform="matrix(1.0483 0 0 1 241.8506 811.4121)" display="inline" fill="#231F20" font-family="'ApexNew-Book'" font-size="9.3821">edit</text>
	<path display="inline" fill="#58595B" d="M257.7,823.1l-3.8,3.8l5.8,5.8l3.8-3.8L257.7,823.1z M236.6,844.1v5.8h5.7l15.3-15.3
		l-5.8-5.8L236.6,844.1z M242.3,847.9h-3.8v-3.8h1.9v1.9h1.9L242.3,847.9L242.3,847.9z"/>
	<path id="border_7_" display="inline" fill="#3F81C3" d="M228.8,738.1c4.4,0,8,3.6,8,8v24.1c0,4.4-3.6,8-8,8h-85.6
		c-4.4,0-8-3.6-8-8v-24.1c0-4.4,3.6-8,8-8H228.8 M228.8,734.8h-85.6c-6.3,0-11.4,5.1-11.4,11.4v24.1c0,6.3,5.1,11.4,11.4,11.4h85.6
		c6.3,0,11.4-5.1,11.4-11.4v-24.1C240.2,740,235.1,734.8,228.8,734.8L228.8,734.8z"/>
	<g id="edit" display="inline">
		<g>
			<path fill="#221F1F" d="M220.3,817.1v1.3c0,0,2.1,0,6,0c6.1,0,39.4,0,44.7,0c2.9,0,4.4,0,4.4,0c0-0.5,0-0.9,0-1.3
				c0,0-1.5,0-4.4,0c-5.3,0-38.6,0-44.7,0C222.5,817.1,220.3,817.1,220.3,817.1z"/>
		</g>
		<g>
			<path fill="#221F1F" d="M307.7,775.3c0,0,0,3.8,0,6.7c0,1.7,0,2.9,0,2.9h2.7c0,0,0-1.3,0-2.9c0-2.8,0-6.7,0-6.7H307.7z"/>
			<path fill="#FFFFFF" d="M309.7,784.2c-0.5,0-0.9,0-1.3,0c0,0,0-1,0-2.3c0-2.5,0-6,0-6h1.3c0,0,0,3.6,0,6
				C309.7,783.2,309.7,784.2,309.7,784.2 M311,785.6v-1.3c0,0,0-1,0-2.3c0-2.5,0-6,0-6v-1.3h-1.3h-1.3H307v1.3c0,0,0,3.6,0,6
				c0,1.3,0,2.3,0,2.3v1.3h1.3h1.3H311L311,785.6z"/>
		</g>
		<g>
			<path fill="#221F1F" d="M185.7,772.9c0,0,0,5.6,0,9c0,1.6,0,2.8,0,2.8h2.3c0,0,0-1.2,0-2.8c0-3.5,0-9,0-9H185.7z"/>
			<path fill="#FFFFFF" d="M187.6,784.2c-0.5,0-0.9,0-1.3,0c0,0,0-0.9,0-2.3c0-3.2,0-8.6,0-8.6h1.3c0,0,0,5.4,0,8.6
				C187.6,783.3,187.6,784.2,187.6,784.2 M188.6,785.3v-1c0,0,0-0.9,0-2.3c0-3.2,0-8.6,0-8.6v-1h-1h-1.3h-1v1c0,0,0,5.4,0,8.6
				c0,1.3,0,2.3,0,2.3v1h1h1.3H188.6L188.6,785.3z"/>
		</g>
		<path fill="#221F1F" d="M309,768.4l-5.5,5.9c-0.3,0.3-0.3,0.7,0,0.9c0.3,0.3,0.7,0.3,0.9,0c0,0,0,0,0-0.1l0,0l3.8-4.1v7.3
			c0.5,0,0.9,0,1.3,0V771l3.8,4.2c0.3,0.3,0.7,0.3,0.9,0c0.3-0.3,0.3-0.7,0-0.9l0,0L309,768.4z"/>
		<g>
			<path fill="none" stroke="#FFFFFF" stroke-width="6" stroke-miterlimit="10" d="M309,784.2c0,18.5-15,33.4-33.4,33.4"/>
			<path fill="none" stroke="#221F1F" stroke-width="2" stroke-miterlimit="10" d="M309,784.2c0,18.5-15,33.4-33.4,33.4"/>
		</g>
		<g>
			<path fill="none" stroke="#FFFFFF" stroke-width="6" stroke-miterlimit="10" d="M186.9,784.2c0,18.5,15,33.4,33.4,33.4"/>
			<path fill="none" stroke="#221F1F" stroke-width="2" stroke-miterlimit="10" d="M186.9,784.2c0,18.5,15,33.4,33.4,33.4"/>
		</g>
	</g>
</g>
<g id="step-4-in-out" display="none">
	
		<text transform="matrix(1.0483 0 0 1 365.459 811.4121)" display="inline" fill="#231F20" font-family="'ApexNew-Book'" font-size="9.3821">add</text>
	<path display="inline" fill="#58595B" d="M375.8,830.7H372v3.8h-3.8v3.8h3.8v3.8h3.8v-3.8h3.8v-3.8h-3.8V830.7z M385.3,823.1h-23
		c-1.9,0-1.9,1.9-1.9,1.9v22.9c0,0,0,1.9,1.9,1.9c0,0,21,0,23,0s1.9-1.9,1.9-1.9v-23C387.2,824.9,387.2,823.1,385.3,823.1z
		 M383.4,845c0,0.9-0.9,0.9-0.9,0.9h-17.2c0,0-0.9,0-0.9-0.9v-17.2c0-0.9,0.9-0.9,0.9-0.9h17.2c0,0,0.9,0,0.9,0.9
		C383.4,827.8,383.4,844.2,383.4,845z"/>
	<path id="border_2_" display="inline" fill="#3F81C3" d="M349.9,738.1c4.4,0,8,3.6,8,8v24.1c0,4.4-3.6,8-8,8h-85.6
		c-4.4,0-8-3.6-8-8v-24.1c0-4.4,3.6-8,8-8H349.9 M349.9,734.8h-85.6c-6.3,0-11.4,5.1-11.4,11.4v24.1c0,6.3,5.1,11.4,11.4,11.4h85.6
		c6.3,0,11.4-5.1,11.4-11.4v-24.1C361.3,740,356.1,734.8,349.9,734.8L349.9,734.8z"/>
	<g id="add_5_" display="inline">
		<g>
			<path fill="#221F1F" d="M342.6,817.1v1.3c0,0,2.1,0,6,0c6.1,0,39.2,0,44.5,0c2.9,0,4.4,0,4.4,0c0-0.5,0-0.9,0-1.3
				c0,0-1.5,0-4.4,0c-5.3,0-38.4,0-44.5,0C344.7,817.1,342.6,817.1,342.6,817.1z"/>
		</g>
		<g>
			<path fill="#221F1F" d="M429.7,775.3c0,0,0,3.8,0,6.7c0,1.7,0,2.9,0,2.9h2.7c0,0,0-1.3,0-2.9c0-2.8,0-6.7,0-6.7H429.7z"/>
			<path fill="#FFFFFF" d="M431.7,784.2c-0.5,0-0.9,0-1.3,0c0,0,0-1,0-2.3c0-2.5,0-6,0-6h1.3c0,0,0,3.6,0,6
				C431.7,783.2,431.7,784.2,431.7,784.2 M433.1,785.6v-1.3c0,0,0-1,0-2.3c0-2.5,0-6,0-6v-1.3h-1.3h-1.3H429v1.3c0,0,0,3.6,0,6
				c0,1.3,0,2.3,0,2.3v1.3h1.3h1.3H433.1L433.1,785.6z"/>
		</g>
		<g>
			<path fill="#221F1F" d="M308,772.9c0,0,0,5.6,0,9c0,1.6,0,2.8,0,2.8h2.3c0,0,0-1.2,0-2.8c0-3.5,0-9,0-9H308z"/>
			<path fill="#FFFFFF" d="M309.8,784.2c-0.5,0-0.9,0-1.3,0c0,0,0-0.9,0-2.3c0-3.2,0-8.6,0-8.6h1.3c0,0,0,5.4,0,8.6
				C309.8,783.3,309.8,784.2,309.8,784.2 M310.8,785.3v-1c0,0,0-0.9,0-2.3c0-3.2,0-8.6,0-8.6v-1h-1h-1.3h-1v1c0,0,0,5.4,0,8.6
				c0,1.3,0,2.3,0,2.3v1h1h1.3H310.8L310.8,785.3z"/>
		</g>
		<path fill="#221F1F" d="M431,768.4l-5.5,5.9c-0.3,0.3-0.3,0.7,0,0.9c0.3,0.3,0.7,0.3,0.9,0c0,0,0,0,0-0.1l0,0l3.8-4.1v7.3
			c0.5,0,0.9,0,1.3,0V771l3.8,4.2c0.3,0.3,0.7,0.3,0.9,0c0.3-0.3,0.3-0.7,0-0.9l0,0L431,768.4z"/>
		<g>
			<path fill="none" stroke="#FFFFFF" stroke-width="6" stroke-miterlimit="10" d="M431,784.2c0,18.5-15,33.4-33.4,33.4"/>
			<path fill="none" stroke="#221F1F" stroke-width="2" stroke-miterlimit="10" d="M431,784.2c0,18.5-15,33.4-33.4,33.4"/>
		</g>
		<g>
			<path fill="none" stroke="#FFFFFF" stroke-width="6" stroke-miterlimit="10" d="M309.1,784.2c0,18.5,15,33.4,33.4,33.4"/>
			<path fill="none" stroke="#221F1F" stroke-width="2" stroke-miterlimit="10" d="M309.1,784.2c0,18.5,15,33.4,33.4,33.4"/>
		</g>
	</g>
</g>
<g id="step-5" display="none">
	<path display="inline" fill="#58595B" d="M121.4,834.5v3.8h11.5v-3.8H121.4z M138.7,823.1h-23c-1.9,0-1.9,1.9-1.9,1.9v22.9
		c0,0,0,1.9,1.9,1.9c0,0,21,0,23,0c1.9,0,1.9-1.9,1.9-1.9v-23C140.5,824.9,140.5,823.1,138.7,823.1z M136.7,845
		c0,0.9-0.9,0.9-0.9,0.9h-17.2c0,0-0.9,0-0.9-0.9v-17.2c0-0.9,0.9-0.9,0.9-0.9h17.2c0,0,0.9,0,0.9,0.9
		C136.7,827.8,136.7,844.2,136.7,845z"/>
	
		<text transform="matrix(1.0208 0 0 1 111.7095 811.4121)" display="inline" fill="#231F20" font-family="'ApexNew-Book'" font-size="9.3821">remove</text>
	<path id="border_4_" display="inline" fill="#3F81C3" d="M228.8,738.1c4.4,0,8,3.6,8,8v24.1c0,4.4-3.6,8-8,8h-85.6
		c-4.4,0-8-3.6-8-8v-24.1c0-4.4,3.6-8,8-8H228.8 M228.8,734.8h-85.6c-6.3,0-11.4,5.1-11.4,11.4v24.1c0,6.3,5.1,11.4,11.4,11.4h85.6
		c6.3,0,11.4-5.1,11.4-11.4v-24.1C240.2,740,235.1,734.8,228.8,734.8L228.8,734.8z"/>
	<g id="add_2_" display="inline">
		<g>
			<path fill="#221F1F" d="M153.1,817.1v1.3c0,0-2.1,0-6,0c-6.2,0-39.9,0-45.3,0c-2.9,0-4.4,0-4.4,0c0-0.5,0-0.9,0-1.3
				c0,0,1.5,0,4.4,0c5.4,0,39.1,0,45.3,0C151,817.1,153.1,817.1,153.1,817.1z"/>
		</g>
		<g>
			<path fill="#221F1F" d="M65.3,775.3c0,0,0,3.8,0,6.7c0,1.7,0,2.9,0,2.9h-2.7c0,0,0-1.3,0-2.9c0-2.8,0-6.7,0-6.7H65.3z"/>
			<path fill="#FFFFFF" d="M63.3,784.2c0,0,0-1,0-2.3c0-2.5,0-6,0-6h1.3c0,0,0,3.6,0,6c0,1.3,0,2.3,0,2.3
				C64.1,784.2,63.7,784.2,63.3,784.2 M61.9,785.6h1.3h1.3h1.3v-1.3c0,0,0-1,0-2.3c0-2.5,0-6,0-6v-1.3h-1.3h-1.3h-1.3v1.3
				c0,0,0,3.6,0,6c0,1.3,0,2.3,0,2.3V785.6L61.9,785.6z"/>
		</g>
		<g>
			<path fill="#221F1F" d="M187.8,772.9c0,0,0,5.6,0,9c0,1.6,0,2.8,0,2.8h-2.3c0,0,0-1.2,0-2.8c0-3.5,0-9,0-9H187.8z"/>
			<path fill="#FFFFFF" d="M185.9,784.2c0,0,0-0.9,0-2.3c0-3.2,0-8.6,0-8.6h1.3c0,0,0,5.4,0,8.6c0,1.3,0,2.3,0,2.3
				C186.8,784.2,186.4,784.2,185.9,784.2 M184.9,785.3h1h1.3h1v-1c0,0,0-0.9,0-2.3c0-3.2,0-8.6,0-8.6v-1h-1h-1.3h-1v1
				c0,0,0,5.4,0,8.6c0,1.3,0,2.3,0,2.3V785.3L184.9,785.3z"/>
		</g>
		<path fill="#221F1F" d="M63.9,768.4l5.5,5.9c0.3,0.3,0.3,0.7,0,0.9c-0.3,0.3-0.7,0.3-0.9,0c0,0,0,0,0-0.1l0,0l-3.8-4.1v7.3
			c-0.5,0-0.9,0-1.3,0V771l-3.8,4.2c-0.3,0.3-0.7,0.3-0.9,0c-0.3-0.3-0.3-0.7,0-0.9l0,0L63.9,768.4z"/>
		<g>
			<path fill="none" stroke="#FFFFFF" stroke-width="6" stroke-miterlimit="10" d="M63.9,784.2c0,18.5,15,33.4,33.4,33.4"/>
			<path fill="none" stroke="#221F1F" stroke-width="2" stroke-miterlimit="10" d="M63.9,784.2c0,18.5,15,33.4,33.4,33.4"/>
		</g>
		<g>
			<path fill="none" stroke="#FFFFFF" stroke-width="6" stroke-miterlimit="10" d="M186.6,784.2c0,18.5-15,33.4-33.4,33.4"/>
			<path fill="none" stroke="#221F1F" stroke-width="2" stroke-miterlimit="10" d="M186.6,784.2c0,18.5-15,33.4-33.4,33.4"/>
		</g>
	</g>
</g>
</svg>
