<?xml version="1.0" encoding="utf-8"?>
<!-- Generator: Adobe Illustrator 17.1.0, SVG Export Plug-In . SVG Version: 6.00 Build 0)  -->
<!DOCTYPE svg PUBLIC "-//W3C//DTD SVG 1.1//EN" "http://www.w3.org/Graphics/SVG/1.1/DTD/svg11.dtd">
<svg version="1.1" id="Diff" xmlns="http://www.w3.org/2000/svg" xmlns:xlink="http://www.w3.org/1999/xlink" x="0px" y="0px"
	 viewBox="0 535 500 145" enable-background="new 0 535 500 145" xml:space="preserve">
<g id="base">
	<g id="untracked">
		<text transform="matrix(1 0 0 1 22.7549 585.7354)" fill="#221F1F" font-family="'HelveticaNeue-Light'" font-size="18.5954">untracked</text>
		<g id="border_28_">
			<path fill="#414141" d="M105.7,561.3c4.1,0,7.4,3.3,7.4,7.4v24.1c0,4.1-3.3,7.4-7.4,7.4H20.1c-4.1,0-7.4-3.3-7.4-7.4v-24.1
				c0-4.1,3.3-7.4,7.4-7.4H105.7 M105.7,560.6H20.1c-4.4,0-8,3.6-8,8v24.1c0,4.4,3.6,8,8,8h85.6c4.4,0,8-3.6,8-8v-24.1
				C113.7,564.3,110.1,560.6,105.7,560.6L105.7,560.6z"/>
		</g>
	</g>
	<g id="unmodified">
		<g id="border_1_">
			<path fill="#414141" d="M228.8,561.3c4.1,0,7.4,3.3,7.4,7.4v24.1c0,4.1-3.3,7.4-7.4,7.4h-85.6c-4.1,0-7.4-3.3-7.4-7.4v-24.1
				c0-4.1,3.3-7.4,7.4-7.4H228.8 M228.8,560.6h-85.6c-4.4,0-8,3.6-8,8v24.1c0,4.4,3.6,8,8,8h85.6c4.4,0,8-3.6,8-8v-24.1
				C236.8,564.3,233.2,560.6,228.8,560.6L228.8,560.6z"/>
		</g>
		<text transform="matrix(1 0 0 1 141.7208 585.7354)" fill="#221F1F" font-family="'HelveticaNeue-Light'" font-size="18.5954">unmodified</text>
	</g>
	<g id="modified">
		<g id="border_25_">
			<path fill="#414141" d="M349.9,561.3c4.1,0,7.4,3.3,7.4,7.4v24.1c0,4.1-3.3,7.4-7.4,7.4h-85.6c-4.1,0-7.4-3.3-7.4-7.4v-24.1
				c0-4.1,3.3-7.4,7.4-7.4H349.9 M349.9,560.6h-85.6c-4.4,0-8,3.6-8,8v24.1c0,4.4,3.6,8,8,8h85.6c4.4,0,8-3.6,8-8v-24.1
				C357.9,564.3,354.3,560.6,349.9,560.6L349.9,560.6z"/>
		</g>
		<text transform="matrix(1 0 0 1 272.7811 585.7354)" fill="#221F1F" font-family="'HelveticaNeue-Light'" font-size="18.5954">modified</text>
	</g>
	<g id="staged">
		<g id="border_22_">
			<path fill="#414141" d="M470.9,561.3c4.1,0,7.4,3.3,7.4,7.4v24.1c0,4.1-3.3,7.4-7.4,7.4h-85.6c-4.1,0-7.4-3.3-7.4-7.4v-24.1
				c0-4.1,3.3-7.4,7.4-7.4H470.9 M470.9,560.6h-85.6c-4.4,0-8,3.6-8,8v24.1c0,4.4,3.6,8,8,8H471c4.4,0,8-3.6,8-8v-24.1
				C479,564.3,475.3,560.6,470.9,560.6L470.9,560.6z"/>
		</g>
		<text transform="matrix(1 0 0 1 400.7342 585.7354)" fill="#221F1F" font-family="'HelveticaNeue-Light'" font-size="18.5954">staged</text>
	</g>
	<g id="border_tracked" opacity="0.3">
		<path fill="#414141" d="M474.1,549.5c8.1,0,14.7,6.6,14.7,14.7v35c0,8.1-6.6,14.7-14.7,14.7H140.3c-8.1,0-14.7-6.6-14.7-14.7v-35
			c0-8.1,6.6-14.7,14.7-14.7H474.1 M474.1,548.8H140.3c-8.4,0-15.4,7-15.4,15.4v35c0,8.5,7,15.4,15.4,15.4H474
			c8.5,0,15.4-6.9,15.4-15.4v-35C489.5,555.8,482.6,548.8,474.1,548.8L474.1,548.8z"/>
	</g>
</g>
<g id="step-1-in-out" display="none">
	
		<text transform="matrix(1.0483 0 0 1 241.5195 633.9121)" display="inline" fill="#231F20" font-family="'ApexNew-Book'" font-size="9.3821">add</text>
	<path display="inline" fill="#58595B" d="M251.8,653.2H248v3.8h-3.8v3.8h3.8v3.8h3.8v-3.8h3.8V657h-3.8V653.2z M261.4,645.6h-23
		c-1.9,0-1.9,1.9-1.9,1.9v22.9c0,0,0,1.9,1.9,1.9c0,0,21,0,23,0c1.9,0,1.9-1.9,1.9-1.9v-23C263.3,647.4,263.3,645.6,261.4,645.6z
		 M259.5,667.5c0,0.9-0.9,0.9-0.9,0.9h-17.3c0,0-0.9,0-0.9-0.9v-17.2c0-0.9,0.9-0.9,0.9-0.9h17.2c0,0,0.9,0,0.9,0.9
		C259.5,650.3,259.5,666.7,259.5,667.5z"/>
	<path id="border_23_" display="inline" fill="#3F81C3" d="M105.7,560.6c4.4,0,8,3.6,8,8v24.1c0,4.4-3.6,8-8,8H20.1
		c-4.4,0-8-3.6-8-8v-24.1c0-4.4,3.6-8,8-8H105.7 M105.7,557.3H20.1c-6.3,0-11.4,5.1-11.4,11.4v24.1c0,6.3,5.1,11.4,11.4,11.4h85.6
		c6.3,0,11.4-5.1,11.4-11.4v-24.1C117.1,562.5,112,557.3,105.7,557.3L105.7,557.3z"/>
	<g id="add" display="inline">
		<g>
			<path fill="#221F1F" d="M97.4,639.6v1.3c0,0,2.1,0,6,0c39.5,0,255.3,0,289.6,0c2.9,0,4.4,0,4.4,0c0-0.5,0-0.9,0-1.3
				c0,0-1.5,0-4.4,0c-34.3,0-250,0-289.6,0C99.5,639.6,97.4,639.6,97.4,639.6z"/>
		</g>
		<g>
			<path fill="#221F1F" d="M429.6,597.8c0,0,0,3.8,0,6.7c0,1.7,0,2.9,0,2.9h2.7c0,0,0-1.3,0-2.9c0-2.8,0-6.7,0-6.7H429.6z"/>
			<path fill="#FFFFFF" d="M431.6,606.7c-0.5,0-0.9,0-1.3,0c0,0,0-1,0-2.3c0-2.5,0-6,0-6h1.3c0,0,0,3.6,0,6
				C431.6,605.7,431.6,606.7,431.6,606.7 M433,608.1v-1.3c0,0,0-1,0-2.3c0-2.5,0-6,0-6v-1.3h-1.3h-1.3H429v1.3c0,0,0,3.6,0,6
				c0,1.3,0,2.3,0,2.3v1.3h1.3h1.3H433L433,608.1z"/>
		</g>
		<g>
			<path fill="#221F1F" d="M62.8,595.4c0,0,0,5.6,0,9c0,1.6,0,2.8,0,2.8h2.3c0,0,0-1.2,0-2.8c0-3.5,0-9,0-9H62.8z"/>
			<path fill="#FFFFFF" d="M64.6,606.7c-0.5,0-0.9,0-1.3,0c0,0,0-0.9,0-2.3c0-3.2,0-8.6,0-8.6h1.3c0,0,0,5.4,0,8.6
				C64.6,605.8,64.6,606.7,64.6,606.7 M65.6,607.8v-1c0,0,0-0.9,0-2.3c0-3.2,0-8.6,0-8.6v-1h-1h-1.3h-1v1c0,0,0,5.4,0,8.6
				c0,1.3,0,2.3,0,2.3v1h1h1.3H65.6L65.6,607.8z"/>
		</g>
		<path fill="#221F1F" d="M431,590.9l-5.5,5.9c-0.3,0.3-0.3,0.7,0,0.9c0.3,0.3,0.7,0.3,0.9,0c0,0,0,0,0-0.1l0,0l3.8-4.1v7.3
			c0.5,0,0.9,0,1.3,0v-7.3l3.8,4.2c0.3,0.3,0.7,0.3,0.9,0c0.3-0.3,0.3-0.7,0-0.9l0,0L431,590.9z"/>
		<g>
			<path fill="none" stroke="#FFFFFF" stroke-width="6" stroke-miterlimit="10" d="M431,606.7c0,18.5-15,33.4-33.4,33.4"/>
			<path fill="none" stroke="#221F1F" stroke-width="2" stroke-miterlimit="10" d="M431,606.7c0,18.5-15,33.4-33.4,33.4"/>
		</g>
		<g>
			<path fill="none" stroke="#FFFFFF" stroke-width="6" stroke-miterlimit="10" d="M63.9,606.7c0,18.5,15,33.4,33.4,33.4"/>
			<path fill="none" stroke="#221F1F" stroke-width="2" stroke-miterlimit="10" d="M63.9,606.7c0,18.5,15,33.4,33.4,33.4"/>
		</g>
	</g>
</g>
<g id="step-2-in-out" display="none">
	
		<text transform="matrix(1.0208 0 0 1 299.876 633.9121)" display="inline" fill="#231F20" font-family="'ApexNew-Book'" font-size="9.3821">commit</text>
	<path fill="#58595B" d="M328,645.6h-23c-1.9,0-1.9,1.9-1.9,1.9v22.9c0,0,0,1.9,1.9,1.9c0,0,21,0,23,0c1.9,0,1.9-1.9,1.9-1.9v-23
		C330,647.4,330,645.6,328,645.6z M326.2,667.5c0,0.9-0.9,0.9-0.9,0.9H308c0,0-0.9,0-0.9-0.9v-17.2c0-0.9,0.9-0.9,0.9-0.9h17.2
		c0,0,0.9,0,0.9,0.9C326.2,650.3,326.2,666.7,326.2,667.5z M316.6,655.1c-2.1,0-3.8,1.7-3.8,3.8s1.7,3.8,3.8,3.8
		c2.1,0,3.8-1.7,3.8-3.8C320.4,656.8,318.7,655.1,316.6,655.1z"/>
	<path display="inline" fill="#58595B" d="M314.8,652.3h-1.7v1.7h1.7V652.3z M314.8,648.9h-1.7v1.7h1.7V648.9z M324.8,645.6H308
		c0,0-1.7,0-1.7,1.7v20.1c0,1.7,1.7,1.7,1.7,1.7h3.4v3.4l2.5-2.5l2.5,2.5V669h8.4c0,0,1.7,0,1.7-1.7v-20.1
		C326.5,645.6,324.8,645.6,324.8,645.6z M324.8,665.7c0,1.6-1.7,1.7-1.7,1.7h-6.7v-1.7h-5v1.7h-1.7c-1.7,0-1.7-1.7-1.7-1.7V664h16.8
		L324.8,665.7L324.8,665.7z M324.8,662.3h-13.4v-15.1h13.4V662.3z M314.8,659h-1.7v1.7h1.7V659z M314.8,655.6h-1.7v1.7h1.7V655.6z"
		/>
	<path id="border_12_" display="inline" fill="#3F81C3" d="M470.9,560.6c4.4,0,8,3.6,8,8v24.1c0,4.4-3.6,8-8,8h-85.6
		c-4.4,0-8-3.6-8-8v-24.1c0-4.4,3.6-8,8-8H470.9 M470.9,557.3h-85.6c-6.3,0-11.4,5.1-11.4,11.4v24.1c0,6.3,5.1,11.4,11.4,11.4H471
		c6.3,0,11.4-5.1,11.4-11.4v-24.1C482.3,562.5,477.2,557.3,470.9,557.3L470.9,557.3z"/>
	<g id="add_3_" display="inline">
		<g>
			<path fill="#221F1F" d="M397.5,639.6v1.3c0,0-2.1,0-6,0c-22.9,0-147.2,0-167.1,0c-2.9,0-4.4,0-4.4,0c0-0.5,0-0.9,0-1.3
				c0,0,1.5,0,4.4,0c19.8,0,144.2,0,167.1,0C395.5,639.6,397.5,639.6,397.5,639.6z"/>
		</g>
		<g>
			<path fill="#221F1F" d="M188,597.8c0,0,0,3.8,0,6.7c0,1.7,0,2.9,0,2.9h-2.7c0,0,0-1.3,0-2.9c0-2.8,0-6.7,0-6.7H188z"/>
			<path fill="#FFFFFF" d="M186,606.7c0,0,0-1,0-2.3c0-2.5,0-6,0-6h1.3c0,0,0,3.6,0,6c0,1.3,0,2.3,0,2.3
				C186.8,606.7,186.4,606.7,186,606.7 M184.6,608.1h1.3h1.3h1.3v-1.3c0,0,0-1,0-2.3c0-2.5,0-6,0-6v-1.3h-1.3H186h-1.3v1.3
				c0,0,0,3.6,0,6c0,1.3,0,2.3,0,2.3L184.6,608.1L184.6,608.1z"/>
		</g>
		<g>
			<path fill="#221F1F" d="M432.2,595.4c0,0,0,5.6,0,9c0,1.6,0,2.8,0,2.8h-2.3c0,0,0-1.2,0-2.8c0-3.5,0-9,0-9H432.2z"/>
			<path fill="#FFFFFF" d="M430.4,606.7c0,0,0-0.9,0-2.3c0-3.2,0-8.6,0-8.6h1.3c0,0,0,5.4,0,8.6c0,1.3,0,2.3,0,2.3
				C431.2,606.7,430.8,606.7,430.4,606.7 M429.4,607.8h1h1.3h1v-1c0,0,0-0.9,0-2.3c0-3.2,0-8.6,0-8.6v-1h-1h-1.3h-1v1
				c0,0,0,5.4,0,8.6c0,1.3,0,2.3,0,2.3V607.8L429.4,607.8z"/>
		</g>
		<path fill="#221F1F" d="M186.6,590.9l5.5,5.9c0.3,0.3,0.3,0.7,0,0.9c-0.3,0.3-0.7,0.3-0.9,0c0,0,0,0,0-0.1l0,0l-3.8-4.1v7.3
			c-0.5,0-0.9,0-1.3,0v-7.3l-3.8,4.2c-0.3,0.3-0.7,0.3-0.9,0c-0.2-0.3-0.3-0.7,0-0.9l0,0L186.6,590.9z"/>
		<g>
			<path fill="none" stroke="#FFFFFF" stroke-width="6" stroke-miterlimit="10" d="M186.6,606.7c0,18.5,15,33.4,33.4,33.4"/>
			<path fill="none" stroke="#221F1F" stroke-width="2" stroke-miterlimit="10" d="M186.6,606.7c0,18.5,15,33.4,33.4,33.4"/>
		</g>
		<g>
			<path fill="none" stroke="#FFFFFF" stroke-width="6" stroke-miterlimit="10" d="M431,606.7c0,18.5-15,33.4-33.4,33.4"/>
			<path fill="none" stroke="#221F1F" stroke-width="2" stroke-miterlimit="10" d="M431,606.7c0,18.5-15,33.4-33.4,33.4"/>
		</g>
	</g>
</g>
<g id="step-3-in-out" display="none">
	
		<text transform="matrix(1.0483 0 0 1 241.8506 633.9121)" display="inline" fill="#231F20" font-family="'ApexNew-Book'" font-size="9.3821">edit</text>
	<path display="inline" fill="#58595B" d="M257.7,645.6l-3.8,3.8l5.8,5.8l3.8-3.8L257.7,645.6z M236.6,666.6v5.8h5.7l15.3-15.3
		l-5.8-5.8L236.6,666.6z M242.3,670.4h-3.8v-3.8h1.9v1.9h1.9L242.3,670.4L242.3,670.4z"/>
	<path id="border_7_" display="inline" fill="#3F81C3" d="M228.8,560.6c4.4,0,8,3.6,8,8v24.1c0,4.4-3.6,8-8,8h-85.6
		c-4.4,0-8-3.6-8-8v-24.1c0-4.4,3.6-8,8-8H228.8 M228.8,557.3h-85.6c-6.3,0-11.4,5.1-11.4,11.4v24.1c0,6.3,5.1,11.4,11.4,11.4h85.6
		c6.3,0,11.4-5.1,11.4-11.4v-24.1C240.2,562.5,235.1,557.3,228.8,557.3L228.8,557.3z"/>
	<g id="edit" display="inline">
		<g>
			<path fill="#221F1F" d="M220.3,639.6v1.3c0,0,2.1,0,6,0c6.1,0,39.4,0,44.7,0c2.9,0,4.4,0,4.4,0c0-0.5,0-0.9,0-1.3
				c0,0-1.5,0-4.4,0c-5.3,0-38.6,0-44.7,0C222.5,639.6,220.3,639.6,220.3,639.6z"/>
		</g>
		<g>
			<path fill="#221F1F" d="M307.7,597.8c0,0,0,3.8,0,6.7c0,1.7,0,2.9,0,2.9h2.7c0,0,0-1.3,0-2.9c0-2.8,0-6.7,0-6.7H307.7z"/>
			<path fill="#FFFFFF" d="M309.7,606.7c-0.5,0-0.9,0-1.3,0c0,0,0-1,0-2.3c0-2.5,0-6,0-6h1.3c0,0,0,3.6,0,6
				C309.7,605.7,309.7,606.7,309.7,606.7 M311,608.1v-1.3c0,0,0-1,0-2.3c0-2.5,0-6,0-6v-1.3h-1.3h-1.3H307v1.3c0,0,0,3.6,0,6
				c0,1.3,0,2.3,0,2.3v1.3h1.3h1.3H311L311,608.1z"/>
		</g>
		<g>
			<path fill="#221F1F" d="M185.7,595.4c0,0,0,5.6,0,9c0,1.6,0,2.8,0,2.8h2.3c0,0,0-1.2,0-2.8c0-3.5,0-9,0-9H185.7z"/>
			<path fill="#FFFFFF" d="M187.6,606.7c-0.5,0-0.9,0-1.3,0c0,0,0-0.9,0-2.3c0-3.2,0-8.6,0-8.6h1.3c0,0,0,5.4,0,8.6
				C187.6,605.8,187.6,606.7,187.6,606.7 M188.6,607.8v-1c0,0,0-0.9,0-2.3c0-3.2,0-8.6,0-8.6v-1h-1h-1.3h-1v1c0,0,0,5.4,0,8.6
				c0,1.3,0,2.3,0,2.3v1h1h1.3H188.6L188.6,607.8z"/>
		</g>
		<path fill="#221F1F" d="M309,590.9l-5.5,5.9c-0.3,0.3-0.3,0.7,0,0.9c0.3,0.3,0.7,0.3,0.9,0c0,0,0,0,0-0.1l0,0l3.8-4.1v7.3
			c0.5,0,0.9,0,1.3,0v-7.3l3.8,4.2c0.3,0.3,0.7,0.3,0.9,0c0.3-0.3,0.3-0.7,0-0.9l0,0L309,590.9z"/>
		<g>
			<path fill="none" stroke="#FFFFFF" stroke-width="6" stroke-miterlimit="10" d="M309,606.7c0,18.5-15,33.4-33.4,33.4"/>
			<path fill="none" stroke="#221F1F" stroke-width="1.65" stroke-miterlimit="10" d="M309,606.7c0,18.5-15,33.4-33.4,33.4"/>
		</g>
		<g>
			<path fill="none" stroke="#FFFFFF" stroke-width="6" stroke-miterlimit="10" d="M186.9,606.7c0,18.5,15,33.4,33.4,33.4"/>
			<path fill="none" stroke="#221F1F" stroke-width="1.65" stroke-miterlimit="10" d="M186.9,606.7c0,18.5,15,33.4,33.4,33.4"/>
		</g>
	</g>
</g>
<g id="step-4-in-out" display="none">
	
		<text transform="matrix(1.0483 0 0 1 365.459 633.9121)" display="inline" fill="#231F20" font-family="'ApexNew-Book'" font-size="9.3821">add</text>
	<path display="inline" fill="#58595B" d="M375.8,653.2H372v3.8h-3.8v3.8h3.8v3.8h3.8v-3.8h3.8V657h-3.8V653.2z M385.3,645.6h-23
		c-1.9,0-1.9,1.9-1.9,1.9v22.9c0,0,0,1.9,1.9,1.9c0,0,21,0,23,0s1.9-1.9,1.9-1.9v-23C387.2,647.4,387.2,645.6,385.3,645.6z
		 M383.4,667.5c0,0.9-0.9,0.9-0.9,0.9h-17.2c0,0-0.9,0-0.9-0.9v-17.2c0-0.9,0.9-0.9,0.9-0.9h17.2c0,0,0.9,0,0.9,0.9
		C383.4,650.3,383.4,666.7,383.4,667.5z"/>
	<path id="border_2_" display="inline" fill="#3F81C3" d="M349.9,560.6c4.4,0,8,3.6,8,8v24.1c0,4.4-3.6,8-8,8h-85.6
		c-4.4,0-8-3.6-8-8v-24.1c0-4.4,3.6-8,8-8H349.9 M349.9,557.3h-85.6c-6.3,0-11.4,5.1-11.4,11.4v24.1c0,6.3,5.1,11.4,11.4,11.4h85.6
		c6.3,0,11.4-5.1,11.4-11.4v-24.1C361.3,562.5,356.1,557.3,349.9,557.3L349.9,557.3z"/>
	<g id="add_5_" display="inline">
		<g>
			<path fill="#221F1F" d="M342.6,639.6v1.3c0,0,2.1,0,6,0c6.1,0,39.2,0,44.5,0c2.9,0,4.4,0,4.4,0c0-0.5,0-0.9,0-1.3
				c0,0-1.5,0-4.4,0c-5.3,0-38.4,0-44.5,0C344.7,639.6,342.6,639.6,342.6,639.6z"/>
		</g>
		<g>
			<path fill="#221F1F" d="M429.7,597.8c0,0,0,3.8,0,6.7c0,1.7,0,2.9,0,2.9h2.7c0,0,0-1.3,0-2.9c0-2.8,0-6.7,0-6.7H429.7z"/>
			<path fill="#FFFFFF" d="M431.7,606.7c-0.5,0-0.9,0-1.3,0c0,0,0-1,0-2.3c0-2.5,0-6,0-6h1.3c0,0,0,3.6,0,6
				C431.7,605.7,431.7,606.7,431.7,606.7 M433.1,608.1v-1.3c0,0,0-1,0-2.3c0-2.5,0-6,0-6v-1.3h-1.3h-1.3H429v1.3c0,0,0,3.6,0,6
				c0,1.3,0,2.3,0,2.3v1.3h1.3h1.3H433.1L433.1,608.1z"/>
		</g>
		<g>
			<path fill="#221F1F" d="M308,595.4c0,0,0,5.6,0,9c0,1.6,0,2.8,0,2.8h2.3c0,0,0-1.2,0-2.8c0-3.5,0-9,0-9H308z"/>
			<path fill="#FFFFFF" d="M309.8,606.7c-0.5,0-0.9,0-1.3,0c0,0,0-0.9,0-2.3c0-3.2,0-8.6,0-8.6h1.3c0,0,0,5.4,0,8.6
				C309.8,605.8,309.8,606.7,309.8,606.7 M310.8,607.8v-1c0,0,0-0.9,0-2.3c0-3.2,0-8.6,0-8.6v-1h-1h-1.3h-1v1c0,0,0,5.4,0,8.6
				c0,1.3,0,2.3,0,2.3v1h1h1.3H310.8L310.8,607.8z"/>
		</g>
		<path fill="#221F1F" d="M431,590.9l-5.5,5.9c-0.3,0.3-0.3,0.7,0,0.9c0.3,0.3,0.7,0.3,0.9,0c0,0,0,0,0-0.1l0,0l3.8-4.1v7.3
			c0.5,0,0.9,0,1.3,0v-7.3l3.8,4.2c0.3,0.3,0.7,0.3,0.9,0c0.3-0.3,0.3-0.7,0-0.9l0,0L431,590.9z"/>
		<g>
			<path fill="none" stroke="#FFFFFF" stroke-width="6" stroke-miterlimit="10" d="M431,606.7c0,18.5-15,33.4-33.4,33.4"/>
			<path fill="none" stroke="#221F1F" stroke-width="1.55" stroke-miterlimit="10" d="M431,606.7c0,18.5-15,33.4-33.4,33.4"/>
		</g>
		<g>
			<path fill="none" stroke="#FFFFFF" stroke-width="6" stroke-miterlimit="10" d="M309.1,606.7c0,18.5,15,33.4,33.4,33.4"/>
			<path fill="none" stroke="#221F1F" stroke-width="1.55" stroke-miterlimit="10" d="M309.1,606.7c0,18.5,15,33.4,33.4,33.4"/>
		</g>
	</g>
</g>
<g id="step-5">
	<path fill="#58595B" d="M121.4,657v3.8h11.5V657H121.4z M138.7,645.6h-23c-1.9,0-1.9,1.9-1.9,1.9v22.9c0,0,0,1.9,1.9,1.9
		c0,0,21,0,23,0c1.9,0,1.9-1.9,1.9-1.9v-23C140.5,647.4,140.5,645.6,138.7,645.6z M136.7,667.5c0,0.9-0.9,0.9-0.9,0.9h-17.2
		c0,0-0.9,0-0.9-0.9v-17.2c0-0.9,0.9-0.9,0.9-0.9h17.2c0,0,0.9,0,0.9,0.9C136.7,650.3,136.7,666.7,136.7,667.5z"/>
	<text transform="matrix(1.0208 0 0 1 111.7095 633.9121)" fill="#231F20" font-family="'ApexNew-Book'" font-size="9.3821">remove</text>
	<path id="border_4_" fill="#3F81C3" d="M228.8,560.6c4.4,0,8,3.6,8,8v24.1c0,4.4-3.6,8-8,8h-85.6c-4.4,0-8-3.6-8-8v-24.1
		c0-4.4,3.6-8,8-8H228.8 M228.8,557.3h-85.6c-6.3,0-11.4,5.1-11.4,11.4v24.1c0,6.3,5.1,11.4,11.4,11.4h85.6
		c6.3,0,11.4-5.1,11.4-11.4v-24.1C240.2,562.5,235.1,557.3,228.8,557.3L228.8,557.3z"/>
	<g id="add_2_">
		<g>
			<path fill="#221F1F" d="M153.1,639.6v1.3c0,0-2.1,0-6,0c-6.2,0-39.9,0-45.3,0c-2.9,0-4.4,0-4.4,0c0-0.5,0-0.9,0-1.3
				c0,0,1.5,0,4.4,0c5.4,0,39.1,0,45.3,0C151,639.6,153.1,639.6,153.1,639.6z"/>
		</g>
		<g>
			<path fill="#221F1F" d="M65.3,597.8c0,0,0,3.8,0,6.7c0,1.7,0,2.9,0,2.9h-2.7c0,0,0-1.3,0-2.9c0-2.8,0-6.7,0-6.7H65.3z"/>
			<path fill="#FFFFFF" d="M63.3,606.7c0,0,0-1,0-2.3c0-2.5,0-6,0-6h1.3c0,0,0,3.6,0,6c0,1.3,0,2.3,0,2.3
				C64.1,606.7,63.7,606.7,63.3,606.7 M61.9,608.1h1.3h1.3h1.3v-1.3c0,0,0-1,0-2.3c0-2.5,0-6,0-6v-1.3h-1.3h-1.3h-1.3v1.3
				c0,0,0,3.6,0,6c0,1.3,0,2.3,0,2.3V608.1L61.9,608.1z"/>
		</g>
		<g>
			<path fill="#221F1F" d="M187.8,595.4c0,0,0,5.6,0,9c0,1.6,0,2.8,0,2.8h-2.3c0,0,0-1.2,0-2.8c0-3.5,0-9,0-9H187.8z"/>
			<path fill="#FFFFFF" d="M185.9,606.7c0,0,0-0.9,0-2.3c0-3.2,0-8.6,0-8.6h1.3c0,0,0,5.4,0,8.6c0,1.3,0,2.3,0,2.3
				C186.8,606.7,186.4,606.7,185.9,606.7 M184.9,607.8h1h1.3h1v-1c0,0,0-0.9,0-2.3c0-3.2,0-8.6,0-8.6v-1h-1h-1.3h-1v1
				c0,0,0,5.4,0,8.6c0,1.3,0,2.3,0,2.3V607.8L184.9,607.8z"/>
		</g>
		<path fill="#221F1F" d="M63.9,590.9l5.5,5.9c0.3,0.3,0.3,0.7,0,0.9c-0.3,0.3-0.7,0.3-0.9,0c0,0,0,0,0-0.1l0,0l-3.8-4.1v7.3
			c-0.5,0-0.9,0-1.3,0v-7.3l-3.8,4.2c-0.3,0.3-0.7,0.3-0.9,0c-0.3-0.3-0.3-0.7,0-0.9l0,0L63.9,590.9z"/>
		<g>
			<path fill="none" stroke="#FFFFFF" stroke-width="6" stroke-miterlimit="10" d="M63.9,606.7c0,18.5,15,33.4,33.4,33.4"/>
			<path fill="none" stroke="#221F1F" stroke-width="1.55" stroke-miterlimit="10" d="M63.9,606.7c0,18.5,15,33.4,33.4,33.4"/>
		</g>
		<g>
			<path fill="none" stroke="#FFFFFF" stroke-width="6" stroke-miterlimit="10" d="M186.6,606.7c0,18.5-15,33.4-33.4,33.4"/>
			<path fill="none" stroke="#221F1F" stroke-width="1.55" stroke-miterlimit="10" d="M186.6,606.7c0,18.5-15,33.4-33.4,33.4"/>
		</g>
	</g>
</g>
</svg>
