<?xml version="1.0" encoding="utf-8"?>
<!-- Generator: Adobe Illustrator 17.1.0, SVG Export Plug-In . SVG Version: 6.00 Build 0)  -->
<!DOCTYPE svg PUBLIC "-//W3C//DTD SVG 1.1//EN" "http://www.w3.org/Graphics/SVG/1.1/DTD/svg11.dtd">
<svg version="1.1" id="Diff" xmlns="http://www.w3.org/2000/svg" xmlns:xlink="http://www.w3.org/1999/xlink" x="0px" y="0px"
	 viewBox="5 268.2 461.8 119.6" enable-background="new 5 268.2 461.8 119.6" xml:space="preserve">
<g id="base">
	<g id="untracked">
		<text transform="matrix(1 0 0 1 15.3471 303.962)" fill="#221F1F" font-family="'HelveticaNeue-Light'" font-size="17.9889">untracked</text>
		<g id="border_28_">
			<path fill="#414141" d="M95.6,280.3c4,0,7.2,3.2,7.2,7.2v23.3c0,4-3.2,7.2-7.2,7.2H12.8c-4,0-7.2-3.2-7.2-7.2v-23.3
				c0-4,3.2-7.2,7.2-7.2H95.6 M95.6,279.7H12.8c-4.3,0-7.8,3.5-7.8,7.8v23.3c0,4.3,3.5,7.8,7.8,7.8h82.8c4.3,0,7.8-3.5,7.8-7.8
				v-23.3C103.3,283.2,99.9,279.7,95.6,279.7L95.6,279.7z"/>
		</g>
	</g>
	<g id="unmodified">
		<g id="border_1_">
			<path fill="#414141" d="M214.7,280.3c4,0,7.2,3.2,7.2,7.2v23.3c0,4-3.2,7.2-7.2,7.2h-82.8c-4,0-7.2-3.2-7.2-7.2v-23.3
				c0-4,3.2-7.2,7.2-7.2H214.7 M214.7,279.7h-82.8c-4.3,0-7.8,3.5-7.8,7.8v23.3c0,4.3,3.5,7.8,7.8,7.8h82.8c4.3,0,7.8-3.5,7.8-7.8
				v-23.3C222.4,283.2,218.9,279.7,214.7,279.7L214.7,279.7z"/>
		</g>
		<text transform="matrix(1 0 0 1 130.4324 303.962)" fill="#221F1F" font-family="'HelveticaNeue-Light'" font-size="17.9889">unmodified</text>
	</g>
	<g id="modified">
		<g id="border_25_">
			<path fill="#414141" d="M331.8,280.3c4,0,7.2,3.2,7.2,7.2v23.3c0,4-3.2,7.2-7.2,7.2H249c-4,0-7.2-3.2-7.2-7.2v-23.3
				c0-4,3.2-7.2,7.2-7.2H331.8 M331.8,279.7H249c-4.3,0-7.8,3.5-7.8,7.8v23.3c0,4.3,3.5,7.8,7.8,7.8h82.8c4.3,0,7.8-3.5,7.8-7.8
				v-23.3C339.5,283.2,336.1,279.7,331.8,279.7L331.8,279.7z"/>
		</g>
		<text transform="matrix(1 0 0 1 257.2173 303.962)" fill="#221F1F" font-family="'HelveticaNeue-Light'" font-size="17.9889">modified</text>
	</g>
	<g id="staged">
		<g id="border_22_">
			<path fill="#414141" d="M448.9,280.3c4,0,7.2,3.2,7.2,7.2v23.3c0,4-3.2,7.2-7.2,7.2h-82.8c-4,0-7.2-3.2-7.2-7.2v-23.3
				c0-4,3.2-7.2,7.2-7.2H448.9 M448.9,279.7h-82.8c-4.3,0-7.8,3.5-7.8,7.8v23.3c0,4.3,3.5,7.8,7.8,7.8H449c4.3,0,7.8-3.5,7.8-7.8
				v-23.3C456.7,283.2,453.1,279.7,448.9,279.7L448.9,279.7z"/>
		</g>
		<text transform="matrix(1 0 0 1 380.9975 303.962)" fill="#221F1F" font-family="'HelveticaNeue-Light'" font-size="17.9889">staged</text>
	</g>
	<g id="border_tracked" opacity="0.3">
		<path fill="#414141" d="M452,268.9c7.8,0,14.2,6.4,14.2,14.2V317c0,7.8-6.4,14.2-14.2,14.2H129.1c-7.8,0-14.2-6.4-14.2-14.2v-33.9
			c0-7.8,6.4-14.2,14.2-14.2H452 M452,268.2H129.1c-8.1,0-14.9,6.8-14.9,14.9V317c0,8.2,6.8,14.9,14.9,14.9h322.8
			c8.2,0,14.9-6.7,14.9-14.9v-33.9C466.9,275,460.2,268.2,452,268.2L452,268.2z"/>
	</g>
</g>
<g id="step-1-in-out" display="none">
	
		<text transform="matrix(1.0483 0 0 1 111.373 950.5664)" display="inline" fill="#231F20" font-family="'ApexNew-Book'" font-size="9.076">add</text>
	<path display="inline" fill="#58595B" d="M121.3,969.2h-3.7v3.7H114v3.7h3.7v3.7h3.7v-3.7h3.7v-3.7h-3.7L121.3,969.2L121.3,969.2z
		 M130.6,961.9h-22.3c-1.9,0-1.9,1.9-1.9,1.9v22.1c0,0,0,1.9,1.9,1.9c0,0,20.3,0,22.3,0c1.9,0,1.9-1.9,1.9-1.9v-22.3
		C132.4,963.6,132.4,961.9,130.6,961.9z M128.8,983c0,0.9-0.9,0.9-0.9,0.9h-16.7c0,0-0.9,0-0.9-0.9v-16.7c0-0.9,0.9-0.9,0.9-0.9
		h16.7c0,0,0.9,0,0.9,0.9C128.8,966.4,128.8,982.3,128.8,983z"/>
	<path id="border_23_" display="inline" fill="#3F81C3" d="M-20,879.7c4.3,0,7.8,3.5,7.8,7.8v23.3c0,4.3-3.5,7.8-7.8,7.8h-82.8
		c-4.3,0-7.8-3.5-7.8-7.8v-23.3c0-4.3,3.5-7.8,7.8-7.8H-20 M-20,876.5h-82.8c-6.1,0-11,5-11,11v23.3c0,6.1,5,11,11,11H-20
		c6.1,0,11-5,11-11v-23.3C-9,881.5-13.9,876.5-20,876.5L-20,876.5z"/>
	<g id="add" display="inline">
		<g>
			<path fill="#221F1F" d="M-28,956.1v1.3c0,0,2,0,5.8,0c38.2,0,247,0,280.1,0c2.8,0,4.3,0,4.3,0c0-0.5,0-0.9,0-1.3c0,0-1.5,0-4.3,0
				c-33.2,0-241.8,0-280.1,0C-26,956.1-28,956.1-28,956.1z"/>
		</g>
		<g>
			<path fill="#221F1F" d="M293.3,915.6c0,0,0,3.7,0,6.5c0,1.6,0,2.8,0,2.8h2.6c0,0,0-1.3,0-2.8c0-2.7,0-6.5,0-6.5H293.3z"/>
			<path fill="#FFFFFF" d="M295.3,924.2c-0.5,0-0.9,0-1.3,0c0,0,0-1,0-2.2c0-2.4,0-5.8,0-5.8h1.3c0,0,0,3.5,0,5.8
				C295.3,923.3,295.3,924.2,295.3,924.2 M296.6,925.6v-1.3c0,0,0-1,0-2.2c0-2.4,0-5.8,0-5.8V915h-1.3H294h-1.3v1.3c0,0,0,3.5,0,5.8
				c0,1.3,0,2.2,0,2.2v1.3h1.3h1.3H296.6L296.6,925.6z"/>
		</g>
		<g>
			<path fill="#221F1F" d="M-61.5,913.3c0,0,0,5.4,0,8.7c0,1.6,0,2.7,0,2.7h2.2c0,0,0-1.2,0-2.7c0-3.4,0-8.7,0-8.7H-61.5z"/>
			<path fill="#FFFFFF" d="M-59.8,924.2c-0.5,0-0.9,0-1.3,0c0,0,0-0.9,0-2.2c0-3.1,0-8.3,0-8.3h1.3c0,0,0,5.2,0,8.3
				C-59.8,923.4-59.8,924.2-59.8,924.2 M-58.8,925.3v-1c0,0,0-0.9,0-2.2c0-3.1,0-8.3,0-8.3v-1h-1h-1.3h-1v1c0,0,0,5.2,0,8.3
				c0,1.3,0,2.2,0,2.2v1h1h1.3H-58.8L-58.8,925.3z"/>
		</g>
		<path fill="#221F1F" d="M294.7,909l-5.3,5.7c-0.3,0.3-0.3,0.7,0,0.9c0.3,0.3,0.7,0.3,0.9,0c0,0,0,0,0-0.1l0,0l3.7-4v7.1
			c0.5,0,0.9,0,1.3,0v-7.1l3.7,4.1c0.3,0.3,0.7,0.3,0.9,0c0.3-0.3,0.3-0.7,0-0.9l0,0L294.7,909z"/>
		<g>
			<path fill="none" stroke="#FFFFFF" stroke-width="6" stroke-miterlimit="10" d="M294.7,924.2c0,17.9-14.5,32.3-32.3,32.3"/>
			<path fill="none" stroke="#221F1F" stroke-width="2" stroke-miterlimit="10" d="M294.7,924.2c0,17.9-14.5,32.3-32.3,32.3"/>
		</g>
		<g>
			<path fill="none" stroke="#FFFFFF" stroke-width="6" stroke-miterlimit="10" d="M-60.4,924.2c0,17.9,14.5,32.3,32.3,32.3"/>
			<path fill="none" stroke="#221F1F" stroke-width="2" stroke-miterlimit="10" d="M-60.4,924.2c0,17.9,14.5,32.3,32.3,32.3"/>
		</g>
	</g>
</g>
<g id="step-2-in-out" display="none">
	
		<text transform="matrix(1.0208 0 0 1 167.8257 950.5674)" display="inline" fill="#231F20" font-family="'ApexNew-Book'" font-size="9.076">commit</text>
	<path display="inline" fill="#58595B" d="M195,961.9h-22.3c-1.9,0-1.9,1.9-1.9,1.9v22.1c0,0,0,1.9,1.9,1.9c0,0,20.3,0,22.3,0
		c1.9,0,1.9-1.9,1.9-1.9v-22.3C197,963.6,197,961.9,195,961.9z M193.3,983c0,0.9-0.9,0.9-0.9,0.9h-16.7c0,0-0.9,0-0.9-0.9v-16.7
		c0-0.9,0.9-0.9,0.9-0.9h16.7c0,0,0.9,0,0.9,0.9C193.3,966.4,193.3,982.3,193.3,983z M184,971c-2,0-3.7,1.6-3.7,3.7
		c0,2,1.6,3.7,3.7,3.7s3.7-1.6,3.7-3.7C187.7,972.7,186.1,971,184,971z"/>
	<path display="inline" fill="#58595B" d="M182.3,968.4h-1.6v1.6h1.6V968.4z M182.3,965h-1.6v1.6h1.6V965z M191.9,961.9h-16.3
		c0,0-1.6,0-1.6,1.6V983c0,1.6,1.6,1.6,1.6,1.6h3.3v3.3l2.4-2.4l2.4,2.4v-3.4h8.1c0,0,1.6,0,1.6-1.6v-19.5
		C193.6,961.9,191.9,961.9,191.9,961.9z M191.9,981.3c0,1.6-1.6,1.6-1.6,1.6h-6.5v-1.6H179v1.6h-1.6c-1.6,0-1.6-1.6-1.6-1.6v-1.6
		H192L191.9,981.3L191.9,981.3z M191.9,978H179v-14.6h12.9V978z M182.3,974.8h-1.6v1.6h1.6V974.8z M182.3,971.6h-1.6v1.6h1.6V971.6z
		"/>
	<path id="border_12_" display="inline" fill="#3F81C3" d="M333.3,879.7c4.3,0,7.8,3.5,7.8,7.8v23.3c0,4.3-3.5,7.8-7.8,7.8h-82.8
		c-4.3,0-7.8-3.5-7.8-7.8v-23.3c0-4.3,3.5-7.8,7.8-7.8H333.3 M333.3,876.5h-82.8c-6.1,0-11,5-11,11v23.3c0,6.1,5,11,11,11h82.9
		c6.1,0,11-5,11-11v-23.3C344.3,881.5,339.4,876.5,333.3,876.5L333.3,876.5z"/>
	<g id="add_3_" display="inline">
		<g>
			<path fill="#221F1F" d="M262.3,956.1v1.3c0,0-2,0-5.8,0c-22.1,0-142.4,0-161.7,0c-2.8,0-4.3,0-4.3,0c0-0.5,0-0.9,0-1.3
				c0,0,1.5,0,4.3,0c19.2,0,139.5,0,161.7,0C260.3,956.1,262.3,956.1,262.3,956.1z"/>
		</g>
		<g>
			<path fill="#221F1F" d="M59.6,915.6c0,0,0,3.7,0,6.5c0,1.6,0,2.8,0,2.8H57c0,0,0-1.3,0-2.8c0-2.7,0-6.5,0-6.5H59.6z"/>
			<path fill="#FFFFFF" d="M57.7,924.2c0,0,0-1,0-2.2c0-2.4,0-5.8,0-5.8H59c0,0,0,3.5,0,5.8c0,1.3,0,2.2,0,2.2
				C58.4,924.2,58,924.2,57.7,924.2 M56.3,925.6h1.3h1.3h1.3v-1.3c0,0,0-1,0-2.2c0-2.4,0-5.8,0-5.8V915h-1.3h-1.2h-1.3v1.3
				c0,0,0,3.5,0,5.8c0,1.3,0,2.2,0,2.2L56.3,925.6L56.3,925.6z"/>
		</g>
		<g>
			<path fill="#221F1F" d="M295.9,913.3c0,0,0,5.4,0,8.7c0,1.6,0,2.7,0,2.7h-2.3c0,0,0-1.2,0-2.7c0-3.4,0-8.7,0-8.7H295.9z"/>
			<path fill="#FFFFFF" d="M294.1,924.2c0,0,0-0.9,0-2.2c0-3.1,0-8.3,0-8.3h1.3c0,0,0,5.2,0,8.3c0,1.3,0,2.2,0,2.2
				C294.9,924.2,294.5,924.2,294.1,924.2 M293.1,925.3h1h1.3h1v-1c0,0,0-0.9,0-2.2c0-3.1,0-8.3,0-8.3v-1h-1H294h-1v1
				c0,0,0,5.2,0,8.3c0,1.3,0,2.2,0,2.2L293.1,925.3L293.1,925.3z"/>
		</g>
		<path fill="#221F1F" d="M58.3,909l5.3,5.7c0.3,0.3,0.3,0.7,0,0.9c-0.3,0.3-0.7,0.3-0.9,0c0,0,0,0,0-0.1l0,0l-3.7-4v7.1
			c-0.5,0-0.9,0-1.3,0v-7.1l-3.7,4.1c-0.3,0.3-0.7,0.3-0.9,0s-0.3-0.7,0-0.9l0,0L58.3,909z"/>
		<g>
			<path fill="none" stroke="#FFFFFF" stroke-width="6" stroke-miterlimit="10" d="M58.3,924.2c0,17.9,14.5,32.3,32.3,32.3"/>
			<path fill="none" stroke="#221F1F" stroke-width="2" stroke-miterlimit="10" d="M58.3,924.2c0,17.9,14.5,32.3,32.3,32.3"/>
		</g>
		<g>
			<path fill="none" stroke="#FFFFFF" stroke-width="6" stroke-miterlimit="10" d="M294.7,924.2c0,17.9-14.5,32.3-32.3,32.3"/>
			<path fill="none" stroke="#221F1F" stroke-width="2" stroke-miterlimit="10" d="M294.7,924.2c0,17.9-14.5,32.3-32.3,32.3"/>
		</g>
	</g>
</g>
<g id="step-3-in-out" display="none">
	
		<text transform="matrix(1.0483 0 0 1 111.6934 950.5664)" display="inline" fill="#231F20" font-family="'ApexNew-Book'" font-size="9.076">edit</text>
	<path display="inline" fill="#58595B" d="M127,961.9l-3.7,3.7l5.6,5.6l3.7-3.7L127,961.9z M106.6,982.2v5.6h5.5L127,973l-5.6-5.6
		L106.6,982.2z M112.1,985.8h-3.7v-3.7h1.9v1.9h1.9L112.1,985.8L112.1,985.8z"/>
	<path id="border_7_" display="inline" fill="#3F81C3" d="M99.1,879.7c4.3,0,7.8,3.5,7.8,7.8v23.3c0,4.3-3.5,7.8-7.8,7.8H16.2
		c-4.3,0-7.8-3.5-7.8-7.8v-23.3c0-4.3,3.5-7.8,7.8-7.8H99.1 M99.1,876.5H16.2c-6.1,0-11,5-11,11v23.3c0,6.1,5,11,11,11H99
		c6.1,0,11-5,11-11v-23.3C110.1,881.5,105.2,876.5,99.1,876.5L99.1,876.5z"/>
	<g id="edit" display="inline">
		<g>
			<path fill="#221F1F" d="M90.8,956.1v1.3c0,0,2,0,5.8,0c5.9,0,38.1,0,43.2,0c2.8,0,4.3,0,4.3,0c0-0.5,0-0.9,0-1.3c0,0-1.5,0-4.3,0
				c-5.1,0-37.4,0-43.2,0C93,956.1,90.8,956.1,90.8,956.1z"/>
		</g>
		<g>
			<path fill="#221F1F" d="M175.4,915.6c0,0,0,3.7,0,6.5c0,1.6,0,2.8,0,2.8h2.6c0,0,0-1.3,0-2.8c0-2.7,0-6.5,0-6.5H175.4z"/>
			<path fill="#FFFFFF" d="M177.3,924.2c-0.5,0-0.9,0-1.3,0c0,0,0-1,0-2.2c0-2.4,0-5.8,0-5.8h1.3c0,0,0,3.5,0,5.8
				C177.3,923.3,177.3,924.2,177.3,924.2 M178.6,925.6v-1.3c0,0,0-1,0-2.2c0-2.4,0-5.8,0-5.8V915h-1.3H176h-1.3v1.3c0,0,0,3.5,0,5.8
				c0,1.3,0,2.2,0,2.2v1.3h1.3h1.3H178.6L178.6,925.6z"/>
		</g>
		<g>
			<path fill="#221F1F" d="M57.4,913.3c0,0,0,5.4,0,8.7c0,1.6,0,2.7,0,2.7h2.2c0,0,0-1.2,0-2.7c0-3.4,0-8.7,0-8.7H57.4z"/>
			<path fill="#FFFFFF" d="M59.2,924.2c-0.5,0-0.9,0-1.3,0c0,0,0-0.9,0-2.2c0-3.1,0-8.3,0-8.3h1.3c0,0,0,5.2,0,8.3
				C59.2,923.4,59.2,924.2,59.2,924.2 M60.2,925.3v-1c0,0,0-0.9,0-2.2c0-3.1,0-8.3,0-8.3v-1h-1h-1.3H57v1c0,0,0,5.2,0,8.3
				c0,1.3,0,2.2,0,2.2v1h1h1.3H60.2L60.2,925.3z"/>
		</g>
		<path fill="#221F1F" d="M176.7,909l-5.3,5.7c-0.3,0.3-0.3,0.7,0,0.9c0.3,0.3,0.7,0.3,0.9,0c0,0,0,0,0-0.1l0,0l3.7-4v7.1
			c0.5,0,0.9,0,1.3,0v-7.1l3.7,4.1c0.3,0.3,0.7,0.3,0.9,0c0.3-0.3,0.3-0.7,0-0.9l0,0L176.7,909z"/>
		<g>
			<path fill="none" stroke="#FFFFFF" stroke-width="6" stroke-miterlimit="10" d="M176.7,924.2c0,17.9-14.5,32.3-32.3,32.3"/>
			<path fill="none" stroke="#221F1F" stroke-width="1.65" stroke-miterlimit="10" d="M176.7,924.2c0,17.9-14.5,32.3-32.3,32.3"/>
		</g>
		<g>
			<path fill="none" stroke="#FFFFFF" stroke-width="6" stroke-miterlimit="10" d="M58.6,924.2c0,17.9,14.5,32.3,32.3,32.3"/>
			<path fill="none" stroke="#221F1F" stroke-width="1.65" stroke-miterlimit="10" d="M58.6,924.2c0,17.9,14.5,32.3,32.3,32.3"/>
		</g>
	</g>
</g>
<text transform="matrix(1.0483 0 0 1 346.8721 350.5664)" fill="#231F20" font-family="'ApexNew-Book'" font-size="9.076">add</text>
<path fill="#58595B" d="M356.9,369.2h-3.7v3.7h-3.7v3.7h3.7v3.7h3.7v-3.7h3.7v-3.7h-3.7V369.2z M366.1,361.9h-22.3
	c-1.9,0-1.9,1.9-1.9,1.9v22.1c0,0,0,1.9,1.9,1.9c0,0,20.3,0,22.3,0c1.9,0,1.9-1.9,1.9-1.9v-22.3
	C367.9,363.6,367.9,361.9,366.1,361.9z M364.3,383c0,0.9-0.9,0.9-0.9,0.9h-16.7c0,0-0.9,0-0.9-0.9v-16.7c0-0.9,0.9-0.9,0.9-0.9h16.7
	c0,0,0.9,0,0.9,0.9C364.3,366.4,364.3,382.3,364.3,383z"/>
<path id="border_2_" fill="#3F81C3" d="M331.8,279.7c4.3,0,7.8,3.5,7.8,7.8v23.3c0,4.3-3.5,7.8-7.8,7.8H249c-4.3,0-7.8-3.5-7.8-7.8
	v-23.3c0-4.3,3.5-7.8,7.8-7.8H331.8 M331.8,276.5H249c-6.1,0-11,5-11,11v23.3c0,6.1,5,11,11,11h82.8c6.1,0,11-5,11-11v-23.3
	C342.9,281.5,337.8,276.5,331.8,276.5L331.8,276.5z"/>
<g id="step-5" display="none">
	<path display="inline" fill="#58595B" d="M-4.8,972.9v3.7H6.3v-3.7H-4.8z M11.9,961.9h-22.2c-1.9,0-1.9,1.9-1.9,1.9v22.1
		c0,0,0,1.9,1.9,1.9c0,0,20.3,0,22.3,0c1.9,0,1.9-1.9,1.9-1.9v-22.3C13.6,963.6,13.6,961.9,11.9,961.9z M10,983
		c0,0.9-0.9,0.9-0.9,0.9H-7.5c0,0-0.9,0-0.9-0.9v-16.7c0-0.9,0.9-0.9,0.9-0.9H9.1c0,0,0.9,0,0.9,0.9C10,966.4,10,982.3,10,983z"/>
	
		<text transform="matrix(1.0208 0 0 1 -14.2031 950.5674)" display="inline" fill="#231F20" font-family="'ApexNew-Book'" font-size="9.076">remove</text>
	<path id="border_4_" display="inline" fill="#3F81C3" d="M99.1,879.7c4.3,0,7.8,3.5,7.8,7.8v23.3c0,4.3-3.5,7.8-7.8,7.8H16.2
		c-4.3,0-7.8-3.5-7.8-7.8v-23.3c0-4.3,3.5-7.8,7.8-7.8H99.1 M99.1,876.5H16.2c-6.1,0-11,5-11,11v23.3c0,6.1,5,11,11,11H99
		c6.1,0,11-5,11-11v-23.3C110.1,881.5,105.2,876.5,99.1,876.5L99.1,876.5z"/>
	<g id="add_2_" display="inline">
		<g>
			<path fill="#221F1F" d="M25.9,956.1v1.3c0,0-2,0-5.8,0c-6,0-38.6,0-43.8,0c-2.8,0-4.3,0-4.3,0c0-0.5,0-0.9,0-1.3c0,0,1.5,0,4.3,0
				c5.2,0,37.8,0,43.8,0C23.8,956.1,25.9,956.1,25.9,956.1z"/>
		</g>
		<g>
			<path fill="#221F1F" d="M-59.1,915.6c0,0,0,3.7,0,6.5c0,1.6,0,2.8,0,2.8h-2.6c0,0,0-1.3,0-2.8c0-2.7,0-6.5,0-6.5H-59.1z"/>
			<path fill="#FFFFFF" d="M-61,924.2c0,0,0-1,0-2.2c0-2.4,0-5.8,0-5.8h1.3c0,0,0,3.5,0,5.8c0,1.3,0,2.2,0,2.2
				C-60.3,924.2-60.7,924.2-61,924.2 M-62.4,925.6h1.3h1.3h1.3v-1.3c0,0,0-1,0-2.2c0-2.4,0-5.8,0-5.8V915h-1.3h-1.3h-1.3v1.3
				c0,0,0,3.5,0,5.8c0,1.3,0,2.2,0,2.2V925.6L-62.4,925.6z"/>
		</g>
		<g>
			<path fill="#221F1F" d="M59.4,913.3c0,0,0,5.4,0,8.7c0,1.6,0,2.7,0,2.7h-2.2c0,0,0-1.2,0-2.7c0-3.4,0-8.7,0-8.7H59.4z"/>
			<path fill="#FFFFFF" d="M57.6,924.2c0,0,0-0.9,0-2.2c0-3.1,0-8.3,0-8.3h1.3c0,0,0,5.2,0,8.3c0,1.3,0,2.2,0,2.2
				C58.4,924.2,58,924.2,57.6,924.2 M56.6,925.3h1h1.3h1v-1c0,0,0-0.9,0-2.2c0-3.1,0-8.3,0-8.3v-1h-1h-1.3h-1v1c0,0,0,5.2,0,8.3
				c0,1.3,0,2.2,0,2.2V925.3L56.6,925.3z"/>
		</g>
		<path fill="#221F1F" d="M-60.4,909l5.3,5.7c0.3,0.3,0.3,0.7,0,0.9c-0.3,0.3-0.7,0.3-0.9,0c0,0,0,0,0-0.1l0,0l-3.7-4v7.1
			c-0.5,0-0.9,0-1.3,0v-7.1l-3.7,4.1c-0.3,0.3-0.7,0.3-0.9,0c-0.3-0.3-0.3-0.7,0-0.9l0,0L-60.4,909z"/>
		<g>
			<path fill="none" stroke="#FFFFFF" stroke-width="6" stroke-miterlimit="10" d="M-60.4,924.2c0,17.9,14.5,32.3,32.3,32.3"/>
			<path fill="none" stroke="#221F1F" stroke-width="2" stroke-miterlimit="10" d="M-60.4,924.2c0,17.9,14.5,32.3,32.3,32.3"/>
		</g>
		<g>
			<path fill="none" stroke="#FFFFFF" stroke-width="6" stroke-miterlimit="10" d="M58.3,924.2c0,17.9-14.5,32.3-32.3,32.3"/>
			<path fill="none" stroke="#221F1F" stroke-width="2" stroke-miterlimit="10" d="M58.3,924.2c0,17.9-14.5,32.3-32.3,32.3"/>
		</g>
	</g>
</g>
<g>
	<path fill="#221F1F" d="M417.8,314.2L417.8,314.2c0.3,0.2,0.3,0.6,0,0.9c-0.2,0.3-0.6,0.3-0.9,0l-3.8-4.2h-1.3L408,315l0,0
		c0,0.1,0,0.1,0,0.1c-0.2,0.3-0.6,0.3-0.9,0c-0.3-0.2-0.3-0.6,0-0.9l5.5-5.9L417.8,314.2z"/>
	<path fill="none" stroke="#221F1F" stroke-width="1.55" stroke-miterlimit="10" d="M412.5,310.3v14c0,18.5-15,31.4-33.4,31.4h-55.9
		c-18.4,0-33.4-12.9-33.4-31.4v-16"/>
</g>
</svg>
