<?xml version="1.0" encoding="utf-8"?>
<!-- Generator: Adobe Illustrator 17.1.0, SVG Export Plug-In . SVG Version: 6.00 Build 0)  -->
<!DOCTYPE svg PUBLIC "-//W3C//DTD SVG 1.1//EN" "http://www.w3.org/Graphics/SVG/1.1/DTD/svg11.dtd">
<svg version="1.1" id="Diff" xmlns="http://www.w3.org/2000/svg" xmlns:xlink="http://www.w3.org/1999/xlink" x="0px" y="0px"
	 viewBox="-126 682 858 250" enable-background="new -126 682 858 250" xml:space="preserve">
<g id="base">
	<g id="untracked">
		<text transform="matrix(1 0 0 1 -73.8234 758.8867)" fill="#221F1F" font-family="'HelveticaNeue-Light'" font-size="30.8689">untracked</text>
		<g id="border_28_">
			<path fill="#414141" d="M63.9,718.3c6.8,0,12.3,5.5,12.3,12.3v40c0,6.8-5.5,12.3-12.3,12.3H-78.2c-6.8,0-12.3-5.5-12.3-12.3v-40
				c0-6.8,5.5-12.3,12.3-12.3H63.9 M63.9,717.2H-78.2c-7.3,0-13.3,6-13.3,13.3v40c0,7.3,6,13.3,13.3,13.3H63.9
				c7.3,0,13.3-6,13.3-13.3v-40C77.1,723.3,71.2,717.2,63.9,717.2L63.9,717.2z"/>
		</g>
	</g>
	<g id="unmodified">
		<g id="border_1_">
			<path fill="#414141" d="M268.2,718.3c6.8,0,12.3,5.5,12.3,12.3v40c0,6.8-5.5,12.3-12.3,12.3H126.1c-6.8,0-12.3-5.5-12.3-12.3v-40
				c0-6.8,5.5-12.3,12.3-12.3H268.2 M268.2,717.2H126.1c-7.3,0-13.3,6-13.3,13.3v40c0,7.3,6,13.3,13.3,13.3h142.1
				c7.3,0,13.3-6,13.3-13.3v-40C281.5,723.3,275.5,717.2,268.2,717.2L268.2,717.2z"/>
		</g>
		<text transform="matrix(1 0 0 1 123.6629 758.8867)" fill="#221F1F" font-family="'HelveticaNeue-Light'" font-size="30.8689">unmodified</text>
	</g>
	<g id="modified">
		<g id="border_25_">
			<path fill="#414141" d="M469.2,718.3c6.8,0,12.3,5.5,12.3,12.3v40c0,6.8-5.5,12.3-12.3,12.3H327.1c-6.8,0-12.3-5.5-12.3-12.3v-40
				c0-6.8,5.5-12.3,12.3-12.3H469.2 M469.2,717.2H327.1c-7.3,0-13.3,6-13.3,13.3v40c0,7.3,6,13.3,13.3,13.3h142.1
				c7.3,0,13.3-6,13.3-13.3v-40C482.5,723.3,476.6,717.2,469.2,717.2L469.2,717.2z"/>
		</g>
		<text transform="matrix(1 0 0 1 341.2263 758.8867)" fill="#221F1F" font-family="'HelveticaNeue-Light'" font-size="30.8689">modified</text>
	</g>
	<g id="staged">
		<g id="border_22_">
			<path fill="#414141" d="M670.1,718.3c6.8,0,12.3,5.5,12.3,12.3v40c0,6.8-5.5,12.3-12.3,12.3H528c-6.8,0-12.3-5.5-12.3-12.3v-40
				c0-6.8,5.5-12.3,12.3-12.3H670.1 M670.1,717.2H528c-7.3,0-13.3,6-13.3,13.3v40c0,7.3,6,13.3,13.3,13.3h142.3
				c7.3,0,13.3-6,13.3-13.3v-40C683.6,723.3,677.4,717.2,670.1,717.2L670.1,717.2z"/>
		</g>
		<text transform="matrix(1 0 0 1 553.6327 758.8867)" fill="#221F1F" font-family="'HelveticaNeue-Light'" font-size="30.8689">staged</text>
	</g>
	<g id="border_tracked" opacity="0.3">
		<path fill="#414141" d="M675.4,698.7c13.4,0,24.4,11,24.4,24.4v58.1c0,13.4-11,24.4-24.4,24.4H121.3c-13.4,0-24.4-11-24.4-24.4
			v-58.1c0-13.4,11-24.4,24.4-24.4H675.4 M675.4,697.6H121.3c-13.9,0-25.6,11.6-25.6,25.6v58.1c0,14.1,11.6,25.6,25.6,25.6h554
			c14.1,0,25.6-11.5,25.6-25.6v-58.1C701,709.2,689.5,697.6,675.4,697.6L675.4,697.6z"/>
	</g>
</g>
<g id="step-1-in-out" display="none">
	
		<text transform="matrix(1.0483 0 0 1 281.332 838.8611)" display="inline" fill="#231F20" font-family="'ApexNew-Book'" font-size="15.5745">add</text>
	<path display="inline" fill="#58595B" d="M298.4,870.9h-6.3v6.3h-6.3v6.3h6.3v6.3h6.3v-6.3h6.3v-6.3h-6.3V870.9z M314.3,858.3
		h-38.2c-3.2,0-3.2,3.2-3.2,3.2v38c0,0,0,3.2,3.2,3.2c0,0,34.9,0,38.2,0c3.2,0,3.2-3.2,3.2-3.2v-38.2
		C317.5,861.3,317.5,858.3,314.3,858.3z M311.2,894.6c0,1.5-1.5,1.5-1.5,1.5H281c0,0-1.5,0-1.5-1.5v-28.6c0-1.5,1.5-1.5,1.5-1.5
		h28.6c0,0,1.5,0,1.5,1.5C311.2,866.1,311.2,893.3,311.2,894.6z"/>
	<path id="border_23_" display="inline" fill="#3F81C3" d="M55.9,717.2c7.3,0,13.3,6,13.3,13.3v40c0,7.3-6,13.3-13.3,13.3H-86.2
		c-7.3,0-13.3-6-13.3-13.3v-40c0-7.3,6-13.3,13.3-13.3H55.9 M55.9,711.7H-86.2c-10.5,0-18.9,8.5-18.9,18.9v40
		c0,10.5,8.5,18.9,18.9,18.9H55.9c10.5,0,18.9-8.5,18.9-18.9v-40C74.8,720.3,66.3,711.7,55.9,711.7L55.9,711.7z"/>
	<g id="add" display="inline">
		<g>
			<path fill="#221F1F" d="M42.1,848.3v2.2c0,0,3.5,0,10,0c65.6,0,423.8,0,480.7,0c4.8,0,7.3,0,7.3,0c0-0.8,0-1.5,0-2.2
				c0,0-2.5,0-7.3,0c-56.9,0-415,0-480.7,0C45.6,848.3,42.1,848.3,42.1,848.3z"/>
		</g>
		<g>
			<path fill="#221F1F" d="M593.6,778.9c0,0,0,6.3,0,11.1c0,2.8,0,4.8,0,4.8h4.5c0,0,0-2.2,0-4.8c0-4.6,0-11.1,0-11.1H593.6z"/>
			<path fill="#FFFFFF" d="M596.9,793.7c-0.8,0-1.5,0-2.2,0c0,0,0-1.7,0-3.8c0-4.2,0-10,0-10h2.2c0,0,0,6,0,10
				C596.9,792,596.9,793.7,596.9,793.7 M599.2,796v-2.2c0,0,0-1.7,0-3.8c0-4.2,0-10,0-10v-2.2H597h-2.2h-2.3v2.2c0,0,0,6,0,10
				c0,2.2,0,3.8,0,3.8v2.2h2.2h2.2H599.2L599.2,796z"/>
		</g>
		<g>
			<path fill="#221F1F" d="M-15.3,774.9c0,0,0,9.3,0,14.9c0,2.7,0,4.6,0,4.6h3.8c0,0,0-2,0-4.6c0-5.8,0-14.9,0-14.9H-15.3z"/>
			<path fill="#FFFFFF" d="M-12.4,793.7c-0.8,0-1.5,0-2.2,0c0,0,0-1.5,0-3.8c0-5.3,0-14.3,0-14.3h2.2c0,0,0,9,0,14.3
				C-12.4,792.2-12.4,793.7-12.4,793.7 M-10.7,795.5v-1.7c0,0,0-1.5,0-3.8c0-5.3,0-14.3,0-14.3v-1.7h-1.7h-2.2h-1.7v1.7
				c0,0,0,9,0,14.3c0,2.2,0,3.8,0,3.8v1.7h1.7h2.2H-10.7L-10.7,795.5z"/>
		</g>
		<path fill="#221F1F" d="M595.9,767.5l-9.1,9.8c-0.5,0.5-0.5,1.2,0,1.5c0.5,0.5,1.2,0.5,1.5,0c0,0,0,0,0-0.2l0,0l6.3-6.8v12.1
			c0.8,0,1.5,0,2.2,0v-12.1l6.3,7c0.5,0.5,1.2,0.5,1.5,0c0.5-0.5,0.5-1.2,0-1.5l0,0L595.9,767.5z"/>
		<g>
			<path fill="none" stroke="#FFFFFF" stroke-width="6" stroke-miterlimit="10" d="M595.9,793.7c0,30.7-24.9,55.4-55.4,55.4"/>
			<path fill="none" stroke="#221F1F" stroke-width="2" stroke-miterlimit="10" d="M595.9,793.7c0,30.7-24.9,55.4-55.4,55.4"/>
		</g>
		<g>
			<path fill="none" stroke="#FFFFFF" stroke-width="6" stroke-miterlimit="10" d="M-13.5,793.7c0,30.7,24.9,55.4,55.4,55.4"/>
			<path fill="none" stroke="#221F1F" stroke-width="2" stroke-miterlimit="10" d="M-13.5,793.7c0,30.7,24.9,55.4,55.4,55.4"/>
		</g>
	</g>
</g>
<g id="step-2-in-out" display="none">
	
		<text transform="matrix(1.0208 0 0 1 378.2052 838.8611)" display="inline" fill="#231F20" font-family="'ApexNew-Book'" font-size="15.5745">commit</text>
	<path display="inline" fill="#58595B" d="M424.9,858.3h-38.2c-3.2,0-3.2,3.2-3.2,3.2v38c0,0,0,3.2,3.2,3.2c0,0,34.9,0,38.2,0
		c3.2,0,3.2-3.2,3.2-3.2v-38.2C428.2,861.3,428.2,858.3,424.9,858.3z M421.9,894.6c0,1.5-1.5,1.5-1.5,1.5h-28.7c0,0-1.5,0-1.5-1.5
		v-28.6c0-1.5,1.5-1.5,1.5-1.5h28.6c0,0,1.5,0,1.5,1.5C421.9,866.1,421.9,893.3,421.9,894.6z M406,874c-3.5,0-6.3,2.8-6.3,6.3
		s2.8,6.3,6.3,6.3c3.5,0,6.3-2.8,6.3-6.3S409.5,874,406,874z"/>
	<path display="inline" fill="#58595B" d="M403,869.4h-2.8v2.8h2.8V869.4z M403,863.7h-2.8v2.8h2.8V863.7z M419.6,858.3h-27.9
		c0,0-2.8,0-2.8,2.8v33.4c0,2.8,2.8,2.8,2.8,2.8h5.6v5.6l4.2-4.2l4.2,4.2v-5.8h13.9c0,0,2.8,0,2.8-2.8v-33.4
		C422.4,858.3,419.6,858.3,419.6,858.3z M419.6,891.6c0,2.7-2.8,2.8-2.8,2.8h-11.1v-2.8h-8.3v2.8h-2.8c-2.8,0-2.8-2.8-2.8-2.8v-2.8
		h27.9L419.6,891.6L419.6,891.6z M419.6,886h-22.2v-25.1h22.2V886z M403,880.5h-2.8v2.8h2.8V880.5z M403,874.9h-2.8v2.8h2.8V874.9z"
		/>
	<path id="border_12_" display="inline" fill="#3F81C3" d="M662.1,717.2c7.3,0,13.3,6,13.3,13.3v40c0,7.3-6,13.3-13.3,13.3H520
		c-7.3,0-13.3-6-13.3-13.3v-40c0-7.3,6-13.3,13.3-13.3H662.1 M662.1,711.7H520c-10.5,0-18.9,8.5-18.9,18.9v40
		c0,10.5,8.5,18.9,18.9,18.9h142.3c10.5,0,18.9-8.5,18.9-18.9v-40C681,720.3,672.6,711.7,662.1,711.7L662.1,711.7z"/>
	<g id="add_3_" display="inline">
		<g>
			<path fill="#221F1F" d="M540.3,848.3v2.2c0,0-3.5,0-10,0c-38,0-244.4,0-277.4,0c-4.8,0-7.3,0-7.3,0c0-0.8,0-1.5,0-2.2
				c0,0,2.5,0,7.3,0c32.9,0,239.4,0,277.4,0C536.9,848.3,540.3,848.3,540.3,848.3z"/>
		</g>
		<g>
			<path fill="#221F1F" d="M192.5,778.9c0,0,0,6.3,0,11.1c0,2.8,0,4.8,0,4.8H188c0,0,0-2.2,0-4.8c0-4.6,0-11.1,0-11.1H192.5z"/>
			<path fill="#FFFFFF" d="M189.2,793.7c0,0,0-1.7,0-3.8c0-4.2,0-10,0-10h2.2c0,0,0,6,0,10c0,2.2,0,3.8,0,3.8
				C190.5,793.7,189.8,793.7,189.2,793.7 M186.8,796h2.2h2.2h2.2v-2.2c0,0,0-1.7,0-3.8c0-4.2,0-10,0-10v-2.2h-2.2h-2H187v2.2
				c0,0,0,6,0,10c0,2.2,0,3.8,0,3.8L186.8,796L186.8,796z"/>
		</g>
		<g>
			<path fill="#221F1F" d="M597.9,774.9c0,0,0,9.3,0,14.9c0,2.7,0,4.6,0,4.6H594c0,0,0-2,0-4.6c0-5.8,0-14.9,0-14.9H597.9z"/>
			<path fill="#FFFFFF" d="M594.9,793.7c0,0,0-1.5,0-3.8c0-5.3,0-14.3,0-14.3h2.2c0,0,0,9,0,14.3c0,2.2,0,3.8,0,3.8
				C596.2,793.7,595.5,793.7,594.9,793.7 M593.2,795.5h1.7h2.2h1.7v-1.7c0,0,0-1.5,0-3.8c0-5.3,0-14.3,0-14.3v-1.7H597h-2.2h-1.7
				v1.7c0,0,0,9,0,14.3c0,2.2,0,3.8,0,3.8V795.5L593.2,795.5z"/>
		</g>
		<path fill="#221F1F" d="M190.2,767.5l9.1,9.8c0.5,0.5,0.5,1.2,0,1.5c-0.5,0.5-1.2,0.5-1.5,0c0,0,0,0,0-0.2l0,0l-6.3-6.8v12.1
			c-0.8,0-1.5,0-2.2,0v-12.1l-6.3,7c-0.5,0.5-1.2,0.5-1.5,0s-0.5-1.2,0-1.5l0,0L190.2,767.5z"/>
		<g>
			<path fill="none" stroke="#FFFFFF" stroke-width="6" stroke-miterlimit="10" d="M190.2,793.7c0,30.7,24.9,55.4,55.4,55.4"/>
			<path fill="none" stroke="#221F1F" stroke-width="2" stroke-miterlimit="10" d="M190.2,793.7c0,30.7,24.9,55.4,55.4,55.4"/>
		</g>
		<g>
			<path fill="none" stroke="#FFFFFF" stroke-width="6" stroke-miterlimit="10" d="M595.9,793.7c0,30.7-24.9,55.4-55.4,55.4"/>
			<path fill="none" stroke="#221F1F" stroke-width="2" stroke-miterlimit="10" d="M595.9,793.7c0,30.7-24.9,55.4-55.4,55.4"/>
		</g>
	</g>
</g>
<g id="step-3-in-out" display="none">
	
		<text transform="matrix(1.0483 0 0 1 281.8809 838.8611)" display="inline" fill="#231F20" font-family="'ApexNew-Book'" font-size="15.5745">edit</text>
	<path display="inline" fill="#58595B" d="M308.2,858.3l-6.3,6.3l9.6,9.6l6.3-6.3L308.2,858.3z M273.2,893.1v9.6h9.5l25.4-25.4
		l-9.6-9.6L273.2,893.1z M282.6,899.4h-6.3v-6.3h3.2v3.2h3.2L282.6,899.4L282.6,899.4z"/>
	<path id="border_7_" display="inline" fill="#3F81C3" d="M260.2,717.2c7.3,0,13.3,6,13.3,13.3v40c0,7.3-6,13.3-13.3,13.3H118.1
		c-7.3,0-13.3-6-13.3-13.3v-40c0-7.3,6-13.3,13.3-13.3H260.2 M260.2,711.7H118.1c-10.5,0-18.9,8.5-18.9,18.9v40
		c0,10.5,8.5,18.9,18.9,18.9h142.1c10.5,0,18.9-8.5,18.9-18.9v-40C279.1,720.3,270.7,711.7,260.2,711.7L260.2,711.7z"/>
	<g id="edit" display="inline">
		<g>
			<path fill="#221F1F" d="M246.1,848.3v2.2c0,0,3.5,0,10,0c10.1,0,65.4,0,74.2,0c4.8,0,7.3,0,7.3,0c0-0.8,0-1.5,0-2.2
				c0,0-2.5,0-7.3,0c-8.8,0-64.1,0-74.2,0C249.8,848.3,246.1,848.3,246.1,848.3z"/>
		</g>
		<g>
			<path fill="#221F1F" d="M391.2,778.9c0,0,0,6.3,0,11.1c0,2.8,0,4.8,0,4.8h4.5c0,0,0-2.2,0-4.8c0-4.6,0-11.1,0-11.1H391.2z"/>
			<path fill="#FFFFFF" d="M394.5,793.7c-0.8,0-1.5,0-2.2,0c0,0,0-1.7,0-3.8c0-4.2,0-10,0-10h2.2c0,0,0,6,0,10
				C394.5,792,394.5,793.7,394.5,793.7 M396.7,796v-2.2c0,0,0-1.7,0-3.8c0-4.2,0-10,0-10v-2.2h-2.2h-2.2H390v2.2c0,0,0,6,0,10
				c0,2.2,0,3.8,0,3.8v2.2h2.2h2.2H396.7L396.7,796z"/>
		</g>
		<g>
			<path fill="#221F1F" d="M188.7,774.9c0,0,0,9.3,0,14.9c0,2.7,0,4.6,0,4.6h3.8c0,0,0-2,0-4.6c0-5.8,0-14.9,0-14.9H188.7z"/>
			<path fill="#FFFFFF" d="M191.8,793.7c-0.8,0-1.5,0-2.2,0c0,0,0-1.5,0-3.8c0-5.3,0-14.3,0-14.3h2.2c0,0,0,9,0,14.3
				C191.8,792.2,191.8,793.7,191.8,793.7 M193.5,795.5v-1.7c0,0,0-1.5,0-3.8c0-5.3,0-14.3,0-14.3v-1.7h-1.7h-2.2H188v1.7
				c0,0,0,9,0,14.3c0,2.2,0,3.8,0,3.8v1.7h1.7h2.2H193.5L193.5,795.5z"/>
		</g>
		<path fill="#221F1F" d="M393.4,767.5l-9.1,9.8c-0.5,0.5-0.5,1.2,0,1.5c0.5,0.5,1.2,0.5,1.5,0c0,0,0,0,0-0.2l0,0l6.3-6.8v12.1
			c0.8,0,1.5,0,2.2,0v-12.1l6.3,7c0.5,0.5,1.2,0.5,1.5,0c0.5-0.5,0.5-1.2,0-1.5l0,0L393.4,767.5z"/>
		<g>
			<path fill="none" stroke="#FFFFFF" stroke-width="6" stroke-miterlimit="10" d="M393.4,793.7c0,30.7-24.9,55.4-55.4,55.4"/>
			<path fill="none" stroke="#221F1F" stroke-width="1.65" stroke-miterlimit="10" d="M393.4,793.7c0,30.7-24.9,55.4-55.4,55.4"/>
		</g>
		<g>
			<path fill="none" stroke="#FFFFFF" stroke-width="6" stroke-miterlimit="10" d="M190.7,793.7c0,30.7,24.9,55.4,55.4,55.4"/>
			<path fill="none" stroke="#221F1F" stroke-width="1.65" stroke-miterlimit="10" d="M190.7,793.7c0,30.7,24.9,55.4,55.4,55.4"/>
		</g>
	</g>
</g>
<g id="step-4-in-out">
	<text transform="matrix(1.0483 0 0 1 495.0741 838.8611)" fill="#231F20" font-family="'ApexNew-Book'" font-size="15.5745">add</text>
	<path fill="#58595B" d="M512.2,870.9h-6.3v6.3h-6.3v6.3h6.3v6.3h6.3v-6.3h6.3v-6.3h-6.3V870.9z M528,858.3h-38.2
		c-3.2,0-3.2,3.2-3.2,3.2v38c0,0,0,3.2,3.2,3.2c0,0,34.9,0,38.2,0c3.3,0,3.2-3.2,3.2-3.2v-38.2C531.2,861.3,531.2,858.3,528,858.3z
		 M524.9,894.6c0,1.5-1.5,1.5-1.5,1.5h-28.6c0,0-1.5,0-1.5-1.5v-28.6c0-1.5,1.5-1.5,1.5-1.5h28.6c0,0,1.5,0,1.5,1.5
		C524.9,866.1,524.9,893.3,524.9,894.6z"/>
	<path id="border_2_" fill="#3F81C3" d="M469.2,717.2c7.3,0,13.3,6,13.3,13.3v40c0,7.3-6,13.3-13.3,13.3H327.1
		c-7.3,0-13.3-6-13.3-13.3v-40c0-7.3,6-13.3,13.3-13.3H469.2 M469.2,711.7H327.1c-10.5,0-18.9,8.5-18.9,18.9v40
		c0,10.5,8.5,18.9,18.9,18.9h142.1c10.5,0,18.9-8.5,18.9-18.9v-40C488.2,720.3,479.5,711.7,469.2,711.7L469.2,711.7z"/>
	<g id="add_5_">
		<g>
			<path fill="#221F1F" d="M457.1,848.3v2.2c0,0,3.5,0,10,0c10.1,0,65.1,0,73.9,0c4.8,0,7.3,0,7.3,0c0-0.8,0-1.5,0-2.2
				c0,0-2.5,0-7.3,0c-8.8,0-63.7,0-73.9,0C460.6,848.3,457.1,848.3,457.1,848.3z"/>
		</g>
		<g>
			<path fill="#221F1F" d="M601.7,778.9c0,0,0,6.3,0,11.1c0,2.8,0,4.8,0,4.8h4.5c0,0,0-2.2,0-4.8c0-4.6,0-11.1,0-11.1H601.7z"/>
			<path fill="#FFFFFF" d="M605,793.7c-0.8,0-1.5,0-2.2,0c0,0,0-1.7,0-3.8c0-4.2,0-10,0-10h2.2c0,0,0,6,0,10
				C605,792,605,793.7,605,793.7 M607.4,796v-2.2c0,0,0-1.7,0-3.8c0-4.2,0-10,0-10v-2.2h-2.2H603h-2.5v2.2c0,0,0,6,0,10
				c0,2.2,0,3.8,0,3.8v2.2h2.2h2.2H607.4L607.4,796z"/>
		</g>
		<g>
			<path fill="#221F1F" d="M399.7,774.9c0,0,0,9.3,0,14.9c0,2.7,0,4.6,0,4.6h3.8c0,0,0-2,0-4.6c0-5.8,0-14.9,0-14.9H399.7z"/>
			<path fill="#FFFFFF" d="M402.7,793.7c-0.8,0-1.5,0-2.2,0c0,0,0-1.5,0-3.8c0-5.3,0-14.3,0-14.3h2.2c0,0,0,9,0,14.3
				C402.7,792.2,402.7,793.7,402.7,793.7 M404.3,795.5v-1.7c0,0,0-1.5,0-3.8c0-5.3,0-14.3,0-14.3v-1.7h-1.7h-2.2h-1.7v1.7
				c0,0,0,9,0,14.3c0,2.2,0,3.8,0,3.8v1.7h1.7h2.2H404.3L404.3,795.5z"/>
		</g>
		<path fill="#221F1F" d="M603.9,767.5l-9.1,9.8c-0.5,0.5-0.5,1.2,0,1.5c0.5,0.5,1.2,0.5,1.5,0c0,0,0,0,0-0.2l0,0l6.3-6.8v12.1
			c0.8,0,1.5,0,2.2,0v-12.1l6.3,7c0.5,0.5,1.2,0.5,1.5,0c0.5-0.5,0.5-1.2,0-1.5l0,0L603.9,767.5z"/>
		<g>
			<path fill="none" stroke="#FFFFFF" stroke-width="6" stroke-miterlimit="10" d="M603.9,793.7c0,30.7-24.9,55.4-55.4,55.4"/>
			<path fill="none" stroke="#221F1F" stroke-width="1.55" stroke-miterlimit="10" d="M603.9,793.7c0,30.7-24.9,55.4-55.4,55.4"/>
		</g>
		<g>
			<path fill="none" stroke="#FFFFFF" stroke-width="6" stroke-miterlimit="10" d="M401.5,793.7c0,30.7,24.9,55.4,55.4,55.4"/>
			<path fill="none" stroke="#221F1F" stroke-width="1.55" stroke-miterlimit="10" d="M401.5,793.7c0,30.7,24.9,55.4,55.4,55.4"/>
		</g>
	</g>
</g>
<g id="step-5" display="none">
	<path display="inline" fill="#58595B" d="M81.9,877.2v6.3H101v-6.3H81.9z M110.6,858.3H72.5c-3.2,0-3.2,3.2-3.2,3.2v38
		c0,0,0,3.2,3.2,3.2c0,0,34.9,0,38.2,0c3.2,0,3.2-3.2,3.2-3.2v-38.2C113.6,861.3,113.6,858.3,110.6,858.3z M107.3,894.6
		c0,1.5-1.5,1.5-1.5,1.5H77.3c0,0-1.5,0-1.5-1.5v-28.6c0-1.5,1.5-1.5,1.5-1.5h28.6c0,0,1.5,0,1.5,1.5
		C107.3,866.1,107.3,893.3,107.3,894.6z"/>
	
		<text transform="matrix(1.0208 0 0 1 65.8437 838.8611)" display="inline" fill="#231F20" font-family="'ApexNew-Book'" font-size="15.5745">remove</text>
	<path id="border_4_" display="inline" fill="#3F81C3" d="M260.2,717.2c7.3,0,13.3,6,13.3,13.3v40c0,7.3-6,13.3-13.3,13.3H118.1
		c-7.3,0-13.3-6-13.3-13.3v-40c0-7.3,6-13.3,13.3-13.3H260.2 M260.2,711.7H118.1c-10.5,0-18.9,8.5-18.9,18.9v40
		c0,10.5,8.5,18.9,18.9,18.9h142.1c10.5,0,18.9-8.5,18.9-18.9v-40C279.1,720.3,270.7,711.7,260.2,711.7L260.2,711.7z"/>
	<g id="add_2_" display="inline">
		<g>
			<path fill="#221F1F" d="M134.6,848.3v2.2c0,0-3.5,0-10,0c-10.3,0-66.2,0-75.2,0c-4.8,0-7.3,0-7.3,0c0-0.8,0-1.5,0-2.2
				c0,0,2.5,0,7.3,0c9,0,64.9,0,75.2,0C131.1,848.3,134.6,848.3,134.6,848.3z"/>
		</g>
		<g>
			<path fill="#221F1F" d="M-11.2,778.9c0,0,0,6.3,0,11.1c0,2.8,0,4.8,0,4.8h-4.5c0,0,0-2.2,0-4.8c0-4.6,0-11.1,0-11.1H-11.2z"/>
			<path fill="#FFFFFF" d="M-14.5,793.7c0,0,0-1.7,0-3.8c0-4.2,0-10,0-10h2.2c0,0,0,6,0,10c0,2.2,0,3.8,0,3.8
				C-13.2,793.7-13.9,793.7-14.5,793.7 M-16.8,796h2.2h2.2h2.2v-2.2c0,0,0-1.7,0-3.8c0-4.2,0-10,0-10v-2.2h-2.2h-2.2h-2.2v2.2
				c0,0,0,6,0,10c0,2.2,0,3.8,0,3.8V796L-16.8,796z"/>
		</g>
		<g>
			<path fill="#221F1F" d="M192.2,774.9c0,0,0,9.3,0,14.9c0,2.7,0,4.6,0,4.6h-3.8c0,0,0-2,0-4.6c0-5.8,0-14.9,0-14.9H192.2z"/>
			<path fill="#FFFFFF" d="M189,793.7c0,0,0-1.5,0-3.8c0-5.3,0-14.3,0-14.3h2.2c0,0,0,9,0,14.3c0,2.2,0,3.8,0,3.8
				C190.5,793.7,189.8,793.7,189,793.7 M187.3,795.5h1.7h2.2h1.7v-1.7c0,0,0-1.5,0-3.8c0-5.3,0-14.3,0-14.3v-1.7h-1.7H189h-1.7v1.7
				c0,0,0,9,0,14.3c0,2.2,0,3.8,0,3.8V795.5L187.3,795.5z"/>
		</g>
		<path fill="#221F1F" d="M-13.5,767.5l9.1,9.8c0.5,0.5,0.5,1.2,0,1.5c-0.5,0.5-1.2,0.5-1.5,0c0,0,0,0,0-0.2l0,0l-6.3-6.8v12.1
			c-0.8,0-1.5,0-2.2,0v-12.1l-6.3,7c-0.5,0.5-1.2,0.5-1.5,0c-0.5-0.5-0.5-1.2,0-1.5l0,0L-13.5,767.5z"/>
		<g>
			<path fill="none" stroke="#FFFFFF" stroke-width="6" stroke-miterlimit="10" d="M-13.5,793.7c0,30.7,24.9,55.4,55.4,55.4"/>
			<path fill="none" stroke="#221F1F" stroke-width="2" stroke-miterlimit="10" d="M-13.5,793.7c0,30.7,24.9,55.4,55.4,55.4"/>
		</g>
		<g>
			<path fill="none" stroke="#FFFFFF" stroke-width="6" stroke-miterlimit="10" d="M190.2,793.7c0,30.7-24.9,55.4-55.4,55.4"/>
			<path fill="none" stroke="#221F1F" stroke-width="2" stroke-miterlimit="10" d="M190.2,793.7c0,30.7-24.9,55.4-55.4,55.4"/>
		</g>
	</g>
</g>
</svg>
