<?xml version="1.0" encoding="utf-8"?>
<!-- Generator: Adobe Illustrator 17.1.0, SVG Export Plug-In . SVG Version: 6.00 Build 0)  -->
<!DOCTYPE svg PUBLIC "-//W3C//DTD SVG 1.1//EN" "http://www.w3.org/Graphics/SVG/1.1/DTD/svg11.dtd">
<svg version="1.1" id="Layer_1" xmlns="http://www.w3.org/2000/svg" xmlns:xlink="http://www.w3.org/1999/xlink" x="0px" y="0px"
	 viewBox="0 158 500 198" enable-background="new 0 158 500 198" xml:space="preserve">
<text transform="matrix(1 0 0 1 239.7293 291.9064)" font-family="'MyriadPro-Regular'" font-size="117.2629">Sync</text>
<g>
	<path d="M176.9,201.1c-15.7-18.2-38.8-29-63.6-29c-34.6,0-65.4,20.8-78.1,53l17.8,7.2c10-24.8,33.6-40.9,60.3-40.9
		c17.8,0,34.6,7.3,46.7,19.8l-29.9,10l33.7,20.5l33.7,20.5l0.9-39.5l0.9-39.5L176.9,201.1z"/>
	<path d="M116.8,321.2c-17.1,0-33.4-6.8-45.3-18.4l28.5-9.4l-33.6-20.6l-33.7-20.5l-0.9,39.5l-0.9,39.5l23.3-18.7
		c15.7,17.7,38.5,28,62.8,28c34.6,0,65.4-20.8,78.1-53l-17.8-7.2C167.3,305.2,143.5,321.2,116.8,321.2z"/>
</g>
<path display="none" fill="none" stroke="#3B56A6" stroke-width="11" stroke-miterlimit="10" d="M579.4,251c0.5,3.5,0.7,7,0.7,10.5
	c0,41.3-33.4,74.7-74.7,74.7s-74.7-33.4-74.7-74.7s33.4-74.7,74.7-74.7C543.2,187,574.3,214.8,579.4,251"/>
</svg>
