<?xml version="1.0" encoding="utf-8"?>
<!-- Generator: Adobe Illustrator 17.1.0, SVG Export Plug-In . SVG Version: 6.00 Build 0)  -->
<!DOCTYPE svg PUBLIC "-//W3C//DTD SVG 1.1//EN" "http://www.w3.org/Graphics/SVG/1.1/DTD/svg11.dtd">
<svg version="1.1" id="Layer_1" xmlns="http://www.w3.org/2000/svg" xmlns:xlink="http://www.w3.org/1999/xlink" x="0px" y="0px"
	 viewBox="0 0 286 125.5" enable-background="new 0 0 286 125.5" xml:space="preserve">
<g id="boundary">
	<rect fill="none" stroke="#ED1C24" stroke-miterlimit="10" width="286" height="125.5"/>
</g>
<text transform="matrix(1 0 0 1 137.1249 86.7206)" font-family="'MyriadPro-Regular'" font-size="67.0744">Sync</text>
<g>
	<path d="M101.2,34.8c-9-10.4-22.2-16.6-36.4-16.6c-19.8,0-37.4,11.9-44.7,30.3l10.2,4.1C36,38.4,49.5,29.2,64.8,29.2
		c10.2,0,19.8,4.2,26.7,11.3l-17.1,5.7l19.3,11.7l19.3,11.7l0.5-22.6l0.5-22.6L101.2,34.8z"/>
	<path d="M66.8,103.5c-9.8,0-19.1-3.9-25.9-10.5l16.3-5.4L38,75.8L18.7,64.1l-0.5,22.6l-0.5,22.6l13.3-10.7c9,10.1,22,16,35.9,16
		c19.8,0,37.4-11.9,44.7-30.3l-10.2-4.1C95.7,94.3,82.1,103.5,66.8,103.5z"/>
</g>
<path display="none" fill="none" stroke="#3B56A6" stroke-width="11" stroke-miterlimit="10" d="M331.4,63.3c0.3,2,0.4,4,0.4,6
	c0,23.6-19.1,42.7-42.7,42.7c-23.6,0-42.7-19.1-42.7-42.7s19.1-42.7,42.7-42.7C310.7,26.7,328.5,42.6,331.4,63.3"/>
</svg>
