<?xml version="1.0" encoding="utf-8"?>
<!-- Generator: Adobe Illustrator 17.1.0, SVG Export Plug-In . SVG Version: 6.00 Build 0)  -->
<!DOCTYPE svg PUBLIC "-//W3C//DTD SVG 1.1//EN" "http://www.w3.org/Graphics/SVG/1.1/DTD/svg11.dtd">
<svg version="1.1" id="Layer_1" xmlns="http://www.w3.org/2000/svg" xmlns:xlink="http://www.w3.org/1999/xlink" x="0px" y="0px"
	 viewBox="72 528 510 131" enable-background="new 72 528 510 131" xml:space="preserve">
<g>
	<g>
		<path d="M136.3,591.7c-1.4-5.7-6.5-9.8-12.7-9.8s-11.1,4.2-12.7,9.8h-10.3v6.5H111c1.4,5.7,6.5,9.8,12.7,9.8s11.1-4.2,12.7-9.8
			h10.2v-6.5H136.3z M123.8,601.4c-3.7,0-6.5-2.9-6.5-6.5c0-3.7,2.9-6.5,6.5-6.5c3.7,0,6.5,2.9,6.5,6.5
			C130.2,598.5,127.2,601.4,123.8,601.4z"/>
		<g id="border_1_">
			<path d="M139.9,559.5c11.3,0,20.7,9.3,20.7,20.7v31.9c0,11.3-9.3,20.7-20.7,20.7h-32.3c-11.3,0-20.7-9.3-20.7-20.7v-31.9
				c0-11.3,9.3-20.7,20.7-20.7H139.9 M139.9,558.7h-32.3c-11.8,0-21.5,9.8-21.5,21.5v31.9c0,11.8,9.8,21.5,21.5,21.5h32.3
				c11.8,0,21.5-9.8,21.5-21.5v-31.9C161.4,568.3,151.7,558.7,139.9,558.7L139.9,558.7z"/>
		</g>
	</g>
	<g>
		<g>
			<path fill="#231F20" d="M155.2,571.6c-5.4,0-9.9-4.5-9.9-9.9s4.5-9.9,9.9-9.9s9.9,4.5,9.9,9.9S160.8,571.6,155.2,571.6z"/>
			<path fill="#FFFFFF" d="M155.2,553c4.8,0,8.8,3.9,8.8,8.8c0,4.8-3.9,8.8-8.8,8.8c-4.8,0-8.8-3.9-8.8-8.8
				C146.7,556.9,150.5,553,155.2,553 M155.2,550.6c-6.2,0-11.1,5-11.1,11.1c0,6.2,5,11.1,11.1,11.1c6.2,0,11.1-5,11.1-11.1
				C166.3,555.5,161.4,550.6,155.2,550.6L155.2,550.6z"/>
		</g>
		<g>
			<text transform="matrix(1.0483 0 0 1 153.2881 565.1816)" fill="#FFFFFF" font-family="'ApexNew-Book'" font-size="11.8907">1</text>
		</g>
	</g>
</g>
<g>
	<g>
		<path d="M238,591.6c-1.4-5.7-6.5-9.8-12.7-9.8s-11.1,4.2-12.7,9.8h-10.2v6.5h10.2c1.4,5.7,6.5,9.8,12.7,9.8s11.1-4.2,12.7-9.8
			h10.2v-6.5H238z M225.4,601.4c-3.7,0-6.5-2.9-6.5-6.5c0-3.7,2.9-6.5,6.5-6.5c3.7,0,6.5,2.9,6.5,6.5
			C231.9,598.4,228.9,601.4,225.4,601.4z"/>
		<g id="border_2_">
			<path d="M241.6,559.6c11.3,0,20.7,9.3,20.7,20.7v31.9c0,11.3-9.3,20.7-20.7,20.7h-32.3c-11.3,0-20.7-9.3-20.7-20.7v-31.9
				c0-11.3,9.3-20.7,20.7-20.7H241.6 M241.6,558.7h-32.3c-11.8,0-21.5,9.8-21.5,21.5v31.9c0,11.8,9.8,21.5,21.5,21.5h32.3
				c11.8,0,21.5-9.8,21.5-21.5v-31.9C263.1,568.4,253.4,558.7,241.6,558.7L241.6,558.7z"/>
		</g>
	</g>
	<g>
		<g>
			<path fill="#231F20" d="M256.9,571.6c-5.4,0-9.9-4.5-9.9-9.9s4.5-9.9,9.9-9.9s9.9,4.5,9.9,9.9S262.5,571.6,256.9,571.6z"/>
			<path fill="#FFFFFF" d="M256.9,553c4.8,0,8.8,3.9,8.8,8.8c0,4.8-3.9,8.8-8.8,8.8c-4.8,0-8.7-3.9-8.7-8.8
				C248.3,556.9,252.2,553,256.9,553 M256.9,550.6c-6.2,0-11.1,5-11.1,11.1c0,6.2,5,11.1,11.1,11.1c6.2,0,11.1-5,11.1-11.1
				S263.1,550.6,256.9,550.6L256.9,550.6z"/>
		</g>
		<g>
			<text transform="matrix(1.0483 0 0 1 253.9043 565.1875)" fill="#FFFFFF" font-family="'ApexNew-Book'" font-size="11.8907">2</text>
		</g>
	</g>
</g>
<g>
	<g>
		<path d="M339.4,591.7c-1.4-5.7-6.5-9.8-12.7-9.8s-11.1,4.2-12.7,9.8h-10.2v6.5H314c1.4,5.7,6.5,9.8,12.7,9.8s11.1-4.2,12.7-9.8
			h10.2v-6.5H339.4z M326.8,601.4c-3.7,0-6.5-2.9-6.5-6.5c0-3.7,2.9-6.5,6.5-6.5c3.7,0,6.5,2.9,6.5,6.5
			C333.3,598.4,330.3,601.4,326.8,601.4z"/>
		<g id="border_3_">
			<path d="M343,559.6c11.3,0,20.7,9.3,20.7,20.7v31.9c0,11.3-9.3,20.7-20.7,20.7h-32.3c-11.3,0-20.7-9.3-20.7-20.7v-31.9
				c0-11.3,9.3-20.7,20.7-20.7H343 M343,558.8h-32.3c-11.8,0-21.5,9.8-21.5,21.5v31.8c0,11.8,9.8,21.5,21.5,21.5H343
				c11.8,0,21.5-9.8,21.5-21.5v-31.9C364.5,568.4,354.8,558.8,343,558.8L343,558.8z"/>
		</g>
	</g>
	<g>
		<g>
			<path fill="#231F20" d="M358.3,571.5c-5.4,0-9.9-4.5-9.9-9.9s4.5-9.9,9.9-9.9s9.9,4.5,9.9,9.9
				C368.2,567.1,363.9,571.5,358.3,571.5z"/>
			<path fill="#FFFFFF" d="M358.3,553.1c4.8,0,8.8,3.9,8.8,8.8s-3.9,8.8-8.8,8.8s-8.8-3.9-8.8-8.8
				C349.8,556.9,353.6,553.1,358.3,553.1 M358.3,550.6c-6.2,0-11.1,5-11.1,11.1c0,6.2,5,11.1,11.1,11.1c6.2,0,11.1-5,11.1-11.1
				S364.5,550.6,358.3,550.6L358.3,550.6z"/>
		</g>
		<g>
			<text transform="matrix(1.0483 0 0 1 355.2119 565.1836)" fill="#FFFFFF" font-family="'ApexNew-Book'" font-size="11.8907">3</text>
		</g>
	</g>
</g>
<g>
	<g>
		<path d="M441.9,591.7c-1.4-5.7-6.5-9.8-12.7-9.8s-11.1,4.2-12.7,9.8h-10.2v6.5h10.2c1.4,5.7,6.5,9.8,12.7,9.8s11.1-4.2,12.7-9.8
			h10.2v-6.5H441.9z M429.3,601.4c-3.7,0-6.5-2.9-6.5-6.5c0-3.7,2.9-6.5,6.5-6.5c3.7,0,6.5,2.9,6.5,6.5
			C435.8,598.4,432.8,601.4,429.3,601.4z"/>
		<g id="border_5_">
			<path d="M445.5,559.6c11.3,0,20.7,9.3,20.7,20.7v31.9c0,11.3-9.3,20.7-20.7,20.7h-32.3c-11.3,0-20.7-9.3-20.7-20.7v-31.9
				c0-11.3,9.3-20.7,20.7-20.7H445.5 M445.5,558.8h-32.3c-11.8,0-21.5,9.8-21.5,21.5v31.8c0,11.8,9.8,21.5,21.5,21.5h32.3
				c11.8,0,21.5-9.8,21.5-21.5v-31.9C467,568.4,457.3,558.8,445.5,558.8L445.5,558.8z"/>
		</g>
	</g>
	<g>
		<g>
			<path fill="#231F20" d="M460.8,571.5c-5.4,0-9.9-4.5-9.9-9.9s4.5-9.9,9.9-9.9s9.9,4.5,9.9,9.9
				C470.8,567.1,466.4,571.5,460.8,571.5z"/>
			<path fill="#FFFFFF" d="M460.8,553.1c4.8,0,8.8,3.9,8.8,8.8s-3.9,8.8-8.8,8.8s-8.8-3.9-8.8-8.8
				C452.2,556.9,456.1,553.1,460.8,553.1 M460.8,550.6c-6.2,0-11.1,5-11.1,11.1c0,6.2,5,11.1,11.1,11.1c6.2,0,11.1-5,11.1-11.1
				S467,550.6,460.8,550.6L460.8,550.6z"/>
		</g>
		<g>
			<text transform="matrix(1.0483 0 0 1 456.8779 564.3496)" fill="#FFFFFF" font-family="'ApexNew-Book'" font-size="11.8907">4</text>
		</g>
	</g>
</g>
<g>
	<g>
		<path d="M545.4,591.7c-1.4-5.7-6.5-9.8-12.7-9.8s-11.1,4.2-12.7,9.8h-10.2v6.5H520c1.4,5.7,6.5,9.8,12.7,9.8s11.1-4.2,12.7-9.8
			h10.2v-6.5H545.4z M532.8,601.4c-3.7,0-6.5-2.9-6.5-6.5c0-3.7,2.9-6.5,6.5-6.5c3.7,0,6.5,2.9,6.5,6.5
			C539.3,598.4,536.3,601.4,532.8,601.4z"/>
		<g id="border_6_">
			<path d="M549,559.6c11.3,0,20.7,9.3,20.7,20.7v31.9c0,11.3-9.3,20.7-20.7,20.7h-32.3c-11.3,0-20.7-9.3-20.7-20.7v-31.9
				c0-11.3,9.3-20.7,20.7-20.7H549 M549,558.8h-32.3c-11.8,0-21.5,9.8-21.5,21.5v31.8c0,11.8,9.8,21.5,21.5,21.5H549
				c11.8,0,21.5-9.8,21.5-21.5v-31.9C570.5,568.4,560.8,558.8,549,558.8L549,558.8z"/>
		</g>
	</g>
	<g>
		<g>
			<path fill="#231F20" d="M564.3,571.5c-5.4,0-9.9-4.5-9.9-9.9s4.5-9.9,9.9-9.9s9.9,4.5,9.9,9.9
				C574.2,567.1,569.9,571.5,564.3,571.5z"/>
			<path fill="#FFFFFF" d="M564.3,553.1c4.8,0,8.8,3.9,8.8,8.8s-3.9,8.8-8.8,8.8s-8.8-3.9-8.8-8.8
				C555.8,556.9,559.6,553.1,564.3,553.1 M564.3,550.6c-6.2,0-11.1,5-11.1,11.1c0,6.2,5,11.1,11.1,11.1c6.2,0,11.1-5,11.1-11.1
				S570.5,550.6,564.3,550.6L564.3,550.6z"/>
		</g>
		<g>
			<text transform="matrix(1.0483 0 0 1 561.2109 565.1836)" fill="#FFFFFF" font-family="'ApexNew-Book'" font-size="11.8907">5</text>
		</g>
	</g>
</g>
<path display="none" fill="none" stroke="#FFFFFF" stroke-width="5" stroke-miterlimit="10" d="M395.9,895.9
	c0-23-18.7-41.6-41.6-41.6"/>
<g>
	<g>
		<path fill="#231F20" d="M283.2,603.8c-0.3,0-0.7-0.2-0.9-0.3c-0.2-0.2-0.3-0.6-0.3-0.9c0-0.2,0.1-0.4,0.2-0.6l0,0l0.3-0.3l4.3-4
			h-8.4v-2.5h8.4l-4.3-4c-0.5-0.5-0.5-1.3,0-1.8c0.2-0.2,0.6-0.3,0.8-0.3c0.2,0,0.3,0,0.5,0.1l0.1-0.1l0.3,0.2l7.7,7.1l-7.7,7.1
			C283.9,603.6,283.6,603.8,283.2,603.8z"/>
		<path fill="#FFFFFF" d="M283.2,589.3c0.2,0,0.4,0.1,0.6,0.2l0,0l7.3,6.8l-7.3,6.8c-0.2,0.2-0.4,0.2-0.6,0.2s-0.4-0.1-0.6-0.2
			c-0.3-0.3-0.3-0.8,0-1.2c0,0,0,0,0.1,0l0,0l5.1-4.8h-9.1c0-0.6,0-1.1,0-1.7h9.1l-5.1-4.8c-0.3-0.3-0.3-0.8,0-1.2
			C282.8,589.4,283.1,589.3,283.2,589.3 M283.7,588.3l-0.2,0.2c-0.1,0-0.2,0-0.3,0c-0.4,0-0.8,0.2-1.2,0.5c-0.3,0.3-0.5,0.8-0.5,1.2
			s0.2,0.8,0.5,1.2l3.6,3.3h-6.9h-0.8v0.8v1.7v0.8h0.8h6.9l-3.6,3.3l-0.6,0.6l0.2,0.2c-0.1,0.2-0.1,0.3-0.1,0.5
			c0,0.4,0.2,0.8,0.5,1.2c0.3,0.3,0.8,0.5,1.2,0.5c0.4,0,0.8-0.2,1.2-0.5l7.3-6.8l0.7-0.6l-0.7-0.6l-7.3-6.8L283.7,588.3
			L283.7,588.3z"/>
	</g>
	<g>
		<path fill="none" stroke="#FFFFFF" stroke-width="4" stroke-miterlimit="10" d="M279.7,596.4h-16.6"/>
		<path fill="none" stroke="#231F20" stroke-width="2" stroke-miterlimit="10" d="M279.7,596.4h-16.6"/>
	</g>
</g>
<g>
	<g>
		<path fill="#231F20" d="M181.8,603.8c-0.3,0-0.7-0.2-0.9-0.3c-0.2-0.2-0.3-0.6-0.3-0.9c0-0.2,0.1-0.4,0.2-0.6l0,0l0.3-0.3l4.3-4
			H177v-2.5h8.4l-4.3-4c-0.5-0.5-0.5-1.3,0-1.8c0.2-0.2,0.6-0.3,0.8-0.3s0.3,0,0.5,0.1l0.1-0.1l0.3,0.2l7.7,7.1l-7.7,7.1
			C182.5,603.6,182.2,603.8,181.8,603.8z"/>
		<path fill="#FFFFFF" d="M181.8,589.3c0.2,0,0.4,0.1,0.6,0.2l0,0l7.3,6.8l-7.3,6.8c-0.2,0.2-0.4,0.2-0.6,0.2
			c-0.2,0-0.4-0.1-0.6-0.2c-0.3-0.3-0.3-0.8,0-1.2c0,0,0,0,0.1,0l0,0l5.1-4.8h-9.1c0-0.6,0-1.1,0-1.7h9.1l-5.1-4.8
			c-0.3-0.3-0.3-0.8,0-1.2C181.4,589.4,181.7,589.3,181.8,589.3 M182.3,588.3l-0.2,0.2c-0.1,0-0.2,0-0.3,0c-0.4,0-0.8,0.2-1.2,0.5
			s-0.5,0.8-0.5,1.2s0.2,0.8,0.5,1.2l3.6,3.3h-6.9h-0.8v0.8v1.7v0.8h0.8h6.9l-3.6,3.3l-0.6,0.6l0.2,0.2c-0.1,0.2-0.1,0.3-0.1,0.5
			c0,0.4,0.2,0.8,0.5,1.2c0.3,0.3,0.7,0.5,1.2,0.5s0.8-0.2,1.2-0.5l7.3-6.8l0.7-0.6l-0.7-0.6L183,589L182.3,588.3L182.3,588.3z"/>
	</g>
	<g>
		<path fill="none" stroke="#FFFFFF" stroke-width="4" stroke-miterlimit="10" d="M178.2,596.4h-16.6"/>
		<path fill="none" stroke="#231F20" stroke-width="2" stroke-miterlimit="10" d="M178.2,596.4h-16.6"/>
	</g>
</g>
<g>
	<g>
		<path fill="#231F20" d="M384.7,603.8c-0.3,0-0.7-0.2-0.9-0.3c-0.2-0.2-0.3-0.6-0.3-0.9c0-0.2,0.1-0.4,0.2-0.6l0,0l0.3-0.3l4.3-4
			h-8.4v-2.5h8.4l-4.3-4c-0.5-0.5-0.5-1.3,0-1.8c0.2-0.2,0.6-0.3,0.8-0.3c0.2,0,0.3,0,0.5,0.1l0.1-0.1l0.3,0.2l7.7,7.1l-7.7,7.1
			C385.3,603.6,385,603.8,384.7,603.8z"/>
		<path fill="#FFFFFF" d="M384.7,589.3c0.2,0,0.4,0.1,0.6,0.2l0,0l7.3,6.8l-7.3,6.8c-0.2,0.2-0.4,0.2-0.6,0.2s-0.4-0.1-0.6-0.2
			c-0.3-0.3-0.3-0.8,0-1.2c0,0,0,0,0.1,0l0,0l5.1-4.8h-9.1c0-0.6,0-1.1,0-1.7h9.1l-5.1-4.8c-0.3-0.3-0.3-0.8,0-1.2
			C384.2,589.4,384.5,589.3,384.7,589.3 M385.2,588.3l-0.2,0.2c-0.1,0-0.2,0-0.3,0c-0.4,0-0.8,0.2-1.2,0.5c-0.3,0.3-0.5,0.8-0.5,1.2
			s0.2,0.8,0.5,1.2l3.6,3.3h-6.9h-0.8v0.8v1.7v0.8h0.8h6.9l-3.6,3.3l-0.6,0.6l0.2,0.2c-0.1,0.2-0.1,0.3-0.1,0.5
			c0,0.4,0.2,0.8,0.5,1.2c0.3,0.3,0.8,0.5,1.2,0.5s0.8-0.2,1.2-0.5l7.3-6.8l0.7-0.6l-0.7-0.6l-7.3-6.8L385.2,588.3L385.2,588.3z"/>
	</g>
	<g>
		<path fill="none" stroke="#FFFFFF" stroke-width="4" stroke-miterlimit="10" d="M381.1,596.4h-16.6"/>
		<path fill="none" stroke="#231F20" stroke-width="2" stroke-miterlimit="10" d="M381.1,596.4h-16.6"/>
	</g>
</g>
<g>
	<g>
		<path fill="#231F20" d="M486.8,603.8c-0.3,0-0.7-0.2-0.9-0.3c-0.2-0.2-0.3-0.6-0.3-0.9c0-0.2,0.1-0.4,0.2-0.6l0,0l0.3-0.3l4.3-4
			H482v-2.5h8.4l-4.3-4c-0.5-0.5-0.5-1.3,0-1.8c0.2-0.2,0.6-0.3,0.8-0.3c0.2,0,0.3,0,0.5,0.1l0.1-0.1l0.3,0.2l7.7,7.1l-7.7,7.1
			C487.5,603.6,487.2,603.8,486.8,603.8z"/>
		<path fill="#FFFFFF" d="M486.8,589.3c0.2,0,0.4,0.1,0.6,0.2l0,0l7.3,6.8l-7.3,6.8c-0.2,0.2-0.4,0.2-0.6,0.2s-0.4-0.1-0.6-0.2
			c-0.3-0.3-0.3-0.8,0-1.2c0,0,0,0,0.1,0l0,0l5.1-4.8h-9.1c0-0.6,0-1.1,0-1.7h9.1l-5.1-4.8c-0.3-0.3-0.3-0.8,0-1.2
			C486.4,589.4,486.7,589.3,486.8,589.3 M487.3,588.3l-0.2,0.2c-0.1,0-0.2,0-0.3,0c-0.4,0-0.8,0.2-1.2,0.5c-0.3,0.3-0.5,0.8-0.5,1.2
			s0.2,0.8,0.5,1.2l3.6,3.3h-6.9h-0.8v0.8v1.7v0.8h0.8h6.9l-3.6,3.3l-0.6,0.6l0.2,0.2c-0.1,0.2-0.1,0.3-0.1,0.5
			c0,0.4,0.2,0.8,0.5,1.2c0.3,0.3,0.8,0.5,1.2,0.5c0.4,0,0.8-0.2,1.2-0.5l7.3-6.8l0.7-0.6l-0.7-0.6L488,589L487.3,588.3L487.3,588.3
			z"/>
	</g>
	<g>
		<path fill="none" stroke="#FFFFFF" stroke-width="4" stroke-miterlimit="10" d="M483.2,596.4h-16.6"/>
		<path fill="none" stroke="#231F20" stroke-width="2" stroke-miterlimit="10" d="M483.2,596.4h-16.6"/>
	</g>
</g>
<g>
	<path fill="#FFFFFF" d="M231.9,615.3h-10.2l-5.1,5.1v10.2l20.5,20.5l15.3-15.3L231.9,615.3z M230.7,633.2l3.8-3.8l6.4,6.4l-3.8,3.8
		L230.7,633.2z M229.4,624.2c0-2.1-1.8-3.8-3.8-3.8s-3.8,1.8-3.8,3.8s1.8,3.8,3.8,3.8S229.4,626.4,229.4,624.2z M225.5,625.5
		c-0.7,0-1.2-0.6-1.2-1.2c0-0.7,0.6-1.2,1.2-1.2c0.7,0,1.2,0.6,1.2,1.2C226.8,624.9,226.2,625.5,225.5,625.5z"/>
	<path fill="#3F81C3" d="M231.9,615.3h-10.2l-5.1,5.1v10.2l20.5,20.5l15.3-15.3L231.9,615.3z M219.2,629.4v-7.7l3.8-3.8h7.7
		l17.9,17.9l-11.5,11.5L219.2,629.4z M234.5,625.5l-7.7,7.7l10.2,10.2l7.7-7.7L234.5,625.5z M230.7,633.2l3.8-3.8l6.4,6.4l-3.8,3.8
		L230.7,633.2z M229.4,624.2c0-2.1-1.8-3.8-3.8-3.8s-3.8,1.8-3.8,3.8s1.8,3.8,3.8,3.8S229.4,626.4,229.4,624.2z M225.5,625.5
		c-0.7,0-1.2-0.6-1.2-1.2c0-0.7,0.6-1.2,1.2-1.2c0.7,0,1.2,0.6,1.2,1.2C226.8,624.9,226.2,625.5,225.5,625.5z"/>
</g>
<text transform="matrix(1.0208 0 0 1 216.5781 548.0859)" fill="#231F20" font-family="'ApexNew-Book'" font-size="11.6667">V1.0</text>
</svg>
