<?xml version="1.0" encoding="utf-8"?>
<!-- Generator: Adobe Illustrator 17.1.0, SVG Export Plug-In . SVG Version: 6.00 Build 0)  -->
<!DOCTYPE svg PUBLIC "-//W3C//DTD SVG 1.1//EN" "http://www.w3.org/Graphics/SVG/1.1/DTD/svg11.dtd">
<svg version="1.1" id="Layer_1" xmlns="http://www.w3.org/2000/svg" xmlns:xlink="http://www.w3.org/1999/xlink" x="0px" y="0px"
	 viewBox="27 455 473 323" enable-background="new 27 455 473 323" xml:space="preserve">
<g id="base">
	<g id="border_4_">
		<path d="M183.6,544.7c13.6,0,24.8,11.2,24.8,24.8v100.7c0,13.6-11.2,24.8-24.8,24.8H76.7c-13.6,0-24.8-11.2-24.8-24.8V569.3
			c0-13.6,11.2-24.8,24.8-24.8L183.6,544.7 M183.6,543.3H76.7c-14.2,0-25.8,11.8-25.8,25.8v100.7c0,14.2,11.8,25.8,25.8,25.8h106.9
			c14.2,0,25.8-11.8,25.8-25.8V569.2C209.4,555,197.7,543.3,183.6,543.3L183.6,543.3z"/>
	</g>
	<path d="M152.4,585.7c-7.1,0-12.9,5.8-12.9,12.9c0,4.7,2.6,8.8,6.4,11.1v1.8c0,0,0,12.9-12.9,12.9c-5.4,0-9.5,1.1-12.9,2.8v-30.3
		c3.8-2.3,6.4-6.4,6.4-11.1c0-7.1-5.8-12.9-12.9-12.9s-12.6,5.7-12.6,12.8c0,4.7,2.6,8.8,6.4,11.1v42.1c-3.8,2.3-6.4,6.4-6.4,11.1
		c0,7.1,5.8,12.9,12.9,12.9s12.9-5.8,12.9-12.9c0-3.4-1.3-6.4-3.4-8.6c1.8-2.3,5-4.1,9.9-4.1c25.5,0,25.7-25.7,25.7-25.7v-1.8
		c3.8-2.3,6.4-6.4,6.4-11.1C165.3,591.5,159.5,585.7,152.4,585.7z M113.8,579.2c3.5,0,6.4,2.8,6.4,6.4c0,3.5-2.8,6.4-6.4,6.4
		s-6.4-2.8-6.4-6.4C107.4,582.2,110.3,579.2,113.8,579.2z M113.8,656.3c-3.5,0-6.4-2.8-6.4-6.4c0-3.6,2.8-6.4,6.4-6.4
		s6.4,2.8,6.4,6.4C120.2,653.3,117.4,656.3,113.8,656.3z M152.4,604.9c-3.5,0-6.4-2.8-6.4-6.4c0-3.6,2.8-6.4,6.4-6.4
		c3.5,0,6.4,2.8,6.4,6.4C158.8,602.2,155.9,604.9,152.4,604.9z"/>
</g>
<g id="commit-1">
	<g>
		<g>
			<path d="M431.2,513.7c-1.7-6.8-7.8-11.8-15.2-11.8c-7.4,0-13.3,5-15.2,11.8h-12.3v7.8h12.3c1.7,6.8,7.8,11.8,15.2,11.8
				c7.4,0,13.3-5,15.2-11.8h12.3v-7.8H431.2z M416.1,525.3c-4.4,0-7.8-3.5-7.8-7.8c0-4.4,3.5-7.8,7.8-7.8c4.4,0,7.8,3.5,7.8,7.8
				S420.3,525.3,416.1,525.3z"/>
			<g id="border_1_">
				<path d="M435.5,475c13.6,0,24.8,11.2,24.8,24.8v38.3c0,13.6-11.2,24.8-24.8,24.8h-38.8c-13.6,0-24.8-11.2-24.8-24.8v-38.3
					c0-13.6,11.2-24.8,24.8-24.8H435.5 M435.5,474h-38.8c-14.2,0-25.8,11.8-25.8,25.8v38.3c0,14.2,11.8,25.8,25.8,25.8h38.8
					c14.2,0,25.8-11.8,25.8-25.8v-38.3C461.3,485.5,449.7,474,435.5,474L435.5,474z"/>
			</g>
		</g>
		<g>
			<g>
				<path fill="#231F20" d="M453.9,485.5c-6.5,0-11.9-5.4-11.9-11.9s5.4-11.9,11.9-11.9s11.9,5.4,11.9,11.9S460.6,485.5,453.9,485.5
					z"/>
				<path fill="#FFFFFF" d="M453.9,463.2c5.8,0,10.5,4.7,10.5,10.5s-4.7,10.5-10.5,10.5s-10.5-4.7-10.5-10.5
					C443.6,467.9,448.2,463.2,453.9,463.2 M453.9,460.4c-7.4,0-13.3,6-13.3,13.3c0,7.4,6,13.3,13.3,13.3c7.4,0,13.3-6,13.3-13.3
					C467.2,466.2,461.3,460.4,453.9,460.4L453.9,460.4z"/>
			</g>
			<g>
				<text transform="matrix(1.0483 0 0 1 451.5059 477.8486)" fill="#FFFFFF" font-family="'ApexNew-Book'" font-size="14.2689">1</text>
			</g>
		</g>
	</g>
</g>
<g id="commit-2">
	<g>
		<g>
			<path d="M431.2,615.7c-1.7-6.8-7.8-11.8-15.2-11.8c-7.4,0-13.3,5-15.2,11.8h-12.3v7.8h12.3c1.7,6.8,7.8,11.8,15.2,11.8
				c7.4,0,13.3-5,15.2-11.8h12.3v-7.8H431.2z M416.1,627.4c-4.4,0-7.8-3.5-7.8-7.8c0-4.4,3.5-7.8,7.8-7.8c4.4,0,7.8,3.5,7.8,7.8
				S420.3,627.4,416.1,627.4z"/>
			<g id="border_2_">
				<path d="M435.5,577.2c13.6,0,24.8,11.2,24.8,24.8v38.3c0,13.6-11.2,24.8-24.8,24.8h-38.8c-13.6,0-24.8-11.2-24.8-24.8V602
					c0-13.6,11.2-24.8,24.8-24.8H435.5 M435.5,576.2h-38.8c-14.2,0-25.8,11.8-25.8,25.8v38.3c0,14.2,11.8,25.8,25.8,25.8h38.8
					c14.2,0,25.8-11.8,25.8-25.8V602C461.3,587.8,449.7,576.2,435.5,576.2L435.5,576.2z"/>
			</g>
		</g>
		<g>
			<g>
				<path fill="#231F20" d="M453.9,598.3c-6.5,0-11.9-5.4-11.9-11.9s5.4-11.9,11.9-11.9s11.9,5.4,11.9,11.9S460.6,598.3,453.9,598.3
					z"/>
				<path fill="#FFFFFF" d="M453.9,576.2c5.8,0,10.5,4.7,10.5,10.5s-4.7,10.5-10.5,10.5s-10.5-4.7-10.5-10.5
					C443.6,580.8,448.2,576.2,453.9,576.2 M453.9,573.2c-7.4,0-13.3,6-13.3,13.3c0,7.4,6,13.3,13.3,13.3c7.4,0,13.3-6,13.3-13.3
					C467.2,579.2,461.3,573.2,453.9,573.2L453.9,573.2z"/>
			</g>
			<g>
				<text transform="matrix(1.0483 0 0 1 450.2715 590.7549)" fill="#FFFFFF" font-family="'ApexNew-Book'" font-size="14.2689">2</text>
			</g>
		</g>
	</g>
</g>
<g>
	<g>
		<path d="M431.2,719.9c-1.7-6.8-7.8-11.8-15.2-11.8c-7.4,0-13.3,5-15.2,11.8h-12.3v7.8h12.3c1.7,6.8,7.8,11.8,15.2,11.8
			c7.4,0,13.3-5,15.2-11.8h12.3v-7.8H431.2z M416.1,731.8c-4.4,0-7.8-3.5-7.8-7.8c0-4.4,3.5-7.8,7.8-7.8c4.4,0,7.8,3.5,7.8,7.8
			C423.9,728.1,420.3,731.8,416.1,731.8z"/>
		<g id="border_3_">
			<path d="M435.5,681.4c13.6,0,24.8,11.2,24.8,24.8v38.3c0,13.6-11.2,24.8-24.8,24.8h-38.8c-13.6,0-24.8-11.2-24.8-24.8v-38.3
				c0-13.6,11.2-24.8,24.8-24.8H435.5 M435.5,680.4h-38.8c-14.2,0-25.8,11.8-25.8,25.8v38.2c0,14.2,11.8,25.8,25.8,25.8h38.8
				c14.2,0,25.8-11.8,25.8-25.8v-38.3C461.3,692.1,449.7,680.4,435.5,680.4L435.5,680.4z"/>
		</g>
	</g>
	<g>
		<g>
			<path fill="#231F20" d="M453.9,702.6c-6.5,0-11.9-5.4-11.9-11.9s5.4-11.9,11.9-11.9s11.9,5.4,11.9,11.9
				C465.8,697.2,460.6,702.6,453.9,702.6z"/>
			<path fill="#FFFFFF" d="M453.9,680.4c5.8,0,10.5,4.7,10.5,10.5s-4.7,10.5-10.5,10.5s-10.5-4.7-10.5-10.5
				C443.6,685.1,448.2,680.4,453.9,680.4 M453.9,677.4c-7.4,0-13.3,6-13.3,13.3c0,7.4,6,13.3,13.3,13.3c7.4,0,13.3-6,13.3-13.3
				C467.2,683.4,461.3,677.4,453.9,677.4L453.9,677.4z"/>
		</g>
		<g>
			<text transform="matrix(1.0483 0 0 1 450.1973 694.9502)" fill="#FFFFFF" font-family="'ApexNew-Book'" font-size="14.2689">3</text>
		</g>
	</g>
</g>
<path display="none" fill="none" stroke="#FFFFFF" stroke-width="5" stroke-miterlimit="10" d="M458.9,896.8
	c0-27.6-22.4-49.9-49.9-49.9"/>
<g>
	<g>
		<path fill="#231F20" d="M361.4,527.2c-0.4,0-0.8-0.2-1.1-0.4c-0.3-0.3-0.4-0.7-0.4-1.1c0-0.3,0.1-0.5,0.2-0.7l0,0l0.4-0.4l5.2-4.8
			h-10.1v-3h10.1l-5.2-4.8c-0.6-0.6-0.6-1.6,0-2.1c0.3-0.3,0.7-0.4,1-0.4c0.2,0,0.4,0,0.6,0.1l0.1-0.1l0.4,0.3l9.2,8.5l-9.2,8.5
			C362.2,527,361.8,527.2,361.4,527.2z"/>
		<path fill="#FFFFFF" d="M361.4,509.9c0.2,0,0.5,0.1,0.7,0.2l0,0l8.8,8.2l-8.8,8.2c-0.2,0.2-0.5,0.3-0.7,0.3
			c-0.3,0-0.5-0.1-0.7-0.3c-0.4-0.4-0.4-1,0-1.4c0,0,0,0,0.1,0l0,0l6.1-5.7H356c0-0.7,0-1.3,0-2h10.9l-6.1-5.7c-0.4-0.4-0.4-1,0-1.4
			C360.9,510,361.2,509.9,361.4,509.9 M362,508.6l-0.2,0.2c-0.1,0-0.3,0-0.4,0c-0.5,0-1,0.2-1.4,0.6s-0.6,0.9-0.6,1.4s0.2,1,0.6,1.4
			l4.3,4H356h-1v1v2v1h1h8.3l-4.3,4l-0.7,0.7l0.2,0.2c-0.1,0.2-0.1,0.4-0.1,0.6c0,0.5,0.2,1,0.6,1.4s0.9,0.6,1.4,0.6s1-0.2,1.4-0.6
			l8.8-8.2l0.8-0.7l-0.8-0.7l-8.8-8.2L362,508.6L362,508.6z"/>
	</g>
	<g>
		<path fill="none" stroke="#FFFFFF" stroke-width="4" stroke-miterlimit="10" d="M357.1,518.3h-19.9c-9.9,0-18,8.1-18,18v36.4
			c0,9.9-8.1,18-18,18h-91.7"/>
		<path fill="none" stroke="#231F20" stroke-width="2" stroke-miterlimit="10" d="M357.1,518.3h-19.9c-9.9,0-18,8.1-18,18v36.4
			c0,9.9-8.1,18-18,18h-91.7"/>
	</g>
</g>
<g>
	<g>
		<path fill="#231F20" d="M361.4,735.9c-0.4,0-0.8-0.2-1-0.4c-0.3-0.3-0.4-0.7-0.4-1.1s0.2-0.8,0.4-1.1l5.2-4.9h-10.1v-3h10.1
			l-5.3-4.9l0,0l-0.3-0.4V720c-0.1-0.2-0.2-0.5-0.2-0.7c0-0.4,0.2-0.8,0.4-1.1c0.3-0.3,0.7-0.4,1.1-0.4s0.8,0.2,1.1,0.4l9.2,8.5
			l-9.6,8.9l-0.1-0.1C361.8,735.8,361.6,735.9,361.4,735.9z"/>
		<path fill="#FFFFFF" d="M361.4,718.4c0.3,0,0.5,0.1,0.7,0.3l8.8,8.2l-8.8,8.2l0,0c-0.2,0.2-0.4,0.2-0.7,0.2
			c-0.3,0-0.5-0.1-0.7-0.3c-0.4-0.4-0.4-1,0-1.4l6.1-5.7H356c0-0.7,0-1.3,0-2h10.9l-6.1-5.7l0,0c0,0,0,0-0.1,0c-0.4-0.4-0.4-1,0-1.4
			C360.9,718.6,361.1,718.4,361.4,718.4 M361.4,717.4c-0.5,0-1,0.2-1.4,0.6c-0.4,0.4-0.6,0.9-0.6,1.4c0,0.2,0,0.4,0.1,0.6l-0.2,0.2
			l0.7,0.7l0,0l0,0l0,0l4.3,4H356h-1v1v2v1h1h8.3l-4.3,4c-0.4,0.4-0.6,0.9-0.6,1.4s0.2,1,0.6,1.4s0.9,0.6,1.4,0.6c0.1,0,0.3,0,0.4,0
			l0.2,0.2l0.7-0.7l8.8-8.2l0.8-0.7l-0.8-0.7l-8.8-8.2C362.4,717.8,361.9,717.4,361.4,717.4L361.4,717.4z"/>
	</g>
	<g>
		<path fill="none" stroke="#FFFFFF" stroke-width="4" stroke-miterlimit="10" d="M209.4,654.4h91.7c9.9,0,18,8.1,18,18v36.4
			c0,9.9,8.1,18,18,18H357"/>
		<path fill="none" stroke="#231F20" stroke-width="2" stroke-miterlimit="10" d="M209.4,654.4h91.7c9.9,0,18,8.1,18,18v36.4
			c0,9.9,8.1,18,18,18H357"/>
	</g>
</g>
<g>
	<path fill="#231F20" d="M361.4,630.1c-0.4,0-0.8-0.2-1-0.4c-0.3-0.3-0.4-0.7-0.4-1.1c0-0.4,0.2-0.8,0.4-1.1l5.2-4.9h-10.1v-3h10.1
		l-5.3-4.9l0,0l-0.3-0.3v-0.1c-0.1-0.2-0.2-0.5-0.2-0.7c0-0.4,0.2-0.8,0.4-1.1c0.3-0.3,0.7-0.4,1.1-0.4s0.8,0.2,1.1,0.4l9.2,8.5
		l-9.6,8.9l-0.1-0.1C361.8,630.1,361.6,630.1,361.4,630.1z"/>
	<path fill="#FFFFFF" d="M361.4,612.8c0.3,0,0.5,0.1,0.7,0.3l8.8,8.2l-8.8,8.2l0,0c-0.2,0.2-0.4,0.2-0.7,0.2c-0.3,0-0.5-0.1-0.7-0.3
		c-0.4-0.4-0.4-1,0-1.4l6.1-5.7H356c0-0.7,0-1.3,0-2h10.9l-6.1-5.7l0,0c0,0,0,0-0.1,0c-0.4-0.4-0.4-1,0-1.4
		C360.9,612.9,361.1,612.8,361.4,612.8 M361.4,611.8c-0.5,0-1,0.2-1.4,0.6c-0.4,0.4-0.6,0.9-0.6,1.4c0,0.2,0,0.4,0.1,0.6l-0.2,0.2
		l0.7,0.7l0,0l0,0l0,0l4.3,4H356h-1v1v2v1h1h8.3l-4.3,4c-0.4,0.4-0.6,0.9-0.6,1.4s0.2,1,0.6,1.4s0.9,0.6,1.4,0.6c0.1,0,0.3,0,0.4,0
		l0.2,0.2l0.7-0.7l8.8-8.2l0.8-0.7l-0.8-0.7l-8.8-8.2C362.4,611.9,361.9,611.8,361.4,611.8L361.4,611.8z"/>
</g>
<g>
	<line fill="none" stroke="#FFFFFF" stroke-width="4" stroke-miterlimit="10" x1="209.4" y1="621.2" x2="357.1" y2="621.2"/>
	<line fill="none" stroke="#231F20" stroke-width="2" stroke-miterlimit="10" x1="209.4" y1="621.2" x2="357.1" y2="621.2"/>
</g>
</svg>
