<?xml version="1.0" encoding="utf-8"?>
<!-- Generator: Adobe Illustrator 17.1.0, SVG Export Plug-In . SVG Version: 6.00 Build 0)  -->
<!DOCTYPE svg PUBLIC "-//W3C//DTD SVG 1.1//EN" "http://www.w3.org/Graphics/SVG/1.1/DTD/svg11.dtd">
<svg version="1.1" id="Layer_1" xmlns="http://www.w3.org/2000/svg" xmlns:xlink="http://www.w3.org/1999/xlink" x="0px" y="0px"
	 viewBox="36.7 368.6 500 331.7" enable-background="new 36.7 368.6 500 331.7" xml:space="preserve">
<g id="boundary">
	<path fill="none" stroke="#FFFFFF" stroke-width="4" stroke-miterlimit="10" d="M36.7,368.6v331.7h500V368.6H36.7L36.7,368.6z"/>
</g>
<g id="base">
	<g id="border_4_">
		<path d="M183.6,460.5c13.6,0,24.8,11.2,24.8,24.8V586c0,13.6-11.2,24.8-24.8,24.8H76.7c-13.6,0-24.8-11.2-24.8-24.8V485.2
			c0-13.6,11.2-24.8,24.8-24.8L183.6,460.5 M183.6,459.2H76.7c-14.2,0-25.8,11.8-25.8,25.8v100.7c0,14.2,11.8,25.8,25.8,25.8h106.9
			c14.2,0,25.8-11.8,25.8-25.8V485C209.4,470.9,197.7,459.2,183.6,459.2L183.6,459.2z"/>
	</g>
	<path d="M152.4,501.5c-7.1,0-12.9,5.8-12.9,12.9c0,4.7,2.6,8.8,6.4,11.1v1.8c0,0,0,12.9-12.9,12.9c-5.4,0-9.5,1.1-12.9,2.8v-30.3
		c3.8-2.3,6.4-6.4,6.4-11.1c0-7.1-5.8-12.9-12.9-12.9s-12.6,5.7-12.6,12.8c0,4.7,2.6,8.8,6.4,11.1v42.1c-3.8,2.3-6.4,6.4-6.4,11.1
		c0,7.1,5.8,12.9,12.9,12.9s12.9-5.8,12.9-12.9c0-3.4-1.3-6.4-3.4-8.6c1.8-2.3,5-4.1,9.9-4.1c25.5,0,25.7-25.7,25.7-25.7v-1.8
		c3.8-2.3,6.4-6.4,6.4-11.1C165.3,507.4,159.5,501.5,152.4,501.5z M113.8,495.1c3.5,0,6.4,2.8,6.4,6.4c0,3.5-2.8,6.4-6.4,6.4
		s-6.4-2.8-6.4-6.4C107.4,498,110.3,495.1,113.8,495.1z M113.8,572.2c-3.5,0-6.4-2.8-6.4-6.4c0-3.6,2.8-6.4,6.4-6.4s6.4,2.8,6.4,6.4
		C120.2,569.2,117.4,572.2,113.8,572.2z M152.4,520.8c-3.5,0-6.4-2.8-6.4-6.4c0-3.6,2.8-6.4,6.4-6.4c3.5,0,6.4,2.8,6.4,6.4
		C158.8,518,155.9,520.8,152.4,520.8z"/>
</g>
<g id="commit-1">
	<g>
		<g>
			<path d="M431.2,429.5c-1.7-6.8-7.8-11.8-15.2-11.8c-7.4,0-13.3,5-15.2,11.8h-12.3v7.8h12.3c1.7,6.8,7.8,11.8,15.2,11.8
				c7.4,0,13.3-5,15.2-11.8h12.3v-7.8H431.2z M416.1,441.2c-4.4,0-7.8-3.5-7.8-7.8c0-4.4,3.5-7.8,7.8-7.8c4.4,0,7.8,3.5,7.8,7.8
				S420.3,441.2,416.1,441.2z"/>
			<g id="border_1_">
				<path d="M435.5,390.9c13.6,0,24.8,11.2,24.8,24.8V454c0,13.6-11.2,24.8-24.8,24.8h-38.8c-13.6,0-24.8-11.2-24.8-24.8v-38.3
					c0-13.6,11.2-24.8,24.8-24.8H435.5 M435.5,389.9h-38.8c-14.2,0-25.8,11.8-25.8,25.8V454c0,14.2,11.8,25.8,25.8,25.8h38.8
					c14.2,0,25.8-11.8,25.8-25.8v-38.3C461.3,401.4,449.7,389.9,435.5,389.9L435.5,389.9z"/>
			</g>
		</g>
		<g>
			<g>
				<path fill="#231F20" d="M453.9,401.4c-6.5,0-11.9-5.4-11.9-11.9s5.4-11.9,11.9-11.9s11.9,5.4,11.9,11.9S460.6,401.4,453.9,401.4
					z"/>
				<path fill="#FFFFFF" d="M453.9,379.1c5.8,0,10.5,4.7,10.5,10.5s-4.7,10.5-10.5,10.5s-10.5-4.7-10.5-10.5
					C443.6,383.8,448.2,379.1,453.9,379.1 M453.9,376.2c-7.4,0-13.3,6-13.3,13.3c0,7.4,6,13.3,13.3,13.3c7.4,0,13.3-6,13.3-13.3
					C467.2,382.1,461.3,376.2,453.9,376.2L453.9,376.2z"/>
			</g>
			<g>
				<text transform="matrix(1.0483 0 0 1 451.5059 393.6982)" fill="#FFFFFF" font-family="'ApexNew-Book'" font-size="14.2689">1</text>
			</g>
		</g>
	</g>
</g>
<g id="commit-2">
	<g>
		<g>
			<path d="M431.2,531.5c-1.7-6.8-7.8-11.8-15.2-11.8c-7.4,0-13.3,5-15.2,11.8h-12.3v7.8h12.3c1.7,6.8,7.8,11.8,15.2,11.8
				c7.4,0,13.3-5,15.2-11.8h12.3v-7.8H431.2z M416.1,543.3c-4.4,0-7.8-3.5-7.8-7.8c0-4.4,3.5-7.8,7.8-7.8c4.4,0,7.8,3.5,7.8,7.8
				C423.9,539.8,420.3,543.3,416.1,543.3z"/>
			<g id="border_2_">
				<path d="M435.5,493.1c13.6,0,24.8,11.2,24.8,24.8v38.3c0,13.6-11.2,24.8-24.8,24.8h-38.8c-13.6,0-24.8-11.2-24.8-24.8v-38.3
					c0-13.6,11.2-24.8,24.8-24.8H435.5 M435.5,492h-38.8c-14.2,0-25.8,11.8-25.8,25.8v38.3c0,14.2,11.8,25.8,25.8,25.8h38.8
					c14.2,0,25.8-11.8,25.8-25.8v-38.3C461.3,503.6,449.7,492,435.5,492L435.5,492z"/>
			</g>
		</g>
		<g>
			<g>
				<path fill="#231F20" d="M453.9,514.2c-6.5,0-11.9-5.4-11.9-11.9s5.4-11.9,11.9-11.9s11.9,5.4,11.9,11.9S460.6,514.2,453.9,514.2
					z"/>
				<path fill="#FFFFFF" d="M453.9,492c5.8,0,10.5,4.7,10.5,10.5s-4.7,10.5-10.5,10.5s-10.5-4.7-10.5-10.5
					C443.6,496.6,448.2,492,453.9,492 M453.9,489.1c-7.4,0-13.3,6-13.3,13.3c0,7.4,6,13.3,13.3,13.3c7.4,0,13.3-6,13.3-13.3
					C467.2,495.1,461.3,489.1,453.9,489.1L453.9,489.1z"/>
			</g>
			<g>
				<text transform="matrix(1.0483 0 0 1 450.2715 506.6045)" fill="#FFFFFF" font-family="'ApexNew-Book'" font-size="14.2689">2</text>
			</g>
		</g>
	</g>
</g>
<g>
	<g>
		<path d="M431.2,635.8c-1.7-6.8-7.8-11.8-15.2-11.8c-7.4,0-13.3,5-15.2,11.8h-12.3v7.8h12.3c1.7,6.8,7.8,11.8,15.2,11.8
			c7.4,0,13.3-5,15.2-11.8h12.3v-7.8H431.2z M416.1,647.6c-4.4,0-7.8-3.5-7.8-7.8c0-4.4,3.5-7.8,7.8-7.8c4.4,0,7.8,3.5,7.8,7.8
			C423.9,643.9,420.3,647.6,416.1,647.6z"/>
		<g id="border_3_">
			<path d="M435.5,597.3c13.6,0,24.8,11.2,24.8,24.8v38.3c0,13.6-11.2,24.8-24.8,24.8h-38.8c-13.6,0-24.8-11.2-24.8-24.8v-38.3
				c0-13.6,11.2-24.8,24.8-24.8H435.5 M435.5,596.3h-38.8c-14.2,0-25.8,11.8-25.8,25.8v38.2c0,14.2,11.8,25.8,25.8,25.8h38.8
				c14.2,0,25.8-11.8,25.8-25.8v-38.3C461.3,607.9,449.7,596.3,435.5,596.3L435.5,596.3z"/>
		</g>
	</g>
	<g>
		<g>
			<path fill="#231F20" d="M453.9,618.4c-6.5,0-11.9-5.4-11.9-11.9s5.4-11.9,11.9-11.9s11.9,5.4,11.9,11.9
				C465.8,613.1,460.6,618.4,453.9,618.4z"/>
			<path fill="#FFFFFF" d="M453.9,596.3c5.8,0,10.5,4.7,10.5,10.5c0,5.8-4.7,10.5-10.5,10.5s-10.5-4.7-10.5-10.5
				C443.6,600.9,448.2,596.3,453.9,596.3 M453.9,593.3c-7.4,0-13.3,6-13.3,13.3c0,7.4,6,13.3,13.3,13.3c7.4,0,13.3-6,13.3-13.3
				C467.2,599.3,461.3,593.3,453.9,593.3L453.9,593.3z"/>
		</g>
		<g>
			<text transform="matrix(1.0483 0 0 1 450.1973 610.7998)" fill="#FFFFFF" font-family="'ApexNew-Book'" font-size="14.2689">3</text>
		</g>
	</g>
</g>
<path display="none" fill="none" stroke="#FFFFFF" stroke-width="5" stroke-miterlimit="10" d="M458.9,812.6
	c0-27.6-22.4-49.9-49.9-49.9"/>
<g>
	<g>
		<path fill="#231F20" d="M361.4,443.1c-0.4,0-0.8-0.2-1.1-0.4c-0.3-0.3-0.4-0.7-0.4-1.1c0-0.3,0.1-0.5,0.2-0.7l0,0l0.4-0.4l5.2-4.8
			h-10.1v-3h10.1l-5.2-4.8c-0.6-0.6-0.6-1.6,0-2.1c0.3-0.3,0.7-0.4,1-0.4c0.2,0,0.4,0,0.6,0.1l0.1-0.1l0.4,0.3l9.2,8.5l-9.2,8.5
			C362.2,442.9,361.8,443.1,361.4,443.1z"/>
		<path fill="#FFFFFF" d="M361.4,425.8c0.2,0,0.5,0.1,0.7,0.2l0,0l8.8,8.2l-8.8,8.2c-0.2,0.2-0.5,0.3-0.7,0.3
			c-0.3,0-0.5-0.1-0.7-0.3c-0.4-0.4-0.4-1,0-1.4c0,0,0,0,0.1,0l0,0l6.1-5.7H356c0-0.7,0-1.3,0-2h10.9l-6.1-5.7c-0.4-0.4-0.4-1,0-1.4
			C360.9,425.9,361.2,425.8,361.4,425.8 M362,424.5l-0.2,0.2c-0.1,0-0.3,0-0.4,0c-0.5,0-1,0.2-1.4,0.6s-0.6,0.9-0.6,1.4
			s0.2,1,0.6,1.4l4.3,4H356h-1v1v2v1h1h8.3l-4.3,4l-0.7,0.7l0.2,0.2c-0.1,0.2-0.1,0.4-0.1,0.6c0,0.5,0.2,1,0.6,1.4s0.9,0.6,1.4,0.6
			s1-0.2,1.4-0.6l8.8-8.2l0.8-0.7l-0.8-0.7l-8.8-8.2L362,424.5L362,424.5z"/>
	</g>
	<g>
		<path fill="none" stroke="#FFFFFF" stroke-width="4" stroke-miterlimit="10" d="M357.1,434.2h-19.9c-9.9,0-18,8.1-18,18v36.4
			c0,9.9-8.1,18-18,18h-91.7"/>
		<path fill="none" stroke="#231F20" stroke-width="2" stroke-miterlimit="10" d="M357.1,434.2h-19.9c-9.9,0-18,8.1-18,18v36.4
			c0,9.9-8.1,18-18,18h-91.7"/>
	</g>
</g>
<g>
	<g>
		<path fill="#231F20" d="M361.4,651.8c-0.4,0-0.8-0.2-1-0.4c-0.3-0.3-0.4-0.7-0.4-1.1c0-0.4,0.2-0.8,0.4-1.1l5.2-4.9h-10.1v-3h10.1
			l-5.3-4.9l0,0L360,636v-0.1c-0.1-0.2-0.2-0.5-0.2-0.7c0-0.4,0.2-0.8,0.4-1.1c0.3-0.3,0.7-0.4,1.1-0.4s0.8,0.2,1.1,0.4l9.2,8.5
			l-9.6,8.9l-0.1-0.1C361.8,651.7,361.6,651.8,361.4,651.8z"/>
		<path fill="#FFFFFF" d="M361.4,634.3c0.3,0,0.5,0.1,0.7,0.3l8.8,8.2l-8.8,8.2l0,0c-0.2,0.2-0.4,0.2-0.7,0.2
			c-0.3,0-0.5-0.1-0.7-0.3c-0.4-0.4-0.4-1,0-1.4l6.1-5.7H356c0-0.7,0-1.3,0-2h10.9l-6.1-5.7l0,0c0,0,0,0-0.1,0c-0.4-0.4-0.4-1,0-1.4
			C360.9,634.4,361.1,634.3,361.4,634.3 M361.4,633.3c-0.5,0-1,0.2-1.4,0.6c-0.4,0.4-0.6,0.9-0.6,1.4c0,0.2,0,0.4,0.1,0.6l-0.2,0.2
			l0.7,0.7l0,0l0,0l0,0l4.3,4H356h-1v1v2v1h1h8.3l-4.3,4c-0.4,0.4-0.6,0.9-0.6,1.4s0.2,1,0.6,1.4s0.9,0.6,1.4,0.6c0.1,0,0.3,0,0.4,0
			l0.2,0.2l0.7-0.7l8.8-8.2l0.8-0.7l-0.8-0.7l-8.8-8.2C362.4,633.6,361.9,633.3,361.4,633.3L361.4,633.3z"/>
	</g>
	<g>
		<path fill="none" stroke="#FFFFFF" stroke-width="4" stroke-miterlimit="10" d="M209.4,570.3h91.7c9.9,0,18,8.1,18,18v36.4
			c0,9.9,8.1,18,18,18H357"/>
		<path fill="none" stroke="#231F20" stroke-width="2" stroke-miterlimit="10" d="M209.4,570.3h91.7c9.9,0,18,8.1,18,18v36.4
			c0,9.9,8.1,18,18,18H357"/>
	</g>
</g>
<g>
	<path fill="#231F20" d="M361.4,545.9c-0.4,0-0.8-0.2-1-0.4c-0.3-0.3-0.4-0.7-0.4-1.1c0-0.4,0.2-0.8,0.4-1.1l5.2-4.9h-10.1v-3h10.1
		l-5.3-4.9l0,0l-0.3-0.3v-0.1c-0.1-0.2-0.2-0.5-0.2-0.7c0-0.4,0.2-0.8,0.4-1.1c0.3-0.3,0.7-0.4,1.1-0.4s0.8,0.2,1.1,0.4l9.2,8.5
		l-9.6,8.9l-0.1-0.1C361.8,545.9,361.6,545.9,361.4,545.9z"/>
	<path fill="#FFFFFF" d="M361.4,528.7c0.3,0,0.5,0.1,0.7,0.3l8.8,8.2l-8.8,8.2l0,0c-0.2,0.2-0.4,0.2-0.7,0.2c-0.3,0-0.5-0.1-0.7-0.3
		c-0.4-0.4-0.4-1,0-1.4l6.1-5.7H356c0-0.7,0-1.3,0-2h10.9l-6.1-5.7l0,0c0,0,0,0-0.1,0c-0.4-0.4-0.4-1,0-1.4
		C360.9,528.8,361.1,528.7,361.4,528.7 M361.4,527.7c-0.5,0-1,0.2-1.4,0.6s-0.6,0.9-0.6,1.4c0,0.2,0,0.4,0.1,0.6l-0.2,0.2l0.7,0.7
		l0,0l0,0l0,0l4.3,4H356h-1v1v2v1h1h8.3l-4.3,4c-0.4,0.4-0.6,0.9-0.6,1.4s0.2,1,0.6,1.4s0.9,0.6,1.4,0.6c0.1,0,0.3,0,0.4,0l0.2,0.2
		l0.7-0.7l8.8-8.2l0.8-0.7l-0.8-0.7l-8.8-8.2C362.4,527.8,361.9,527.7,361.4,527.7L361.4,527.7z"/>
</g>
<g>
	<line fill="none" stroke="#FFFFFF" stroke-width="4" stroke-miterlimit="10" x1="209.4" y1="537" x2="357.1" y2="537"/>
	<line fill="none" stroke="#231F20" stroke-width="2" stroke-miterlimit="10" x1="209.4" y1="537" x2="357.1" y2="537"/>
</g>
</svg>
