<?xml version="1.0" encoding="utf-8"?>
<!-- Generator: Adobe Illustrator 17.0.2, SVG Export Plug-In . SVG Version: 6.00 Build 0)  -->
<!DOCTYPE svg PUBLIC "-//W3C//DTD SVG 1.1//EN" "http://www.w3.org/Graphics/SVG/1.1/DTD/svg11.dtd">
<svg version="1.1" id="Layer_1" xmlns="http://www.w3.org/2000/svg" xmlns:xlink="http://www.w3.org/1999/xlink" x="0px" y="0px"
	 width="335px" height="107px" viewBox="-61.349 -7.895 335 107" enable-background="new -61.349 -7.895 335 107"
	 xml:space="preserve">
<g id="logo">
	<path d="M145.341,31.308c1.564,2.003,3.22,4.788,3.22,8.791c0,9.66-7.571,15.316-18.535,15.316c-2.787,0-5.312-0.347-6.876-0.782
		l-2.874,4.612l8.528,0.521c15.058,0.959,23.932,1.396,23.932,12.966c0,10.011-8.787,15.665-23.932,15.665
		c-15.752,0-21.757-4.004-21.757-10.878c0-3.918,1.741-6.002,4.787-8.879c-2.873-1.214-3.829-3.389-3.829-5.74
		c0-1.916,0.956-3.656,2.525-5.311c1.567-1.652,3.307-3.308,5.395-5.222c-4.263-2.088-7.484-6.614-7.484-13.056
		c0-10.007,6.615-16.88,19.928-16.88c3.742,0,6.007,0.345,8.009,0.87h16.972v7.396L145.341,31.308z M119.58,70.997
		c-1.133,1.391-2.263,2.868-2.263,4.612c0,3.479,4.437,4.525,10.53,4.525c5.048,0,11.924-0.354,11.924-5.047
		c0-2.789-3.308-2.962-7.487-3.224L119.58,70.997z M129.153,31.045c-4.788,0-8.354,2.351-8.354,8.009
		c0,4.263,2.351,7.223,8.096,7.223c4.87,0,8.179-2.87,8.179-7.399C137.074,33.745,134.114,31.045,129.153,31.045z"/>
	<path d="M157.431,67.794v-6.872l4.44-0.607c1.219-0.176,1.392-0.436,1.392-1.744V32.984c0-0.956-0.26-1.567-1.133-1.826
		l-4.699-1.655l0.957-7.047h18.017v36.115c0,1.395,0.085,1.568,1.393,1.744l4.439,0.607v6.872H157.431z M168.661,15.493
		c-4.962,0-7.833-2.874-7.833-7.837c0-4.957,2.871-7.656,7.833-7.656c5.048,0,7.92,2.7,7.92,7.656
		C176.58,12.619,173.708,15.493,168.661,15.493z"/>
	<path d="M216.653,64.42c-3.743,1.826-9.226,3.479-14.189,3.479c-10.356,0-14.271-4.173-14.271-14.012v-22.8
		c0-0.521,0-0.871-0.698-0.871h-6.092V22.47c7.661-0.872,10.705-4.703,11.662-14.188h8.27v12.362c0,0.607,0,0.87,0.697,0.87h12.27
		v8.702h-12.967v20.799c0,5.135,1.22,7.135,5.917,7.135c2.439,0,4.961-0.607,7.05-1.391L216.653,64.42z"/>
	<path d="M87.702,41.582L47.908,1.791c-2.29-2.292-6.007-2.292-8.3,0l-8.263,8.264l10.481,10.482
		c2.437-0.823,5.229-0.271,7.171,1.671c1.952,1.954,2.5,4.771,1.656,7.215l10.102,10.102c2.444-0.842,5.264-0.298,7.216,1.657
		c2.729,2.727,2.729,7.147,0,9.876s-7.149,2.729-9.879,0c-2.052-2.053-2.559-5.067-1.52-7.595l-9.421-9.422L47.15,58.834
		c0.666,0.329,1.293,0.769,1.847,1.321c2.728,2.727,2.728,7.146,0,9.878c-2.728,2.728-7.15,2.728-9.876,0
		c-2.728-2.731-2.728-7.151,0-9.878c0.674-0.673,1.454-1.183,2.287-1.524V33.607c-0.833-0.34-1.611-0.846-2.287-1.524
		c-2.066-2.065-2.564-5.098-1.504-7.635L27.285,14.114L0,41.397c-2.293,2.294-2.293,6.011,0,8.303l39.793,39.791
		c2.291,2.292,6.007,2.292,8.301,0l39.607-39.606C89.994,47.592,89.994,43.874,87.702,41.582z"/>
</g>
<g id="boundary">
	<rect x="-61.349" y="-7.895" fill="none" stroke="#F200FF" stroke-width="4" stroke-miterlimit="10" width="335" height="107"/>
</g>
</svg>
