<?xml version="1.0" encoding="utf-8"?>
<!-- Generator: Adobe Illustrator 17.0.2, SVG Export Plug-In . SVG Version: 6.00 Build 0)  -->
<!DOCTYPE svg PUBLIC "-//W3C//DTD SVG 1.1//EN" "http://www.w3.org/Graphics/SVG/1.1/DTD/svg11.dtd">
<svg version="1.1" id="Layer_1" xmlns="http://www.w3.org/2000/svg" xmlns:xlink="http://www.w3.org/1999/xlink" x="0px" y="0px"
	 width="2063.587px" height="380.2px" viewBox="339.508 203.3 2063.587 380.2"
	 enable-background="new 339.508 203.3 2063.587 380.2" xml:space="preserve">
<g>
	<path d="M974.352,362.677H865.029c-2.813,0-5.1,2.287-5.1,5.121v53.438c0,2.834,2.287,5.11,5.1,5.11h42.659v66.427
		c0,0-9.585,3.199-36.035,3.199c-31.238,0-74.864-11.443-74.864-107.338c0-95.936,45.419-108.56,88.078-108.56
		c36.928,0,52.815,6.484,62.949,9.628c3.178,0.999,6.076-2.19,6.076-5.034l12.216-51.635c0-1.32-0.472-2.909-1.932-3.982
		c-4.123-2.898-29.199-16.928-92.523-16.928c-72.996,0-147.85,31.045-147.85,180.301c0,149.235,85.696,171.456,157.919,171.456
		c59.782,0,96.108-25.527,96.108-25.527c1.481-0.816,1.632-2.899,1.632-3.844V367.798
		C979.44,364.985,977.143,362.677,974.352,362.677z M1527.214,224.874h-61.51c-2.834,0-5.109,2.286-5.109,5.12v118.942h-95.926
		V229.995c0-2.834-2.297-5.12-5.067-5.12h-61.575c-2.77,0-5.024,2.286-5.024,5.12v322.054c0,2.855,2.276,5.131,5.024,5.131h61.575
		c2.812,0,5.067-2.297,5.067-5.131V414.322h95.926l-0.215,137.749c0,2.856,2.276,5.11,5.024,5.11H1527
		c2.834,0,5.046-2.297,5.046-5.11l0.214-322.076C1532.302,227.161,1530.005,224.874,1527.214,224.874z M1047.885,232.174
		c-21.92,0-39.697,17.938-39.697,40.073c0,22.146,17.777,40.084,39.697,40.084s39.676-17.938,39.676-40.084
		C1087.561,250.112,1069.805,232.174,1047.885,232.174z M1083.202,335.475c0-2.813-2.276-5.142-5.046-5.142h-61.381
		c-2.878,0-5.324,2.898-5.324,5.743c0,0,0,178.895,0,212.989c0,6.226,3.886,8.115,8.931,8.115c0,0,26.15,0,55.283,0
		c6.034,0,7.622-2.963,7.622-8.245c-0.043-11.422-0.043-56.122-0.043-64.795C1083.202,475.896,1083.202,335.475,1083.202,335.475z
		 M1765.462,330.816h-61.059c-2.791,0-5.024,2.308-5.024,5.142v157.887c0,0-15.523,11.422-37.594,11.422
		c-22.006,0-27.889-9.983-27.889-31.603c0-21.556,0-137.727,0-137.727c0-2.834-2.297-5.143-5.046-5.143h-61.94
		c-2.834,0-5.067,2.309-5.067,5.143c0,0,0,84.096,0,148.14c0,64.043,35.704,79.737,84.762,79.737
		c40.277,0,72.803-22.264,72.803-22.264s1.524,11.68,2.297,13.075c0.645,1.395,2.469,2.791,4.466,2.791h39.246
		c2.791,0,5.067-2.298,5.067-5.132l0.172-216.348C1770.529,333.124,1768.253,330.816,1765.462,330.816z M1932.709,323.559
		c-34.695,0-58.29,15.479-58.29,15.479V229.995c0-2.834-2.297-5.12-5.046-5.12h-61.768c-2.769,0-5.046,2.286-5.046,5.12
		l-0.172,322.076c0,2.856,2.297,5.11,5.088,5.11c0,0,42.96,0,43.004,0c1.911,0,3.349-0.988,4.444-2.705
		c1.074-1.739,2.597-14.857,2.597-14.857s25.184,23.917,72.996,23.917c56.121,0,88.283-28.469,88.283-127.787
		C2018.802,336.559,1967.404,323.559,1932.709,323.559z M1908.621,505.052c-21.169-0.644-35.511-10.263-35.511-10.263V392.766
		c0,0,14.191-8.706,31.582-10.241c22.006-1.954,43.262,4.681,43.262,57.174C1947.845,495.004,1938.27,505.932,1908.621,505.052z
		 M1261.013,503.893c-2.706,0-9.618,1.073-16.704,1.073c-22.629,0-30.358-10.542-30.358-24.175c0-13.698,0-90.591,0-90.591h46.203
		c2.834,0,5.067-2.286,5.067-5.142v-49.627c0.043-2.855-2.233-5.142-5.067-5.142h-46.203l-0.065-60.984
		c0-2.308-1.223-3.456-3.886-3.456h-62.885c-2.426,0-3.779,1.084-3.779,3.435v63.024c0,0-31.538,7.611-33.664,8.245
		c-2.104,0.601-3.65,2.577-3.65,4.906v39.622c0,2.834,2.297,5.142,5.067,5.142h32.247c0,0,0,41.404,0,95.293
		c0,70.763,49.66,77.72,83.152,77.72c15.286,0,33.578-4.981,36.648-6.054c1.847-0.644,2.899-2.555,2.899-4.595l0.021-43.562
		C1266.058,506.169,1263.676,503.85,1261.013,503.893z"/>
</g>
<g id="boundary">
	<rect x="339.508" y="203.3" fill="none" stroke="#F200FF" stroke-miterlimit="10" width="2063.587" height="380.2"/>
</g>
</svg>
